%TF.GenerationSoftware,KiCad,Pcbnew,8.0.2*%
%TF.CreationDate,2024-08-19T18:08:16-05:00*%
%TF.ProjectId,tank,74616e6b-2e6b-4696-9361-645f70636258,rev?*%
%TF.SameCoordinates,Original*%
%TF.FileFunction,Legend,Bot*%
%TF.FilePolarity,Positive*%
%FSLAX46Y46*%
G04 Gerber Fmt 4.6, Leading zero omitted, Abs format (unit mm)*
G04 Created by KiCad (PCBNEW 8.0.2) date 2024-08-19 18:08:16*
%MOMM*%
%LPD*%
G01*
G04 APERTURE LIST*
%ADD10C,0.150000*%
%ADD11C,0.010000*%
%ADD12C,0.120000*%
G04 APERTURE END LIST*
D10*
X185067066Y-93180563D02*
X185067066Y-93634134D01*
X185067066Y-93634134D02*
X185097305Y-93724848D01*
X185097305Y-93724848D02*
X185157781Y-93785325D01*
X185157781Y-93785325D02*
X185248495Y-93815563D01*
X185248495Y-93815563D02*
X185308971Y-93815563D01*
X184734447Y-93815563D02*
X184613495Y-93815563D01*
X184613495Y-93815563D02*
X184553018Y-93785325D01*
X184553018Y-93785325D02*
X184522780Y-93755086D01*
X184522780Y-93755086D02*
X184462304Y-93664372D01*
X184462304Y-93664372D02*
X184432066Y-93543420D01*
X184432066Y-93543420D02*
X184432066Y-93301515D01*
X184432066Y-93301515D02*
X184462304Y-93241039D01*
X184462304Y-93241039D02*
X184492542Y-93210801D01*
X184492542Y-93210801D02*
X184553018Y-93180563D01*
X184553018Y-93180563D02*
X184673971Y-93180563D01*
X184673971Y-93180563D02*
X184734447Y-93210801D01*
X184734447Y-93210801D02*
X184764685Y-93241039D01*
X184764685Y-93241039D02*
X184794923Y-93301515D01*
X184794923Y-93301515D02*
X184794923Y-93452705D01*
X184794923Y-93452705D02*
X184764685Y-93513182D01*
X184764685Y-93513182D02*
X184734447Y-93543420D01*
X184734447Y-93543420D02*
X184673971Y-93573658D01*
X184673971Y-93573658D02*
X184553018Y-93573658D01*
X184553018Y-93573658D02*
X184492542Y-93543420D01*
X184492542Y-93543420D02*
X184462304Y-93513182D01*
X184462304Y-93513182D02*
X184432066Y-93452705D01*
X179236309Y-113163363D02*
X178873452Y-113163363D01*
X179054881Y-113798363D02*
X179054881Y-113163363D01*
X178661785Y-113798363D02*
X178661785Y-113163363D01*
X178661785Y-113163363D02*
X178419880Y-113163363D01*
X178419880Y-113163363D02*
X178359404Y-113193601D01*
X178359404Y-113193601D02*
X178329166Y-113223839D01*
X178329166Y-113223839D02*
X178298928Y-113284315D01*
X178298928Y-113284315D02*
X178298928Y-113375029D01*
X178298928Y-113375029D02*
X178329166Y-113435505D01*
X178329166Y-113435505D02*
X178359404Y-113465744D01*
X178359404Y-113465744D02*
X178419880Y-113495982D01*
X178419880Y-113495982D02*
X178661785Y-113495982D01*
X177694166Y-113798363D02*
X178057023Y-113798363D01*
X177875595Y-113798363D02*
X177875595Y-113163363D01*
X177875595Y-113163363D02*
X177936071Y-113254077D01*
X177936071Y-113254077D02*
X177996547Y-113314553D01*
X177996547Y-113314553D02*
X178057023Y-113344791D01*
X182911963Y-106742290D02*
X182911963Y-107105147D01*
X183546963Y-106923718D02*
X182911963Y-106923718D01*
X183546963Y-107316814D02*
X182911963Y-107316814D01*
X182911963Y-107316814D02*
X182911963Y-107558719D01*
X182911963Y-107558719D02*
X182942201Y-107619195D01*
X182942201Y-107619195D02*
X182972439Y-107649433D01*
X182972439Y-107649433D02*
X183032915Y-107679671D01*
X183032915Y-107679671D02*
X183123629Y-107679671D01*
X183123629Y-107679671D02*
X183184105Y-107649433D01*
X183184105Y-107649433D02*
X183214344Y-107619195D01*
X183214344Y-107619195D02*
X183244582Y-107558719D01*
X183244582Y-107558719D02*
X183244582Y-107316814D01*
X182911963Y-108223957D02*
X182911963Y-108103004D01*
X182911963Y-108103004D02*
X182942201Y-108042528D01*
X182942201Y-108042528D02*
X182972439Y-108012290D01*
X182972439Y-108012290D02*
X183063153Y-107951814D01*
X183063153Y-107951814D02*
X183184105Y-107921576D01*
X183184105Y-107921576D02*
X183426010Y-107921576D01*
X183426010Y-107921576D02*
X183486486Y-107951814D01*
X183486486Y-107951814D02*
X183516725Y-107982052D01*
X183516725Y-107982052D02*
X183546963Y-108042528D01*
X183546963Y-108042528D02*
X183546963Y-108163481D01*
X183546963Y-108163481D02*
X183516725Y-108223957D01*
X183516725Y-108223957D02*
X183486486Y-108254195D01*
X183486486Y-108254195D02*
X183426010Y-108284433D01*
X183426010Y-108284433D02*
X183274820Y-108284433D01*
X183274820Y-108284433D02*
X183214344Y-108254195D01*
X183214344Y-108254195D02*
X183184105Y-108223957D01*
X183184105Y-108223957D02*
X183153867Y-108163481D01*
X183153867Y-108163481D02*
X183153867Y-108042528D01*
X183153867Y-108042528D02*
X183184105Y-107982052D01*
X183184105Y-107982052D02*
X183214344Y-107951814D01*
X183214344Y-107951814D02*
X183274820Y-107921576D01*
D11*
%TO.C,REF\u002A\u002A*%
X195628229Y-123591697D02*
X195688153Y-123613955D01*
X195713073Y-123630680D01*
X195738310Y-123654643D01*
X195756312Y-123685126D01*
X195768258Y-123726623D01*
X195775330Y-123783632D01*
X195778708Y-123860647D01*
X195779571Y-123962165D01*
X195779402Y-124014627D01*
X195778553Y-124086315D01*
X195777111Y-124143525D01*
X195775214Y-124181409D01*
X195772997Y-124195114D01*
X195758572Y-124190581D01*
X195729454Y-124178270D01*
X195728581Y-124177872D01*
X195713460Y-124169956D01*
X195703291Y-124159095D01*
X195697091Y-124140071D01*
X195693878Y-124107669D01*
X195692670Y-124056671D01*
X195692486Y-123981861D01*
X195692114Y-123934404D01*
X195688150Y-123845215D01*
X195679073Y-123779887D01*
X195663924Y-123734993D01*
X195641745Y-123707107D01*
X195611575Y-123692803D01*
X195607390Y-123691806D01*
X195550880Y-123691027D01*
X195506810Y-123716344D01*
X195476372Y-123767102D01*
X195470944Y-123781775D01*
X195458571Y-123814249D01*
X195452305Y-123829172D01*
X195439436Y-123827116D01*
X195411333Y-123815957D01*
X195385121Y-123797527D01*
X195373171Y-123762698D01*
X195376736Y-123737751D01*
X195398635Y-123687147D01*
X195434044Y-123639728D01*
X195475452Y-123606934D01*
X195492800Y-123599352D01*
X195558489Y-123586676D01*
X195628229Y-123591697D01*
G36*
X195628229Y-123591697D02*
G01*
X195688153Y-123613955D01*
X195713073Y-123630680D01*
X195738310Y-123654643D01*
X195756312Y-123685126D01*
X195768258Y-123726623D01*
X195775330Y-123783632D01*
X195778708Y-123860647D01*
X195779571Y-123962165D01*
X195779402Y-124014627D01*
X195778553Y-124086315D01*
X195777111Y-124143525D01*
X195775214Y-124181409D01*
X195772997Y-124195114D01*
X195758572Y-124190581D01*
X195729454Y-124178270D01*
X195728581Y-124177872D01*
X195713460Y-124169956D01*
X195703291Y-124159095D01*
X195697091Y-124140071D01*
X195693878Y-124107669D01*
X195692670Y-124056671D01*
X195692486Y-123981861D01*
X195692114Y-123934404D01*
X195688150Y-123845215D01*
X195679073Y-123779887D01*
X195663924Y-123734993D01*
X195641745Y-123707107D01*
X195611575Y-123692803D01*
X195607390Y-123691806D01*
X195550880Y-123691027D01*
X195506810Y-123716344D01*
X195476372Y-123767102D01*
X195470944Y-123781775D01*
X195458571Y-123814249D01*
X195452305Y-123829172D01*
X195439436Y-123827116D01*
X195411333Y-123815957D01*
X195385121Y-123797527D01*
X195373171Y-123762698D01*
X195376736Y-123737751D01*
X195398635Y-123687147D01*
X195434044Y-123639728D01*
X195475452Y-123606934D01*
X195492800Y-123599352D01*
X195558489Y-123586676D01*
X195628229Y-123591697D01*
G37*
X199576420Y-123558422D02*
X199644210Y-123590280D01*
X199699766Y-123645370D01*
X199711281Y-123662616D01*
X199720832Y-123682162D01*
X199727606Y-123706798D01*
X199732219Y-123741311D01*
X199735288Y-123790489D01*
X199737429Y-123859119D01*
X199739259Y-123951989D01*
X199743804Y-124209607D01*
X199705625Y-124195091D01*
X199670668Y-124181756D01*
X199644497Y-124168923D01*
X199627413Y-124152380D01*
X199617486Y-124127065D01*
X199612786Y-124087916D01*
X199611382Y-124029868D01*
X199611343Y-123947861D01*
X199611144Y-123882495D01*
X199609959Y-123819773D01*
X199607129Y-123776934D01*
X199602009Y-123748820D01*
X199593953Y-123730275D01*
X199582314Y-123716143D01*
X199553703Y-123696200D01*
X199505639Y-123688683D01*
X199458088Y-123707679D01*
X199454950Y-123710111D01*
X199445169Y-123721348D01*
X199437953Y-123739370D01*
X199432699Y-123768626D01*
X199428802Y-123813562D01*
X199425656Y-123878628D01*
X199422657Y-123968270D01*
X199415400Y-124208297D01*
X199353714Y-124180644D01*
X199292029Y-124152991D01*
X199292029Y-123933846D01*
X199292284Y-123874311D01*
X199294486Y-123791492D01*
X199300061Y-123729827D01*
X199310341Y-123684348D01*
X199326658Y-123650084D01*
X199350343Y-123622066D01*
X199382728Y-123595323D01*
X199429307Y-123568380D01*
X199502687Y-123550791D01*
X199576420Y-123558422D01*
G36*
X199576420Y-123558422D02*
G01*
X199644210Y-123590280D01*
X199699766Y-123645370D01*
X199711281Y-123662616D01*
X199720832Y-123682162D01*
X199727606Y-123706798D01*
X199732219Y-123741311D01*
X199735288Y-123790489D01*
X199737429Y-123859119D01*
X199739259Y-123951989D01*
X199743804Y-124209607D01*
X199705625Y-124195091D01*
X199670668Y-124181756D01*
X199644497Y-124168923D01*
X199627413Y-124152380D01*
X199617486Y-124127065D01*
X199612786Y-124087916D01*
X199611382Y-124029868D01*
X199611343Y-123947861D01*
X199611144Y-123882495D01*
X199609959Y-123819773D01*
X199607129Y-123776934D01*
X199602009Y-123748820D01*
X199593953Y-123730275D01*
X199582314Y-123716143D01*
X199553703Y-123696200D01*
X199505639Y-123688683D01*
X199458088Y-123707679D01*
X199454950Y-123710111D01*
X199445169Y-123721348D01*
X199437953Y-123739370D01*
X199432699Y-123768626D01*
X199428802Y-123813562D01*
X199425656Y-123878628D01*
X199422657Y-123968270D01*
X199415400Y-124208297D01*
X199353714Y-124180644D01*
X199292029Y-124152991D01*
X199292029Y-123933846D01*
X199292284Y-123874311D01*
X199294486Y-123791492D01*
X199300061Y-123729827D01*
X199310341Y-123684348D01*
X199326658Y-123650084D01*
X199350343Y-123622066D01*
X199382728Y-123595323D01*
X199429307Y-123568380D01*
X199502687Y-123550791D01*
X199576420Y-123558422D01*
G37*
X197753091Y-123607067D02*
X197757673Y-123609603D01*
X197795104Y-123638657D01*
X197828570Y-123676010D01*
X197834407Y-123684452D01*
X197845565Y-123704153D01*
X197853536Y-123727535D01*
X197859018Y-123759667D01*
X197862707Y-123805619D01*
X197865299Y-123870459D01*
X197867492Y-123959257D01*
X197867802Y-123974269D01*
X197868800Y-124071599D01*
X197867394Y-124140534D01*
X197863564Y-124181548D01*
X197857289Y-124195114D01*
X197838298Y-124191052D01*
X197806038Y-124178744D01*
X197798441Y-124175145D01*
X197786576Y-124166998D01*
X197778394Y-124153604D01*
X197773043Y-124130208D01*
X197769669Y-124092055D01*
X197767419Y-124034390D01*
X197765440Y-123952457D01*
X197764898Y-123928507D01*
X197762803Y-123852866D01*
X197760083Y-123799928D01*
X197755915Y-123764675D01*
X197749479Y-123742087D01*
X197739950Y-123727144D01*
X197726506Y-123714827D01*
X197686705Y-123693234D01*
X197637741Y-123689076D01*
X197593929Y-123705599D01*
X197562408Y-123739810D01*
X197550314Y-123788714D01*
X197549978Y-123802007D01*
X197543372Y-123826072D01*
X197523870Y-123829744D01*
X197485683Y-123815413D01*
X197476838Y-123810817D01*
X197452934Y-123783786D01*
X197452461Y-123743594D01*
X197475236Y-123688009D01*
X197496127Y-123657717D01*
X197549542Y-123614684D01*
X197615474Y-123590355D01*
X197685974Y-123587043D01*
X197753091Y-123607067D01*
G36*
X197753091Y-123607067D02*
G01*
X197757673Y-123609603D01*
X197795104Y-123638657D01*
X197828570Y-123676010D01*
X197834407Y-123684452D01*
X197845565Y-123704153D01*
X197853536Y-123727535D01*
X197859018Y-123759667D01*
X197862707Y-123805619D01*
X197865299Y-123870459D01*
X197867492Y-123959257D01*
X197867802Y-123974269D01*
X197868800Y-124071599D01*
X197867394Y-124140534D01*
X197863564Y-124181548D01*
X197857289Y-124195114D01*
X197838298Y-124191052D01*
X197806038Y-124178744D01*
X197798441Y-124175145D01*
X197786576Y-124166998D01*
X197778394Y-124153604D01*
X197773043Y-124130208D01*
X197769669Y-124092055D01*
X197767419Y-124034390D01*
X197765440Y-123952457D01*
X197764898Y-123928507D01*
X197762803Y-123852866D01*
X197760083Y-123799928D01*
X197755915Y-123764675D01*
X197749479Y-123742087D01*
X197739950Y-123727144D01*
X197726506Y-123714827D01*
X197686705Y-123693234D01*
X197637741Y-123689076D01*
X197593929Y-123705599D01*
X197562408Y-123739810D01*
X197550314Y-123788714D01*
X197549978Y-123802007D01*
X197543372Y-123826072D01*
X197523870Y-123829744D01*
X197485683Y-123815413D01*
X197476838Y-123810817D01*
X197452934Y-123783786D01*
X197452461Y-123743594D01*
X197475236Y-123688009D01*
X197496127Y-123657717D01*
X197549542Y-123614684D01*
X197615474Y-123590355D01*
X197685974Y-123587043D01*
X197753091Y-123607067D01*
G37*
X198823943Y-123390044D02*
X198871114Y-123409942D01*
X198871114Y-123807109D01*
X198870919Y-123910098D01*
X198870398Y-124002741D01*
X198869599Y-124081300D01*
X198868572Y-124142039D01*
X198867363Y-124181223D01*
X198866023Y-124195114D01*
X198865499Y-124195068D01*
X198847687Y-124190020D01*
X198815223Y-124179180D01*
X198769514Y-124163246D01*
X198769514Y-123958773D01*
X198769224Y-123878432D01*
X198767874Y-123820162D01*
X198764769Y-123780509D01*
X198759212Y-123754218D01*
X198750507Y-123736036D01*
X198737956Y-123720707D01*
X198729399Y-123712555D01*
X198683128Y-123689975D01*
X198632128Y-123691975D01*
X198585393Y-123718673D01*
X198578589Y-123725298D01*
X198567693Y-123739056D01*
X198560236Y-123757242D01*
X198555569Y-123784777D01*
X198553042Y-123826581D01*
X198552002Y-123887573D01*
X198551800Y-123972673D01*
X198551703Y-124015834D01*
X198551074Y-124086824D01*
X198549956Y-124143676D01*
X198548463Y-124181428D01*
X198546709Y-124195114D01*
X198546185Y-124195068D01*
X198528373Y-124190020D01*
X198495909Y-124179180D01*
X198450200Y-124163246D01*
X198450223Y-123957837D01*
X198450257Y-123939551D01*
X198452178Y-123844226D01*
X198458078Y-123772143D01*
X198469401Y-123718413D01*
X198487587Y-123678149D01*
X198514079Y-123646461D01*
X198550318Y-123618461D01*
X198585663Y-123600933D01*
X198642173Y-123587385D01*
X198697756Y-123586615D01*
X198740486Y-123599795D01*
X198743698Y-123601615D01*
X198753605Y-123601420D01*
X198760375Y-123586172D01*
X198765261Y-123551213D01*
X198769514Y-123491889D01*
X198776771Y-123370147D01*
X198823943Y-123390044D01*
G36*
X198823943Y-123390044D02*
G01*
X198871114Y-123409942D01*
X198871114Y-123807109D01*
X198870919Y-123910098D01*
X198870398Y-124002741D01*
X198869599Y-124081300D01*
X198868572Y-124142039D01*
X198867363Y-124181223D01*
X198866023Y-124195114D01*
X198865499Y-124195068D01*
X198847687Y-124190020D01*
X198815223Y-124179180D01*
X198769514Y-124163246D01*
X198769514Y-123958773D01*
X198769224Y-123878432D01*
X198767874Y-123820162D01*
X198764769Y-123780509D01*
X198759212Y-123754218D01*
X198750507Y-123736036D01*
X198737956Y-123720707D01*
X198729399Y-123712555D01*
X198683128Y-123689975D01*
X198632128Y-123691975D01*
X198585393Y-123718673D01*
X198578589Y-123725298D01*
X198567693Y-123739056D01*
X198560236Y-123757242D01*
X198555569Y-123784777D01*
X198553042Y-123826581D01*
X198552002Y-123887573D01*
X198551800Y-123972673D01*
X198551703Y-124015834D01*
X198551074Y-124086824D01*
X198549956Y-124143676D01*
X198548463Y-124181428D01*
X198546709Y-124195114D01*
X198546185Y-124195068D01*
X198528373Y-124190020D01*
X198495909Y-124179180D01*
X198450200Y-124163246D01*
X198450223Y-123957837D01*
X198450257Y-123939551D01*
X198452178Y-123844226D01*
X198458078Y-123772143D01*
X198469401Y-123718413D01*
X198487587Y-123678149D01*
X198514079Y-123646461D01*
X198550318Y-123618461D01*
X198585663Y-123600933D01*
X198642173Y-123587385D01*
X198697756Y-123586615D01*
X198740486Y-123599795D01*
X198743698Y-123601615D01*
X198753605Y-123601420D01*
X198760375Y-123586172D01*
X198765261Y-123551213D01*
X198769514Y-123491889D01*
X198776771Y-123370147D01*
X198823943Y-123390044D01*
G37*
X196799341Y-123589882D02*
X196831174Y-123602358D01*
X196868143Y-123619202D01*
X196868143Y-124105796D01*
X196822212Y-124151727D01*
X196811720Y-124162027D01*
X196782655Y-124184920D01*
X196753343Y-124192335D01*
X196709726Y-124188921D01*
X196691968Y-124186714D01*
X196646167Y-124182045D01*
X196614143Y-124180185D01*
X196604644Y-124180469D01*
X196565674Y-124183548D01*
X196518560Y-124188921D01*
X196503485Y-124190768D01*
X196465510Y-124191493D01*
X196437725Y-124180029D01*
X196406074Y-124151727D01*
X196360143Y-124105796D01*
X196360143Y-123845655D01*
X196360501Y-123768780D01*
X196361616Y-123695486D01*
X196363352Y-123637450D01*
X196365567Y-123599263D01*
X196368121Y-123585514D01*
X196368656Y-123585551D01*
X196387208Y-123592393D01*
X196418553Y-123607468D01*
X196461008Y-123629422D01*
X196465004Y-123857840D01*
X196469000Y-124086257D01*
X196556086Y-124086257D01*
X196560057Y-123835886D01*
X196561316Y-123767827D01*
X196563118Y-123695082D01*
X196565071Y-123637330D01*
X196567012Y-123599248D01*
X196568777Y-123585514D01*
X196569285Y-123585562D01*
X196586882Y-123590615D01*
X196619234Y-123601449D01*
X196664943Y-123617383D01*
X196665165Y-123837306D01*
X196665388Y-123875509D01*
X196666931Y-123949746D01*
X196669692Y-124011745D01*
X196673377Y-124055908D01*
X196677692Y-124076641D01*
X196693132Y-124087731D01*
X196724641Y-124091156D01*
X196759286Y-124086257D01*
X196763257Y-123835886D01*
X196764678Y-123772263D01*
X196767625Y-123696956D01*
X196771479Y-123637886D01*
X196775942Y-123599318D01*
X196780717Y-123585514D01*
X196799341Y-123589882D01*
G36*
X196799341Y-123589882D02*
G01*
X196831174Y-123602358D01*
X196868143Y-123619202D01*
X196868143Y-124105796D01*
X196822212Y-124151727D01*
X196811720Y-124162027D01*
X196782655Y-124184920D01*
X196753343Y-124192335D01*
X196709726Y-124188921D01*
X196691968Y-124186714D01*
X196646167Y-124182045D01*
X196614143Y-124180185D01*
X196604644Y-124180469D01*
X196565674Y-124183548D01*
X196518560Y-124188921D01*
X196503485Y-124190768D01*
X196465510Y-124191493D01*
X196437725Y-124180029D01*
X196406074Y-124151727D01*
X196360143Y-124105796D01*
X196360143Y-123845655D01*
X196360501Y-123768780D01*
X196361616Y-123695486D01*
X196363352Y-123637450D01*
X196365567Y-123599263D01*
X196368121Y-123585514D01*
X196368656Y-123585551D01*
X196387208Y-123592393D01*
X196418553Y-123607468D01*
X196461008Y-123629422D01*
X196465004Y-123857840D01*
X196469000Y-124086257D01*
X196556086Y-124086257D01*
X196560057Y-123835886D01*
X196561316Y-123767827D01*
X196563118Y-123695082D01*
X196565071Y-123637330D01*
X196567012Y-123599248D01*
X196568777Y-123585514D01*
X196569285Y-123585562D01*
X196586882Y-123590615D01*
X196619234Y-123601449D01*
X196664943Y-123617383D01*
X196665165Y-123837306D01*
X196665388Y-123875509D01*
X196666931Y-123949746D01*
X196669692Y-124011745D01*
X196673377Y-124055908D01*
X196677692Y-124076641D01*
X196693132Y-124087731D01*
X196724641Y-124091156D01*
X196759286Y-124086257D01*
X196763257Y-123835886D01*
X196764678Y-123772263D01*
X196767625Y-123696956D01*
X196771479Y-123637886D01*
X196775942Y-123599318D01*
X196780717Y-123585514D01*
X196799341Y-123589882D01*
G37*
X201411114Y-123875800D02*
X201411101Y-123891535D01*
X201410314Y-123961719D01*
X201407610Y-124010622D01*
X201402006Y-124044778D01*
X201392519Y-124070724D01*
X201378168Y-124094997D01*
X201374637Y-124100033D01*
X201337278Y-124139743D01*
X201294711Y-124169692D01*
X201272852Y-124179410D01*
X201194308Y-124195620D01*
X201116631Y-124185135D01*
X201045045Y-124149307D01*
X200984774Y-124089487D01*
X200979686Y-124081473D01*
X200963130Y-124034942D01*
X200951973Y-123970152D01*
X200946560Y-123895327D01*
X200947168Y-123826113D01*
X201093648Y-123826113D01*
X201094802Y-123921999D01*
X201095266Y-123928169D01*
X201102029Y-123981078D01*
X201114071Y-124014629D01*
X201134405Y-124037616D01*
X201168497Y-124059148D01*
X201202214Y-124060280D01*
X201236943Y-124035457D01*
X201242984Y-124028925D01*
X201254817Y-124009379D01*
X201261804Y-123980986D01*
X201265127Y-123937030D01*
X201265971Y-123870792D01*
X201264525Y-123808750D01*
X201257307Y-123749642D01*
X201242406Y-123712286D01*
X201218036Y-123692752D01*
X201182408Y-123687114D01*
X201168840Y-123688235D01*
X201130830Y-123708794D01*
X201105712Y-123754899D01*
X201093648Y-123826113D01*
X200947168Y-123826113D01*
X200947233Y-123818696D01*
X200954337Y-123748482D01*
X200968215Y-123692912D01*
X200986049Y-123655901D01*
X201036255Y-123598333D01*
X201104285Y-123562562D01*
X201187558Y-123550265D01*
X201209798Y-123550931D01*
X201275291Y-123564547D01*
X201329087Y-123598849D01*
X201378457Y-123657938D01*
X201381395Y-123662322D01*
X201394687Y-123685899D01*
X201403332Y-123712549D01*
X201408304Y-123748759D01*
X201410574Y-123801013D01*
X201411078Y-123870792D01*
X201411114Y-123875800D01*
G36*
X201411114Y-123875800D02*
G01*
X201411101Y-123891535D01*
X201410314Y-123961719D01*
X201407610Y-124010622D01*
X201402006Y-124044778D01*
X201392519Y-124070724D01*
X201378168Y-124094997D01*
X201374637Y-124100033D01*
X201337278Y-124139743D01*
X201294711Y-124169692D01*
X201272852Y-124179410D01*
X201194308Y-124195620D01*
X201116631Y-124185135D01*
X201045045Y-124149307D01*
X200984774Y-124089487D01*
X200979686Y-124081473D01*
X200963130Y-124034942D01*
X200951973Y-123970152D01*
X200946560Y-123895327D01*
X200947168Y-123826113D01*
X201093648Y-123826113D01*
X201094802Y-123921999D01*
X201095266Y-123928169D01*
X201102029Y-123981078D01*
X201114071Y-124014629D01*
X201134405Y-124037616D01*
X201168497Y-124059148D01*
X201202214Y-124060280D01*
X201236943Y-124035457D01*
X201242984Y-124028925D01*
X201254817Y-124009379D01*
X201261804Y-123980986D01*
X201265127Y-123937030D01*
X201265971Y-123870792D01*
X201264525Y-123808750D01*
X201257307Y-123749642D01*
X201242406Y-123712286D01*
X201218036Y-123692752D01*
X201182408Y-123687114D01*
X201168840Y-123688235D01*
X201130830Y-123708794D01*
X201105712Y-123754899D01*
X201093648Y-123826113D01*
X200947168Y-123826113D01*
X200947233Y-123818696D01*
X200954337Y-123748482D01*
X200968215Y-123692912D01*
X200986049Y-123655901D01*
X201036255Y-123598333D01*
X201104285Y-123562562D01*
X201187558Y-123550265D01*
X201209798Y-123550931D01*
X201275291Y-123564547D01*
X201329087Y-123598849D01*
X201378457Y-123657938D01*
X201381395Y-123662322D01*
X201394687Y-123685899D01*
X201403332Y-123712549D01*
X201408304Y-123748759D01*
X201410574Y-123801013D01*
X201411078Y-123870792D01*
X201411114Y-123875800D01*
G37*
X195285990Y-123893222D02*
X195285707Y-123931905D01*
X195282162Y-124008121D01*
X195272883Y-124063894D01*
X195255775Y-124105213D01*
X195228744Y-124138067D01*
X195189692Y-124168446D01*
X195164845Y-124182260D01*
X195125015Y-124191565D01*
X195069065Y-124190830D01*
X195037785Y-124187883D01*
X195000053Y-124178883D01*
X194969894Y-124159320D01*
X194934808Y-124122867D01*
X194930120Y-124117543D01*
X194898577Y-124076569D01*
X194883528Y-124040883D01*
X194879686Y-123998566D01*
X194879686Y-123936379D01*
X194923142Y-123952782D01*
X194954824Y-123971956D01*
X194982362Y-124016947D01*
X194988111Y-124031352D01*
X195020255Y-124072146D01*
X195064011Y-124092681D01*
X195111654Y-124090835D01*
X195155457Y-124064486D01*
X195170511Y-124048055D01*
X195184163Y-124023267D01*
X195179893Y-124000744D01*
X195155316Y-123977564D01*
X195108051Y-123950802D01*
X195035714Y-123917534D01*
X194886943Y-123852416D01*
X194882995Y-123787908D01*
X194884479Y-123746820D01*
X194981410Y-123746820D01*
X194988768Y-123772257D01*
X195022248Y-123799414D01*
X195083014Y-123830314D01*
X195093069Y-123834790D01*
X195141151Y-123855617D01*
X195177126Y-123870265D01*
X195193844Y-123875800D01*
X195196377Y-123871726D01*
X195197393Y-123846847D01*
X195193769Y-123806857D01*
X195184642Y-123767752D01*
X195156173Y-123718484D01*
X195115078Y-123690722D01*
X195065990Y-123686964D01*
X195013544Y-123709709D01*
X194999009Y-123721081D01*
X194981410Y-123746820D01*
X194884479Y-123746820D01*
X194884738Y-123739664D01*
X194906681Y-123678696D01*
X194934379Y-123645097D01*
X194991805Y-123607566D01*
X195059927Y-123588606D01*
X195130347Y-123590107D01*
X195194667Y-123613955D01*
X195208826Y-123623113D01*
X195241304Y-123651449D01*
X195263516Y-123687295D01*
X195277204Y-123735984D01*
X195284115Y-123802849D01*
X195285028Y-123846847D01*
X195285990Y-123893222D01*
G36*
X195285990Y-123893222D02*
G01*
X195285707Y-123931905D01*
X195282162Y-124008121D01*
X195272883Y-124063894D01*
X195255775Y-124105213D01*
X195228744Y-124138067D01*
X195189692Y-124168446D01*
X195164845Y-124182260D01*
X195125015Y-124191565D01*
X195069065Y-124190830D01*
X195037785Y-124187883D01*
X195000053Y-124178883D01*
X194969894Y-124159320D01*
X194934808Y-124122867D01*
X194930120Y-124117543D01*
X194898577Y-124076569D01*
X194883528Y-124040883D01*
X194879686Y-123998566D01*
X194879686Y-123936379D01*
X194923142Y-123952782D01*
X194954824Y-123971956D01*
X194982362Y-124016947D01*
X194988111Y-124031352D01*
X195020255Y-124072146D01*
X195064011Y-124092681D01*
X195111654Y-124090835D01*
X195155457Y-124064486D01*
X195170511Y-124048055D01*
X195184163Y-124023267D01*
X195179893Y-124000744D01*
X195155316Y-123977564D01*
X195108051Y-123950802D01*
X195035714Y-123917534D01*
X194886943Y-123852416D01*
X194882995Y-123787908D01*
X194884479Y-123746820D01*
X194981410Y-123746820D01*
X194988768Y-123772257D01*
X195022248Y-123799414D01*
X195083014Y-123830314D01*
X195093069Y-123834790D01*
X195141151Y-123855617D01*
X195177126Y-123870265D01*
X195193844Y-123875800D01*
X195196377Y-123871726D01*
X195197393Y-123846847D01*
X195193769Y-123806857D01*
X195184642Y-123767752D01*
X195156173Y-123718484D01*
X195115078Y-123690722D01*
X195065990Y-123686964D01*
X195013544Y-123709709D01*
X194999009Y-123721081D01*
X194981410Y-123746820D01*
X194884479Y-123746820D01*
X194884738Y-123739664D01*
X194906681Y-123678696D01*
X194934379Y-123645097D01*
X194991805Y-123607566D01*
X195059927Y-123588606D01*
X195130347Y-123590107D01*
X195194667Y-123613955D01*
X195208826Y-123623113D01*
X195241304Y-123651449D01*
X195263516Y-123687295D01*
X195277204Y-123735984D01*
X195284115Y-123802849D01*
X195285028Y-123846847D01*
X195285990Y-123893222D01*
G37*
X197376098Y-123890314D02*
X197374937Y-123946913D01*
X197366745Y-124024062D01*
X197348919Y-124081876D01*
X197319375Y-124126022D01*
X197276025Y-124162168D01*
X197234732Y-124183063D01*
X197165387Y-124194690D01*
X197096136Y-124181977D01*
X197033545Y-124146545D01*
X196984179Y-124090018D01*
X196978218Y-124079595D01*
X196970345Y-124061333D01*
X196964506Y-124038029D01*
X196960399Y-124005685D01*
X196957725Y-123960304D01*
X196956181Y-123897887D01*
X196956134Y-123892348D01*
X197056829Y-123892348D01*
X197057172Y-123945177D01*
X197059342Y-123992962D01*
X197064707Y-124023809D01*
X197074617Y-124044535D01*
X197090421Y-124061956D01*
X197094124Y-124065305D01*
X197141699Y-124090019D01*
X197192035Y-124087490D01*
X197238917Y-124057888D01*
X197252877Y-124042553D01*
X197264560Y-124022222D01*
X197271086Y-123994114D01*
X197273924Y-123951150D01*
X197274543Y-123886247D01*
X197274237Y-123836722D01*
X197272122Y-123788382D01*
X197266790Y-123757187D01*
X197256860Y-123736247D01*
X197240950Y-123718673D01*
X197231604Y-123710759D01*
X197183176Y-123689443D01*
X197132440Y-123692798D01*
X197088387Y-123720707D01*
X197078904Y-123731773D01*
X197067339Y-123752609D01*
X197060652Y-123781706D01*
X197057573Y-123825981D01*
X197056829Y-123892348D01*
X196956134Y-123892348D01*
X196955467Y-123814437D01*
X196955283Y-123705958D01*
X196955229Y-123369201D01*
X197002400Y-123388962D01*
X197014872Y-123394370D01*
X197034724Y-123406585D01*
X197046087Y-123425082D01*
X197052333Y-123457429D01*
X197056829Y-123511193D01*
X197060935Y-123559466D01*
X197066363Y-123591157D01*
X197074139Y-123602983D01*
X197085857Y-123599812D01*
X197115718Y-123588667D01*
X197169084Y-123585904D01*
X197226493Y-123596225D01*
X197276025Y-123618461D01*
X197303276Y-123639043D01*
X197338265Y-123679200D01*
X197360674Y-123730686D01*
X197372590Y-123799168D01*
X197375942Y-123886247D01*
X197376098Y-123890314D01*
G36*
X197376098Y-123890314D02*
G01*
X197374937Y-123946913D01*
X197366745Y-124024062D01*
X197348919Y-124081876D01*
X197319375Y-124126022D01*
X197276025Y-124162168D01*
X197234732Y-124183063D01*
X197165387Y-124194690D01*
X197096136Y-124181977D01*
X197033545Y-124146545D01*
X196984179Y-124090018D01*
X196978218Y-124079595D01*
X196970345Y-124061333D01*
X196964506Y-124038029D01*
X196960399Y-124005685D01*
X196957725Y-123960304D01*
X196956181Y-123897887D01*
X196956134Y-123892348D01*
X197056829Y-123892348D01*
X197057172Y-123945177D01*
X197059342Y-123992962D01*
X197064707Y-124023809D01*
X197074617Y-124044535D01*
X197090421Y-124061956D01*
X197094124Y-124065305D01*
X197141699Y-124090019D01*
X197192035Y-124087490D01*
X197238917Y-124057888D01*
X197252877Y-124042553D01*
X197264560Y-124022222D01*
X197271086Y-123994114D01*
X197273924Y-123951150D01*
X197274543Y-123886247D01*
X197274237Y-123836722D01*
X197272122Y-123788382D01*
X197266790Y-123757187D01*
X197256860Y-123736247D01*
X197240950Y-123718673D01*
X197231604Y-123710759D01*
X197183176Y-123689443D01*
X197132440Y-123692798D01*
X197088387Y-123720707D01*
X197078904Y-123731773D01*
X197067339Y-123752609D01*
X197060652Y-123781706D01*
X197057573Y-123825981D01*
X197056829Y-123892348D01*
X196956134Y-123892348D01*
X196955467Y-123814437D01*
X196955283Y-123705958D01*
X196955229Y-123369201D01*
X197002400Y-123388962D01*
X197014872Y-123394370D01*
X197034724Y-123406585D01*
X197046087Y-123425082D01*
X197052333Y-123457429D01*
X197056829Y-123511193D01*
X197060935Y-123559466D01*
X197066363Y-123591157D01*
X197074139Y-123602983D01*
X197085857Y-123599812D01*
X197115718Y-123588667D01*
X197169084Y-123585904D01*
X197226493Y-123596225D01*
X197276025Y-123618461D01*
X197303276Y-123639043D01*
X197338265Y-123679200D01*
X197360674Y-123730686D01*
X197372590Y-123799168D01*
X197375942Y-123886247D01*
X197376098Y-123890314D01*
G37*
X200307699Y-123834655D02*
X200303084Y-123944678D01*
X200300478Y-123967987D01*
X200281060Y-124050952D01*
X200245973Y-124114048D01*
X200192612Y-124162408D01*
X200189596Y-124164404D01*
X200121762Y-124192785D01*
X200050935Y-124195311D01*
X199982689Y-124173697D01*
X199922596Y-124129662D01*
X199876229Y-124064922D01*
X199875450Y-124063361D01*
X199860043Y-124023158D01*
X199848757Y-123977466D01*
X199842770Y-123934572D01*
X199843261Y-123902760D01*
X199851407Y-123890314D01*
X199858644Y-123891071D01*
X199893251Y-123904835D01*
X199932478Y-123930146D01*
X199965848Y-123959445D01*
X199982883Y-123985172D01*
X200000592Y-124020071D01*
X200036885Y-124051812D01*
X200079030Y-124064486D01*
X200094477Y-124060821D01*
X200124969Y-124042374D01*
X200151528Y-124016766D01*
X200162886Y-123993534D01*
X200162882Y-123993448D01*
X200149996Y-123982779D01*
X200115641Y-123963533D01*
X200064993Y-123938413D01*
X200003229Y-123910124D01*
X200002889Y-123909974D01*
X199935788Y-123880098D01*
X199890811Y-123858573D01*
X199863545Y-123842037D01*
X199849578Y-123827131D01*
X199844497Y-123810493D01*
X199843890Y-123788762D01*
X199848112Y-123747613D01*
X199991400Y-123747613D01*
X200006191Y-123760549D01*
X200043044Y-123779933D01*
X200044125Y-123780481D01*
X200087605Y-123801187D01*
X200126502Y-123817705D01*
X200151178Y-123824693D01*
X200161076Y-123815353D01*
X200162886Y-123783348D01*
X200155366Y-123743515D01*
X200129297Y-123707317D01*
X200091554Y-123688550D01*
X200049477Y-123690445D01*
X200010405Y-123716232D01*
X199995047Y-123734051D01*
X199991400Y-123747613D01*
X199848112Y-123747613D01*
X199849233Y-123736686D01*
X199875651Y-123665935D01*
X199919873Y-123610335D01*
X199977097Y-123571839D01*
X200042520Y-123552397D01*
X200111337Y-123553959D01*
X200178747Y-123578478D01*
X200239944Y-123627902D01*
X200273850Y-123676812D01*
X200298206Y-123746627D01*
X200302167Y-123783348D01*
X200307699Y-123834655D01*
G36*
X200307699Y-123834655D02*
G01*
X200303084Y-123944678D01*
X200300478Y-123967987D01*
X200281060Y-124050952D01*
X200245973Y-124114048D01*
X200192612Y-124162408D01*
X200189596Y-124164404D01*
X200121762Y-124192785D01*
X200050935Y-124195311D01*
X199982689Y-124173697D01*
X199922596Y-124129662D01*
X199876229Y-124064922D01*
X199875450Y-124063361D01*
X199860043Y-124023158D01*
X199848757Y-123977466D01*
X199842770Y-123934572D01*
X199843261Y-123902760D01*
X199851407Y-123890314D01*
X199858644Y-123891071D01*
X199893251Y-123904835D01*
X199932478Y-123930146D01*
X199965848Y-123959445D01*
X199982883Y-123985172D01*
X200000592Y-124020071D01*
X200036885Y-124051812D01*
X200079030Y-124064486D01*
X200094477Y-124060821D01*
X200124969Y-124042374D01*
X200151528Y-124016766D01*
X200162886Y-123993534D01*
X200162882Y-123993448D01*
X200149996Y-123982779D01*
X200115641Y-123963533D01*
X200064993Y-123938413D01*
X200003229Y-123910124D01*
X200002889Y-123909974D01*
X199935788Y-123880098D01*
X199890811Y-123858573D01*
X199863545Y-123842037D01*
X199849578Y-123827131D01*
X199844497Y-123810493D01*
X199843890Y-123788762D01*
X199848112Y-123747613D01*
X199991400Y-123747613D01*
X200006191Y-123760549D01*
X200043044Y-123779933D01*
X200044125Y-123780481D01*
X200087605Y-123801187D01*
X200126502Y-123817705D01*
X200151178Y-123824693D01*
X200161076Y-123815353D01*
X200162886Y-123783348D01*
X200155366Y-123743515D01*
X200129297Y-123707317D01*
X200091554Y-123688550D01*
X200049477Y-123690445D01*
X200010405Y-123716232D01*
X199995047Y-123734051D01*
X199991400Y-123747613D01*
X199848112Y-123747613D01*
X199849233Y-123736686D01*
X199875651Y-123665935D01*
X199919873Y-123610335D01*
X199977097Y-123571839D01*
X200042520Y-123552397D01*
X200111337Y-123553959D01*
X200178747Y-123578478D01*
X200239944Y-123627902D01*
X200273850Y-123676812D01*
X200298206Y-123746627D01*
X200302167Y-123783348D01*
X200307699Y-123834655D01*
G37*
X198234883Y-123601169D02*
X198284776Y-123630261D01*
X198306725Y-123652927D01*
X198348904Y-123720682D01*
X198363114Y-123794550D01*
X198363114Y-123845370D01*
X198316399Y-123825728D01*
X198284092Y-123805908D01*
X198258631Y-123764760D01*
X198256016Y-123756275D01*
X198227878Y-123713051D01*
X198185467Y-123689703D01*
X198136770Y-123688700D01*
X198089773Y-123712514D01*
X198082757Y-123718656D01*
X198059293Y-123745345D01*
X198055419Y-123768614D01*
X198073168Y-123791462D01*
X198114579Y-123816887D01*
X198181686Y-123847888D01*
X198186224Y-123849852D01*
X198260722Y-123884590D01*
X198311603Y-123915363D01*
X198342925Y-123946088D01*
X198358743Y-123980682D01*
X198363114Y-124023062D01*
X198357386Y-124070046D01*
X198328462Y-124130185D01*
X198277578Y-124173388D01*
X198240774Y-124186359D01*
X198188834Y-124193456D01*
X198138399Y-124191940D01*
X198102383Y-124181232D01*
X198098558Y-124178566D01*
X198088398Y-124159937D01*
X198095448Y-124127105D01*
X198107697Y-124101335D01*
X198127339Y-124090606D01*
X198164591Y-124091139D01*
X198216308Y-124088062D01*
X198250101Y-124066812D01*
X198261514Y-124027477D01*
X198261504Y-124026347D01*
X198254587Y-124003513D01*
X198231059Y-123982563D01*
X198185314Y-123958415D01*
X198123104Y-123929341D01*
X198081899Y-123913525D01*
X198058112Y-123914544D01*
X198046997Y-123935437D01*
X198043808Y-123979241D01*
X198043800Y-124048993D01*
X198043444Y-124092052D01*
X198041813Y-124145226D01*
X198039161Y-124181622D01*
X198035822Y-124195114D01*
X198034930Y-124195023D01*
X198015637Y-124187710D01*
X197983684Y-124172278D01*
X197939524Y-124149442D01*
X197944771Y-123943678D01*
X197945136Y-123930032D01*
X197949304Y-123834251D01*
X197956668Y-123762062D01*
X197968730Y-123708658D01*
X197986993Y-123669233D01*
X198012960Y-123638980D01*
X198048133Y-123613093D01*
X198048784Y-123612687D01*
X198105656Y-123591568D01*
X198171433Y-123588000D01*
X198234883Y-123601169D01*
G36*
X198234883Y-123601169D02*
G01*
X198284776Y-123630261D01*
X198306725Y-123652927D01*
X198348904Y-123720682D01*
X198363114Y-123794550D01*
X198363114Y-123845370D01*
X198316399Y-123825728D01*
X198284092Y-123805908D01*
X198258631Y-123764760D01*
X198256016Y-123756275D01*
X198227878Y-123713051D01*
X198185467Y-123689703D01*
X198136770Y-123688700D01*
X198089773Y-123712514D01*
X198082757Y-123718656D01*
X198059293Y-123745345D01*
X198055419Y-123768614D01*
X198073168Y-123791462D01*
X198114579Y-123816887D01*
X198181686Y-123847888D01*
X198186224Y-123849852D01*
X198260722Y-123884590D01*
X198311603Y-123915363D01*
X198342925Y-123946088D01*
X198358743Y-123980682D01*
X198363114Y-124023062D01*
X198357386Y-124070046D01*
X198328462Y-124130185D01*
X198277578Y-124173388D01*
X198240774Y-124186359D01*
X198188834Y-124193456D01*
X198138399Y-124191940D01*
X198102383Y-124181232D01*
X198098558Y-124178566D01*
X198088398Y-124159937D01*
X198095448Y-124127105D01*
X198107697Y-124101335D01*
X198127339Y-124090606D01*
X198164591Y-124091139D01*
X198216308Y-124088062D01*
X198250101Y-124066812D01*
X198261514Y-124027477D01*
X198261504Y-124026347D01*
X198254587Y-124003513D01*
X198231059Y-123982563D01*
X198185314Y-123958415D01*
X198123104Y-123929341D01*
X198081899Y-123913525D01*
X198058112Y-123914544D01*
X198046997Y-123935437D01*
X198043808Y-123979241D01*
X198043800Y-124048993D01*
X198043444Y-124092052D01*
X198041813Y-124145226D01*
X198039161Y-124181622D01*
X198035822Y-124195114D01*
X198034930Y-124195023D01*
X198015637Y-124187710D01*
X197983684Y-124172278D01*
X197939524Y-124149442D01*
X197944771Y-123943678D01*
X197945136Y-123930032D01*
X197949304Y-123834251D01*
X197956668Y-123762062D01*
X197968730Y-123708658D01*
X197986993Y-123669233D01*
X198012960Y-123638980D01*
X198048133Y-123613093D01*
X198048784Y-123612687D01*
X198105656Y-123591568D01*
X198171433Y-123588000D01*
X198234883Y-123601169D01*
G37*
X200855215Y-123942124D02*
X200856652Y-124053600D01*
X200857051Y-124085939D01*
X200858329Y-124194055D01*
X200858585Y-124276786D01*
X200857034Y-124337026D01*
X200852890Y-124377673D01*
X200845364Y-124401623D01*
X200833671Y-124411771D01*
X200817024Y-124411014D01*
X200794636Y-124402248D01*
X200765721Y-124388369D01*
X200759542Y-124385408D01*
X200733813Y-124370911D01*
X200720376Y-124353665D01*
X200715234Y-124324908D01*
X200714390Y-124275883D01*
X200714352Y-124187857D01*
X200623676Y-124187857D01*
X200567898Y-124185415D01*
X200524040Y-124175508D01*
X200487618Y-124155486D01*
X200484903Y-124153529D01*
X200447946Y-124120469D01*
X200422226Y-124080531D01*
X200406006Y-124028257D01*
X200397548Y-123958188D01*
X200395483Y-123879030D01*
X200540257Y-123879030D01*
X200540282Y-123892297D01*
X200541661Y-123952184D01*
X200546087Y-123991332D01*
X200554861Y-124016753D01*
X200569286Y-124035457D01*
X200570184Y-124036350D01*
X200605637Y-124060552D01*
X200639996Y-124058167D01*
X200678803Y-124028860D01*
X200688295Y-124018844D01*
X200702276Y-123998308D01*
X200710160Y-123971597D01*
X200713645Y-123931099D01*
X200714429Y-123869203D01*
X200713750Y-123831730D01*
X200706383Y-123763580D01*
X200689568Y-123718930D01*
X200661634Y-123694526D01*
X200620909Y-123687114D01*
X200603750Y-123688694D01*
X200574060Y-123704366D01*
X200554431Y-123739291D01*
X200543588Y-123796501D01*
X200540257Y-123879030D01*
X200395483Y-123879030D01*
X200395114Y-123864867D01*
X200395653Y-123796769D01*
X200398107Y-123745187D01*
X200403558Y-123709416D01*
X200413086Y-123682615D01*
X200427771Y-123657938D01*
X200441252Y-123639080D01*
X200490199Y-123588168D01*
X200545656Y-123560518D01*
X200615328Y-123551765D01*
X200695064Y-123560490D01*
X200763995Y-123591785D01*
X200818513Y-123646981D01*
X200822623Y-123652824D01*
X200832208Y-123668353D01*
X200839551Y-123686098D01*
X200845012Y-123709890D01*
X200848950Y-123743558D01*
X200851723Y-123790933D01*
X200853692Y-123855845D01*
X200853928Y-123869203D01*
X200855215Y-123942124D01*
G36*
X200855215Y-123942124D02*
G01*
X200856652Y-124053600D01*
X200857051Y-124085939D01*
X200858329Y-124194055D01*
X200858585Y-124276786D01*
X200857034Y-124337026D01*
X200852890Y-124377673D01*
X200845364Y-124401623D01*
X200833671Y-124411771D01*
X200817024Y-124411014D01*
X200794636Y-124402248D01*
X200765721Y-124388369D01*
X200759542Y-124385408D01*
X200733813Y-124370911D01*
X200720376Y-124353665D01*
X200715234Y-124324908D01*
X200714390Y-124275883D01*
X200714352Y-124187857D01*
X200623676Y-124187857D01*
X200567898Y-124185415D01*
X200524040Y-124175508D01*
X200487618Y-124155486D01*
X200484903Y-124153529D01*
X200447946Y-124120469D01*
X200422226Y-124080531D01*
X200406006Y-124028257D01*
X200397548Y-123958188D01*
X200395483Y-123879030D01*
X200540257Y-123879030D01*
X200540282Y-123892297D01*
X200541661Y-123952184D01*
X200546087Y-123991332D01*
X200554861Y-124016753D01*
X200569286Y-124035457D01*
X200570184Y-124036350D01*
X200605637Y-124060552D01*
X200639996Y-124058167D01*
X200678803Y-124028860D01*
X200688295Y-124018844D01*
X200702276Y-123998308D01*
X200710160Y-123971597D01*
X200713645Y-123931099D01*
X200714429Y-123869203D01*
X200713750Y-123831730D01*
X200706383Y-123763580D01*
X200689568Y-123718930D01*
X200661634Y-123694526D01*
X200620909Y-123687114D01*
X200603750Y-123688694D01*
X200574060Y-123704366D01*
X200554431Y-123739291D01*
X200543588Y-123796501D01*
X200540257Y-123879030D01*
X200395483Y-123879030D01*
X200395114Y-123864867D01*
X200395653Y-123796769D01*
X200398107Y-123745187D01*
X200403558Y-123709416D01*
X200413086Y-123682615D01*
X200427771Y-123657938D01*
X200441252Y-123639080D01*
X200490199Y-123588168D01*
X200545656Y-123560518D01*
X200615328Y-123551765D01*
X200695064Y-123560490D01*
X200763995Y-123591785D01*
X200818513Y-123646981D01*
X200822623Y-123652824D01*
X200832208Y-123668353D01*
X200839551Y-123686098D01*
X200845012Y-123709890D01*
X200848950Y-123743558D01*
X200851723Y-123790933D01*
X200853692Y-123855845D01*
X200853928Y-123869203D01*
X200855215Y-123942124D01*
G37*
X196112895Y-123586820D02*
X196143999Y-123594721D01*
X196172959Y-123614417D01*
X196210231Y-123651084D01*
X196234201Y-123676978D01*
X196259170Y-123710597D01*
X196270431Y-123742106D01*
X196273057Y-123782085D01*
X196273057Y-123847517D01*
X196228435Y-123824442D01*
X196193073Y-123796324D01*
X196168851Y-123758448D01*
X196164691Y-123748151D01*
X196132994Y-123708237D01*
X196088954Y-123688224D01*
X196040931Y-123690172D01*
X195997286Y-123716143D01*
X195978820Y-123737235D01*
X195968063Y-123764219D01*
X195979578Y-123788234D01*
X196015381Y-123812391D01*
X196077490Y-123839799D01*
X196086915Y-123843585D01*
X196143458Y-123868359D01*
X196191980Y-123892789D01*
X196222851Y-123912086D01*
X196253771Y-123946553D01*
X196274327Y-124001557D01*
X196272144Y-124060583D01*
X196247824Y-124116445D01*
X196201968Y-124161955D01*
X196164838Y-124181327D01*
X196093111Y-124194892D01*
X196053252Y-124193062D01*
X196016353Y-124183168D01*
X196002197Y-124162406D01*
X196007491Y-124128213D01*
X196009031Y-124123692D01*
X196021242Y-124099716D01*
X196041574Y-124090642D01*
X196080308Y-124091249D01*
X196107657Y-124092074D01*
X196139657Y-124084992D01*
X196161582Y-124063819D01*
X196174070Y-124037752D01*
X196175462Y-124010445D01*
X196175398Y-124010285D01*
X196159207Y-123995530D01*
X196124555Y-123974057D01*
X196079721Y-123950058D01*
X196032982Y-123927725D01*
X195992617Y-123911252D01*
X195966904Y-123904829D01*
X195963079Y-123911118D01*
X195958264Y-123940715D01*
X195954966Y-123989047D01*
X195953743Y-124049972D01*
X195953458Y-124092142D01*
X195952118Y-124145253D01*
X195949928Y-124181625D01*
X195947169Y-124195114D01*
X195932744Y-124190581D01*
X195903626Y-124178270D01*
X195866657Y-124161426D01*
X195866657Y-123945321D01*
X195866893Y-123889927D01*
X195869129Y-123805807D01*
X195874823Y-123743400D01*
X195885303Y-123697958D01*
X195901897Y-123664733D01*
X195925931Y-123638978D01*
X195958733Y-123615944D01*
X196000524Y-123596935D01*
X196077687Y-123585514D01*
X196112895Y-123586820D01*
G36*
X196112895Y-123586820D02*
G01*
X196143999Y-123594721D01*
X196172959Y-123614417D01*
X196210231Y-123651084D01*
X196234201Y-123676978D01*
X196259170Y-123710597D01*
X196270431Y-123742106D01*
X196273057Y-123782085D01*
X196273057Y-123847517D01*
X196228435Y-123824442D01*
X196193073Y-123796324D01*
X196168851Y-123758448D01*
X196164691Y-123748151D01*
X196132994Y-123708237D01*
X196088954Y-123688224D01*
X196040931Y-123690172D01*
X195997286Y-123716143D01*
X195978820Y-123737235D01*
X195968063Y-123764219D01*
X195979578Y-123788234D01*
X196015381Y-123812391D01*
X196077490Y-123839799D01*
X196086915Y-123843585D01*
X196143458Y-123868359D01*
X196191980Y-123892789D01*
X196222851Y-123912086D01*
X196253771Y-123946553D01*
X196274327Y-124001557D01*
X196272144Y-124060583D01*
X196247824Y-124116445D01*
X196201968Y-124161955D01*
X196164838Y-124181327D01*
X196093111Y-124194892D01*
X196053252Y-124193062D01*
X196016353Y-124183168D01*
X196002197Y-124162406D01*
X196007491Y-124128213D01*
X196009031Y-124123692D01*
X196021242Y-124099716D01*
X196041574Y-124090642D01*
X196080308Y-124091249D01*
X196107657Y-124092074D01*
X196139657Y-124084992D01*
X196161582Y-124063819D01*
X196174070Y-124037752D01*
X196175462Y-124010445D01*
X196175398Y-124010285D01*
X196159207Y-123995530D01*
X196124555Y-123974057D01*
X196079721Y-123950058D01*
X196032982Y-123927725D01*
X195992617Y-123911252D01*
X195966904Y-123904829D01*
X195963079Y-123911118D01*
X195958264Y-123940715D01*
X195954966Y-123989047D01*
X195953743Y-124049972D01*
X195953458Y-124092142D01*
X195952118Y-124145253D01*
X195949928Y-124181625D01*
X195947169Y-124195114D01*
X195932744Y-124190581D01*
X195903626Y-124178270D01*
X195866657Y-124161426D01*
X195866657Y-123945321D01*
X195866893Y-123889927D01*
X195869129Y-123805807D01*
X195874823Y-123743400D01*
X195885303Y-123697958D01*
X195901897Y-123664733D01*
X195925931Y-123638978D01*
X195958733Y-123615944D01*
X196000524Y-123596935D01*
X196077687Y-123585514D01*
X196112895Y-123586820D01*
G37*
X198259333Y-118882971D02*
X198335256Y-118883465D01*
X198389891Y-118884735D01*
X198426900Y-118887147D01*
X198449947Y-118891067D01*
X198462696Y-118896862D01*
X198468811Y-118904899D01*
X198471956Y-118915543D01*
X198472046Y-118915925D01*
X198477214Y-118940947D01*
X198486609Y-118989281D01*
X198499267Y-119055860D01*
X198514225Y-119135614D01*
X198530519Y-119223475D01*
X198531848Y-119230664D01*
X198548091Y-119315940D01*
X198563205Y-119390842D01*
X198576208Y-119450819D01*
X198586115Y-119491317D01*
X198591944Y-119507784D01*
X198591975Y-119507810D01*
X198610343Y-119516920D01*
X198648040Y-119532057D01*
X198696943Y-119549958D01*
X198699697Y-119550930D01*
X198762217Y-119574559D01*
X198834943Y-119604195D01*
X198902694Y-119633662D01*
X199014103Y-119684226D01*
X199260799Y-119515760D01*
X199278175Y-119503911D01*
X199352602Y-119453547D01*
X199419014Y-119409212D01*
X199473439Y-119373516D01*
X199511906Y-119349071D01*
X199530442Y-119338489D01*
X199543143Y-119340915D01*
X199571979Y-119359710D01*
X199616543Y-119396930D01*
X199678070Y-119453620D01*
X199757798Y-119530827D01*
X199764932Y-119537855D01*
X199828196Y-119600822D01*
X199884390Y-119657868D01*
X199930077Y-119705417D01*
X199961814Y-119739897D01*
X199976164Y-119757731D01*
X199976210Y-119757817D01*
X199978033Y-119771395D01*
X199971310Y-119793420D01*
X199954346Y-119826904D01*
X199925444Y-119874861D01*
X199882908Y-119940304D01*
X199825044Y-120026245D01*
X199815183Y-120040751D01*
X199765313Y-120114235D01*
X199721305Y-120179287D01*
X199685780Y-120232017D01*
X199661359Y-120268536D01*
X199650664Y-120284956D01*
X199649858Y-120288434D01*
X199654918Y-120314385D01*
X199670077Y-120356759D01*
X199692863Y-120408328D01*
X199723829Y-120475770D01*
X199758404Y-120555795D01*
X199787766Y-120628229D01*
X199795045Y-120646977D01*
X199814110Y-120694846D01*
X199828115Y-120728196D01*
X199834441Y-120740714D01*
X199841425Y-120741650D01*
X199872813Y-120747061D01*
X199924187Y-120756406D01*
X199990202Y-120768669D01*
X200065513Y-120782832D01*
X200144775Y-120797880D01*
X200222643Y-120812795D01*
X200293770Y-120826561D01*
X200352812Y-120838162D01*
X200394422Y-120846580D01*
X200413257Y-120850799D01*
X200416380Y-120851989D01*
X200423991Y-120858405D01*
X200429654Y-120872065D01*
X200433651Y-120896599D01*
X200436266Y-120935638D01*
X200437784Y-120992813D01*
X200438486Y-121071754D01*
X200438657Y-121176092D01*
X200438657Y-121493399D01*
X200362457Y-121508439D01*
X200353240Y-121510242D01*
X200304291Y-121519580D01*
X200236605Y-121532269D01*
X200157878Y-121546873D01*
X200075800Y-121561955D01*
X200043478Y-121568022D01*
X199971255Y-121582781D01*
X199911066Y-121596737D01*
X199868440Y-121608552D01*
X199848910Y-121616887D01*
X199840060Y-121630505D01*
X199823948Y-121666538D01*
X199807465Y-121713172D01*
X199801663Y-121730634D01*
X199780306Y-121787958D01*
X199752759Y-121855801D01*
X199723507Y-121922955D01*
X199707863Y-121958030D01*
X199685574Y-122010422D01*
X199670257Y-122049658D01*
X199664562Y-122069163D01*
X199664878Y-122070636D01*
X199675681Y-122091329D01*
X199700038Y-122131265D01*
X199735481Y-122186572D01*
X199779536Y-122253381D01*
X199829732Y-122327820D01*
X199994901Y-122570223D01*
X199777903Y-122787583D01*
X199756916Y-122808499D01*
X199692742Y-122871105D01*
X199635390Y-122925095D01*
X199588220Y-122967426D01*
X199554592Y-122995057D01*
X199537867Y-123004943D01*
X199519703Y-122997421D01*
X199481665Y-122975827D01*
X199428126Y-122942751D01*
X199363284Y-122900791D01*
X199291340Y-122852543D01*
X199220675Y-122804891D01*
X199156926Y-122762928D01*
X199104913Y-122729765D01*
X199068679Y-122707978D01*
X199052267Y-122700143D01*
X199051305Y-122700214D01*
X199029503Y-122707938D01*
X198990840Y-122725923D01*
X198943012Y-122750613D01*
X198942510Y-122750884D01*
X198878987Y-122782699D01*
X198835460Y-122798242D01*
X198808452Y-122798285D01*
X198794490Y-122783600D01*
X198788580Y-122769144D01*
X198772629Y-122730431D01*
X198748060Y-122670916D01*
X198716179Y-122593765D01*
X198678293Y-122502141D01*
X198635710Y-122399207D01*
X198589737Y-122288126D01*
X198548067Y-122187072D01*
X198505668Y-122083380D01*
X198468156Y-121990719D01*
X198436788Y-121912242D01*
X198412825Y-121851100D01*
X198397523Y-121810443D01*
X198392143Y-121793425D01*
X198402418Y-121777819D01*
X198430963Y-121751762D01*
X198471371Y-121721487D01*
X198568379Y-121642284D01*
X198655193Y-121541075D01*
X198718722Y-121429716D01*
X198758577Y-121311493D01*
X198774365Y-121189695D01*
X198765696Y-121067610D01*
X198732178Y-120948525D01*
X198673421Y-120835729D01*
X198589032Y-120732511D01*
X198545031Y-120692313D01*
X198439611Y-120621238D01*
X198326810Y-120574901D01*
X198209925Y-120552199D01*
X198092253Y-120552028D01*
X197977090Y-120573287D01*
X197867735Y-120614870D01*
X197767483Y-120675676D01*
X197679633Y-120754601D01*
X197607480Y-120850541D01*
X197554322Y-120962395D01*
X197523457Y-121089057D01*
X197517792Y-121150107D01*
X197525585Y-121282376D01*
X197560684Y-121407866D01*
X197622049Y-121524359D01*
X197708643Y-121629639D01*
X197819429Y-121721487D01*
X197858331Y-121750530D01*
X197887504Y-121776872D01*
X197898657Y-121793400D01*
X197894210Y-121807809D01*
X197879778Y-121846415D01*
X197856573Y-121905801D01*
X197825852Y-121982815D01*
X197788874Y-122074303D01*
X197746896Y-122177116D01*
X197701178Y-122288102D01*
X197659578Y-122388672D01*
X197616622Y-122492547D01*
X197578229Y-122585419D01*
X197545705Y-122664125D01*
X197520358Y-122725499D01*
X197503495Y-122766379D01*
X197496425Y-122783600D01*
X197496343Y-122783804D01*
X197482198Y-122798345D01*
X197455059Y-122798179D01*
X197411423Y-122782527D01*
X197347788Y-122750613D01*
X197342779Y-122747926D01*
X197295525Y-122723750D01*
X197258211Y-122706637D01*
X197238533Y-122700143D01*
X197222405Y-122707818D01*
X197186359Y-122729471D01*
X197134492Y-122762528D01*
X197070845Y-122804410D01*
X196999460Y-122852543D01*
X196929124Y-122899731D01*
X196864070Y-122941867D01*
X196810220Y-122975178D01*
X196771774Y-122997069D01*
X196752934Y-123004943D01*
X196749725Y-123003943D01*
X196727354Y-122988184D01*
X196689133Y-122955633D01*
X196638421Y-122909333D01*
X196578581Y-122852326D01*
X196512971Y-122787658D01*
X196296048Y-122570372D01*
X196465001Y-122321853D01*
X196633953Y-122073333D01*
X196582583Y-121962195D01*
X196582431Y-121961866D01*
X196551583Y-121891018D01*
X196520061Y-121812123D01*
X196494666Y-121742200D01*
X196490823Y-121730922D01*
X196471447Y-121678567D01*
X196453974Y-121637883D01*
X196441788Y-121616887D01*
X196436826Y-121613922D01*
X196407034Y-121603975D01*
X196356447Y-121591105D01*
X196290594Y-121576653D01*
X196215000Y-121561955D01*
X196192357Y-121557810D01*
X196110438Y-121542716D01*
X196034000Y-121528499D01*
X195970737Y-121516595D01*
X195928343Y-121508439D01*
X195852143Y-121493399D01*
X195852143Y-121176092D01*
X195852160Y-121137076D01*
X195852482Y-121041892D01*
X195853433Y-120970855D01*
X195855296Y-120920334D01*
X195858355Y-120886698D01*
X195862894Y-120866318D01*
X195869195Y-120855562D01*
X195877543Y-120850799D01*
X195885624Y-120848870D01*
X195918572Y-120842045D01*
X195971136Y-120831622D01*
X196037969Y-120818618D01*
X196113728Y-120804049D01*
X196193065Y-120788933D01*
X196270637Y-120774285D01*
X196341098Y-120761123D01*
X196399102Y-120750463D01*
X196439304Y-120743321D01*
X196456359Y-120740714D01*
X196457512Y-120739141D01*
X196466785Y-120718719D01*
X196482832Y-120679645D01*
X196503035Y-120628229D01*
X196531072Y-120558953D01*
X196565586Y-120478890D01*
X196597938Y-120408328D01*
X196605352Y-120392489D01*
X196626155Y-120342893D01*
X196638619Y-120304638D01*
X196640263Y-120284956D01*
X196639415Y-120283562D01*
X196625948Y-120263020D01*
X196599250Y-120223116D01*
X196561939Y-120167740D01*
X196516634Y-120100777D01*
X196465952Y-120026117D01*
X196408845Y-119941292D01*
X196366007Y-119875400D01*
X196336860Y-119827078D01*
X196319717Y-119793333D01*
X196312895Y-119771172D01*
X196314706Y-119757602D01*
X196315315Y-119756584D01*
X196331697Y-119736810D01*
X196365095Y-119700775D01*
X196412071Y-119652051D01*
X196469186Y-119594212D01*
X196533003Y-119530827D01*
X196599202Y-119466505D01*
X196664048Y-119406047D01*
X196711699Y-119365255D01*
X196743390Y-119343084D01*
X196760358Y-119338489D01*
X196762575Y-119339521D01*
X196785924Y-119353437D01*
X196828312Y-119380630D01*
X196885769Y-119418489D01*
X196954323Y-119464403D01*
X197030001Y-119515760D01*
X197276698Y-119684226D01*
X197388106Y-119633662D01*
X197391343Y-119632197D01*
X197459743Y-119602565D01*
X197532307Y-119573093D01*
X197593857Y-119549958D01*
X197594129Y-119549862D01*
X197642995Y-119531967D01*
X197680612Y-119516853D01*
X197698857Y-119507784D01*
X197699152Y-119507455D01*
X197705346Y-119488882D01*
X197715539Y-119446645D01*
X197728748Y-119385296D01*
X197743990Y-119309389D01*
X197760281Y-119223475D01*
X197760849Y-119220396D01*
X197777113Y-119132728D01*
X197792008Y-119053341D01*
X197804571Y-118987301D01*
X197813838Y-118939679D01*
X197818844Y-118915543D01*
X197819164Y-118914205D01*
X197822460Y-118903873D01*
X197829138Y-118896106D01*
X197842862Y-118890540D01*
X197867295Y-118886807D01*
X197906102Y-118884542D01*
X197962946Y-118883378D01*
X198041490Y-118882948D01*
X198145400Y-118882886D01*
X198158456Y-118882886D01*
X198259333Y-118882971D01*
G36*
X198259333Y-118882971D02*
G01*
X198335256Y-118883465D01*
X198389891Y-118884735D01*
X198426900Y-118887147D01*
X198449947Y-118891067D01*
X198462696Y-118896862D01*
X198468811Y-118904899D01*
X198471956Y-118915543D01*
X198472046Y-118915925D01*
X198477214Y-118940947D01*
X198486609Y-118989281D01*
X198499267Y-119055860D01*
X198514225Y-119135614D01*
X198530519Y-119223475D01*
X198531848Y-119230664D01*
X198548091Y-119315940D01*
X198563205Y-119390842D01*
X198576208Y-119450819D01*
X198586115Y-119491317D01*
X198591944Y-119507784D01*
X198591975Y-119507810D01*
X198610343Y-119516920D01*
X198648040Y-119532057D01*
X198696943Y-119549958D01*
X198699697Y-119550930D01*
X198762217Y-119574559D01*
X198834943Y-119604195D01*
X198902694Y-119633662D01*
X199014103Y-119684226D01*
X199260799Y-119515760D01*
X199278175Y-119503911D01*
X199352602Y-119453547D01*
X199419014Y-119409212D01*
X199473439Y-119373516D01*
X199511906Y-119349071D01*
X199530442Y-119338489D01*
X199543143Y-119340915D01*
X199571979Y-119359710D01*
X199616543Y-119396930D01*
X199678070Y-119453620D01*
X199757798Y-119530827D01*
X199764932Y-119537855D01*
X199828196Y-119600822D01*
X199884390Y-119657868D01*
X199930077Y-119705417D01*
X199961814Y-119739897D01*
X199976164Y-119757731D01*
X199976210Y-119757817D01*
X199978033Y-119771395D01*
X199971310Y-119793420D01*
X199954346Y-119826904D01*
X199925444Y-119874861D01*
X199882908Y-119940304D01*
X199825044Y-120026245D01*
X199815183Y-120040751D01*
X199765313Y-120114235D01*
X199721305Y-120179287D01*
X199685780Y-120232017D01*
X199661359Y-120268536D01*
X199650664Y-120284956D01*
X199649858Y-120288434D01*
X199654918Y-120314385D01*
X199670077Y-120356759D01*
X199692863Y-120408328D01*
X199723829Y-120475770D01*
X199758404Y-120555795D01*
X199787766Y-120628229D01*
X199795045Y-120646977D01*
X199814110Y-120694846D01*
X199828115Y-120728196D01*
X199834441Y-120740714D01*
X199841425Y-120741650D01*
X199872813Y-120747061D01*
X199924187Y-120756406D01*
X199990202Y-120768669D01*
X200065513Y-120782832D01*
X200144775Y-120797880D01*
X200222643Y-120812795D01*
X200293770Y-120826561D01*
X200352812Y-120838162D01*
X200394422Y-120846580D01*
X200413257Y-120850799D01*
X200416380Y-120851989D01*
X200423991Y-120858405D01*
X200429654Y-120872065D01*
X200433651Y-120896599D01*
X200436266Y-120935638D01*
X200437784Y-120992813D01*
X200438486Y-121071754D01*
X200438657Y-121176092D01*
X200438657Y-121493399D01*
X200362457Y-121508439D01*
X200353240Y-121510242D01*
X200304291Y-121519580D01*
X200236605Y-121532269D01*
X200157878Y-121546873D01*
X200075800Y-121561955D01*
X200043478Y-121568022D01*
X199971255Y-121582781D01*
X199911066Y-121596737D01*
X199868440Y-121608552D01*
X199848910Y-121616887D01*
X199840060Y-121630505D01*
X199823948Y-121666538D01*
X199807465Y-121713172D01*
X199801663Y-121730634D01*
X199780306Y-121787958D01*
X199752759Y-121855801D01*
X199723507Y-121922955D01*
X199707863Y-121958030D01*
X199685574Y-122010422D01*
X199670257Y-122049658D01*
X199664562Y-122069163D01*
X199664878Y-122070636D01*
X199675681Y-122091329D01*
X199700038Y-122131265D01*
X199735481Y-122186572D01*
X199779536Y-122253381D01*
X199829732Y-122327820D01*
X199994901Y-122570223D01*
X199777903Y-122787583D01*
X199756916Y-122808499D01*
X199692742Y-122871105D01*
X199635390Y-122925095D01*
X199588220Y-122967426D01*
X199554592Y-122995057D01*
X199537867Y-123004943D01*
X199519703Y-122997421D01*
X199481665Y-122975827D01*
X199428126Y-122942751D01*
X199363284Y-122900791D01*
X199291340Y-122852543D01*
X199220675Y-122804891D01*
X199156926Y-122762928D01*
X199104913Y-122729765D01*
X199068679Y-122707978D01*
X199052267Y-122700143D01*
X199051305Y-122700214D01*
X199029503Y-122707938D01*
X198990840Y-122725923D01*
X198943012Y-122750613D01*
X198942510Y-122750884D01*
X198878987Y-122782699D01*
X198835460Y-122798242D01*
X198808452Y-122798285D01*
X198794490Y-122783600D01*
X198788580Y-122769144D01*
X198772629Y-122730431D01*
X198748060Y-122670916D01*
X198716179Y-122593765D01*
X198678293Y-122502141D01*
X198635710Y-122399207D01*
X198589737Y-122288126D01*
X198548067Y-122187072D01*
X198505668Y-122083380D01*
X198468156Y-121990719D01*
X198436788Y-121912242D01*
X198412825Y-121851100D01*
X198397523Y-121810443D01*
X198392143Y-121793425D01*
X198402418Y-121777819D01*
X198430963Y-121751762D01*
X198471371Y-121721487D01*
X198568379Y-121642284D01*
X198655193Y-121541075D01*
X198718722Y-121429716D01*
X198758577Y-121311493D01*
X198774365Y-121189695D01*
X198765696Y-121067610D01*
X198732178Y-120948525D01*
X198673421Y-120835729D01*
X198589032Y-120732511D01*
X198545031Y-120692313D01*
X198439611Y-120621238D01*
X198326810Y-120574901D01*
X198209925Y-120552199D01*
X198092253Y-120552028D01*
X197977090Y-120573287D01*
X197867735Y-120614870D01*
X197767483Y-120675676D01*
X197679633Y-120754601D01*
X197607480Y-120850541D01*
X197554322Y-120962395D01*
X197523457Y-121089057D01*
X197517792Y-121150107D01*
X197525585Y-121282376D01*
X197560684Y-121407866D01*
X197622049Y-121524359D01*
X197708643Y-121629639D01*
X197819429Y-121721487D01*
X197858331Y-121750530D01*
X197887504Y-121776872D01*
X197898657Y-121793400D01*
X197894210Y-121807809D01*
X197879778Y-121846415D01*
X197856573Y-121905801D01*
X197825852Y-121982815D01*
X197788874Y-122074303D01*
X197746896Y-122177116D01*
X197701178Y-122288102D01*
X197659578Y-122388672D01*
X197616622Y-122492547D01*
X197578229Y-122585419D01*
X197545705Y-122664125D01*
X197520358Y-122725499D01*
X197503495Y-122766379D01*
X197496425Y-122783600D01*
X197496343Y-122783804D01*
X197482198Y-122798345D01*
X197455059Y-122798179D01*
X197411423Y-122782527D01*
X197347788Y-122750613D01*
X197342779Y-122747926D01*
X197295525Y-122723750D01*
X197258211Y-122706637D01*
X197238533Y-122700143D01*
X197222405Y-122707818D01*
X197186359Y-122729471D01*
X197134492Y-122762528D01*
X197070845Y-122804410D01*
X196999460Y-122852543D01*
X196929124Y-122899731D01*
X196864070Y-122941867D01*
X196810220Y-122975178D01*
X196771774Y-122997069D01*
X196752934Y-123004943D01*
X196749725Y-123003943D01*
X196727354Y-122988184D01*
X196689133Y-122955633D01*
X196638421Y-122909333D01*
X196578581Y-122852326D01*
X196512971Y-122787658D01*
X196296048Y-122570372D01*
X196465001Y-122321853D01*
X196633953Y-122073333D01*
X196582583Y-121962195D01*
X196582431Y-121961866D01*
X196551583Y-121891018D01*
X196520061Y-121812123D01*
X196494666Y-121742200D01*
X196490823Y-121730922D01*
X196471447Y-121678567D01*
X196453974Y-121637883D01*
X196441788Y-121616887D01*
X196436826Y-121613922D01*
X196407034Y-121603975D01*
X196356447Y-121591105D01*
X196290594Y-121576653D01*
X196215000Y-121561955D01*
X196192357Y-121557810D01*
X196110438Y-121542716D01*
X196034000Y-121528499D01*
X195970737Y-121516595D01*
X195928343Y-121508439D01*
X195852143Y-121493399D01*
X195852143Y-121176092D01*
X195852160Y-121137076D01*
X195852482Y-121041892D01*
X195853433Y-120970855D01*
X195855296Y-120920334D01*
X195858355Y-120886698D01*
X195862894Y-120866318D01*
X195869195Y-120855562D01*
X195877543Y-120850799D01*
X195885624Y-120848870D01*
X195918572Y-120842045D01*
X195971136Y-120831622D01*
X196037969Y-120818618D01*
X196113728Y-120804049D01*
X196193065Y-120788933D01*
X196270637Y-120774285D01*
X196341098Y-120761123D01*
X196399102Y-120750463D01*
X196439304Y-120743321D01*
X196456359Y-120740714D01*
X196457512Y-120739141D01*
X196466785Y-120718719D01*
X196482832Y-120679645D01*
X196503035Y-120628229D01*
X196531072Y-120558953D01*
X196565586Y-120478890D01*
X196597938Y-120408328D01*
X196605352Y-120392489D01*
X196626155Y-120342893D01*
X196638619Y-120304638D01*
X196640263Y-120284956D01*
X196639415Y-120283562D01*
X196625948Y-120263020D01*
X196599250Y-120223116D01*
X196561939Y-120167740D01*
X196516634Y-120100777D01*
X196465952Y-120026117D01*
X196408845Y-119941292D01*
X196366007Y-119875400D01*
X196336860Y-119827078D01*
X196319717Y-119793333D01*
X196312895Y-119771172D01*
X196314706Y-119757602D01*
X196315315Y-119756584D01*
X196331697Y-119736810D01*
X196365095Y-119700775D01*
X196412071Y-119652051D01*
X196469186Y-119594212D01*
X196533003Y-119530827D01*
X196599202Y-119466505D01*
X196664048Y-119406047D01*
X196711699Y-119365255D01*
X196743390Y-119343084D01*
X196760358Y-119338489D01*
X196762575Y-119339521D01*
X196785924Y-119353437D01*
X196828312Y-119380630D01*
X196885769Y-119418489D01*
X196954323Y-119464403D01*
X197030001Y-119515760D01*
X197276698Y-119684226D01*
X197388106Y-119633662D01*
X197391343Y-119632197D01*
X197459743Y-119602565D01*
X197532307Y-119573093D01*
X197593857Y-119549958D01*
X197594129Y-119549862D01*
X197642995Y-119531967D01*
X197680612Y-119516853D01*
X197698857Y-119507784D01*
X197699152Y-119507455D01*
X197705346Y-119488882D01*
X197715539Y-119446645D01*
X197728748Y-119385296D01*
X197743990Y-119309389D01*
X197760281Y-119223475D01*
X197760849Y-119220396D01*
X197777113Y-119132728D01*
X197792008Y-119053341D01*
X197804571Y-118987301D01*
X197813838Y-118939679D01*
X197818844Y-118915543D01*
X197819164Y-118914205D01*
X197822460Y-118903873D01*
X197829138Y-118896106D01*
X197842862Y-118890540D01*
X197867295Y-118886807D01*
X197906102Y-118884542D01*
X197962946Y-118883378D01*
X198041490Y-118882948D01*
X198145400Y-118882886D01*
X198158456Y-118882886D01*
X198259333Y-118882971D01*
G37*
D12*
%TO.C,J9*%
X186620400Y-94594600D02*
X187945400Y-94594600D01*
X186620400Y-94594600D02*
X186620400Y-94529600D01*
X183090400Y-94529600D02*
X186620400Y-94529600D01*
X186620400Y-98459600D02*
X186620400Y-98394600D01*
X183090400Y-98459600D02*
X186620400Y-98459600D01*
X183090400Y-94594600D02*
X183090400Y-94529600D01*
X183090400Y-98459600D02*
X183090400Y-98394600D01*
%TO.C,TP1*%
X179135000Y-114960400D02*
G75*
G02*
X177735000Y-114960400I-700000J0D01*
G01*
X177735000Y-114960400D02*
G75*
G02*
X179135000Y-114960400I700000J0D01*
G01*
%TO.C,TP6*%
X185485000Y-107543600D02*
G75*
G02*
X184085000Y-107543600I-700000J0D01*
G01*
X184085000Y-107543600D02*
G75*
G02*
X185485000Y-107543600I700000J0D01*
G01*
%TD*%
M02*
