%TF.GenerationSoftware,KiCad,Pcbnew,8.0.2*%
%TF.CreationDate,2024-08-19T18:01:00-05:00*%
%TF.ProjectId,tank,74616e6b-2e6b-4696-9361-645f70636258,rev?*%
%TF.SameCoordinates,Original*%
%TF.FileFunction,Drillmap*%
%TF.FilePolarity,Positive*%
%FSLAX45Y45*%
G04 Gerber Fmt 4.5, Leading zero omitted, Abs format (unit mm)*
G04 Created by KiCad (PCBNEW 8.0.2) date 2024-08-19 18:01:00*
%MOMM*%
%LPD*%
G01*
G04 APERTURE LIST*
%ADD10C,0.000254*%
%ADD11C,0.200000*%
%ADD12C,0.100000*%
G04 APERTURE END LIST*
D10*
X20088080Y-8678300D02*
X16888080Y-8678300D01*
X20088080Y-8678300D02*
G75*
G02*
X20288080Y-8878300I0J-200000D01*
G01*
X20288080Y-13498500D02*
X20288080Y-8878300D01*
X20288080Y-13498500D02*
G75*
G02*
X20088080Y-13698500I-200000J0D01*
G01*
X16888080Y-13698500D02*
X20088080Y-13698500D01*
X16888080Y-13698500D02*
G75*
G02*
X16688080Y-13498500I0J200000D01*
G01*
X16688080Y-8878300D02*
X16688080Y-13498500D01*
X16688080Y-8878300D02*
G75*
G02*
X16888080Y-8678300I200000J0D01*
G01*
D11*
D12*
X16852900Y-13408660D02*
X16878300Y-13434060D01*
X16878300Y-13408660D02*
X16852900Y-13434060D01*
X17193260Y-8930640D02*
X17218660Y-8956040D01*
X17218660Y-8930640D02*
X17193260Y-8956040D01*
X17233900Y-11699240D02*
X17259300Y-11724640D01*
X17259300Y-11699240D02*
X17233900Y-11724640D01*
X17233900Y-12397740D02*
X17259300Y-12423140D01*
X17259300Y-12397740D02*
X17233900Y-12423140D01*
X17442180Y-13274040D02*
X17467580Y-13299440D01*
X17467580Y-13274040D02*
X17442180Y-13299440D01*
X17447260Y-13200380D02*
X17472660Y-13225780D01*
X17472660Y-13200380D02*
X17447260Y-13225780D01*
X17485360Y-9230360D02*
X17510760Y-9255760D01*
X17510760Y-9230360D02*
X17485360Y-9255760D01*
X17515840Y-8790940D02*
X17541240Y-8816340D01*
X17541240Y-8790940D02*
X17515840Y-8816340D01*
X17543780Y-13347700D02*
X17569180Y-13373100D01*
X17569180Y-13347700D02*
X17543780Y-13373100D01*
X17602200Y-13550900D02*
X17627600Y-13576300D01*
X17627600Y-13550900D02*
X17602200Y-13576300D01*
X17604740Y-9339580D02*
X17630140Y-9364980D01*
X17630140Y-9339580D02*
X17604740Y-9364980D01*
X17625060Y-11965940D02*
X17650460Y-11991340D01*
X17650460Y-11965940D02*
X17625060Y-11991340D01*
X17653000Y-8869680D02*
X17678400Y-8895080D01*
X17678400Y-8869680D02*
X17653000Y-8895080D01*
X17713960Y-12849860D02*
X17739360Y-12875260D01*
X17739360Y-12849860D02*
X17713960Y-12875260D01*
X17724120Y-11407140D02*
X17749520Y-11432540D01*
X17749520Y-11407140D02*
X17724120Y-11432540D01*
X17749520Y-11689080D02*
X17774920Y-11714480D01*
X17774920Y-11689080D02*
X17749520Y-11714480D01*
X17767300Y-9626600D02*
X17792700Y-9652000D01*
X17792700Y-9626600D02*
X17767300Y-9652000D01*
X17774920Y-8714740D02*
X17800320Y-8740140D01*
X17800320Y-8714740D02*
X17774920Y-8740140D01*
X17800320Y-12176760D02*
X17825720Y-12202160D01*
X17825720Y-12176760D02*
X17800320Y-12202160D01*
X17904460Y-9669780D02*
X17929860Y-9695180D01*
X17929860Y-9669780D02*
X17904460Y-9695180D01*
X18067020Y-10502900D02*
X18092420Y-10528300D01*
X18092420Y-10502900D02*
X18067020Y-10528300D01*
X18072100Y-11470640D02*
X18097500Y-11496040D01*
X18097500Y-11470640D02*
X18072100Y-11496040D01*
X18130520Y-12603480D02*
X18155920Y-12628880D01*
X18155920Y-12603480D02*
X18130520Y-12628880D01*
X18150840Y-10500360D02*
X18176240Y-10525760D01*
X18176240Y-10500360D02*
X18150840Y-10525760D01*
X18150840Y-11470640D02*
X18176240Y-11496040D01*
X18176240Y-11470640D02*
X18150840Y-11496040D01*
X18216880Y-10822940D02*
X18242280Y-10848340D01*
X18242280Y-10822940D02*
X18216880Y-10848340D01*
X18232120Y-10746740D02*
X18257520Y-10772140D01*
X18257520Y-10746740D02*
X18232120Y-10772140D01*
X18267680Y-13388340D02*
X18293080Y-13413740D01*
X18293080Y-13388340D02*
X18267680Y-13413740D01*
X18404840Y-9304020D02*
X18430240Y-9329420D01*
X18430240Y-9304020D02*
X18404840Y-9329420D01*
X18404840Y-13093700D02*
X18430240Y-13119100D01*
X18430240Y-13093700D02*
X18404840Y-13119100D01*
X18430240Y-10906760D02*
X18455640Y-10932160D01*
X18455640Y-10906760D02*
X18430240Y-10932160D01*
X18430240Y-10985500D02*
X18455640Y-11010900D01*
X18455640Y-10985500D02*
X18430240Y-11010900D01*
X18440400Y-10347960D02*
X18465800Y-10373360D01*
X18465800Y-10347960D02*
X18440400Y-10373360D01*
X18440400Y-10505440D02*
X18465800Y-10530840D01*
X18465800Y-10505440D02*
X18440400Y-10530840D01*
X18448020Y-10243820D02*
X18473420Y-10269220D01*
X18473420Y-10243820D02*
X18448020Y-10269220D01*
X18450560Y-11490960D02*
X18475960Y-11516360D01*
X18475960Y-11490960D02*
X18450560Y-11516360D01*
X18453100Y-11404600D02*
X18478500Y-11430000D01*
X18478500Y-11404600D02*
X18453100Y-11430000D01*
X18549620Y-11686540D02*
X18575020Y-11711940D01*
X18575020Y-11686540D02*
X18549620Y-11711940D01*
X18605500Y-13009880D02*
X18630900Y-13035280D01*
X18630900Y-13009880D02*
X18605500Y-13035280D01*
X18681700Y-11224260D02*
X18707100Y-11249660D01*
X18707100Y-11224260D02*
X18681700Y-11249660D01*
X18704560Y-9921240D02*
X18729960Y-9946640D01*
X18729960Y-9921240D02*
X18704560Y-9946640D01*
X18752820Y-12593320D02*
X18778220Y-12618720D01*
X18778220Y-12593320D02*
X18752820Y-12618720D01*
X18757900Y-11224260D02*
X18783300Y-11249660D01*
X18783300Y-11224260D02*
X18757900Y-11249660D01*
X18856960Y-11257280D02*
X18882360Y-11282680D01*
X18882360Y-11257280D02*
X18856960Y-11282680D01*
X18902680Y-10792460D02*
X18928080Y-10817860D01*
X18928080Y-10792460D02*
X18902680Y-10817860D01*
X19039840Y-10665460D02*
X19065240Y-10690860D01*
X19065240Y-10665460D02*
X19039840Y-10690860D01*
X19047460Y-9794240D02*
X19072860Y-9819640D01*
X19072860Y-9794240D02*
X19047460Y-9819640D01*
X19052540Y-13032740D02*
X19077940Y-13058140D01*
X19077940Y-13032740D02*
X19052540Y-13058140D01*
X19077940Y-12664440D02*
X19103340Y-12689840D01*
X19103340Y-12664440D02*
X19077940Y-12689840D01*
X19301460Y-12113260D02*
X19326860Y-12138660D01*
X19326860Y-12113260D02*
X19301460Y-12138660D01*
X19339560Y-13319760D02*
X19364960Y-13345160D01*
X19364960Y-13319760D02*
X19339560Y-13345160D01*
X19362420Y-11750040D02*
X19387820Y-11775440D01*
X19387820Y-11750040D02*
X19362420Y-11775440D01*
X19367500Y-9009380D02*
X19392900Y-9034780D01*
X19392900Y-9009380D02*
X19367500Y-9034780D01*
X19380200Y-13548360D02*
X19405600Y-13573760D01*
X19405600Y-13548360D02*
X19380200Y-13573760D01*
X19390360Y-10601960D02*
X19415760Y-10627360D01*
X19415760Y-10601960D02*
X19390360Y-10627360D01*
X19405600Y-13035280D02*
X19431000Y-13060680D01*
X19431000Y-13035280D02*
X19405600Y-13060680D01*
X19418300Y-9118600D02*
X19443700Y-9144000D01*
X19443700Y-9118600D02*
X19418300Y-9144000D01*
X19438620Y-8796020D02*
X19464020Y-8821420D01*
X19464020Y-8796020D02*
X19438620Y-8821420D01*
X19456400Y-10708640D02*
X19481800Y-10734040D01*
X19481800Y-10708640D02*
X19456400Y-10734040D01*
X19469100Y-9169400D02*
X19494500Y-9194800D01*
X19494500Y-9169400D02*
X19469100Y-9194800D01*
X19497040Y-13152120D02*
X19522440Y-13177520D01*
X19522440Y-13152120D02*
X19497040Y-13177520D01*
X19545300Y-11348720D02*
X19570700Y-11374120D01*
X19570700Y-11348720D02*
X19545300Y-11374120D01*
X19560540Y-12641580D02*
X19585940Y-12666980D01*
X19585940Y-12641580D02*
X19560540Y-12666980D01*
X19588480Y-10993120D02*
X19613880Y-11018520D01*
X19613880Y-10993120D02*
X19588480Y-11018520D01*
X19618960Y-12740640D02*
X19644360Y-12766040D01*
X19644360Y-12740640D02*
X19618960Y-12766040D01*
X19771360Y-9799320D02*
X19796760Y-9824720D01*
X19796760Y-9799320D02*
X19771360Y-9824720D01*
X19862800Y-10429240D02*
X19888200Y-10454640D01*
X19888200Y-10429240D02*
X19862800Y-10454640D01*
X19954240Y-13129260D02*
X19979640Y-13154660D01*
X19979640Y-13129260D02*
X19954240Y-13154660D01*
X19994880Y-9695180D02*
X20020280Y-9720580D01*
X20020280Y-9695180D02*
X19994880Y-9720580D01*
X20058380Y-13401040D02*
X20083780Y-13426440D01*
X20083780Y-13401040D02*
X20058380Y-13426440D01*
X20066000Y-10622280D02*
X20091400Y-10647680D01*
X20091400Y-10622280D02*
X20066000Y-10647680D01*
X20116800Y-8976360D02*
X20142200Y-9001760D01*
X20142200Y-8976360D02*
X20116800Y-9001760D01*
X17658480Y-10900750D02*
G75*
G02*
X17633080Y-10900750I-12700J0D01*
G01*
X17633080Y-10900750D02*
G75*
G02*
X17658480Y-10900750I12700J0D01*
G01*
X17658480Y-11098250D02*
G75*
G02*
X17633080Y-11098250I-12700J0D01*
G01*
X17633080Y-11098250D02*
G75*
G02*
X17658480Y-11098250I12700J0D01*
G01*
X17757230Y-10802000D02*
G75*
G02*
X17731830Y-10802000I-12700J0D01*
G01*
X17731830Y-10802000D02*
G75*
G02*
X17757230Y-10802000I12700J0D01*
G01*
X17757230Y-10999500D02*
G75*
G02*
X17731830Y-10999500I-12700J0D01*
G01*
X17731830Y-10999500D02*
G75*
G02*
X17757230Y-10999500I12700J0D01*
G01*
X17757230Y-11197000D02*
G75*
G02*
X17731830Y-11197000I-12700J0D01*
G01*
X17731830Y-11197000D02*
G75*
G02*
X17757230Y-11197000I12700J0D01*
G01*
X17855980Y-10900750D02*
G75*
G02*
X17830580Y-10900750I-12700J0D01*
G01*
X17830580Y-10900750D02*
G75*
G02*
X17855980Y-10900750I12700J0D01*
G01*
X17855980Y-11098250D02*
G75*
G02*
X17830580Y-11098250I-12700J0D01*
G01*
X17830580Y-11098250D02*
G75*
G02*
X17855980Y-11098250I12700J0D01*
G01*
X17954730Y-10802000D02*
G75*
G02*
X17929330Y-10802000I-12700J0D01*
G01*
X17929330Y-10802000D02*
G75*
G02*
X17954730Y-10802000I12700J0D01*
G01*
X17954730Y-10999500D02*
G75*
G02*
X17929330Y-10999500I-12700J0D01*
G01*
X17929330Y-10999500D02*
G75*
G02*
X17954730Y-10999500I12700J0D01*
G01*
X17954730Y-11197000D02*
G75*
G02*
X17929330Y-11197000I-12700J0D01*
G01*
X17929330Y-11197000D02*
G75*
G02*
X17954730Y-11197000I12700J0D01*
G01*
X18053480Y-10900750D02*
G75*
G02*
X18028080Y-10900750I-12700J0D01*
G01*
X18028080Y-10900750D02*
G75*
G02*
X18053480Y-10900750I12700J0D01*
G01*
X18053480Y-11098250D02*
G75*
G02*
X18028080Y-11098250I-12700J0D01*
G01*
X18028080Y-11098250D02*
G75*
G02*
X18053480Y-11098250I12700J0D01*
G01*
X18064200Y-12450060D02*
X18064200Y-12500060D01*
X18039200Y-12475060D02*
X18089200Y-12475060D01*
X18039200Y-12440060D02*
X18039200Y-12510060D01*
X18089200Y-12510060D02*
G75*
G02*
X18039200Y-12510060I-25000J0D01*
G01*
X18089200Y-12510060D02*
X18089200Y-12440060D01*
X18089200Y-12440060D02*
G75*
G03*
X18039200Y-12440060I-25000J0D01*
G01*
X18918200Y-12450060D02*
X18918200Y-12500060D01*
X18893200Y-12475060D02*
X18943200Y-12475060D01*
X18893200Y-12440060D02*
X18893200Y-12510060D01*
X18943200Y-12510060D02*
G75*
G02*
X18893200Y-12510060I-25000J0D01*
G01*
X18943200Y-12510060D02*
X18943200Y-12440060D01*
X18943200Y-12440060D02*
G75*
G03*
X18893200Y-12440060I-25000J0D01*
G01*
X19288217Y-10208437D02*
X19288217Y-10155403D01*
X19235183Y-10155403D01*
X19235183Y-10208437D01*
X19288217Y-10208437D01*
X19288217Y-10408437D02*
X19288217Y-10355403D01*
X19235183Y-10355403D01*
X19235183Y-10408437D01*
X19288217Y-10408437D01*
X17396460Y-10133800D02*
X17446460Y-10083800D01*
X17396460Y-10033800D01*
X17346460Y-10083800D01*
X17396460Y-10133800D01*
X17650460Y-10133800D02*
X17700460Y-10083800D01*
X17650460Y-10033800D01*
X17600460Y-10083800D01*
X17650460Y-10133800D01*
X17904460Y-10133800D02*
X17954460Y-10083800D01*
X17904460Y-10033800D01*
X17854460Y-10083800D01*
X17904460Y-10133800D01*
X18158460Y-10133800D02*
X18208460Y-10083800D01*
X18158460Y-10033800D01*
X18108460Y-10083800D01*
X18158460Y-10133800D01*
D11*
X16948844Y-14009996D02*
X16948844Y-13809996D01*
X16948844Y-13809996D02*
X16996463Y-13809996D01*
X16996463Y-13809996D02*
X17025035Y-13819520D01*
X17025035Y-13819520D02*
X17044082Y-13838568D01*
X17044082Y-13838568D02*
X17053606Y-13857615D01*
X17053606Y-13857615D02*
X17063130Y-13895711D01*
X17063130Y-13895711D02*
X17063130Y-13924282D01*
X17063130Y-13924282D02*
X17053606Y-13962377D01*
X17053606Y-13962377D02*
X17044082Y-13981425D01*
X17044082Y-13981425D02*
X17025035Y-14000473D01*
X17025035Y-14000473D02*
X16996463Y-14009996D01*
X16996463Y-14009996D02*
X16948844Y-14009996D01*
X17148844Y-14009996D02*
X17148844Y-13876663D01*
X17148844Y-13914758D02*
X17158368Y-13895711D01*
X17158368Y-13895711D02*
X17167892Y-13886187D01*
X17167892Y-13886187D02*
X17186939Y-13876663D01*
X17186939Y-13876663D02*
X17205987Y-13876663D01*
X17272654Y-14009996D02*
X17272654Y-13876663D01*
X17272654Y-13809996D02*
X17263130Y-13819520D01*
X17263130Y-13819520D02*
X17272654Y-13829044D01*
X17272654Y-13829044D02*
X17282177Y-13819520D01*
X17282177Y-13819520D02*
X17272654Y-13809996D01*
X17272654Y-13809996D02*
X17272654Y-13829044D01*
X17396463Y-14009996D02*
X17377416Y-14000473D01*
X17377416Y-14000473D02*
X17367892Y-13981425D01*
X17367892Y-13981425D02*
X17367892Y-13809996D01*
X17501225Y-14009996D02*
X17482177Y-14000473D01*
X17482177Y-14000473D02*
X17472654Y-13981425D01*
X17472654Y-13981425D02*
X17472654Y-13809996D01*
X17729797Y-14009996D02*
X17729797Y-13809996D01*
X17729797Y-13809996D02*
X17796463Y-13952854D01*
X17796463Y-13952854D02*
X17863130Y-13809996D01*
X17863130Y-13809996D02*
X17863130Y-14009996D01*
X18044082Y-14009996D02*
X18044082Y-13905235D01*
X18044082Y-13905235D02*
X18034558Y-13886187D01*
X18034558Y-13886187D02*
X18015511Y-13876663D01*
X18015511Y-13876663D02*
X17977416Y-13876663D01*
X17977416Y-13876663D02*
X17958368Y-13886187D01*
X18044082Y-14000473D02*
X18025035Y-14009996D01*
X18025035Y-14009996D02*
X17977416Y-14009996D01*
X17977416Y-14009996D02*
X17958368Y-14000473D01*
X17958368Y-14000473D02*
X17948844Y-13981425D01*
X17948844Y-13981425D02*
X17948844Y-13962377D01*
X17948844Y-13962377D02*
X17958368Y-13943330D01*
X17958368Y-13943330D02*
X17977416Y-13933806D01*
X17977416Y-13933806D02*
X18025035Y-13933806D01*
X18025035Y-13933806D02*
X18044082Y-13924282D01*
X18139320Y-13876663D02*
X18139320Y-14076663D01*
X18139320Y-13886187D02*
X18158368Y-13876663D01*
X18158368Y-13876663D02*
X18196463Y-13876663D01*
X18196463Y-13876663D02*
X18215511Y-13886187D01*
X18215511Y-13886187D02*
X18225035Y-13895711D01*
X18225035Y-13895711D02*
X18234558Y-13914758D01*
X18234558Y-13914758D02*
X18234558Y-13971901D01*
X18234558Y-13971901D02*
X18225035Y-13990949D01*
X18225035Y-13990949D02*
X18215511Y-14000473D01*
X18215511Y-14000473D02*
X18196463Y-14009996D01*
X18196463Y-14009996D02*
X18158368Y-14009996D01*
X18158368Y-14009996D02*
X18139320Y-14000473D01*
X18320273Y-13990949D02*
X18329797Y-14000473D01*
X18329797Y-14000473D02*
X18320273Y-14009996D01*
X18320273Y-14009996D02*
X18310749Y-14000473D01*
X18310749Y-14000473D02*
X18320273Y-13990949D01*
X18320273Y-13990949D02*
X18320273Y-14009996D01*
X18320273Y-13886187D02*
X18329797Y-13895711D01*
X18329797Y-13895711D02*
X18320273Y-13905235D01*
X18320273Y-13905235D02*
X18310749Y-13895711D01*
X18310749Y-13895711D02*
X18320273Y-13886187D01*
X18320273Y-13886187D02*
X18320273Y-13905235D01*
D12*
X16662667Y-14325813D02*
X16688067Y-14351213D01*
X16688067Y-14325813D02*
X16662667Y-14351213D01*
D11*
X16986939Y-14229996D02*
X17005987Y-14229996D01*
X17005987Y-14229996D02*
X17025035Y-14239520D01*
X17025035Y-14239520D02*
X17034558Y-14249044D01*
X17034558Y-14249044D02*
X17044082Y-14268092D01*
X17044082Y-14268092D02*
X17053606Y-14306187D01*
X17053606Y-14306187D02*
X17053606Y-14353806D01*
X17053606Y-14353806D02*
X17044082Y-14391901D01*
X17044082Y-14391901D02*
X17034558Y-14410949D01*
X17034558Y-14410949D02*
X17025035Y-14420473D01*
X17025035Y-14420473D02*
X17005987Y-14429996D01*
X17005987Y-14429996D02*
X16986939Y-14429996D01*
X16986939Y-14429996D02*
X16967892Y-14420473D01*
X16967892Y-14420473D02*
X16958368Y-14410949D01*
X16958368Y-14410949D02*
X16948844Y-14391901D01*
X16948844Y-14391901D02*
X16939320Y-14353806D01*
X16939320Y-14353806D02*
X16939320Y-14306187D01*
X16939320Y-14306187D02*
X16948844Y-14268092D01*
X16948844Y-14268092D02*
X16958368Y-14249044D01*
X16958368Y-14249044D02*
X16967892Y-14239520D01*
X16967892Y-14239520D02*
X16986939Y-14229996D01*
X17139320Y-14410949D02*
X17148844Y-14420473D01*
X17148844Y-14420473D02*
X17139320Y-14429996D01*
X17139320Y-14429996D02*
X17129797Y-14420473D01*
X17129797Y-14420473D02*
X17139320Y-14410949D01*
X17139320Y-14410949D02*
X17139320Y-14429996D01*
X17225035Y-14249044D02*
X17234558Y-14239520D01*
X17234558Y-14239520D02*
X17253606Y-14229996D01*
X17253606Y-14229996D02*
X17301225Y-14229996D01*
X17301225Y-14229996D02*
X17320273Y-14239520D01*
X17320273Y-14239520D02*
X17329797Y-14249044D01*
X17329797Y-14249044D02*
X17339320Y-14268092D01*
X17339320Y-14268092D02*
X17339320Y-14287139D01*
X17339320Y-14287139D02*
X17329797Y-14315711D01*
X17329797Y-14315711D02*
X17215511Y-14429996D01*
X17215511Y-14429996D02*
X17339320Y-14429996D01*
X17520273Y-14229996D02*
X17425035Y-14229996D01*
X17425035Y-14229996D02*
X17415511Y-14325235D01*
X17415511Y-14325235D02*
X17425035Y-14315711D01*
X17425035Y-14315711D02*
X17444082Y-14306187D01*
X17444082Y-14306187D02*
X17491701Y-14306187D01*
X17491701Y-14306187D02*
X17510749Y-14315711D01*
X17510749Y-14315711D02*
X17520273Y-14325235D01*
X17520273Y-14325235D02*
X17529797Y-14344282D01*
X17529797Y-14344282D02*
X17529797Y-14391901D01*
X17529797Y-14391901D02*
X17520273Y-14410949D01*
X17520273Y-14410949D02*
X17510749Y-14420473D01*
X17510749Y-14420473D02*
X17491701Y-14429996D01*
X17491701Y-14429996D02*
X17444082Y-14429996D01*
X17444082Y-14429996D02*
X17425035Y-14420473D01*
X17425035Y-14420473D02*
X17415511Y-14410949D01*
X17701225Y-14296663D02*
X17701225Y-14429996D01*
X17653606Y-14220473D02*
X17605987Y-14363330D01*
X17605987Y-14363330D02*
X17729797Y-14363330D01*
X17805987Y-14429996D02*
X17805987Y-14296663D01*
X17805987Y-14315711D02*
X17815511Y-14306187D01*
X17815511Y-14306187D02*
X17834558Y-14296663D01*
X17834558Y-14296663D02*
X17863130Y-14296663D01*
X17863130Y-14296663D02*
X17882178Y-14306187D01*
X17882178Y-14306187D02*
X17891701Y-14325235D01*
X17891701Y-14325235D02*
X17891701Y-14429996D01*
X17891701Y-14325235D02*
X17901225Y-14306187D01*
X17901225Y-14306187D02*
X17920273Y-14296663D01*
X17920273Y-14296663D02*
X17948844Y-14296663D01*
X17948844Y-14296663D02*
X17967892Y-14306187D01*
X17967892Y-14306187D02*
X17977416Y-14325235D01*
X17977416Y-14325235D02*
X17977416Y-14429996D01*
X18072654Y-14429996D02*
X18072654Y-14296663D01*
X18072654Y-14315711D02*
X18082178Y-14306187D01*
X18082178Y-14306187D02*
X18101225Y-14296663D01*
X18101225Y-14296663D02*
X18129797Y-14296663D01*
X18129797Y-14296663D02*
X18148844Y-14306187D01*
X18148844Y-14306187D02*
X18158368Y-14325235D01*
X18158368Y-14325235D02*
X18158368Y-14429996D01*
X18158368Y-14325235D02*
X18167892Y-14306187D01*
X18167892Y-14306187D02*
X18186939Y-14296663D01*
X18186939Y-14296663D02*
X18215511Y-14296663D01*
X18215511Y-14296663D02*
X18234559Y-14306187D01*
X18234559Y-14306187D02*
X18244082Y-14325235D01*
X18244082Y-14325235D02*
X18244082Y-14429996D01*
X18634559Y-14220473D02*
X18463130Y-14477615D01*
X18891701Y-14229996D02*
X18910749Y-14229996D01*
X18910749Y-14229996D02*
X18929797Y-14239520D01*
X18929797Y-14239520D02*
X18939321Y-14249044D01*
X18939321Y-14249044D02*
X18948844Y-14268092D01*
X18948844Y-14268092D02*
X18958368Y-14306187D01*
X18958368Y-14306187D02*
X18958368Y-14353806D01*
X18958368Y-14353806D02*
X18948844Y-14391901D01*
X18948844Y-14391901D02*
X18939321Y-14410949D01*
X18939321Y-14410949D02*
X18929797Y-14420473D01*
X18929797Y-14420473D02*
X18910749Y-14429996D01*
X18910749Y-14429996D02*
X18891701Y-14429996D01*
X18891701Y-14429996D02*
X18872654Y-14420473D01*
X18872654Y-14420473D02*
X18863130Y-14410949D01*
X18863130Y-14410949D02*
X18853606Y-14391901D01*
X18853606Y-14391901D02*
X18844082Y-14353806D01*
X18844082Y-14353806D02*
X18844082Y-14306187D01*
X18844082Y-14306187D02*
X18853606Y-14268092D01*
X18853606Y-14268092D02*
X18863130Y-14249044D01*
X18863130Y-14249044D02*
X18872654Y-14239520D01*
X18872654Y-14239520D02*
X18891701Y-14229996D01*
X19044082Y-14410949D02*
X19053606Y-14420473D01*
X19053606Y-14420473D02*
X19044082Y-14429996D01*
X19044082Y-14429996D02*
X19034559Y-14420473D01*
X19034559Y-14420473D02*
X19044082Y-14410949D01*
X19044082Y-14410949D02*
X19044082Y-14429996D01*
X19177416Y-14229996D02*
X19196463Y-14229996D01*
X19196463Y-14229996D02*
X19215511Y-14239520D01*
X19215511Y-14239520D02*
X19225035Y-14249044D01*
X19225035Y-14249044D02*
X19234559Y-14268092D01*
X19234559Y-14268092D02*
X19244082Y-14306187D01*
X19244082Y-14306187D02*
X19244082Y-14353806D01*
X19244082Y-14353806D02*
X19234559Y-14391901D01*
X19234559Y-14391901D02*
X19225035Y-14410949D01*
X19225035Y-14410949D02*
X19215511Y-14420473D01*
X19215511Y-14420473D02*
X19196463Y-14429996D01*
X19196463Y-14429996D02*
X19177416Y-14429996D01*
X19177416Y-14429996D02*
X19158368Y-14420473D01*
X19158368Y-14420473D02*
X19148844Y-14410949D01*
X19148844Y-14410949D02*
X19139321Y-14391901D01*
X19139321Y-14391901D02*
X19129797Y-14353806D01*
X19129797Y-14353806D02*
X19129797Y-14306187D01*
X19129797Y-14306187D02*
X19139321Y-14268092D01*
X19139321Y-14268092D02*
X19148844Y-14249044D01*
X19148844Y-14249044D02*
X19158368Y-14239520D01*
X19158368Y-14239520D02*
X19177416Y-14229996D01*
X19434559Y-14429996D02*
X19320273Y-14429996D01*
X19377416Y-14429996D02*
X19377416Y-14229996D01*
X19377416Y-14229996D02*
X19358368Y-14258568D01*
X19358368Y-14258568D02*
X19339321Y-14277615D01*
X19339321Y-14277615D02*
X19320273Y-14287139D01*
X19558368Y-14229996D02*
X19577416Y-14229996D01*
X19577416Y-14229996D02*
X19596463Y-14239520D01*
X19596463Y-14239520D02*
X19605987Y-14249044D01*
X19605987Y-14249044D02*
X19615511Y-14268092D01*
X19615511Y-14268092D02*
X19625035Y-14306187D01*
X19625035Y-14306187D02*
X19625035Y-14353806D01*
X19625035Y-14353806D02*
X19615511Y-14391901D01*
X19615511Y-14391901D02*
X19605987Y-14410949D01*
X19605987Y-14410949D02*
X19596463Y-14420473D01*
X19596463Y-14420473D02*
X19577416Y-14429996D01*
X19577416Y-14429996D02*
X19558368Y-14429996D01*
X19558368Y-14429996D02*
X19539321Y-14420473D01*
X19539321Y-14420473D02*
X19529797Y-14410949D01*
X19529797Y-14410949D02*
X19520273Y-14391901D01*
X19520273Y-14391901D02*
X19510749Y-14353806D01*
X19510749Y-14353806D02*
X19510749Y-14306187D01*
X19510749Y-14306187D02*
X19520273Y-14268092D01*
X19520273Y-14268092D02*
X19529797Y-14249044D01*
X19529797Y-14249044D02*
X19539321Y-14239520D01*
X19539321Y-14239520D02*
X19558368Y-14229996D01*
X19748844Y-14229996D02*
X19767892Y-14229996D01*
X19767892Y-14229996D02*
X19786940Y-14239520D01*
X19786940Y-14239520D02*
X19796463Y-14249044D01*
X19796463Y-14249044D02*
X19805987Y-14268092D01*
X19805987Y-14268092D02*
X19815511Y-14306187D01*
X19815511Y-14306187D02*
X19815511Y-14353806D01*
X19815511Y-14353806D02*
X19805987Y-14391901D01*
X19805987Y-14391901D02*
X19796463Y-14410949D01*
X19796463Y-14410949D02*
X19786940Y-14420473D01*
X19786940Y-14420473D02*
X19767892Y-14429996D01*
X19767892Y-14429996D02*
X19748844Y-14429996D01*
X19748844Y-14429996D02*
X19729797Y-14420473D01*
X19729797Y-14420473D02*
X19720273Y-14410949D01*
X19720273Y-14410949D02*
X19710749Y-14391901D01*
X19710749Y-14391901D02*
X19701225Y-14353806D01*
X19701225Y-14353806D02*
X19701225Y-14306187D01*
X19701225Y-14306187D02*
X19710749Y-14268092D01*
X19710749Y-14268092D02*
X19720273Y-14249044D01*
X19720273Y-14249044D02*
X19729797Y-14239520D01*
X19729797Y-14239520D02*
X19748844Y-14229996D01*
X19891702Y-14229996D02*
X19891702Y-14268092D01*
X19967892Y-14229996D02*
X19967892Y-14268092D01*
X20263130Y-14506187D02*
X20253606Y-14496663D01*
X20253606Y-14496663D02*
X20234559Y-14468092D01*
X20234559Y-14468092D02*
X20225035Y-14449044D01*
X20225035Y-14449044D02*
X20215511Y-14420473D01*
X20215511Y-14420473D02*
X20205987Y-14372854D01*
X20205987Y-14372854D02*
X20205987Y-14334758D01*
X20205987Y-14334758D02*
X20215511Y-14287139D01*
X20215511Y-14287139D02*
X20225035Y-14258568D01*
X20225035Y-14258568D02*
X20234559Y-14239520D01*
X20234559Y-14239520D02*
X20253606Y-14210949D01*
X20253606Y-14210949D02*
X20263130Y-14201425D01*
X20320273Y-14229996D02*
X20453606Y-14229996D01*
X20453606Y-14229996D02*
X20367892Y-14429996D01*
X20520273Y-14249044D02*
X20529797Y-14239520D01*
X20529797Y-14239520D02*
X20548844Y-14229996D01*
X20548844Y-14229996D02*
X20596464Y-14229996D01*
X20596464Y-14229996D02*
X20615511Y-14239520D01*
X20615511Y-14239520D02*
X20625035Y-14249044D01*
X20625035Y-14249044D02*
X20634559Y-14268092D01*
X20634559Y-14268092D02*
X20634559Y-14287139D01*
X20634559Y-14287139D02*
X20625035Y-14315711D01*
X20625035Y-14315711D02*
X20510749Y-14429996D01*
X20510749Y-14429996D02*
X20634559Y-14429996D01*
X20872654Y-14429996D02*
X20872654Y-14229996D01*
X20958368Y-14429996D02*
X20958368Y-14325235D01*
X20958368Y-14325235D02*
X20948845Y-14306187D01*
X20948845Y-14306187D02*
X20929797Y-14296663D01*
X20929797Y-14296663D02*
X20901225Y-14296663D01*
X20901225Y-14296663D02*
X20882178Y-14306187D01*
X20882178Y-14306187D02*
X20872654Y-14315711D01*
X21082178Y-14429996D02*
X21063130Y-14420473D01*
X21063130Y-14420473D02*
X21053606Y-14410949D01*
X21053606Y-14410949D02*
X21044083Y-14391901D01*
X21044083Y-14391901D02*
X21044083Y-14334758D01*
X21044083Y-14334758D02*
X21053606Y-14315711D01*
X21053606Y-14315711D02*
X21063130Y-14306187D01*
X21063130Y-14306187D02*
X21082178Y-14296663D01*
X21082178Y-14296663D02*
X21110749Y-14296663D01*
X21110749Y-14296663D02*
X21129797Y-14306187D01*
X21129797Y-14306187D02*
X21139321Y-14315711D01*
X21139321Y-14315711D02*
X21148845Y-14334758D01*
X21148845Y-14334758D02*
X21148845Y-14391901D01*
X21148845Y-14391901D02*
X21139321Y-14410949D01*
X21139321Y-14410949D02*
X21129797Y-14420473D01*
X21129797Y-14420473D02*
X21110749Y-14429996D01*
X21110749Y-14429996D02*
X21082178Y-14429996D01*
X21263130Y-14429996D02*
X21244083Y-14420473D01*
X21244083Y-14420473D02*
X21234559Y-14401425D01*
X21234559Y-14401425D02*
X21234559Y-14229996D01*
X21415511Y-14420473D02*
X21396464Y-14429996D01*
X21396464Y-14429996D02*
X21358368Y-14429996D01*
X21358368Y-14429996D02*
X21339321Y-14420473D01*
X21339321Y-14420473D02*
X21329797Y-14401425D01*
X21329797Y-14401425D02*
X21329797Y-14325235D01*
X21329797Y-14325235D02*
X21339321Y-14306187D01*
X21339321Y-14306187D02*
X21358368Y-14296663D01*
X21358368Y-14296663D02*
X21396464Y-14296663D01*
X21396464Y-14296663D02*
X21415511Y-14306187D01*
X21415511Y-14306187D02*
X21425035Y-14325235D01*
X21425035Y-14325235D02*
X21425035Y-14344282D01*
X21425035Y-14344282D02*
X21329797Y-14363330D01*
X21501226Y-14420473D02*
X21520273Y-14429996D01*
X21520273Y-14429996D02*
X21558368Y-14429996D01*
X21558368Y-14429996D02*
X21577416Y-14420473D01*
X21577416Y-14420473D02*
X21586940Y-14401425D01*
X21586940Y-14401425D02*
X21586940Y-14391901D01*
X21586940Y-14391901D02*
X21577416Y-14372854D01*
X21577416Y-14372854D02*
X21558368Y-14363330D01*
X21558368Y-14363330D02*
X21529797Y-14363330D01*
X21529797Y-14363330D02*
X21510749Y-14353806D01*
X21510749Y-14353806D02*
X21501226Y-14334758D01*
X21501226Y-14334758D02*
X21501226Y-14325235D01*
X21501226Y-14325235D02*
X21510749Y-14306187D01*
X21510749Y-14306187D02*
X21529797Y-14296663D01*
X21529797Y-14296663D02*
X21558368Y-14296663D01*
X21558368Y-14296663D02*
X21577416Y-14306187D01*
X21653607Y-14506187D02*
X21663130Y-14496663D01*
X21663130Y-14496663D02*
X21682178Y-14468092D01*
X21682178Y-14468092D02*
X21691702Y-14449044D01*
X21691702Y-14449044D02*
X21701226Y-14420473D01*
X21701226Y-14420473D02*
X21710749Y-14372854D01*
X21710749Y-14372854D02*
X21710749Y-14334758D01*
X21710749Y-14334758D02*
X21701226Y-14287139D01*
X21701226Y-14287139D02*
X21691702Y-14258568D01*
X21691702Y-14258568D02*
X21682178Y-14239520D01*
X21682178Y-14239520D02*
X21663130Y-14210949D01*
X21663130Y-14210949D02*
X21653607Y-14201425D01*
D12*
X16688067Y-14602513D02*
G75*
G02*
X16662667Y-14602513I-12700J0D01*
G01*
X16662667Y-14602513D02*
G75*
G02*
X16688067Y-14602513I12700J0D01*
G01*
D11*
X16986939Y-14493996D02*
X17005987Y-14493996D01*
X17005987Y-14493996D02*
X17025035Y-14503520D01*
X17025035Y-14503520D02*
X17034558Y-14513044D01*
X17034558Y-14513044D02*
X17044082Y-14532092D01*
X17044082Y-14532092D02*
X17053606Y-14570187D01*
X17053606Y-14570187D02*
X17053606Y-14617806D01*
X17053606Y-14617806D02*
X17044082Y-14655901D01*
X17044082Y-14655901D02*
X17034558Y-14674949D01*
X17034558Y-14674949D02*
X17025035Y-14684473D01*
X17025035Y-14684473D02*
X17005987Y-14693996D01*
X17005987Y-14693996D02*
X16986939Y-14693996D01*
X16986939Y-14693996D02*
X16967892Y-14684473D01*
X16967892Y-14684473D02*
X16958368Y-14674949D01*
X16958368Y-14674949D02*
X16948844Y-14655901D01*
X16948844Y-14655901D02*
X16939320Y-14617806D01*
X16939320Y-14617806D02*
X16939320Y-14570187D01*
X16939320Y-14570187D02*
X16948844Y-14532092D01*
X16948844Y-14532092D02*
X16958368Y-14513044D01*
X16958368Y-14513044D02*
X16967892Y-14503520D01*
X16967892Y-14503520D02*
X16986939Y-14493996D01*
X17139320Y-14674949D02*
X17148844Y-14684473D01*
X17148844Y-14684473D02*
X17139320Y-14693996D01*
X17139320Y-14693996D02*
X17129797Y-14684473D01*
X17129797Y-14684473D02*
X17139320Y-14674949D01*
X17139320Y-14674949D02*
X17139320Y-14693996D01*
X17225035Y-14513044D02*
X17234558Y-14503520D01*
X17234558Y-14503520D02*
X17253606Y-14493996D01*
X17253606Y-14493996D02*
X17301225Y-14493996D01*
X17301225Y-14493996D02*
X17320273Y-14503520D01*
X17320273Y-14503520D02*
X17329797Y-14513044D01*
X17329797Y-14513044D02*
X17339320Y-14532092D01*
X17339320Y-14532092D02*
X17339320Y-14551139D01*
X17339320Y-14551139D02*
X17329797Y-14579711D01*
X17329797Y-14579711D02*
X17215511Y-14693996D01*
X17215511Y-14693996D02*
X17339320Y-14693996D01*
X17520273Y-14493996D02*
X17425035Y-14493996D01*
X17425035Y-14493996D02*
X17415511Y-14589235D01*
X17415511Y-14589235D02*
X17425035Y-14579711D01*
X17425035Y-14579711D02*
X17444082Y-14570187D01*
X17444082Y-14570187D02*
X17491701Y-14570187D01*
X17491701Y-14570187D02*
X17510749Y-14579711D01*
X17510749Y-14579711D02*
X17520273Y-14589235D01*
X17520273Y-14589235D02*
X17529797Y-14608282D01*
X17529797Y-14608282D02*
X17529797Y-14655901D01*
X17529797Y-14655901D02*
X17520273Y-14674949D01*
X17520273Y-14674949D02*
X17510749Y-14684473D01*
X17510749Y-14684473D02*
X17491701Y-14693996D01*
X17491701Y-14693996D02*
X17444082Y-14693996D01*
X17444082Y-14693996D02*
X17425035Y-14684473D01*
X17425035Y-14684473D02*
X17415511Y-14674949D01*
X17701225Y-14560663D02*
X17701225Y-14693996D01*
X17653606Y-14484473D02*
X17605987Y-14627330D01*
X17605987Y-14627330D02*
X17729797Y-14627330D01*
X17805987Y-14693996D02*
X17805987Y-14560663D01*
X17805987Y-14579711D02*
X17815511Y-14570187D01*
X17815511Y-14570187D02*
X17834558Y-14560663D01*
X17834558Y-14560663D02*
X17863130Y-14560663D01*
X17863130Y-14560663D02*
X17882178Y-14570187D01*
X17882178Y-14570187D02*
X17891701Y-14589235D01*
X17891701Y-14589235D02*
X17891701Y-14693996D01*
X17891701Y-14589235D02*
X17901225Y-14570187D01*
X17901225Y-14570187D02*
X17920273Y-14560663D01*
X17920273Y-14560663D02*
X17948844Y-14560663D01*
X17948844Y-14560663D02*
X17967892Y-14570187D01*
X17967892Y-14570187D02*
X17977416Y-14589235D01*
X17977416Y-14589235D02*
X17977416Y-14693996D01*
X18072654Y-14693996D02*
X18072654Y-14560663D01*
X18072654Y-14579711D02*
X18082178Y-14570187D01*
X18082178Y-14570187D02*
X18101225Y-14560663D01*
X18101225Y-14560663D02*
X18129797Y-14560663D01*
X18129797Y-14560663D02*
X18148844Y-14570187D01*
X18148844Y-14570187D02*
X18158368Y-14589235D01*
X18158368Y-14589235D02*
X18158368Y-14693996D01*
X18158368Y-14589235D02*
X18167892Y-14570187D01*
X18167892Y-14570187D02*
X18186939Y-14560663D01*
X18186939Y-14560663D02*
X18215511Y-14560663D01*
X18215511Y-14560663D02*
X18234559Y-14570187D01*
X18234559Y-14570187D02*
X18244082Y-14589235D01*
X18244082Y-14589235D02*
X18244082Y-14693996D01*
X18634559Y-14484473D02*
X18463130Y-14741615D01*
X18891701Y-14493996D02*
X18910749Y-14493996D01*
X18910749Y-14493996D02*
X18929797Y-14503520D01*
X18929797Y-14503520D02*
X18939321Y-14513044D01*
X18939321Y-14513044D02*
X18948844Y-14532092D01*
X18948844Y-14532092D02*
X18958368Y-14570187D01*
X18958368Y-14570187D02*
X18958368Y-14617806D01*
X18958368Y-14617806D02*
X18948844Y-14655901D01*
X18948844Y-14655901D02*
X18939321Y-14674949D01*
X18939321Y-14674949D02*
X18929797Y-14684473D01*
X18929797Y-14684473D02*
X18910749Y-14693996D01*
X18910749Y-14693996D02*
X18891701Y-14693996D01*
X18891701Y-14693996D02*
X18872654Y-14684473D01*
X18872654Y-14684473D02*
X18863130Y-14674949D01*
X18863130Y-14674949D02*
X18853606Y-14655901D01*
X18853606Y-14655901D02*
X18844082Y-14617806D01*
X18844082Y-14617806D02*
X18844082Y-14570187D01*
X18844082Y-14570187D02*
X18853606Y-14532092D01*
X18853606Y-14532092D02*
X18863130Y-14513044D01*
X18863130Y-14513044D02*
X18872654Y-14503520D01*
X18872654Y-14503520D02*
X18891701Y-14493996D01*
X19044082Y-14674949D02*
X19053606Y-14684473D01*
X19053606Y-14684473D02*
X19044082Y-14693996D01*
X19044082Y-14693996D02*
X19034559Y-14684473D01*
X19034559Y-14684473D02*
X19044082Y-14674949D01*
X19044082Y-14674949D02*
X19044082Y-14693996D01*
X19177416Y-14493996D02*
X19196463Y-14493996D01*
X19196463Y-14493996D02*
X19215511Y-14503520D01*
X19215511Y-14503520D02*
X19225035Y-14513044D01*
X19225035Y-14513044D02*
X19234559Y-14532092D01*
X19234559Y-14532092D02*
X19244082Y-14570187D01*
X19244082Y-14570187D02*
X19244082Y-14617806D01*
X19244082Y-14617806D02*
X19234559Y-14655901D01*
X19234559Y-14655901D02*
X19225035Y-14674949D01*
X19225035Y-14674949D02*
X19215511Y-14684473D01*
X19215511Y-14684473D02*
X19196463Y-14693996D01*
X19196463Y-14693996D02*
X19177416Y-14693996D01*
X19177416Y-14693996D02*
X19158368Y-14684473D01*
X19158368Y-14684473D02*
X19148844Y-14674949D01*
X19148844Y-14674949D02*
X19139321Y-14655901D01*
X19139321Y-14655901D02*
X19129797Y-14617806D01*
X19129797Y-14617806D02*
X19129797Y-14570187D01*
X19129797Y-14570187D02*
X19139321Y-14532092D01*
X19139321Y-14532092D02*
X19148844Y-14513044D01*
X19148844Y-14513044D02*
X19158368Y-14503520D01*
X19158368Y-14503520D02*
X19177416Y-14493996D01*
X19434559Y-14693996D02*
X19320273Y-14693996D01*
X19377416Y-14693996D02*
X19377416Y-14493996D01*
X19377416Y-14493996D02*
X19358368Y-14522568D01*
X19358368Y-14522568D02*
X19339321Y-14541615D01*
X19339321Y-14541615D02*
X19320273Y-14551139D01*
X19558368Y-14493996D02*
X19577416Y-14493996D01*
X19577416Y-14493996D02*
X19596463Y-14503520D01*
X19596463Y-14503520D02*
X19605987Y-14513044D01*
X19605987Y-14513044D02*
X19615511Y-14532092D01*
X19615511Y-14532092D02*
X19625035Y-14570187D01*
X19625035Y-14570187D02*
X19625035Y-14617806D01*
X19625035Y-14617806D02*
X19615511Y-14655901D01*
X19615511Y-14655901D02*
X19605987Y-14674949D01*
X19605987Y-14674949D02*
X19596463Y-14684473D01*
X19596463Y-14684473D02*
X19577416Y-14693996D01*
X19577416Y-14693996D02*
X19558368Y-14693996D01*
X19558368Y-14693996D02*
X19539321Y-14684473D01*
X19539321Y-14684473D02*
X19529797Y-14674949D01*
X19529797Y-14674949D02*
X19520273Y-14655901D01*
X19520273Y-14655901D02*
X19510749Y-14617806D01*
X19510749Y-14617806D02*
X19510749Y-14570187D01*
X19510749Y-14570187D02*
X19520273Y-14532092D01*
X19520273Y-14532092D02*
X19529797Y-14513044D01*
X19529797Y-14513044D02*
X19539321Y-14503520D01*
X19539321Y-14503520D02*
X19558368Y-14493996D01*
X19748844Y-14493996D02*
X19767892Y-14493996D01*
X19767892Y-14493996D02*
X19786940Y-14503520D01*
X19786940Y-14503520D02*
X19796463Y-14513044D01*
X19796463Y-14513044D02*
X19805987Y-14532092D01*
X19805987Y-14532092D02*
X19815511Y-14570187D01*
X19815511Y-14570187D02*
X19815511Y-14617806D01*
X19815511Y-14617806D02*
X19805987Y-14655901D01*
X19805987Y-14655901D02*
X19796463Y-14674949D01*
X19796463Y-14674949D02*
X19786940Y-14684473D01*
X19786940Y-14684473D02*
X19767892Y-14693996D01*
X19767892Y-14693996D02*
X19748844Y-14693996D01*
X19748844Y-14693996D02*
X19729797Y-14684473D01*
X19729797Y-14684473D02*
X19720273Y-14674949D01*
X19720273Y-14674949D02*
X19710749Y-14655901D01*
X19710749Y-14655901D02*
X19701225Y-14617806D01*
X19701225Y-14617806D02*
X19701225Y-14570187D01*
X19701225Y-14570187D02*
X19710749Y-14532092D01*
X19710749Y-14532092D02*
X19720273Y-14513044D01*
X19720273Y-14513044D02*
X19729797Y-14503520D01*
X19729797Y-14503520D02*
X19748844Y-14493996D01*
X19891702Y-14493996D02*
X19891702Y-14532092D01*
X19967892Y-14493996D02*
X19967892Y-14532092D01*
X20263130Y-14770187D02*
X20253606Y-14760663D01*
X20253606Y-14760663D02*
X20234559Y-14732092D01*
X20234559Y-14732092D02*
X20225035Y-14713044D01*
X20225035Y-14713044D02*
X20215511Y-14684473D01*
X20215511Y-14684473D02*
X20205987Y-14636854D01*
X20205987Y-14636854D02*
X20205987Y-14598758D01*
X20205987Y-14598758D02*
X20215511Y-14551139D01*
X20215511Y-14551139D02*
X20225035Y-14522568D01*
X20225035Y-14522568D02*
X20234559Y-14503520D01*
X20234559Y-14503520D02*
X20253606Y-14474949D01*
X20253606Y-14474949D02*
X20263130Y-14465425D01*
X20444083Y-14693996D02*
X20329797Y-14693996D01*
X20386940Y-14693996D02*
X20386940Y-14493996D01*
X20386940Y-14493996D02*
X20367892Y-14522568D01*
X20367892Y-14522568D02*
X20348844Y-14541615D01*
X20348844Y-14541615D02*
X20329797Y-14551139D01*
X20520273Y-14513044D02*
X20529797Y-14503520D01*
X20529797Y-14503520D02*
X20548844Y-14493996D01*
X20548844Y-14493996D02*
X20596464Y-14493996D01*
X20596464Y-14493996D02*
X20615511Y-14503520D01*
X20615511Y-14503520D02*
X20625035Y-14513044D01*
X20625035Y-14513044D02*
X20634559Y-14532092D01*
X20634559Y-14532092D02*
X20634559Y-14551139D01*
X20634559Y-14551139D02*
X20625035Y-14579711D01*
X20625035Y-14579711D02*
X20510749Y-14693996D01*
X20510749Y-14693996D02*
X20634559Y-14693996D01*
X20872654Y-14693996D02*
X20872654Y-14493996D01*
X20958368Y-14693996D02*
X20958368Y-14589235D01*
X20958368Y-14589235D02*
X20948845Y-14570187D01*
X20948845Y-14570187D02*
X20929797Y-14560663D01*
X20929797Y-14560663D02*
X20901225Y-14560663D01*
X20901225Y-14560663D02*
X20882178Y-14570187D01*
X20882178Y-14570187D02*
X20872654Y-14579711D01*
X21082178Y-14693996D02*
X21063130Y-14684473D01*
X21063130Y-14684473D02*
X21053606Y-14674949D01*
X21053606Y-14674949D02*
X21044083Y-14655901D01*
X21044083Y-14655901D02*
X21044083Y-14598758D01*
X21044083Y-14598758D02*
X21053606Y-14579711D01*
X21053606Y-14579711D02*
X21063130Y-14570187D01*
X21063130Y-14570187D02*
X21082178Y-14560663D01*
X21082178Y-14560663D02*
X21110749Y-14560663D01*
X21110749Y-14560663D02*
X21129797Y-14570187D01*
X21129797Y-14570187D02*
X21139321Y-14579711D01*
X21139321Y-14579711D02*
X21148845Y-14598758D01*
X21148845Y-14598758D02*
X21148845Y-14655901D01*
X21148845Y-14655901D02*
X21139321Y-14674949D01*
X21139321Y-14674949D02*
X21129797Y-14684473D01*
X21129797Y-14684473D02*
X21110749Y-14693996D01*
X21110749Y-14693996D02*
X21082178Y-14693996D01*
X21263130Y-14693996D02*
X21244083Y-14684473D01*
X21244083Y-14684473D02*
X21234559Y-14665425D01*
X21234559Y-14665425D02*
X21234559Y-14493996D01*
X21415511Y-14684473D02*
X21396464Y-14693996D01*
X21396464Y-14693996D02*
X21358368Y-14693996D01*
X21358368Y-14693996D02*
X21339321Y-14684473D01*
X21339321Y-14684473D02*
X21329797Y-14665425D01*
X21329797Y-14665425D02*
X21329797Y-14589235D01*
X21329797Y-14589235D02*
X21339321Y-14570187D01*
X21339321Y-14570187D02*
X21358368Y-14560663D01*
X21358368Y-14560663D02*
X21396464Y-14560663D01*
X21396464Y-14560663D02*
X21415511Y-14570187D01*
X21415511Y-14570187D02*
X21425035Y-14589235D01*
X21425035Y-14589235D02*
X21425035Y-14608282D01*
X21425035Y-14608282D02*
X21329797Y-14627330D01*
X21501226Y-14684473D02*
X21520273Y-14693996D01*
X21520273Y-14693996D02*
X21558368Y-14693996D01*
X21558368Y-14693996D02*
X21577416Y-14684473D01*
X21577416Y-14684473D02*
X21586940Y-14665425D01*
X21586940Y-14665425D02*
X21586940Y-14655901D01*
X21586940Y-14655901D02*
X21577416Y-14636854D01*
X21577416Y-14636854D02*
X21558368Y-14627330D01*
X21558368Y-14627330D02*
X21529797Y-14627330D01*
X21529797Y-14627330D02*
X21510749Y-14617806D01*
X21510749Y-14617806D02*
X21501226Y-14598758D01*
X21501226Y-14598758D02*
X21501226Y-14589235D01*
X21501226Y-14589235D02*
X21510749Y-14570187D01*
X21510749Y-14570187D02*
X21529797Y-14560663D01*
X21529797Y-14560663D02*
X21558368Y-14560663D01*
X21558368Y-14560663D02*
X21577416Y-14570187D01*
X21653607Y-14770187D02*
X21663130Y-14760663D01*
X21663130Y-14760663D02*
X21682178Y-14732092D01*
X21682178Y-14732092D02*
X21691702Y-14713044D01*
X21691702Y-14713044D02*
X21701226Y-14684473D01*
X21701226Y-14684473D02*
X21710749Y-14636854D01*
X21710749Y-14636854D02*
X21710749Y-14598758D01*
X21710749Y-14598758D02*
X21701226Y-14551139D01*
X21701226Y-14551139D02*
X21691702Y-14522568D01*
X21691702Y-14522568D02*
X21682178Y-14503520D01*
X21682178Y-14503520D02*
X21663130Y-14474949D01*
X21663130Y-14474949D02*
X21653607Y-14465425D01*
D12*
X16663067Y-14841513D02*
X16663067Y-14891513D01*
X16638067Y-14866513D02*
X16688067Y-14866513D01*
D11*
X16986939Y-14757996D02*
X17005987Y-14757996D01*
X17005987Y-14757996D02*
X17025035Y-14767520D01*
X17025035Y-14767520D02*
X17034558Y-14777044D01*
X17034558Y-14777044D02*
X17044082Y-14796092D01*
X17044082Y-14796092D02*
X17053606Y-14834187D01*
X17053606Y-14834187D02*
X17053606Y-14881806D01*
X17053606Y-14881806D02*
X17044082Y-14919901D01*
X17044082Y-14919901D02*
X17034558Y-14938949D01*
X17034558Y-14938949D02*
X17025035Y-14948473D01*
X17025035Y-14948473D02*
X17005987Y-14957996D01*
X17005987Y-14957996D02*
X16986939Y-14957996D01*
X16986939Y-14957996D02*
X16967892Y-14948473D01*
X16967892Y-14948473D02*
X16958368Y-14938949D01*
X16958368Y-14938949D02*
X16948844Y-14919901D01*
X16948844Y-14919901D02*
X16939320Y-14881806D01*
X16939320Y-14881806D02*
X16939320Y-14834187D01*
X16939320Y-14834187D02*
X16948844Y-14796092D01*
X16948844Y-14796092D02*
X16958368Y-14777044D01*
X16958368Y-14777044D02*
X16967892Y-14767520D01*
X16967892Y-14767520D02*
X16986939Y-14757996D01*
X17139320Y-14938949D02*
X17148844Y-14948473D01*
X17148844Y-14948473D02*
X17139320Y-14957996D01*
X17139320Y-14957996D02*
X17129797Y-14948473D01*
X17129797Y-14948473D02*
X17139320Y-14938949D01*
X17139320Y-14938949D02*
X17139320Y-14957996D01*
X17329797Y-14757996D02*
X17234558Y-14757996D01*
X17234558Y-14757996D02*
X17225035Y-14853235D01*
X17225035Y-14853235D02*
X17234558Y-14843711D01*
X17234558Y-14843711D02*
X17253606Y-14834187D01*
X17253606Y-14834187D02*
X17301225Y-14834187D01*
X17301225Y-14834187D02*
X17320273Y-14843711D01*
X17320273Y-14843711D02*
X17329797Y-14853235D01*
X17329797Y-14853235D02*
X17339320Y-14872282D01*
X17339320Y-14872282D02*
X17339320Y-14919901D01*
X17339320Y-14919901D02*
X17329797Y-14938949D01*
X17329797Y-14938949D02*
X17320273Y-14948473D01*
X17320273Y-14948473D02*
X17301225Y-14957996D01*
X17301225Y-14957996D02*
X17253606Y-14957996D01*
X17253606Y-14957996D02*
X17234558Y-14948473D01*
X17234558Y-14948473D02*
X17225035Y-14938949D01*
X17463130Y-14757996D02*
X17482178Y-14757996D01*
X17482178Y-14757996D02*
X17501225Y-14767520D01*
X17501225Y-14767520D02*
X17510749Y-14777044D01*
X17510749Y-14777044D02*
X17520273Y-14796092D01*
X17520273Y-14796092D02*
X17529797Y-14834187D01*
X17529797Y-14834187D02*
X17529797Y-14881806D01*
X17529797Y-14881806D02*
X17520273Y-14919901D01*
X17520273Y-14919901D02*
X17510749Y-14938949D01*
X17510749Y-14938949D02*
X17501225Y-14948473D01*
X17501225Y-14948473D02*
X17482178Y-14957996D01*
X17482178Y-14957996D02*
X17463130Y-14957996D01*
X17463130Y-14957996D02*
X17444082Y-14948473D01*
X17444082Y-14948473D02*
X17434558Y-14938949D01*
X17434558Y-14938949D02*
X17425035Y-14919901D01*
X17425035Y-14919901D02*
X17415511Y-14881806D01*
X17415511Y-14881806D02*
X17415511Y-14834187D01*
X17415511Y-14834187D02*
X17425035Y-14796092D01*
X17425035Y-14796092D02*
X17434558Y-14777044D01*
X17434558Y-14777044D02*
X17444082Y-14767520D01*
X17444082Y-14767520D02*
X17463130Y-14757996D01*
X17653606Y-14757996D02*
X17672654Y-14757996D01*
X17672654Y-14757996D02*
X17691701Y-14767520D01*
X17691701Y-14767520D02*
X17701225Y-14777044D01*
X17701225Y-14777044D02*
X17710749Y-14796092D01*
X17710749Y-14796092D02*
X17720273Y-14834187D01*
X17720273Y-14834187D02*
X17720273Y-14881806D01*
X17720273Y-14881806D02*
X17710749Y-14919901D01*
X17710749Y-14919901D02*
X17701225Y-14938949D01*
X17701225Y-14938949D02*
X17691701Y-14948473D01*
X17691701Y-14948473D02*
X17672654Y-14957996D01*
X17672654Y-14957996D02*
X17653606Y-14957996D01*
X17653606Y-14957996D02*
X17634558Y-14948473D01*
X17634558Y-14948473D02*
X17625035Y-14938949D01*
X17625035Y-14938949D02*
X17615511Y-14919901D01*
X17615511Y-14919901D02*
X17605987Y-14881806D01*
X17605987Y-14881806D02*
X17605987Y-14834187D01*
X17605987Y-14834187D02*
X17615511Y-14796092D01*
X17615511Y-14796092D02*
X17625035Y-14777044D01*
X17625035Y-14777044D02*
X17634558Y-14767520D01*
X17634558Y-14767520D02*
X17653606Y-14757996D01*
X17805987Y-14957996D02*
X17805987Y-14824663D01*
X17805987Y-14843711D02*
X17815511Y-14834187D01*
X17815511Y-14834187D02*
X17834558Y-14824663D01*
X17834558Y-14824663D02*
X17863130Y-14824663D01*
X17863130Y-14824663D02*
X17882178Y-14834187D01*
X17882178Y-14834187D02*
X17891701Y-14853235D01*
X17891701Y-14853235D02*
X17891701Y-14957996D01*
X17891701Y-14853235D02*
X17901225Y-14834187D01*
X17901225Y-14834187D02*
X17920273Y-14824663D01*
X17920273Y-14824663D02*
X17948844Y-14824663D01*
X17948844Y-14824663D02*
X17967892Y-14834187D01*
X17967892Y-14834187D02*
X17977416Y-14853235D01*
X17977416Y-14853235D02*
X17977416Y-14957996D01*
X18072654Y-14957996D02*
X18072654Y-14824663D01*
X18072654Y-14843711D02*
X18082178Y-14834187D01*
X18082178Y-14834187D02*
X18101225Y-14824663D01*
X18101225Y-14824663D02*
X18129797Y-14824663D01*
X18129797Y-14824663D02*
X18148844Y-14834187D01*
X18148844Y-14834187D02*
X18158368Y-14853235D01*
X18158368Y-14853235D02*
X18158368Y-14957996D01*
X18158368Y-14853235D02*
X18167892Y-14834187D01*
X18167892Y-14834187D02*
X18186939Y-14824663D01*
X18186939Y-14824663D02*
X18215511Y-14824663D01*
X18215511Y-14824663D02*
X18234559Y-14834187D01*
X18234559Y-14834187D02*
X18244082Y-14853235D01*
X18244082Y-14853235D02*
X18244082Y-14957996D01*
X18634559Y-14748473D02*
X18463130Y-15005615D01*
X18891701Y-14757996D02*
X18910749Y-14757996D01*
X18910749Y-14757996D02*
X18929797Y-14767520D01*
X18929797Y-14767520D02*
X18939321Y-14777044D01*
X18939321Y-14777044D02*
X18948844Y-14796092D01*
X18948844Y-14796092D02*
X18958368Y-14834187D01*
X18958368Y-14834187D02*
X18958368Y-14881806D01*
X18958368Y-14881806D02*
X18948844Y-14919901D01*
X18948844Y-14919901D02*
X18939321Y-14938949D01*
X18939321Y-14938949D02*
X18929797Y-14948473D01*
X18929797Y-14948473D02*
X18910749Y-14957996D01*
X18910749Y-14957996D02*
X18891701Y-14957996D01*
X18891701Y-14957996D02*
X18872654Y-14948473D01*
X18872654Y-14948473D02*
X18863130Y-14938949D01*
X18863130Y-14938949D02*
X18853606Y-14919901D01*
X18853606Y-14919901D02*
X18844082Y-14881806D01*
X18844082Y-14881806D02*
X18844082Y-14834187D01*
X18844082Y-14834187D02*
X18853606Y-14796092D01*
X18853606Y-14796092D02*
X18863130Y-14777044D01*
X18863130Y-14777044D02*
X18872654Y-14767520D01*
X18872654Y-14767520D02*
X18891701Y-14757996D01*
X19044082Y-14938949D02*
X19053606Y-14948473D01*
X19053606Y-14948473D02*
X19044082Y-14957996D01*
X19044082Y-14957996D02*
X19034559Y-14948473D01*
X19034559Y-14948473D02*
X19044082Y-14938949D01*
X19044082Y-14938949D02*
X19044082Y-14957996D01*
X19177416Y-14757996D02*
X19196463Y-14757996D01*
X19196463Y-14757996D02*
X19215511Y-14767520D01*
X19215511Y-14767520D02*
X19225035Y-14777044D01*
X19225035Y-14777044D02*
X19234559Y-14796092D01*
X19234559Y-14796092D02*
X19244082Y-14834187D01*
X19244082Y-14834187D02*
X19244082Y-14881806D01*
X19244082Y-14881806D02*
X19234559Y-14919901D01*
X19234559Y-14919901D02*
X19225035Y-14938949D01*
X19225035Y-14938949D02*
X19215511Y-14948473D01*
X19215511Y-14948473D02*
X19196463Y-14957996D01*
X19196463Y-14957996D02*
X19177416Y-14957996D01*
X19177416Y-14957996D02*
X19158368Y-14948473D01*
X19158368Y-14948473D02*
X19148844Y-14938949D01*
X19148844Y-14938949D02*
X19139321Y-14919901D01*
X19139321Y-14919901D02*
X19129797Y-14881806D01*
X19129797Y-14881806D02*
X19129797Y-14834187D01*
X19129797Y-14834187D02*
X19139321Y-14796092D01*
X19139321Y-14796092D02*
X19148844Y-14777044D01*
X19148844Y-14777044D02*
X19158368Y-14767520D01*
X19158368Y-14767520D02*
X19177416Y-14757996D01*
X19434559Y-14957996D02*
X19320273Y-14957996D01*
X19377416Y-14957996D02*
X19377416Y-14757996D01*
X19377416Y-14757996D02*
X19358368Y-14786568D01*
X19358368Y-14786568D02*
X19339321Y-14805615D01*
X19339321Y-14805615D02*
X19320273Y-14815139D01*
X19529797Y-14957996D02*
X19567892Y-14957996D01*
X19567892Y-14957996D02*
X19586940Y-14948473D01*
X19586940Y-14948473D02*
X19596463Y-14938949D01*
X19596463Y-14938949D02*
X19615511Y-14910377D01*
X19615511Y-14910377D02*
X19625035Y-14872282D01*
X19625035Y-14872282D02*
X19625035Y-14796092D01*
X19625035Y-14796092D02*
X19615511Y-14777044D01*
X19615511Y-14777044D02*
X19605987Y-14767520D01*
X19605987Y-14767520D02*
X19586940Y-14757996D01*
X19586940Y-14757996D02*
X19548844Y-14757996D01*
X19548844Y-14757996D02*
X19529797Y-14767520D01*
X19529797Y-14767520D02*
X19520273Y-14777044D01*
X19520273Y-14777044D02*
X19510749Y-14796092D01*
X19510749Y-14796092D02*
X19510749Y-14843711D01*
X19510749Y-14843711D02*
X19520273Y-14862758D01*
X19520273Y-14862758D02*
X19529797Y-14872282D01*
X19529797Y-14872282D02*
X19548844Y-14881806D01*
X19548844Y-14881806D02*
X19586940Y-14881806D01*
X19586940Y-14881806D02*
X19605987Y-14872282D01*
X19605987Y-14872282D02*
X19615511Y-14862758D01*
X19615511Y-14862758D02*
X19625035Y-14843711D01*
X19691702Y-14757996D02*
X19825035Y-14757996D01*
X19825035Y-14757996D02*
X19739321Y-14957996D01*
X19891702Y-14757996D02*
X19891702Y-14796092D01*
X19967892Y-14757996D02*
X19967892Y-14796092D01*
X20263130Y-15034187D02*
X20253606Y-15024663D01*
X20253606Y-15024663D02*
X20234559Y-14996092D01*
X20234559Y-14996092D02*
X20225035Y-14977044D01*
X20225035Y-14977044D02*
X20215511Y-14948473D01*
X20215511Y-14948473D02*
X20205987Y-14900854D01*
X20205987Y-14900854D02*
X20205987Y-14862758D01*
X20205987Y-14862758D02*
X20215511Y-14815139D01*
X20215511Y-14815139D02*
X20225035Y-14786568D01*
X20225035Y-14786568D02*
X20234559Y-14767520D01*
X20234559Y-14767520D02*
X20253606Y-14738949D01*
X20253606Y-14738949D02*
X20263130Y-14729425D01*
X20377416Y-14757996D02*
X20396464Y-14757996D01*
X20396464Y-14757996D02*
X20415511Y-14767520D01*
X20415511Y-14767520D02*
X20425035Y-14777044D01*
X20425035Y-14777044D02*
X20434559Y-14796092D01*
X20434559Y-14796092D02*
X20444083Y-14834187D01*
X20444083Y-14834187D02*
X20444083Y-14881806D01*
X20444083Y-14881806D02*
X20434559Y-14919901D01*
X20434559Y-14919901D02*
X20425035Y-14938949D01*
X20425035Y-14938949D02*
X20415511Y-14948473D01*
X20415511Y-14948473D02*
X20396464Y-14957996D01*
X20396464Y-14957996D02*
X20377416Y-14957996D01*
X20377416Y-14957996D02*
X20358368Y-14948473D01*
X20358368Y-14948473D02*
X20348844Y-14938949D01*
X20348844Y-14938949D02*
X20339321Y-14919901D01*
X20339321Y-14919901D02*
X20329797Y-14881806D01*
X20329797Y-14881806D02*
X20329797Y-14834187D01*
X20329797Y-14834187D02*
X20339321Y-14796092D01*
X20339321Y-14796092D02*
X20348844Y-14777044D01*
X20348844Y-14777044D02*
X20358368Y-14767520D01*
X20358368Y-14767520D02*
X20377416Y-14757996D01*
X20682178Y-14957996D02*
X20682178Y-14757996D01*
X20767892Y-14957996D02*
X20767892Y-14853235D01*
X20767892Y-14853235D02*
X20758368Y-14834187D01*
X20758368Y-14834187D02*
X20739321Y-14824663D01*
X20739321Y-14824663D02*
X20710749Y-14824663D01*
X20710749Y-14824663D02*
X20691702Y-14834187D01*
X20691702Y-14834187D02*
X20682178Y-14843711D01*
X20891702Y-14957996D02*
X20872654Y-14948473D01*
X20872654Y-14948473D02*
X20863130Y-14938949D01*
X20863130Y-14938949D02*
X20853606Y-14919901D01*
X20853606Y-14919901D02*
X20853606Y-14862758D01*
X20853606Y-14862758D02*
X20863130Y-14843711D01*
X20863130Y-14843711D02*
X20872654Y-14834187D01*
X20872654Y-14834187D02*
X20891702Y-14824663D01*
X20891702Y-14824663D02*
X20920273Y-14824663D01*
X20920273Y-14824663D02*
X20939321Y-14834187D01*
X20939321Y-14834187D02*
X20948845Y-14843711D01*
X20948845Y-14843711D02*
X20958368Y-14862758D01*
X20958368Y-14862758D02*
X20958368Y-14919901D01*
X20958368Y-14919901D02*
X20948845Y-14938949D01*
X20948845Y-14938949D02*
X20939321Y-14948473D01*
X20939321Y-14948473D02*
X20920273Y-14957996D01*
X20920273Y-14957996D02*
X20891702Y-14957996D01*
X21072654Y-14957996D02*
X21053606Y-14948473D01*
X21053606Y-14948473D02*
X21044083Y-14929425D01*
X21044083Y-14929425D02*
X21044083Y-14757996D01*
X21225035Y-14948473D02*
X21205987Y-14957996D01*
X21205987Y-14957996D02*
X21167892Y-14957996D01*
X21167892Y-14957996D02*
X21148845Y-14948473D01*
X21148845Y-14948473D02*
X21139321Y-14929425D01*
X21139321Y-14929425D02*
X21139321Y-14853235D01*
X21139321Y-14853235D02*
X21148845Y-14834187D01*
X21148845Y-14834187D02*
X21167892Y-14824663D01*
X21167892Y-14824663D02*
X21205987Y-14824663D01*
X21205987Y-14824663D02*
X21225035Y-14834187D01*
X21225035Y-14834187D02*
X21234559Y-14853235D01*
X21234559Y-14853235D02*
X21234559Y-14872282D01*
X21234559Y-14872282D02*
X21139321Y-14891330D01*
X21310749Y-14948473D02*
X21329797Y-14957996D01*
X21329797Y-14957996D02*
X21367892Y-14957996D01*
X21367892Y-14957996D02*
X21386940Y-14948473D01*
X21386940Y-14948473D02*
X21396464Y-14929425D01*
X21396464Y-14929425D02*
X21396464Y-14919901D01*
X21396464Y-14919901D02*
X21386940Y-14900854D01*
X21386940Y-14900854D02*
X21367892Y-14891330D01*
X21367892Y-14891330D02*
X21339321Y-14891330D01*
X21339321Y-14891330D02*
X21320273Y-14881806D01*
X21320273Y-14881806D02*
X21310749Y-14862758D01*
X21310749Y-14862758D02*
X21310749Y-14853235D01*
X21310749Y-14853235D02*
X21320273Y-14834187D01*
X21320273Y-14834187D02*
X21339321Y-14824663D01*
X21339321Y-14824663D02*
X21367892Y-14824663D01*
X21367892Y-14824663D02*
X21386940Y-14834187D01*
X21634559Y-14881806D02*
X21786940Y-14881806D01*
X21710749Y-14957996D02*
X21710749Y-14805615D01*
X22025035Y-14777044D02*
X22034559Y-14767520D01*
X22034559Y-14767520D02*
X22053607Y-14757996D01*
X22053607Y-14757996D02*
X22101226Y-14757996D01*
X22101226Y-14757996D02*
X22120273Y-14767520D01*
X22120273Y-14767520D02*
X22129797Y-14777044D01*
X22129797Y-14777044D02*
X22139321Y-14796092D01*
X22139321Y-14796092D02*
X22139321Y-14815139D01*
X22139321Y-14815139D02*
X22129797Y-14843711D01*
X22129797Y-14843711D02*
X22015511Y-14957996D01*
X22015511Y-14957996D02*
X22139321Y-14957996D01*
X22367892Y-14948473D02*
X22386940Y-14957996D01*
X22386940Y-14957996D02*
X22425035Y-14957996D01*
X22425035Y-14957996D02*
X22444083Y-14948473D01*
X22444083Y-14948473D02*
X22453607Y-14929425D01*
X22453607Y-14929425D02*
X22453607Y-14919901D01*
X22453607Y-14919901D02*
X22444083Y-14900854D01*
X22444083Y-14900854D02*
X22425035Y-14891330D01*
X22425035Y-14891330D02*
X22396464Y-14891330D01*
X22396464Y-14891330D02*
X22377416Y-14881806D01*
X22377416Y-14881806D02*
X22367892Y-14862758D01*
X22367892Y-14862758D02*
X22367892Y-14853235D01*
X22367892Y-14853235D02*
X22377416Y-14834187D01*
X22377416Y-14834187D02*
X22396464Y-14824663D01*
X22396464Y-14824663D02*
X22425035Y-14824663D01*
X22425035Y-14824663D02*
X22444083Y-14834187D01*
X22567892Y-14957996D02*
X22548845Y-14948473D01*
X22548845Y-14948473D02*
X22539321Y-14929425D01*
X22539321Y-14929425D02*
X22539321Y-14757996D01*
X22672654Y-14957996D02*
X22653607Y-14948473D01*
X22653607Y-14948473D02*
X22644083Y-14938949D01*
X22644083Y-14938949D02*
X22634559Y-14919901D01*
X22634559Y-14919901D02*
X22634559Y-14862758D01*
X22634559Y-14862758D02*
X22644083Y-14843711D01*
X22644083Y-14843711D02*
X22653607Y-14834187D01*
X22653607Y-14834187D02*
X22672654Y-14824663D01*
X22672654Y-14824663D02*
X22701226Y-14824663D01*
X22701226Y-14824663D02*
X22720273Y-14834187D01*
X22720273Y-14834187D02*
X22729797Y-14843711D01*
X22729797Y-14843711D02*
X22739321Y-14862758D01*
X22739321Y-14862758D02*
X22739321Y-14919901D01*
X22739321Y-14919901D02*
X22729797Y-14938949D01*
X22729797Y-14938949D02*
X22720273Y-14948473D01*
X22720273Y-14948473D02*
X22701226Y-14957996D01*
X22701226Y-14957996D02*
X22672654Y-14957996D01*
X22796464Y-14824663D02*
X22872654Y-14824663D01*
X22825035Y-14757996D02*
X22825035Y-14929425D01*
X22825035Y-14929425D02*
X22834559Y-14948473D01*
X22834559Y-14948473D02*
X22853607Y-14957996D01*
X22853607Y-14957996D02*
X22872654Y-14957996D01*
X22929797Y-14948473D02*
X22948845Y-14957996D01*
X22948845Y-14957996D02*
X22986940Y-14957996D01*
X22986940Y-14957996D02*
X23005988Y-14948473D01*
X23005988Y-14948473D02*
X23015511Y-14929425D01*
X23015511Y-14929425D02*
X23015511Y-14919901D01*
X23015511Y-14919901D02*
X23005988Y-14900854D01*
X23005988Y-14900854D02*
X22986940Y-14891330D01*
X22986940Y-14891330D02*
X22958368Y-14891330D01*
X22958368Y-14891330D02*
X22939321Y-14881806D01*
X22939321Y-14881806D02*
X22929797Y-14862758D01*
X22929797Y-14862758D02*
X22929797Y-14853235D01*
X22929797Y-14853235D02*
X22939321Y-14834187D01*
X22939321Y-14834187D02*
X22958368Y-14824663D01*
X22958368Y-14824663D02*
X22986940Y-14824663D01*
X22986940Y-14824663D02*
X23005988Y-14834187D01*
X23082178Y-15034187D02*
X23091702Y-15024663D01*
X23091702Y-15024663D02*
X23110749Y-14996092D01*
X23110749Y-14996092D02*
X23120273Y-14977044D01*
X23120273Y-14977044D02*
X23129797Y-14948473D01*
X23129797Y-14948473D02*
X23139321Y-14900854D01*
X23139321Y-14900854D02*
X23139321Y-14862758D01*
X23139321Y-14862758D02*
X23129797Y-14815139D01*
X23129797Y-14815139D02*
X23120273Y-14786568D01*
X23120273Y-14786568D02*
X23110749Y-14767520D01*
X23110749Y-14767520D02*
X23091702Y-14738949D01*
X23091702Y-14738949D02*
X23082178Y-14729425D01*
D12*
X16677084Y-15157029D02*
X16677084Y-15103996D01*
X16624050Y-15103996D01*
X16624050Y-15157029D01*
X16677084Y-15157029D01*
D11*
X16986939Y-15021996D02*
X17005987Y-15021996D01*
X17005987Y-15021996D02*
X17025035Y-15031520D01*
X17025035Y-15031520D02*
X17034558Y-15041044D01*
X17034558Y-15041044D02*
X17044082Y-15060092D01*
X17044082Y-15060092D02*
X17053606Y-15098187D01*
X17053606Y-15098187D02*
X17053606Y-15145806D01*
X17053606Y-15145806D02*
X17044082Y-15183901D01*
X17044082Y-15183901D02*
X17034558Y-15202949D01*
X17034558Y-15202949D02*
X17025035Y-15212473D01*
X17025035Y-15212473D02*
X17005987Y-15221996D01*
X17005987Y-15221996D02*
X16986939Y-15221996D01*
X16986939Y-15221996D02*
X16967892Y-15212473D01*
X16967892Y-15212473D02*
X16958368Y-15202949D01*
X16958368Y-15202949D02*
X16948844Y-15183901D01*
X16948844Y-15183901D02*
X16939320Y-15145806D01*
X16939320Y-15145806D02*
X16939320Y-15098187D01*
X16939320Y-15098187D02*
X16948844Y-15060092D01*
X16948844Y-15060092D02*
X16958368Y-15041044D01*
X16958368Y-15041044D02*
X16967892Y-15031520D01*
X16967892Y-15031520D02*
X16986939Y-15021996D01*
X17139320Y-15202949D02*
X17148844Y-15212473D01*
X17148844Y-15212473D02*
X17139320Y-15221996D01*
X17139320Y-15221996D02*
X17129797Y-15212473D01*
X17129797Y-15212473D02*
X17139320Y-15202949D01*
X17139320Y-15202949D02*
X17139320Y-15221996D01*
X17215511Y-15021996D02*
X17348844Y-15021996D01*
X17348844Y-15021996D02*
X17263130Y-15221996D01*
X17520273Y-15021996D02*
X17425035Y-15021996D01*
X17425035Y-15021996D02*
X17415511Y-15117235D01*
X17415511Y-15117235D02*
X17425035Y-15107711D01*
X17425035Y-15107711D02*
X17444082Y-15098187D01*
X17444082Y-15098187D02*
X17491701Y-15098187D01*
X17491701Y-15098187D02*
X17510749Y-15107711D01*
X17510749Y-15107711D02*
X17520273Y-15117235D01*
X17520273Y-15117235D02*
X17529797Y-15136282D01*
X17529797Y-15136282D02*
X17529797Y-15183901D01*
X17529797Y-15183901D02*
X17520273Y-15202949D01*
X17520273Y-15202949D02*
X17510749Y-15212473D01*
X17510749Y-15212473D02*
X17491701Y-15221996D01*
X17491701Y-15221996D02*
X17444082Y-15221996D01*
X17444082Y-15221996D02*
X17425035Y-15212473D01*
X17425035Y-15212473D02*
X17415511Y-15202949D01*
X17653606Y-15021996D02*
X17672654Y-15021996D01*
X17672654Y-15021996D02*
X17691701Y-15031520D01*
X17691701Y-15031520D02*
X17701225Y-15041044D01*
X17701225Y-15041044D02*
X17710749Y-15060092D01*
X17710749Y-15060092D02*
X17720273Y-15098187D01*
X17720273Y-15098187D02*
X17720273Y-15145806D01*
X17720273Y-15145806D02*
X17710749Y-15183901D01*
X17710749Y-15183901D02*
X17701225Y-15202949D01*
X17701225Y-15202949D02*
X17691701Y-15212473D01*
X17691701Y-15212473D02*
X17672654Y-15221996D01*
X17672654Y-15221996D02*
X17653606Y-15221996D01*
X17653606Y-15221996D02*
X17634558Y-15212473D01*
X17634558Y-15212473D02*
X17625035Y-15202949D01*
X17625035Y-15202949D02*
X17615511Y-15183901D01*
X17615511Y-15183901D02*
X17605987Y-15145806D01*
X17605987Y-15145806D02*
X17605987Y-15098187D01*
X17605987Y-15098187D02*
X17615511Y-15060092D01*
X17615511Y-15060092D02*
X17625035Y-15041044D01*
X17625035Y-15041044D02*
X17634558Y-15031520D01*
X17634558Y-15031520D02*
X17653606Y-15021996D01*
X17805987Y-15221996D02*
X17805987Y-15088663D01*
X17805987Y-15107711D02*
X17815511Y-15098187D01*
X17815511Y-15098187D02*
X17834558Y-15088663D01*
X17834558Y-15088663D02*
X17863130Y-15088663D01*
X17863130Y-15088663D02*
X17882178Y-15098187D01*
X17882178Y-15098187D02*
X17891701Y-15117235D01*
X17891701Y-15117235D02*
X17891701Y-15221996D01*
X17891701Y-15117235D02*
X17901225Y-15098187D01*
X17901225Y-15098187D02*
X17920273Y-15088663D01*
X17920273Y-15088663D02*
X17948844Y-15088663D01*
X17948844Y-15088663D02*
X17967892Y-15098187D01*
X17967892Y-15098187D02*
X17977416Y-15117235D01*
X17977416Y-15117235D02*
X17977416Y-15221996D01*
X18072654Y-15221996D02*
X18072654Y-15088663D01*
X18072654Y-15107711D02*
X18082178Y-15098187D01*
X18082178Y-15098187D02*
X18101225Y-15088663D01*
X18101225Y-15088663D02*
X18129797Y-15088663D01*
X18129797Y-15088663D02*
X18148844Y-15098187D01*
X18148844Y-15098187D02*
X18158368Y-15117235D01*
X18158368Y-15117235D02*
X18158368Y-15221996D01*
X18158368Y-15117235D02*
X18167892Y-15098187D01*
X18167892Y-15098187D02*
X18186939Y-15088663D01*
X18186939Y-15088663D02*
X18215511Y-15088663D01*
X18215511Y-15088663D02*
X18234559Y-15098187D01*
X18234559Y-15098187D02*
X18244082Y-15117235D01*
X18244082Y-15117235D02*
X18244082Y-15221996D01*
X18634559Y-15012473D02*
X18463130Y-15269615D01*
X18891701Y-15021996D02*
X18910749Y-15021996D01*
X18910749Y-15021996D02*
X18929797Y-15031520D01*
X18929797Y-15031520D02*
X18939321Y-15041044D01*
X18939321Y-15041044D02*
X18948844Y-15060092D01*
X18948844Y-15060092D02*
X18958368Y-15098187D01*
X18958368Y-15098187D02*
X18958368Y-15145806D01*
X18958368Y-15145806D02*
X18948844Y-15183901D01*
X18948844Y-15183901D02*
X18939321Y-15202949D01*
X18939321Y-15202949D02*
X18929797Y-15212473D01*
X18929797Y-15212473D02*
X18910749Y-15221996D01*
X18910749Y-15221996D02*
X18891701Y-15221996D01*
X18891701Y-15221996D02*
X18872654Y-15212473D01*
X18872654Y-15212473D02*
X18863130Y-15202949D01*
X18863130Y-15202949D02*
X18853606Y-15183901D01*
X18853606Y-15183901D02*
X18844082Y-15145806D01*
X18844082Y-15145806D02*
X18844082Y-15098187D01*
X18844082Y-15098187D02*
X18853606Y-15060092D01*
X18853606Y-15060092D02*
X18863130Y-15041044D01*
X18863130Y-15041044D02*
X18872654Y-15031520D01*
X18872654Y-15031520D02*
X18891701Y-15021996D01*
X19044082Y-15202949D02*
X19053606Y-15212473D01*
X19053606Y-15212473D02*
X19044082Y-15221996D01*
X19044082Y-15221996D02*
X19034559Y-15212473D01*
X19034559Y-15212473D02*
X19044082Y-15202949D01*
X19044082Y-15202949D02*
X19044082Y-15221996D01*
X19177416Y-15021996D02*
X19196463Y-15021996D01*
X19196463Y-15021996D02*
X19215511Y-15031520D01*
X19215511Y-15031520D02*
X19225035Y-15041044D01*
X19225035Y-15041044D02*
X19234559Y-15060092D01*
X19234559Y-15060092D02*
X19244082Y-15098187D01*
X19244082Y-15098187D02*
X19244082Y-15145806D01*
X19244082Y-15145806D02*
X19234559Y-15183901D01*
X19234559Y-15183901D02*
X19225035Y-15202949D01*
X19225035Y-15202949D02*
X19215511Y-15212473D01*
X19215511Y-15212473D02*
X19196463Y-15221996D01*
X19196463Y-15221996D02*
X19177416Y-15221996D01*
X19177416Y-15221996D02*
X19158368Y-15212473D01*
X19158368Y-15212473D02*
X19148844Y-15202949D01*
X19148844Y-15202949D02*
X19139321Y-15183901D01*
X19139321Y-15183901D02*
X19129797Y-15145806D01*
X19129797Y-15145806D02*
X19129797Y-15098187D01*
X19129797Y-15098187D02*
X19139321Y-15060092D01*
X19139321Y-15060092D02*
X19148844Y-15041044D01*
X19148844Y-15041044D02*
X19158368Y-15031520D01*
X19158368Y-15031520D02*
X19177416Y-15021996D01*
X19320273Y-15041044D02*
X19329797Y-15031520D01*
X19329797Y-15031520D02*
X19348844Y-15021996D01*
X19348844Y-15021996D02*
X19396463Y-15021996D01*
X19396463Y-15021996D02*
X19415511Y-15031520D01*
X19415511Y-15031520D02*
X19425035Y-15041044D01*
X19425035Y-15041044D02*
X19434559Y-15060092D01*
X19434559Y-15060092D02*
X19434559Y-15079139D01*
X19434559Y-15079139D02*
X19425035Y-15107711D01*
X19425035Y-15107711D02*
X19310749Y-15221996D01*
X19310749Y-15221996D02*
X19434559Y-15221996D01*
X19529797Y-15221996D02*
X19567892Y-15221996D01*
X19567892Y-15221996D02*
X19586940Y-15212473D01*
X19586940Y-15212473D02*
X19596463Y-15202949D01*
X19596463Y-15202949D02*
X19615511Y-15174377D01*
X19615511Y-15174377D02*
X19625035Y-15136282D01*
X19625035Y-15136282D02*
X19625035Y-15060092D01*
X19625035Y-15060092D02*
X19615511Y-15041044D01*
X19615511Y-15041044D02*
X19605987Y-15031520D01*
X19605987Y-15031520D02*
X19586940Y-15021996D01*
X19586940Y-15021996D02*
X19548844Y-15021996D01*
X19548844Y-15021996D02*
X19529797Y-15031520D01*
X19529797Y-15031520D02*
X19520273Y-15041044D01*
X19520273Y-15041044D02*
X19510749Y-15060092D01*
X19510749Y-15060092D02*
X19510749Y-15107711D01*
X19510749Y-15107711D02*
X19520273Y-15126758D01*
X19520273Y-15126758D02*
X19529797Y-15136282D01*
X19529797Y-15136282D02*
X19548844Y-15145806D01*
X19548844Y-15145806D02*
X19586940Y-15145806D01*
X19586940Y-15145806D02*
X19605987Y-15136282D01*
X19605987Y-15136282D02*
X19615511Y-15126758D01*
X19615511Y-15126758D02*
X19625035Y-15107711D01*
X19805987Y-15021996D02*
X19710749Y-15021996D01*
X19710749Y-15021996D02*
X19701225Y-15117235D01*
X19701225Y-15117235D02*
X19710749Y-15107711D01*
X19710749Y-15107711D02*
X19729797Y-15098187D01*
X19729797Y-15098187D02*
X19777416Y-15098187D01*
X19777416Y-15098187D02*
X19796463Y-15107711D01*
X19796463Y-15107711D02*
X19805987Y-15117235D01*
X19805987Y-15117235D02*
X19815511Y-15136282D01*
X19815511Y-15136282D02*
X19815511Y-15183901D01*
X19815511Y-15183901D02*
X19805987Y-15202949D01*
X19805987Y-15202949D02*
X19796463Y-15212473D01*
X19796463Y-15212473D02*
X19777416Y-15221996D01*
X19777416Y-15221996D02*
X19729797Y-15221996D01*
X19729797Y-15221996D02*
X19710749Y-15212473D01*
X19710749Y-15212473D02*
X19701225Y-15202949D01*
X19891702Y-15021996D02*
X19891702Y-15060092D01*
X19967892Y-15021996D02*
X19967892Y-15060092D01*
X20263130Y-15298187D02*
X20253606Y-15288663D01*
X20253606Y-15288663D02*
X20234559Y-15260092D01*
X20234559Y-15260092D02*
X20225035Y-15241044D01*
X20225035Y-15241044D02*
X20215511Y-15212473D01*
X20215511Y-15212473D02*
X20205987Y-15164854D01*
X20205987Y-15164854D02*
X20205987Y-15126758D01*
X20205987Y-15126758D02*
X20215511Y-15079139D01*
X20215511Y-15079139D02*
X20225035Y-15050568D01*
X20225035Y-15050568D02*
X20234559Y-15031520D01*
X20234559Y-15031520D02*
X20253606Y-15002949D01*
X20253606Y-15002949D02*
X20263130Y-14993425D01*
X20329797Y-15041044D02*
X20339321Y-15031520D01*
X20339321Y-15031520D02*
X20358368Y-15021996D01*
X20358368Y-15021996D02*
X20405987Y-15021996D01*
X20405987Y-15021996D02*
X20425035Y-15031520D01*
X20425035Y-15031520D02*
X20434559Y-15041044D01*
X20434559Y-15041044D02*
X20444083Y-15060092D01*
X20444083Y-15060092D02*
X20444083Y-15079139D01*
X20444083Y-15079139D02*
X20434559Y-15107711D01*
X20434559Y-15107711D02*
X20320273Y-15221996D01*
X20320273Y-15221996D02*
X20444083Y-15221996D01*
X20682178Y-15221996D02*
X20682178Y-15021996D01*
X20767892Y-15221996D02*
X20767892Y-15117235D01*
X20767892Y-15117235D02*
X20758368Y-15098187D01*
X20758368Y-15098187D02*
X20739321Y-15088663D01*
X20739321Y-15088663D02*
X20710749Y-15088663D01*
X20710749Y-15088663D02*
X20691702Y-15098187D01*
X20691702Y-15098187D02*
X20682178Y-15107711D01*
X20891702Y-15221996D02*
X20872654Y-15212473D01*
X20872654Y-15212473D02*
X20863130Y-15202949D01*
X20863130Y-15202949D02*
X20853606Y-15183901D01*
X20853606Y-15183901D02*
X20853606Y-15126758D01*
X20853606Y-15126758D02*
X20863130Y-15107711D01*
X20863130Y-15107711D02*
X20872654Y-15098187D01*
X20872654Y-15098187D02*
X20891702Y-15088663D01*
X20891702Y-15088663D02*
X20920273Y-15088663D01*
X20920273Y-15088663D02*
X20939321Y-15098187D01*
X20939321Y-15098187D02*
X20948845Y-15107711D01*
X20948845Y-15107711D02*
X20958368Y-15126758D01*
X20958368Y-15126758D02*
X20958368Y-15183901D01*
X20958368Y-15183901D02*
X20948845Y-15202949D01*
X20948845Y-15202949D02*
X20939321Y-15212473D01*
X20939321Y-15212473D02*
X20920273Y-15221996D01*
X20920273Y-15221996D02*
X20891702Y-15221996D01*
X21072654Y-15221996D02*
X21053606Y-15212473D01*
X21053606Y-15212473D02*
X21044083Y-15193425D01*
X21044083Y-15193425D02*
X21044083Y-15021996D01*
X21225035Y-15212473D02*
X21205987Y-15221996D01*
X21205987Y-15221996D02*
X21167892Y-15221996D01*
X21167892Y-15221996D02*
X21148845Y-15212473D01*
X21148845Y-15212473D02*
X21139321Y-15193425D01*
X21139321Y-15193425D02*
X21139321Y-15117235D01*
X21139321Y-15117235D02*
X21148845Y-15098187D01*
X21148845Y-15098187D02*
X21167892Y-15088663D01*
X21167892Y-15088663D02*
X21205987Y-15088663D01*
X21205987Y-15088663D02*
X21225035Y-15098187D01*
X21225035Y-15098187D02*
X21234559Y-15117235D01*
X21234559Y-15117235D02*
X21234559Y-15136282D01*
X21234559Y-15136282D02*
X21139321Y-15155330D01*
X21310749Y-15212473D02*
X21329797Y-15221996D01*
X21329797Y-15221996D02*
X21367892Y-15221996D01*
X21367892Y-15221996D02*
X21386940Y-15212473D01*
X21386940Y-15212473D02*
X21396464Y-15193425D01*
X21396464Y-15193425D02*
X21396464Y-15183901D01*
X21396464Y-15183901D02*
X21386940Y-15164854D01*
X21386940Y-15164854D02*
X21367892Y-15155330D01*
X21367892Y-15155330D02*
X21339321Y-15155330D01*
X21339321Y-15155330D02*
X21320273Y-15145806D01*
X21320273Y-15145806D02*
X21310749Y-15126758D01*
X21310749Y-15126758D02*
X21310749Y-15117235D01*
X21310749Y-15117235D02*
X21320273Y-15098187D01*
X21320273Y-15098187D02*
X21339321Y-15088663D01*
X21339321Y-15088663D02*
X21367892Y-15088663D01*
X21367892Y-15088663D02*
X21386940Y-15098187D01*
X21463130Y-15298187D02*
X21472654Y-15288663D01*
X21472654Y-15288663D02*
X21491702Y-15260092D01*
X21491702Y-15260092D02*
X21501226Y-15241044D01*
X21501226Y-15241044D02*
X21510749Y-15212473D01*
X21510749Y-15212473D02*
X21520273Y-15164854D01*
X21520273Y-15164854D02*
X21520273Y-15126758D01*
X21520273Y-15126758D02*
X21510749Y-15079139D01*
X21510749Y-15079139D02*
X21501226Y-15050568D01*
X21501226Y-15050568D02*
X21491702Y-15031520D01*
X21491702Y-15031520D02*
X21472654Y-15002949D01*
X21472654Y-15002949D02*
X21463130Y-14993425D01*
D12*
X16638067Y-15444513D02*
X16688067Y-15394513D01*
X16638067Y-15344513D01*
X16588067Y-15394513D01*
X16638067Y-15444513D01*
D11*
X17053606Y-15485996D02*
X16939320Y-15485996D01*
X16996463Y-15485996D02*
X16996463Y-15285996D01*
X16996463Y-15285996D02*
X16977416Y-15314568D01*
X16977416Y-15314568D02*
X16958368Y-15333615D01*
X16958368Y-15333615D02*
X16939320Y-15343139D01*
X17139320Y-15466949D02*
X17148844Y-15476473D01*
X17148844Y-15476473D02*
X17139320Y-15485996D01*
X17139320Y-15485996D02*
X17129797Y-15476473D01*
X17129797Y-15476473D02*
X17139320Y-15466949D01*
X17139320Y-15466949D02*
X17139320Y-15485996D01*
X17272654Y-15285996D02*
X17291701Y-15285996D01*
X17291701Y-15285996D02*
X17310749Y-15295520D01*
X17310749Y-15295520D02*
X17320273Y-15305044D01*
X17320273Y-15305044D02*
X17329797Y-15324092D01*
X17329797Y-15324092D02*
X17339320Y-15362187D01*
X17339320Y-15362187D02*
X17339320Y-15409806D01*
X17339320Y-15409806D02*
X17329797Y-15447901D01*
X17329797Y-15447901D02*
X17320273Y-15466949D01*
X17320273Y-15466949D02*
X17310749Y-15476473D01*
X17310749Y-15476473D02*
X17291701Y-15485996D01*
X17291701Y-15485996D02*
X17272654Y-15485996D01*
X17272654Y-15485996D02*
X17253606Y-15476473D01*
X17253606Y-15476473D02*
X17244082Y-15466949D01*
X17244082Y-15466949D02*
X17234558Y-15447901D01*
X17234558Y-15447901D02*
X17225035Y-15409806D01*
X17225035Y-15409806D02*
X17225035Y-15362187D01*
X17225035Y-15362187D02*
X17234558Y-15324092D01*
X17234558Y-15324092D02*
X17244082Y-15305044D01*
X17244082Y-15305044D02*
X17253606Y-15295520D01*
X17253606Y-15295520D02*
X17272654Y-15285996D01*
X17463130Y-15285996D02*
X17482178Y-15285996D01*
X17482178Y-15285996D02*
X17501225Y-15295520D01*
X17501225Y-15295520D02*
X17510749Y-15305044D01*
X17510749Y-15305044D02*
X17520273Y-15324092D01*
X17520273Y-15324092D02*
X17529797Y-15362187D01*
X17529797Y-15362187D02*
X17529797Y-15409806D01*
X17529797Y-15409806D02*
X17520273Y-15447901D01*
X17520273Y-15447901D02*
X17510749Y-15466949D01*
X17510749Y-15466949D02*
X17501225Y-15476473D01*
X17501225Y-15476473D02*
X17482178Y-15485996D01*
X17482178Y-15485996D02*
X17463130Y-15485996D01*
X17463130Y-15485996D02*
X17444082Y-15476473D01*
X17444082Y-15476473D02*
X17434558Y-15466949D01*
X17434558Y-15466949D02*
X17425035Y-15447901D01*
X17425035Y-15447901D02*
X17415511Y-15409806D01*
X17415511Y-15409806D02*
X17415511Y-15362187D01*
X17415511Y-15362187D02*
X17425035Y-15324092D01*
X17425035Y-15324092D02*
X17434558Y-15305044D01*
X17434558Y-15305044D02*
X17444082Y-15295520D01*
X17444082Y-15295520D02*
X17463130Y-15285996D01*
X17653606Y-15285996D02*
X17672654Y-15285996D01*
X17672654Y-15285996D02*
X17691701Y-15295520D01*
X17691701Y-15295520D02*
X17701225Y-15305044D01*
X17701225Y-15305044D02*
X17710749Y-15324092D01*
X17710749Y-15324092D02*
X17720273Y-15362187D01*
X17720273Y-15362187D02*
X17720273Y-15409806D01*
X17720273Y-15409806D02*
X17710749Y-15447901D01*
X17710749Y-15447901D02*
X17701225Y-15466949D01*
X17701225Y-15466949D02*
X17691701Y-15476473D01*
X17691701Y-15476473D02*
X17672654Y-15485996D01*
X17672654Y-15485996D02*
X17653606Y-15485996D01*
X17653606Y-15485996D02*
X17634558Y-15476473D01*
X17634558Y-15476473D02*
X17625035Y-15466949D01*
X17625035Y-15466949D02*
X17615511Y-15447901D01*
X17615511Y-15447901D02*
X17605987Y-15409806D01*
X17605987Y-15409806D02*
X17605987Y-15362187D01*
X17605987Y-15362187D02*
X17615511Y-15324092D01*
X17615511Y-15324092D02*
X17625035Y-15305044D01*
X17625035Y-15305044D02*
X17634558Y-15295520D01*
X17634558Y-15295520D02*
X17653606Y-15285996D01*
X17805987Y-15485996D02*
X17805987Y-15352663D01*
X17805987Y-15371711D02*
X17815511Y-15362187D01*
X17815511Y-15362187D02*
X17834558Y-15352663D01*
X17834558Y-15352663D02*
X17863130Y-15352663D01*
X17863130Y-15352663D02*
X17882178Y-15362187D01*
X17882178Y-15362187D02*
X17891701Y-15381235D01*
X17891701Y-15381235D02*
X17891701Y-15485996D01*
X17891701Y-15381235D02*
X17901225Y-15362187D01*
X17901225Y-15362187D02*
X17920273Y-15352663D01*
X17920273Y-15352663D02*
X17948844Y-15352663D01*
X17948844Y-15352663D02*
X17967892Y-15362187D01*
X17967892Y-15362187D02*
X17977416Y-15381235D01*
X17977416Y-15381235D02*
X17977416Y-15485996D01*
X18072654Y-15485996D02*
X18072654Y-15352663D01*
X18072654Y-15371711D02*
X18082178Y-15362187D01*
X18082178Y-15362187D02*
X18101225Y-15352663D01*
X18101225Y-15352663D02*
X18129797Y-15352663D01*
X18129797Y-15352663D02*
X18148844Y-15362187D01*
X18148844Y-15362187D02*
X18158368Y-15381235D01*
X18158368Y-15381235D02*
X18158368Y-15485996D01*
X18158368Y-15381235D02*
X18167892Y-15362187D01*
X18167892Y-15362187D02*
X18186939Y-15352663D01*
X18186939Y-15352663D02*
X18215511Y-15352663D01*
X18215511Y-15352663D02*
X18234559Y-15362187D01*
X18234559Y-15362187D02*
X18244082Y-15381235D01*
X18244082Y-15381235D02*
X18244082Y-15485996D01*
X18634559Y-15276473D02*
X18463130Y-15533615D01*
X18891701Y-15285996D02*
X18910749Y-15285996D01*
X18910749Y-15285996D02*
X18929797Y-15295520D01*
X18929797Y-15295520D02*
X18939321Y-15305044D01*
X18939321Y-15305044D02*
X18948844Y-15324092D01*
X18948844Y-15324092D02*
X18958368Y-15362187D01*
X18958368Y-15362187D02*
X18958368Y-15409806D01*
X18958368Y-15409806D02*
X18948844Y-15447901D01*
X18948844Y-15447901D02*
X18939321Y-15466949D01*
X18939321Y-15466949D02*
X18929797Y-15476473D01*
X18929797Y-15476473D02*
X18910749Y-15485996D01*
X18910749Y-15485996D02*
X18891701Y-15485996D01*
X18891701Y-15485996D02*
X18872654Y-15476473D01*
X18872654Y-15476473D02*
X18863130Y-15466949D01*
X18863130Y-15466949D02*
X18853606Y-15447901D01*
X18853606Y-15447901D02*
X18844082Y-15409806D01*
X18844082Y-15409806D02*
X18844082Y-15362187D01*
X18844082Y-15362187D02*
X18853606Y-15324092D01*
X18853606Y-15324092D02*
X18863130Y-15305044D01*
X18863130Y-15305044D02*
X18872654Y-15295520D01*
X18872654Y-15295520D02*
X18891701Y-15285996D01*
X19044082Y-15466949D02*
X19053606Y-15476473D01*
X19053606Y-15476473D02*
X19044082Y-15485996D01*
X19044082Y-15485996D02*
X19034559Y-15476473D01*
X19034559Y-15476473D02*
X19044082Y-15466949D01*
X19044082Y-15466949D02*
X19044082Y-15485996D01*
X19177416Y-15285996D02*
X19196463Y-15285996D01*
X19196463Y-15285996D02*
X19215511Y-15295520D01*
X19215511Y-15295520D02*
X19225035Y-15305044D01*
X19225035Y-15305044D02*
X19234559Y-15324092D01*
X19234559Y-15324092D02*
X19244082Y-15362187D01*
X19244082Y-15362187D02*
X19244082Y-15409806D01*
X19244082Y-15409806D02*
X19234559Y-15447901D01*
X19234559Y-15447901D02*
X19225035Y-15466949D01*
X19225035Y-15466949D02*
X19215511Y-15476473D01*
X19215511Y-15476473D02*
X19196463Y-15485996D01*
X19196463Y-15485996D02*
X19177416Y-15485996D01*
X19177416Y-15485996D02*
X19158368Y-15476473D01*
X19158368Y-15476473D02*
X19148844Y-15466949D01*
X19148844Y-15466949D02*
X19139321Y-15447901D01*
X19139321Y-15447901D02*
X19129797Y-15409806D01*
X19129797Y-15409806D02*
X19129797Y-15362187D01*
X19129797Y-15362187D02*
X19139321Y-15324092D01*
X19139321Y-15324092D02*
X19148844Y-15305044D01*
X19148844Y-15305044D02*
X19158368Y-15295520D01*
X19158368Y-15295520D02*
X19177416Y-15285996D01*
X19310749Y-15285996D02*
X19434559Y-15285996D01*
X19434559Y-15285996D02*
X19367892Y-15362187D01*
X19367892Y-15362187D02*
X19396463Y-15362187D01*
X19396463Y-15362187D02*
X19415511Y-15371711D01*
X19415511Y-15371711D02*
X19425035Y-15381235D01*
X19425035Y-15381235D02*
X19434559Y-15400282D01*
X19434559Y-15400282D02*
X19434559Y-15447901D01*
X19434559Y-15447901D02*
X19425035Y-15466949D01*
X19425035Y-15466949D02*
X19415511Y-15476473D01*
X19415511Y-15476473D02*
X19396463Y-15485996D01*
X19396463Y-15485996D02*
X19339321Y-15485996D01*
X19339321Y-15485996D02*
X19320273Y-15476473D01*
X19320273Y-15476473D02*
X19310749Y-15466949D01*
X19529797Y-15485996D02*
X19567892Y-15485996D01*
X19567892Y-15485996D02*
X19586940Y-15476473D01*
X19586940Y-15476473D02*
X19596463Y-15466949D01*
X19596463Y-15466949D02*
X19615511Y-15438377D01*
X19615511Y-15438377D02*
X19625035Y-15400282D01*
X19625035Y-15400282D02*
X19625035Y-15324092D01*
X19625035Y-15324092D02*
X19615511Y-15305044D01*
X19615511Y-15305044D02*
X19605987Y-15295520D01*
X19605987Y-15295520D02*
X19586940Y-15285996D01*
X19586940Y-15285996D02*
X19548844Y-15285996D01*
X19548844Y-15285996D02*
X19529797Y-15295520D01*
X19529797Y-15295520D02*
X19520273Y-15305044D01*
X19520273Y-15305044D02*
X19510749Y-15324092D01*
X19510749Y-15324092D02*
X19510749Y-15371711D01*
X19510749Y-15371711D02*
X19520273Y-15390758D01*
X19520273Y-15390758D02*
X19529797Y-15400282D01*
X19529797Y-15400282D02*
X19548844Y-15409806D01*
X19548844Y-15409806D02*
X19586940Y-15409806D01*
X19586940Y-15409806D02*
X19605987Y-15400282D01*
X19605987Y-15400282D02*
X19615511Y-15390758D01*
X19615511Y-15390758D02*
X19625035Y-15371711D01*
X19796463Y-15352663D02*
X19796463Y-15485996D01*
X19748844Y-15276473D02*
X19701225Y-15419330D01*
X19701225Y-15419330D02*
X19825035Y-15419330D01*
X19891702Y-15285996D02*
X19891702Y-15324092D01*
X19967892Y-15285996D02*
X19967892Y-15324092D01*
X20263130Y-15562187D02*
X20253606Y-15552663D01*
X20253606Y-15552663D02*
X20234559Y-15524092D01*
X20234559Y-15524092D02*
X20225035Y-15505044D01*
X20225035Y-15505044D02*
X20215511Y-15476473D01*
X20215511Y-15476473D02*
X20205987Y-15428854D01*
X20205987Y-15428854D02*
X20205987Y-15390758D01*
X20205987Y-15390758D02*
X20215511Y-15343139D01*
X20215511Y-15343139D02*
X20225035Y-15314568D01*
X20225035Y-15314568D02*
X20234559Y-15295520D01*
X20234559Y-15295520D02*
X20253606Y-15266949D01*
X20253606Y-15266949D02*
X20263130Y-15257425D01*
X20425035Y-15352663D02*
X20425035Y-15485996D01*
X20377416Y-15276473D02*
X20329797Y-15419330D01*
X20329797Y-15419330D02*
X20453606Y-15419330D01*
X20682178Y-15485996D02*
X20682178Y-15285996D01*
X20767892Y-15485996D02*
X20767892Y-15381235D01*
X20767892Y-15381235D02*
X20758368Y-15362187D01*
X20758368Y-15362187D02*
X20739321Y-15352663D01*
X20739321Y-15352663D02*
X20710749Y-15352663D01*
X20710749Y-15352663D02*
X20691702Y-15362187D01*
X20691702Y-15362187D02*
X20682178Y-15371711D01*
X20891702Y-15485996D02*
X20872654Y-15476473D01*
X20872654Y-15476473D02*
X20863130Y-15466949D01*
X20863130Y-15466949D02*
X20853606Y-15447901D01*
X20853606Y-15447901D02*
X20853606Y-15390758D01*
X20853606Y-15390758D02*
X20863130Y-15371711D01*
X20863130Y-15371711D02*
X20872654Y-15362187D01*
X20872654Y-15362187D02*
X20891702Y-15352663D01*
X20891702Y-15352663D02*
X20920273Y-15352663D01*
X20920273Y-15352663D02*
X20939321Y-15362187D01*
X20939321Y-15362187D02*
X20948845Y-15371711D01*
X20948845Y-15371711D02*
X20958368Y-15390758D01*
X20958368Y-15390758D02*
X20958368Y-15447901D01*
X20958368Y-15447901D02*
X20948845Y-15466949D01*
X20948845Y-15466949D02*
X20939321Y-15476473D01*
X20939321Y-15476473D02*
X20920273Y-15485996D01*
X20920273Y-15485996D02*
X20891702Y-15485996D01*
X21072654Y-15485996D02*
X21053606Y-15476473D01*
X21053606Y-15476473D02*
X21044083Y-15457425D01*
X21044083Y-15457425D02*
X21044083Y-15285996D01*
X21225035Y-15476473D02*
X21205987Y-15485996D01*
X21205987Y-15485996D02*
X21167892Y-15485996D01*
X21167892Y-15485996D02*
X21148845Y-15476473D01*
X21148845Y-15476473D02*
X21139321Y-15457425D01*
X21139321Y-15457425D02*
X21139321Y-15381235D01*
X21139321Y-15381235D02*
X21148845Y-15362187D01*
X21148845Y-15362187D02*
X21167892Y-15352663D01*
X21167892Y-15352663D02*
X21205987Y-15352663D01*
X21205987Y-15352663D02*
X21225035Y-15362187D01*
X21225035Y-15362187D02*
X21234559Y-15381235D01*
X21234559Y-15381235D02*
X21234559Y-15400282D01*
X21234559Y-15400282D02*
X21139321Y-15419330D01*
X21310749Y-15476473D02*
X21329797Y-15485996D01*
X21329797Y-15485996D02*
X21367892Y-15485996D01*
X21367892Y-15485996D02*
X21386940Y-15476473D01*
X21386940Y-15476473D02*
X21396464Y-15457425D01*
X21396464Y-15457425D02*
X21396464Y-15447901D01*
X21396464Y-15447901D02*
X21386940Y-15428854D01*
X21386940Y-15428854D02*
X21367892Y-15419330D01*
X21367892Y-15419330D02*
X21339321Y-15419330D01*
X21339321Y-15419330D02*
X21320273Y-15409806D01*
X21320273Y-15409806D02*
X21310749Y-15390758D01*
X21310749Y-15390758D02*
X21310749Y-15381235D01*
X21310749Y-15381235D02*
X21320273Y-15362187D01*
X21320273Y-15362187D02*
X21339321Y-15352663D01*
X21339321Y-15352663D02*
X21367892Y-15352663D01*
X21367892Y-15352663D02*
X21386940Y-15362187D01*
X21463130Y-15562187D02*
X21472654Y-15552663D01*
X21472654Y-15552663D02*
X21491702Y-15524092D01*
X21491702Y-15524092D02*
X21501226Y-15505044D01*
X21501226Y-15505044D02*
X21510749Y-15476473D01*
X21510749Y-15476473D02*
X21520273Y-15428854D01*
X21520273Y-15428854D02*
X21520273Y-15390758D01*
X21520273Y-15390758D02*
X21510749Y-15343139D01*
X21510749Y-15343139D02*
X21501226Y-15314568D01*
X21501226Y-15314568D02*
X21491702Y-15295520D01*
X21491702Y-15295520D02*
X21472654Y-15266949D01*
X21472654Y-15266949D02*
X21463130Y-15257425D01*
M02*
