%TF.GenerationSoftware,KiCad,Pcbnew,8.0.2*%
%TF.CreationDate,2024-08-19T18:08:15-05:00*%
%TF.ProjectId,tank,74616e6b-2e6b-4696-9361-645f70636258,rev?*%
%TF.SameCoordinates,Original*%
%TF.FileFunction,Copper,L2,Inr*%
%TF.FilePolarity,Positive*%
%FSLAX46Y46*%
G04 Gerber Fmt 4.6, Leading zero omitted, Abs format (unit mm)*
G04 Created by KiCad (PCBNEW 8.0.2) date 2024-08-19 18:08:15*
%MOMM*%
%LPD*%
G01*
G04 APERTURE LIST*
G04 Aperture macros list*
%AMRoundRect*
0 Rectangle with rounded corners*
0 $1 Rounding radius*
0 $2 $3 $4 $5 $6 $7 $8 $9 X,Y pos of 4 corners*
0 Add a 4 corners polygon primitive as box body*
4,1,4,$2,$3,$4,$5,$6,$7,$8,$9,$2,$3,0*
0 Add four circle primitives for the rounded corners*
1,1,$1+$1,$2,$3*
1,1,$1+$1,$4,$5*
1,1,$1+$1,$6,$7*
1,1,$1+$1,$8,$9*
0 Add four rect primitives between the rounded corners*
20,1,$1+$1,$2,$3,$4,$5,0*
20,1,$1+$1,$4,$5,$6,$7,0*
20,1,$1+$1,$6,$7,$8,$9,0*
20,1,$1+$1,$8,$9,$2,$3,0*%
G04 Aperture macros list end*
%TA.AperFunction,ComponentPad*%
%ADD10R,1.700000X1.700000*%
%TD*%
%TA.AperFunction,ComponentPad*%
%ADD11O,1.700000X1.700000*%
%TD*%
%TA.AperFunction,ComponentPad*%
%ADD12C,0.508000*%
%TD*%
%TA.AperFunction,ComponentPad*%
%ADD13O,1.000000X1.700000*%
%TD*%
%TA.AperFunction,ComponentPad*%
%ADD14RoundRect,0.250000X0.625000X-0.350000X0.625000X0.350000X-0.625000X0.350000X-0.625000X-0.350000X0*%
%TD*%
%TA.AperFunction,ComponentPad*%
%ADD15O,1.750000X1.200000*%
%TD*%
%TA.AperFunction,ViaPad*%
%ADD16C,0.508000*%
%TD*%
%TA.AperFunction,Conductor*%
%ADD17C,0.203200*%
%TD*%
G04 APERTURE END LIST*
D10*
%TO.N,/U0RXD*%
%TO.C,J11*%
X181584600Y-100838000D03*
D11*
%TO.N,/U0TXD*%
X179044600Y-100838000D03*
%TO.N,GND*%
X176504600Y-100838000D03*
%TO.N,+3V3*%
X173964600Y-100838000D03*
%TD*%
D12*
%TO.N,GND*%
%TO.C,U5*%
X177445300Y-111970000D03*
X179420300Y-111970000D03*
X176457800Y-110982500D03*
X178432800Y-110982500D03*
X180407800Y-110982500D03*
X177445300Y-109995000D03*
X179420300Y-109995000D03*
X176457800Y-109007500D03*
X178432800Y-109007500D03*
X180407800Y-109007500D03*
X177445300Y-108020000D03*
X179420300Y-108020000D03*
%TD*%
D13*
%TO.N,Net-(P1-SHIELD)*%
%TO.C,P1*%
X180642000Y-124750600D03*
%TO.N,N/C*%
X189182000Y-124750600D03*
%TD*%
D14*
%TO.N,GND*%
%TO.C,J12*%
X192617000Y-103819200D03*
D15*
%TO.N,LIPO+*%
X192617000Y-101819200D03*
%TD*%
D16*
%TO.N,/CHRGR+*%
X195580000Y-113614200D03*
X188696600Y-112699800D03*
%TO.N,Net-(U5-IO3)*%
X177368200Y-114198400D03*
%TO.N,+3V3*%
X179171600Y-96824800D03*
%TO.N,GND*%
X194691000Y-107213400D03*
X195732400Y-126542800D03*
X190652400Y-130454400D03*
X181432200Y-126161800D03*
X187655200Y-126060200D03*
X185623200Y-116992400D03*
X187706000Y-112369600D03*
X189153800Y-108051600D03*
X172466000Y-117119400D03*
X172466000Y-124104400D03*
X177266600Y-128625600D03*
X168656000Y-134213600D03*
X175564800Y-133604000D03*
X182803800Y-134010400D03*
X186182000Y-130225800D03*
X200710800Y-134137400D03*
X199669400Y-131419600D03*
X193522600Y-133324600D03*
X190906400Y-126771400D03*
X193141600Y-121259600D03*
X193751200Y-117627400D03*
X200075800Y-97078800D03*
X198755000Y-104419400D03*
X200787000Y-106349800D03*
X190525400Y-106781600D03*
X184531000Y-103606600D03*
X187172600Y-99339400D03*
X184175400Y-93167200D03*
X172059600Y-89433400D03*
X177800000Y-96393000D03*
X176657000Y-88823800D03*
X177876200Y-87274400D03*
X193802000Y-90220800D03*
X201295000Y-89890600D03*
%TO.N,+3V3*%
X197840600Y-98120200D03*
X186944000Y-112369600D03*
X178130200Y-121894600D03*
%TO.N,RAW*%
X196011800Y-110058200D03*
X194030600Y-106146600D03*
%TO.N,Net-(U5-IO26)*%
X181635400Y-105130600D03*
%TO.N,Net-(U5-IO27)*%
X180797200Y-105156000D03*
%TO.N,Net-(U5-IO26)*%
X193929000Y-135610600D03*
%TO.N,/ADC_BATT*%
X190601600Y-98069400D03*
%TO.N,Net-(U5-IO25)*%
X184607200Y-102565200D03*
%TO.N,MOTOR_1_IN1*%
X184429400Y-109982000D03*
%TO.N,MOTOR_1_IN2*%
X184429400Y-109194600D03*
%TO.N,MOTOR_0_IN1*%
X184632600Y-115036600D03*
%TO.N,MOTOR_0_IN2*%
X184658000Y-114173000D03*
%TO.N,/SDA*%
X181635400Y-114833400D03*
%TO.N,/SCL*%
X180848000Y-114833400D03*
%TO.N,Net-(U5-IO11)*%
X182448200Y-107594400D03*
%TO.N,/HAL_OUT*%
X182295800Y-108356400D03*
%TO.N,RAW*%
X184175400Y-131064000D03*
X196316600Y-127533400D03*
%TO.N,Net-(U5-IO22)*%
X184531000Y-105181400D03*
%TO.N,/ADC_BATT*%
X177622200Y-117017800D03*
%TO.N,+3V3*%
X176377600Y-119786400D03*
%TO.N,MOTOR_1_IN1*%
X195097400Y-131648200D03*
%TO.N,MOTOR_1_IN2*%
X194183000Y-130479800D03*
%TO.N,MOTOR_0_IN2*%
X174548800Y-132867400D03*
%TO.N,MOTOR_0_IN1*%
X174599600Y-132130800D03*
%TO.N,Net-(U5-IO27)*%
X176149000Y-135636000D03*
%TO.N,MOTOR_1_IN1*%
X194818000Y-91821000D03*
%TO.N,MOTOR_1_IN2*%
X194310000Y-91313000D03*
%TO.N,Net-(U5-IO25)*%
X194513200Y-88087200D03*
%TO.N,MOTOR_0_IN2*%
X176174400Y-93522800D03*
%TO.N,MOTOR_0_IN1*%
X174980600Y-92430600D03*
%TO.N,Net-(U5-IO22)*%
X175285400Y-88036400D03*
%TD*%
D17*
%TO.N,Net-(U5-IO25)*%
X194487800Y-88112600D02*
X190576200Y-88112600D01*
X184607200Y-94081600D02*
X184607200Y-102565200D01*
X194513200Y-88087200D02*
X194487800Y-88112600D01*
X190576200Y-88112600D02*
X184607200Y-94081600D01*
%TO.N,/ADC_BATT*%
X177622200Y-115023900D02*
X177622200Y-117017800D01*
X183007000Y-111785400D02*
X181279800Y-113512600D01*
X187096400Y-111785400D02*
X183007000Y-111785400D01*
X189839600Y-109042200D02*
X187096400Y-111785400D01*
X179133500Y-113512600D02*
X177622200Y-115023900D01*
X189839600Y-98831400D02*
X189839600Y-109042200D01*
X190601600Y-98069400D02*
X189839600Y-98831400D01*
X181279800Y-113512600D02*
X179133500Y-113512600D01*
%TO.N,Net-(U5-IO22)*%
X183921400Y-104571800D02*
X184531000Y-105181400D01*
X183921400Y-94132400D02*
X183921400Y-104571800D01*
X177825400Y-88036400D02*
X183921400Y-94132400D01*
X175285400Y-88036400D02*
X177825400Y-88036400D01*
%TO.N,MOTOR_1_IN1*%
X185572400Y-109982000D02*
X184429400Y-109982000D01*
X188366400Y-107188000D02*
X185572400Y-109982000D01*
X188366400Y-94259400D02*
X188366400Y-107188000D01*
X190804800Y-91821000D02*
X188366400Y-94259400D01*
X194818000Y-91821000D02*
X190804800Y-91821000D01*
%TO.N,MOTOR_1_IN2*%
X187807600Y-94005400D02*
X190500000Y-91313000D01*
X190500000Y-91313000D02*
X194310000Y-91313000D01*
X185597800Y-109194600D02*
X187807600Y-106984800D01*
X184429400Y-109194600D02*
X185597800Y-109194600D01*
X187807600Y-106984800D02*
X187807600Y-94005400D01*
%TO.N,MOTOR_0_IN1*%
X185648600Y-115036600D02*
X184632600Y-115036600D01*
X185877200Y-114808000D02*
X185648600Y-115036600D01*
X185496200Y-113360200D02*
X185877200Y-113741200D01*
X184099200Y-113360200D02*
X185496200Y-113360200D01*
X182143400Y-115316000D02*
X184099200Y-113360200D01*
X182143400Y-129362200D02*
X182143400Y-115316000D01*
X185877200Y-113741200D02*
X185877200Y-114808000D01*
X179374800Y-132130800D02*
X182143400Y-129362200D01*
X174599600Y-132130800D02*
X179374800Y-132130800D01*
%TO.N,MOTOR_0_IN2*%
X182778400Y-129590800D02*
X179501800Y-132867400D01*
X179501800Y-132867400D02*
X174548800Y-132867400D01*
X184023000Y-114173000D02*
X182778400Y-115417600D01*
X184658000Y-114173000D02*
X184023000Y-114173000D01*
X182778400Y-115417600D02*
X182778400Y-129590800D01*
%TD*%
%TA.AperFunction,Conductor*%
%TO.N,+3V3*%
G36*
X177535224Y-86802213D02*
G01*
X177571769Y-86852513D01*
X177571769Y-86914687D01*
X177552121Y-86949479D01*
X177487198Y-87024402D01*
X177432524Y-87144124D01*
X177427943Y-87175988D01*
X177413793Y-87274400D01*
X177432524Y-87404675D01*
X177487198Y-87524396D01*
X177522054Y-87564622D01*
X177546256Y-87621891D01*
X177532174Y-87682450D01*
X177485185Y-87723165D01*
X177446025Y-87731100D01*
X175672423Y-87731100D01*
X175613292Y-87711887D01*
X175596396Y-87696381D01*
X175588212Y-87686936D01*
X175477490Y-87615779D01*
X175351207Y-87578700D01*
X175219593Y-87578700D01*
X175093310Y-87615779D01*
X175093309Y-87615779D01*
X174982586Y-87686937D01*
X174896398Y-87786403D01*
X174841724Y-87906124D01*
X174822993Y-88036400D01*
X174841724Y-88166675D01*
X174896398Y-88286396D01*
X174946584Y-88344314D01*
X174982588Y-88385864D01*
X175093309Y-88457020D01*
X175219593Y-88494100D01*
X175351207Y-88494100D01*
X175477491Y-88457020D01*
X175588212Y-88385864D01*
X175596396Y-88376418D01*
X175649639Y-88344314D01*
X175672423Y-88341700D01*
X176248835Y-88341700D01*
X176307966Y-88360913D01*
X176344511Y-88411213D01*
X176344511Y-88473387D01*
X176324863Y-88508179D01*
X176267998Y-88573803D01*
X176234831Y-88646431D01*
X176213324Y-88693525D01*
X176194593Y-88823800D01*
X176213324Y-88954075D01*
X176267998Y-89073796D01*
X176354188Y-89173264D01*
X176464909Y-89244420D01*
X176591193Y-89281500D01*
X176722807Y-89281500D01*
X176849091Y-89244420D01*
X176959812Y-89173264D01*
X177046002Y-89073796D01*
X177100676Y-88954075D01*
X177119407Y-88823800D01*
X177100676Y-88693525D01*
X177046002Y-88573804D01*
X176989136Y-88508178D01*
X176964934Y-88450909D01*
X176979016Y-88390351D01*
X177026004Y-88349635D01*
X177065165Y-88341700D01*
X177657271Y-88341700D01*
X177716402Y-88360913D01*
X177728406Y-88371165D01*
X183586635Y-94229394D01*
X183614861Y-94284792D01*
X183616100Y-94300529D01*
X183616100Y-104611997D01*
X183631481Y-104669396D01*
X183632420Y-104672900D01*
X183636906Y-104689641D01*
X183677100Y-104759259D01*
X183968964Y-105051124D01*
X184039770Y-105121930D01*
X184067996Y-105177328D01*
X184068211Y-105178747D01*
X184087324Y-105311675D01*
X184141998Y-105431396D01*
X184206178Y-105505464D01*
X184228188Y-105530864D01*
X184338909Y-105602020D01*
X184465193Y-105639100D01*
X184596807Y-105639100D01*
X184723091Y-105602020D01*
X184833812Y-105530864D01*
X184920002Y-105431396D01*
X184974676Y-105311675D01*
X184993407Y-105181400D01*
X184974676Y-105051125D01*
X184920002Y-104931404D01*
X184833812Y-104831936D01*
X184735667Y-104768862D01*
X184723090Y-104760779D01*
X184596807Y-104723700D01*
X184546730Y-104723700D01*
X184487599Y-104704487D01*
X184475595Y-104694235D01*
X184256165Y-104474805D01*
X184227939Y-104419407D01*
X184226700Y-104403670D01*
X184226700Y-104128658D01*
X184245913Y-104069527D01*
X184296213Y-104032982D01*
X184355641Y-104032133D01*
X184465193Y-104064300D01*
X184596807Y-104064300D01*
X184723091Y-104027220D01*
X184833812Y-103956064D01*
X184920002Y-103856596D01*
X184974676Y-103736875D01*
X184993407Y-103606600D01*
X184974676Y-103476325D01*
X184920002Y-103356604D01*
X184833812Y-103257136D01*
X184723091Y-103185980D01*
X184718521Y-103183043D01*
X184679164Y-103134911D01*
X184675615Y-103072838D01*
X184709229Y-103020534D01*
X184744568Y-103001888D01*
X184747988Y-103000883D01*
X184799291Y-102985820D01*
X184910012Y-102914664D01*
X184996202Y-102815196D01*
X185050876Y-102695475D01*
X185069607Y-102565200D01*
X185050876Y-102434925D01*
X184996202Y-102315204D01*
X184937070Y-102246962D01*
X184912869Y-102189694D01*
X184912500Y-102181085D01*
X184912500Y-94249729D01*
X184931713Y-94190598D01*
X184941965Y-94178594D01*
X188899760Y-90220800D01*
X193339593Y-90220800D01*
X193358324Y-90351075D01*
X193412998Y-90470796D01*
X193483708Y-90552400D01*
X193499188Y-90570264D01*
X193609909Y-90641420D01*
X193736193Y-90678500D01*
X193867807Y-90678500D01*
X193994091Y-90641420D01*
X194104812Y-90570264D01*
X194191002Y-90470796D01*
X194245676Y-90351075D01*
X194264407Y-90220800D01*
X194245676Y-90090525D01*
X194191002Y-89970804D01*
X194121937Y-89891099D01*
X194121505Y-89890600D01*
X200832593Y-89890600D01*
X200851324Y-90020875D01*
X200905998Y-90140596D01*
X200975495Y-90220800D01*
X200992188Y-90240064D01*
X201102909Y-90311220D01*
X201229193Y-90348300D01*
X201360807Y-90348300D01*
X201487091Y-90311220D01*
X201597812Y-90240064D01*
X201684002Y-90140596D01*
X201738676Y-90020875D01*
X201757407Y-89890600D01*
X201738676Y-89760325D01*
X201684002Y-89640604D01*
X201597812Y-89541136D01*
X201535174Y-89500881D01*
X201487090Y-89469979D01*
X201360807Y-89432900D01*
X201229193Y-89432900D01*
X201102910Y-89469979D01*
X201102909Y-89469979D01*
X200992186Y-89541137D01*
X200905998Y-89640603D01*
X200851324Y-89760324D01*
X200832593Y-89890600D01*
X194121505Y-89890600D01*
X194104813Y-89871337D01*
X194104812Y-89871336D01*
X194049451Y-89835758D01*
X193994090Y-89800179D01*
X193867807Y-89763100D01*
X193736193Y-89763100D01*
X193609910Y-89800179D01*
X193609909Y-89800179D01*
X193499186Y-89871337D01*
X193412998Y-89970803D01*
X193358324Y-90090524D01*
X193339593Y-90220800D01*
X188899760Y-90220800D01*
X190673195Y-88447365D01*
X190728593Y-88419139D01*
X190744330Y-88417900D01*
X194151652Y-88417900D01*
X194206041Y-88433870D01*
X194210387Y-88436663D01*
X194210388Y-88436664D01*
X194321109Y-88507820D01*
X194447393Y-88544900D01*
X194579007Y-88544900D01*
X194705291Y-88507820D01*
X194816012Y-88436664D01*
X194902202Y-88337196D01*
X194956876Y-88217475D01*
X194975607Y-88087200D01*
X194956876Y-87956925D01*
X194902202Y-87837204D01*
X194846204Y-87772579D01*
X194816013Y-87737737D01*
X194816012Y-87737736D01*
X194736966Y-87686936D01*
X194705290Y-87666579D01*
X194579007Y-87629500D01*
X194447393Y-87629500D01*
X194321110Y-87666579D01*
X194321109Y-87666579D01*
X194210386Y-87737737D01*
X194180196Y-87772579D01*
X194126953Y-87804686D01*
X194104168Y-87807300D01*
X190536002Y-87807300D01*
X190458365Y-87828103D01*
X190458356Y-87828107D01*
X190388743Y-87868296D01*
X190388742Y-87868297D01*
X184727151Y-93529890D01*
X184671753Y-93558116D01*
X184610345Y-93548390D01*
X184566381Y-93504426D01*
X184556655Y-93443018D01*
X184564505Y-93416970D01*
X184619076Y-93297475D01*
X184637807Y-93167200D01*
X184619076Y-93036925D01*
X184564402Y-92917204D01*
X184478212Y-92817736D01*
X184419590Y-92780062D01*
X184367490Y-92746579D01*
X184241207Y-92709500D01*
X184109593Y-92709500D01*
X183983310Y-92746579D01*
X183983309Y-92746579D01*
X183872586Y-92817737D01*
X183786398Y-92917203D01*
X183731724Y-93036924D01*
X183712993Y-93167200D01*
X183712993Y-93167201D01*
X183724557Y-93247636D01*
X183713955Y-93308900D01*
X183669367Y-93352231D01*
X183607826Y-93361078D01*
X183553847Y-93333087D01*
X179485073Y-89264314D01*
X183383700Y-89264314D01*
X183383700Y-89500885D01*
X183420706Y-89734525D01*
X183420709Y-89734539D01*
X183493807Y-89959513D01*
X183601200Y-90170282D01*
X183601205Y-90170291D01*
X183637902Y-90220800D01*
X183740250Y-90361671D01*
X183740252Y-90361673D01*
X183907527Y-90528948D01*
X184098909Y-90667995D01*
X184098917Y-90667999D01*
X184309686Y-90775392D01*
X184534660Y-90848490D01*
X184534662Y-90848490D01*
X184534670Y-90848493D01*
X184768314Y-90885499D01*
X184768316Y-90885500D01*
X184768319Y-90885500D01*
X185004884Y-90885500D01*
X185004884Y-90885499D01*
X185238530Y-90848493D01*
X185463513Y-90775392D01*
X185674291Y-90667995D01*
X185865673Y-90528948D01*
X186032948Y-90361673D01*
X186171995Y-90170291D01*
X186279392Y-89959513D01*
X186352493Y-89734530D01*
X186389500Y-89500881D01*
X186389500Y-89264319D01*
X186389500Y-89264315D01*
X186389499Y-89264314D01*
X186375078Y-89173264D01*
X186352493Y-89030670D01*
X186346680Y-89012779D01*
X186279392Y-88805686D01*
X186171999Y-88594917D01*
X186171995Y-88594909D01*
X186057022Y-88436662D01*
X186032949Y-88403528D01*
X185865671Y-88236250D01*
X185769908Y-88166675D01*
X185674291Y-88097205D01*
X185674285Y-88097202D01*
X185674282Y-88097200D01*
X185463513Y-87989807D01*
X185238539Y-87916709D01*
X185238525Y-87916706D01*
X185004885Y-87879700D01*
X185004881Y-87879700D01*
X184768319Y-87879700D01*
X184768315Y-87879700D01*
X184534674Y-87916706D01*
X184534660Y-87916709D01*
X184309686Y-87989807D01*
X184098917Y-88097200D01*
X184098906Y-88097207D01*
X183907528Y-88236250D01*
X183740250Y-88403528D01*
X183601207Y-88594906D01*
X183601200Y-88594917D01*
X183493807Y-88805686D01*
X183420709Y-89030660D01*
X183420706Y-89030674D01*
X183383700Y-89264314D01*
X179485073Y-89264314D01*
X178063718Y-87842959D01*
X178035493Y-87787562D01*
X178045219Y-87726154D01*
X178080464Y-87687196D01*
X178179012Y-87623864D01*
X178265202Y-87524396D01*
X178319876Y-87404675D01*
X178338607Y-87274400D01*
X178319876Y-87144125D01*
X178265202Y-87024404D01*
X178265201Y-87024403D01*
X178265201Y-87024402D01*
X178200279Y-86949479D01*
X178176076Y-86892209D01*
X178190158Y-86831650D01*
X178237146Y-86790935D01*
X178276307Y-86783000D01*
X200879903Y-86783000D01*
X200881696Y-86783016D01*
X200885142Y-86783077D01*
X201017378Y-86785435D01*
X201029879Y-86786442D01*
X201299352Y-86825186D01*
X201313378Y-86828237D01*
X201573717Y-86904679D01*
X201587162Y-86909694D01*
X201833982Y-87022413D01*
X201846569Y-87029286D01*
X202025260Y-87144124D01*
X202074832Y-87175982D01*
X202086319Y-87184581D01*
X202291389Y-87362274D01*
X202301525Y-87372410D01*
X202433221Y-87524396D01*
X202479216Y-87577477D01*
X202487817Y-87588967D01*
X202634510Y-87817225D01*
X202641389Y-87829823D01*
X202754104Y-88076635D01*
X202759120Y-88090084D01*
X202835562Y-88350422D01*
X202838613Y-88364447D01*
X202877356Y-88633908D01*
X202878364Y-88646431D01*
X202880784Y-88782102D01*
X202880800Y-88783896D01*
X202880800Y-134984103D01*
X202880784Y-134985897D01*
X202878364Y-135121568D01*
X202877356Y-135134091D01*
X202838613Y-135403552D01*
X202835562Y-135417577D01*
X202759120Y-135677915D01*
X202754104Y-135691364D01*
X202641389Y-135938176D01*
X202634510Y-135950774D01*
X202487817Y-136179032D01*
X202479216Y-136190522D01*
X202301532Y-136395582D01*
X202291382Y-136405732D01*
X202086322Y-136583416D01*
X202074832Y-136592017D01*
X201846574Y-136738710D01*
X201833976Y-136745589D01*
X201587164Y-136858304D01*
X201573715Y-136863320D01*
X201313377Y-136939762D01*
X201299352Y-136942813D01*
X201029891Y-136981556D01*
X201017368Y-136982564D01*
X200881697Y-136984984D01*
X200879903Y-136985000D01*
X168881695Y-136985000D01*
X168879901Y-136984984D01*
X168744230Y-136982564D01*
X168731707Y-136981556D01*
X168462246Y-136942813D01*
X168448221Y-136939762D01*
X168187883Y-136863320D01*
X168174434Y-136858304D01*
X167927622Y-136745589D01*
X167915024Y-136738710D01*
X167686767Y-136592017D01*
X167675277Y-136583416D01*
X167470210Y-136405725D01*
X167460074Y-136395589D01*
X167282381Y-136190519D01*
X167273782Y-136179032D01*
X167218942Y-136093700D01*
X167127086Y-135950770D01*
X167120213Y-135938183D01*
X167007494Y-135691363D01*
X167002479Y-135677916D01*
X166990171Y-135636000D01*
X175686593Y-135636000D01*
X175705324Y-135766275D01*
X175759998Y-135885996D01*
X175824178Y-135960064D01*
X175846188Y-135985464D01*
X175956909Y-136056620D01*
X176083193Y-136093700D01*
X176214807Y-136093700D01*
X176341091Y-136056620D01*
X176451812Y-135985464D01*
X176538002Y-135885996D01*
X176592676Y-135766275D01*
X176611407Y-135636000D01*
X176607755Y-135610600D01*
X193466593Y-135610600D01*
X193485324Y-135740875D01*
X193539998Y-135860596D01*
X193618134Y-135950770D01*
X193626188Y-135960064D01*
X193736909Y-136031220D01*
X193863193Y-136068300D01*
X193994807Y-136068300D01*
X194121091Y-136031220D01*
X194231812Y-135960064D01*
X194318002Y-135860596D01*
X194372676Y-135740875D01*
X194391407Y-135610600D01*
X194372676Y-135480325D01*
X194318002Y-135360604D01*
X194253821Y-135286536D01*
X194231813Y-135261137D01*
X194231812Y-135261136D01*
X194160613Y-135215379D01*
X194121090Y-135189979D01*
X193994807Y-135152900D01*
X193863193Y-135152900D01*
X193736910Y-135189979D01*
X193736909Y-135189979D01*
X193626186Y-135261137D01*
X193539998Y-135360603D01*
X193485324Y-135480324D01*
X193466593Y-135610600D01*
X176607755Y-135610600D01*
X176592676Y-135505725D01*
X176538002Y-135386004D01*
X176451812Y-135286536D01*
X176396451Y-135250958D01*
X176341090Y-135215379D01*
X176214807Y-135178300D01*
X176083193Y-135178300D01*
X175956910Y-135215379D01*
X175956909Y-135215379D01*
X175846186Y-135286537D01*
X175759998Y-135386003D01*
X175705324Y-135505724D01*
X175686593Y-135636000D01*
X166990171Y-135636000D01*
X166926037Y-135417577D01*
X166922986Y-135403553D01*
X166916811Y-135360603D01*
X166884242Y-135134080D01*
X166883235Y-135121579D01*
X166880816Y-134985897D01*
X166880800Y-134984105D01*
X166880800Y-134213600D01*
X168193593Y-134213600D01*
X168212324Y-134343875D01*
X168266998Y-134463596D01*
X168352190Y-134561913D01*
X168353188Y-134563064D01*
X168463909Y-134634220D01*
X168590193Y-134671300D01*
X168721807Y-134671300D01*
X168848091Y-134634220D01*
X168958812Y-134563064D01*
X169045002Y-134463596D01*
X169099676Y-134343875D01*
X169118407Y-134213600D01*
X169099676Y-134083325D01*
X169045002Y-133963604D01*
X168958812Y-133864136D01*
X168896172Y-133823880D01*
X168848090Y-133792979D01*
X168721807Y-133755900D01*
X168590193Y-133755900D01*
X168463910Y-133792979D01*
X168463909Y-133792979D01*
X168353186Y-133864137D01*
X168266998Y-133963603D01*
X168212324Y-134083324D01*
X168193593Y-134213600D01*
X166880800Y-134213600D01*
X166880800Y-132867400D01*
X174086393Y-132867400D01*
X174105124Y-132997675D01*
X174159798Y-133117396D01*
X174209984Y-133175314D01*
X174245988Y-133216864D01*
X174356709Y-133288020D01*
X174482993Y-133325100D01*
X174614607Y-133325100D01*
X174740891Y-133288020D01*
X174851612Y-133216864D01*
X174859796Y-133207418D01*
X174913039Y-133175314D01*
X174935823Y-133172700D01*
X175112616Y-133172700D01*
X175171747Y-133191913D01*
X175208292Y-133242213D01*
X175208292Y-133304387D01*
X175188644Y-133339179D01*
X175175798Y-133354002D01*
X175151099Y-133408087D01*
X175121124Y-133473725D01*
X175102393Y-133604000D01*
X175121124Y-133734275D01*
X175175798Y-133853996D01*
X175261988Y-133953464D01*
X175372709Y-134024620D01*
X175498993Y-134061700D01*
X175630607Y-134061700D01*
X175756891Y-134024620D01*
X175779018Y-134010400D01*
X182341393Y-134010400D01*
X182360124Y-134140675D01*
X182414798Y-134260396D01*
X182500988Y-134359864D01*
X182611709Y-134431020D01*
X182737993Y-134468100D01*
X182869607Y-134468100D01*
X182995891Y-134431020D01*
X183106612Y-134359864D01*
X183192802Y-134260396D01*
X183214363Y-134213182D01*
X183256403Y-134167376D01*
X183317339Y-134155029D01*
X183373895Y-134180856D01*
X183404468Y-134234994D01*
X183405233Y-134239235D01*
X183420706Y-134336925D01*
X183420709Y-134336939D01*
X183493807Y-134561913D01*
X183601200Y-134772682D01*
X183601205Y-134772691D01*
X183670728Y-134868382D01*
X183740250Y-134964071D01*
X183740252Y-134964073D01*
X183907527Y-135131348D01*
X184098909Y-135270395D01*
X184098917Y-135270399D01*
X184309686Y-135377792D01*
X184534660Y-135450890D01*
X184534662Y-135450890D01*
X184534670Y-135450893D01*
X184768314Y-135487899D01*
X184768316Y-135487900D01*
X184768319Y-135487900D01*
X185004884Y-135487900D01*
X185004884Y-135487899D01*
X185238530Y-135450893D01*
X185463513Y-135377792D01*
X185674291Y-135270395D01*
X185865673Y-135131348D01*
X186032948Y-134964073D01*
X186171995Y-134772691D01*
X186279392Y-134561913D01*
X186352493Y-134336930D01*
X186384096Y-134137400D01*
X200248393Y-134137400D01*
X200267124Y-134267675D01*
X200321798Y-134387396D01*
X200407988Y-134486864D01*
X200518709Y-134558020D01*
X200644993Y-134595100D01*
X200776607Y-134595100D01*
X200902891Y-134558020D01*
X201013612Y-134486864D01*
X201099802Y-134387396D01*
X201154476Y-134267675D01*
X201173207Y-134137400D01*
X201154476Y-134007125D01*
X201099802Y-133887404D01*
X201013612Y-133787936D01*
X200930114Y-133734275D01*
X200902890Y-133716779D01*
X200776607Y-133679700D01*
X200644993Y-133679700D01*
X200518710Y-133716779D01*
X200518709Y-133716779D01*
X200407986Y-133787937D01*
X200321798Y-133887403D01*
X200267124Y-134007124D01*
X200259277Y-134061699D01*
X200248393Y-134137400D01*
X186384096Y-134137400D01*
X186389500Y-134103281D01*
X186389500Y-133866719D01*
X186389500Y-133866715D01*
X186389499Y-133866714D01*
X186378681Y-133798414D01*
X186352493Y-133633070D01*
X186343048Y-133604000D01*
X186279392Y-133408086D01*
X186236853Y-133324600D01*
X193060193Y-133324600D01*
X193078924Y-133454875D01*
X193133598Y-133574596D01*
X193184257Y-133633060D01*
X193219788Y-133674064D01*
X193330509Y-133745220D01*
X193456793Y-133782300D01*
X193588407Y-133782300D01*
X193714691Y-133745220D01*
X193825412Y-133674064D01*
X193911602Y-133574596D01*
X193966276Y-133454875D01*
X193985007Y-133324600D01*
X193966276Y-133194325D01*
X193911602Y-133074604D01*
X193825412Y-132975136D01*
X193770051Y-132939558D01*
X193714690Y-132903979D01*
X193588407Y-132866900D01*
X193456793Y-132866900D01*
X193330510Y-132903979D01*
X193330509Y-132903979D01*
X193219786Y-132975137D01*
X193133598Y-133074603D01*
X193078924Y-133194324D01*
X193060193Y-133324600D01*
X186236853Y-133324600D01*
X186171999Y-133197317D01*
X186171995Y-133197309D01*
X186032948Y-133005927D01*
X185865673Y-132838652D01*
X185865671Y-132838650D01*
X185725933Y-132737125D01*
X185674291Y-132699605D01*
X185674285Y-132699602D01*
X185674282Y-132699600D01*
X185463513Y-132592207D01*
X185238539Y-132519109D01*
X185238525Y-132519106D01*
X185004885Y-132482100D01*
X185004881Y-132482100D01*
X184768319Y-132482100D01*
X184768315Y-132482100D01*
X184534674Y-132519106D01*
X184534660Y-132519109D01*
X184309686Y-132592207D01*
X184098917Y-132699600D01*
X184098906Y-132699607D01*
X183907528Y-132838650D01*
X183740250Y-133005928D01*
X183601207Y-133197306D01*
X183601200Y-133197317D01*
X183493807Y-133408086D01*
X183420709Y-133633060D01*
X183420706Y-133633074D01*
X183399258Y-133768482D01*
X183371031Y-133823880D01*
X183315633Y-133852106D01*
X183254225Y-133842379D01*
X183210261Y-133798414D01*
X183208413Y-133794588D01*
X183192802Y-133760404D01*
X183106612Y-133660936D01*
X183018018Y-133604000D01*
X182995890Y-133589779D01*
X182869607Y-133552700D01*
X182737993Y-133552700D01*
X182611710Y-133589779D01*
X182611709Y-133589779D01*
X182500986Y-133660937D01*
X182414798Y-133760403D01*
X182360124Y-133880124D01*
X182359077Y-133887404D01*
X182341393Y-134010400D01*
X175779018Y-134010400D01*
X175867612Y-133953464D01*
X175953802Y-133853996D01*
X176008476Y-133734275D01*
X176027207Y-133604000D01*
X176008476Y-133473725D01*
X175953802Y-133354004D01*
X175953801Y-133354003D01*
X175953801Y-133354002D01*
X175940956Y-133339179D01*
X175916753Y-133281909D01*
X175930835Y-133221350D01*
X175977823Y-133180635D01*
X176016984Y-133172700D01*
X179541991Y-133172700D01*
X179541993Y-133172700D01*
X179619641Y-133151894D01*
X179629330Y-133146300D01*
X179689259Y-133111700D01*
X181152759Y-131648200D01*
X194634993Y-131648200D01*
X194653724Y-131778475D01*
X194708398Y-131898196D01*
X194794588Y-131997664D01*
X194905309Y-132068820D01*
X195031593Y-132105900D01*
X195163207Y-132105900D01*
X195289491Y-132068820D01*
X195400212Y-131997664D01*
X195486402Y-131898196D01*
X195541076Y-131778475D01*
X195559807Y-131648200D01*
X195541076Y-131517925D01*
X195496173Y-131419600D01*
X199206993Y-131419600D01*
X199225724Y-131549875D01*
X199280398Y-131669596D01*
X199315563Y-131710179D01*
X199366588Y-131769064D01*
X199477309Y-131840220D01*
X199603593Y-131877300D01*
X199735207Y-131877300D01*
X199861491Y-131840220D01*
X199972212Y-131769064D01*
X200058402Y-131669596D01*
X200113076Y-131549875D01*
X200131807Y-131419600D01*
X200113076Y-131289325D01*
X200058402Y-131169604D01*
X199972212Y-131070136D01*
X199916851Y-131034558D01*
X199861490Y-130998979D01*
X199735207Y-130961900D01*
X199603593Y-130961900D01*
X199477310Y-130998979D01*
X199477309Y-130998979D01*
X199366586Y-131070137D01*
X199280398Y-131169603D01*
X199225724Y-131289324D01*
X199206993Y-131419600D01*
X195496173Y-131419600D01*
X195486402Y-131398204D01*
X195400212Y-131298736D01*
X195344851Y-131263158D01*
X195289490Y-131227579D01*
X195163207Y-131190500D01*
X195031593Y-131190500D01*
X194905310Y-131227579D01*
X194905309Y-131227579D01*
X194794586Y-131298737D01*
X194708398Y-131398203D01*
X194668934Y-131484620D01*
X194653724Y-131517925D01*
X194634993Y-131648200D01*
X181152759Y-131648200D01*
X181736959Y-131064000D01*
X183712993Y-131064000D01*
X183731724Y-131194275D01*
X183786398Y-131313996D01*
X183872588Y-131413464D01*
X183983309Y-131484620D01*
X184109593Y-131521700D01*
X184241207Y-131521700D01*
X184367491Y-131484620D01*
X184478212Y-131413464D01*
X184564402Y-131313996D01*
X184619076Y-131194275D01*
X184637807Y-131064000D01*
X184619076Y-130933725D01*
X184564402Y-130814004D01*
X184478212Y-130714536D01*
X184422851Y-130678958D01*
X184367490Y-130643379D01*
X184241207Y-130606300D01*
X184109593Y-130606300D01*
X183983310Y-130643379D01*
X183983309Y-130643379D01*
X183872586Y-130714537D01*
X183786398Y-130814003D01*
X183741600Y-130912100D01*
X183731724Y-130933725D01*
X183712993Y-131064000D01*
X181736959Y-131064000D01*
X182575159Y-130225800D01*
X185719593Y-130225800D01*
X185738324Y-130356075D01*
X185792998Y-130475796D01*
X185796467Y-130479800D01*
X185879188Y-130575264D01*
X185989909Y-130646420D01*
X186116193Y-130683500D01*
X186247807Y-130683500D01*
X186374091Y-130646420D01*
X186484812Y-130575264D01*
X186571002Y-130475796D01*
X186580773Y-130454400D01*
X190189993Y-130454400D01*
X190208724Y-130584675D01*
X190263398Y-130704396D01*
X190349588Y-130803864D01*
X190460309Y-130875020D01*
X190586593Y-130912100D01*
X190718207Y-130912100D01*
X190844491Y-130875020D01*
X190955212Y-130803864D01*
X191041402Y-130704396D01*
X191096076Y-130584675D01*
X191111155Y-130479800D01*
X193720593Y-130479800D01*
X193739324Y-130610075D01*
X193793998Y-130729796D01*
X193858178Y-130803864D01*
X193880188Y-130829264D01*
X193990909Y-130900420D01*
X194117193Y-130937500D01*
X194248807Y-130937500D01*
X194375091Y-130900420D01*
X194485812Y-130829264D01*
X194572002Y-130729796D01*
X194626676Y-130610075D01*
X194645407Y-130479800D01*
X194626676Y-130349525D01*
X194572002Y-130229804D01*
X194485812Y-130130336D01*
X194430451Y-130094758D01*
X194375090Y-130059179D01*
X194248807Y-130022100D01*
X194117193Y-130022100D01*
X193990910Y-130059179D01*
X193990909Y-130059179D01*
X193880186Y-130130337D01*
X193793998Y-130229803D01*
X193739324Y-130349524D01*
X193720593Y-130479800D01*
X191111155Y-130479800D01*
X191114807Y-130454400D01*
X191096076Y-130324125D01*
X191041402Y-130204404D01*
X190955212Y-130104936D01*
X190884013Y-130059179D01*
X190844490Y-130033779D01*
X190718207Y-129996700D01*
X190586593Y-129996700D01*
X190460310Y-130033779D01*
X190460309Y-130033779D01*
X190349586Y-130104937D01*
X190263398Y-130204403D01*
X190251799Y-130229803D01*
X190208724Y-130324125D01*
X190189993Y-130454400D01*
X186580773Y-130454400D01*
X186625676Y-130356075D01*
X186644407Y-130225800D01*
X186625676Y-130095525D01*
X186571002Y-129975804D01*
X186484812Y-129876336D01*
X186429451Y-129840758D01*
X186374090Y-129805179D01*
X186247807Y-129768100D01*
X186116193Y-129768100D01*
X185989910Y-129805179D01*
X185989909Y-129805179D01*
X185879186Y-129876337D01*
X185792998Y-129975803D01*
X185738324Y-130095524D01*
X185719593Y-130225800D01*
X182575159Y-130225800D01*
X183022700Y-129778259D01*
X183062894Y-129708642D01*
X183064239Y-129703620D01*
X183067289Y-129692238D01*
X183067290Y-129692234D01*
X183074225Y-129666349D01*
X183083700Y-129630993D01*
X183083700Y-127533400D01*
X195854193Y-127533400D01*
X195872924Y-127663675D01*
X195927598Y-127783396D01*
X196013788Y-127882864D01*
X196124509Y-127954020D01*
X196250793Y-127991100D01*
X196382407Y-127991100D01*
X196508691Y-127954020D01*
X196619412Y-127882864D01*
X196705602Y-127783396D01*
X196760276Y-127663675D01*
X196779007Y-127533400D01*
X196760276Y-127403125D01*
X196705602Y-127283404D01*
X196619412Y-127183936D01*
X196521267Y-127120862D01*
X196508690Y-127112779D01*
X196382407Y-127075700D01*
X196250793Y-127075700D01*
X196124510Y-127112779D01*
X196124509Y-127112779D01*
X196013786Y-127183937D01*
X195927598Y-127283403D01*
X195927598Y-127283404D01*
X195872924Y-127403125D01*
X195854193Y-127533400D01*
X183083700Y-127533400D01*
X183083700Y-126771400D01*
X190443993Y-126771400D01*
X190462724Y-126901675D01*
X190517398Y-127021396D01*
X190603588Y-127120864D01*
X190714309Y-127192020D01*
X190840593Y-127229100D01*
X190972207Y-127229100D01*
X191098491Y-127192020D01*
X191209212Y-127120864D01*
X191295402Y-127021396D01*
X191350076Y-126901675D01*
X191368807Y-126771400D01*
X191350076Y-126641125D01*
X191305173Y-126542800D01*
X195269993Y-126542800D01*
X195288724Y-126673075D01*
X195343398Y-126792796D01*
X195429588Y-126892264D01*
X195540309Y-126963420D01*
X195666593Y-127000500D01*
X195798207Y-127000500D01*
X195924491Y-126963420D01*
X196035212Y-126892264D01*
X196121402Y-126792796D01*
X196176076Y-126673075D01*
X196194807Y-126542800D01*
X196176076Y-126412525D01*
X196121402Y-126292804D01*
X196035212Y-126193336D01*
X195979851Y-126157758D01*
X195924490Y-126122179D01*
X195798207Y-126085100D01*
X195666593Y-126085100D01*
X195540310Y-126122179D01*
X195540309Y-126122179D01*
X195429586Y-126193337D01*
X195343398Y-126292803D01*
X195288724Y-126412524D01*
X195274528Y-126511262D01*
X195269993Y-126542800D01*
X191305173Y-126542800D01*
X191295402Y-126521404D01*
X191209212Y-126421936D01*
X191135858Y-126374794D01*
X191098490Y-126350779D01*
X190972207Y-126313700D01*
X190840593Y-126313700D01*
X190714310Y-126350779D01*
X190714309Y-126350779D01*
X190603586Y-126421937D01*
X190517398Y-126521403D01*
X190472600Y-126619500D01*
X190462724Y-126641125D01*
X190443993Y-126771400D01*
X183083700Y-126771400D01*
X183083700Y-126060200D01*
X187192793Y-126060200D01*
X187211524Y-126190475D01*
X187266198Y-126310196D01*
X187301363Y-126350779D01*
X187352388Y-126409664D01*
X187463109Y-126480820D01*
X187589393Y-126517900D01*
X187721007Y-126517900D01*
X187847291Y-126480820D01*
X187958012Y-126409664D01*
X188044202Y-126310196D01*
X188098876Y-126190475D01*
X188117607Y-126060200D01*
X188098876Y-125929925D01*
X188044202Y-125810204D01*
X187977623Y-125733368D01*
X187958013Y-125710737D01*
X187958012Y-125710736D01*
X187859142Y-125647196D01*
X187847290Y-125639579D01*
X187721007Y-125602500D01*
X187589393Y-125602500D01*
X187463110Y-125639579D01*
X187463109Y-125639579D01*
X187352386Y-125710737D01*
X187266198Y-125810203D01*
X187211524Y-125929924D01*
X187192793Y-126060200D01*
X183083700Y-126060200D01*
X183083700Y-124331292D01*
X188478300Y-124331292D01*
X188478300Y-125169907D01*
X188505343Y-125305864D01*
X188558387Y-125433923D01*
X188558388Y-125433926D01*
X188558389Y-125433927D01*
X188635400Y-125549183D01*
X188733417Y-125647200D01*
X188848673Y-125724211D01*
X188912705Y-125750734D01*
X188976735Y-125777256D01*
X188976736Y-125777256D01*
X188976738Y-125777257D01*
X189112692Y-125804300D01*
X189112693Y-125804300D01*
X189251307Y-125804300D01*
X189251308Y-125804300D01*
X189387262Y-125777257D01*
X189515327Y-125724211D01*
X189630583Y-125647200D01*
X189728600Y-125549183D01*
X189805611Y-125433927D01*
X189858657Y-125305862D01*
X189885700Y-125169908D01*
X189885700Y-124331292D01*
X189858657Y-124195338D01*
X189805611Y-124067273D01*
X189728600Y-123952017D01*
X189630583Y-123854000D01*
X189515327Y-123776989D01*
X189515328Y-123776989D01*
X189515326Y-123776988D01*
X189515323Y-123776987D01*
X189387264Y-123723943D01*
X189296626Y-123705914D01*
X189251308Y-123696900D01*
X189112692Y-123696900D01*
X189078703Y-123703660D01*
X188976735Y-123723943D01*
X188848676Y-123776987D01*
X188848673Y-123776988D01*
X188761835Y-123835011D01*
X188737011Y-123851599D01*
X188733413Y-123854003D01*
X188635403Y-123952013D01*
X188558388Y-124067273D01*
X188558387Y-124067276D01*
X188505343Y-124195335D01*
X188478300Y-124331292D01*
X183083700Y-124331292D01*
X183083700Y-121259600D01*
X192679193Y-121259600D01*
X192697924Y-121389875D01*
X192752598Y-121509596D01*
X192838788Y-121609064D01*
X192949509Y-121680220D01*
X193075793Y-121717300D01*
X193207407Y-121717300D01*
X193333691Y-121680220D01*
X193444412Y-121609064D01*
X193530602Y-121509596D01*
X193585276Y-121389875D01*
X193604007Y-121259600D01*
X193585276Y-121129325D01*
X193530602Y-121009604D01*
X193444412Y-120910136D01*
X193389051Y-120874558D01*
X193333690Y-120838979D01*
X193207407Y-120801900D01*
X193075793Y-120801900D01*
X192949510Y-120838979D01*
X192949509Y-120838979D01*
X192838786Y-120910137D01*
X192752598Y-121009603D01*
X192752598Y-121009604D01*
X192697924Y-121129325D01*
X192679193Y-121259600D01*
X183083700Y-121259600D01*
X183083700Y-117627400D01*
X193288793Y-117627400D01*
X193307524Y-117757675D01*
X193362198Y-117877396D01*
X193448388Y-117976864D01*
X193559109Y-118048020D01*
X193685393Y-118085100D01*
X193817007Y-118085100D01*
X193943291Y-118048020D01*
X194054012Y-117976864D01*
X194140202Y-117877396D01*
X194194876Y-117757675D01*
X194213607Y-117627400D01*
X194194876Y-117497125D01*
X194140202Y-117377404D01*
X194054012Y-117277936D01*
X193998651Y-117242358D01*
X193943290Y-117206779D01*
X193817007Y-117169700D01*
X193685393Y-117169700D01*
X193559110Y-117206779D01*
X193559109Y-117206779D01*
X193448386Y-117277937D01*
X193362198Y-117377403D01*
X193307524Y-117497124D01*
X193296025Y-117577099D01*
X193288793Y-117627400D01*
X183083700Y-117627400D01*
X183083700Y-116992400D01*
X185160793Y-116992400D01*
X185179524Y-117122675D01*
X185234198Y-117242396D01*
X185320388Y-117341864D01*
X185431109Y-117413020D01*
X185557393Y-117450100D01*
X185689007Y-117450100D01*
X185815291Y-117413020D01*
X185926012Y-117341864D01*
X186012202Y-117242396D01*
X186066876Y-117122675D01*
X186085607Y-116992400D01*
X186066876Y-116862125D01*
X186012202Y-116742404D01*
X185926012Y-116642936D01*
X185860148Y-116600608D01*
X185815290Y-116571779D01*
X185689007Y-116534700D01*
X185557393Y-116534700D01*
X185431110Y-116571779D01*
X185431109Y-116571779D01*
X185320386Y-116642937D01*
X185234198Y-116742403D01*
X185179524Y-116862124D01*
X185178477Y-116869404D01*
X185160793Y-116992400D01*
X183083700Y-116992400D01*
X183083700Y-115908495D01*
X200083300Y-115908495D01*
X200083300Y-116037105D01*
X200108391Y-116163244D01*
X200157608Y-116282064D01*
X200193575Y-116335892D01*
X200229058Y-116388997D01*
X200229060Y-116388999D01*
X200320001Y-116479940D01*
X200426936Y-116551392D01*
X200545756Y-116600609D01*
X200671895Y-116625700D01*
X200671896Y-116625700D01*
X200800504Y-116625700D01*
X200800505Y-116625700D01*
X200926644Y-116600609D01*
X201045464Y-116551392D01*
X201152399Y-116479940D01*
X201243340Y-116388999D01*
X201314792Y-116282064D01*
X201364009Y-116163244D01*
X201389100Y-116037105D01*
X201389100Y-115908495D01*
X201364009Y-115782356D01*
X201314792Y-115663536D01*
X201243340Y-115556601D01*
X201152399Y-115465660D01*
X201152397Y-115465658D01*
X201081159Y-115418059D01*
X201045464Y-115394208D01*
X201045461Y-115394206D01*
X201045460Y-115394206D01*
X200926645Y-115344991D01*
X200863574Y-115332445D01*
X200800505Y-115319900D01*
X200671895Y-115319900D01*
X200629848Y-115328263D01*
X200545754Y-115344991D01*
X200426939Y-115394206D01*
X200320002Y-115465658D01*
X200320001Y-115465660D01*
X200229060Y-115556601D01*
X200229058Y-115556602D01*
X200157606Y-115663539D01*
X200108391Y-115782354D01*
X200108391Y-115782356D01*
X200083300Y-115908495D01*
X183083700Y-115908495D01*
X183083700Y-115585729D01*
X183102913Y-115526598D01*
X183113165Y-115514594D01*
X184119994Y-114507765D01*
X184175392Y-114479539D01*
X184191129Y-114478300D01*
X184270977Y-114478300D01*
X184330108Y-114497513D01*
X184347002Y-114513017D01*
X184355185Y-114522461D01*
X184359899Y-114527900D01*
X184357934Y-114529602D01*
X184384031Y-114572881D01*
X184378709Y-114634827D01*
X184340437Y-114680292D01*
X184329787Y-114687136D01*
X184243598Y-114786603D01*
X184188924Y-114906324D01*
X184170193Y-115036600D01*
X184188924Y-115166875D01*
X184243598Y-115286596D01*
X184293784Y-115344514D01*
X184329788Y-115386064D01*
X184440509Y-115457220D01*
X184566793Y-115494300D01*
X184698407Y-115494300D01*
X184824691Y-115457220D01*
X184935412Y-115386064D01*
X184943596Y-115376618D01*
X184996839Y-115344514D01*
X185019623Y-115341900D01*
X185688791Y-115341900D01*
X185688793Y-115341900D01*
X185766441Y-115321094D01*
X185803394Y-115299759D01*
X185836059Y-115280900D01*
X186121500Y-114995459D01*
X186161694Y-114925842D01*
X186167266Y-114905043D01*
X186167269Y-114905038D01*
X186167268Y-114905038D01*
X186182499Y-114848195D01*
X186182500Y-114848193D01*
X186182500Y-113701007D01*
X186161694Y-113623359D01*
X186161694Y-113623358D01*
X186156407Y-113614200D01*
X195117593Y-113614200D01*
X195136324Y-113744475D01*
X195190998Y-113864196D01*
X195277188Y-113963664D01*
X195387909Y-114034820D01*
X195514193Y-114071900D01*
X195645807Y-114071900D01*
X195772091Y-114034820D01*
X195882812Y-113963664D01*
X195969002Y-113864196D01*
X196023676Y-113744475D01*
X196042407Y-113614200D01*
X196023676Y-113483925D01*
X195969002Y-113364204D01*
X195882812Y-113264736D01*
X195791512Y-113206061D01*
X195772090Y-113193579D01*
X195645807Y-113156500D01*
X195514193Y-113156500D01*
X195387910Y-113193579D01*
X195387909Y-113193579D01*
X195277186Y-113264737D01*
X195190998Y-113364203D01*
X195190998Y-113364204D01*
X195136324Y-113483925D01*
X195117593Y-113614200D01*
X186156407Y-113614200D01*
X186121500Y-113553741D01*
X185683659Y-113115900D01*
X185642295Y-113092018D01*
X185614042Y-113075706D01*
X185536395Y-113054900D01*
X185536393Y-113054900D01*
X184059007Y-113054900D01*
X184059002Y-113054900D01*
X183981365Y-113075703D01*
X183981356Y-113075707D01*
X183911743Y-113115896D01*
X182252038Y-114775601D01*
X182196640Y-114803827D01*
X182135232Y-114794101D01*
X182091268Y-114750137D01*
X182081327Y-114718782D01*
X182080364Y-114712087D01*
X182079076Y-114703125D01*
X182024402Y-114583404D01*
X181938212Y-114483936D01*
X181882851Y-114448358D01*
X181827490Y-114412779D01*
X181701207Y-114375700D01*
X181569593Y-114375700D01*
X181443310Y-114412779D01*
X181443309Y-114412779D01*
X181332587Y-114483936D01*
X181317727Y-114501086D01*
X181264483Y-114533191D01*
X181202537Y-114527869D01*
X181165673Y-114501086D01*
X181150812Y-114483936D01*
X181040090Y-114412779D01*
X180913807Y-114375700D01*
X180782193Y-114375700D01*
X180655910Y-114412779D01*
X180655909Y-114412779D01*
X180545186Y-114483937D01*
X180458998Y-114583403D01*
X180407313Y-114696581D01*
X180404324Y-114703125D01*
X180385593Y-114833400D01*
X180404324Y-114963675D01*
X180458998Y-115083396D01*
X180545188Y-115182864D01*
X180655909Y-115254020D01*
X180782193Y-115291100D01*
X180913807Y-115291100D01*
X181040091Y-115254020D01*
X181150812Y-115182864D01*
X181165672Y-115165715D01*
X181218915Y-115133608D01*
X181280861Y-115138929D01*
X181317728Y-115165715D01*
X181332588Y-115182864D01*
X181443309Y-115254020D01*
X181569593Y-115291100D01*
X181701206Y-115291100D01*
X181701207Y-115291100D01*
X181709155Y-115288766D01*
X181771304Y-115290539D01*
X181820541Y-115328505D01*
X181838100Y-115385290D01*
X181838100Y-125694351D01*
X181818887Y-125753482D01*
X181768587Y-125790027D01*
X181706413Y-125790027D01*
X181683112Y-125778981D01*
X181624294Y-125741181D01*
X181624289Y-125741179D01*
X181498007Y-125704100D01*
X181366393Y-125704100D01*
X181366389Y-125704100D01*
X181273562Y-125731356D01*
X181211413Y-125729580D01*
X181162178Y-125691613D01*
X181144662Y-125631957D01*
X181165556Y-125573399D01*
X181174080Y-125563702D01*
X181188600Y-125549183D01*
X181265611Y-125433927D01*
X181318657Y-125305862D01*
X181345700Y-125169908D01*
X181345700Y-124331292D01*
X181318657Y-124195338D01*
X181265611Y-124067273D01*
X181188600Y-123952017D01*
X181090583Y-123854000D01*
X180975327Y-123776989D01*
X180975328Y-123776989D01*
X180975326Y-123776988D01*
X180975323Y-123776987D01*
X180847264Y-123723943D01*
X180756626Y-123705914D01*
X180711308Y-123696900D01*
X180572692Y-123696900D01*
X180538703Y-123703660D01*
X180436735Y-123723943D01*
X180308676Y-123776987D01*
X180308673Y-123776988D01*
X180221835Y-123835011D01*
X180197011Y-123851599D01*
X180193413Y-123854003D01*
X180095403Y-123952013D01*
X180018388Y-124067273D01*
X180018387Y-124067276D01*
X179965343Y-124195335D01*
X179938300Y-124331292D01*
X179938300Y-125169907D01*
X179965343Y-125305864D01*
X180018387Y-125433923D01*
X180018388Y-125433926D01*
X180018389Y-125433927D01*
X180095400Y-125549183D01*
X180193417Y-125647200D01*
X180308673Y-125724211D01*
X180372705Y-125750734D01*
X180436735Y-125777256D01*
X180436736Y-125777256D01*
X180436738Y-125777257D01*
X180572692Y-125804300D01*
X180572693Y-125804300D01*
X180711307Y-125804300D01*
X180711308Y-125804300D01*
X180847262Y-125777257D01*
X180941441Y-125738246D01*
X181003422Y-125733368D01*
X181056434Y-125765854D01*
X181080228Y-125823295D01*
X181065714Y-125883752D01*
X181055968Y-125897066D01*
X181043198Y-125911803D01*
X181034923Y-125929925D01*
X180988524Y-126031525D01*
X180969793Y-126161800D01*
X180988524Y-126292075D01*
X181043198Y-126411796D01*
X181129388Y-126511264D01*
X181240109Y-126582420D01*
X181366393Y-126619500D01*
X181498007Y-126619500D01*
X181624291Y-126582420D01*
X181683112Y-126544617D01*
X181743242Y-126528812D01*
X181801180Y-126551369D01*
X181834795Y-126603673D01*
X181838100Y-126629248D01*
X181838100Y-129194070D01*
X181818887Y-129253201D01*
X181808635Y-129265205D01*
X179277806Y-131796035D01*
X179222408Y-131824261D01*
X179206671Y-131825500D01*
X174986623Y-131825500D01*
X174927492Y-131806287D01*
X174910596Y-131790781D01*
X174902412Y-131781336D01*
X174791690Y-131710179D01*
X174665407Y-131673100D01*
X174533793Y-131673100D01*
X174407510Y-131710179D01*
X174407509Y-131710179D01*
X174296786Y-131781337D01*
X174210598Y-131880803D01*
X174155924Y-132000524D01*
X174137193Y-132130800D01*
X174155924Y-132261075D01*
X174210598Y-132380796D01*
X174230624Y-132403907D01*
X174254827Y-132461177D01*
X174240745Y-132521735D01*
X174230625Y-132535664D01*
X174159798Y-132617403D01*
X174105124Y-132737124D01*
X174086393Y-132867400D01*
X166880800Y-132867400D01*
X166880800Y-128625600D01*
X176804193Y-128625600D01*
X176822924Y-128755875D01*
X176877598Y-128875596D01*
X176963788Y-128975064D01*
X177074509Y-129046220D01*
X177200793Y-129083300D01*
X177332407Y-129083300D01*
X177458691Y-129046220D01*
X177569412Y-128975064D01*
X177655602Y-128875596D01*
X177710276Y-128755875D01*
X177729007Y-128625600D01*
X177710276Y-128495325D01*
X177655602Y-128375604D01*
X177569412Y-128276136D01*
X177514051Y-128240558D01*
X177458690Y-128204979D01*
X177332407Y-128167900D01*
X177200793Y-128167900D01*
X177074510Y-128204979D01*
X177074509Y-128204979D01*
X176963786Y-128276137D01*
X176877598Y-128375603D01*
X176877598Y-128375604D01*
X176822924Y-128495325D01*
X176804193Y-128625600D01*
X166880800Y-128625600D01*
X166880800Y-128345600D01*
X166900013Y-128286469D01*
X166950313Y-128249924D01*
X166981400Y-128245000D01*
X171902800Y-128245000D01*
X171902800Y-124423079D01*
X171922013Y-124363948D01*
X171972313Y-124327403D01*
X172034487Y-124327403D01*
X172079427Y-124357199D01*
X172163188Y-124453864D01*
X172273909Y-124525020D01*
X172400193Y-124562100D01*
X172531807Y-124562100D01*
X172658091Y-124525020D01*
X172768812Y-124453864D01*
X172855002Y-124354396D01*
X172909676Y-124234675D01*
X172928407Y-124104400D01*
X172909676Y-123974125D01*
X172855002Y-123854404D01*
X172768812Y-123754936D01*
X172678506Y-123696900D01*
X172658090Y-123683779D01*
X172531807Y-123646700D01*
X172400193Y-123646700D01*
X172273910Y-123683779D01*
X172273909Y-123683779D01*
X172163186Y-123754937D01*
X172079428Y-123851599D01*
X172026185Y-123883706D01*
X171964239Y-123878385D01*
X171917251Y-123837669D01*
X171902800Y-123785720D01*
X171902800Y-117438079D01*
X171922013Y-117378948D01*
X171972313Y-117342403D01*
X172034487Y-117342403D01*
X172079427Y-117372199D01*
X172163188Y-117468864D01*
X172273909Y-117540020D01*
X172400193Y-117577100D01*
X172531807Y-117577100D01*
X172658091Y-117540020D01*
X172768812Y-117468864D01*
X172855002Y-117369396D01*
X172909676Y-117249675D01*
X172928407Y-117119400D01*
X172909676Y-116989125D01*
X172855002Y-116869404D01*
X172768812Y-116769936D01*
X172659311Y-116699564D01*
X172658090Y-116698779D01*
X172531807Y-116661700D01*
X172400193Y-116661700D01*
X172273910Y-116698779D01*
X172273909Y-116698779D01*
X172163186Y-116769937D01*
X172079428Y-116866599D01*
X172026185Y-116898706D01*
X171964239Y-116893385D01*
X171917251Y-116852669D01*
X171902800Y-116800720D01*
X171902800Y-114198400D01*
X176905793Y-114198400D01*
X176924524Y-114328675D01*
X176979198Y-114448396D01*
X177052673Y-114533191D01*
X177065388Y-114547864D01*
X177176109Y-114619020D01*
X177302393Y-114656100D01*
X177315372Y-114656100D01*
X177374503Y-114675313D01*
X177411048Y-114725613D01*
X177411048Y-114787787D01*
X177386508Y-114827832D01*
X177380941Y-114833400D01*
X177377900Y-114836441D01*
X177337706Y-114906057D01*
X177316900Y-114983704D01*
X177316900Y-116633685D01*
X177297687Y-116692816D01*
X177292334Y-116699556D01*
X177255208Y-116742403D01*
X177233197Y-116767805D01*
X177178524Y-116887524D01*
X177159793Y-117017800D01*
X177178524Y-117148075D01*
X177233198Y-117267796D01*
X177297845Y-117342403D01*
X177319388Y-117367264D01*
X177430109Y-117438420D01*
X177556393Y-117475500D01*
X177688007Y-117475500D01*
X177814291Y-117438420D01*
X177925012Y-117367264D01*
X178011202Y-117267796D01*
X178065876Y-117148075D01*
X178084607Y-117017800D01*
X178065876Y-116887525D01*
X178011202Y-116767804D01*
X177952070Y-116699562D01*
X177927869Y-116642294D01*
X177927500Y-116633685D01*
X177927500Y-115192029D01*
X177946713Y-115132898D01*
X177956965Y-115120894D01*
X179230494Y-113847365D01*
X179285892Y-113819139D01*
X179301629Y-113817900D01*
X181319991Y-113817900D01*
X181319993Y-113817900D01*
X181397641Y-113797094D01*
X181424836Y-113781393D01*
X181467259Y-113756900D01*
X183103995Y-112120165D01*
X183159393Y-112091939D01*
X183175130Y-112090700D01*
X187136591Y-112090700D01*
X187136593Y-112090700D01*
X187136595Y-112090699D01*
X187136598Y-112090699D01*
X187150943Y-112086855D01*
X187213032Y-112090107D01*
X187261352Y-112129233D01*
X187277445Y-112189288D01*
X187268494Y-112225813D01*
X187262324Y-112239324D01*
X187243593Y-112369600D01*
X187262324Y-112499875D01*
X187316998Y-112619596D01*
X187396439Y-112711276D01*
X187403188Y-112719064D01*
X187513909Y-112790220D01*
X187640193Y-112827300D01*
X187771807Y-112827300D01*
X187898091Y-112790220D01*
X188008812Y-112719064D01*
X188060239Y-112659713D01*
X188113481Y-112627607D01*
X188175427Y-112632928D01*
X188222416Y-112673643D01*
X188235843Y-112711276D01*
X188252923Y-112830075D01*
X188307598Y-112949796D01*
X188393788Y-113049264D01*
X188504509Y-113120420D01*
X188630793Y-113157500D01*
X188762407Y-113157500D01*
X188888691Y-113120420D01*
X188999412Y-113049264D01*
X189085602Y-112949796D01*
X189140276Y-112830075D01*
X189159007Y-112699800D01*
X189140276Y-112569525D01*
X189085602Y-112449804D01*
X189038767Y-112395754D01*
X188999413Y-112350337D01*
X188999412Y-112350336D01*
X188944051Y-112314758D01*
X188888690Y-112279179D01*
X188762407Y-112242100D01*
X188630793Y-112242100D01*
X188504510Y-112279179D01*
X188504509Y-112279179D01*
X188393786Y-112350337D01*
X188342359Y-112409686D01*
X188289116Y-112441792D01*
X188227170Y-112436470D01*
X188180182Y-112395754D01*
X188166757Y-112358125D01*
X188149676Y-112239325D01*
X188095002Y-112119604D01*
X188008812Y-112020136D01*
X187930799Y-111970000D01*
X187898090Y-111948979D01*
X187771807Y-111911900D01*
X187644529Y-111911900D01*
X187585398Y-111892687D01*
X187548853Y-111842387D01*
X187548853Y-111780213D01*
X187573394Y-111740165D01*
X188680523Y-110633036D01*
X189255359Y-110058200D01*
X195549393Y-110058200D01*
X195568124Y-110188475D01*
X195622798Y-110308196D01*
X195654224Y-110344464D01*
X195708988Y-110407664D01*
X195819709Y-110478820D01*
X195945993Y-110515900D01*
X196077607Y-110515900D01*
X196203891Y-110478820D01*
X196314612Y-110407664D01*
X196400802Y-110308196D01*
X196455476Y-110188475D01*
X196474207Y-110058200D01*
X196455476Y-109927925D01*
X196400802Y-109808204D01*
X196314612Y-109708736D01*
X196229720Y-109654179D01*
X196203890Y-109637579D01*
X196077607Y-109600500D01*
X195945993Y-109600500D01*
X195819710Y-109637579D01*
X195819709Y-109637579D01*
X195708986Y-109708737D01*
X195622798Y-109808203D01*
X195568124Y-109927924D01*
X195549393Y-110058200D01*
X189255359Y-110058200D01*
X190083901Y-109229659D01*
X190124094Y-109160041D01*
X190130060Y-109137775D01*
X190137906Y-109108495D01*
X200083300Y-109108495D01*
X200083300Y-109237104D01*
X200108391Y-109363245D01*
X200157606Y-109482060D01*
X200157608Y-109482064D01*
X200169526Y-109499900D01*
X200229058Y-109588997D01*
X200229060Y-109588999D01*
X200320001Y-109679940D01*
X200426936Y-109751392D01*
X200545756Y-109800609D01*
X200671895Y-109825700D01*
X200671896Y-109825700D01*
X200800504Y-109825700D01*
X200800505Y-109825700D01*
X200926644Y-109800609D01*
X201045464Y-109751392D01*
X201152399Y-109679940D01*
X201243340Y-109588999D01*
X201314792Y-109482064D01*
X201364009Y-109363244D01*
X201389100Y-109237105D01*
X201389100Y-109108495D01*
X201364009Y-108982356D01*
X201314792Y-108863536D01*
X201254952Y-108773979D01*
X201243341Y-108756602D01*
X201152397Y-108665658D01*
X201099292Y-108630175D01*
X201045464Y-108594208D01*
X201045461Y-108594206D01*
X201045460Y-108594206D01*
X200926645Y-108544991D01*
X200863574Y-108532445D01*
X200800505Y-108519900D01*
X200671895Y-108519900D01*
X200629848Y-108528263D01*
X200545754Y-108544991D01*
X200426939Y-108594206D01*
X200320002Y-108665658D01*
X200320001Y-108665660D01*
X200229060Y-108756601D01*
X200229058Y-108756602D01*
X200157606Y-108863539D01*
X200108391Y-108982354D01*
X200083300Y-109108495D01*
X190137906Y-109108495D01*
X190144900Y-109082393D01*
X190144900Y-107265372D01*
X190164113Y-107206241D01*
X190214413Y-107169696D01*
X190276587Y-107169696D01*
X190299887Y-107180741D01*
X190333309Y-107202220D01*
X190459593Y-107239300D01*
X190591207Y-107239300D01*
X190679415Y-107213400D01*
X194228593Y-107213400D01*
X194247324Y-107343675D01*
X194301998Y-107463396D01*
X194388188Y-107562864D01*
X194498909Y-107634020D01*
X194625193Y-107671100D01*
X194756807Y-107671100D01*
X194883091Y-107634020D01*
X194993812Y-107562864D01*
X195080002Y-107463396D01*
X195134676Y-107343675D01*
X195153407Y-107213400D01*
X195134676Y-107083125D01*
X195080002Y-106963404D01*
X194993812Y-106863936D01*
X194905996Y-106807500D01*
X194883090Y-106792779D01*
X194756807Y-106755700D01*
X194625193Y-106755700D01*
X194498910Y-106792779D01*
X194498909Y-106792779D01*
X194388186Y-106863937D01*
X194301998Y-106963403D01*
X194266376Y-107041407D01*
X194247324Y-107083125D01*
X194228593Y-107213400D01*
X190679415Y-107213400D01*
X190717491Y-107202220D01*
X190828212Y-107131064D01*
X190914402Y-107031596D01*
X190969076Y-106911875D01*
X190987807Y-106781600D01*
X190969076Y-106651325D01*
X190914402Y-106531604D01*
X190828212Y-106432136D01*
X190772851Y-106396558D01*
X190717490Y-106360979D01*
X190591207Y-106323900D01*
X190459593Y-106323900D01*
X190333310Y-106360979D01*
X190333306Y-106360980D01*
X190299887Y-106382458D01*
X190239756Y-106398263D01*
X190181818Y-106375705D01*
X190148205Y-106323400D01*
X190144900Y-106297827D01*
X190144900Y-106146600D01*
X193568193Y-106146600D01*
X193586924Y-106276875D01*
X193641598Y-106396596D01*
X193727788Y-106496064D01*
X193838509Y-106567220D01*
X193964793Y-106604300D01*
X194096407Y-106604300D01*
X194222691Y-106567220D01*
X194333412Y-106496064D01*
X194419602Y-106396596D01*
X194440973Y-106349800D01*
X200324593Y-106349800D01*
X200343324Y-106480075D01*
X200397998Y-106599796D01*
X200442647Y-106651324D01*
X200484188Y-106699264D01*
X200594909Y-106770420D01*
X200721193Y-106807500D01*
X200852807Y-106807500D01*
X200979091Y-106770420D01*
X201089812Y-106699264D01*
X201176002Y-106599796D01*
X201230676Y-106480075D01*
X201249407Y-106349800D01*
X201230676Y-106219525D01*
X201176002Y-106099804D01*
X201089812Y-106000336D01*
X201034451Y-105964758D01*
X200979090Y-105929179D01*
X200852807Y-105892100D01*
X200721193Y-105892100D01*
X200594910Y-105929179D01*
X200594909Y-105929179D01*
X200484186Y-106000337D01*
X200397998Y-106099803D01*
X200343324Y-106219524D01*
X200324593Y-106349800D01*
X194440973Y-106349800D01*
X194474276Y-106276875D01*
X194493007Y-106146600D01*
X194474276Y-106016325D01*
X194419602Y-105896604D01*
X194333412Y-105797136D01*
X194278051Y-105761558D01*
X194222690Y-105725979D01*
X194096407Y-105688900D01*
X193964793Y-105688900D01*
X193838510Y-105725979D01*
X193838509Y-105725979D01*
X193727786Y-105797137D01*
X193641598Y-105896603D01*
X193594226Y-106000336D01*
X193586924Y-106016325D01*
X193568193Y-106146600D01*
X190144900Y-106146600D01*
X190144900Y-103414552D01*
X191538300Y-103414552D01*
X191538300Y-104223844D01*
X191538301Y-104223855D01*
X191541173Y-104254498D01*
X191541173Y-104254500D01*
X191541174Y-104254501D01*
X191586346Y-104383595D01*
X191653662Y-104474805D01*
X191667562Y-104493638D01*
X191777605Y-104574854D01*
X191906699Y-104620026D01*
X191937347Y-104622900D01*
X193296652Y-104622899D01*
X193327301Y-104620026D01*
X193456395Y-104574854D01*
X193566438Y-104493638D01*
X193621229Y-104419400D01*
X198292593Y-104419400D01*
X198311324Y-104549675D01*
X198365998Y-104669396D01*
X198401163Y-104709979D01*
X198452188Y-104768864D01*
X198562909Y-104840020D01*
X198689193Y-104877100D01*
X198820807Y-104877100D01*
X198947091Y-104840020D01*
X199057812Y-104768864D01*
X199144002Y-104669396D01*
X199198676Y-104549675D01*
X199217407Y-104419400D01*
X199198676Y-104289125D01*
X199144002Y-104169404D01*
X199057812Y-104069936D01*
X198991345Y-104027220D01*
X198947090Y-103998779D01*
X198820807Y-103961700D01*
X198689193Y-103961700D01*
X198562910Y-103998779D01*
X198562909Y-103998779D01*
X198452186Y-104069937D01*
X198365998Y-104169403D01*
X198311324Y-104289124D01*
X198292593Y-104419400D01*
X193621229Y-104419400D01*
X193647654Y-104383595D01*
X193692826Y-104254501D01*
X193695700Y-104223853D01*
X193695699Y-103414548D01*
X193692826Y-103383899D01*
X193647654Y-103254805D01*
X193566438Y-103144762D01*
X193553090Y-103134911D01*
X193456395Y-103063546D01*
X193327301Y-103018374D01*
X193296653Y-103015500D01*
X193296647Y-103015500D01*
X191937355Y-103015500D01*
X191937344Y-103015501D01*
X191906701Y-103018373D01*
X191777604Y-103063546D01*
X191667562Y-103144761D01*
X191667561Y-103144762D01*
X191586346Y-103254804D01*
X191563760Y-103319352D01*
X191541174Y-103383899D01*
X191538301Y-103414544D01*
X191538300Y-103414552D01*
X190144900Y-103414552D01*
X190144900Y-101740042D01*
X191538300Y-101740042D01*
X191538300Y-101898357D01*
X191569186Y-102053633D01*
X191629768Y-102199891D01*
X191629772Y-102199899D01*
X191717723Y-102331527D01*
X191829672Y-102443476D01*
X191961300Y-102531427D01*
X191961302Y-102531428D01*
X191961305Y-102531430D01*
X192034437Y-102561722D01*
X192107566Y-102592013D01*
X192107567Y-102592013D01*
X192107569Y-102592014D01*
X192262842Y-102622900D01*
X192262843Y-102622900D01*
X192971157Y-102622900D01*
X192971158Y-102622900D01*
X193126431Y-102592014D01*
X193272695Y-102531430D01*
X193404329Y-102443475D01*
X193516275Y-102331529D01*
X193604230Y-102199895D01*
X193664814Y-102053631D01*
X193695700Y-101898358D01*
X193695700Y-101740042D01*
X193664814Y-101584769D01*
X193604230Y-101438505D01*
X193516275Y-101306871D01*
X193404329Y-101194925D01*
X193404327Y-101194923D01*
X193272699Y-101106972D01*
X193272691Y-101106968D01*
X193126433Y-101046386D01*
X193022915Y-101025795D01*
X192971158Y-101015500D01*
X192262842Y-101015500D01*
X192224023Y-101023221D01*
X192107566Y-101046386D01*
X191961308Y-101106968D01*
X191961300Y-101106972D01*
X191829672Y-101194923D01*
X191829671Y-101194925D01*
X191717725Y-101306871D01*
X191717723Y-101306872D01*
X191629772Y-101438500D01*
X191629768Y-101438508D01*
X191569186Y-101584766D01*
X191538300Y-101740042D01*
X190144900Y-101740042D01*
X190144900Y-98999529D01*
X190164113Y-98940398D01*
X190174365Y-98928394D01*
X190546195Y-98556565D01*
X190601593Y-98528339D01*
X190617330Y-98527100D01*
X190667407Y-98527100D01*
X190793691Y-98490020D01*
X190904412Y-98418864D01*
X190990602Y-98319396D01*
X191045276Y-98199675D01*
X191064007Y-98069400D01*
X191045276Y-97939125D01*
X190990602Y-97819404D01*
X190904412Y-97719936D01*
X190849051Y-97684358D01*
X190793690Y-97648779D01*
X190667407Y-97611700D01*
X190535793Y-97611700D01*
X190409510Y-97648779D01*
X190409509Y-97648779D01*
X190298786Y-97719937D01*
X190212598Y-97819403D01*
X190157924Y-97939124D01*
X190138811Y-98072051D01*
X190111378Y-98127846D01*
X190110370Y-98128868D01*
X189595300Y-98643941D01*
X189555106Y-98713557D01*
X189534300Y-98791204D01*
X189534300Y-107567827D01*
X189515087Y-107626958D01*
X189464787Y-107663503D01*
X189402613Y-107663503D01*
X189379313Y-107652458D01*
X189345893Y-107630980D01*
X189345889Y-107630979D01*
X189219607Y-107593900D01*
X189087993Y-107593900D01*
X188961710Y-107630979D01*
X188961709Y-107630979D01*
X188850986Y-107702137D01*
X188764798Y-107801603D01*
X188710124Y-107921324D01*
X188691393Y-108051600D01*
X188710124Y-108181875D01*
X188764798Y-108301596D01*
X188823604Y-108369462D01*
X188850988Y-108401064D01*
X188961709Y-108472220D01*
X189087993Y-108509300D01*
X189219607Y-108509300D01*
X189345891Y-108472220D01*
X189379311Y-108450741D01*
X189439443Y-108434936D01*
X189497381Y-108457493D01*
X189530995Y-108509797D01*
X189534300Y-108535372D01*
X189534300Y-108874070D01*
X189515087Y-108933201D01*
X189504835Y-108945205D01*
X186999406Y-111450635D01*
X186944008Y-111478861D01*
X186928271Y-111480100D01*
X182966802Y-111480100D01*
X182889165Y-111500903D01*
X182889156Y-111500907D01*
X182819543Y-111541096D01*
X182819542Y-111541097D01*
X181182806Y-113177835D01*
X181127408Y-113206061D01*
X181111671Y-113207300D01*
X179093304Y-113207300D01*
X179015657Y-113228106D01*
X178946041Y-113268300D01*
X177996013Y-114218326D01*
X177940615Y-114246552D01*
X177879206Y-114236826D01*
X177835243Y-114192862D01*
X177825302Y-114161509D01*
X177811876Y-114068125D01*
X177757202Y-113948404D01*
X177671012Y-113848936D01*
X177565913Y-113781393D01*
X177560290Y-113777779D01*
X177434007Y-113740700D01*
X177302393Y-113740700D01*
X177176110Y-113777779D01*
X177176109Y-113777779D01*
X177065386Y-113848937D01*
X176979198Y-113948403D01*
X176924524Y-114068124D01*
X176905793Y-114198400D01*
X171902800Y-114198400D01*
X171902800Y-111970000D01*
X176982893Y-111970000D01*
X177001624Y-112100275D01*
X177056298Y-112219996D01*
X177107581Y-112279180D01*
X177142488Y-112319464D01*
X177253209Y-112390620D01*
X177379493Y-112427700D01*
X177511107Y-112427700D01*
X177637391Y-112390620D01*
X177748112Y-112319464D01*
X177834302Y-112219996D01*
X177888976Y-112100275D01*
X177907707Y-111970000D01*
X178957893Y-111970000D01*
X178976624Y-112100275D01*
X179031298Y-112219996D01*
X179082581Y-112279180D01*
X179117488Y-112319464D01*
X179228209Y-112390620D01*
X179354493Y-112427700D01*
X179486107Y-112427700D01*
X179612391Y-112390620D01*
X179723112Y-112319464D01*
X179809302Y-112219996D01*
X179863976Y-112100275D01*
X179882707Y-111970000D01*
X179863976Y-111839725D01*
X179809302Y-111720004D01*
X179723112Y-111620536D01*
X179667751Y-111584958D01*
X179612390Y-111549379D01*
X179486107Y-111512300D01*
X179354493Y-111512300D01*
X179228210Y-111549379D01*
X179228209Y-111549379D01*
X179117486Y-111620537D01*
X179031298Y-111720003D01*
X178976624Y-111839724D01*
X178957893Y-111970000D01*
X177907707Y-111970000D01*
X177888976Y-111839725D01*
X177834302Y-111720004D01*
X177748112Y-111620536D01*
X177692751Y-111584958D01*
X177637390Y-111549379D01*
X177511107Y-111512300D01*
X177379493Y-111512300D01*
X177253210Y-111549379D01*
X177253209Y-111549379D01*
X177142486Y-111620537D01*
X177056298Y-111720003D01*
X177001624Y-111839724D01*
X176982893Y-111970000D01*
X171902800Y-111970000D01*
X171902800Y-110982500D01*
X175995393Y-110982500D01*
X176014124Y-111112775D01*
X176068798Y-111232496D01*
X176154988Y-111331964D01*
X176265709Y-111403120D01*
X176391993Y-111440200D01*
X176523607Y-111440200D01*
X176649891Y-111403120D01*
X176760612Y-111331964D01*
X176846802Y-111232496D01*
X176901476Y-111112775D01*
X176920207Y-110982500D01*
X177970393Y-110982500D01*
X177989124Y-111112775D01*
X178043798Y-111232496D01*
X178129988Y-111331964D01*
X178240709Y-111403120D01*
X178366993Y-111440200D01*
X178498607Y-111440200D01*
X178624891Y-111403120D01*
X178735612Y-111331964D01*
X178821802Y-111232496D01*
X178876476Y-111112775D01*
X178895207Y-110982500D01*
X179945393Y-110982500D01*
X179964124Y-111112775D01*
X180018798Y-111232496D01*
X180104988Y-111331964D01*
X180215709Y-111403120D01*
X180341993Y-111440200D01*
X180473607Y-111440200D01*
X180599891Y-111403120D01*
X180710612Y-111331964D01*
X180796802Y-111232496D01*
X180851476Y-111112775D01*
X180870207Y-110982500D01*
X180851476Y-110852225D01*
X180796802Y-110732504D01*
X180710612Y-110633036D01*
X180655251Y-110597458D01*
X180599890Y-110561879D01*
X180473607Y-110524800D01*
X180341993Y-110524800D01*
X180215710Y-110561879D01*
X180215709Y-110561879D01*
X180104986Y-110633037D01*
X180018798Y-110732503D01*
X180018798Y-110732504D01*
X179964124Y-110852225D01*
X179945393Y-110982500D01*
X178895207Y-110982500D01*
X178876476Y-110852225D01*
X178821802Y-110732504D01*
X178735612Y-110633036D01*
X178680251Y-110597458D01*
X178624890Y-110561879D01*
X178498607Y-110524800D01*
X178366993Y-110524800D01*
X178240710Y-110561879D01*
X178240709Y-110561879D01*
X178129986Y-110633037D01*
X178043798Y-110732503D01*
X178043798Y-110732504D01*
X177989124Y-110852225D01*
X177970393Y-110982500D01*
X176920207Y-110982500D01*
X176901476Y-110852225D01*
X176846802Y-110732504D01*
X176760612Y-110633036D01*
X176705251Y-110597458D01*
X176649890Y-110561879D01*
X176523607Y-110524800D01*
X176391993Y-110524800D01*
X176265710Y-110561879D01*
X176265709Y-110561879D01*
X176154986Y-110633037D01*
X176068798Y-110732503D01*
X176068798Y-110732504D01*
X176014124Y-110852225D01*
X175995393Y-110982500D01*
X171902800Y-110982500D01*
X171902800Y-109995000D01*
X176982893Y-109995000D01*
X177001624Y-110125275D01*
X177056298Y-110244996D01*
X177131222Y-110331463D01*
X177142488Y-110344464D01*
X177253209Y-110415620D01*
X177379493Y-110452700D01*
X177511107Y-110452700D01*
X177637391Y-110415620D01*
X177748112Y-110344464D01*
X177834302Y-110244996D01*
X177888976Y-110125275D01*
X177907707Y-109995000D01*
X178957893Y-109995000D01*
X178976624Y-110125275D01*
X179031298Y-110244996D01*
X179106222Y-110331463D01*
X179117488Y-110344464D01*
X179228209Y-110415620D01*
X179354493Y-110452700D01*
X179486107Y-110452700D01*
X179612391Y-110415620D01*
X179723112Y-110344464D01*
X179809302Y-110244996D01*
X179863976Y-110125275D01*
X179882707Y-109995000D01*
X179863976Y-109864725D01*
X179809302Y-109745004D01*
X179723112Y-109645536D01*
X179620657Y-109579692D01*
X179612390Y-109574379D01*
X179486107Y-109537300D01*
X179354493Y-109537300D01*
X179228210Y-109574379D01*
X179228209Y-109574379D01*
X179117486Y-109645537D01*
X179031298Y-109745003D01*
X178976624Y-109864724D01*
X178957893Y-109995000D01*
X177907707Y-109995000D01*
X177888976Y-109864725D01*
X177834302Y-109745004D01*
X177748112Y-109645536D01*
X177645657Y-109579692D01*
X177637390Y-109574379D01*
X177511107Y-109537300D01*
X177379493Y-109537300D01*
X177253210Y-109574379D01*
X177253209Y-109574379D01*
X177142486Y-109645537D01*
X177056298Y-109745003D01*
X177001624Y-109864724D01*
X176982893Y-109995000D01*
X171902800Y-109995000D01*
X171902800Y-109007500D01*
X175995393Y-109007500D01*
X176014124Y-109137775D01*
X176068798Y-109257496D01*
X176127182Y-109324875D01*
X176154988Y-109356964D01*
X176265709Y-109428120D01*
X176391993Y-109465200D01*
X176523607Y-109465200D01*
X176649891Y-109428120D01*
X176760612Y-109356964D01*
X176846802Y-109257496D01*
X176901476Y-109137775D01*
X176920207Y-109007500D01*
X177970393Y-109007500D01*
X177989124Y-109137775D01*
X178043798Y-109257496D01*
X178102182Y-109324875D01*
X178129988Y-109356964D01*
X178240709Y-109428120D01*
X178366993Y-109465200D01*
X178498607Y-109465200D01*
X178624891Y-109428120D01*
X178735612Y-109356964D01*
X178821802Y-109257496D01*
X178876476Y-109137775D01*
X178895207Y-109007500D01*
X179945393Y-109007500D01*
X179964124Y-109137775D01*
X180018798Y-109257496D01*
X180077182Y-109324875D01*
X180104988Y-109356964D01*
X180215709Y-109428120D01*
X180341993Y-109465200D01*
X180473607Y-109465200D01*
X180599891Y-109428120D01*
X180710612Y-109356964D01*
X180796802Y-109257496D01*
X180825525Y-109194600D01*
X183966993Y-109194600D01*
X183985724Y-109324875D01*
X184040398Y-109444596D01*
X184097828Y-109510874D01*
X184107834Y-109522421D01*
X184132036Y-109579692D01*
X184117953Y-109640250D01*
X184107834Y-109654179D01*
X184040397Y-109732005D01*
X183985724Y-109851724D01*
X183966993Y-109982000D01*
X183985724Y-110112275D01*
X184040398Y-110231996D01*
X184090584Y-110289914D01*
X184126588Y-110331464D01*
X184237309Y-110402620D01*
X184363593Y-110439700D01*
X184495207Y-110439700D01*
X184621491Y-110402620D01*
X184732212Y-110331464D01*
X184740396Y-110322018D01*
X184793639Y-110289914D01*
X184816423Y-110287300D01*
X185612591Y-110287300D01*
X185612593Y-110287300D01*
X185690241Y-110266494D01*
X185702137Y-110259626D01*
X185759859Y-110226300D01*
X188610701Y-107375459D01*
X188650894Y-107305841D01*
X188655112Y-107290100D01*
X188671700Y-107228193D01*
X188671700Y-97078800D01*
X199613393Y-97078800D01*
X199632124Y-97209075D01*
X199686798Y-97328796D01*
X199772988Y-97428264D01*
X199883709Y-97499420D01*
X200009993Y-97536500D01*
X200141607Y-97536500D01*
X200267891Y-97499420D01*
X200378612Y-97428264D01*
X200464802Y-97328796D01*
X200519476Y-97209075D01*
X200538207Y-97078800D01*
X200519476Y-96948525D01*
X200464802Y-96828804D01*
X200378612Y-96729336D01*
X200323251Y-96693758D01*
X200267890Y-96658179D01*
X200141607Y-96621100D01*
X200009993Y-96621100D01*
X199883710Y-96658179D01*
X199883709Y-96658179D01*
X199772986Y-96729337D01*
X199686798Y-96828803D01*
X199676799Y-96850700D01*
X199632124Y-96948525D01*
X199613393Y-97078800D01*
X188671700Y-97078800D01*
X188671700Y-94427529D01*
X188690913Y-94368398D01*
X188701165Y-94356394D01*
X190901794Y-92155765D01*
X190957192Y-92127539D01*
X190972929Y-92126300D01*
X194430977Y-92126300D01*
X194490108Y-92145513D01*
X194507002Y-92161017D01*
X194515188Y-92170464D01*
X194625909Y-92241620D01*
X194752193Y-92278700D01*
X194883807Y-92278700D01*
X195010091Y-92241620D01*
X195120812Y-92170464D01*
X195207002Y-92070996D01*
X195261676Y-91951275D01*
X195280407Y-91821000D01*
X195261676Y-91690725D01*
X195207002Y-91571004D01*
X195120812Y-91471536D01*
X195065451Y-91435958D01*
X195010090Y-91400379D01*
X194883807Y-91363300D01*
X194866809Y-91363300D01*
X194807678Y-91344087D01*
X194771133Y-91293787D01*
X194767233Y-91277017D01*
X194753676Y-91182725D01*
X194699002Y-91063004D01*
X194651081Y-91007700D01*
X194612813Y-90963537D01*
X194612812Y-90963536D01*
X194557451Y-90927958D01*
X194502090Y-90892379D01*
X194375807Y-90855300D01*
X194244193Y-90855300D01*
X194117910Y-90892379D01*
X194117909Y-90892379D01*
X194007187Y-90963536D01*
X193999004Y-90972981D01*
X193945761Y-91005086D01*
X193922977Y-91007700D01*
X190459802Y-91007700D01*
X190382165Y-91028503D01*
X190382156Y-91028507D01*
X190312543Y-91068696D01*
X190312542Y-91068697D01*
X187563301Y-93817939D01*
X187563300Y-93817941D01*
X187552123Y-93837300D01*
X187552122Y-93837300D01*
X187523107Y-93887556D01*
X187502300Y-93965204D01*
X187502300Y-98825087D01*
X187483087Y-98884218D01*
X187432787Y-98920763D01*
X187371608Y-98920763D01*
X187371595Y-98920807D01*
X187371445Y-98920763D01*
X187370613Y-98920763D01*
X187368057Y-98919768D01*
X187238407Y-98881700D01*
X187106793Y-98881700D01*
X186980510Y-98918779D01*
X186980509Y-98918779D01*
X186869786Y-98989937D01*
X186783598Y-99089403D01*
X186783598Y-99089404D01*
X186728924Y-99209125D01*
X186710193Y-99339400D01*
X186728924Y-99469675D01*
X186783598Y-99589396D01*
X186869788Y-99688864D01*
X186980509Y-99760020D01*
X187106793Y-99797100D01*
X187238407Y-99797100D01*
X187351338Y-99763940D01*
X187371595Y-99757993D01*
X187372412Y-99760776D01*
X187421638Y-99755108D01*
X187475789Y-99785659D01*
X187501640Y-99842204D01*
X187502300Y-99853712D01*
X187502300Y-106816671D01*
X187483087Y-106875802D01*
X187472835Y-106887806D01*
X185500806Y-108859835D01*
X185445408Y-108888061D01*
X185429671Y-108889300D01*
X184816423Y-108889300D01*
X184757292Y-108870087D01*
X184740396Y-108854581D01*
X184732212Y-108845136D01*
X184621490Y-108773979D01*
X184495207Y-108736900D01*
X184363593Y-108736900D01*
X184237310Y-108773979D01*
X184237309Y-108773979D01*
X184126586Y-108845137D01*
X184040398Y-108944603D01*
X184011675Y-109007500D01*
X183985724Y-109064325D01*
X183966993Y-109194600D01*
X180825525Y-109194600D01*
X180851476Y-109137775D01*
X180870207Y-109007500D01*
X180851476Y-108877225D01*
X180796802Y-108757504D01*
X180710612Y-108658036D01*
X180611294Y-108594208D01*
X180599890Y-108586879D01*
X180473607Y-108549800D01*
X180341993Y-108549800D01*
X180215710Y-108586879D01*
X180215709Y-108586879D01*
X180104986Y-108658037D01*
X180018798Y-108757503D01*
X179964124Y-108877224D01*
X179945393Y-109007500D01*
X178895207Y-109007500D01*
X178876476Y-108877225D01*
X178821802Y-108757504D01*
X178735612Y-108658036D01*
X178636294Y-108594208D01*
X178624890Y-108586879D01*
X178498607Y-108549800D01*
X178366993Y-108549800D01*
X178240710Y-108586879D01*
X178240709Y-108586879D01*
X178129986Y-108658037D01*
X178043798Y-108757503D01*
X177989124Y-108877224D01*
X177970393Y-109007500D01*
X176920207Y-109007500D01*
X176901476Y-108877225D01*
X176846802Y-108757504D01*
X176760612Y-108658036D01*
X176661294Y-108594208D01*
X176649890Y-108586879D01*
X176523607Y-108549800D01*
X176391993Y-108549800D01*
X176265710Y-108586879D01*
X176265709Y-108586879D01*
X176154986Y-108658037D01*
X176068798Y-108757503D01*
X176014124Y-108877224D01*
X175995393Y-109007500D01*
X171902800Y-109007500D01*
X171902800Y-108020000D01*
X176982893Y-108020000D01*
X177001624Y-108150275D01*
X177056298Y-108269996D01*
X177142488Y-108369464D01*
X177253209Y-108440620D01*
X177379493Y-108477700D01*
X177511107Y-108477700D01*
X177637391Y-108440620D01*
X177748112Y-108369464D01*
X177834302Y-108269996D01*
X177888976Y-108150275D01*
X177907707Y-108020000D01*
X178957893Y-108020000D01*
X178976624Y-108150275D01*
X179031298Y-108269996D01*
X179117488Y-108369464D01*
X179228209Y-108440620D01*
X179354493Y-108477700D01*
X179486107Y-108477700D01*
X179612391Y-108440620D01*
X179723112Y-108369464D01*
X179734432Y-108356400D01*
X181833393Y-108356400D01*
X181852124Y-108486675D01*
X181906798Y-108606396D01*
X181951544Y-108658036D01*
X181992988Y-108705864D01*
X182103709Y-108777020D01*
X182229993Y-108814100D01*
X182361607Y-108814100D01*
X182487891Y-108777020D01*
X182598612Y-108705864D01*
X182684802Y-108606396D01*
X182739476Y-108486675D01*
X182758207Y-108356400D01*
X182739476Y-108226125D01*
X182684802Y-108106404D01*
X182684799Y-108106400D01*
X182684612Y-108106108D01*
X182684538Y-108105827D01*
X182681813Y-108099860D01*
X182682846Y-108099388D01*
X182668812Y-108045975D01*
X182691374Y-107988039D01*
X182714854Y-107967101D01*
X182751012Y-107943864D01*
X182837202Y-107844396D01*
X182891876Y-107724675D01*
X182910607Y-107594400D01*
X182891876Y-107464125D01*
X182837202Y-107344404D01*
X182751012Y-107244936D01*
X182684545Y-107202220D01*
X182640290Y-107173779D01*
X182514007Y-107136700D01*
X182382393Y-107136700D01*
X182256110Y-107173779D01*
X182256109Y-107173779D01*
X182145386Y-107244937D01*
X182059198Y-107344403D01*
X182004524Y-107464124D01*
X181985793Y-107594400D01*
X182004524Y-107724675D01*
X182059199Y-107844398D01*
X182059385Y-107844687D01*
X182059457Y-107844963D01*
X182062187Y-107850940D01*
X182061152Y-107851412D01*
X182075188Y-107904819D01*
X182052627Y-107962756D01*
X182029143Y-107983700D01*
X181992986Y-108006937D01*
X181906798Y-108106403D01*
X181852124Y-108226124D01*
X181833393Y-108356400D01*
X179734432Y-108356400D01*
X179809302Y-108269996D01*
X179863976Y-108150275D01*
X179882707Y-108020000D01*
X179863976Y-107889725D01*
X179809302Y-107770004D01*
X179723112Y-107670536D01*
X179655303Y-107626958D01*
X179612390Y-107599379D01*
X179486107Y-107562300D01*
X179354493Y-107562300D01*
X179228210Y-107599379D01*
X179228209Y-107599379D01*
X179117486Y-107670537D01*
X179031298Y-107770003D01*
X178976624Y-107889724D01*
X178971169Y-107927663D01*
X178957893Y-108020000D01*
X177907707Y-108020000D01*
X177888976Y-107889725D01*
X177834302Y-107770004D01*
X177748112Y-107670536D01*
X177680303Y-107626958D01*
X177637390Y-107599379D01*
X177511107Y-107562300D01*
X177379493Y-107562300D01*
X177253210Y-107599379D01*
X177253209Y-107599379D01*
X177142486Y-107670537D01*
X177056298Y-107770003D01*
X177001624Y-107889724D01*
X176996169Y-107927663D01*
X176982893Y-108020000D01*
X171902800Y-108020000D01*
X171902800Y-105156000D01*
X180334793Y-105156000D01*
X180353524Y-105286275D01*
X180408198Y-105405996D01*
X180472378Y-105480064D01*
X180494388Y-105505464D01*
X180605109Y-105576620D01*
X180731393Y-105613700D01*
X180863007Y-105613700D01*
X180989291Y-105576620D01*
X181100012Y-105505464D01*
X181151278Y-105446300D01*
X181204517Y-105414195D01*
X181266464Y-105419515D01*
X181303332Y-105446301D01*
X181332588Y-105480064D01*
X181443309Y-105551220D01*
X181569593Y-105588300D01*
X181701207Y-105588300D01*
X181827491Y-105551220D01*
X181938212Y-105480064D01*
X182024402Y-105380596D01*
X182079076Y-105260875D01*
X182097807Y-105130600D01*
X182079076Y-105000325D01*
X182024402Y-104880604D01*
X181938212Y-104781136D01*
X181848840Y-104723700D01*
X181827490Y-104709979D01*
X181701207Y-104672900D01*
X181569593Y-104672900D01*
X181443310Y-104709979D01*
X181443309Y-104709979D01*
X181332588Y-104781136D01*
X181281565Y-104840020D01*
X181281323Y-104840299D01*
X181228080Y-104872405D01*
X181166134Y-104867084D01*
X181129267Y-104840298D01*
X181100013Y-104806537D01*
X181100012Y-104806536D01*
X181028813Y-104760779D01*
X180989290Y-104735379D01*
X180863007Y-104698300D01*
X180731393Y-104698300D01*
X180605110Y-104735379D01*
X180605109Y-104735379D01*
X180494386Y-104806537D01*
X180408198Y-104906003D01*
X180353524Y-105025724D01*
X180334793Y-105156000D01*
X171902800Y-105156000D01*
X171902800Y-100587999D01*
X172633964Y-100587999D01*
X172633964Y-100588000D01*
X173531588Y-100588000D01*
X173498675Y-100645007D01*
X173464600Y-100772174D01*
X173464600Y-100903826D01*
X173498675Y-101030993D01*
X173531588Y-101088000D01*
X172633964Y-101088000D01*
X172691170Y-101301494D01*
X172790997Y-101515573D01*
X172791002Y-101515581D01*
X172926492Y-101709080D01*
X173093519Y-101876107D01*
X173287018Y-102011597D01*
X173287026Y-102011602D01*
X173501105Y-102111429D01*
X173714599Y-102168634D01*
X173714600Y-102168634D01*
X173714600Y-101271012D01*
X173771607Y-101303925D01*
X173898774Y-101338000D01*
X174030426Y-101338000D01*
X174157593Y-101303925D01*
X174214600Y-101271012D01*
X174214600Y-102168634D01*
X174428094Y-102111429D01*
X174642173Y-102011602D01*
X174642181Y-102011597D01*
X174835680Y-101876107D01*
X175002707Y-101709080D01*
X175138197Y-101515581D01*
X175138202Y-101515573D01*
X175238029Y-101301494D01*
X175290399Y-101106051D01*
X175324261Y-101053907D01*
X175382306Y-101031626D01*
X175442362Y-101047718D01*
X175481489Y-101096036D01*
X175483839Y-101102886D01*
X175526395Y-101243179D01*
X175526398Y-101243186D01*
X175624237Y-101426230D01*
X175624242Y-101426237D01*
X175755916Y-101586682D01*
X175755917Y-101586683D01*
X175916362Y-101718357D01*
X175916369Y-101718362D01*
X176099413Y-101816201D01*
X176099420Y-101816204D01*
X176261058Y-101865235D01*
X176298039Y-101876453D01*
X176504600Y-101896798D01*
X176711161Y-101876453D01*
X176810472Y-101846327D01*
X176909779Y-101816204D01*
X176909786Y-101816201D01*
X177092830Y-101718362D01*
X177092831Y-101718360D01*
X177092837Y-101718358D01*
X177253283Y-101586683D01*
X177384958Y-101426237D01*
X177482802Y-101243184D01*
X177543053Y-101044561D01*
X177563398Y-100838000D01*
X177985802Y-100838000D01*
X178006147Y-101044561D01*
X178006147Y-101044563D01*
X178006148Y-101044566D01*
X178066395Y-101243179D01*
X178066398Y-101243186D01*
X178164237Y-101426230D01*
X178164242Y-101426237D01*
X178295916Y-101586682D01*
X178295917Y-101586683D01*
X178456362Y-101718357D01*
X178456369Y-101718362D01*
X178639413Y-101816201D01*
X178639420Y-101816204D01*
X178801058Y-101865235D01*
X178838039Y-101876453D01*
X179044600Y-101896798D01*
X179251161Y-101876453D01*
X179350472Y-101846327D01*
X179449779Y-101816204D01*
X179449786Y-101816201D01*
X179632830Y-101718362D01*
X179632831Y-101718360D01*
X179632837Y-101718358D01*
X179793283Y-101586683D01*
X179924958Y-101426237D01*
X180022802Y-101243184D01*
X180083053Y-101044561D01*
X180103398Y-100838000D01*
X180083053Y-100631439D01*
X180064400Y-100569948D01*
X180022804Y-100432820D01*
X180022801Y-100432813D01*
X179924962Y-100249769D01*
X179924957Y-100249762D01*
X179793283Y-100089317D01*
X179793282Y-100089316D01*
X179645380Y-99967936D01*
X180530900Y-99967936D01*
X180530900Y-101708064D01*
X180532948Y-101718358D01*
X180542718Y-101767479D01*
X180542719Y-101767480D01*
X180587740Y-101834860D01*
X180655120Y-101879881D01*
X180714536Y-101891700D01*
X180714537Y-101891700D01*
X182454663Y-101891700D01*
X182454664Y-101891700D01*
X182514080Y-101879881D01*
X182581460Y-101834860D01*
X182626481Y-101767480D01*
X182638300Y-101708064D01*
X182638300Y-99967936D01*
X182626481Y-99908520D01*
X182581460Y-99841140D01*
X182519212Y-99799548D01*
X182514079Y-99796118D01*
X182466482Y-99786650D01*
X182454664Y-99784300D01*
X180714536Y-99784300D01*
X180707704Y-99785659D01*
X180655120Y-99796118D01*
X180587740Y-99841140D01*
X180542718Y-99908520D01*
X180532948Y-99957642D01*
X180530900Y-99967936D01*
X179645380Y-99967936D01*
X179632837Y-99957642D01*
X179632830Y-99957637D01*
X179449786Y-99859798D01*
X179449779Y-99859795D01*
X179251166Y-99799548D01*
X179251163Y-99799547D01*
X179251161Y-99799547D01*
X179044600Y-99779202D01*
X178838039Y-99799547D01*
X178838037Y-99799547D01*
X178838033Y-99799548D01*
X178639420Y-99859795D01*
X178639413Y-99859798D01*
X178456369Y-99957637D01*
X178456362Y-99957642D01*
X178295917Y-100089316D01*
X178295916Y-100089317D01*
X178164242Y-100249762D01*
X178164237Y-100249769D01*
X178066398Y-100432813D01*
X178066395Y-100432820D01*
X178006148Y-100631433D01*
X178006147Y-100631437D01*
X178006147Y-100631439D01*
X177985802Y-100838000D01*
X177563398Y-100838000D01*
X177543053Y-100631439D01*
X177524400Y-100569948D01*
X177482804Y-100432820D01*
X177482801Y-100432813D01*
X177384962Y-100249769D01*
X177384957Y-100249762D01*
X177253283Y-100089317D01*
X177253282Y-100089316D01*
X177092837Y-99957642D01*
X177092830Y-99957637D01*
X176909786Y-99859798D01*
X176909779Y-99859795D01*
X176711166Y-99799548D01*
X176711163Y-99799547D01*
X176711161Y-99799547D01*
X176504600Y-99779202D01*
X176298039Y-99799547D01*
X176298037Y-99799547D01*
X176298033Y-99799548D01*
X176099420Y-99859795D01*
X176099413Y-99859798D01*
X175916369Y-99957637D01*
X175916362Y-99957642D01*
X175755917Y-100089316D01*
X175755916Y-100089317D01*
X175624242Y-100249762D01*
X175624237Y-100249769D01*
X175526398Y-100432813D01*
X175526395Y-100432821D01*
X175483839Y-100573113D01*
X175448289Y-100624121D01*
X175389546Y-100644492D01*
X175330049Y-100626444D01*
X175292524Y-100576871D01*
X175290399Y-100569948D01*
X175238029Y-100374505D01*
X175138202Y-100160427D01*
X175138197Y-100160419D01*
X175002707Y-99966919D01*
X174835680Y-99799892D01*
X174642181Y-99664402D01*
X174642173Y-99664397D01*
X174428094Y-99564570D01*
X174214600Y-99507364D01*
X174214600Y-100404988D01*
X174157593Y-100372075D01*
X174030426Y-100338000D01*
X173898774Y-100338000D01*
X173771607Y-100372075D01*
X173714600Y-100404988D01*
X173714600Y-99507364D01*
X173714599Y-99507364D01*
X173501105Y-99564570D01*
X173287027Y-99664397D01*
X173287019Y-99664402D01*
X173093519Y-99799892D01*
X172926492Y-99966919D01*
X172791002Y-100160419D01*
X172790997Y-100160427D01*
X172691170Y-100374505D01*
X172633964Y-100587999D01*
X171902800Y-100587999D01*
X171902800Y-96393000D01*
X177337593Y-96393000D01*
X177356324Y-96523275D01*
X177410998Y-96642996D01*
X177497188Y-96742464D01*
X177607909Y-96813620D01*
X177734193Y-96850700D01*
X177865807Y-96850700D01*
X177992091Y-96813620D01*
X178102812Y-96742464D01*
X178189002Y-96642996D01*
X178243676Y-96523275D01*
X178262407Y-96393000D01*
X178243676Y-96262725D01*
X178189002Y-96143004D01*
X178102812Y-96043536D01*
X178047451Y-96007958D01*
X177992090Y-95972379D01*
X177865807Y-95935300D01*
X177734193Y-95935300D01*
X177607910Y-95972379D01*
X177607909Y-95972379D01*
X177497186Y-96043537D01*
X177410998Y-96143003D01*
X177410998Y-96143004D01*
X177356324Y-96262725D01*
X177337593Y-96393000D01*
X171902800Y-96393000D01*
X171902800Y-93522800D01*
X175711993Y-93522800D01*
X175730724Y-93653075D01*
X175785398Y-93772796D01*
X175824516Y-93817941D01*
X175871588Y-93872264D01*
X175982309Y-93943420D01*
X176108593Y-93980500D01*
X176240207Y-93980500D01*
X176366491Y-93943420D01*
X176477212Y-93872264D01*
X176563402Y-93772796D01*
X176618076Y-93653075D01*
X176636807Y-93522800D01*
X176618076Y-93392525D01*
X176563402Y-93272804D01*
X176477212Y-93173336D01*
X176421851Y-93137758D01*
X176366490Y-93102179D01*
X176240207Y-93065100D01*
X176108593Y-93065100D01*
X175982310Y-93102179D01*
X175982309Y-93102179D01*
X175871586Y-93173337D01*
X175785398Y-93272803D01*
X175730724Y-93392524D01*
X175711993Y-93522800D01*
X171902800Y-93522800D01*
X171902800Y-92430600D01*
X174518193Y-92430600D01*
X174536924Y-92560875D01*
X174591598Y-92680596D01*
X174677788Y-92780064D01*
X174788509Y-92851220D01*
X174914793Y-92888300D01*
X175046407Y-92888300D01*
X175172691Y-92851220D01*
X175283412Y-92780064D01*
X175369602Y-92680596D01*
X175424276Y-92560875D01*
X175443007Y-92430600D01*
X175424276Y-92300325D01*
X175369602Y-92180604D01*
X175283412Y-92081136D01*
X175228051Y-92045558D01*
X175172690Y-92009979D01*
X175046407Y-91972900D01*
X174914793Y-91972900D01*
X174788510Y-92009979D01*
X174788509Y-92009979D01*
X174677786Y-92081137D01*
X174591598Y-92180603D01*
X174546800Y-92278700D01*
X174536924Y-92300325D01*
X174518193Y-92430600D01*
X171902800Y-92430600D01*
X171902800Y-90653000D01*
X166981400Y-90653000D01*
X166922269Y-90633787D01*
X166885724Y-90583487D01*
X166880800Y-90552400D01*
X166880800Y-89433400D01*
X171597193Y-89433400D01*
X171615924Y-89563675D01*
X171670598Y-89683396D01*
X171756788Y-89782864D01*
X171867509Y-89854020D01*
X171993793Y-89891100D01*
X172125407Y-89891100D01*
X172251691Y-89854020D01*
X172362412Y-89782864D01*
X172448602Y-89683396D01*
X172503276Y-89563675D01*
X172522007Y-89433400D01*
X172503276Y-89303125D01*
X172448602Y-89183404D01*
X172362412Y-89083936D01*
X172279535Y-89030674D01*
X172251690Y-89012779D01*
X172125407Y-88975700D01*
X171993793Y-88975700D01*
X171867510Y-89012779D01*
X171867509Y-89012779D01*
X171756786Y-89083937D01*
X171670598Y-89183403D01*
X171625800Y-89281500D01*
X171615924Y-89303125D01*
X171597193Y-89433400D01*
X166880800Y-89433400D01*
X166880800Y-88783895D01*
X166880816Y-88782102D01*
X166880820Y-88781828D01*
X166883235Y-88646418D01*
X166884241Y-88633920D01*
X166922986Y-88364444D01*
X166926037Y-88350422D01*
X166926268Y-88349635D01*
X167002481Y-88090076D01*
X167007495Y-88076635D01*
X167120216Y-87829810D01*
X167127083Y-87817234D01*
X167273788Y-87588958D01*
X167282375Y-87577486D01*
X167460080Y-87372403D01*
X167470203Y-87362280D01*
X167675286Y-87184575D01*
X167686758Y-87175988D01*
X167915034Y-87029283D01*
X167927610Y-87022416D01*
X168174440Y-86909692D01*
X168187876Y-86904681D01*
X168448224Y-86828236D01*
X168462244Y-86825186D01*
X168731720Y-86786441D01*
X168744218Y-86785435D01*
X168876534Y-86783076D01*
X168879903Y-86783016D01*
X168881696Y-86783000D01*
X177476093Y-86783000D01*
X177535224Y-86802213D01*
G37*
%TD.AperFunction*%
%TD*%
M02*
