%TF.GenerationSoftware,KiCad,Pcbnew,8.0.2*%
%TF.CreationDate,2024-08-19T18:08:16-05:00*%
%TF.ProjectId,tank,74616e6b-2e6b-4696-9361-645f70636258,rev?*%
%TF.SameCoordinates,Original*%
%TF.FileFunction,Legend,Top*%
%TF.FilePolarity,Positive*%
%FSLAX46Y46*%
G04 Gerber Fmt 4.6, Leading zero omitted, Abs format (unit mm)*
G04 Created by KiCad (PCBNEW 8.0.2) date 2024-08-19 18:08:16*
%MOMM*%
%LPD*%
G01*
G04 APERTURE LIST*
%ADD10C,0.101600*%
%ADD11C,0.150000*%
%ADD12C,0.127000*%
%ADD13C,0.125000*%
%ADD14C,0.200000*%
%ADD15C,0.120000*%
%ADD16C,0.050000*%
%ADD17C,0.100000*%
G04 APERTURE END LIST*
D10*
X201510613Y-106886261D02*
X201655756Y-106886261D01*
X201655756Y-106886261D02*
X201728327Y-106922547D01*
X201728327Y-106922547D02*
X201800899Y-106995118D01*
X201800899Y-106995118D02*
X201837184Y-107140261D01*
X201837184Y-107140261D02*
X201837184Y-107394261D01*
X201837184Y-107394261D02*
X201800899Y-107539404D01*
X201800899Y-107539404D02*
X201728327Y-107611976D01*
X201728327Y-107611976D02*
X201655756Y-107648261D01*
X201655756Y-107648261D02*
X201510613Y-107648261D01*
X201510613Y-107648261D02*
X201438042Y-107611976D01*
X201438042Y-107611976D02*
X201365470Y-107539404D01*
X201365470Y-107539404D02*
X201329184Y-107394261D01*
X201329184Y-107394261D02*
X201329184Y-107140261D01*
X201329184Y-107140261D02*
X201365470Y-106995118D01*
X201365470Y-106995118D02*
X201438042Y-106922547D01*
X201438042Y-106922547D02*
X201510613Y-106886261D01*
X202163756Y-107648261D02*
X202163756Y-106886261D01*
X202163756Y-106886261D02*
X202599185Y-107648261D01*
X202599185Y-107648261D02*
X202599185Y-106886261D01*
X201028013Y-117452661D02*
X201173156Y-117452661D01*
X201173156Y-117452661D02*
X201245727Y-117488947D01*
X201245727Y-117488947D02*
X201318299Y-117561518D01*
X201318299Y-117561518D02*
X201354584Y-117706661D01*
X201354584Y-117706661D02*
X201354584Y-117960661D01*
X201354584Y-117960661D02*
X201318299Y-118105804D01*
X201318299Y-118105804D02*
X201245727Y-118178376D01*
X201245727Y-118178376D02*
X201173156Y-118214661D01*
X201173156Y-118214661D02*
X201028013Y-118214661D01*
X201028013Y-118214661D02*
X200955442Y-118178376D01*
X200955442Y-118178376D02*
X200882870Y-118105804D01*
X200882870Y-118105804D02*
X200846584Y-117960661D01*
X200846584Y-117960661D02*
X200846584Y-117706661D01*
X200846584Y-117706661D02*
X200882870Y-117561518D01*
X200882870Y-117561518D02*
X200955442Y-117488947D01*
X200955442Y-117488947D02*
X201028013Y-117452661D01*
X201935156Y-117815518D02*
X201681156Y-117815518D01*
X201681156Y-118214661D02*
X201681156Y-117452661D01*
X201681156Y-117452661D02*
X202044013Y-117452661D01*
X202588299Y-117815518D02*
X202334299Y-117815518D01*
X202334299Y-118214661D02*
X202334299Y-117452661D01*
X202334299Y-117452661D02*
X202697156Y-117452661D01*
X173632299Y-97742261D02*
X173378299Y-97379404D01*
X173196870Y-97742261D02*
X173196870Y-96980261D01*
X173196870Y-96980261D02*
X173487156Y-96980261D01*
X173487156Y-96980261D02*
X173559727Y-97016547D01*
X173559727Y-97016547D02*
X173596013Y-97052833D01*
X173596013Y-97052833D02*
X173632299Y-97125404D01*
X173632299Y-97125404D02*
X173632299Y-97234261D01*
X173632299Y-97234261D02*
X173596013Y-97306833D01*
X173596013Y-97306833D02*
X173559727Y-97343118D01*
X173559727Y-97343118D02*
X173487156Y-97379404D01*
X173487156Y-97379404D02*
X173196870Y-97379404D01*
X173958870Y-97343118D02*
X174212870Y-97343118D01*
X174321727Y-97742261D02*
X173958870Y-97742261D01*
X173958870Y-97742261D02*
X173958870Y-96980261D01*
X173958870Y-96980261D02*
X174321727Y-96980261D01*
X174902299Y-97343118D02*
X174648299Y-97343118D01*
X174648299Y-97742261D02*
X174648299Y-96980261D01*
X174648299Y-96980261D02*
X175011156Y-96980261D01*
X201679061Y-122840129D02*
X200917061Y-122840129D01*
X200917061Y-122840129D02*
X200917061Y-122658700D01*
X200917061Y-122658700D02*
X200953347Y-122549843D01*
X200953347Y-122549843D02*
X201025918Y-122477272D01*
X201025918Y-122477272D02*
X201098490Y-122440986D01*
X201098490Y-122440986D02*
X201243633Y-122404700D01*
X201243633Y-122404700D02*
X201352490Y-122404700D01*
X201352490Y-122404700D02*
X201497633Y-122440986D01*
X201497633Y-122440986D02*
X201570204Y-122477272D01*
X201570204Y-122477272D02*
X201642776Y-122549843D01*
X201642776Y-122549843D02*
X201679061Y-122658700D01*
X201679061Y-122658700D02*
X201679061Y-122840129D01*
X200917061Y-121932986D02*
X200917061Y-121787843D01*
X200917061Y-121787843D02*
X200953347Y-121715272D01*
X200953347Y-121715272D02*
X201025918Y-121642700D01*
X201025918Y-121642700D02*
X201171061Y-121606415D01*
X201171061Y-121606415D02*
X201425061Y-121606415D01*
X201425061Y-121606415D02*
X201570204Y-121642700D01*
X201570204Y-121642700D02*
X201642776Y-121715272D01*
X201642776Y-121715272D02*
X201679061Y-121787843D01*
X201679061Y-121787843D02*
X201679061Y-121932986D01*
X201679061Y-121932986D02*
X201642776Y-122005558D01*
X201642776Y-122005558D02*
X201570204Y-122078129D01*
X201570204Y-122078129D02*
X201425061Y-122114415D01*
X201425061Y-122114415D02*
X201171061Y-122114415D01*
X201171061Y-122114415D02*
X201025918Y-122078129D01*
X201025918Y-122078129D02*
X200953347Y-122005558D01*
X200953347Y-122005558D02*
X200917061Y-121932986D01*
X201679061Y-121279843D02*
X200917061Y-121279843D01*
X200917061Y-121279843D02*
X201679061Y-120844414D01*
X201679061Y-120844414D02*
X200917061Y-120844414D01*
X201279918Y-120481557D02*
X201279918Y-120227557D01*
X201679061Y-120118700D02*
X201679061Y-120481557D01*
X201679061Y-120481557D02*
X200917061Y-120481557D01*
X200917061Y-120481557D02*
X200917061Y-120118700D01*
X197440890Y-122404700D02*
X197477176Y-122440986D01*
X197477176Y-122440986D02*
X197513461Y-122549843D01*
X197513461Y-122549843D02*
X197513461Y-122622415D01*
X197513461Y-122622415D02*
X197477176Y-122731272D01*
X197477176Y-122731272D02*
X197404604Y-122803843D01*
X197404604Y-122803843D02*
X197332033Y-122840129D01*
X197332033Y-122840129D02*
X197186890Y-122876415D01*
X197186890Y-122876415D02*
X197078033Y-122876415D01*
X197078033Y-122876415D02*
X196932890Y-122840129D01*
X196932890Y-122840129D02*
X196860318Y-122803843D01*
X196860318Y-122803843D02*
X196787747Y-122731272D01*
X196787747Y-122731272D02*
X196751461Y-122622415D01*
X196751461Y-122622415D02*
X196751461Y-122549843D01*
X196751461Y-122549843D02*
X196787747Y-122440986D01*
X196787747Y-122440986D02*
X196824033Y-122404700D01*
X197513461Y-122078129D02*
X196751461Y-122078129D01*
X197114318Y-122078129D02*
X197114318Y-121642700D01*
X197513461Y-121642700D02*
X196751461Y-121642700D01*
X197513461Y-120844414D02*
X197150604Y-121098414D01*
X197513461Y-121279843D02*
X196751461Y-121279843D01*
X196751461Y-121279843D02*
X196751461Y-120989557D01*
X196751461Y-120989557D02*
X196787747Y-120916986D01*
X196787747Y-120916986D02*
X196824033Y-120880700D01*
X196824033Y-120880700D02*
X196896604Y-120844414D01*
X196896604Y-120844414D02*
X197005461Y-120844414D01*
X197005461Y-120844414D02*
X197078033Y-120880700D01*
X197078033Y-120880700D02*
X197114318Y-120916986D01*
X197114318Y-120916986D02*
X197150604Y-120989557D01*
X197150604Y-120989557D02*
X197150604Y-121279843D01*
X196787747Y-120118700D02*
X196751461Y-120191272D01*
X196751461Y-120191272D02*
X196751461Y-120300129D01*
X196751461Y-120300129D02*
X196787747Y-120408986D01*
X196787747Y-120408986D02*
X196860318Y-120481557D01*
X196860318Y-120481557D02*
X196932890Y-120517843D01*
X196932890Y-120517843D02*
X197078033Y-120554129D01*
X197078033Y-120554129D02*
X197186890Y-120554129D01*
X197186890Y-120554129D02*
X197332033Y-120517843D01*
X197332033Y-120517843D02*
X197404604Y-120481557D01*
X197404604Y-120481557D02*
X197477176Y-120408986D01*
X197477176Y-120408986D02*
X197513461Y-120300129D01*
X197513461Y-120300129D02*
X197513461Y-120227557D01*
X197513461Y-120227557D02*
X197477176Y-120118700D01*
X197477176Y-120118700D02*
X197440890Y-120082414D01*
X197440890Y-120082414D02*
X197186890Y-120082414D01*
X197186890Y-120082414D02*
X197186890Y-120227557D01*
X173149699Y-97996261D02*
X173621413Y-97996261D01*
X173621413Y-97996261D02*
X173367413Y-98286547D01*
X173367413Y-98286547D02*
X173476270Y-98286547D01*
X173476270Y-98286547D02*
X173548842Y-98322833D01*
X173548842Y-98322833D02*
X173585127Y-98359118D01*
X173585127Y-98359118D02*
X173621413Y-98431690D01*
X173621413Y-98431690D02*
X173621413Y-98613118D01*
X173621413Y-98613118D02*
X173585127Y-98685690D01*
X173585127Y-98685690D02*
X173548842Y-98721976D01*
X173548842Y-98721976D02*
X173476270Y-98758261D01*
X173476270Y-98758261D02*
X173258556Y-98758261D01*
X173258556Y-98758261D02*
X173185984Y-98721976D01*
X173185984Y-98721976D02*
X173149699Y-98685690D01*
X173875413Y-98250261D02*
X174056841Y-98758261D01*
X174056841Y-98758261D02*
X174238270Y-98250261D01*
X174455984Y-97996261D02*
X174927698Y-97996261D01*
X174927698Y-97996261D02*
X174673698Y-98286547D01*
X174673698Y-98286547D02*
X174782555Y-98286547D01*
X174782555Y-98286547D02*
X174855127Y-98322833D01*
X174855127Y-98322833D02*
X174891412Y-98359118D01*
X174891412Y-98359118D02*
X174927698Y-98431690D01*
X174927698Y-98431690D02*
X174927698Y-98613118D01*
X174927698Y-98613118D02*
X174891412Y-98685690D01*
X174891412Y-98685690D02*
X174855127Y-98721976D01*
X174855127Y-98721976D02*
X174782555Y-98758261D01*
X174782555Y-98758261D02*
X174564841Y-98758261D01*
X174564841Y-98758261D02*
X174492269Y-98721976D01*
X174492269Y-98721976D02*
X174455984Y-98685690D01*
X189997729Y-101861824D02*
X189417158Y-101861824D01*
X189707443Y-101571538D02*
X189707443Y-102152109D01*
X189189518Y-106787329D02*
X189225804Y-106678472D01*
X189225804Y-106678472D02*
X189262090Y-106642186D01*
X189262090Y-106642186D02*
X189334661Y-106605900D01*
X189334661Y-106605900D02*
X189443518Y-106605900D01*
X189443518Y-106605900D02*
X189516090Y-106642186D01*
X189516090Y-106642186D02*
X189552376Y-106678472D01*
X189552376Y-106678472D02*
X189588661Y-106751043D01*
X189588661Y-106751043D02*
X189588661Y-107041329D01*
X189588661Y-107041329D02*
X188826661Y-107041329D01*
X188826661Y-107041329D02*
X188826661Y-106787329D01*
X188826661Y-106787329D02*
X188862947Y-106714758D01*
X188862947Y-106714758D02*
X188899233Y-106678472D01*
X188899233Y-106678472D02*
X188971804Y-106642186D01*
X188971804Y-106642186D02*
X189044376Y-106642186D01*
X189044376Y-106642186D02*
X189116947Y-106678472D01*
X189116947Y-106678472D02*
X189153233Y-106714758D01*
X189153233Y-106714758D02*
X189189518Y-106787329D01*
X189189518Y-106787329D02*
X189189518Y-107041329D01*
X188826661Y-106134186D02*
X188826661Y-105989043D01*
X188826661Y-105989043D02*
X188862947Y-105916472D01*
X188862947Y-105916472D02*
X188935518Y-105843900D01*
X188935518Y-105843900D02*
X189080661Y-105807615D01*
X189080661Y-105807615D02*
X189334661Y-105807615D01*
X189334661Y-105807615D02*
X189479804Y-105843900D01*
X189479804Y-105843900D02*
X189552376Y-105916472D01*
X189552376Y-105916472D02*
X189588661Y-105989043D01*
X189588661Y-105989043D02*
X189588661Y-106134186D01*
X189588661Y-106134186D02*
X189552376Y-106206758D01*
X189552376Y-106206758D02*
X189479804Y-106279329D01*
X189479804Y-106279329D02*
X189334661Y-106315615D01*
X189334661Y-106315615D02*
X189080661Y-106315615D01*
X189080661Y-106315615D02*
X188935518Y-106279329D01*
X188935518Y-106279329D02*
X188862947Y-106206758D01*
X188862947Y-106206758D02*
X188826661Y-106134186D01*
X188826661Y-105335900D02*
X188826661Y-105190757D01*
X188826661Y-105190757D02*
X188862947Y-105118186D01*
X188862947Y-105118186D02*
X188935518Y-105045614D01*
X188935518Y-105045614D02*
X189080661Y-105009329D01*
X189080661Y-105009329D02*
X189334661Y-105009329D01*
X189334661Y-105009329D02*
X189479804Y-105045614D01*
X189479804Y-105045614D02*
X189552376Y-105118186D01*
X189552376Y-105118186D02*
X189588661Y-105190757D01*
X189588661Y-105190757D02*
X189588661Y-105335900D01*
X189588661Y-105335900D02*
X189552376Y-105408472D01*
X189552376Y-105408472D02*
X189479804Y-105481043D01*
X189479804Y-105481043D02*
X189334661Y-105517329D01*
X189334661Y-105517329D02*
X189080661Y-105517329D01*
X189080661Y-105517329D02*
X188935518Y-105481043D01*
X188935518Y-105481043D02*
X188862947Y-105408472D01*
X188862947Y-105408472D02*
X188826661Y-105335900D01*
X188826661Y-104791614D02*
X188826661Y-104356186D01*
X189588661Y-104573900D02*
X188826661Y-104573900D01*
X175932813Y-97981747D02*
X175860242Y-97945461D01*
X175860242Y-97945461D02*
X175751384Y-97945461D01*
X175751384Y-97945461D02*
X175642527Y-97981747D01*
X175642527Y-97981747D02*
X175569956Y-98054318D01*
X175569956Y-98054318D02*
X175533670Y-98126890D01*
X175533670Y-98126890D02*
X175497384Y-98272033D01*
X175497384Y-98272033D02*
X175497384Y-98380890D01*
X175497384Y-98380890D02*
X175533670Y-98526033D01*
X175533670Y-98526033D02*
X175569956Y-98598604D01*
X175569956Y-98598604D02*
X175642527Y-98671176D01*
X175642527Y-98671176D02*
X175751384Y-98707461D01*
X175751384Y-98707461D02*
X175823956Y-98707461D01*
X175823956Y-98707461D02*
X175932813Y-98671176D01*
X175932813Y-98671176D02*
X175969099Y-98634890D01*
X175969099Y-98634890D02*
X175969099Y-98380890D01*
X175969099Y-98380890D02*
X175823956Y-98380890D01*
X176295670Y-98707461D02*
X176295670Y-97945461D01*
X176295670Y-97945461D02*
X176731099Y-98707461D01*
X176731099Y-98707461D02*
X176731099Y-97945461D01*
X177093956Y-98707461D02*
X177093956Y-97945461D01*
X177093956Y-97945461D02*
X177275385Y-97945461D01*
X177275385Y-97945461D02*
X177384242Y-97981747D01*
X177384242Y-97981747D02*
X177456813Y-98054318D01*
X177456813Y-98054318D02*
X177493099Y-98126890D01*
X177493099Y-98126890D02*
X177529385Y-98272033D01*
X177529385Y-98272033D02*
X177529385Y-98380890D01*
X177529385Y-98380890D02*
X177493099Y-98526033D01*
X177493099Y-98526033D02*
X177456813Y-98598604D01*
X177456813Y-98598604D02*
X177384242Y-98671176D01*
X177384242Y-98671176D02*
X177275385Y-98707461D01*
X177275385Y-98707461D02*
X177093956Y-98707461D01*
X171351461Y-127306900D02*
X170988604Y-127560900D01*
X171351461Y-127742329D02*
X170589461Y-127742329D01*
X170589461Y-127742329D02*
X170589461Y-127452043D01*
X170589461Y-127452043D02*
X170625747Y-127379472D01*
X170625747Y-127379472D02*
X170662033Y-127343186D01*
X170662033Y-127343186D02*
X170734604Y-127306900D01*
X170734604Y-127306900D02*
X170843461Y-127306900D01*
X170843461Y-127306900D02*
X170916033Y-127343186D01*
X170916033Y-127343186D02*
X170952318Y-127379472D01*
X170952318Y-127379472D02*
X170988604Y-127452043D01*
X170988604Y-127452043D02*
X170988604Y-127742329D01*
X170952318Y-126980329D02*
X170952318Y-126726329D01*
X171351461Y-126617472D02*
X171351461Y-126980329D01*
X171351461Y-126980329D02*
X170589461Y-126980329D01*
X170589461Y-126980329D02*
X170589461Y-126617472D01*
X171315176Y-126327186D02*
X171351461Y-126218329D01*
X171351461Y-126218329D02*
X171351461Y-126036900D01*
X171351461Y-126036900D02*
X171315176Y-125964329D01*
X171315176Y-125964329D02*
X171278890Y-125928043D01*
X171278890Y-125928043D02*
X171206318Y-125891757D01*
X171206318Y-125891757D02*
X171133747Y-125891757D01*
X171133747Y-125891757D02*
X171061176Y-125928043D01*
X171061176Y-125928043D02*
X171024890Y-125964329D01*
X171024890Y-125964329D02*
X170988604Y-126036900D01*
X170988604Y-126036900D02*
X170952318Y-126182043D01*
X170952318Y-126182043D02*
X170916033Y-126254614D01*
X170916033Y-126254614D02*
X170879747Y-126290900D01*
X170879747Y-126290900D02*
X170807176Y-126327186D01*
X170807176Y-126327186D02*
X170734604Y-126327186D01*
X170734604Y-126327186D02*
X170662033Y-126290900D01*
X170662033Y-126290900D02*
X170625747Y-126254614D01*
X170625747Y-126254614D02*
X170589461Y-126182043D01*
X170589461Y-126182043D02*
X170589461Y-126000614D01*
X170589461Y-126000614D02*
X170625747Y-125891757D01*
X170952318Y-125565186D02*
X170952318Y-125311186D01*
X171351461Y-125202329D02*
X171351461Y-125565186D01*
X171351461Y-125565186D02*
X170589461Y-125565186D01*
X170589461Y-125565186D02*
X170589461Y-125202329D01*
X170589461Y-124984614D02*
X170589461Y-124549186D01*
X171351461Y-124766900D02*
X170589461Y-124766900D01*
X181125299Y-98707461D02*
X180871299Y-98344604D01*
X180689870Y-98707461D02*
X180689870Y-97945461D01*
X180689870Y-97945461D02*
X180980156Y-97945461D01*
X180980156Y-97945461D02*
X181052727Y-97981747D01*
X181052727Y-97981747D02*
X181089013Y-98018033D01*
X181089013Y-98018033D02*
X181125299Y-98090604D01*
X181125299Y-98090604D02*
X181125299Y-98199461D01*
X181125299Y-98199461D02*
X181089013Y-98272033D01*
X181089013Y-98272033D02*
X181052727Y-98308318D01*
X181052727Y-98308318D02*
X180980156Y-98344604D01*
X180980156Y-98344604D02*
X180689870Y-98344604D01*
X181379299Y-97945461D02*
X181887299Y-98707461D01*
X181887299Y-97945461D02*
X181379299Y-98707461D01*
X182177584Y-98707461D02*
X182177584Y-97945461D01*
X182177584Y-97945461D02*
X182359013Y-97945461D01*
X182359013Y-97945461D02*
X182467870Y-97981747D01*
X182467870Y-97981747D02*
X182540441Y-98054318D01*
X182540441Y-98054318D02*
X182576727Y-98126890D01*
X182576727Y-98126890D02*
X182613013Y-98272033D01*
X182613013Y-98272033D02*
X182613013Y-98380890D01*
X182613013Y-98380890D02*
X182576727Y-98526033D01*
X182576727Y-98526033D02*
X182540441Y-98598604D01*
X182540441Y-98598604D02*
X182467870Y-98671176D01*
X182467870Y-98671176D02*
X182359013Y-98707461D01*
X182359013Y-98707461D02*
X182177584Y-98707461D01*
G36*
X168884600Y-132045347D02*
G01*
X168548603Y-132284068D01*
X168548603Y-132493507D01*
X168884600Y-132493507D01*
X168884600Y-132677883D01*
X167869663Y-132677883D01*
X167869663Y-132298461D01*
X167869916Y-132287046D01*
X168038406Y-132287046D01*
X168038406Y-132493507D01*
X168379861Y-132493507D01*
X168379861Y-132291264D01*
X168377842Y-132234391D01*
X168370592Y-132180065D01*
X168356131Y-132132556D01*
X168337675Y-132102422D01*
X168294881Y-132070609D01*
X168245363Y-132056359D01*
X168201689Y-132053288D01*
X168148724Y-132058183D01*
X168100521Y-132076980D01*
X168073147Y-132103414D01*
X168051976Y-132152734D01*
X168042511Y-132205113D01*
X168038948Y-132254972D01*
X168038406Y-132287046D01*
X167869916Y-132287046D01*
X167870900Y-132242615D01*
X167874611Y-132190841D01*
X167882728Y-132131848D01*
X167894710Y-132079217D01*
X167914191Y-132024456D01*
X167939237Y-131978855D01*
X167948823Y-131965691D01*
X167987992Y-131926240D01*
X168036232Y-131896480D01*
X168084802Y-131878683D01*
X168140037Y-131868005D01*
X168191157Y-131864544D01*
X168201937Y-131864445D01*
X168262300Y-131867741D01*
X168316707Y-131877628D01*
X168365158Y-131894107D01*
X168417347Y-131923975D01*
X168460231Y-131964142D01*
X168493809Y-132014608D01*
X168513971Y-132062396D01*
X168518081Y-132075373D01*
X168884600Y-131811341D01*
X168884600Y-132045347D01*
G37*
G36*
X168884600Y-131209079D02*
G01*
X168797002Y-131209079D01*
X168835582Y-131249140D01*
X168864686Y-131296800D01*
X168882091Y-131343701D01*
X168892534Y-131396185D01*
X168896014Y-131454252D01*
X168892701Y-131505478D01*
X168880802Y-131559195D01*
X168860248Y-131607763D01*
X168831040Y-131651181D01*
X168826780Y-131656247D01*
X168789232Y-131691422D01*
X168745821Y-131716547D01*
X168696548Y-131731622D01*
X168641412Y-131736648D01*
X168586896Y-131731297D01*
X168539732Y-131715245D01*
X168495460Y-131684394D01*
X168467458Y-131651036D01*
X168442271Y-131604569D01*
X168424280Y-131550783D01*
X168414441Y-131497714D01*
X168410393Y-131447766D01*
X168409887Y-131421248D01*
X168409887Y-131395688D01*
X168537188Y-131395688D01*
X168540730Y-131451770D01*
X168553816Y-131502533D01*
X168584808Y-131544593D01*
X168637938Y-131560709D01*
X168688389Y-131547989D01*
X168717098Y-131520508D01*
X168737570Y-131471933D01*
X168744154Y-131420131D01*
X168744394Y-131406607D01*
X168738636Y-131353867D01*
X168721363Y-131306571D01*
X168703449Y-131278065D01*
X168665595Y-131242718D01*
X168618566Y-131225391D01*
X168593767Y-131223472D01*
X168537188Y-131223472D01*
X168537188Y-131395688D01*
X168409887Y-131395688D01*
X168409887Y-131221983D01*
X168389291Y-131221983D01*
X168333306Y-131229678D01*
X168286161Y-131257315D01*
X168256977Y-131305053D01*
X168246874Y-131354048D01*
X168245611Y-131382785D01*
X168250621Y-131435377D01*
X168265650Y-131489924D01*
X168287018Y-131539255D01*
X168311440Y-131582730D01*
X168325764Y-131604879D01*
X168213352Y-131685280D01*
X168179824Y-131638603D01*
X168151978Y-131590387D01*
X168129815Y-131540632D01*
X168113335Y-131489338D01*
X168102538Y-131436506D01*
X168097424Y-131382134D01*
X168096969Y-131359955D01*
X168099429Y-131310239D01*
X168108518Y-131256648D01*
X168124304Y-131207807D01*
X168150546Y-131157805D01*
X168166948Y-131135130D01*
X168206900Y-131096806D01*
X168256778Y-131069432D01*
X168308564Y-131054462D01*
X168359001Y-131048303D01*
X168386313Y-131047533D01*
X168884600Y-131047533D01*
X168884600Y-131209079D01*
G37*
G36*
X168896014Y-130499368D02*
G01*
X168892141Y-130558462D01*
X168880521Y-130614397D01*
X168861153Y-130667175D01*
X168834039Y-130716795D01*
X168799177Y-130763256D01*
X168785836Y-130778041D01*
X168742145Y-130817677D01*
X168693710Y-130849113D01*
X168640528Y-130872348D01*
X168592584Y-130885446D01*
X168541345Y-130892850D01*
X168497981Y-130894672D01*
X168444003Y-130891697D01*
X168393273Y-130882773D01*
X168345790Y-130867900D01*
X168293096Y-130842199D01*
X168245079Y-130807931D01*
X168208637Y-130772830D01*
X168176467Y-130733470D01*
X168149750Y-130691541D01*
X168124886Y-130637836D01*
X168110164Y-130590256D01*
X168100895Y-130540107D01*
X168097078Y-130487390D01*
X168096969Y-130476538D01*
X168100047Y-130423132D01*
X168109280Y-130372102D01*
X168124668Y-130323446D01*
X168146211Y-130277164D01*
X168173910Y-130233258D01*
X168207764Y-130191727D01*
X168223030Y-130175779D01*
X168350579Y-130279755D01*
X168315867Y-130324343D01*
X168289680Y-130368433D01*
X168270193Y-130418210D01*
X168261841Y-130467336D01*
X168261493Y-130479516D01*
X168266577Y-130532052D01*
X168281829Y-130580505D01*
X168307248Y-130624876D01*
X168325764Y-130647762D01*
X168364761Y-130682069D01*
X168409724Y-130705149D01*
X168460655Y-130717001D01*
X168491529Y-130718733D01*
X168546305Y-130713159D01*
X168596174Y-130696435D01*
X168641135Y-130668561D01*
X168663993Y-130648258D01*
X168698061Y-130605925D01*
X168720979Y-130558488D01*
X168732748Y-130505947D01*
X168734468Y-130474553D01*
X168728156Y-130423263D01*
X168709219Y-130372625D01*
X168682293Y-130328851D01*
X168645701Y-130285575D01*
X168633471Y-130273303D01*
X168748365Y-130168335D01*
X168782970Y-130205534D01*
X168819738Y-130253713D01*
X168849297Y-130303757D01*
X168871646Y-130355668D01*
X168886786Y-130409444D01*
X168894717Y-130465087D01*
X168896014Y-130499368D01*
G37*
G36*
X168574411Y-129897851D02*
G01*
X168624382Y-129885369D01*
X168668212Y-129855370D01*
X168694020Y-129825639D01*
X168719799Y-129781490D01*
X168736031Y-129733416D01*
X168742714Y-129681416D01*
X168742905Y-129670545D01*
X168739590Y-129620495D01*
X168727343Y-129567550D01*
X168706071Y-129520471D01*
X168675774Y-129479259D01*
X168648608Y-129453413D01*
X168761020Y-129350926D01*
X168799910Y-129393359D01*
X168832209Y-129439233D01*
X168857916Y-129488548D01*
X168877031Y-129541305D01*
X168889555Y-129597502D01*
X168895487Y-129657140D01*
X168896014Y-129681959D01*
X168893361Y-129731798D01*
X168883171Y-129788469D01*
X168865339Y-129841721D01*
X168839865Y-129891553D01*
X168806749Y-129937965D01*
X168787324Y-129959888D01*
X168743957Y-129998766D01*
X168695373Y-130029599D01*
X168641572Y-130052389D01*
X168592752Y-130065237D01*
X168540310Y-130072498D01*
X168495747Y-130074286D01*
X168440425Y-130071438D01*
X168388761Y-130062896D01*
X168340757Y-130048659D01*
X168287983Y-130024057D01*
X168240477Y-129991255D01*
X168204915Y-129957655D01*
X168168230Y-129912461D01*
X168139135Y-129864354D01*
X168117631Y-129813333D01*
X168103716Y-129759398D01*
X168097391Y-129702549D01*
X168096969Y-129682952D01*
X168097230Y-129678485D01*
X168250078Y-129678485D01*
X168255119Y-129729962D01*
X168270240Y-129777998D01*
X168295443Y-129822592D01*
X168301693Y-129831098D01*
X168336667Y-129866561D01*
X168381408Y-129890400D01*
X168432717Y-129898347D01*
X168432717Y-129478228D01*
X168379017Y-129485031D01*
X168333586Y-129505439D01*
X168299460Y-129535799D01*
X168271345Y-129578634D01*
X168254901Y-129627978D01*
X168250078Y-129678485D01*
X168097230Y-129678485D01*
X168100337Y-129625240D01*
X168110439Y-129570842D01*
X168127276Y-129519760D01*
X168150849Y-129471993D01*
X168181156Y-129427541D01*
X168192755Y-129413460D01*
X168231138Y-129375679D01*
X168274633Y-129345715D01*
X168323241Y-129323568D01*
X168376961Y-129309237D01*
X168435793Y-129302723D01*
X168456539Y-129302289D01*
X168574411Y-129302289D01*
X168574411Y-129897851D01*
G37*
G36*
X168274149Y-128740476D02*
G01*
X168278817Y-128794262D01*
X168295229Y-128846319D01*
X168323458Y-128889424D01*
X168348842Y-128913188D01*
X168395018Y-128941258D01*
X168443051Y-128958497D01*
X168497660Y-128968477D01*
X168550837Y-128971256D01*
X168884600Y-128971256D01*
X168884600Y-129147195D01*
X168108384Y-129147195D01*
X168108384Y-128971256D01*
X168237671Y-128971256D01*
X168197650Y-128941570D01*
X168162894Y-128902742D01*
X168145358Y-128878696D01*
X168120350Y-128834314D01*
X168104259Y-128786783D01*
X168097085Y-128736101D01*
X168096721Y-128725587D01*
X168274149Y-128724098D01*
X168274149Y-128740476D01*
G37*
G36*
X170591480Y-132496733D02*
G01*
X169815264Y-132808907D01*
X169815264Y-132626020D01*
X170376333Y-132399954D01*
X169815264Y-132173889D01*
X169815264Y-131990754D01*
X170591480Y-132302927D01*
X170591480Y-132496733D01*
G37*
G36*
X170135638Y-131090343D02*
G01*
X170190763Y-131095193D01*
X170242932Y-131103278D01*
X170292148Y-131114596D01*
X170349512Y-131133291D01*
X170402260Y-131157038D01*
X170450391Y-131185838D01*
X170459463Y-131192205D01*
X170500784Y-131227105D01*
X170535101Y-131267130D01*
X170562414Y-131312280D01*
X170582724Y-131362556D01*
X170596031Y-131417958D01*
X170602334Y-131478484D01*
X170602894Y-131504130D01*
X170600653Y-131554544D01*
X170591549Y-131612958D01*
X170575441Y-131666260D01*
X170552329Y-131714448D01*
X170522214Y-131757523D01*
X170485096Y-131795485D01*
X170459463Y-131815808D01*
X170412255Y-131845618D01*
X170360431Y-131870377D01*
X170303990Y-131890082D01*
X170255513Y-131902208D01*
X170204082Y-131911101D01*
X170149696Y-131916760D01*
X170092356Y-131919185D01*
X170077559Y-131919286D01*
X170019484Y-131917670D01*
X169964372Y-131912819D01*
X169912221Y-131904735D01*
X169863033Y-131893417D01*
X169805714Y-131874722D01*
X169753023Y-131850974D01*
X169704961Y-131822174D01*
X169695904Y-131815808D01*
X169654512Y-131780914D01*
X169620135Y-131740907D01*
X169592774Y-131695786D01*
X169572429Y-131645553D01*
X169559100Y-131590206D01*
X169552785Y-131529746D01*
X169552224Y-131504130D01*
X169712530Y-131504130D01*
X169717315Y-131554082D01*
X169734503Y-131603755D01*
X169764192Y-131645518D01*
X169806382Y-131679371D01*
X169812534Y-131683047D01*
X169859398Y-131705479D01*
X169912483Y-131722402D01*
X169962937Y-131732522D01*
X170017962Y-131738594D01*
X170077559Y-131740618D01*
X170127541Y-131739212D01*
X170183328Y-131733815D01*
X170234544Y-131724370D01*
X170288518Y-131708234D01*
X170336271Y-131686589D01*
X170342584Y-131683047D01*
X170386336Y-131650182D01*
X170417588Y-131609408D01*
X170436339Y-131560724D01*
X170442589Y-131504130D01*
X170437851Y-131454249D01*
X170420833Y-131404832D01*
X170391439Y-131363511D01*
X170349668Y-131330286D01*
X170343577Y-131326703D01*
X170296921Y-131304754D01*
X170243805Y-131288196D01*
X170193136Y-131278294D01*
X170137720Y-131272353D01*
X170087916Y-131270427D01*
X170077559Y-131270372D01*
X170027102Y-131271748D01*
X169970919Y-131277028D01*
X169919499Y-131286270D01*
X169865530Y-131302058D01*
X169818044Y-131323237D01*
X169811790Y-131326703D01*
X169768364Y-131358916D01*
X169737345Y-131399225D01*
X169718733Y-131447629D01*
X169712530Y-131504130D01*
X169552224Y-131504130D01*
X169554469Y-131453659D01*
X169563589Y-131395182D01*
X169579725Y-131341831D01*
X169602877Y-131293605D01*
X169633044Y-131250505D01*
X169670226Y-131212530D01*
X169695904Y-131192205D01*
X169743040Y-131162394D01*
X169794805Y-131137636D01*
X169851199Y-131117930D01*
X169899646Y-131105804D01*
X169951056Y-131096911D01*
X170005428Y-131091252D01*
X170062763Y-131088827D01*
X170077559Y-131088726D01*
X170135638Y-131090343D01*
G37*
G36*
X170569146Y-130913532D02*
G01*
X170526860Y-130940218D01*
X170488001Y-130946536D01*
X170439033Y-130936093D01*
X170407352Y-130913532D01*
X170380464Y-130871647D01*
X170374099Y-130832883D01*
X170384621Y-130783679D01*
X170407352Y-130751489D01*
X170449114Y-130724200D01*
X170488001Y-130717741D01*
X170537004Y-130728419D01*
X170569146Y-130751489D01*
X170596435Y-130793853D01*
X170602894Y-130832883D01*
X170592216Y-130881728D01*
X170569146Y-130913532D01*
G37*
G36*
X170130415Y-130254691D02*
G01*
X170093580Y-130218809D01*
X170054640Y-130182218D01*
X170015459Y-130147348D01*
X169974466Y-130114187D01*
X169970855Y-130111508D01*
X169927897Y-130085953D01*
X169877869Y-130071045D01*
X169856457Y-130069571D01*
X169806712Y-130079113D01*
X169764491Y-130107739D01*
X169759430Y-130112997D01*
X169732119Y-130155338D01*
X169720102Y-130206798D01*
X169719478Y-130223176D01*
X169725629Y-130273385D01*
X169744082Y-130320221D01*
X169774836Y-130363684D01*
X169810989Y-130398255D01*
X169848020Y-130425171D01*
X169761415Y-130574806D01*
X169717295Y-130543088D01*
X169678518Y-130510467D01*
X169640745Y-130472081D01*
X169609951Y-130432517D01*
X169603343Y-130422441D01*
X169578632Y-130373126D01*
X169563456Y-130323128D01*
X169554670Y-130267329D01*
X169552224Y-130213746D01*
X169556119Y-130159319D01*
X169567803Y-130107861D01*
X169587277Y-130059371D01*
X169614541Y-130013849D01*
X169633618Y-129989170D01*
X169672077Y-129951364D01*
X169716236Y-129922843D01*
X169766095Y-129903608D01*
X169821654Y-129893659D01*
X169855961Y-129892143D01*
X169909616Y-129896981D01*
X169961394Y-129911496D01*
X170006836Y-129933088D01*
X170050018Y-129961299D01*
X170093642Y-129995308D01*
X170135859Y-130031961D01*
X170175051Y-130068500D01*
X170188731Y-130081730D01*
X170414052Y-130303081D01*
X170414052Y-129860876D01*
X170591480Y-129860876D01*
X170591480Y-130559917D01*
X170437378Y-130559917D01*
X170130415Y-130254691D01*
G37*
X189720424Y-103626270D02*
X189720424Y-104206842D01*
X178218813Y-97970861D02*
X178654242Y-97970861D01*
X178436527Y-98732861D02*
X178436527Y-97970861D01*
X178835670Y-97970861D02*
X179343670Y-98732861D01*
X179343670Y-97970861D02*
X178835670Y-98732861D01*
X179633955Y-98732861D02*
X179633955Y-97970861D01*
X179633955Y-97970861D02*
X179815384Y-97970861D01*
X179815384Y-97970861D02*
X179924241Y-98007147D01*
X179924241Y-98007147D02*
X179996812Y-98079718D01*
X179996812Y-98079718D02*
X180033098Y-98152290D01*
X180033098Y-98152290D02*
X180069384Y-98297433D01*
X180069384Y-98297433D02*
X180069384Y-98406290D01*
X180069384Y-98406290D02*
X180033098Y-98551433D01*
X180033098Y-98551433D02*
X179996812Y-98624004D01*
X179996812Y-98624004D02*
X179924241Y-98696576D01*
X179924241Y-98696576D02*
X179815384Y-98732861D01*
X179815384Y-98732861D02*
X179633955Y-98732861D01*
D11*
X178995525Y-126645609D02*
X179025763Y-126554895D01*
X179025763Y-126554895D02*
X179025763Y-126403704D01*
X179025763Y-126403704D02*
X178995525Y-126343228D01*
X178995525Y-126343228D02*
X178965286Y-126312990D01*
X178965286Y-126312990D02*
X178904810Y-126282752D01*
X178904810Y-126282752D02*
X178844334Y-126282752D01*
X178844334Y-126282752D02*
X178783858Y-126312990D01*
X178783858Y-126312990D02*
X178753620Y-126343228D01*
X178753620Y-126343228D02*
X178723382Y-126403704D01*
X178723382Y-126403704D02*
X178693144Y-126524657D01*
X178693144Y-126524657D02*
X178662905Y-126585133D01*
X178662905Y-126585133D02*
X178632667Y-126615371D01*
X178632667Y-126615371D02*
X178572191Y-126645609D01*
X178572191Y-126645609D02*
X178511715Y-126645609D01*
X178511715Y-126645609D02*
X178451239Y-126615371D01*
X178451239Y-126615371D02*
X178421001Y-126585133D01*
X178421001Y-126585133D02*
X178390763Y-126524657D01*
X178390763Y-126524657D02*
X178390763Y-126373466D01*
X178390763Y-126373466D02*
X178421001Y-126282752D01*
X178390763Y-126071085D02*
X178390763Y-125677990D01*
X178390763Y-125677990D02*
X178632667Y-125889657D01*
X178632667Y-125889657D02*
X178632667Y-125798942D01*
X178632667Y-125798942D02*
X178662905Y-125738466D01*
X178662905Y-125738466D02*
X178693144Y-125708228D01*
X178693144Y-125708228D02*
X178753620Y-125677990D01*
X178753620Y-125677990D02*
X178904810Y-125677990D01*
X178904810Y-125677990D02*
X178965286Y-125708228D01*
X178965286Y-125708228D02*
X178995525Y-125738466D01*
X178995525Y-125738466D02*
X179025763Y-125798942D01*
X179025763Y-125798942D02*
X179025763Y-125980371D01*
X179025763Y-125980371D02*
X178995525Y-126040847D01*
X178995525Y-126040847D02*
X178965286Y-126071085D01*
X187145990Y-102820925D02*
X187236704Y-102851163D01*
X187236704Y-102851163D02*
X187387895Y-102851163D01*
X187387895Y-102851163D02*
X187448371Y-102820925D01*
X187448371Y-102820925D02*
X187478609Y-102790686D01*
X187478609Y-102790686D02*
X187508847Y-102730210D01*
X187508847Y-102730210D02*
X187508847Y-102669734D01*
X187508847Y-102669734D02*
X187478609Y-102609258D01*
X187478609Y-102609258D02*
X187448371Y-102579020D01*
X187448371Y-102579020D02*
X187387895Y-102548782D01*
X187387895Y-102548782D02*
X187266942Y-102518544D01*
X187266942Y-102518544D02*
X187206466Y-102488305D01*
X187206466Y-102488305D02*
X187176228Y-102458067D01*
X187176228Y-102458067D02*
X187145990Y-102397591D01*
X187145990Y-102397591D02*
X187145990Y-102337115D01*
X187145990Y-102337115D02*
X187176228Y-102276639D01*
X187176228Y-102276639D02*
X187206466Y-102246401D01*
X187206466Y-102246401D02*
X187266942Y-102216163D01*
X187266942Y-102216163D02*
X187418133Y-102216163D01*
X187418133Y-102216163D02*
X187508847Y-102246401D01*
X187750752Y-102276639D02*
X187780990Y-102246401D01*
X187780990Y-102246401D02*
X187841466Y-102216163D01*
X187841466Y-102216163D02*
X187992657Y-102216163D01*
X187992657Y-102216163D02*
X188053133Y-102246401D01*
X188053133Y-102246401D02*
X188083371Y-102276639D01*
X188083371Y-102276639D02*
X188113609Y-102337115D01*
X188113609Y-102337115D02*
X188113609Y-102397591D01*
X188113609Y-102397591D02*
X188083371Y-102488305D01*
X188083371Y-102488305D02*
X187720514Y-102851163D01*
X187720514Y-102851163D02*
X188113609Y-102851163D01*
X194587585Y-96755163D02*
X194375918Y-96452782D01*
X194224728Y-96755163D02*
X194224728Y-96120163D01*
X194224728Y-96120163D02*
X194466633Y-96120163D01*
X194466633Y-96120163D02*
X194527109Y-96150401D01*
X194527109Y-96150401D02*
X194557347Y-96180639D01*
X194557347Y-96180639D02*
X194587585Y-96241115D01*
X194587585Y-96241115D02*
X194587585Y-96331829D01*
X194587585Y-96331829D02*
X194557347Y-96392305D01*
X194557347Y-96392305D02*
X194527109Y-96422544D01*
X194527109Y-96422544D02*
X194466633Y-96452782D01*
X194466633Y-96452782D02*
X194224728Y-96452782D01*
X194799252Y-96120163D02*
X195192347Y-96120163D01*
X195192347Y-96120163D02*
X194980680Y-96362067D01*
X194980680Y-96362067D02*
X195071395Y-96362067D01*
X195071395Y-96362067D02*
X195131871Y-96392305D01*
X195131871Y-96392305D02*
X195162109Y-96422544D01*
X195162109Y-96422544D02*
X195192347Y-96483020D01*
X195192347Y-96483020D02*
X195192347Y-96634210D01*
X195192347Y-96634210D02*
X195162109Y-96694686D01*
X195162109Y-96694686D02*
X195131871Y-96724925D01*
X195131871Y-96724925D02*
X195071395Y-96755163D01*
X195071395Y-96755163D02*
X194889966Y-96755163D01*
X194889966Y-96755163D02*
X194829490Y-96724925D01*
X194829490Y-96724925D02*
X194799252Y-96694686D01*
X195585442Y-96120163D02*
X195645919Y-96120163D01*
X195645919Y-96120163D02*
X195706395Y-96150401D01*
X195706395Y-96150401D02*
X195736633Y-96180639D01*
X195736633Y-96180639D02*
X195766871Y-96241115D01*
X195766871Y-96241115D02*
X195797109Y-96362067D01*
X195797109Y-96362067D02*
X195797109Y-96513258D01*
X195797109Y-96513258D02*
X195766871Y-96634210D01*
X195766871Y-96634210D02*
X195736633Y-96694686D01*
X195736633Y-96694686D02*
X195706395Y-96724925D01*
X195706395Y-96724925D02*
X195645919Y-96755163D01*
X195645919Y-96755163D02*
X195585442Y-96755163D01*
X195585442Y-96755163D02*
X195524966Y-96724925D01*
X195524966Y-96724925D02*
X195494728Y-96694686D01*
X195494728Y-96694686D02*
X195464490Y-96634210D01*
X195464490Y-96634210D02*
X195434252Y-96513258D01*
X195434252Y-96513258D02*
X195434252Y-96362067D01*
X195434252Y-96362067D02*
X195464490Y-96241115D01*
X195464490Y-96241115D02*
X195494728Y-96180639D01*
X195494728Y-96180639D02*
X195524966Y-96150401D01*
X195524966Y-96150401D02*
X195585442Y-96120163D01*
X191564985Y-125939763D02*
X191353318Y-125637382D01*
X191202128Y-125939763D02*
X191202128Y-125304763D01*
X191202128Y-125304763D02*
X191444033Y-125304763D01*
X191444033Y-125304763D02*
X191504509Y-125335001D01*
X191504509Y-125335001D02*
X191534747Y-125365239D01*
X191534747Y-125365239D02*
X191564985Y-125425715D01*
X191564985Y-125425715D02*
X191564985Y-125516429D01*
X191564985Y-125516429D02*
X191534747Y-125576905D01*
X191534747Y-125576905D02*
X191504509Y-125607144D01*
X191504509Y-125607144D02*
X191444033Y-125637382D01*
X191444033Y-125637382D02*
X191202128Y-125637382D01*
X191806890Y-125365239D02*
X191837128Y-125335001D01*
X191837128Y-125335001D02*
X191897604Y-125304763D01*
X191897604Y-125304763D02*
X192048795Y-125304763D01*
X192048795Y-125304763D02*
X192109271Y-125335001D01*
X192109271Y-125335001D02*
X192139509Y-125365239D01*
X192139509Y-125365239D02*
X192169747Y-125425715D01*
X192169747Y-125425715D02*
X192169747Y-125486191D01*
X192169747Y-125486191D02*
X192139509Y-125576905D01*
X192139509Y-125576905D02*
X191776652Y-125939763D01*
X191776652Y-125939763D02*
X192169747Y-125939763D01*
X192472128Y-125939763D02*
X192593080Y-125939763D01*
X192593080Y-125939763D02*
X192653557Y-125909525D01*
X192653557Y-125909525D02*
X192683795Y-125879286D01*
X192683795Y-125879286D02*
X192744271Y-125788572D01*
X192744271Y-125788572D02*
X192774509Y-125667620D01*
X192774509Y-125667620D02*
X192774509Y-125425715D01*
X192774509Y-125425715D02*
X192744271Y-125365239D01*
X192744271Y-125365239D02*
X192714033Y-125335001D01*
X192714033Y-125335001D02*
X192653557Y-125304763D01*
X192653557Y-125304763D02*
X192532604Y-125304763D01*
X192532604Y-125304763D02*
X192472128Y-125335001D01*
X192472128Y-125335001D02*
X192441890Y-125365239D01*
X192441890Y-125365239D02*
X192411652Y-125425715D01*
X192411652Y-125425715D02*
X192411652Y-125576905D01*
X192411652Y-125576905D02*
X192441890Y-125637382D01*
X192441890Y-125637382D02*
X192472128Y-125667620D01*
X192472128Y-125667620D02*
X192532604Y-125697858D01*
X192532604Y-125697858D02*
X192653557Y-125697858D01*
X192653557Y-125697858D02*
X192714033Y-125667620D01*
X192714033Y-125667620D02*
X192744271Y-125637382D01*
X192744271Y-125637382D02*
X192774509Y-125576905D01*
X193571585Y-125965163D02*
X193359918Y-125662782D01*
X193208728Y-125965163D02*
X193208728Y-125330163D01*
X193208728Y-125330163D02*
X193450633Y-125330163D01*
X193450633Y-125330163D02*
X193511109Y-125360401D01*
X193511109Y-125360401D02*
X193541347Y-125390639D01*
X193541347Y-125390639D02*
X193571585Y-125451115D01*
X193571585Y-125451115D02*
X193571585Y-125541829D01*
X193571585Y-125541829D02*
X193541347Y-125602305D01*
X193541347Y-125602305D02*
X193511109Y-125632544D01*
X193511109Y-125632544D02*
X193450633Y-125662782D01*
X193450633Y-125662782D02*
X193208728Y-125662782D01*
X193813490Y-125390639D02*
X193843728Y-125360401D01*
X193843728Y-125360401D02*
X193904204Y-125330163D01*
X193904204Y-125330163D02*
X194055395Y-125330163D01*
X194055395Y-125330163D02*
X194115871Y-125360401D01*
X194115871Y-125360401D02*
X194146109Y-125390639D01*
X194146109Y-125390639D02*
X194176347Y-125451115D01*
X194176347Y-125451115D02*
X194176347Y-125511591D01*
X194176347Y-125511591D02*
X194146109Y-125602305D01*
X194146109Y-125602305D02*
X193783252Y-125965163D01*
X193783252Y-125965163D02*
X194176347Y-125965163D01*
X194539204Y-125602305D02*
X194478728Y-125572067D01*
X194478728Y-125572067D02*
X194448490Y-125541829D01*
X194448490Y-125541829D02*
X194418252Y-125481353D01*
X194418252Y-125481353D02*
X194418252Y-125451115D01*
X194418252Y-125451115D02*
X194448490Y-125390639D01*
X194448490Y-125390639D02*
X194478728Y-125360401D01*
X194478728Y-125360401D02*
X194539204Y-125330163D01*
X194539204Y-125330163D02*
X194660157Y-125330163D01*
X194660157Y-125330163D02*
X194720633Y-125360401D01*
X194720633Y-125360401D02*
X194750871Y-125390639D01*
X194750871Y-125390639D02*
X194781109Y-125451115D01*
X194781109Y-125451115D02*
X194781109Y-125481353D01*
X194781109Y-125481353D02*
X194750871Y-125541829D01*
X194750871Y-125541829D02*
X194720633Y-125572067D01*
X194720633Y-125572067D02*
X194660157Y-125602305D01*
X194660157Y-125602305D02*
X194539204Y-125602305D01*
X194539204Y-125602305D02*
X194478728Y-125632544D01*
X194478728Y-125632544D02*
X194448490Y-125662782D01*
X194448490Y-125662782D02*
X194418252Y-125723258D01*
X194418252Y-125723258D02*
X194418252Y-125844210D01*
X194418252Y-125844210D02*
X194448490Y-125904686D01*
X194448490Y-125904686D02*
X194478728Y-125934925D01*
X194478728Y-125934925D02*
X194539204Y-125965163D01*
X194539204Y-125965163D02*
X194660157Y-125965163D01*
X194660157Y-125965163D02*
X194720633Y-125934925D01*
X194720633Y-125934925D02*
X194750871Y-125904686D01*
X194750871Y-125904686D02*
X194781109Y-125844210D01*
X194781109Y-125844210D02*
X194781109Y-125723258D01*
X194781109Y-125723258D02*
X194750871Y-125662782D01*
X194750871Y-125662782D02*
X194720633Y-125632544D01*
X194720633Y-125632544D02*
X194660157Y-125602305D01*
X177120763Y-95632814D02*
X176818382Y-95844481D01*
X177120763Y-95995671D02*
X176485763Y-95995671D01*
X176485763Y-95995671D02*
X176485763Y-95753766D01*
X176485763Y-95753766D02*
X176516001Y-95693290D01*
X176516001Y-95693290D02*
X176546239Y-95663052D01*
X176546239Y-95663052D02*
X176606715Y-95632814D01*
X176606715Y-95632814D02*
X176697429Y-95632814D01*
X176697429Y-95632814D02*
X176757905Y-95663052D01*
X176757905Y-95663052D02*
X176788144Y-95693290D01*
X176788144Y-95693290D02*
X176818382Y-95753766D01*
X176818382Y-95753766D02*
X176818382Y-95995671D01*
X176546239Y-95390909D02*
X176516001Y-95360671D01*
X176516001Y-95360671D02*
X176485763Y-95300195D01*
X176485763Y-95300195D02*
X176485763Y-95149004D01*
X176485763Y-95149004D02*
X176516001Y-95088528D01*
X176516001Y-95088528D02*
X176546239Y-95058290D01*
X176546239Y-95058290D02*
X176606715Y-95028052D01*
X176606715Y-95028052D02*
X176667191Y-95028052D01*
X176667191Y-95028052D02*
X176757905Y-95058290D01*
X176757905Y-95058290D02*
X177120763Y-95421147D01*
X177120763Y-95421147D02*
X177120763Y-95028052D01*
X176485763Y-94816385D02*
X176485763Y-94393052D01*
X176485763Y-94393052D02*
X177120763Y-94665195D01*
X172904363Y-95709014D02*
X172601982Y-95920681D01*
X172904363Y-96071871D02*
X172269363Y-96071871D01*
X172269363Y-96071871D02*
X172269363Y-95829966D01*
X172269363Y-95829966D02*
X172299601Y-95769490D01*
X172299601Y-95769490D02*
X172329839Y-95739252D01*
X172329839Y-95739252D02*
X172390315Y-95709014D01*
X172390315Y-95709014D02*
X172481029Y-95709014D01*
X172481029Y-95709014D02*
X172541505Y-95739252D01*
X172541505Y-95739252D02*
X172571744Y-95769490D01*
X172571744Y-95769490D02*
X172601982Y-95829966D01*
X172601982Y-95829966D02*
X172601982Y-96071871D01*
X172329839Y-95467109D02*
X172299601Y-95436871D01*
X172299601Y-95436871D02*
X172269363Y-95376395D01*
X172269363Y-95376395D02*
X172269363Y-95225204D01*
X172269363Y-95225204D02*
X172299601Y-95164728D01*
X172299601Y-95164728D02*
X172329839Y-95134490D01*
X172329839Y-95134490D02*
X172390315Y-95104252D01*
X172390315Y-95104252D02*
X172450791Y-95104252D01*
X172450791Y-95104252D02*
X172541505Y-95134490D01*
X172541505Y-95134490D02*
X172904363Y-95497347D01*
X172904363Y-95497347D02*
X172904363Y-95104252D01*
X172269363Y-94559966D02*
X172269363Y-94680919D01*
X172269363Y-94680919D02*
X172299601Y-94741395D01*
X172299601Y-94741395D02*
X172329839Y-94771633D01*
X172329839Y-94771633D02*
X172420553Y-94832109D01*
X172420553Y-94832109D02*
X172541505Y-94862347D01*
X172541505Y-94862347D02*
X172783410Y-94862347D01*
X172783410Y-94862347D02*
X172843886Y-94832109D01*
X172843886Y-94832109D02*
X172874125Y-94801871D01*
X172874125Y-94801871D02*
X172904363Y-94741395D01*
X172904363Y-94741395D02*
X172904363Y-94620442D01*
X172904363Y-94620442D02*
X172874125Y-94559966D01*
X172874125Y-94559966D02*
X172843886Y-94529728D01*
X172843886Y-94529728D02*
X172783410Y-94499490D01*
X172783410Y-94499490D02*
X172632220Y-94499490D01*
X172632220Y-94499490D02*
X172571744Y-94529728D01*
X172571744Y-94529728D02*
X172541505Y-94559966D01*
X172541505Y-94559966D02*
X172511267Y-94620442D01*
X172511267Y-94620442D02*
X172511267Y-94741395D01*
X172511267Y-94741395D02*
X172541505Y-94801871D01*
X172541505Y-94801871D02*
X172571744Y-94832109D01*
X172571744Y-94832109D02*
X172632220Y-94862347D01*
X194536785Y-98380763D02*
X194325118Y-98078382D01*
X194173928Y-98380763D02*
X194173928Y-97745763D01*
X194173928Y-97745763D02*
X194415833Y-97745763D01*
X194415833Y-97745763D02*
X194476309Y-97776001D01*
X194476309Y-97776001D02*
X194506547Y-97806239D01*
X194506547Y-97806239D02*
X194536785Y-97866715D01*
X194536785Y-97866715D02*
X194536785Y-97957429D01*
X194536785Y-97957429D02*
X194506547Y-98017905D01*
X194506547Y-98017905D02*
X194476309Y-98048144D01*
X194476309Y-98048144D02*
X194415833Y-98078382D01*
X194415833Y-98078382D02*
X194173928Y-98078382D01*
X195141547Y-98380763D02*
X194778690Y-98380763D01*
X194960118Y-98380763D02*
X194960118Y-97745763D01*
X194960118Y-97745763D02*
X194899642Y-97836477D01*
X194899642Y-97836477D02*
X194839166Y-97896953D01*
X194839166Y-97896953D02*
X194778690Y-97927191D01*
X195534642Y-97745763D02*
X195595119Y-97745763D01*
X195595119Y-97745763D02*
X195655595Y-97776001D01*
X195655595Y-97776001D02*
X195685833Y-97806239D01*
X195685833Y-97806239D02*
X195716071Y-97866715D01*
X195716071Y-97866715D02*
X195746309Y-97987667D01*
X195746309Y-97987667D02*
X195746309Y-98138858D01*
X195746309Y-98138858D02*
X195716071Y-98259810D01*
X195716071Y-98259810D02*
X195685833Y-98320286D01*
X195685833Y-98320286D02*
X195655595Y-98350525D01*
X195655595Y-98350525D02*
X195595119Y-98380763D01*
X195595119Y-98380763D02*
X195534642Y-98380763D01*
X195534642Y-98380763D02*
X195474166Y-98350525D01*
X195474166Y-98350525D02*
X195443928Y-98320286D01*
X195443928Y-98320286D02*
X195413690Y-98259810D01*
X195413690Y-98259810D02*
X195383452Y-98138858D01*
X195383452Y-98138858D02*
X195383452Y-97987667D01*
X195383452Y-97987667D02*
X195413690Y-97866715D01*
X195413690Y-97866715D02*
X195443928Y-97806239D01*
X195443928Y-97806239D02*
X195474166Y-97776001D01*
X195474166Y-97776001D02*
X195534642Y-97745763D01*
D12*
X169685309Y-89847559D02*
X169685309Y-89212559D01*
X169685309Y-89212559D02*
X169836499Y-89212559D01*
X169836499Y-89212559D02*
X169927214Y-89242797D01*
X169927214Y-89242797D02*
X169987690Y-89303273D01*
X169987690Y-89303273D02*
X170017928Y-89363749D01*
X170017928Y-89363749D02*
X170048166Y-89484701D01*
X170048166Y-89484701D02*
X170048166Y-89575416D01*
X170048166Y-89575416D02*
X170017928Y-89696368D01*
X170017928Y-89696368D02*
X169987690Y-89756844D01*
X169987690Y-89756844D02*
X169927214Y-89817321D01*
X169927214Y-89817321D02*
X169836499Y-89847559D01*
X169836499Y-89847559D02*
X169685309Y-89847559D01*
X170592452Y-89424225D02*
X170592452Y-89847559D01*
X170441261Y-89182321D02*
X170290071Y-89635892D01*
X170290071Y-89635892D02*
X170683166Y-89635892D01*
X185825082Y-92168833D02*
X185855321Y-92199071D01*
X185855321Y-92199071D02*
X185885559Y-92289785D01*
X185885559Y-92289785D02*
X185885559Y-92350261D01*
X185885559Y-92350261D02*
X185855321Y-92440976D01*
X185855321Y-92440976D02*
X185794844Y-92501452D01*
X185794844Y-92501452D02*
X185734368Y-92531690D01*
X185734368Y-92531690D02*
X185613416Y-92561928D01*
X185613416Y-92561928D02*
X185522701Y-92561928D01*
X185522701Y-92561928D02*
X185401749Y-92531690D01*
X185401749Y-92531690D02*
X185341273Y-92501452D01*
X185341273Y-92501452D02*
X185280797Y-92440976D01*
X185280797Y-92440976D02*
X185250559Y-92350261D01*
X185250559Y-92350261D02*
X185250559Y-92289785D01*
X185250559Y-92289785D02*
X185280797Y-92199071D01*
X185280797Y-92199071D02*
X185311035Y-92168833D01*
X185311035Y-91926928D02*
X185280797Y-91896690D01*
X185280797Y-91896690D02*
X185250559Y-91836214D01*
X185250559Y-91836214D02*
X185250559Y-91685023D01*
X185250559Y-91685023D02*
X185280797Y-91624547D01*
X185280797Y-91624547D02*
X185311035Y-91594309D01*
X185311035Y-91594309D02*
X185371511Y-91564071D01*
X185371511Y-91564071D02*
X185431987Y-91564071D01*
X185431987Y-91564071D02*
X185522701Y-91594309D01*
X185522701Y-91594309D02*
X185885559Y-91957166D01*
X185885559Y-91957166D02*
X185885559Y-91564071D01*
D11*
X173657985Y-134466563D02*
X173446318Y-134164182D01*
X173295128Y-134466563D02*
X173295128Y-133831563D01*
X173295128Y-133831563D02*
X173537033Y-133831563D01*
X173537033Y-133831563D02*
X173597509Y-133861801D01*
X173597509Y-133861801D02*
X173627747Y-133892039D01*
X173627747Y-133892039D02*
X173657985Y-133952515D01*
X173657985Y-133952515D02*
X173657985Y-134043229D01*
X173657985Y-134043229D02*
X173627747Y-134103705D01*
X173627747Y-134103705D02*
X173597509Y-134133944D01*
X173597509Y-134133944D02*
X173537033Y-134164182D01*
X173537033Y-134164182D02*
X173295128Y-134164182D01*
X174262747Y-134466563D02*
X173899890Y-134466563D01*
X174081318Y-134466563D02*
X174081318Y-133831563D01*
X174081318Y-133831563D02*
X174020842Y-133922277D01*
X174020842Y-133922277D02*
X173960366Y-133982753D01*
X173960366Y-133982753D02*
X173899890Y-134012991D01*
X174504652Y-133892039D02*
X174534890Y-133861801D01*
X174534890Y-133861801D02*
X174595366Y-133831563D01*
X174595366Y-133831563D02*
X174746557Y-133831563D01*
X174746557Y-133831563D02*
X174807033Y-133861801D01*
X174807033Y-133861801D02*
X174837271Y-133892039D01*
X174837271Y-133892039D02*
X174867509Y-133952515D01*
X174867509Y-133952515D02*
X174867509Y-134012991D01*
X174867509Y-134012991D02*
X174837271Y-134103705D01*
X174837271Y-134103705D02*
X174474414Y-134466563D01*
X174474414Y-134466563D02*
X174867509Y-134466563D01*
D13*
X183506533Y-95181663D02*
X183506533Y-95635234D01*
X183506533Y-95635234D02*
X183476294Y-95725948D01*
X183476294Y-95725948D02*
X183415818Y-95786425D01*
X183415818Y-95786425D02*
X183325104Y-95816663D01*
X183325104Y-95816663D02*
X183264628Y-95816663D01*
X183748438Y-95181663D02*
X184141533Y-95181663D01*
X184141533Y-95181663D02*
X183929866Y-95423567D01*
X183929866Y-95423567D02*
X184020581Y-95423567D01*
X184020581Y-95423567D02*
X184081057Y-95453805D01*
X184081057Y-95453805D02*
X184111295Y-95484044D01*
X184111295Y-95484044D02*
X184141533Y-95544520D01*
X184141533Y-95544520D02*
X184141533Y-95695710D01*
X184141533Y-95695710D02*
X184111295Y-95756186D01*
X184111295Y-95756186D02*
X184081057Y-95786425D01*
X184081057Y-95786425D02*
X184020581Y-95816663D01*
X184020581Y-95816663D02*
X183839152Y-95816663D01*
X183839152Y-95816663D02*
X183778676Y-95786425D01*
X183778676Y-95786425D02*
X183748438Y-95756186D01*
D11*
X172474766Y-132899363D02*
X172263099Y-132596982D01*
X172111909Y-132899363D02*
X172111909Y-132264363D01*
X172111909Y-132264363D02*
X172353814Y-132264363D01*
X172353814Y-132264363D02*
X172414290Y-132294601D01*
X172414290Y-132294601D02*
X172444528Y-132324839D01*
X172444528Y-132324839D02*
X172474766Y-132385315D01*
X172474766Y-132385315D02*
X172474766Y-132476029D01*
X172474766Y-132476029D02*
X172444528Y-132536505D01*
X172444528Y-132536505D02*
X172414290Y-132566744D01*
X172414290Y-132566744D02*
X172353814Y-132596982D01*
X172353814Y-132596982D02*
X172111909Y-132596982D01*
X173049290Y-132264363D02*
X172746909Y-132264363D01*
X172746909Y-132264363D02*
X172716671Y-132566744D01*
X172716671Y-132566744D02*
X172746909Y-132536505D01*
X172746909Y-132536505D02*
X172807385Y-132506267D01*
X172807385Y-132506267D02*
X172958576Y-132506267D01*
X172958576Y-132506267D02*
X173019052Y-132536505D01*
X173019052Y-132536505D02*
X173049290Y-132566744D01*
X173049290Y-132566744D02*
X173079528Y-132627220D01*
X173079528Y-132627220D02*
X173079528Y-132778410D01*
X173079528Y-132778410D02*
X173049290Y-132838886D01*
X173049290Y-132838886D02*
X173019052Y-132869125D01*
X173019052Y-132869125D02*
X172958576Y-132899363D01*
X172958576Y-132899363D02*
X172807385Y-132899363D01*
X172807385Y-132899363D02*
X172746909Y-132869125D01*
X172746909Y-132869125D02*
X172716671Y-132838886D01*
X197753163Y-93450833D02*
X197450782Y-93662500D01*
X197753163Y-93813690D02*
X197118163Y-93813690D01*
X197118163Y-93813690D02*
X197118163Y-93571785D01*
X197118163Y-93571785D02*
X197148401Y-93511309D01*
X197148401Y-93511309D02*
X197178639Y-93481071D01*
X197178639Y-93481071D02*
X197239115Y-93450833D01*
X197239115Y-93450833D02*
X197329829Y-93450833D01*
X197329829Y-93450833D02*
X197390305Y-93481071D01*
X197390305Y-93481071D02*
X197420544Y-93511309D01*
X197420544Y-93511309D02*
X197450782Y-93571785D01*
X197450782Y-93571785D02*
X197450782Y-93813690D01*
X197118163Y-93239166D02*
X197118163Y-92846071D01*
X197118163Y-92846071D02*
X197360067Y-93057738D01*
X197360067Y-93057738D02*
X197360067Y-92967023D01*
X197360067Y-92967023D02*
X197390305Y-92906547D01*
X197390305Y-92906547D02*
X197420544Y-92876309D01*
X197420544Y-92876309D02*
X197481020Y-92846071D01*
X197481020Y-92846071D02*
X197632210Y-92846071D01*
X197632210Y-92846071D02*
X197692686Y-92876309D01*
X197692686Y-92876309D02*
X197722925Y-92906547D01*
X197722925Y-92906547D02*
X197753163Y-92967023D01*
X197753163Y-92967023D02*
X197753163Y-93148452D01*
X197753163Y-93148452D02*
X197722925Y-93208928D01*
X197722925Y-93208928D02*
X197692686Y-93239166D01*
D13*
X196027263Y-115915214D02*
X195724882Y-116126881D01*
X196027263Y-116278071D02*
X195392263Y-116278071D01*
X195392263Y-116278071D02*
X195392263Y-116036166D01*
X195392263Y-116036166D02*
X195422501Y-115975690D01*
X195422501Y-115975690D02*
X195452739Y-115945452D01*
X195452739Y-115945452D02*
X195513215Y-115915214D01*
X195513215Y-115915214D02*
X195603929Y-115915214D01*
X195603929Y-115915214D02*
X195664405Y-115945452D01*
X195664405Y-115945452D02*
X195694644Y-115975690D01*
X195694644Y-115975690D02*
X195724882Y-116036166D01*
X195724882Y-116036166D02*
X195724882Y-116278071D01*
X195452739Y-115673309D02*
X195422501Y-115643071D01*
X195422501Y-115643071D02*
X195392263Y-115582595D01*
X195392263Y-115582595D02*
X195392263Y-115431404D01*
X195392263Y-115431404D02*
X195422501Y-115370928D01*
X195422501Y-115370928D02*
X195452739Y-115340690D01*
X195452739Y-115340690D02*
X195513215Y-115310452D01*
X195513215Y-115310452D02*
X195573691Y-115310452D01*
X195573691Y-115310452D02*
X195664405Y-115340690D01*
X195664405Y-115340690D02*
X196027263Y-115703547D01*
X196027263Y-115703547D02*
X196027263Y-115310452D01*
X195452739Y-115068547D02*
X195422501Y-115038309D01*
X195422501Y-115038309D02*
X195392263Y-114977833D01*
X195392263Y-114977833D02*
X195392263Y-114826642D01*
X195392263Y-114826642D02*
X195422501Y-114766166D01*
X195422501Y-114766166D02*
X195452739Y-114735928D01*
X195452739Y-114735928D02*
X195513215Y-114705690D01*
X195513215Y-114705690D02*
X195573691Y-114705690D01*
X195573691Y-114705690D02*
X195664405Y-114735928D01*
X195664405Y-114735928D02*
X196027263Y-115098785D01*
X196027263Y-115098785D02*
X196027263Y-114705690D01*
X198549985Y-98092986D02*
X198519747Y-98123225D01*
X198519747Y-98123225D02*
X198429033Y-98153463D01*
X198429033Y-98153463D02*
X198368557Y-98153463D01*
X198368557Y-98153463D02*
X198277842Y-98123225D01*
X198277842Y-98123225D02*
X198217366Y-98062748D01*
X198217366Y-98062748D02*
X198187128Y-98002272D01*
X198187128Y-98002272D02*
X198156890Y-97881320D01*
X198156890Y-97881320D02*
X198156890Y-97790605D01*
X198156890Y-97790605D02*
X198187128Y-97669653D01*
X198187128Y-97669653D02*
X198217366Y-97609177D01*
X198217366Y-97609177D02*
X198277842Y-97548701D01*
X198277842Y-97548701D02*
X198368557Y-97518463D01*
X198368557Y-97518463D02*
X198429033Y-97518463D01*
X198429033Y-97518463D02*
X198519747Y-97548701D01*
X198519747Y-97548701D02*
X198549985Y-97578939D01*
X199154747Y-98153463D02*
X198791890Y-98153463D01*
X198973318Y-98153463D02*
X198973318Y-97518463D01*
X198973318Y-97518463D02*
X198912842Y-97609177D01*
X198912842Y-97609177D02*
X198852366Y-97669653D01*
X198852366Y-97669653D02*
X198791890Y-97699891D01*
X199729271Y-97518463D02*
X199426890Y-97518463D01*
X199426890Y-97518463D02*
X199396652Y-97820844D01*
X199396652Y-97820844D02*
X199426890Y-97790605D01*
X199426890Y-97790605D02*
X199487366Y-97760367D01*
X199487366Y-97760367D02*
X199638557Y-97760367D01*
X199638557Y-97760367D02*
X199699033Y-97790605D01*
X199699033Y-97790605D02*
X199729271Y-97820844D01*
X199729271Y-97820844D02*
X199759509Y-97881320D01*
X199759509Y-97881320D02*
X199759509Y-98032510D01*
X199759509Y-98032510D02*
X199729271Y-98092986D01*
X199729271Y-98092986D02*
X199699033Y-98123225D01*
X199699033Y-98123225D02*
X199638557Y-98153463D01*
X199638557Y-98153463D02*
X199487366Y-98153463D01*
X199487366Y-98153463D02*
X199426890Y-98123225D01*
X199426890Y-98123225D02*
X199396652Y-98092986D01*
X192670990Y-130030463D02*
X192670990Y-130544510D01*
X192670990Y-130544510D02*
X192701228Y-130604986D01*
X192701228Y-130604986D02*
X192731466Y-130635225D01*
X192731466Y-130635225D02*
X192791942Y-130665463D01*
X192791942Y-130665463D02*
X192912895Y-130665463D01*
X192912895Y-130665463D02*
X192973371Y-130635225D01*
X192973371Y-130635225D02*
X193003609Y-130604986D01*
X193003609Y-130604986D02*
X193033847Y-130544510D01*
X193033847Y-130544510D02*
X193033847Y-130030463D01*
X193608371Y-130242129D02*
X193608371Y-130665463D01*
X193457180Y-130000225D02*
X193305990Y-130453796D01*
X193305990Y-130453796D02*
X193699085Y-130453796D01*
D11*
X177059166Y-122231363D02*
X176847499Y-121928982D01*
X176696309Y-122231363D02*
X176696309Y-121596363D01*
X176696309Y-121596363D02*
X176938214Y-121596363D01*
X176938214Y-121596363D02*
X176998690Y-121626601D01*
X176998690Y-121626601D02*
X177028928Y-121656839D01*
X177028928Y-121656839D02*
X177059166Y-121717315D01*
X177059166Y-121717315D02*
X177059166Y-121808029D01*
X177059166Y-121808029D02*
X177028928Y-121868505D01*
X177028928Y-121868505D02*
X176998690Y-121898744D01*
X176998690Y-121898744D02*
X176938214Y-121928982D01*
X176938214Y-121928982D02*
X176696309Y-121928982D01*
X177361547Y-122231363D02*
X177482499Y-122231363D01*
X177482499Y-122231363D02*
X177542976Y-122201125D01*
X177542976Y-122201125D02*
X177573214Y-122170886D01*
X177573214Y-122170886D02*
X177633690Y-122080172D01*
X177633690Y-122080172D02*
X177663928Y-121959220D01*
X177663928Y-121959220D02*
X177663928Y-121717315D01*
X177663928Y-121717315D02*
X177633690Y-121656839D01*
X177633690Y-121656839D02*
X177603452Y-121626601D01*
X177603452Y-121626601D02*
X177542976Y-121596363D01*
X177542976Y-121596363D02*
X177422023Y-121596363D01*
X177422023Y-121596363D02*
X177361547Y-121626601D01*
X177361547Y-121626601D02*
X177331309Y-121656839D01*
X177331309Y-121656839D02*
X177301071Y-121717315D01*
X177301071Y-121717315D02*
X177301071Y-121868505D01*
X177301071Y-121868505D02*
X177331309Y-121928982D01*
X177331309Y-121928982D02*
X177361547Y-121959220D01*
X177361547Y-121959220D02*
X177422023Y-121989458D01*
X177422023Y-121989458D02*
X177542976Y-121989458D01*
X177542976Y-121989458D02*
X177603452Y-121959220D01*
X177603452Y-121959220D02*
X177633690Y-121928982D01*
X177633690Y-121928982D02*
X177663928Y-121868505D01*
D13*
X182642933Y-128185663D02*
X182642933Y-128639234D01*
X182642933Y-128639234D02*
X182612694Y-128729948D01*
X182612694Y-128729948D02*
X182552218Y-128790425D01*
X182552218Y-128790425D02*
X182461504Y-128820663D01*
X182461504Y-128820663D02*
X182401028Y-128820663D01*
X183217457Y-128185663D02*
X183096504Y-128185663D01*
X183096504Y-128185663D02*
X183036028Y-128215901D01*
X183036028Y-128215901D02*
X183005790Y-128246139D01*
X183005790Y-128246139D02*
X182945314Y-128336853D01*
X182945314Y-128336853D02*
X182915076Y-128457805D01*
X182915076Y-128457805D02*
X182915076Y-128699710D01*
X182915076Y-128699710D02*
X182945314Y-128760186D01*
X182945314Y-128760186D02*
X182975552Y-128790425D01*
X182975552Y-128790425D02*
X183036028Y-128820663D01*
X183036028Y-128820663D02*
X183156981Y-128820663D01*
X183156981Y-128820663D02*
X183217457Y-128790425D01*
X183217457Y-128790425D02*
X183247695Y-128760186D01*
X183247695Y-128760186D02*
X183277933Y-128699710D01*
X183277933Y-128699710D02*
X183277933Y-128548520D01*
X183277933Y-128548520D02*
X183247695Y-128488044D01*
X183247695Y-128488044D02*
X183217457Y-128457805D01*
X183217457Y-128457805D02*
X183156981Y-128427567D01*
X183156981Y-128427567D02*
X183036028Y-128427567D01*
X183036028Y-128427567D02*
X182975552Y-128457805D01*
X182975552Y-128457805D02*
X182945314Y-128488044D01*
X182945314Y-128488044D02*
X182915076Y-128548520D01*
X196375263Y-103887209D02*
X196889310Y-103887209D01*
X196889310Y-103887209D02*
X196949786Y-103856971D01*
X196949786Y-103856971D02*
X196980025Y-103826733D01*
X196980025Y-103826733D02*
X197010263Y-103766257D01*
X197010263Y-103766257D02*
X197010263Y-103645304D01*
X197010263Y-103645304D02*
X196980025Y-103584828D01*
X196980025Y-103584828D02*
X196949786Y-103554590D01*
X196949786Y-103554590D02*
X196889310Y-103524352D01*
X196889310Y-103524352D02*
X196375263Y-103524352D01*
X196375263Y-102949828D02*
X196375263Y-103070781D01*
X196375263Y-103070781D02*
X196405501Y-103131257D01*
X196405501Y-103131257D02*
X196435739Y-103161495D01*
X196435739Y-103161495D02*
X196526453Y-103221971D01*
X196526453Y-103221971D02*
X196647405Y-103252209D01*
X196647405Y-103252209D02*
X196889310Y-103252209D01*
X196889310Y-103252209D02*
X196949786Y-103221971D01*
X196949786Y-103221971D02*
X196980025Y-103191733D01*
X196980025Y-103191733D02*
X197010263Y-103131257D01*
X197010263Y-103131257D02*
X197010263Y-103010304D01*
X197010263Y-103010304D02*
X196980025Y-102949828D01*
X196980025Y-102949828D02*
X196949786Y-102919590D01*
X196949786Y-102919590D02*
X196889310Y-102889352D01*
X196889310Y-102889352D02*
X196738120Y-102889352D01*
X196738120Y-102889352D02*
X196677644Y-102919590D01*
X196677644Y-102919590D02*
X196647405Y-102949828D01*
X196647405Y-102949828D02*
X196617167Y-103010304D01*
X196617167Y-103010304D02*
X196617167Y-103131257D01*
X196617167Y-103131257D02*
X196647405Y-103191733D01*
X196647405Y-103191733D02*
X196677644Y-103221971D01*
X196677644Y-103221971D02*
X196738120Y-103252209D01*
D11*
X201105985Y-105492763D02*
X200894318Y-105190382D01*
X200743128Y-105492763D02*
X200743128Y-104857763D01*
X200743128Y-104857763D02*
X200985033Y-104857763D01*
X200985033Y-104857763D02*
X201045509Y-104888001D01*
X201045509Y-104888001D02*
X201075747Y-104918239D01*
X201075747Y-104918239D02*
X201105985Y-104978715D01*
X201105985Y-104978715D02*
X201105985Y-105069429D01*
X201105985Y-105069429D02*
X201075747Y-105129905D01*
X201075747Y-105129905D02*
X201045509Y-105160144D01*
X201045509Y-105160144D02*
X200985033Y-105190382D01*
X200985033Y-105190382D02*
X200743128Y-105190382D01*
X201347890Y-104918239D02*
X201378128Y-104888001D01*
X201378128Y-104888001D02*
X201438604Y-104857763D01*
X201438604Y-104857763D02*
X201589795Y-104857763D01*
X201589795Y-104857763D02*
X201650271Y-104888001D01*
X201650271Y-104888001D02*
X201680509Y-104918239D01*
X201680509Y-104918239D02*
X201710747Y-104978715D01*
X201710747Y-104978715D02*
X201710747Y-105039191D01*
X201710747Y-105039191D02*
X201680509Y-105129905D01*
X201680509Y-105129905D02*
X201317652Y-105492763D01*
X201317652Y-105492763D02*
X201710747Y-105492763D01*
X202285271Y-104857763D02*
X201982890Y-104857763D01*
X201982890Y-104857763D02*
X201952652Y-105160144D01*
X201952652Y-105160144D02*
X201982890Y-105129905D01*
X201982890Y-105129905D02*
X202043366Y-105099667D01*
X202043366Y-105099667D02*
X202194557Y-105099667D01*
X202194557Y-105099667D02*
X202255033Y-105129905D01*
X202255033Y-105129905D02*
X202285271Y-105160144D01*
X202285271Y-105160144D02*
X202315509Y-105220620D01*
X202315509Y-105220620D02*
X202315509Y-105371810D01*
X202315509Y-105371810D02*
X202285271Y-105432286D01*
X202285271Y-105432286D02*
X202255033Y-105462525D01*
X202255033Y-105462525D02*
X202194557Y-105492763D01*
X202194557Y-105492763D02*
X202043366Y-105492763D01*
X202043366Y-105492763D02*
X201982890Y-105462525D01*
X201982890Y-105462525D02*
X201952652Y-105432286D01*
D13*
X183566863Y-101352047D02*
X184020434Y-101352047D01*
X184020434Y-101352047D02*
X184111148Y-101382286D01*
X184111148Y-101382286D02*
X184171625Y-101442762D01*
X184171625Y-101442762D02*
X184201863Y-101533476D01*
X184201863Y-101533476D02*
X184201863Y-101593952D01*
X184201863Y-100717047D02*
X184201863Y-101079904D01*
X184201863Y-100898476D02*
X183566863Y-100898476D01*
X183566863Y-100898476D02*
X183657577Y-100958952D01*
X183657577Y-100958952D02*
X183718053Y-101019428D01*
X183718053Y-101019428D02*
X183748291Y-101079904D01*
X184201863Y-100112285D02*
X184201863Y-100475142D01*
X184201863Y-100293714D02*
X183566863Y-100293714D01*
X183566863Y-100293714D02*
X183657577Y-100354190D01*
X183657577Y-100354190D02*
X183718053Y-100414666D01*
X183718053Y-100414666D02*
X183748291Y-100475142D01*
X189949063Y-109071228D02*
X189949063Y-108708371D01*
X190584063Y-108889800D02*
X189949063Y-108889800D01*
X190584063Y-108496704D02*
X189949063Y-108496704D01*
X190251444Y-108496704D02*
X190251444Y-108133847D01*
X190584063Y-108133847D02*
X189949063Y-108133847D01*
X190584063Y-107498847D02*
X190584063Y-107861704D01*
X190584063Y-107680276D02*
X189949063Y-107680276D01*
X189949063Y-107680276D02*
X190039777Y-107740752D01*
X190039777Y-107740752D02*
X190100253Y-107801228D01*
X190100253Y-107801228D02*
X190130491Y-107861704D01*
D11*
X190301886Y-92422833D02*
X190332125Y-92453071D01*
X190332125Y-92453071D02*
X190362363Y-92543785D01*
X190362363Y-92543785D02*
X190362363Y-92604261D01*
X190362363Y-92604261D02*
X190332125Y-92694976D01*
X190332125Y-92694976D02*
X190271648Y-92755452D01*
X190271648Y-92755452D02*
X190211172Y-92785690D01*
X190211172Y-92785690D02*
X190090220Y-92815928D01*
X190090220Y-92815928D02*
X189999505Y-92815928D01*
X189999505Y-92815928D02*
X189878553Y-92785690D01*
X189878553Y-92785690D02*
X189818077Y-92755452D01*
X189818077Y-92755452D02*
X189757601Y-92694976D01*
X189757601Y-92694976D02*
X189727363Y-92604261D01*
X189727363Y-92604261D02*
X189727363Y-92543785D01*
X189727363Y-92543785D02*
X189757601Y-92453071D01*
X189757601Y-92453071D02*
X189787839Y-92422833D01*
X189939029Y-91878547D02*
X190362363Y-91878547D01*
X189697125Y-92029738D02*
X190150696Y-92180928D01*
X190150696Y-92180928D02*
X190150696Y-91787833D01*
X190840286Y-132008033D02*
X190870525Y-132038271D01*
X190870525Y-132038271D02*
X190900763Y-132128985D01*
X190900763Y-132128985D02*
X190900763Y-132189461D01*
X190900763Y-132189461D02*
X190870525Y-132280176D01*
X190870525Y-132280176D02*
X190810048Y-132340652D01*
X190810048Y-132340652D02*
X190749572Y-132370890D01*
X190749572Y-132370890D02*
X190628620Y-132401128D01*
X190628620Y-132401128D02*
X190537905Y-132401128D01*
X190537905Y-132401128D02*
X190416953Y-132370890D01*
X190416953Y-132370890D02*
X190356477Y-132340652D01*
X190356477Y-132340652D02*
X190296001Y-132280176D01*
X190296001Y-132280176D02*
X190265763Y-132189461D01*
X190265763Y-132189461D02*
X190265763Y-132128985D01*
X190265763Y-132128985D02*
X190296001Y-132038271D01*
X190296001Y-132038271D02*
X190326239Y-132008033D01*
X190537905Y-131645176D02*
X190507667Y-131705652D01*
X190507667Y-131705652D02*
X190477429Y-131735890D01*
X190477429Y-131735890D02*
X190416953Y-131766128D01*
X190416953Y-131766128D02*
X190386715Y-131766128D01*
X190386715Y-131766128D02*
X190326239Y-131735890D01*
X190326239Y-131735890D02*
X190296001Y-131705652D01*
X190296001Y-131705652D02*
X190265763Y-131645176D01*
X190265763Y-131645176D02*
X190265763Y-131524223D01*
X190265763Y-131524223D02*
X190296001Y-131463747D01*
X190296001Y-131463747D02*
X190326239Y-131433509D01*
X190326239Y-131433509D02*
X190386715Y-131403271D01*
X190386715Y-131403271D02*
X190416953Y-131403271D01*
X190416953Y-131403271D02*
X190477429Y-131433509D01*
X190477429Y-131433509D02*
X190507667Y-131463747D01*
X190507667Y-131463747D02*
X190537905Y-131524223D01*
X190537905Y-131524223D02*
X190537905Y-131645176D01*
X190537905Y-131645176D02*
X190568144Y-131705652D01*
X190568144Y-131705652D02*
X190598382Y-131735890D01*
X190598382Y-131735890D02*
X190658858Y-131766128D01*
X190658858Y-131766128D02*
X190779810Y-131766128D01*
X190779810Y-131766128D02*
X190840286Y-131735890D01*
X190840286Y-131735890D02*
X190870525Y-131705652D01*
X190870525Y-131705652D02*
X190900763Y-131645176D01*
X190900763Y-131645176D02*
X190900763Y-131524223D01*
X190900763Y-131524223D02*
X190870525Y-131463747D01*
X190870525Y-131463747D02*
X190840286Y-131433509D01*
X190840286Y-131433509D02*
X190779810Y-131403271D01*
X190779810Y-131403271D02*
X190658858Y-131403271D01*
X190658858Y-131403271D02*
X190598382Y-131433509D01*
X190598382Y-131433509D02*
X190568144Y-131463747D01*
X190568144Y-131463747D02*
X190537905Y-131524223D01*
D13*
X170458190Y-102166663D02*
X170458190Y-102680710D01*
X170458190Y-102680710D02*
X170488428Y-102741186D01*
X170488428Y-102741186D02*
X170518666Y-102771425D01*
X170518666Y-102771425D02*
X170579142Y-102801663D01*
X170579142Y-102801663D02*
X170700095Y-102801663D01*
X170700095Y-102801663D02*
X170760571Y-102771425D01*
X170760571Y-102771425D02*
X170790809Y-102741186D01*
X170790809Y-102741186D02*
X170821047Y-102680710D01*
X170821047Y-102680710D02*
X170821047Y-102166663D01*
X171425809Y-102166663D02*
X171123428Y-102166663D01*
X171123428Y-102166663D02*
X171093190Y-102469044D01*
X171093190Y-102469044D02*
X171123428Y-102438805D01*
X171123428Y-102438805D02*
X171183904Y-102408567D01*
X171183904Y-102408567D02*
X171335095Y-102408567D01*
X171335095Y-102408567D02*
X171395571Y-102438805D01*
X171395571Y-102438805D02*
X171425809Y-102469044D01*
X171425809Y-102469044D02*
X171456047Y-102529520D01*
X171456047Y-102529520D02*
X171456047Y-102680710D01*
X171456047Y-102680710D02*
X171425809Y-102741186D01*
X171425809Y-102741186D02*
X171395571Y-102771425D01*
X171395571Y-102771425D02*
X171335095Y-102801663D01*
X171335095Y-102801663D02*
X171183904Y-102801663D01*
X171183904Y-102801663D02*
X171123428Y-102771425D01*
X171123428Y-102771425D02*
X171093190Y-102741186D01*
D11*
X201045509Y-96856763D02*
X201045509Y-96221763D01*
X201045509Y-96221763D02*
X201196699Y-96221763D01*
X201196699Y-96221763D02*
X201287414Y-96252001D01*
X201287414Y-96252001D02*
X201347890Y-96312477D01*
X201347890Y-96312477D02*
X201378128Y-96372953D01*
X201378128Y-96372953D02*
X201408366Y-96493905D01*
X201408366Y-96493905D02*
X201408366Y-96584620D01*
X201408366Y-96584620D02*
X201378128Y-96705572D01*
X201378128Y-96705572D02*
X201347890Y-96766048D01*
X201347890Y-96766048D02*
X201287414Y-96826525D01*
X201287414Y-96826525D02*
X201196699Y-96856763D01*
X201196699Y-96856763D02*
X201045509Y-96856763D01*
X201952652Y-96221763D02*
X201831699Y-96221763D01*
X201831699Y-96221763D02*
X201771223Y-96252001D01*
X201771223Y-96252001D02*
X201740985Y-96282239D01*
X201740985Y-96282239D02*
X201680509Y-96372953D01*
X201680509Y-96372953D02*
X201650271Y-96493905D01*
X201650271Y-96493905D02*
X201650271Y-96735810D01*
X201650271Y-96735810D02*
X201680509Y-96796286D01*
X201680509Y-96796286D02*
X201710747Y-96826525D01*
X201710747Y-96826525D02*
X201771223Y-96856763D01*
X201771223Y-96856763D02*
X201892176Y-96856763D01*
X201892176Y-96856763D02*
X201952652Y-96826525D01*
X201952652Y-96826525D02*
X201982890Y-96796286D01*
X201982890Y-96796286D02*
X202013128Y-96735810D01*
X202013128Y-96735810D02*
X202013128Y-96584620D01*
X202013128Y-96584620D02*
X201982890Y-96524144D01*
X201982890Y-96524144D02*
X201952652Y-96493905D01*
X201952652Y-96493905D02*
X201892176Y-96463667D01*
X201892176Y-96463667D02*
X201771223Y-96463667D01*
X201771223Y-96463667D02*
X201710747Y-96493905D01*
X201710747Y-96493905D02*
X201680509Y-96524144D01*
X201680509Y-96524144D02*
X201650271Y-96584620D01*
X176307963Y-88343014D02*
X176005582Y-88554681D01*
X176307963Y-88705871D02*
X175672963Y-88705871D01*
X175672963Y-88705871D02*
X175672963Y-88463966D01*
X175672963Y-88463966D02*
X175703201Y-88403490D01*
X175703201Y-88403490D02*
X175733439Y-88373252D01*
X175733439Y-88373252D02*
X175793915Y-88343014D01*
X175793915Y-88343014D02*
X175884629Y-88343014D01*
X175884629Y-88343014D02*
X175945105Y-88373252D01*
X175945105Y-88373252D02*
X175975344Y-88403490D01*
X175975344Y-88403490D02*
X176005582Y-88463966D01*
X176005582Y-88463966D02*
X176005582Y-88705871D01*
X176307963Y-87738252D02*
X176307963Y-88101109D01*
X176307963Y-87919681D02*
X175672963Y-87919681D01*
X175672963Y-87919681D02*
X175763677Y-87980157D01*
X175763677Y-87980157D02*
X175824153Y-88040633D01*
X175824153Y-88040633D02*
X175854391Y-88101109D01*
X175672963Y-87163728D02*
X175672963Y-87466109D01*
X175672963Y-87466109D02*
X175975344Y-87496347D01*
X175975344Y-87496347D02*
X175945105Y-87466109D01*
X175945105Y-87466109D02*
X175914867Y-87405633D01*
X175914867Y-87405633D02*
X175914867Y-87254442D01*
X175914867Y-87254442D02*
X175945105Y-87193966D01*
X175945105Y-87193966D02*
X175975344Y-87163728D01*
X175975344Y-87163728D02*
X176035820Y-87133490D01*
X176035820Y-87133490D02*
X176187010Y-87133490D01*
X176187010Y-87133490D02*
X176247486Y-87163728D01*
X176247486Y-87163728D02*
X176277725Y-87193966D01*
X176277725Y-87193966D02*
X176307963Y-87254442D01*
X176307963Y-87254442D02*
X176307963Y-87405633D01*
X176307963Y-87405633D02*
X176277725Y-87466109D01*
X176277725Y-87466109D02*
X176247486Y-87496347D01*
D13*
X191878590Y-89937263D02*
X191878590Y-90451310D01*
X191878590Y-90451310D02*
X191908828Y-90511786D01*
X191908828Y-90511786D02*
X191939066Y-90542025D01*
X191939066Y-90542025D02*
X191999542Y-90572263D01*
X191999542Y-90572263D02*
X192120495Y-90572263D01*
X192120495Y-90572263D02*
X192180971Y-90542025D01*
X192180971Y-90542025D02*
X192211209Y-90511786D01*
X192211209Y-90511786D02*
X192241447Y-90451310D01*
X192241447Y-90451310D02*
X192241447Y-89937263D01*
X192513590Y-89997739D02*
X192543828Y-89967501D01*
X192543828Y-89967501D02*
X192604304Y-89937263D01*
X192604304Y-89937263D02*
X192755495Y-89937263D01*
X192755495Y-89937263D02*
X192815971Y-89967501D01*
X192815971Y-89967501D02*
X192846209Y-89997739D01*
X192846209Y-89997739D02*
X192876447Y-90058215D01*
X192876447Y-90058215D02*
X192876447Y-90118691D01*
X192876447Y-90118691D02*
X192846209Y-90209405D01*
X192846209Y-90209405D02*
X192483352Y-90572263D01*
X192483352Y-90572263D02*
X192876447Y-90572263D01*
D11*
X194661366Y-95713763D02*
X194449699Y-95411382D01*
X194298509Y-95713763D02*
X194298509Y-95078763D01*
X194298509Y-95078763D02*
X194540414Y-95078763D01*
X194540414Y-95078763D02*
X194600890Y-95109001D01*
X194600890Y-95109001D02*
X194631128Y-95139239D01*
X194631128Y-95139239D02*
X194661366Y-95199715D01*
X194661366Y-95199715D02*
X194661366Y-95290429D01*
X194661366Y-95290429D02*
X194631128Y-95350905D01*
X194631128Y-95350905D02*
X194600890Y-95381144D01*
X194600890Y-95381144D02*
X194540414Y-95411382D01*
X194540414Y-95411382D02*
X194298509Y-95411382D01*
X195205652Y-95290429D02*
X195205652Y-95713763D01*
X195054461Y-95048525D02*
X194903271Y-95502096D01*
X194903271Y-95502096D02*
X195296366Y-95502096D01*
D13*
X178917333Y-87176663D02*
X178917333Y-87630234D01*
X178917333Y-87630234D02*
X178887094Y-87720948D01*
X178887094Y-87720948D02*
X178826618Y-87781425D01*
X178826618Y-87781425D02*
X178735904Y-87811663D01*
X178735904Y-87811663D02*
X178675428Y-87811663D01*
X179491857Y-87388329D02*
X179491857Y-87811663D01*
X179340666Y-87146425D02*
X179189476Y-87599996D01*
X179189476Y-87599996D02*
X179582571Y-87599996D01*
X193098663Y-112333814D02*
X192796282Y-112545481D01*
X193098663Y-112696671D02*
X192463663Y-112696671D01*
X192463663Y-112696671D02*
X192463663Y-112454766D01*
X192463663Y-112454766D02*
X192493901Y-112394290D01*
X192493901Y-112394290D02*
X192524139Y-112364052D01*
X192524139Y-112364052D02*
X192584615Y-112333814D01*
X192584615Y-112333814D02*
X192675329Y-112333814D01*
X192675329Y-112333814D02*
X192735805Y-112364052D01*
X192735805Y-112364052D02*
X192766044Y-112394290D01*
X192766044Y-112394290D02*
X192796282Y-112454766D01*
X192796282Y-112454766D02*
X192796282Y-112696671D01*
X192524139Y-112091909D02*
X192493901Y-112061671D01*
X192493901Y-112061671D02*
X192463663Y-112001195D01*
X192463663Y-112001195D02*
X192463663Y-111850004D01*
X192463663Y-111850004D02*
X192493901Y-111789528D01*
X192493901Y-111789528D02*
X192524139Y-111759290D01*
X192524139Y-111759290D02*
X192584615Y-111729052D01*
X192584615Y-111729052D02*
X192645091Y-111729052D01*
X192645091Y-111729052D02*
X192735805Y-111759290D01*
X192735805Y-111759290D02*
X193098663Y-112122147D01*
X193098663Y-112122147D02*
X193098663Y-111729052D01*
X192463663Y-111517385D02*
X192463663Y-111124290D01*
X192463663Y-111124290D02*
X192705567Y-111335957D01*
X192705567Y-111335957D02*
X192705567Y-111245242D01*
X192705567Y-111245242D02*
X192735805Y-111184766D01*
X192735805Y-111184766D02*
X192766044Y-111154528D01*
X192766044Y-111154528D02*
X192826520Y-111124290D01*
X192826520Y-111124290D02*
X192977710Y-111124290D01*
X192977710Y-111124290D02*
X193038186Y-111154528D01*
X193038186Y-111154528D02*
X193068425Y-111184766D01*
X193068425Y-111184766D02*
X193098663Y-111245242D01*
X193098663Y-111245242D02*
X193098663Y-111426671D01*
X193098663Y-111426671D02*
X193068425Y-111487147D01*
X193068425Y-111487147D02*
X193038186Y-111517385D01*
D11*
X191334985Y-121485086D02*
X191304747Y-121515325D01*
X191304747Y-121515325D02*
X191214033Y-121545563D01*
X191214033Y-121545563D02*
X191153557Y-121545563D01*
X191153557Y-121545563D02*
X191062842Y-121515325D01*
X191062842Y-121515325D02*
X191002366Y-121454848D01*
X191002366Y-121454848D02*
X190972128Y-121394372D01*
X190972128Y-121394372D02*
X190941890Y-121273420D01*
X190941890Y-121273420D02*
X190941890Y-121182705D01*
X190941890Y-121182705D02*
X190972128Y-121061753D01*
X190972128Y-121061753D02*
X191002366Y-121001277D01*
X191002366Y-121001277D02*
X191062842Y-120940801D01*
X191062842Y-120940801D02*
X191153557Y-120910563D01*
X191153557Y-120910563D02*
X191214033Y-120910563D01*
X191214033Y-120910563D02*
X191304747Y-120940801D01*
X191304747Y-120940801D02*
X191334985Y-120971039D01*
X191939747Y-121545563D02*
X191576890Y-121545563D01*
X191758318Y-121545563D02*
X191758318Y-120910563D01*
X191758318Y-120910563D02*
X191697842Y-121001277D01*
X191697842Y-121001277D02*
X191637366Y-121061753D01*
X191637366Y-121061753D02*
X191576890Y-121091991D01*
X192484033Y-120910563D02*
X192363080Y-120910563D01*
X192363080Y-120910563D02*
X192302604Y-120940801D01*
X192302604Y-120940801D02*
X192272366Y-120971039D01*
X192272366Y-120971039D02*
X192211890Y-121061753D01*
X192211890Y-121061753D02*
X192181652Y-121182705D01*
X192181652Y-121182705D02*
X192181652Y-121424610D01*
X192181652Y-121424610D02*
X192211890Y-121485086D01*
X192211890Y-121485086D02*
X192242128Y-121515325D01*
X192242128Y-121515325D02*
X192302604Y-121545563D01*
X192302604Y-121545563D02*
X192423557Y-121545563D01*
X192423557Y-121545563D02*
X192484033Y-121515325D01*
X192484033Y-121515325D02*
X192514271Y-121485086D01*
X192514271Y-121485086D02*
X192544509Y-121424610D01*
X192544509Y-121424610D02*
X192544509Y-121273420D01*
X192544509Y-121273420D02*
X192514271Y-121212944D01*
X192514271Y-121212944D02*
X192484033Y-121182705D01*
X192484033Y-121182705D02*
X192423557Y-121152467D01*
X192423557Y-121152467D02*
X192302604Y-121152467D01*
X192302604Y-121152467D02*
X192242128Y-121182705D01*
X192242128Y-121182705D02*
X192211890Y-121212944D01*
X192211890Y-121212944D02*
X192181652Y-121273420D01*
X171549785Y-121739086D02*
X171519547Y-121769325D01*
X171519547Y-121769325D02*
X171428833Y-121799563D01*
X171428833Y-121799563D02*
X171368357Y-121799563D01*
X171368357Y-121799563D02*
X171277642Y-121769325D01*
X171277642Y-121769325D02*
X171217166Y-121708848D01*
X171217166Y-121708848D02*
X171186928Y-121648372D01*
X171186928Y-121648372D02*
X171156690Y-121527420D01*
X171156690Y-121527420D02*
X171156690Y-121436705D01*
X171156690Y-121436705D02*
X171186928Y-121315753D01*
X171186928Y-121315753D02*
X171217166Y-121255277D01*
X171217166Y-121255277D02*
X171277642Y-121194801D01*
X171277642Y-121194801D02*
X171368357Y-121164563D01*
X171368357Y-121164563D02*
X171428833Y-121164563D01*
X171428833Y-121164563D02*
X171519547Y-121194801D01*
X171519547Y-121194801D02*
X171549785Y-121225039D01*
X172154547Y-121799563D02*
X171791690Y-121799563D01*
X171973118Y-121799563D02*
X171973118Y-121164563D01*
X171973118Y-121164563D02*
X171912642Y-121255277D01*
X171912642Y-121255277D02*
X171852166Y-121315753D01*
X171852166Y-121315753D02*
X171791690Y-121345991D01*
X172396452Y-121225039D02*
X172426690Y-121194801D01*
X172426690Y-121194801D02*
X172487166Y-121164563D01*
X172487166Y-121164563D02*
X172638357Y-121164563D01*
X172638357Y-121164563D02*
X172698833Y-121194801D01*
X172698833Y-121194801D02*
X172729071Y-121225039D01*
X172729071Y-121225039D02*
X172759309Y-121285515D01*
X172759309Y-121285515D02*
X172759309Y-121345991D01*
X172759309Y-121345991D02*
X172729071Y-121436705D01*
X172729071Y-121436705D02*
X172366214Y-121799563D01*
X172366214Y-121799563D02*
X172759309Y-121799563D01*
X197085163Y-130153833D02*
X196782782Y-130365500D01*
X197085163Y-130516690D02*
X196450163Y-130516690D01*
X196450163Y-130516690D02*
X196450163Y-130274785D01*
X196450163Y-130274785D02*
X196480401Y-130214309D01*
X196480401Y-130214309D02*
X196510639Y-130184071D01*
X196510639Y-130184071D02*
X196571115Y-130153833D01*
X196571115Y-130153833D02*
X196661829Y-130153833D01*
X196661829Y-130153833D02*
X196722305Y-130184071D01*
X196722305Y-130184071D02*
X196752544Y-130214309D01*
X196752544Y-130214309D02*
X196782782Y-130274785D01*
X196782782Y-130274785D02*
X196782782Y-130516690D01*
X196450163Y-129942166D02*
X196450163Y-129518833D01*
X196450163Y-129518833D02*
X197085163Y-129790976D01*
D13*
X194825863Y-120864690D02*
X194190863Y-120864690D01*
X194190863Y-120864690D02*
X194190863Y-120713500D01*
X194190863Y-120713500D02*
X194221101Y-120622785D01*
X194221101Y-120622785D02*
X194281577Y-120562309D01*
X194281577Y-120562309D02*
X194342053Y-120532071D01*
X194342053Y-120532071D02*
X194463005Y-120501833D01*
X194463005Y-120501833D02*
X194553720Y-120501833D01*
X194553720Y-120501833D02*
X194674672Y-120532071D01*
X194674672Y-120532071D02*
X194735148Y-120562309D01*
X194735148Y-120562309D02*
X194795625Y-120622785D01*
X194795625Y-120622785D02*
X194825863Y-120713500D01*
X194825863Y-120713500D02*
X194825863Y-120864690D01*
X194825863Y-120199452D02*
X194825863Y-120078500D01*
X194825863Y-120078500D02*
X194795625Y-120018023D01*
X194795625Y-120018023D02*
X194765386Y-119987785D01*
X194765386Y-119987785D02*
X194674672Y-119927309D01*
X194674672Y-119927309D02*
X194553720Y-119897071D01*
X194553720Y-119897071D02*
X194311815Y-119897071D01*
X194311815Y-119897071D02*
X194251339Y-119927309D01*
X194251339Y-119927309D02*
X194221101Y-119957547D01*
X194221101Y-119957547D02*
X194190863Y-120018023D01*
X194190863Y-120018023D02*
X194190863Y-120138976D01*
X194190863Y-120138976D02*
X194221101Y-120199452D01*
X194221101Y-120199452D02*
X194251339Y-120229690D01*
X194251339Y-120229690D02*
X194311815Y-120259928D01*
X194311815Y-120259928D02*
X194463005Y-120259928D01*
X194463005Y-120259928D02*
X194523482Y-120229690D01*
X194523482Y-120229690D02*
X194553720Y-120199452D01*
X194553720Y-120199452D02*
X194583958Y-120138976D01*
X194583958Y-120138976D02*
X194583958Y-120018023D01*
X194583958Y-120018023D02*
X194553720Y-119957547D01*
X194553720Y-119957547D02*
X194523482Y-119927309D01*
X194523482Y-119927309D02*
X194463005Y-119897071D01*
D11*
X196009985Y-89752363D02*
X195798318Y-89449982D01*
X195647128Y-89752363D02*
X195647128Y-89117363D01*
X195647128Y-89117363D02*
X195889033Y-89117363D01*
X195889033Y-89117363D02*
X195949509Y-89147601D01*
X195949509Y-89147601D02*
X195979747Y-89177839D01*
X195979747Y-89177839D02*
X196009985Y-89238315D01*
X196009985Y-89238315D02*
X196009985Y-89329029D01*
X196009985Y-89329029D02*
X195979747Y-89389505D01*
X195979747Y-89389505D02*
X195949509Y-89419744D01*
X195949509Y-89419744D02*
X195889033Y-89449982D01*
X195889033Y-89449982D02*
X195647128Y-89449982D01*
X196614747Y-89752363D02*
X196251890Y-89752363D01*
X196433318Y-89752363D02*
X196433318Y-89117363D01*
X196433318Y-89117363D02*
X196372842Y-89208077D01*
X196372842Y-89208077D02*
X196312366Y-89268553D01*
X196312366Y-89268553D02*
X196251890Y-89298791D01*
X197159033Y-89329029D02*
X197159033Y-89752363D01*
X197007842Y-89087125D02*
X196856652Y-89540696D01*
X196856652Y-89540696D02*
X197249747Y-89540696D01*
X179371686Y-131995033D02*
X179401925Y-132025271D01*
X179401925Y-132025271D02*
X179432163Y-132115985D01*
X179432163Y-132115985D02*
X179432163Y-132176461D01*
X179432163Y-132176461D02*
X179401925Y-132267176D01*
X179401925Y-132267176D02*
X179341448Y-132327652D01*
X179341448Y-132327652D02*
X179280972Y-132357890D01*
X179280972Y-132357890D02*
X179160020Y-132388128D01*
X179160020Y-132388128D02*
X179069305Y-132388128D01*
X179069305Y-132388128D02*
X178948353Y-132357890D01*
X178948353Y-132357890D02*
X178887877Y-132327652D01*
X178887877Y-132327652D02*
X178827401Y-132267176D01*
X178827401Y-132267176D02*
X178797163Y-132176461D01*
X178797163Y-132176461D02*
X178797163Y-132115985D01*
X178797163Y-132115985D02*
X178827401Y-132025271D01*
X178827401Y-132025271D02*
X178857639Y-131995033D01*
X178797163Y-131783366D02*
X178797163Y-131360033D01*
X178797163Y-131360033D02*
X179432163Y-131632176D01*
D13*
X198311985Y-106957586D02*
X198281747Y-106987825D01*
X198281747Y-106987825D02*
X198191033Y-107018063D01*
X198191033Y-107018063D02*
X198130557Y-107018063D01*
X198130557Y-107018063D02*
X198039842Y-106987825D01*
X198039842Y-106987825D02*
X197979366Y-106927348D01*
X197979366Y-106927348D02*
X197949128Y-106866872D01*
X197949128Y-106866872D02*
X197918890Y-106745920D01*
X197918890Y-106745920D02*
X197918890Y-106655205D01*
X197918890Y-106655205D02*
X197949128Y-106534253D01*
X197949128Y-106534253D02*
X197979366Y-106473777D01*
X197979366Y-106473777D02*
X198039842Y-106413301D01*
X198039842Y-106413301D02*
X198130557Y-106383063D01*
X198130557Y-106383063D02*
X198191033Y-106383063D01*
X198191033Y-106383063D02*
X198281747Y-106413301D01*
X198281747Y-106413301D02*
X198311985Y-106443539D01*
X198916747Y-107018063D02*
X198553890Y-107018063D01*
X198735318Y-107018063D02*
X198735318Y-106383063D01*
X198735318Y-106383063D02*
X198674842Y-106473777D01*
X198674842Y-106473777D02*
X198614366Y-106534253D01*
X198614366Y-106534253D02*
X198553890Y-106564491D01*
X199461033Y-106594729D02*
X199461033Y-107018063D01*
X199309842Y-106352825D02*
X199158652Y-106806396D01*
X199158652Y-106806396D02*
X199551747Y-106806396D01*
X178528133Y-134932663D02*
X178528133Y-135386234D01*
X178528133Y-135386234D02*
X178497894Y-135476948D01*
X178497894Y-135476948D02*
X178437418Y-135537425D01*
X178437418Y-135537425D02*
X178346704Y-135567663D01*
X178346704Y-135567663D02*
X178286228Y-135567663D01*
X179132895Y-134932663D02*
X178830514Y-134932663D01*
X178830514Y-134932663D02*
X178800276Y-135235044D01*
X178800276Y-135235044D02*
X178830514Y-135204805D01*
X178830514Y-135204805D02*
X178890990Y-135174567D01*
X178890990Y-135174567D02*
X179042181Y-135174567D01*
X179042181Y-135174567D02*
X179102657Y-135204805D01*
X179102657Y-135204805D02*
X179132895Y-135235044D01*
X179132895Y-135235044D02*
X179163133Y-135295520D01*
X179163133Y-135295520D02*
X179163133Y-135446710D01*
X179163133Y-135446710D02*
X179132895Y-135507186D01*
X179132895Y-135507186D02*
X179102657Y-135537425D01*
X179102657Y-135537425D02*
X179042181Y-135567663D01*
X179042181Y-135567663D02*
X178890990Y-135567663D01*
X178890990Y-135567663D02*
X178830514Y-135537425D01*
X178830514Y-135537425D02*
X178800276Y-135507186D01*
D11*
X177236966Y-129851363D02*
X177025299Y-129548982D01*
X176874109Y-129851363D02*
X176874109Y-129216363D01*
X176874109Y-129216363D02*
X177116014Y-129216363D01*
X177116014Y-129216363D02*
X177176490Y-129246601D01*
X177176490Y-129246601D02*
X177206728Y-129276839D01*
X177206728Y-129276839D02*
X177236966Y-129337315D01*
X177236966Y-129337315D02*
X177236966Y-129428029D01*
X177236966Y-129428029D02*
X177206728Y-129488505D01*
X177206728Y-129488505D02*
X177176490Y-129518744D01*
X177176490Y-129518744D02*
X177116014Y-129548982D01*
X177116014Y-129548982D02*
X176874109Y-129548982D01*
X177781252Y-129216363D02*
X177660299Y-129216363D01*
X177660299Y-129216363D02*
X177599823Y-129246601D01*
X177599823Y-129246601D02*
X177569585Y-129276839D01*
X177569585Y-129276839D02*
X177509109Y-129367553D01*
X177509109Y-129367553D02*
X177478871Y-129488505D01*
X177478871Y-129488505D02*
X177478871Y-129730410D01*
X177478871Y-129730410D02*
X177509109Y-129790886D01*
X177509109Y-129790886D02*
X177539347Y-129821125D01*
X177539347Y-129821125D02*
X177599823Y-129851363D01*
X177599823Y-129851363D02*
X177720776Y-129851363D01*
X177720776Y-129851363D02*
X177781252Y-129821125D01*
X177781252Y-129821125D02*
X177811490Y-129790886D01*
X177811490Y-129790886D02*
X177841728Y-129730410D01*
X177841728Y-129730410D02*
X177841728Y-129579220D01*
X177841728Y-129579220D02*
X177811490Y-129518744D01*
X177811490Y-129518744D02*
X177781252Y-129488505D01*
X177781252Y-129488505D02*
X177720776Y-129458267D01*
X177720776Y-129458267D02*
X177599823Y-129458267D01*
X177599823Y-129458267D02*
X177539347Y-129488505D01*
X177539347Y-129488505D02*
X177509109Y-129518744D01*
X177509109Y-129518744D02*
X177478871Y-129579220D01*
D13*
X186325933Y-128227063D02*
X186325933Y-128680634D01*
X186325933Y-128680634D02*
X186295694Y-128771348D01*
X186295694Y-128771348D02*
X186235218Y-128831825D01*
X186235218Y-128831825D02*
X186144504Y-128862063D01*
X186144504Y-128862063D02*
X186084028Y-128862063D01*
X186567838Y-128227063D02*
X186991171Y-128227063D01*
X186991171Y-128227063D02*
X186719028Y-128862063D01*
X190914263Y-125106490D02*
X190279263Y-125106490D01*
X190279263Y-125106490D02*
X190279263Y-124864585D01*
X190279263Y-124864585D02*
X190309501Y-124804109D01*
X190309501Y-124804109D02*
X190339739Y-124773871D01*
X190339739Y-124773871D02*
X190400215Y-124743633D01*
X190400215Y-124743633D02*
X190490929Y-124743633D01*
X190490929Y-124743633D02*
X190551405Y-124773871D01*
X190551405Y-124773871D02*
X190581644Y-124804109D01*
X190581644Y-124804109D02*
X190611882Y-124864585D01*
X190611882Y-124864585D02*
X190611882Y-125106490D01*
X190914263Y-124138871D02*
X190914263Y-124501728D01*
X190914263Y-124320300D02*
X190279263Y-124320300D01*
X190279263Y-124320300D02*
X190369977Y-124380776D01*
X190369977Y-124380776D02*
X190430453Y-124441252D01*
X190430453Y-124441252D02*
X190460691Y-124501728D01*
X185468985Y-118473463D02*
X185257318Y-118171082D01*
X185106128Y-118473463D02*
X185106128Y-117838463D01*
X185106128Y-117838463D02*
X185348033Y-117838463D01*
X185348033Y-117838463D02*
X185408509Y-117868701D01*
X185408509Y-117868701D02*
X185438747Y-117898939D01*
X185438747Y-117898939D02*
X185468985Y-117959415D01*
X185468985Y-117959415D02*
X185468985Y-118050129D01*
X185468985Y-118050129D02*
X185438747Y-118110605D01*
X185438747Y-118110605D02*
X185408509Y-118140844D01*
X185408509Y-118140844D02*
X185348033Y-118171082D01*
X185348033Y-118171082D02*
X185106128Y-118171082D01*
X186073747Y-118473463D02*
X185710890Y-118473463D01*
X185892318Y-118473463D02*
X185892318Y-117838463D01*
X185892318Y-117838463D02*
X185831842Y-117929177D01*
X185831842Y-117929177D02*
X185771366Y-117989653D01*
X185771366Y-117989653D02*
X185710890Y-118019891D01*
X186285414Y-117838463D02*
X186708747Y-117838463D01*
X186708747Y-117838463D02*
X186436604Y-118473463D01*
D11*
X196196163Y-100971047D02*
X196649734Y-100971047D01*
X196649734Y-100971047D02*
X196740448Y-101001286D01*
X196740448Y-101001286D02*
X196800925Y-101061762D01*
X196800925Y-101061762D02*
X196831163Y-101152476D01*
X196831163Y-101152476D02*
X196831163Y-101212952D01*
X196831163Y-100336047D02*
X196831163Y-100698904D01*
X196831163Y-100517476D02*
X196196163Y-100517476D01*
X196196163Y-100517476D02*
X196286877Y-100577952D01*
X196286877Y-100577952D02*
X196347353Y-100638428D01*
X196347353Y-100638428D02*
X196377591Y-100698904D01*
X196256639Y-100094142D02*
X196226401Y-100063904D01*
X196226401Y-100063904D02*
X196196163Y-100003428D01*
X196196163Y-100003428D02*
X196196163Y-99852237D01*
X196196163Y-99852237D02*
X196226401Y-99791761D01*
X196226401Y-99791761D02*
X196256639Y-99761523D01*
X196256639Y-99761523D02*
X196317115Y-99731285D01*
X196317115Y-99731285D02*
X196377591Y-99731285D01*
X196377591Y-99731285D02*
X196468305Y-99761523D01*
X196468305Y-99761523D02*
X196831163Y-100124380D01*
X196831163Y-100124380D02*
X196831163Y-99731285D01*
X179998486Y-92261033D02*
X180028725Y-92291271D01*
X180028725Y-92291271D02*
X180058963Y-92381985D01*
X180058963Y-92381985D02*
X180058963Y-92442461D01*
X180058963Y-92442461D02*
X180028725Y-92533176D01*
X180028725Y-92533176D02*
X179968248Y-92593652D01*
X179968248Y-92593652D02*
X179907772Y-92623890D01*
X179907772Y-92623890D02*
X179786820Y-92654128D01*
X179786820Y-92654128D02*
X179696105Y-92654128D01*
X179696105Y-92654128D02*
X179575153Y-92623890D01*
X179575153Y-92623890D02*
X179514677Y-92593652D01*
X179514677Y-92593652D02*
X179454201Y-92533176D01*
X179454201Y-92533176D02*
X179423963Y-92442461D01*
X179423963Y-92442461D02*
X179423963Y-92381985D01*
X179423963Y-92381985D02*
X179454201Y-92291271D01*
X179454201Y-92291271D02*
X179484439Y-92261033D01*
X179423963Y-92049366D02*
X179423963Y-91656271D01*
X179423963Y-91656271D02*
X179665867Y-91867938D01*
X179665867Y-91867938D02*
X179665867Y-91777223D01*
X179665867Y-91777223D02*
X179696105Y-91716747D01*
X179696105Y-91716747D02*
X179726344Y-91686509D01*
X179726344Y-91686509D02*
X179786820Y-91656271D01*
X179786820Y-91656271D02*
X179938010Y-91656271D01*
X179938010Y-91656271D02*
X179998486Y-91686509D01*
X179998486Y-91686509D02*
X180028725Y-91716747D01*
X180028725Y-91716747D02*
X180058963Y-91777223D01*
X180058963Y-91777223D02*
X180058963Y-91958652D01*
X180058963Y-91958652D02*
X180028725Y-92019128D01*
X180028725Y-92019128D02*
X179998486Y-92049366D01*
D13*
X177087590Y-93479863D02*
X177087590Y-93993910D01*
X177087590Y-93993910D02*
X177117828Y-94054386D01*
X177117828Y-94054386D02*
X177148066Y-94084625D01*
X177148066Y-94084625D02*
X177208542Y-94114863D01*
X177208542Y-94114863D02*
X177329495Y-94114863D01*
X177329495Y-94114863D02*
X177389971Y-94084625D01*
X177389971Y-94084625D02*
X177420209Y-94054386D01*
X177420209Y-94054386D02*
X177450447Y-93993910D01*
X177450447Y-93993910D02*
X177450447Y-93479863D01*
X178085447Y-94114863D02*
X177722590Y-94114863D01*
X177904018Y-94114863D02*
X177904018Y-93479863D01*
X177904018Y-93479863D02*
X177843542Y-93570577D01*
X177843542Y-93570577D02*
X177783066Y-93631053D01*
X177783066Y-93631053D02*
X177722590Y-93661291D01*
D11*
X193478363Y-136044214D02*
X193175982Y-136255881D01*
X193478363Y-136407071D02*
X192843363Y-136407071D01*
X192843363Y-136407071D02*
X192843363Y-136165166D01*
X192843363Y-136165166D02*
X192873601Y-136104690D01*
X192873601Y-136104690D02*
X192903839Y-136074452D01*
X192903839Y-136074452D02*
X192964315Y-136044214D01*
X192964315Y-136044214D02*
X193055029Y-136044214D01*
X193055029Y-136044214D02*
X193115505Y-136074452D01*
X193115505Y-136074452D02*
X193145744Y-136104690D01*
X193145744Y-136104690D02*
X193175982Y-136165166D01*
X193175982Y-136165166D02*
X193175982Y-136407071D01*
X193478363Y-135439452D02*
X193478363Y-135802309D01*
X193478363Y-135620881D02*
X192843363Y-135620881D01*
X192843363Y-135620881D02*
X192934077Y-135681357D01*
X192934077Y-135681357D02*
X192994553Y-135741833D01*
X192994553Y-135741833D02*
X193024791Y-135802309D01*
X192843363Y-135227785D02*
X192843363Y-134834690D01*
X192843363Y-134834690D02*
X193085267Y-135046357D01*
X193085267Y-135046357D02*
X193085267Y-134955642D01*
X193085267Y-134955642D02*
X193115505Y-134895166D01*
X193115505Y-134895166D02*
X193145744Y-134864928D01*
X193145744Y-134864928D02*
X193206220Y-134834690D01*
X193206220Y-134834690D02*
X193357410Y-134834690D01*
X193357410Y-134834690D02*
X193417886Y-134864928D01*
X193417886Y-134864928D02*
X193448125Y-134895166D01*
X193448125Y-134895166D02*
X193478363Y-134955642D01*
X193478363Y-134955642D02*
X193478363Y-135137071D01*
X193478363Y-135137071D02*
X193448125Y-135197547D01*
X193448125Y-135197547D02*
X193417886Y-135227785D01*
X173099963Y-90682233D02*
X172797582Y-90893900D01*
X173099963Y-91045090D02*
X172464963Y-91045090D01*
X172464963Y-91045090D02*
X172464963Y-90803185D01*
X172464963Y-90803185D02*
X172495201Y-90742709D01*
X172495201Y-90742709D02*
X172525439Y-90712471D01*
X172525439Y-90712471D02*
X172585915Y-90682233D01*
X172585915Y-90682233D02*
X172676629Y-90682233D01*
X172676629Y-90682233D02*
X172737105Y-90712471D01*
X172737105Y-90712471D02*
X172767344Y-90742709D01*
X172767344Y-90742709D02*
X172797582Y-90803185D01*
X172797582Y-90803185D02*
X172797582Y-91045090D01*
X173099963Y-90077471D02*
X173099963Y-90440328D01*
X173099963Y-90258900D02*
X172464963Y-90258900D01*
X172464963Y-90258900D02*
X172555677Y-90319376D01*
X172555677Y-90319376D02*
X172616153Y-90379852D01*
X172616153Y-90379852D02*
X172646391Y-90440328D01*
D12*
X183690882Y-131995033D02*
X183721121Y-132025271D01*
X183721121Y-132025271D02*
X183751359Y-132115985D01*
X183751359Y-132115985D02*
X183751359Y-132176461D01*
X183751359Y-132176461D02*
X183721121Y-132267176D01*
X183721121Y-132267176D02*
X183660644Y-132327652D01*
X183660644Y-132327652D02*
X183600168Y-132357890D01*
X183600168Y-132357890D02*
X183479216Y-132388128D01*
X183479216Y-132388128D02*
X183388501Y-132388128D01*
X183388501Y-132388128D02*
X183267549Y-132357890D01*
X183267549Y-132357890D02*
X183207073Y-132327652D01*
X183207073Y-132327652D02*
X183146597Y-132267176D01*
X183146597Y-132267176D02*
X183116359Y-132176461D01*
X183116359Y-132176461D02*
X183116359Y-132115985D01*
X183116359Y-132115985D02*
X183146597Y-132025271D01*
X183146597Y-132025271D02*
X183176835Y-131995033D01*
X183116359Y-131420509D02*
X183116359Y-131722890D01*
X183116359Y-131722890D02*
X183418740Y-131753128D01*
X183418740Y-131753128D02*
X183388501Y-131722890D01*
X183388501Y-131722890D02*
X183358263Y-131662414D01*
X183358263Y-131662414D02*
X183358263Y-131511223D01*
X183358263Y-131511223D02*
X183388501Y-131450747D01*
X183388501Y-131450747D02*
X183418740Y-131420509D01*
X183418740Y-131420509D02*
X183479216Y-131390271D01*
X183479216Y-131390271D02*
X183630406Y-131390271D01*
X183630406Y-131390271D02*
X183690882Y-131420509D01*
X183690882Y-131420509D02*
X183721121Y-131450747D01*
X183721121Y-131450747D02*
X183751359Y-131511223D01*
X183751359Y-131511223D02*
X183751359Y-131662414D01*
X183751359Y-131662414D02*
X183721121Y-131722890D01*
X183721121Y-131722890D02*
X183690882Y-131753128D01*
X170371709Y-134477159D02*
X170371709Y-133842159D01*
X170371709Y-133842159D02*
X170522899Y-133842159D01*
X170522899Y-133842159D02*
X170613614Y-133872397D01*
X170613614Y-133872397D02*
X170674090Y-133932873D01*
X170674090Y-133932873D02*
X170704328Y-133993349D01*
X170704328Y-133993349D02*
X170734566Y-134114301D01*
X170734566Y-134114301D02*
X170734566Y-134205016D01*
X170734566Y-134205016D02*
X170704328Y-134325968D01*
X170704328Y-134325968D02*
X170674090Y-134386444D01*
X170674090Y-134386444D02*
X170613614Y-134446921D01*
X170613614Y-134446921D02*
X170522899Y-134477159D01*
X170522899Y-134477159D02*
X170371709Y-134477159D01*
X171339328Y-134477159D02*
X170976471Y-134477159D01*
X171157899Y-134477159D02*
X171157899Y-133842159D01*
X171157899Y-133842159D02*
X171097423Y-133932873D01*
X171097423Y-133932873D02*
X171036947Y-133993349D01*
X171036947Y-133993349D02*
X170976471Y-134023587D01*
X198552709Y-134627759D02*
X198552709Y-133992759D01*
X198552709Y-133992759D02*
X198703899Y-133992759D01*
X198703899Y-133992759D02*
X198794614Y-134022997D01*
X198794614Y-134022997D02*
X198855090Y-134083473D01*
X198855090Y-134083473D02*
X198885328Y-134143949D01*
X198885328Y-134143949D02*
X198915566Y-134264901D01*
X198915566Y-134264901D02*
X198915566Y-134355616D01*
X198915566Y-134355616D02*
X198885328Y-134476568D01*
X198885328Y-134476568D02*
X198855090Y-134537044D01*
X198855090Y-134537044D02*
X198794614Y-134597521D01*
X198794614Y-134597521D02*
X198703899Y-134627759D01*
X198703899Y-134627759D02*
X198552709Y-134627759D01*
X199157471Y-134053235D02*
X199187709Y-134022997D01*
X199187709Y-134022997D02*
X199248185Y-133992759D01*
X199248185Y-133992759D02*
X199399376Y-133992759D01*
X199399376Y-133992759D02*
X199459852Y-134022997D01*
X199459852Y-134022997D02*
X199490090Y-134053235D01*
X199490090Y-134053235D02*
X199520328Y-134113711D01*
X199520328Y-134113711D02*
X199520328Y-134174187D01*
X199520328Y-134174187D02*
X199490090Y-134264901D01*
X199490090Y-134264901D02*
X199127233Y-134627759D01*
X199127233Y-134627759D02*
X199520328Y-134627759D01*
X184477682Y-92261033D02*
X184507921Y-92291271D01*
X184507921Y-92291271D02*
X184538159Y-92381985D01*
X184538159Y-92381985D02*
X184538159Y-92442461D01*
X184538159Y-92442461D02*
X184507921Y-92533176D01*
X184507921Y-92533176D02*
X184447444Y-92593652D01*
X184447444Y-92593652D02*
X184386968Y-92623890D01*
X184386968Y-92623890D02*
X184266016Y-92654128D01*
X184266016Y-92654128D02*
X184175301Y-92654128D01*
X184175301Y-92654128D02*
X184054349Y-92623890D01*
X184054349Y-92623890D02*
X183993873Y-92593652D01*
X183993873Y-92593652D02*
X183933397Y-92533176D01*
X183933397Y-92533176D02*
X183903159Y-92442461D01*
X183903159Y-92442461D02*
X183903159Y-92381985D01*
X183903159Y-92381985D02*
X183933397Y-92291271D01*
X183933397Y-92291271D02*
X183963635Y-92261033D01*
X184538159Y-91656271D02*
X184538159Y-92019128D01*
X184538159Y-91837700D02*
X183903159Y-91837700D01*
X183903159Y-91837700D02*
X183993873Y-91898176D01*
X183993873Y-91898176D02*
X184054349Y-91958652D01*
X184054349Y-91958652D02*
X184084587Y-92019128D01*
D13*
X186021133Y-95181663D02*
X186021133Y-95635234D01*
X186021133Y-95635234D02*
X185990894Y-95725948D01*
X185990894Y-95725948D02*
X185930418Y-95786425D01*
X185930418Y-95786425D02*
X185839704Y-95816663D01*
X185839704Y-95816663D02*
X185779228Y-95816663D01*
X186293276Y-95242139D02*
X186323514Y-95211901D01*
X186323514Y-95211901D02*
X186383990Y-95181663D01*
X186383990Y-95181663D02*
X186535181Y-95181663D01*
X186535181Y-95181663D02*
X186595657Y-95211901D01*
X186595657Y-95211901D02*
X186625895Y-95242139D01*
X186625895Y-95242139D02*
X186656133Y-95302615D01*
X186656133Y-95302615D02*
X186656133Y-95363091D01*
X186656133Y-95363091D02*
X186625895Y-95453805D01*
X186625895Y-95453805D02*
X186263038Y-95816663D01*
X186263038Y-95816663D02*
X186656133Y-95816663D01*
X198991463Y-123877614D02*
X198689082Y-124089281D01*
X198991463Y-124240471D02*
X198356463Y-124240471D01*
X198356463Y-124240471D02*
X198356463Y-123998566D01*
X198356463Y-123998566D02*
X198386701Y-123938090D01*
X198386701Y-123938090D02*
X198416939Y-123907852D01*
X198416939Y-123907852D02*
X198477415Y-123877614D01*
X198477415Y-123877614D02*
X198568129Y-123877614D01*
X198568129Y-123877614D02*
X198628605Y-123907852D01*
X198628605Y-123907852D02*
X198658844Y-123938090D01*
X198658844Y-123938090D02*
X198689082Y-123998566D01*
X198689082Y-123998566D02*
X198689082Y-124240471D01*
X198416939Y-123635709D02*
X198386701Y-123605471D01*
X198386701Y-123605471D02*
X198356463Y-123544995D01*
X198356463Y-123544995D02*
X198356463Y-123393804D01*
X198356463Y-123393804D02*
X198386701Y-123333328D01*
X198386701Y-123333328D02*
X198416939Y-123303090D01*
X198416939Y-123303090D02*
X198477415Y-123272852D01*
X198477415Y-123272852D02*
X198537891Y-123272852D01*
X198537891Y-123272852D02*
X198628605Y-123303090D01*
X198628605Y-123303090D02*
X198991463Y-123665947D01*
X198991463Y-123665947D02*
X198991463Y-123272852D01*
X198356463Y-122879757D02*
X198356463Y-122819280D01*
X198356463Y-122819280D02*
X198386701Y-122758804D01*
X198386701Y-122758804D02*
X198416939Y-122728566D01*
X198416939Y-122728566D02*
X198477415Y-122698328D01*
X198477415Y-122698328D02*
X198598367Y-122668090D01*
X198598367Y-122668090D02*
X198749558Y-122668090D01*
X198749558Y-122668090D02*
X198870510Y-122698328D01*
X198870510Y-122698328D02*
X198930986Y-122728566D01*
X198930986Y-122728566D02*
X198961225Y-122758804D01*
X198961225Y-122758804D02*
X198991463Y-122819280D01*
X198991463Y-122819280D02*
X198991463Y-122879757D01*
X198991463Y-122879757D02*
X198961225Y-122940233D01*
X198961225Y-122940233D02*
X198930986Y-122970471D01*
X198930986Y-122970471D02*
X198870510Y-123000709D01*
X198870510Y-123000709D02*
X198749558Y-123030947D01*
X198749558Y-123030947D02*
X198598367Y-123030947D01*
X198598367Y-123030947D02*
X198477415Y-123000709D01*
X198477415Y-123000709D02*
X198416939Y-122970471D01*
X198416939Y-122970471D02*
X198386701Y-122940233D01*
X198386701Y-122940233D02*
X198356463Y-122879757D01*
X195062063Y-109031814D02*
X194759682Y-109243481D01*
X195062063Y-109394671D02*
X194427063Y-109394671D01*
X194427063Y-109394671D02*
X194427063Y-109152766D01*
X194427063Y-109152766D02*
X194457301Y-109092290D01*
X194457301Y-109092290D02*
X194487539Y-109062052D01*
X194487539Y-109062052D02*
X194548015Y-109031814D01*
X194548015Y-109031814D02*
X194638729Y-109031814D01*
X194638729Y-109031814D02*
X194699205Y-109062052D01*
X194699205Y-109062052D02*
X194729444Y-109092290D01*
X194729444Y-109092290D02*
X194759682Y-109152766D01*
X194759682Y-109152766D02*
X194759682Y-109394671D01*
X194487539Y-108789909D02*
X194457301Y-108759671D01*
X194457301Y-108759671D02*
X194427063Y-108699195D01*
X194427063Y-108699195D02*
X194427063Y-108548004D01*
X194427063Y-108548004D02*
X194457301Y-108487528D01*
X194457301Y-108487528D02*
X194487539Y-108457290D01*
X194487539Y-108457290D02*
X194548015Y-108427052D01*
X194548015Y-108427052D02*
X194608491Y-108427052D01*
X194608491Y-108427052D02*
X194699205Y-108457290D01*
X194699205Y-108457290D02*
X195062063Y-108820147D01*
X195062063Y-108820147D02*
X195062063Y-108427052D01*
X194638729Y-107882766D02*
X195062063Y-107882766D01*
X194396825Y-108033957D02*
X194850396Y-108185147D01*
X194850396Y-108185147D02*
X194850396Y-107792052D01*
X183614785Y-118473463D02*
X183403118Y-118171082D01*
X183251928Y-118473463D02*
X183251928Y-117838463D01*
X183251928Y-117838463D02*
X183493833Y-117838463D01*
X183493833Y-117838463D02*
X183554309Y-117868701D01*
X183554309Y-117868701D02*
X183584547Y-117898939D01*
X183584547Y-117898939D02*
X183614785Y-117959415D01*
X183614785Y-117959415D02*
X183614785Y-118050129D01*
X183614785Y-118050129D02*
X183584547Y-118110605D01*
X183584547Y-118110605D02*
X183554309Y-118140844D01*
X183554309Y-118140844D02*
X183493833Y-118171082D01*
X183493833Y-118171082D02*
X183251928Y-118171082D01*
X184219547Y-118473463D02*
X183856690Y-118473463D01*
X184038118Y-118473463D02*
X184038118Y-117838463D01*
X184038118Y-117838463D02*
X183977642Y-117929177D01*
X183977642Y-117929177D02*
X183917166Y-117989653D01*
X183917166Y-117989653D02*
X183856690Y-118019891D01*
X184582404Y-118110605D02*
X184521928Y-118080367D01*
X184521928Y-118080367D02*
X184491690Y-118050129D01*
X184491690Y-118050129D02*
X184461452Y-117989653D01*
X184461452Y-117989653D02*
X184461452Y-117959415D01*
X184461452Y-117959415D02*
X184491690Y-117898939D01*
X184491690Y-117898939D02*
X184521928Y-117868701D01*
X184521928Y-117868701D02*
X184582404Y-117838463D01*
X184582404Y-117838463D02*
X184703357Y-117838463D01*
X184703357Y-117838463D02*
X184763833Y-117868701D01*
X184763833Y-117868701D02*
X184794071Y-117898939D01*
X184794071Y-117898939D02*
X184824309Y-117959415D01*
X184824309Y-117959415D02*
X184824309Y-117989653D01*
X184824309Y-117989653D02*
X184794071Y-118050129D01*
X184794071Y-118050129D02*
X184763833Y-118080367D01*
X184763833Y-118080367D02*
X184703357Y-118110605D01*
X184703357Y-118110605D02*
X184582404Y-118110605D01*
X184582404Y-118110605D02*
X184521928Y-118140844D01*
X184521928Y-118140844D02*
X184491690Y-118171082D01*
X184491690Y-118171082D02*
X184461452Y-118231558D01*
X184461452Y-118231558D02*
X184461452Y-118352510D01*
X184461452Y-118352510D02*
X184491690Y-118412986D01*
X184491690Y-118412986D02*
X184521928Y-118443225D01*
X184521928Y-118443225D02*
X184582404Y-118473463D01*
X184582404Y-118473463D02*
X184703357Y-118473463D01*
X184703357Y-118473463D02*
X184763833Y-118443225D01*
X184763833Y-118443225D02*
X184794071Y-118412986D01*
X184794071Y-118412986D02*
X184824309Y-118352510D01*
X184824309Y-118352510D02*
X184824309Y-118231558D01*
X184824309Y-118231558D02*
X184794071Y-118171082D01*
X184794071Y-118171082D02*
X184763833Y-118140844D01*
X184763833Y-118140844D02*
X184703357Y-118110605D01*
X171625985Y-118336786D02*
X171595747Y-118367025D01*
X171595747Y-118367025D02*
X171505033Y-118397263D01*
X171505033Y-118397263D02*
X171444557Y-118397263D01*
X171444557Y-118397263D02*
X171353842Y-118367025D01*
X171353842Y-118367025D02*
X171293366Y-118306548D01*
X171293366Y-118306548D02*
X171263128Y-118246072D01*
X171263128Y-118246072D02*
X171232890Y-118125120D01*
X171232890Y-118125120D02*
X171232890Y-118034405D01*
X171232890Y-118034405D02*
X171263128Y-117913453D01*
X171263128Y-117913453D02*
X171293366Y-117852977D01*
X171293366Y-117852977D02*
X171353842Y-117792501D01*
X171353842Y-117792501D02*
X171444557Y-117762263D01*
X171444557Y-117762263D02*
X171505033Y-117762263D01*
X171505033Y-117762263D02*
X171595747Y-117792501D01*
X171595747Y-117792501D02*
X171625985Y-117822739D01*
X172230747Y-118397263D02*
X171867890Y-118397263D01*
X172049318Y-118397263D02*
X172049318Y-117762263D01*
X172049318Y-117762263D02*
X171988842Y-117852977D01*
X171988842Y-117852977D02*
X171928366Y-117913453D01*
X171928366Y-117913453D02*
X171867890Y-117943691D01*
X172835509Y-118397263D02*
X172472652Y-118397263D01*
X172654080Y-118397263D02*
X172654080Y-117762263D01*
X172654080Y-117762263D02*
X172593604Y-117852977D01*
X172593604Y-117852977D02*
X172533128Y-117913453D01*
X172533128Y-117913453D02*
X172472652Y-117943691D01*
D11*
X196645590Y-108434325D02*
X196736304Y-108464563D01*
X196736304Y-108464563D02*
X196887495Y-108464563D01*
X196887495Y-108464563D02*
X196947971Y-108434325D01*
X196947971Y-108434325D02*
X196978209Y-108404086D01*
X196978209Y-108404086D02*
X197008447Y-108343610D01*
X197008447Y-108343610D02*
X197008447Y-108283134D01*
X197008447Y-108283134D02*
X196978209Y-108222658D01*
X196978209Y-108222658D02*
X196947971Y-108192420D01*
X196947971Y-108192420D02*
X196887495Y-108162182D01*
X196887495Y-108162182D02*
X196766542Y-108131944D01*
X196766542Y-108131944D02*
X196706066Y-108101705D01*
X196706066Y-108101705D02*
X196675828Y-108071467D01*
X196675828Y-108071467D02*
X196645590Y-108010991D01*
X196645590Y-108010991D02*
X196645590Y-107950515D01*
X196645590Y-107950515D02*
X196675828Y-107890039D01*
X196675828Y-107890039D02*
X196706066Y-107859801D01*
X196706066Y-107859801D02*
X196766542Y-107829563D01*
X196766542Y-107829563D02*
X196917733Y-107829563D01*
X196917733Y-107829563D02*
X197008447Y-107859801D01*
X197613209Y-108464563D02*
X197250352Y-108464563D01*
X197431780Y-108464563D02*
X197431780Y-107829563D01*
X197431780Y-107829563D02*
X197371304Y-107920277D01*
X197371304Y-107920277D02*
X197310828Y-107980753D01*
X197310828Y-107980753D02*
X197250352Y-108010991D01*
D13*
X190694733Y-134932663D02*
X190694733Y-135386234D01*
X190694733Y-135386234D02*
X190664494Y-135476948D01*
X190664494Y-135476948D02*
X190604018Y-135537425D01*
X190604018Y-135537425D02*
X190513304Y-135567663D01*
X190513304Y-135567663D02*
X190452828Y-135567663D01*
X191087828Y-135204805D02*
X191027352Y-135174567D01*
X191027352Y-135174567D02*
X190997114Y-135144329D01*
X190997114Y-135144329D02*
X190966876Y-135083853D01*
X190966876Y-135083853D02*
X190966876Y-135053615D01*
X190966876Y-135053615D02*
X190997114Y-134993139D01*
X190997114Y-134993139D02*
X191027352Y-134962901D01*
X191027352Y-134962901D02*
X191087828Y-134932663D01*
X191087828Y-134932663D02*
X191208781Y-134932663D01*
X191208781Y-134932663D02*
X191269257Y-134962901D01*
X191269257Y-134962901D02*
X191299495Y-134993139D01*
X191299495Y-134993139D02*
X191329733Y-135053615D01*
X191329733Y-135053615D02*
X191329733Y-135083853D01*
X191329733Y-135083853D02*
X191299495Y-135144329D01*
X191299495Y-135144329D02*
X191269257Y-135174567D01*
X191269257Y-135174567D02*
X191208781Y-135204805D01*
X191208781Y-135204805D02*
X191087828Y-135204805D01*
X191087828Y-135204805D02*
X191027352Y-135235044D01*
X191027352Y-135235044D02*
X190997114Y-135265282D01*
X190997114Y-135265282D02*
X190966876Y-135325758D01*
X190966876Y-135325758D02*
X190966876Y-135446710D01*
X190966876Y-135446710D02*
X190997114Y-135507186D01*
X190997114Y-135507186D02*
X191027352Y-135537425D01*
X191027352Y-135537425D02*
X191087828Y-135567663D01*
X191087828Y-135567663D02*
X191208781Y-135567663D01*
X191208781Y-135567663D02*
X191269257Y-135537425D01*
X191269257Y-135537425D02*
X191299495Y-135507186D01*
X191299495Y-135507186D02*
X191329733Y-135446710D01*
X191329733Y-135446710D02*
X191329733Y-135325758D01*
X191329733Y-135325758D02*
X191299495Y-135265282D01*
X191299495Y-135265282D02*
X191269257Y-135235044D01*
X191269257Y-135235044D02*
X191208781Y-135204805D01*
X187186509Y-118473463D02*
X187186509Y-117838463D01*
X187186509Y-117838463D02*
X187337699Y-117838463D01*
X187337699Y-117838463D02*
X187428414Y-117868701D01*
X187428414Y-117868701D02*
X187488890Y-117929177D01*
X187488890Y-117929177D02*
X187519128Y-117989653D01*
X187519128Y-117989653D02*
X187549366Y-118110605D01*
X187549366Y-118110605D02*
X187549366Y-118201320D01*
X187549366Y-118201320D02*
X187519128Y-118322272D01*
X187519128Y-118322272D02*
X187488890Y-118382748D01*
X187488890Y-118382748D02*
X187428414Y-118443225D01*
X187428414Y-118443225D02*
X187337699Y-118473463D01*
X187337699Y-118473463D02*
X187186509Y-118473463D01*
X188123890Y-117838463D02*
X187821509Y-117838463D01*
X187821509Y-117838463D02*
X187791271Y-118140844D01*
X187791271Y-118140844D02*
X187821509Y-118110605D01*
X187821509Y-118110605D02*
X187881985Y-118080367D01*
X187881985Y-118080367D02*
X188033176Y-118080367D01*
X188033176Y-118080367D02*
X188093652Y-118110605D01*
X188093652Y-118110605D02*
X188123890Y-118140844D01*
X188123890Y-118140844D02*
X188154128Y-118201320D01*
X188154128Y-118201320D02*
X188154128Y-118352510D01*
X188154128Y-118352510D02*
X188123890Y-118412986D01*
X188123890Y-118412986D02*
X188093652Y-118443225D01*
X188093652Y-118443225D02*
X188033176Y-118473463D01*
X188033176Y-118473463D02*
X187881985Y-118473463D01*
X187881985Y-118473463D02*
X187821509Y-118443225D01*
X187821509Y-118443225D02*
X187791271Y-118412986D01*
X190483333Y-87167263D02*
X190483333Y-87620834D01*
X190483333Y-87620834D02*
X190453094Y-87711548D01*
X190453094Y-87711548D02*
X190392618Y-87772025D01*
X190392618Y-87772025D02*
X190301904Y-87802263D01*
X190301904Y-87802263D02*
X190241428Y-87802263D01*
X191118333Y-87802263D02*
X190755476Y-87802263D01*
X190936904Y-87802263D02*
X190936904Y-87167263D01*
X190936904Y-87167263D02*
X190876428Y-87257977D01*
X190876428Y-87257977D02*
X190815952Y-87318453D01*
X190815952Y-87318453D02*
X190755476Y-87348691D01*
D12*
X186363482Y-131993033D02*
X186393721Y-132023271D01*
X186393721Y-132023271D02*
X186423959Y-132113985D01*
X186423959Y-132113985D02*
X186423959Y-132174461D01*
X186423959Y-132174461D02*
X186393721Y-132265176D01*
X186393721Y-132265176D02*
X186333244Y-132325652D01*
X186333244Y-132325652D02*
X186272768Y-132355890D01*
X186272768Y-132355890D02*
X186151816Y-132386128D01*
X186151816Y-132386128D02*
X186061101Y-132386128D01*
X186061101Y-132386128D02*
X185940149Y-132355890D01*
X185940149Y-132355890D02*
X185879673Y-132325652D01*
X185879673Y-132325652D02*
X185819197Y-132265176D01*
X185819197Y-132265176D02*
X185788959Y-132174461D01*
X185788959Y-132174461D02*
X185788959Y-132113985D01*
X185788959Y-132113985D02*
X185819197Y-132023271D01*
X185819197Y-132023271D02*
X185849435Y-131993033D01*
X185788959Y-131448747D02*
X185788959Y-131569700D01*
X185788959Y-131569700D02*
X185819197Y-131630176D01*
X185819197Y-131630176D02*
X185849435Y-131660414D01*
X185849435Y-131660414D02*
X185940149Y-131720890D01*
X185940149Y-131720890D02*
X186061101Y-131751128D01*
X186061101Y-131751128D02*
X186303006Y-131751128D01*
X186303006Y-131751128D02*
X186363482Y-131720890D01*
X186363482Y-131720890D02*
X186393721Y-131690652D01*
X186393721Y-131690652D02*
X186423959Y-131630176D01*
X186423959Y-131630176D02*
X186423959Y-131509223D01*
X186423959Y-131509223D02*
X186393721Y-131448747D01*
X186393721Y-131448747D02*
X186363482Y-131418509D01*
X186363482Y-131418509D02*
X186303006Y-131388271D01*
X186303006Y-131388271D02*
X186151816Y-131388271D01*
X186151816Y-131388271D02*
X186091340Y-131418509D01*
X186091340Y-131418509D02*
X186061101Y-131448747D01*
X186061101Y-131448747D02*
X186030863Y-131509223D01*
X186030863Y-131509223D02*
X186030863Y-131630176D01*
X186030863Y-131630176D02*
X186061101Y-131690652D01*
X186061101Y-131690652D02*
X186091340Y-131720890D01*
X186091340Y-131720890D02*
X186151816Y-131751128D01*
D13*
X194825863Y-123889814D02*
X194523482Y-124101481D01*
X194825863Y-124252671D02*
X194190863Y-124252671D01*
X194190863Y-124252671D02*
X194190863Y-124010766D01*
X194190863Y-124010766D02*
X194221101Y-123950290D01*
X194221101Y-123950290D02*
X194251339Y-123920052D01*
X194251339Y-123920052D02*
X194311815Y-123889814D01*
X194311815Y-123889814D02*
X194402529Y-123889814D01*
X194402529Y-123889814D02*
X194463005Y-123920052D01*
X194463005Y-123920052D02*
X194493244Y-123950290D01*
X194493244Y-123950290D02*
X194523482Y-124010766D01*
X194523482Y-124010766D02*
X194523482Y-124252671D01*
X194251339Y-123647909D02*
X194221101Y-123617671D01*
X194221101Y-123617671D02*
X194190863Y-123557195D01*
X194190863Y-123557195D02*
X194190863Y-123406004D01*
X194190863Y-123406004D02*
X194221101Y-123345528D01*
X194221101Y-123345528D02*
X194251339Y-123315290D01*
X194251339Y-123315290D02*
X194311815Y-123285052D01*
X194311815Y-123285052D02*
X194372291Y-123285052D01*
X194372291Y-123285052D02*
X194463005Y-123315290D01*
X194463005Y-123315290D02*
X194825863Y-123678147D01*
X194825863Y-123678147D02*
X194825863Y-123285052D01*
X194825863Y-122680290D02*
X194825863Y-123043147D01*
X194825863Y-122861719D02*
X194190863Y-122861719D01*
X194190863Y-122861719D02*
X194281577Y-122922195D01*
X194281577Y-122922195D02*
X194342053Y-122982671D01*
X194342053Y-122982671D02*
X194372291Y-123043147D01*
X198991463Y-120864690D02*
X198356463Y-120864690D01*
X198356463Y-120864690D02*
X198356463Y-120713500D01*
X198356463Y-120713500D02*
X198386701Y-120622785D01*
X198386701Y-120622785D02*
X198447177Y-120562309D01*
X198447177Y-120562309D02*
X198507653Y-120532071D01*
X198507653Y-120532071D02*
X198628605Y-120501833D01*
X198628605Y-120501833D02*
X198719320Y-120501833D01*
X198719320Y-120501833D02*
X198840272Y-120532071D01*
X198840272Y-120532071D02*
X198900748Y-120562309D01*
X198900748Y-120562309D02*
X198961225Y-120622785D01*
X198961225Y-120622785D02*
X198991463Y-120713500D01*
X198991463Y-120713500D02*
X198991463Y-120864690D01*
X198628605Y-120138976D02*
X198598367Y-120199452D01*
X198598367Y-120199452D02*
X198568129Y-120229690D01*
X198568129Y-120229690D02*
X198507653Y-120259928D01*
X198507653Y-120259928D02*
X198477415Y-120259928D01*
X198477415Y-120259928D02*
X198416939Y-120229690D01*
X198416939Y-120229690D02*
X198386701Y-120199452D01*
X198386701Y-120199452D02*
X198356463Y-120138976D01*
X198356463Y-120138976D02*
X198356463Y-120018023D01*
X198356463Y-120018023D02*
X198386701Y-119957547D01*
X198386701Y-119957547D02*
X198416939Y-119927309D01*
X198416939Y-119927309D02*
X198477415Y-119897071D01*
X198477415Y-119897071D02*
X198507653Y-119897071D01*
X198507653Y-119897071D02*
X198568129Y-119927309D01*
X198568129Y-119927309D02*
X198598367Y-119957547D01*
X198598367Y-119957547D02*
X198628605Y-120018023D01*
X198628605Y-120018023D02*
X198628605Y-120138976D01*
X198628605Y-120138976D02*
X198658844Y-120199452D01*
X198658844Y-120199452D02*
X198689082Y-120229690D01*
X198689082Y-120229690D02*
X198749558Y-120259928D01*
X198749558Y-120259928D02*
X198870510Y-120259928D01*
X198870510Y-120259928D02*
X198930986Y-120229690D01*
X198930986Y-120229690D02*
X198961225Y-120199452D01*
X198961225Y-120199452D02*
X198991463Y-120138976D01*
X198991463Y-120138976D02*
X198991463Y-120018023D01*
X198991463Y-120018023D02*
X198961225Y-119957547D01*
X198961225Y-119957547D02*
X198930986Y-119927309D01*
X198930986Y-119927309D02*
X198870510Y-119897071D01*
X198870510Y-119897071D02*
X198749558Y-119897071D01*
X198749558Y-119897071D02*
X198689082Y-119927309D01*
X198689082Y-119927309D02*
X198658844Y-119957547D01*
X198658844Y-119957547D02*
X198628605Y-120018023D01*
D11*
X171575185Y-123415486D02*
X171544947Y-123445725D01*
X171544947Y-123445725D02*
X171454233Y-123475963D01*
X171454233Y-123475963D02*
X171393757Y-123475963D01*
X171393757Y-123475963D02*
X171303042Y-123445725D01*
X171303042Y-123445725D02*
X171242566Y-123385248D01*
X171242566Y-123385248D02*
X171212328Y-123324772D01*
X171212328Y-123324772D02*
X171182090Y-123203820D01*
X171182090Y-123203820D02*
X171182090Y-123113105D01*
X171182090Y-123113105D02*
X171212328Y-122992153D01*
X171212328Y-122992153D02*
X171242566Y-122931677D01*
X171242566Y-122931677D02*
X171303042Y-122871201D01*
X171303042Y-122871201D02*
X171393757Y-122840963D01*
X171393757Y-122840963D02*
X171454233Y-122840963D01*
X171454233Y-122840963D02*
X171544947Y-122871201D01*
X171544947Y-122871201D02*
X171575185Y-122901439D01*
X172179947Y-123475963D02*
X171817090Y-123475963D01*
X171998518Y-123475963D02*
X171998518Y-122840963D01*
X171998518Y-122840963D02*
X171938042Y-122931677D01*
X171938042Y-122931677D02*
X171877566Y-122992153D01*
X171877566Y-122992153D02*
X171817090Y-123022391D01*
X172573042Y-122840963D02*
X172633519Y-122840963D01*
X172633519Y-122840963D02*
X172693995Y-122871201D01*
X172693995Y-122871201D02*
X172724233Y-122901439D01*
X172724233Y-122901439D02*
X172754471Y-122961915D01*
X172754471Y-122961915D02*
X172784709Y-123082867D01*
X172784709Y-123082867D02*
X172784709Y-123234058D01*
X172784709Y-123234058D02*
X172754471Y-123355010D01*
X172754471Y-123355010D02*
X172724233Y-123415486D01*
X172724233Y-123415486D02*
X172693995Y-123445725D01*
X172693995Y-123445725D02*
X172633519Y-123475963D01*
X172633519Y-123475963D02*
X172573042Y-123475963D01*
X172573042Y-123475963D02*
X172512566Y-123445725D01*
X172512566Y-123445725D02*
X172482328Y-123415486D01*
X172482328Y-123415486D02*
X172452090Y-123355010D01*
X172452090Y-123355010D02*
X172421852Y-123234058D01*
X172421852Y-123234058D02*
X172421852Y-123082867D01*
X172421852Y-123082867D02*
X172452090Y-122961915D01*
X172452090Y-122961915D02*
X172482328Y-122901439D01*
X172482328Y-122901439D02*
X172512566Y-122871201D01*
X172512566Y-122871201D02*
X172573042Y-122840963D01*
D12*
X199226109Y-89745959D02*
X199226109Y-89110959D01*
X199226109Y-89110959D02*
X199377299Y-89110959D01*
X199377299Y-89110959D02*
X199468014Y-89141197D01*
X199468014Y-89141197D02*
X199528490Y-89201673D01*
X199528490Y-89201673D02*
X199558728Y-89262149D01*
X199558728Y-89262149D02*
X199588966Y-89383101D01*
X199588966Y-89383101D02*
X199588966Y-89473816D01*
X199588966Y-89473816D02*
X199558728Y-89594768D01*
X199558728Y-89594768D02*
X199528490Y-89655244D01*
X199528490Y-89655244D02*
X199468014Y-89715721D01*
X199468014Y-89715721D02*
X199377299Y-89745959D01*
X199377299Y-89745959D02*
X199226109Y-89745959D01*
X199800633Y-89110959D02*
X200193728Y-89110959D01*
X200193728Y-89110959D02*
X199982061Y-89352863D01*
X199982061Y-89352863D02*
X200072776Y-89352863D01*
X200072776Y-89352863D02*
X200133252Y-89383101D01*
X200133252Y-89383101D02*
X200163490Y-89413340D01*
X200163490Y-89413340D02*
X200193728Y-89473816D01*
X200193728Y-89473816D02*
X200193728Y-89625006D01*
X200193728Y-89625006D02*
X200163490Y-89685482D01*
X200163490Y-89685482D02*
X200133252Y-89715721D01*
X200133252Y-89715721D02*
X200072776Y-89745959D01*
X200072776Y-89745959D02*
X199891347Y-89745959D01*
X199891347Y-89745959D02*
X199830871Y-89715721D01*
X199830871Y-89715721D02*
X199800633Y-89685482D01*
D11*
X188919099Y-116571681D02*
X189433146Y-116571681D01*
X189433146Y-116571681D02*
X189493622Y-116541443D01*
X189493622Y-116541443D02*
X189523861Y-116511205D01*
X189523861Y-116511205D02*
X189554099Y-116450729D01*
X189554099Y-116450729D02*
X189554099Y-116329776D01*
X189554099Y-116329776D02*
X189523861Y-116269300D01*
X189523861Y-116269300D02*
X189493622Y-116239062D01*
X189493622Y-116239062D02*
X189433146Y-116208824D01*
X189433146Y-116208824D02*
X188919099Y-116208824D01*
X188919099Y-115966919D02*
X188919099Y-115543586D01*
X188919099Y-115543586D02*
X189554099Y-115815729D01*
X188593185Y-110169886D02*
X188562947Y-110200125D01*
X188562947Y-110200125D02*
X188472233Y-110230363D01*
X188472233Y-110230363D02*
X188411757Y-110230363D01*
X188411757Y-110230363D02*
X188321042Y-110200125D01*
X188321042Y-110200125D02*
X188260566Y-110139648D01*
X188260566Y-110139648D02*
X188230328Y-110079172D01*
X188230328Y-110079172D02*
X188200090Y-109958220D01*
X188200090Y-109958220D02*
X188200090Y-109867505D01*
X188200090Y-109867505D02*
X188230328Y-109746553D01*
X188230328Y-109746553D02*
X188260566Y-109686077D01*
X188260566Y-109686077D02*
X188321042Y-109625601D01*
X188321042Y-109625601D02*
X188411757Y-109595363D01*
X188411757Y-109595363D02*
X188472233Y-109595363D01*
X188472233Y-109595363D02*
X188562947Y-109625601D01*
X188562947Y-109625601D02*
X188593185Y-109655839D01*
X189197947Y-110230363D02*
X188835090Y-110230363D01*
X189016518Y-110230363D02*
X189016518Y-109595363D01*
X189016518Y-109595363D02*
X188956042Y-109686077D01*
X188956042Y-109686077D02*
X188895566Y-109746553D01*
X188895566Y-109746553D02*
X188835090Y-109776791D01*
X189409614Y-109595363D02*
X189832947Y-109595363D01*
X189832947Y-109595363D02*
X189560804Y-110230363D01*
D13*
X187069185Y-111793263D02*
X186857518Y-111490882D01*
X186706328Y-111793263D02*
X186706328Y-111158263D01*
X186706328Y-111158263D02*
X186948233Y-111158263D01*
X186948233Y-111158263D02*
X187008709Y-111188501D01*
X187008709Y-111188501D02*
X187038947Y-111218739D01*
X187038947Y-111218739D02*
X187069185Y-111279215D01*
X187069185Y-111279215D02*
X187069185Y-111369929D01*
X187069185Y-111369929D02*
X187038947Y-111430405D01*
X187038947Y-111430405D02*
X187008709Y-111460644D01*
X187008709Y-111460644D02*
X186948233Y-111490882D01*
X186948233Y-111490882D02*
X186706328Y-111490882D01*
X187673947Y-111793263D02*
X187311090Y-111793263D01*
X187492518Y-111793263D02*
X187492518Y-111158263D01*
X187492518Y-111158263D02*
X187432042Y-111248977D01*
X187432042Y-111248977D02*
X187371566Y-111309453D01*
X187371566Y-111309453D02*
X187311090Y-111339691D01*
X188278709Y-111793263D02*
X187915852Y-111793263D01*
X188097280Y-111793263D02*
X188097280Y-111158263D01*
X188097280Y-111158263D02*
X188036804Y-111248977D01*
X188036804Y-111248977D02*
X187976328Y-111309453D01*
X187976328Y-111309453D02*
X187915852Y-111339691D01*
X181760585Y-118473463D02*
X181548918Y-118171082D01*
X181397728Y-118473463D02*
X181397728Y-117838463D01*
X181397728Y-117838463D02*
X181639633Y-117838463D01*
X181639633Y-117838463D02*
X181700109Y-117868701D01*
X181700109Y-117868701D02*
X181730347Y-117898939D01*
X181730347Y-117898939D02*
X181760585Y-117959415D01*
X181760585Y-117959415D02*
X181760585Y-118050129D01*
X181760585Y-118050129D02*
X181730347Y-118110605D01*
X181730347Y-118110605D02*
X181700109Y-118140844D01*
X181700109Y-118140844D02*
X181639633Y-118171082D01*
X181639633Y-118171082D02*
X181397728Y-118171082D01*
X182365347Y-118473463D02*
X182002490Y-118473463D01*
X182183918Y-118473463D02*
X182183918Y-117838463D01*
X182183918Y-117838463D02*
X182123442Y-117929177D01*
X182123442Y-117929177D02*
X182062966Y-117989653D01*
X182062966Y-117989653D02*
X182002490Y-118019891D01*
X182909633Y-117838463D02*
X182788680Y-117838463D01*
X182788680Y-117838463D02*
X182728204Y-117868701D01*
X182728204Y-117868701D02*
X182697966Y-117898939D01*
X182697966Y-117898939D02*
X182637490Y-117989653D01*
X182637490Y-117989653D02*
X182607252Y-118110605D01*
X182607252Y-118110605D02*
X182607252Y-118352510D01*
X182607252Y-118352510D02*
X182637490Y-118412986D01*
X182637490Y-118412986D02*
X182667728Y-118443225D01*
X182667728Y-118443225D02*
X182728204Y-118473463D01*
X182728204Y-118473463D02*
X182849157Y-118473463D01*
X182849157Y-118473463D02*
X182909633Y-118443225D01*
X182909633Y-118443225D02*
X182939871Y-118412986D01*
X182939871Y-118412986D02*
X182970109Y-118352510D01*
X182970109Y-118352510D02*
X182970109Y-118201320D01*
X182970109Y-118201320D02*
X182939871Y-118140844D01*
X182939871Y-118140844D02*
X182909633Y-118110605D01*
X182909633Y-118110605D02*
X182849157Y-118080367D01*
X182849157Y-118080367D02*
X182728204Y-118080367D01*
X182728204Y-118080367D02*
X182667728Y-118110605D01*
X182667728Y-118110605D02*
X182637490Y-118140844D01*
X182637490Y-118140844D02*
X182607252Y-118201320D01*
D11*
X198558363Y-130052233D02*
X198255982Y-130263900D01*
X198558363Y-130415090D02*
X197923363Y-130415090D01*
X197923363Y-130415090D02*
X197923363Y-130173185D01*
X197923363Y-130173185D02*
X197953601Y-130112709D01*
X197953601Y-130112709D02*
X197983839Y-130082471D01*
X197983839Y-130082471D02*
X198044315Y-130052233D01*
X198044315Y-130052233D02*
X198135029Y-130052233D01*
X198135029Y-130052233D02*
X198195505Y-130082471D01*
X198195505Y-130082471D02*
X198225744Y-130112709D01*
X198225744Y-130112709D02*
X198255982Y-130173185D01*
X198255982Y-130173185D02*
X198255982Y-130415090D01*
X198195505Y-129689376D02*
X198165267Y-129749852D01*
X198165267Y-129749852D02*
X198135029Y-129780090D01*
X198135029Y-129780090D02*
X198074553Y-129810328D01*
X198074553Y-129810328D02*
X198044315Y-129810328D01*
X198044315Y-129810328D02*
X197983839Y-129780090D01*
X197983839Y-129780090D02*
X197953601Y-129749852D01*
X197953601Y-129749852D02*
X197923363Y-129689376D01*
X197923363Y-129689376D02*
X197923363Y-129568423D01*
X197923363Y-129568423D02*
X197953601Y-129507947D01*
X197953601Y-129507947D02*
X197983839Y-129477709D01*
X197983839Y-129477709D02*
X198044315Y-129447471D01*
X198044315Y-129447471D02*
X198074553Y-129447471D01*
X198074553Y-129447471D02*
X198135029Y-129477709D01*
X198135029Y-129477709D02*
X198165267Y-129507947D01*
X198165267Y-129507947D02*
X198195505Y-129568423D01*
X198195505Y-129568423D02*
X198195505Y-129689376D01*
X198195505Y-129689376D02*
X198225744Y-129749852D01*
X198225744Y-129749852D02*
X198255982Y-129780090D01*
X198255982Y-129780090D02*
X198316458Y-129810328D01*
X198316458Y-129810328D02*
X198437410Y-129810328D01*
X198437410Y-129810328D02*
X198497886Y-129780090D01*
X198497886Y-129780090D02*
X198528125Y-129749852D01*
X198528125Y-129749852D02*
X198558363Y-129689376D01*
X198558363Y-129689376D02*
X198558363Y-129568423D01*
X198558363Y-129568423D02*
X198528125Y-129507947D01*
X198528125Y-129507947D02*
X198497886Y-129477709D01*
X198497886Y-129477709D02*
X198437410Y-129447471D01*
X198437410Y-129447471D02*
X198316458Y-129447471D01*
X198316458Y-129447471D02*
X198255982Y-129477709D01*
X198255982Y-129477709D02*
X198225744Y-129507947D01*
X198225744Y-129507947D02*
X198195505Y-129568423D01*
X177465566Y-88728763D02*
X177253899Y-88426382D01*
X177102709Y-88728763D02*
X177102709Y-88093763D01*
X177102709Y-88093763D02*
X177344614Y-88093763D01*
X177344614Y-88093763D02*
X177405090Y-88124001D01*
X177405090Y-88124001D02*
X177435328Y-88154239D01*
X177435328Y-88154239D02*
X177465566Y-88214715D01*
X177465566Y-88214715D02*
X177465566Y-88305429D01*
X177465566Y-88305429D02*
X177435328Y-88365905D01*
X177435328Y-88365905D02*
X177405090Y-88396144D01*
X177405090Y-88396144D02*
X177344614Y-88426382D01*
X177344614Y-88426382D02*
X177102709Y-88426382D01*
X177707471Y-88154239D02*
X177737709Y-88124001D01*
X177737709Y-88124001D02*
X177798185Y-88093763D01*
X177798185Y-88093763D02*
X177949376Y-88093763D01*
X177949376Y-88093763D02*
X178009852Y-88124001D01*
X178009852Y-88124001D02*
X178040090Y-88154239D01*
X178040090Y-88154239D02*
X178070328Y-88214715D01*
X178070328Y-88214715D02*
X178070328Y-88275191D01*
X178070328Y-88275191D02*
X178040090Y-88365905D01*
X178040090Y-88365905D02*
X177677233Y-88728763D01*
X177677233Y-88728763D02*
X178070328Y-88728763D01*
X172106166Y-119986486D02*
X172075928Y-120016725D01*
X172075928Y-120016725D02*
X171985214Y-120046963D01*
X171985214Y-120046963D02*
X171924738Y-120046963D01*
X171924738Y-120046963D02*
X171834023Y-120016725D01*
X171834023Y-120016725D02*
X171773547Y-119956248D01*
X171773547Y-119956248D02*
X171743309Y-119895772D01*
X171743309Y-119895772D02*
X171713071Y-119774820D01*
X171713071Y-119774820D02*
X171713071Y-119684105D01*
X171713071Y-119684105D02*
X171743309Y-119563153D01*
X171743309Y-119563153D02*
X171773547Y-119502677D01*
X171773547Y-119502677D02*
X171834023Y-119442201D01*
X171834023Y-119442201D02*
X171924738Y-119411963D01*
X171924738Y-119411963D02*
X171985214Y-119411963D01*
X171985214Y-119411963D02*
X172075928Y-119442201D01*
X172075928Y-119442201D02*
X172106166Y-119472439D01*
X172408547Y-120046963D02*
X172529499Y-120046963D01*
X172529499Y-120046963D02*
X172589976Y-120016725D01*
X172589976Y-120016725D02*
X172620214Y-119986486D01*
X172620214Y-119986486D02*
X172680690Y-119895772D01*
X172680690Y-119895772D02*
X172710928Y-119774820D01*
X172710928Y-119774820D02*
X172710928Y-119532915D01*
X172710928Y-119532915D02*
X172680690Y-119472439D01*
X172680690Y-119472439D02*
X172650452Y-119442201D01*
X172650452Y-119442201D02*
X172589976Y-119411963D01*
X172589976Y-119411963D02*
X172469023Y-119411963D01*
X172469023Y-119411963D02*
X172408547Y-119442201D01*
X172408547Y-119442201D02*
X172378309Y-119472439D01*
X172378309Y-119472439D02*
X172348071Y-119532915D01*
X172348071Y-119532915D02*
X172348071Y-119684105D01*
X172348071Y-119684105D02*
X172378309Y-119744582D01*
X172378309Y-119744582D02*
X172408547Y-119774820D01*
X172408547Y-119774820D02*
X172469023Y-119805058D01*
X172469023Y-119805058D02*
X172589976Y-119805058D01*
X172589976Y-119805058D02*
X172650452Y-119774820D01*
X172650452Y-119774820D02*
X172680690Y-119744582D01*
X172680690Y-119744582D02*
X172710928Y-119684105D01*
D13*
X176122390Y-133319463D02*
X176122390Y-133833510D01*
X176122390Y-133833510D02*
X176152628Y-133893986D01*
X176152628Y-133893986D02*
X176182866Y-133924225D01*
X176182866Y-133924225D02*
X176243342Y-133954463D01*
X176243342Y-133954463D02*
X176364295Y-133954463D01*
X176364295Y-133954463D02*
X176424771Y-133924225D01*
X176424771Y-133924225D02*
X176455009Y-133893986D01*
X176455009Y-133893986D02*
X176485247Y-133833510D01*
X176485247Y-133833510D02*
X176485247Y-133319463D01*
X176727152Y-133319463D02*
X177120247Y-133319463D01*
X177120247Y-133319463D02*
X176908580Y-133561367D01*
X176908580Y-133561367D02*
X176999295Y-133561367D01*
X176999295Y-133561367D02*
X177059771Y-133591605D01*
X177059771Y-133591605D02*
X177090009Y-133621844D01*
X177090009Y-133621844D02*
X177120247Y-133682320D01*
X177120247Y-133682320D02*
X177120247Y-133833510D01*
X177120247Y-133833510D02*
X177090009Y-133893986D01*
X177090009Y-133893986D02*
X177059771Y-133924225D01*
X177059771Y-133924225D02*
X176999295Y-133954463D01*
X176999295Y-133954463D02*
X176817866Y-133954463D01*
X176817866Y-133954463D02*
X176757390Y-133924225D01*
X176757390Y-133924225D02*
X176727152Y-133893986D01*
D11*
X185418185Y-115414486D02*
X185387947Y-115444725D01*
X185387947Y-115444725D02*
X185297233Y-115474963D01*
X185297233Y-115474963D02*
X185236757Y-115474963D01*
X185236757Y-115474963D02*
X185146042Y-115444725D01*
X185146042Y-115444725D02*
X185085566Y-115384248D01*
X185085566Y-115384248D02*
X185055328Y-115323772D01*
X185055328Y-115323772D02*
X185025090Y-115202820D01*
X185025090Y-115202820D02*
X185025090Y-115112105D01*
X185025090Y-115112105D02*
X185055328Y-114991153D01*
X185055328Y-114991153D02*
X185085566Y-114930677D01*
X185085566Y-114930677D02*
X185146042Y-114870201D01*
X185146042Y-114870201D02*
X185236757Y-114839963D01*
X185236757Y-114839963D02*
X185297233Y-114839963D01*
X185297233Y-114839963D02*
X185387947Y-114870201D01*
X185387947Y-114870201D02*
X185418185Y-114900439D01*
X186022947Y-115474963D02*
X185660090Y-115474963D01*
X185841518Y-115474963D02*
X185841518Y-114839963D01*
X185841518Y-114839963D02*
X185781042Y-114930677D01*
X185781042Y-114930677D02*
X185720566Y-114991153D01*
X185720566Y-114991153D02*
X185660090Y-115021391D01*
X186234614Y-114839963D02*
X186627709Y-114839963D01*
X186627709Y-114839963D02*
X186416042Y-115081867D01*
X186416042Y-115081867D02*
X186506757Y-115081867D01*
X186506757Y-115081867D02*
X186567233Y-115112105D01*
X186567233Y-115112105D02*
X186597471Y-115142344D01*
X186597471Y-115142344D02*
X186627709Y-115202820D01*
X186627709Y-115202820D02*
X186627709Y-115354010D01*
X186627709Y-115354010D02*
X186597471Y-115414486D01*
X186597471Y-115414486D02*
X186567233Y-115444725D01*
X186567233Y-115444725D02*
X186506757Y-115474963D01*
X186506757Y-115474963D02*
X186325328Y-115474963D01*
X186325328Y-115474963D02*
X186264852Y-115444725D01*
X186264852Y-115444725D02*
X186234614Y-115414486D01*
D12*
%TO.C,S3*%
X173185400Y-124668800D02*
X177385400Y-124668800D01*
X177385400Y-126788800D02*
X177385400Y-125788800D01*
X173185400Y-126788800D02*
X173185400Y-125788800D01*
X177385400Y-127908800D02*
X173185400Y-127908800D01*
D14*
X172285400Y-125188800D02*
G75*
G02*
X172085400Y-125188800I-100000J0D01*
G01*
X172085400Y-125188800D02*
G75*
G02*
X172285400Y-125188800I100000J0D01*
G01*
D12*
%TO.C,S2*%
X185120800Y-108094200D02*
X185120800Y-103894200D01*
X187240800Y-103894200D02*
X186240800Y-103894200D01*
X187240800Y-108094200D02*
X186240800Y-108094200D01*
X188360800Y-103894200D02*
X188360800Y-108094200D01*
D14*
X185740800Y-109094200D02*
G75*
G02*
X185540800Y-109094200I-100000J0D01*
G01*
X185540800Y-109094200D02*
G75*
G02*
X185740800Y-109094200I100000J0D01*
G01*
D15*
%TO.C,R30*%
X192294742Y-95946700D02*
X192769258Y-95946700D01*
X192294742Y-96991700D02*
X192769258Y-96991700D01*
%TO.C,R29*%
X192749700Y-127423142D02*
X192749700Y-127897658D01*
X191704700Y-127423142D02*
X191704700Y-127897658D01*
%TO.C,R28*%
X194375300Y-127397742D02*
X194375300Y-127872258D01*
X193330300Y-127397742D02*
X193330300Y-127872258D01*
%TO.C,R27*%
X174986900Y-95524858D02*
X174986900Y-95050342D01*
X176031900Y-95524858D02*
X176031900Y-95050342D01*
%TO.C,R26*%
X173391300Y-95538058D02*
X173391300Y-95063542D01*
X174436300Y-95538058D02*
X174436300Y-95063542D01*
%TO.C,R10*%
X192769258Y-98591900D02*
X192294742Y-98591900D01*
X192769258Y-97546900D02*
X192294742Y-97546900D01*
%TO.C,D4*%
X170026420Y-87526400D02*
X170307580Y-87526400D01*
X170026420Y-88546400D02*
X170307580Y-88546400D01*
%TO.C,C2*%
X186518400Y-92203580D02*
X186518400Y-91922420D01*
X187538400Y-92203580D02*
X187538400Y-91922420D01*
%TO.C,R12*%
X173828942Y-136133100D02*
X174303458Y-136133100D01*
X173828942Y-135088100D02*
X174303458Y-135088100D01*
%TO.C,J3*%
X180232200Y-94329400D02*
X182632200Y-94329400D01*
X180232200Y-96729400D02*
X180232200Y-94329400D01*
X182632200Y-94329400D02*
X182632200Y-96729400D01*
X182632200Y-96729400D02*
X180232200Y-96729400D01*
%TO.C,R5*%
X173267900Y-130564658D02*
X173267900Y-130090142D01*
X172222900Y-130564658D02*
X172222900Y-130090142D01*
%TO.C,R3*%
X195514700Y-93107742D02*
X195514700Y-93582258D01*
X196559700Y-93107742D02*
X196559700Y-93582258D01*
%TO.C,R22*%
X194832500Y-115269742D02*
X194832500Y-115744258D01*
X193787500Y-115269742D02*
X193787500Y-115744258D01*
%TO.C,C15*%
X198487420Y-98575400D02*
X198768580Y-98575400D01*
X198487420Y-99595400D02*
X198768580Y-99595400D01*
D16*
%TO.C,U4*%
X191683505Y-130639200D02*
G75*
G02*
X191348095Y-130639200I-167705J0D01*
G01*
X191348095Y-130639200D02*
G75*
G02*
X191683505Y-130639200I167705J0D01*
G01*
D15*
%TO.C,R9*%
X177884858Y-122667500D02*
X177410342Y-122667500D01*
X177884858Y-123712500D02*
X177410342Y-123712500D01*
%TO.C,J6*%
X182022600Y-129749400D02*
X179622600Y-129749400D01*
X182022600Y-127349400D02*
X182022600Y-129749400D01*
X179622600Y-129749400D02*
X179622600Y-127349400D01*
X179622600Y-127349400D02*
X182022600Y-127349400D01*
D16*
%TO.C,U6*%
X197320200Y-101658800D02*
X197320200Y-102758800D01*
X197320200Y-102758800D02*
X200220200Y-102758800D01*
X200220200Y-101658800D02*
X197320200Y-101658800D01*
X200220200Y-102758800D02*
X200220200Y-101658800D01*
D15*
%TO.C,R25*%
X200991700Y-102685542D02*
X200991700Y-103160058D01*
X202036700Y-102685542D02*
X202036700Y-103160058D01*
%TO.C,J11*%
X172634600Y-99508000D02*
X172634600Y-102168000D01*
X180314600Y-99508000D02*
X172634600Y-99508000D01*
X180314600Y-99508000D02*
X180314600Y-102168000D01*
X180314600Y-102168000D02*
X172634600Y-102168000D01*
X181584600Y-99508000D02*
X182914600Y-99508000D01*
X182914600Y-99508000D02*
X182914600Y-100838000D01*
%TO.C,TH1*%
X191020300Y-108860858D02*
X191020300Y-108386342D01*
X192065300Y-108860858D02*
X192065300Y-108386342D01*
%TO.C,C4*%
X188296400Y-92203580D02*
X188296400Y-91922420D01*
X189316400Y-92203580D02*
X189316400Y-91922420D01*
%TO.C,C8*%
X188834800Y-132042780D02*
X188834800Y-131761620D01*
X189854800Y-132042780D02*
X189854800Y-131761620D01*
D12*
%TO.C,U5*%
X172832800Y-116645000D02*
X184082800Y-116645000D01*
X184082800Y-103345000D02*
X172832800Y-103345000D01*
X184082800Y-116645000D02*
X184082800Y-103345000D01*
D14*
X174532800Y-117345000D02*
G75*
G02*
X174332800Y-117345000I-100000J0D01*
G01*
X174332800Y-117345000D02*
G75*
G02*
X174532800Y-117345000I100000J0D01*
G01*
D15*
%TO.C,D6*%
X200779200Y-97117800D02*
X200779200Y-99402800D01*
X202249200Y-97117800D02*
X200779200Y-97117800D01*
X202249200Y-99402800D02*
X202249200Y-97117800D01*
%TO.C,R15*%
X173231742Y-87513900D02*
X173706258Y-87513900D01*
X173231742Y-88558900D02*
X173706258Y-88558900D01*
D16*
%TO.C,U2*%
X190930105Y-90788000D02*
G75*
G02*
X190594695Y-90788000I-167705J0D01*
G01*
X190594695Y-90788000D02*
G75*
G02*
X190930105Y-90788000I167705J0D01*
G01*
D15*
%TO.C,R4*%
X193869658Y-93572500D02*
X193395142Y-93572500D01*
X193869658Y-94617500D02*
X193395142Y-94617500D01*
%TO.C,J4*%
X180206800Y-87598400D02*
X182606800Y-87598400D01*
X180206800Y-89998400D02*
X180206800Y-87598400D01*
X182606800Y-87598400D02*
X182606800Y-89998400D01*
X182606800Y-89998400D02*
X180206800Y-89998400D01*
%TO.C,R23*%
X191018900Y-111688342D02*
X191018900Y-112162858D01*
X192063900Y-111688342D02*
X192063900Y-112162858D01*
%TO.C,C16*%
X191629420Y-119276400D02*
X191910580Y-119276400D01*
X191629420Y-120296400D02*
X191910580Y-120296400D01*
%TO.C,C12*%
X174638580Y-121003600D02*
X174357420Y-121003600D01*
X174638580Y-122023600D02*
X174357420Y-122023600D01*
%TO.C,R7*%
X196098900Y-131995142D02*
X196098900Y-132469658D01*
X197143900Y-131995142D02*
X197143900Y-132469658D01*
%TO.C,D9*%
X195298600Y-120255420D02*
X195298600Y-120536580D01*
X196318600Y-120255420D02*
X196318600Y-120536580D01*
%TO.C,R14*%
X196655458Y-87513900D02*
X196180942Y-87513900D01*
X196655458Y-88558900D02*
X196180942Y-88558900D01*
%TO.C,C7*%
X180926200Y-131748620D02*
X180926200Y-132029780D01*
X179906200Y-131748620D02*
X179906200Y-132029780D01*
%TO.C,C14*%
X198579620Y-104950800D02*
X198860780Y-104950800D01*
X198579620Y-105970800D02*
X198860780Y-105970800D01*
%TO.C,J5*%
X182149600Y-136455000D02*
X179749600Y-136455000D01*
X182149600Y-134055000D02*
X182149600Y-136455000D01*
X179749600Y-136455000D02*
X179749600Y-134055000D01*
X179749600Y-134055000D02*
X182149600Y-134055000D01*
%TO.C,R6*%
X174844942Y-130125700D02*
X175319458Y-130125700D01*
X174844942Y-129080700D02*
X175319458Y-129080700D01*
%TO.C,J7*%
X187623600Y-127374800D02*
X190023600Y-127374800D01*
X187623600Y-129774800D02*
X187623600Y-127374800D01*
X190023600Y-127374800D02*
X190023600Y-129774800D01*
X190023600Y-129774800D02*
X187623600Y-129774800D01*
D12*
%TO.C,P1*%
X180542000Y-123260600D02*
X181392000Y-123260600D01*
X180542000Y-123580600D02*
X180542000Y-123260600D01*
X180542000Y-125920600D02*
X180542000Y-126230600D01*
X180542000Y-126230600D02*
X189282000Y-126230600D01*
X188432000Y-123260600D02*
X189282000Y-123260600D01*
X189282000Y-123260600D02*
X189282000Y-123580600D01*
X189282000Y-126230600D02*
X189282000Y-125920600D01*
D15*
%TO.C,R17*%
X185354700Y-120455458D02*
X185354700Y-119980942D01*
X186399700Y-120455458D02*
X186399700Y-119980942D01*
%TO.C,J12*%
X190507000Y-106179200D02*
X191757000Y-106179200D01*
X190807000Y-105879200D02*
X195527000Y-105879200D01*
X192117000Y-105879200D02*
X192117000Y-105269200D01*
X193417000Y-105879200D02*
X193417000Y-105269200D01*
X195527000Y-105879200D02*
X195527000Y-99759200D01*
X191417000Y-105269200D02*
X194917000Y-105269200D01*
X194917000Y-105269200D02*
X194917000Y-100369200D01*
X190507000Y-104929200D02*
X190507000Y-106179200D01*
X190607000Y-104419200D02*
X190807000Y-104419200D01*
X190607000Y-104119200D02*
X190607000Y-104419200D01*
X190707000Y-104119200D02*
X190707000Y-104419200D01*
X190807000Y-104119200D02*
X190607000Y-104119200D01*
X190807000Y-103319200D02*
X191417000Y-103319200D01*
X191417000Y-103319200D02*
X191417000Y-105269200D01*
X194417000Y-102919200D02*
X194417000Y-102719200D01*
X194917000Y-102919200D02*
X194417000Y-102919200D01*
X194917000Y-102819200D02*
X194417000Y-102819200D01*
X194417000Y-102719200D02*
X194917000Y-102719200D01*
X191417000Y-102319200D02*
X190807000Y-102319200D01*
X191417000Y-100369200D02*
X191417000Y-102319200D01*
X194917000Y-100369200D02*
X191417000Y-100369200D01*
X190807000Y-99759200D02*
X190807000Y-105879200D01*
X192117000Y-99759200D02*
X192117000Y-100369200D01*
X193417000Y-99759200D02*
X193417000Y-100369200D01*
X195527000Y-99759200D02*
X190807000Y-99759200D01*
%TO.C,C3*%
X180533000Y-92014620D02*
X180533000Y-92295780D01*
X181553000Y-92014620D02*
X181553000Y-92295780D01*
D16*
%TO.C,U1*%
X179000705Y-93430200D02*
G75*
G02*
X178665295Y-93430200I-167705J0D01*
G01*
X178665295Y-93430200D02*
G75*
G02*
X179000705Y-93430200I167705J0D01*
G01*
D15*
%TO.C,R13*%
X195956658Y-135088100D02*
X195482142Y-135088100D01*
X195956658Y-136133100D02*
X195482142Y-136133100D01*
%TO.C,R1*%
X173721500Y-90813658D02*
X173721500Y-90339142D01*
X174766500Y-90813658D02*
X174766500Y-90339142D01*
%TO.C,C5*%
X182704200Y-131748620D02*
X182704200Y-132029780D01*
X181684200Y-131748620D02*
X181684200Y-132029780D01*
%TO.C,D1*%
X170699820Y-136130000D02*
X170980980Y-136130000D01*
X170699820Y-135110000D02*
X170980980Y-135110000D01*
%TO.C,D2*%
X199161980Y-135100600D02*
X198880820Y-135100600D01*
X199161980Y-136120600D02*
X198880820Y-136120600D01*
%TO.C,C1*%
X182311000Y-92014620D02*
X182311000Y-92295780D01*
X183331000Y-92014620D02*
X183331000Y-92295780D01*
%TO.C,J2*%
X187318800Y-94329400D02*
X189718800Y-94329400D01*
X187318800Y-96729400D02*
X187318800Y-94329400D01*
X189718800Y-94329400D02*
X189718800Y-96729400D01*
X189718800Y-96729400D02*
X187318800Y-96729400D01*
%TO.C,R20*%
X199451700Y-123706658D02*
X199451700Y-123232142D01*
X200496700Y-123706658D02*
X200496700Y-123232142D01*
%TO.C,R24*%
X192822300Y-108386342D02*
X192822300Y-108860858D01*
X193867300Y-108386342D02*
X193867300Y-108860858D01*
%TO.C,R18*%
X183500500Y-120455458D02*
X183500500Y-119980942D01*
X184545500Y-120455458D02*
X184545500Y-119980942D01*
%TO.C,C11*%
X174613180Y-117600000D02*
X174332020Y-117600000D01*
X174613180Y-118620000D02*
X174332020Y-118620000D01*
D12*
%TO.C,S1*%
X198936200Y-108072800D02*
X202536200Y-108072800D01*
X198936200Y-117072800D02*
X202536200Y-117072800D01*
X202536200Y-117072800D02*
X202536200Y-108072800D01*
D15*
%TO.C,J8*%
X187572800Y-134029600D02*
X189972800Y-134029600D01*
X187572800Y-136429600D02*
X187572800Y-134029600D01*
X189972800Y-134029600D02*
X189972800Y-136429600D01*
X189972800Y-136429600D02*
X187572800Y-136429600D01*
%TO.C,D5*%
X187055200Y-119518200D02*
X187055200Y-121478200D01*
X187055200Y-121478200D02*
X188255200Y-121478200D01*
X188255200Y-119518200D02*
X188255200Y-121478200D01*
%TO.C,J1*%
X187293400Y-87598400D02*
X189693400Y-87598400D01*
X187293400Y-89998400D02*
X187293400Y-87598400D01*
X189693400Y-87598400D02*
X189693400Y-89998400D01*
X189693400Y-89998400D02*
X187293400Y-89998400D01*
%TO.C,C6*%
X187056800Y-132027780D02*
X187056800Y-131746620D01*
X188076800Y-132027780D02*
X188076800Y-131746620D01*
%TO.C,R21*%
X195286100Y-123718858D02*
X195286100Y-123244342D01*
X196331100Y-123718858D02*
X196331100Y-123244342D01*
%TO.C,D8*%
X199464200Y-120255420D02*
X199464200Y-120536580D01*
X200484200Y-120255420D02*
X200484200Y-120536580D01*
%TO.C,C10*%
X174650980Y-122680000D02*
X174369820Y-122680000D01*
X174650980Y-123700000D02*
X174369820Y-123700000D01*
%TO.C,D3*%
X199860780Y-87551800D02*
X199579620Y-87551800D01*
X199860780Y-88571800D02*
X199579620Y-88571800D01*
D12*
%TO.C,U7*%
X189982600Y-114680000D02*
X189982600Y-117680000D01*
X189982600Y-114680000D02*
X190082600Y-114680000D01*
X189982600Y-117680000D02*
X190082600Y-117680000D01*
X192982600Y-114680000D02*
X192882600Y-114680000D01*
X192982600Y-114680000D02*
X192982600Y-117680000D01*
X192982600Y-117680000D02*
X192882600Y-117680000D01*
D17*
X190032600Y-118080000D02*
G75*
G02*
X189932600Y-118080000I-50000J0D01*
G01*
X189932600Y-118080000D02*
G75*
G02*
X190032600Y-118080000I50000J0D01*
G01*
D15*
%TO.C,C17*%
X189228000Y-112066180D02*
X189228000Y-111785020D01*
X190248000Y-112066180D02*
X190248000Y-111785020D01*
%TO.C,R11*%
X186173342Y-109713500D02*
X186647858Y-109713500D01*
X186173342Y-110758500D02*
X186647858Y-110758500D01*
%TO.C,R16*%
X181620900Y-120455458D02*
X181620900Y-119980942D01*
X182665900Y-120455458D02*
X182665900Y-119980942D01*
%TO.C,R8*%
X198769500Y-132469658D02*
X198769500Y-131995142D01*
X197724500Y-132469658D02*
X197724500Y-131995142D01*
%TO.C,R2*%
X176445142Y-89291900D02*
X176919658Y-89291900D01*
X176445142Y-90336900D02*
X176919658Y-90336900D01*
%TO.C,C9*%
X174638580Y-119276400D02*
X174357420Y-119276400D01*
X174638580Y-120296400D02*
X174357420Y-120296400D01*
D16*
%TO.C,U3*%
X178412905Y-133152200D02*
G75*
G02*
X178077495Y-133152200I-167705J0D01*
G01*
X178077495Y-133152200D02*
G75*
G02*
X178412905Y-133152200I167705J0D01*
G01*
D15*
%TO.C,C13*%
X185316400Y-113016420D02*
X185316400Y-113297580D01*
X186336400Y-113016420D02*
X186336400Y-113297580D01*
%TD*%
M02*
