%TF.GenerationSoftware,KiCad,Pcbnew,8.0.2*%
%TF.CreationDate,2024-08-19T18:01:00-05:00*%
%TF.ProjectId,tank,74616e6b-2e6b-4696-9361-645f70636258,rev?*%
%TF.SameCoordinates,Original*%
%TF.FileFunction,Drillmap*%
%TF.FilePolarity,Positive*%
%FSLAX45Y45*%
G04 Gerber Fmt 4.5, Leading zero omitted, Abs format (unit mm)*
G04 Created by KiCad (PCBNEW 8.0.2) date 2024-08-19 18:01:00*
%MOMM*%
%LPD*%
G01*
G04 APERTURE LIST*
%ADD10C,0.000254*%
%ADD11C,0.200000*%
%ADD12C,0.100000*%
%ADD13C,0.270000*%
G04 APERTURE END LIST*
D10*
X20088080Y-8678300D02*
X16888080Y-8678300D01*
X20088080Y-8678300D02*
G75*
G02*
X20288080Y-8878300I0J-200000D01*
G01*
X20288080Y-13498500D02*
X20288080Y-8878300D01*
X20288080Y-13498500D02*
G75*
G02*
X20088080Y-13698500I-200000J0D01*
G01*
X16888080Y-13698500D02*
X20088080Y-13698500D01*
X16888080Y-13698500D02*
G75*
G02*
X16688080Y-13498500I0J200000D01*
G01*
X16688080Y-8878300D02*
X16688080Y-13498500D01*
X16688080Y-8878300D02*
G75*
G02*
X16888080Y-8678300I200000J0D01*
G01*
D11*
D12*
X20023620Y-10867280D02*
X20123620Y-10967280D01*
X20123620Y-10867280D02*
X20023620Y-10967280D01*
X20023620Y-11547280D02*
X20123620Y-11647280D01*
X20123620Y-11547280D02*
X20023620Y-11647280D01*
D13*
X18623660Y-8938260D02*
G75*
G02*
X18353660Y-8938260I-135000J0D01*
G01*
X18353660Y-8938260D02*
G75*
G02*
X18623660Y-8938260I135000J0D01*
G01*
X18623660Y-13398500D02*
G75*
G02*
X18353660Y-13398500I-135000J0D01*
G01*
X18353660Y-13398500D02*
G75*
G02*
X18623660Y-13398500I135000J0D01*
G01*
D11*
X16948844Y-14009996D02*
X16948844Y-13809996D01*
X16948844Y-13809996D02*
X16996463Y-13809996D01*
X16996463Y-13809996D02*
X17025035Y-13819520D01*
X17025035Y-13819520D02*
X17044082Y-13838568D01*
X17044082Y-13838568D02*
X17053606Y-13857615D01*
X17053606Y-13857615D02*
X17063130Y-13895711D01*
X17063130Y-13895711D02*
X17063130Y-13924282D01*
X17063130Y-13924282D02*
X17053606Y-13962377D01*
X17053606Y-13962377D02*
X17044082Y-13981425D01*
X17044082Y-13981425D02*
X17025035Y-14000473D01*
X17025035Y-14000473D02*
X16996463Y-14009996D01*
X16996463Y-14009996D02*
X16948844Y-14009996D01*
X17148844Y-14009996D02*
X17148844Y-13876663D01*
X17148844Y-13914758D02*
X17158368Y-13895711D01*
X17158368Y-13895711D02*
X17167892Y-13886187D01*
X17167892Y-13886187D02*
X17186939Y-13876663D01*
X17186939Y-13876663D02*
X17205987Y-13876663D01*
X17272654Y-14009996D02*
X17272654Y-13876663D01*
X17272654Y-13809996D02*
X17263130Y-13819520D01*
X17263130Y-13819520D02*
X17272654Y-13829044D01*
X17272654Y-13829044D02*
X17282177Y-13819520D01*
X17282177Y-13819520D02*
X17272654Y-13809996D01*
X17272654Y-13809996D02*
X17272654Y-13829044D01*
X17396463Y-14009996D02*
X17377416Y-14000473D01*
X17377416Y-14000473D02*
X17367892Y-13981425D01*
X17367892Y-13981425D02*
X17367892Y-13809996D01*
X17501225Y-14009996D02*
X17482177Y-14000473D01*
X17482177Y-14000473D02*
X17472654Y-13981425D01*
X17472654Y-13981425D02*
X17472654Y-13809996D01*
X17729797Y-14009996D02*
X17729797Y-13809996D01*
X17729797Y-13809996D02*
X17796463Y-13952854D01*
X17796463Y-13952854D02*
X17863130Y-13809996D01*
X17863130Y-13809996D02*
X17863130Y-14009996D01*
X18044082Y-14009996D02*
X18044082Y-13905235D01*
X18044082Y-13905235D02*
X18034558Y-13886187D01*
X18034558Y-13886187D02*
X18015511Y-13876663D01*
X18015511Y-13876663D02*
X17977416Y-13876663D01*
X17977416Y-13876663D02*
X17958368Y-13886187D01*
X18044082Y-14000473D02*
X18025035Y-14009996D01*
X18025035Y-14009996D02*
X17977416Y-14009996D01*
X17977416Y-14009996D02*
X17958368Y-14000473D01*
X17958368Y-14000473D02*
X17948844Y-13981425D01*
X17948844Y-13981425D02*
X17948844Y-13962377D01*
X17948844Y-13962377D02*
X17958368Y-13943330D01*
X17958368Y-13943330D02*
X17977416Y-13933806D01*
X17977416Y-13933806D02*
X18025035Y-13933806D01*
X18025035Y-13933806D02*
X18044082Y-13924282D01*
X18139320Y-13876663D02*
X18139320Y-14076663D01*
X18139320Y-13886187D02*
X18158368Y-13876663D01*
X18158368Y-13876663D02*
X18196463Y-13876663D01*
X18196463Y-13876663D02*
X18215511Y-13886187D01*
X18215511Y-13886187D02*
X18225035Y-13895711D01*
X18225035Y-13895711D02*
X18234558Y-13914758D01*
X18234558Y-13914758D02*
X18234558Y-13971901D01*
X18234558Y-13971901D02*
X18225035Y-13990949D01*
X18225035Y-13990949D02*
X18215511Y-14000473D01*
X18215511Y-14000473D02*
X18196463Y-14009996D01*
X18196463Y-14009996D02*
X18158368Y-14009996D01*
X18158368Y-14009996D02*
X18139320Y-14000473D01*
X18320273Y-13990949D02*
X18329797Y-14000473D01*
X18329797Y-14000473D02*
X18320273Y-14009996D01*
X18320273Y-14009996D02*
X18310749Y-14000473D01*
X18310749Y-14000473D02*
X18320273Y-13990949D01*
X18320273Y-13990949D02*
X18320273Y-14009996D01*
X18320273Y-13886187D02*
X18329797Y-13895711D01*
X18329797Y-13895711D02*
X18320273Y-13905235D01*
X18320273Y-13905235D02*
X18310749Y-13895711D01*
X18310749Y-13895711D02*
X18320273Y-13886187D01*
X18320273Y-13886187D02*
X18320273Y-13905235D01*
D12*
X16588067Y-14288513D02*
X16688067Y-14388513D01*
X16688067Y-14288513D02*
X16588067Y-14388513D01*
D11*
X17053606Y-14429996D02*
X16939320Y-14429996D01*
X16996463Y-14429996D02*
X16996463Y-14229996D01*
X16996463Y-14229996D02*
X16977416Y-14258568D01*
X16977416Y-14258568D02*
X16958368Y-14277615D01*
X16958368Y-14277615D02*
X16939320Y-14287139D01*
X17139320Y-14410949D02*
X17148844Y-14420473D01*
X17148844Y-14420473D02*
X17139320Y-14429996D01*
X17139320Y-14429996D02*
X17129797Y-14420473D01*
X17129797Y-14420473D02*
X17139320Y-14410949D01*
X17139320Y-14410949D02*
X17139320Y-14429996D01*
X17272654Y-14229996D02*
X17291701Y-14229996D01*
X17291701Y-14229996D02*
X17310749Y-14239520D01*
X17310749Y-14239520D02*
X17320273Y-14249044D01*
X17320273Y-14249044D02*
X17329797Y-14268092D01*
X17329797Y-14268092D02*
X17339320Y-14306187D01*
X17339320Y-14306187D02*
X17339320Y-14353806D01*
X17339320Y-14353806D02*
X17329797Y-14391901D01*
X17329797Y-14391901D02*
X17320273Y-14410949D01*
X17320273Y-14410949D02*
X17310749Y-14420473D01*
X17310749Y-14420473D02*
X17291701Y-14429996D01*
X17291701Y-14429996D02*
X17272654Y-14429996D01*
X17272654Y-14429996D02*
X17253606Y-14420473D01*
X17253606Y-14420473D02*
X17244082Y-14410949D01*
X17244082Y-14410949D02*
X17234558Y-14391901D01*
X17234558Y-14391901D02*
X17225035Y-14353806D01*
X17225035Y-14353806D02*
X17225035Y-14306187D01*
X17225035Y-14306187D02*
X17234558Y-14268092D01*
X17234558Y-14268092D02*
X17244082Y-14249044D01*
X17244082Y-14249044D02*
X17253606Y-14239520D01*
X17253606Y-14239520D02*
X17272654Y-14229996D01*
X17463130Y-14229996D02*
X17482178Y-14229996D01*
X17482178Y-14229996D02*
X17501225Y-14239520D01*
X17501225Y-14239520D02*
X17510749Y-14249044D01*
X17510749Y-14249044D02*
X17520273Y-14268092D01*
X17520273Y-14268092D02*
X17529797Y-14306187D01*
X17529797Y-14306187D02*
X17529797Y-14353806D01*
X17529797Y-14353806D02*
X17520273Y-14391901D01*
X17520273Y-14391901D02*
X17510749Y-14410949D01*
X17510749Y-14410949D02*
X17501225Y-14420473D01*
X17501225Y-14420473D02*
X17482178Y-14429996D01*
X17482178Y-14429996D02*
X17463130Y-14429996D01*
X17463130Y-14429996D02*
X17444082Y-14420473D01*
X17444082Y-14420473D02*
X17434558Y-14410949D01*
X17434558Y-14410949D02*
X17425035Y-14391901D01*
X17425035Y-14391901D02*
X17415511Y-14353806D01*
X17415511Y-14353806D02*
X17415511Y-14306187D01*
X17415511Y-14306187D02*
X17425035Y-14268092D01*
X17425035Y-14268092D02*
X17434558Y-14249044D01*
X17434558Y-14249044D02*
X17444082Y-14239520D01*
X17444082Y-14239520D02*
X17463130Y-14229996D01*
X17653606Y-14229996D02*
X17672654Y-14229996D01*
X17672654Y-14229996D02*
X17691701Y-14239520D01*
X17691701Y-14239520D02*
X17701225Y-14249044D01*
X17701225Y-14249044D02*
X17710749Y-14268092D01*
X17710749Y-14268092D02*
X17720273Y-14306187D01*
X17720273Y-14306187D02*
X17720273Y-14353806D01*
X17720273Y-14353806D02*
X17710749Y-14391901D01*
X17710749Y-14391901D02*
X17701225Y-14410949D01*
X17701225Y-14410949D02*
X17691701Y-14420473D01*
X17691701Y-14420473D02*
X17672654Y-14429996D01*
X17672654Y-14429996D02*
X17653606Y-14429996D01*
X17653606Y-14429996D02*
X17634558Y-14420473D01*
X17634558Y-14420473D02*
X17625035Y-14410949D01*
X17625035Y-14410949D02*
X17615511Y-14391901D01*
X17615511Y-14391901D02*
X17605987Y-14353806D01*
X17605987Y-14353806D02*
X17605987Y-14306187D01*
X17605987Y-14306187D02*
X17615511Y-14268092D01*
X17615511Y-14268092D02*
X17625035Y-14249044D01*
X17625035Y-14249044D02*
X17634558Y-14239520D01*
X17634558Y-14239520D02*
X17653606Y-14229996D01*
X17805987Y-14429996D02*
X17805987Y-14296663D01*
X17805987Y-14315711D02*
X17815511Y-14306187D01*
X17815511Y-14306187D02*
X17834558Y-14296663D01*
X17834558Y-14296663D02*
X17863130Y-14296663D01*
X17863130Y-14296663D02*
X17882178Y-14306187D01*
X17882178Y-14306187D02*
X17891701Y-14325235D01*
X17891701Y-14325235D02*
X17891701Y-14429996D01*
X17891701Y-14325235D02*
X17901225Y-14306187D01*
X17901225Y-14306187D02*
X17920273Y-14296663D01*
X17920273Y-14296663D02*
X17948844Y-14296663D01*
X17948844Y-14296663D02*
X17967892Y-14306187D01*
X17967892Y-14306187D02*
X17977416Y-14325235D01*
X17977416Y-14325235D02*
X17977416Y-14429996D01*
X18072654Y-14429996D02*
X18072654Y-14296663D01*
X18072654Y-14315711D02*
X18082178Y-14306187D01*
X18082178Y-14306187D02*
X18101225Y-14296663D01*
X18101225Y-14296663D02*
X18129797Y-14296663D01*
X18129797Y-14296663D02*
X18148844Y-14306187D01*
X18148844Y-14306187D02*
X18158368Y-14325235D01*
X18158368Y-14325235D02*
X18158368Y-14429996D01*
X18158368Y-14325235D02*
X18167892Y-14306187D01*
X18167892Y-14306187D02*
X18186939Y-14296663D01*
X18186939Y-14296663D02*
X18215511Y-14296663D01*
X18215511Y-14296663D02*
X18234559Y-14306187D01*
X18234559Y-14306187D02*
X18244082Y-14325235D01*
X18244082Y-14325235D02*
X18244082Y-14429996D01*
X18634559Y-14220473D02*
X18463130Y-14477615D01*
X18891701Y-14229996D02*
X18910749Y-14229996D01*
X18910749Y-14229996D02*
X18929797Y-14239520D01*
X18929797Y-14239520D02*
X18939321Y-14249044D01*
X18939321Y-14249044D02*
X18948844Y-14268092D01*
X18948844Y-14268092D02*
X18958368Y-14306187D01*
X18958368Y-14306187D02*
X18958368Y-14353806D01*
X18958368Y-14353806D02*
X18948844Y-14391901D01*
X18948844Y-14391901D02*
X18939321Y-14410949D01*
X18939321Y-14410949D02*
X18929797Y-14420473D01*
X18929797Y-14420473D02*
X18910749Y-14429996D01*
X18910749Y-14429996D02*
X18891701Y-14429996D01*
X18891701Y-14429996D02*
X18872654Y-14420473D01*
X18872654Y-14420473D02*
X18863130Y-14410949D01*
X18863130Y-14410949D02*
X18853606Y-14391901D01*
X18853606Y-14391901D02*
X18844082Y-14353806D01*
X18844082Y-14353806D02*
X18844082Y-14306187D01*
X18844082Y-14306187D02*
X18853606Y-14268092D01*
X18853606Y-14268092D02*
X18863130Y-14249044D01*
X18863130Y-14249044D02*
X18872654Y-14239520D01*
X18872654Y-14239520D02*
X18891701Y-14229996D01*
X19044082Y-14410949D02*
X19053606Y-14420473D01*
X19053606Y-14420473D02*
X19044082Y-14429996D01*
X19044082Y-14429996D02*
X19034559Y-14420473D01*
X19034559Y-14420473D02*
X19044082Y-14410949D01*
X19044082Y-14410949D02*
X19044082Y-14429996D01*
X19177416Y-14229996D02*
X19196463Y-14229996D01*
X19196463Y-14229996D02*
X19215511Y-14239520D01*
X19215511Y-14239520D02*
X19225035Y-14249044D01*
X19225035Y-14249044D02*
X19234559Y-14268092D01*
X19234559Y-14268092D02*
X19244082Y-14306187D01*
X19244082Y-14306187D02*
X19244082Y-14353806D01*
X19244082Y-14353806D02*
X19234559Y-14391901D01*
X19234559Y-14391901D02*
X19225035Y-14410949D01*
X19225035Y-14410949D02*
X19215511Y-14420473D01*
X19215511Y-14420473D02*
X19196463Y-14429996D01*
X19196463Y-14429996D02*
X19177416Y-14429996D01*
X19177416Y-14429996D02*
X19158368Y-14420473D01*
X19158368Y-14420473D02*
X19148844Y-14410949D01*
X19148844Y-14410949D02*
X19139321Y-14391901D01*
X19139321Y-14391901D02*
X19129797Y-14353806D01*
X19129797Y-14353806D02*
X19129797Y-14306187D01*
X19129797Y-14306187D02*
X19139321Y-14268092D01*
X19139321Y-14268092D02*
X19148844Y-14249044D01*
X19148844Y-14249044D02*
X19158368Y-14239520D01*
X19158368Y-14239520D02*
X19177416Y-14229996D01*
X19310749Y-14229996D02*
X19434559Y-14229996D01*
X19434559Y-14229996D02*
X19367892Y-14306187D01*
X19367892Y-14306187D02*
X19396463Y-14306187D01*
X19396463Y-14306187D02*
X19415511Y-14315711D01*
X19415511Y-14315711D02*
X19425035Y-14325235D01*
X19425035Y-14325235D02*
X19434559Y-14344282D01*
X19434559Y-14344282D02*
X19434559Y-14391901D01*
X19434559Y-14391901D02*
X19425035Y-14410949D01*
X19425035Y-14410949D02*
X19415511Y-14420473D01*
X19415511Y-14420473D02*
X19396463Y-14429996D01*
X19396463Y-14429996D02*
X19339321Y-14429996D01*
X19339321Y-14429996D02*
X19320273Y-14420473D01*
X19320273Y-14420473D02*
X19310749Y-14410949D01*
X19529797Y-14429996D02*
X19567892Y-14429996D01*
X19567892Y-14429996D02*
X19586940Y-14420473D01*
X19586940Y-14420473D02*
X19596463Y-14410949D01*
X19596463Y-14410949D02*
X19615511Y-14382377D01*
X19615511Y-14382377D02*
X19625035Y-14344282D01*
X19625035Y-14344282D02*
X19625035Y-14268092D01*
X19625035Y-14268092D02*
X19615511Y-14249044D01*
X19615511Y-14249044D02*
X19605987Y-14239520D01*
X19605987Y-14239520D02*
X19586940Y-14229996D01*
X19586940Y-14229996D02*
X19548844Y-14229996D01*
X19548844Y-14229996D02*
X19529797Y-14239520D01*
X19529797Y-14239520D02*
X19520273Y-14249044D01*
X19520273Y-14249044D02*
X19510749Y-14268092D01*
X19510749Y-14268092D02*
X19510749Y-14315711D01*
X19510749Y-14315711D02*
X19520273Y-14334758D01*
X19520273Y-14334758D02*
X19529797Y-14344282D01*
X19529797Y-14344282D02*
X19548844Y-14353806D01*
X19548844Y-14353806D02*
X19586940Y-14353806D01*
X19586940Y-14353806D02*
X19605987Y-14344282D01*
X19605987Y-14344282D02*
X19615511Y-14334758D01*
X19615511Y-14334758D02*
X19625035Y-14315711D01*
X19796463Y-14296663D02*
X19796463Y-14429996D01*
X19748844Y-14220473D02*
X19701225Y-14363330D01*
X19701225Y-14363330D02*
X19825035Y-14363330D01*
X19891702Y-14229996D02*
X19891702Y-14268092D01*
X19967892Y-14229996D02*
X19967892Y-14268092D01*
X20263130Y-14506187D02*
X20253606Y-14496663D01*
X20253606Y-14496663D02*
X20234559Y-14468092D01*
X20234559Y-14468092D02*
X20225035Y-14449044D01*
X20225035Y-14449044D02*
X20215511Y-14420473D01*
X20215511Y-14420473D02*
X20205987Y-14372854D01*
X20205987Y-14372854D02*
X20205987Y-14334758D01*
X20205987Y-14334758D02*
X20215511Y-14287139D01*
X20215511Y-14287139D02*
X20225035Y-14258568D01*
X20225035Y-14258568D02*
X20234559Y-14239520D01*
X20234559Y-14239520D02*
X20253606Y-14210949D01*
X20253606Y-14210949D02*
X20263130Y-14201425D01*
X20329797Y-14249044D02*
X20339321Y-14239520D01*
X20339321Y-14239520D02*
X20358368Y-14229996D01*
X20358368Y-14229996D02*
X20405987Y-14229996D01*
X20405987Y-14229996D02*
X20425035Y-14239520D01*
X20425035Y-14239520D02*
X20434559Y-14249044D01*
X20434559Y-14249044D02*
X20444083Y-14268092D01*
X20444083Y-14268092D02*
X20444083Y-14287139D01*
X20444083Y-14287139D02*
X20434559Y-14315711D01*
X20434559Y-14315711D02*
X20320273Y-14429996D01*
X20320273Y-14429996D02*
X20444083Y-14429996D01*
X20682178Y-14429996D02*
X20682178Y-14229996D01*
X20767892Y-14429996D02*
X20767892Y-14325235D01*
X20767892Y-14325235D02*
X20758368Y-14306187D01*
X20758368Y-14306187D02*
X20739321Y-14296663D01*
X20739321Y-14296663D02*
X20710749Y-14296663D01*
X20710749Y-14296663D02*
X20691702Y-14306187D01*
X20691702Y-14306187D02*
X20682178Y-14315711D01*
X20891702Y-14429996D02*
X20872654Y-14420473D01*
X20872654Y-14420473D02*
X20863130Y-14410949D01*
X20863130Y-14410949D02*
X20853606Y-14391901D01*
X20853606Y-14391901D02*
X20853606Y-14334758D01*
X20853606Y-14334758D02*
X20863130Y-14315711D01*
X20863130Y-14315711D02*
X20872654Y-14306187D01*
X20872654Y-14306187D02*
X20891702Y-14296663D01*
X20891702Y-14296663D02*
X20920273Y-14296663D01*
X20920273Y-14296663D02*
X20939321Y-14306187D01*
X20939321Y-14306187D02*
X20948845Y-14315711D01*
X20948845Y-14315711D02*
X20958368Y-14334758D01*
X20958368Y-14334758D02*
X20958368Y-14391901D01*
X20958368Y-14391901D02*
X20948845Y-14410949D01*
X20948845Y-14410949D02*
X20939321Y-14420473D01*
X20939321Y-14420473D02*
X20920273Y-14429996D01*
X20920273Y-14429996D02*
X20891702Y-14429996D01*
X21072654Y-14429996D02*
X21053606Y-14420473D01*
X21053606Y-14420473D02*
X21044083Y-14401425D01*
X21044083Y-14401425D02*
X21044083Y-14229996D01*
X21225035Y-14420473D02*
X21205987Y-14429996D01*
X21205987Y-14429996D02*
X21167892Y-14429996D01*
X21167892Y-14429996D02*
X21148845Y-14420473D01*
X21148845Y-14420473D02*
X21139321Y-14401425D01*
X21139321Y-14401425D02*
X21139321Y-14325235D01*
X21139321Y-14325235D02*
X21148845Y-14306187D01*
X21148845Y-14306187D02*
X21167892Y-14296663D01*
X21167892Y-14296663D02*
X21205987Y-14296663D01*
X21205987Y-14296663D02*
X21225035Y-14306187D01*
X21225035Y-14306187D02*
X21234559Y-14325235D01*
X21234559Y-14325235D02*
X21234559Y-14344282D01*
X21234559Y-14344282D02*
X21139321Y-14363330D01*
X21310749Y-14420473D02*
X21329797Y-14429996D01*
X21329797Y-14429996D02*
X21367892Y-14429996D01*
X21367892Y-14429996D02*
X21386940Y-14420473D01*
X21386940Y-14420473D02*
X21396464Y-14401425D01*
X21396464Y-14401425D02*
X21396464Y-14391901D01*
X21396464Y-14391901D02*
X21386940Y-14372854D01*
X21386940Y-14372854D02*
X21367892Y-14363330D01*
X21367892Y-14363330D02*
X21339321Y-14363330D01*
X21339321Y-14363330D02*
X21320273Y-14353806D01*
X21320273Y-14353806D02*
X21310749Y-14334758D01*
X21310749Y-14334758D02*
X21310749Y-14325235D01*
X21310749Y-14325235D02*
X21320273Y-14306187D01*
X21320273Y-14306187D02*
X21339321Y-14296663D01*
X21339321Y-14296663D02*
X21367892Y-14296663D01*
X21367892Y-14296663D02*
X21386940Y-14306187D01*
X21463130Y-14506187D02*
X21472654Y-14496663D01*
X21472654Y-14496663D02*
X21491702Y-14468092D01*
X21491702Y-14468092D02*
X21501226Y-14449044D01*
X21501226Y-14449044D02*
X21510749Y-14420473D01*
X21510749Y-14420473D02*
X21520273Y-14372854D01*
X21520273Y-14372854D02*
X21520273Y-14334758D01*
X21520273Y-14334758D02*
X21510749Y-14287139D01*
X21510749Y-14287139D02*
X21501226Y-14258568D01*
X21501226Y-14258568D02*
X21491702Y-14239520D01*
X21491702Y-14239520D02*
X21472654Y-14210949D01*
X21472654Y-14210949D02*
X21463130Y-14201425D01*
X21825035Y-14506187D02*
X21815511Y-14496663D01*
X21815511Y-14496663D02*
X21796464Y-14468092D01*
X21796464Y-14468092D02*
X21786940Y-14449044D01*
X21786940Y-14449044D02*
X21777416Y-14420473D01*
X21777416Y-14420473D02*
X21767892Y-14372854D01*
X21767892Y-14372854D02*
X21767892Y-14334758D01*
X21767892Y-14334758D02*
X21777416Y-14287139D01*
X21777416Y-14287139D02*
X21786940Y-14258568D01*
X21786940Y-14258568D02*
X21796464Y-14239520D01*
X21796464Y-14239520D02*
X21815511Y-14210949D01*
X21815511Y-14210949D02*
X21825035Y-14201425D01*
X21901226Y-14296663D02*
X21901226Y-14429996D01*
X21901226Y-14315711D02*
X21910749Y-14306187D01*
X21910749Y-14306187D02*
X21929797Y-14296663D01*
X21929797Y-14296663D02*
X21958368Y-14296663D01*
X21958368Y-14296663D02*
X21977416Y-14306187D01*
X21977416Y-14306187D02*
X21986940Y-14325235D01*
X21986940Y-14325235D02*
X21986940Y-14429996D01*
X22110749Y-14429996D02*
X22091702Y-14420473D01*
X22091702Y-14420473D02*
X22082178Y-14410949D01*
X22082178Y-14410949D02*
X22072654Y-14391901D01*
X22072654Y-14391901D02*
X22072654Y-14334758D01*
X22072654Y-14334758D02*
X22082178Y-14315711D01*
X22082178Y-14315711D02*
X22091702Y-14306187D01*
X22091702Y-14306187D02*
X22110749Y-14296663D01*
X22110749Y-14296663D02*
X22139321Y-14296663D01*
X22139321Y-14296663D02*
X22158368Y-14306187D01*
X22158368Y-14306187D02*
X22167892Y-14315711D01*
X22167892Y-14315711D02*
X22177416Y-14334758D01*
X22177416Y-14334758D02*
X22177416Y-14391901D01*
X22177416Y-14391901D02*
X22167892Y-14410949D01*
X22167892Y-14410949D02*
X22158368Y-14420473D01*
X22158368Y-14420473D02*
X22139321Y-14429996D01*
X22139321Y-14429996D02*
X22110749Y-14429996D01*
X22234559Y-14296663D02*
X22310749Y-14296663D01*
X22263130Y-14229996D02*
X22263130Y-14401425D01*
X22263130Y-14401425D02*
X22272654Y-14420473D01*
X22272654Y-14420473D02*
X22291702Y-14429996D01*
X22291702Y-14429996D02*
X22310749Y-14429996D01*
X22529797Y-14296663D02*
X22529797Y-14496663D01*
X22529797Y-14306187D02*
X22548845Y-14296663D01*
X22548845Y-14296663D02*
X22586940Y-14296663D01*
X22586940Y-14296663D02*
X22605987Y-14306187D01*
X22605987Y-14306187D02*
X22615511Y-14315711D01*
X22615511Y-14315711D02*
X22625035Y-14334758D01*
X22625035Y-14334758D02*
X22625035Y-14391901D01*
X22625035Y-14391901D02*
X22615511Y-14410949D01*
X22615511Y-14410949D02*
X22605987Y-14420473D01*
X22605987Y-14420473D02*
X22586940Y-14429996D01*
X22586940Y-14429996D02*
X22548845Y-14429996D01*
X22548845Y-14429996D02*
X22529797Y-14420473D01*
X22739321Y-14429996D02*
X22720273Y-14420473D01*
X22720273Y-14420473D02*
X22710749Y-14401425D01*
X22710749Y-14401425D02*
X22710749Y-14229996D01*
X22901226Y-14429996D02*
X22901226Y-14325235D01*
X22901226Y-14325235D02*
X22891702Y-14306187D01*
X22891702Y-14306187D02*
X22872654Y-14296663D01*
X22872654Y-14296663D02*
X22834559Y-14296663D01*
X22834559Y-14296663D02*
X22815511Y-14306187D01*
X22901226Y-14420473D02*
X22882178Y-14429996D01*
X22882178Y-14429996D02*
X22834559Y-14429996D01*
X22834559Y-14429996D02*
X22815511Y-14420473D01*
X22815511Y-14420473D02*
X22805987Y-14401425D01*
X22805987Y-14401425D02*
X22805987Y-14382377D01*
X22805987Y-14382377D02*
X22815511Y-14363330D01*
X22815511Y-14363330D02*
X22834559Y-14353806D01*
X22834559Y-14353806D02*
X22882178Y-14353806D01*
X22882178Y-14353806D02*
X22901226Y-14344282D01*
X22967892Y-14296663D02*
X23044083Y-14296663D01*
X22996464Y-14229996D02*
X22996464Y-14401425D01*
X22996464Y-14401425D02*
X23005987Y-14420473D01*
X23005987Y-14420473D02*
X23025035Y-14429996D01*
X23025035Y-14429996D02*
X23044083Y-14429996D01*
X23186940Y-14420473D02*
X23167892Y-14429996D01*
X23167892Y-14429996D02*
X23129797Y-14429996D01*
X23129797Y-14429996D02*
X23110749Y-14420473D01*
X23110749Y-14420473D02*
X23101226Y-14401425D01*
X23101226Y-14401425D02*
X23101226Y-14325235D01*
X23101226Y-14325235D02*
X23110749Y-14306187D01*
X23110749Y-14306187D02*
X23129797Y-14296663D01*
X23129797Y-14296663D02*
X23167892Y-14296663D01*
X23167892Y-14296663D02*
X23186940Y-14306187D01*
X23186940Y-14306187D02*
X23196464Y-14325235D01*
X23196464Y-14325235D02*
X23196464Y-14344282D01*
X23196464Y-14344282D02*
X23101226Y-14363330D01*
X23367892Y-14429996D02*
X23367892Y-14229996D01*
X23367892Y-14420473D02*
X23348845Y-14429996D01*
X23348845Y-14429996D02*
X23310749Y-14429996D01*
X23310749Y-14429996D02*
X23291702Y-14420473D01*
X23291702Y-14420473D02*
X23282178Y-14410949D01*
X23282178Y-14410949D02*
X23272654Y-14391901D01*
X23272654Y-14391901D02*
X23272654Y-14334758D01*
X23272654Y-14334758D02*
X23282178Y-14315711D01*
X23282178Y-14315711D02*
X23291702Y-14306187D01*
X23291702Y-14306187D02*
X23310749Y-14296663D01*
X23310749Y-14296663D02*
X23348845Y-14296663D01*
X23348845Y-14296663D02*
X23367892Y-14306187D01*
X23444083Y-14506187D02*
X23453607Y-14496663D01*
X23453607Y-14496663D02*
X23472654Y-14468092D01*
X23472654Y-14468092D02*
X23482178Y-14449044D01*
X23482178Y-14449044D02*
X23491702Y-14420473D01*
X23491702Y-14420473D02*
X23501226Y-14372854D01*
X23501226Y-14372854D02*
X23501226Y-14334758D01*
X23501226Y-14334758D02*
X23491702Y-14287139D01*
X23491702Y-14287139D02*
X23482178Y-14258568D01*
X23482178Y-14258568D02*
X23472654Y-14239520D01*
X23472654Y-14239520D02*
X23453607Y-14210949D01*
X23453607Y-14210949D02*
X23444083Y-14201425D01*
X16688067Y-14602513D02*
G75*
G02*
X16488067Y-14602513I-100000J0D01*
G01*
X16488067Y-14602513D02*
G75*
G02*
X16688067Y-14602513I100000J0D01*
G01*
X16939320Y-14513044D02*
X16948844Y-14503520D01*
X16948844Y-14503520D02*
X16967892Y-14493996D01*
X16967892Y-14493996D02*
X17015511Y-14493996D01*
X17015511Y-14493996D02*
X17034558Y-14503520D01*
X17034558Y-14503520D02*
X17044082Y-14513044D01*
X17044082Y-14513044D02*
X17053606Y-14532092D01*
X17053606Y-14532092D02*
X17053606Y-14551139D01*
X17053606Y-14551139D02*
X17044082Y-14579711D01*
X17044082Y-14579711D02*
X16929797Y-14693996D01*
X16929797Y-14693996D02*
X17053606Y-14693996D01*
X17139320Y-14674949D02*
X17148844Y-14684473D01*
X17148844Y-14684473D02*
X17139320Y-14693996D01*
X17139320Y-14693996D02*
X17129797Y-14684473D01*
X17129797Y-14684473D02*
X17139320Y-14674949D01*
X17139320Y-14674949D02*
X17139320Y-14693996D01*
X17215511Y-14493996D02*
X17348844Y-14493996D01*
X17348844Y-14493996D02*
X17263130Y-14693996D01*
X17463130Y-14493996D02*
X17482178Y-14493996D01*
X17482178Y-14493996D02*
X17501225Y-14503520D01*
X17501225Y-14503520D02*
X17510749Y-14513044D01*
X17510749Y-14513044D02*
X17520273Y-14532092D01*
X17520273Y-14532092D02*
X17529797Y-14570187D01*
X17529797Y-14570187D02*
X17529797Y-14617806D01*
X17529797Y-14617806D02*
X17520273Y-14655901D01*
X17520273Y-14655901D02*
X17510749Y-14674949D01*
X17510749Y-14674949D02*
X17501225Y-14684473D01*
X17501225Y-14684473D02*
X17482178Y-14693996D01*
X17482178Y-14693996D02*
X17463130Y-14693996D01*
X17463130Y-14693996D02*
X17444082Y-14684473D01*
X17444082Y-14684473D02*
X17434558Y-14674949D01*
X17434558Y-14674949D02*
X17425035Y-14655901D01*
X17425035Y-14655901D02*
X17415511Y-14617806D01*
X17415511Y-14617806D02*
X17415511Y-14570187D01*
X17415511Y-14570187D02*
X17425035Y-14532092D01*
X17425035Y-14532092D02*
X17434558Y-14513044D01*
X17434558Y-14513044D02*
X17444082Y-14503520D01*
X17444082Y-14503520D02*
X17463130Y-14493996D01*
X17653606Y-14493996D02*
X17672654Y-14493996D01*
X17672654Y-14493996D02*
X17691701Y-14503520D01*
X17691701Y-14503520D02*
X17701225Y-14513044D01*
X17701225Y-14513044D02*
X17710749Y-14532092D01*
X17710749Y-14532092D02*
X17720273Y-14570187D01*
X17720273Y-14570187D02*
X17720273Y-14617806D01*
X17720273Y-14617806D02*
X17710749Y-14655901D01*
X17710749Y-14655901D02*
X17701225Y-14674949D01*
X17701225Y-14674949D02*
X17691701Y-14684473D01*
X17691701Y-14684473D02*
X17672654Y-14693996D01*
X17672654Y-14693996D02*
X17653606Y-14693996D01*
X17653606Y-14693996D02*
X17634558Y-14684473D01*
X17634558Y-14684473D02*
X17625035Y-14674949D01*
X17625035Y-14674949D02*
X17615511Y-14655901D01*
X17615511Y-14655901D02*
X17605987Y-14617806D01*
X17605987Y-14617806D02*
X17605987Y-14570187D01*
X17605987Y-14570187D02*
X17615511Y-14532092D01*
X17615511Y-14532092D02*
X17625035Y-14513044D01*
X17625035Y-14513044D02*
X17634558Y-14503520D01*
X17634558Y-14503520D02*
X17653606Y-14493996D01*
X17805987Y-14693996D02*
X17805987Y-14560663D01*
X17805987Y-14579711D02*
X17815511Y-14570187D01*
X17815511Y-14570187D02*
X17834558Y-14560663D01*
X17834558Y-14560663D02*
X17863130Y-14560663D01*
X17863130Y-14560663D02*
X17882178Y-14570187D01*
X17882178Y-14570187D02*
X17891701Y-14589235D01*
X17891701Y-14589235D02*
X17891701Y-14693996D01*
X17891701Y-14589235D02*
X17901225Y-14570187D01*
X17901225Y-14570187D02*
X17920273Y-14560663D01*
X17920273Y-14560663D02*
X17948844Y-14560663D01*
X17948844Y-14560663D02*
X17967892Y-14570187D01*
X17967892Y-14570187D02*
X17977416Y-14589235D01*
X17977416Y-14589235D02*
X17977416Y-14693996D01*
X18072654Y-14693996D02*
X18072654Y-14560663D01*
X18072654Y-14579711D02*
X18082178Y-14570187D01*
X18082178Y-14570187D02*
X18101225Y-14560663D01*
X18101225Y-14560663D02*
X18129797Y-14560663D01*
X18129797Y-14560663D02*
X18148844Y-14570187D01*
X18148844Y-14570187D02*
X18158368Y-14589235D01*
X18158368Y-14589235D02*
X18158368Y-14693996D01*
X18158368Y-14589235D02*
X18167892Y-14570187D01*
X18167892Y-14570187D02*
X18186939Y-14560663D01*
X18186939Y-14560663D02*
X18215511Y-14560663D01*
X18215511Y-14560663D02*
X18234559Y-14570187D01*
X18234559Y-14570187D02*
X18244082Y-14589235D01*
X18244082Y-14589235D02*
X18244082Y-14693996D01*
X18634559Y-14484473D02*
X18463130Y-14741615D01*
X18891701Y-14493996D02*
X18910749Y-14493996D01*
X18910749Y-14493996D02*
X18929797Y-14503520D01*
X18929797Y-14503520D02*
X18939321Y-14513044D01*
X18939321Y-14513044D02*
X18948844Y-14532092D01*
X18948844Y-14532092D02*
X18958368Y-14570187D01*
X18958368Y-14570187D02*
X18958368Y-14617806D01*
X18958368Y-14617806D02*
X18948844Y-14655901D01*
X18948844Y-14655901D02*
X18939321Y-14674949D01*
X18939321Y-14674949D02*
X18929797Y-14684473D01*
X18929797Y-14684473D02*
X18910749Y-14693996D01*
X18910749Y-14693996D02*
X18891701Y-14693996D01*
X18891701Y-14693996D02*
X18872654Y-14684473D01*
X18872654Y-14684473D02*
X18863130Y-14674949D01*
X18863130Y-14674949D02*
X18853606Y-14655901D01*
X18853606Y-14655901D02*
X18844082Y-14617806D01*
X18844082Y-14617806D02*
X18844082Y-14570187D01*
X18844082Y-14570187D02*
X18853606Y-14532092D01*
X18853606Y-14532092D02*
X18863130Y-14513044D01*
X18863130Y-14513044D02*
X18872654Y-14503520D01*
X18872654Y-14503520D02*
X18891701Y-14493996D01*
X19044082Y-14674949D02*
X19053606Y-14684473D01*
X19053606Y-14684473D02*
X19044082Y-14693996D01*
X19044082Y-14693996D02*
X19034559Y-14684473D01*
X19034559Y-14684473D02*
X19044082Y-14674949D01*
X19044082Y-14674949D02*
X19044082Y-14693996D01*
X19244082Y-14693996D02*
X19129797Y-14693996D01*
X19186940Y-14693996D02*
X19186940Y-14493996D01*
X19186940Y-14493996D02*
X19167892Y-14522568D01*
X19167892Y-14522568D02*
X19148844Y-14541615D01*
X19148844Y-14541615D02*
X19129797Y-14551139D01*
X19367892Y-14493996D02*
X19386940Y-14493996D01*
X19386940Y-14493996D02*
X19405987Y-14503520D01*
X19405987Y-14503520D02*
X19415511Y-14513044D01*
X19415511Y-14513044D02*
X19425035Y-14532092D01*
X19425035Y-14532092D02*
X19434559Y-14570187D01*
X19434559Y-14570187D02*
X19434559Y-14617806D01*
X19434559Y-14617806D02*
X19425035Y-14655901D01*
X19425035Y-14655901D02*
X19415511Y-14674949D01*
X19415511Y-14674949D02*
X19405987Y-14684473D01*
X19405987Y-14684473D02*
X19386940Y-14693996D01*
X19386940Y-14693996D02*
X19367892Y-14693996D01*
X19367892Y-14693996D02*
X19348844Y-14684473D01*
X19348844Y-14684473D02*
X19339321Y-14674949D01*
X19339321Y-14674949D02*
X19329797Y-14655901D01*
X19329797Y-14655901D02*
X19320273Y-14617806D01*
X19320273Y-14617806D02*
X19320273Y-14570187D01*
X19320273Y-14570187D02*
X19329797Y-14532092D01*
X19329797Y-14532092D02*
X19339321Y-14513044D01*
X19339321Y-14513044D02*
X19348844Y-14503520D01*
X19348844Y-14503520D02*
X19367892Y-14493996D01*
X19605987Y-14493996D02*
X19567892Y-14493996D01*
X19567892Y-14493996D02*
X19548844Y-14503520D01*
X19548844Y-14503520D02*
X19539321Y-14513044D01*
X19539321Y-14513044D02*
X19520273Y-14541615D01*
X19520273Y-14541615D02*
X19510749Y-14579711D01*
X19510749Y-14579711D02*
X19510749Y-14655901D01*
X19510749Y-14655901D02*
X19520273Y-14674949D01*
X19520273Y-14674949D02*
X19529797Y-14684473D01*
X19529797Y-14684473D02*
X19548844Y-14693996D01*
X19548844Y-14693996D02*
X19586940Y-14693996D01*
X19586940Y-14693996D02*
X19605987Y-14684473D01*
X19605987Y-14684473D02*
X19615511Y-14674949D01*
X19615511Y-14674949D02*
X19625035Y-14655901D01*
X19625035Y-14655901D02*
X19625035Y-14608282D01*
X19625035Y-14608282D02*
X19615511Y-14589235D01*
X19615511Y-14589235D02*
X19605987Y-14579711D01*
X19605987Y-14579711D02*
X19586940Y-14570187D01*
X19586940Y-14570187D02*
X19548844Y-14570187D01*
X19548844Y-14570187D02*
X19529797Y-14579711D01*
X19529797Y-14579711D02*
X19520273Y-14589235D01*
X19520273Y-14589235D02*
X19510749Y-14608282D01*
X19691702Y-14493996D02*
X19815511Y-14493996D01*
X19815511Y-14493996D02*
X19748844Y-14570187D01*
X19748844Y-14570187D02*
X19777416Y-14570187D01*
X19777416Y-14570187D02*
X19796463Y-14579711D01*
X19796463Y-14579711D02*
X19805987Y-14589235D01*
X19805987Y-14589235D02*
X19815511Y-14608282D01*
X19815511Y-14608282D02*
X19815511Y-14655901D01*
X19815511Y-14655901D02*
X19805987Y-14674949D01*
X19805987Y-14674949D02*
X19796463Y-14684473D01*
X19796463Y-14684473D02*
X19777416Y-14693996D01*
X19777416Y-14693996D02*
X19720273Y-14693996D01*
X19720273Y-14693996D02*
X19701225Y-14684473D01*
X19701225Y-14684473D02*
X19691702Y-14674949D01*
X19891702Y-14493996D02*
X19891702Y-14532092D01*
X19967892Y-14493996D02*
X19967892Y-14532092D01*
X20263130Y-14770187D02*
X20253606Y-14760663D01*
X20253606Y-14760663D02*
X20234559Y-14732092D01*
X20234559Y-14732092D02*
X20225035Y-14713044D01*
X20225035Y-14713044D02*
X20215511Y-14684473D01*
X20215511Y-14684473D02*
X20205987Y-14636854D01*
X20205987Y-14636854D02*
X20205987Y-14598758D01*
X20205987Y-14598758D02*
X20215511Y-14551139D01*
X20215511Y-14551139D02*
X20225035Y-14522568D01*
X20225035Y-14522568D02*
X20234559Y-14503520D01*
X20234559Y-14503520D02*
X20253606Y-14474949D01*
X20253606Y-14474949D02*
X20263130Y-14465425D01*
X20329797Y-14513044D02*
X20339321Y-14503520D01*
X20339321Y-14503520D02*
X20358368Y-14493996D01*
X20358368Y-14493996D02*
X20405987Y-14493996D01*
X20405987Y-14493996D02*
X20425035Y-14503520D01*
X20425035Y-14503520D02*
X20434559Y-14513044D01*
X20434559Y-14513044D02*
X20444083Y-14532092D01*
X20444083Y-14532092D02*
X20444083Y-14551139D01*
X20444083Y-14551139D02*
X20434559Y-14579711D01*
X20434559Y-14579711D02*
X20320273Y-14693996D01*
X20320273Y-14693996D02*
X20444083Y-14693996D01*
X20682178Y-14693996D02*
X20682178Y-14493996D01*
X20767892Y-14693996D02*
X20767892Y-14589235D01*
X20767892Y-14589235D02*
X20758368Y-14570187D01*
X20758368Y-14570187D02*
X20739321Y-14560663D01*
X20739321Y-14560663D02*
X20710749Y-14560663D01*
X20710749Y-14560663D02*
X20691702Y-14570187D01*
X20691702Y-14570187D02*
X20682178Y-14579711D01*
X20891702Y-14693996D02*
X20872654Y-14684473D01*
X20872654Y-14684473D02*
X20863130Y-14674949D01*
X20863130Y-14674949D02*
X20853606Y-14655901D01*
X20853606Y-14655901D02*
X20853606Y-14598758D01*
X20853606Y-14598758D02*
X20863130Y-14579711D01*
X20863130Y-14579711D02*
X20872654Y-14570187D01*
X20872654Y-14570187D02*
X20891702Y-14560663D01*
X20891702Y-14560663D02*
X20920273Y-14560663D01*
X20920273Y-14560663D02*
X20939321Y-14570187D01*
X20939321Y-14570187D02*
X20948845Y-14579711D01*
X20948845Y-14579711D02*
X20958368Y-14598758D01*
X20958368Y-14598758D02*
X20958368Y-14655901D01*
X20958368Y-14655901D02*
X20948845Y-14674949D01*
X20948845Y-14674949D02*
X20939321Y-14684473D01*
X20939321Y-14684473D02*
X20920273Y-14693996D01*
X20920273Y-14693996D02*
X20891702Y-14693996D01*
X21072654Y-14693996D02*
X21053606Y-14684473D01*
X21053606Y-14684473D02*
X21044083Y-14665425D01*
X21044083Y-14665425D02*
X21044083Y-14493996D01*
X21225035Y-14684473D02*
X21205987Y-14693996D01*
X21205987Y-14693996D02*
X21167892Y-14693996D01*
X21167892Y-14693996D02*
X21148845Y-14684473D01*
X21148845Y-14684473D02*
X21139321Y-14665425D01*
X21139321Y-14665425D02*
X21139321Y-14589235D01*
X21139321Y-14589235D02*
X21148845Y-14570187D01*
X21148845Y-14570187D02*
X21167892Y-14560663D01*
X21167892Y-14560663D02*
X21205987Y-14560663D01*
X21205987Y-14560663D02*
X21225035Y-14570187D01*
X21225035Y-14570187D02*
X21234559Y-14589235D01*
X21234559Y-14589235D02*
X21234559Y-14608282D01*
X21234559Y-14608282D02*
X21139321Y-14627330D01*
X21310749Y-14684473D02*
X21329797Y-14693996D01*
X21329797Y-14693996D02*
X21367892Y-14693996D01*
X21367892Y-14693996D02*
X21386940Y-14684473D01*
X21386940Y-14684473D02*
X21396464Y-14665425D01*
X21396464Y-14665425D02*
X21396464Y-14655901D01*
X21396464Y-14655901D02*
X21386940Y-14636854D01*
X21386940Y-14636854D02*
X21367892Y-14627330D01*
X21367892Y-14627330D02*
X21339321Y-14627330D01*
X21339321Y-14627330D02*
X21320273Y-14617806D01*
X21320273Y-14617806D02*
X21310749Y-14598758D01*
X21310749Y-14598758D02*
X21310749Y-14589235D01*
X21310749Y-14589235D02*
X21320273Y-14570187D01*
X21320273Y-14570187D02*
X21339321Y-14560663D01*
X21339321Y-14560663D02*
X21367892Y-14560663D01*
X21367892Y-14560663D02*
X21386940Y-14570187D01*
X21463130Y-14770187D02*
X21472654Y-14760663D01*
X21472654Y-14760663D02*
X21491702Y-14732092D01*
X21491702Y-14732092D02*
X21501226Y-14713044D01*
X21501226Y-14713044D02*
X21510749Y-14684473D01*
X21510749Y-14684473D02*
X21520273Y-14636854D01*
X21520273Y-14636854D02*
X21520273Y-14598758D01*
X21520273Y-14598758D02*
X21510749Y-14551139D01*
X21510749Y-14551139D02*
X21501226Y-14522568D01*
X21501226Y-14522568D02*
X21491702Y-14503520D01*
X21491702Y-14503520D02*
X21472654Y-14474949D01*
X21472654Y-14474949D02*
X21463130Y-14465425D01*
X21825035Y-14770187D02*
X21815511Y-14760663D01*
X21815511Y-14760663D02*
X21796464Y-14732092D01*
X21796464Y-14732092D02*
X21786940Y-14713044D01*
X21786940Y-14713044D02*
X21777416Y-14684473D01*
X21777416Y-14684473D02*
X21767892Y-14636854D01*
X21767892Y-14636854D02*
X21767892Y-14598758D01*
X21767892Y-14598758D02*
X21777416Y-14551139D01*
X21777416Y-14551139D02*
X21786940Y-14522568D01*
X21786940Y-14522568D02*
X21796464Y-14503520D01*
X21796464Y-14503520D02*
X21815511Y-14474949D01*
X21815511Y-14474949D02*
X21825035Y-14465425D01*
X21901226Y-14560663D02*
X21901226Y-14693996D01*
X21901226Y-14579711D02*
X21910749Y-14570187D01*
X21910749Y-14570187D02*
X21929797Y-14560663D01*
X21929797Y-14560663D02*
X21958368Y-14560663D01*
X21958368Y-14560663D02*
X21977416Y-14570187D01*
X21977416Y-14570187D02*
X21986940Y-14589235D01*
X21986940Y-14589235D02*
X21986940Y-14693996D01*
X22110749Y-14693996D02*
X22091702Y-14684473D01*
X22091702Y-14684473D02*
X22082178Y-14674949D01*
X22082178Y-14674949D02*
X22072654Y-14655901D01*
X22072654Y-14655901D02*
X22072654Y-14598758D01*
X22072654Y-14598758D02*
X22082178Y-14579711D01*
X22082178Y-14579711D02*
X22091702Y-14570187D01*
X22091702Y-14570187D02*
X22110749Y-14560663D01*
X22110749Y-14560663D02*
X22139321Y-14560663D01*
X22139321Y-14560663D02*
X22158368Y-14570187D01*
X22158368Y-14570187D02*
X22167892Y-14579711D01*
X22167892Y-14579711D02*
X22177416Y-14598758D01*
X22177416Y-14598758D02*
X22177416Y-14655901D01*
X22177416Y-14655901D02*
X22167892Y-14674949D01*
X22167892Y-14674949D02*
X22158368Y-14684473D01*
X22158368Y-14684473D02*
X22139321Y-14693996D01*
X22139321Y-14693996D02*
X22110749Y-14693996D01*
X22234559Y-14560663D02*
X22310749Y-14560663D01*
X22263130Y-14493996D02*
X22263130Y-14665425D01*
X22263130Y-14665425D02*
X22272654Y-14684473D01*
X22272654Y-14684473D02*
X22291702Y-14693996D01*
X22291702Y-14693996D02*
X22310749Y-14693996D01*
X22529797Y-14560663D02*
X22529797Y-14760663D01*
X22529797Y-14570187D02*
X22548845Y-14560663D01*
X22548845Y-14560663D02*
X22586940Y-14560663D01*
X22586940Y-14560663D02*
X22605987Y-14570187D01*
X22605987Y-14570187D02*
X22615511Y-14579711D01*
X22615511Y-14579711D02*
X22625035Y-14598758D01*
X22625035Y-14598758D02*
X22625035Y-14655901D01*
X22625035Y-14655901D02*
X22615511Y-14674949D01*
X22615511Y-14674949D02*
X22605987Y-14684473D01*
X22605987Y-14684473D02*
X22586940Y-14693996D01*
X22586940Y-14693996D02*
X22548845Y-14693996D01*
X22548845Y-14693996D02*
X22529797Y-14684473D01*
X22739321Y-14693996D02*
X22720273Y-14684473D01*
X22720273Y-14684473D02*
X22710749Y-14665425D01*
X22710749Y-14665425D02*
X22710749Y-14493996D01*
X22901226Y-14693996D02*
X22901226Y-14589235D01*
X22901226Y-14589235D02*
X22891702Y-14570187D01*
X22891702Y-14570187D02*
X22872654Y-14560663D01*
X22872654Y-14560663D02*
X22834559Y-14560663D01*
X22834559Y-14560663D02*
X22815511Y-14570187D01*
X22901226Y-14684473D02*
X22882178Y-14693996D01*
X22882178Y-14693996D02*
X22834559Y-14693996D01*
X22834559Y-14693996D02*
X22815511Y-14684473D01*
X22815511Y-14684473D02*
X22805987Y-14665425D01*
X22805987Y-14665425D02*
X22805987Y-14646377D01*
X22805987Y-14646377D02*
X22815511Y-14627330D01*
X22815511Y-14627330D02*
X22834559Y-14617806D01*
X22834559Y-14617806D02*
X22882178Y-14617806D01*
X22882178Y-14617806D02*
X22901226Y-14608282D01*
X22967892Y-14560663D02*
X23044083Y-14560663D01*
X22996464Y-14493996D02*
X22996464Y-14665425D01*
X22996464Y-14665425D02*
X23005987Y-14684473D01*
X23005987Y-14684473D02*
X23025035Y-14693996D01*
X23025035Y-14693996D02*
X23044083Y-14693996D01*
X23186940Y-14684473D02*
X23167892Y-14693996D01*
X23167892Y-14693996D02*
X23129797Y-14693996D01*
X23129797Y-14693996D02*
X23110749Y-14684473D01*
X23110749Y-14684473D02*
X23101226Y-14665425D01*
X23101226Y-14665425D02*
X23101226Y-14589235D01*
X23101226Y-14589235D02*
X23110749Y-14570187D01*
X23110749Y-14570187D02*
X23129797Y-14560663D01*
X23129797Y-14560663D02*
X23167892Y-14560663D01*
X23167892Y-14560663D02*
X23186940Y-14570187D01*
X23186940Y-14570187D02*
X23196464Y-14589235D01*
X23196464Y-14589235D02*
X23196464Y-14608282D01*
X23196464Y-14608282D02*
X23101226Y-14627330D01*
X23367892Y-14693996D02*
X23367892Y-14493996D01*
X23367892Y-14684473D02*
X23348845Y-14693996D01*
X23348845Y-14693996D02*
X23310749Y-14693996D01*
X23310749Y-14693996D02*
X23291702Y-14684473D01*
X23291702Y-14684473D02*
X23282178Y-14674949D01*
X23282178Y-14674949D02*
X23272654Y-14655901D01*
X23272654Y-14655901D02*
X23272654Y-14598758D01*
X23272654Y-14598758D02*
X23282178Y-14579711D01*
X23282178Y-14579711D02*
X23291702Y-14570187D01*
X23291702Y-14570187D02*
X23310749Y-14560663D01*
X23310749Y-14560663D02*
X23348845Y-14560663D01*
X23348845Y-14560663D02*
X23367892Y-14570187D01*
X23444083Y-14770187D02*
X23453607Y-14760663D01*
X23453607Y-14760663D02*
X23472654Y-14732092D01*
X23472654Y-14732092D02*
X23482178Y-14713044D01*
X23482178Y-14713044D02*
X23491702Y-14684473D01*
X23491702Y-14684473D02*
X23501226Y-14636854D01*
X23501226Y-14636854D02*
X23501226Y-14598758D01*
X23501226Y-14598758D02*
X23491702Y-14551139D01*
X23491702Y-14551139D02*
X23482178Y-14522568D01*
X23482178Y-14522568D02*
X23472654Y-14503520D01*
X23472654Y-14503520D02*
X23453607Y-14474949D01*
X23453607Y-14474949D02*
X23444083Y-14465425D01*
M02*
