%TF.GenerationSoftware,KiCad,Pcbnew,8.0.2*%
%TF.CreationDate,2024-08-08T09:06:46-05:00*%
%TF.ProjectId,sensors,73656e73-6f72-4732-9e6b-696361645f70,rev?*%
%TF.SameCoordinates,Original*%
%TF.FileFunction,Copper,L4,Bot*%
%TF.FilePolarity,Positive*%
%FSLAX46Y46*%
G04 Gerber Fmt 4.6, Leading zero omitted, Abs format (unit mm)*
G04 Created by KiCad (PCBNEW 8.0.2) date 2024-08-08 09:06:46*
%MOMM*%
%LPD*%
G01*
G04 APERTURE LIST*
%TA.AperFunction,SMDPad,CuDef*%
%ADD10R,2.400000X0.740000*%
%TD*%
%TA.AperFunction,ViaPad*%
%ADD11C,0.508000*%
%TD*%
%TA.AperFunction,Conductor*%
%ADD12C,0.304800*%
%TD*%
%TA.AperFunction,Conductor*%
%ADD13C,0.203200*%
%TD*%
G04 APERTURE END LIST*
D10*
%TO.P,J1,1,Pin_1*%
%TO.N,GND*%
X126066000Y-64262000D03*
%TO.P,J1,2,Pin_2*%
%TO.N,/HAL_OUT*%
X129966000Y-64262000D03*
%TO.P,J1,3,Pin_3*%
%TO.N,/SCL*%
X126066000Y-62992000D03*
%TO.P,J1,4,Pin_4*%
%TO.N,/OPT_INT*%
X129966000Y-62992000D03*
%TO.P,J1,5,Pin_5*%
%TO.N,/SDA*%
X126066000Y-61722000D03*
%TO.P,J1,6,Pin_6*%
%TO.N,+3V3*%
X129966000Y-61722000D03*
%TD*%
D11*
%TO.N,+3V3*%
X131648200Y-62052200D03*
%TO.N,GND*%
X129921000Y-65532000D03*
X133350000Y-68199000D03*
X125984000Y-66675000D03*
X124079000Y-66675000D03*
X121031000Y-60579000D03*
X134874000Y-60579000D03*
X120904000Y-68326000D03*
%TO.N,/SCL*%
X126263400Y-65786000D03*
%TO.N,/OPT_INT*%
X128016000Y-64262000D03*
%TO.N,/SDA*%
X123723400Y-63065000D03*
%TO.N,/HAL_OUT*%
X131622800Y-64287400D03*
%TD*%
D12*
%TO.N,+3V3*%
X129966000Y-61722000D02*
X131318000Y-61722000D01*
X131318000Y-61722000D02*
X131648200Y-62052200D01*
D13*
%TO.N,/SCL*%
X124307600Y-65532000D02*
X124307600Y-63296800D01*
X124612400Y-62992000D02*
X126066000Y-62992000D01*
X124561600Y-65786000D02*
X124307600Y-65532000D01*
X126263400Y-65786000D02*
X124561600Y-65786000D01*
X124307600Y-63296800D02*
X124612400Y-62992000D01*
%TO.N,/OPT_INT*%
X128016000Y-63500000D02*
X128524000Y-62992000D01*
X128016000Y-64262000D02*
X128016000Y-63500000D01*
X128524000Y-62992000D02*
X129966000Y-62992000D01*
%TO.N,/SDA*%
X123723400Y-62204600D02*
X124206000Y-61722000D01*
X124206000Y-61722000D02*
X126066000Y-61722000D01*
X123723400Y-63065000D02*
X123723400Y-62204600D01*
%TO.N,/HAL_OUT*%
X131597400Y-64262000D02*
X131622800Y-64287400D01*
X129966000Y-64262000D02*
X131597400Y-64262000D01*
%TD*%
%TA.AperFunction,Conductor*%
%TO.N,GND*%
G36*
X135609138Y-59834593D02*
G01*
X135634858Y-59879142D01*
X135636000Y-59892200D01*
X135636000Y-68758800D01*
X135618407Y-68807138D01*
X135573858Y-68832858D01*
X135560800Y-68834000D01*
X120471200Y-68834000D01*
X120422862Y-68816407D01*
X120397142Y-68771858D01*
X120396000Y-68758800D01*
X120396000Y-63065000D01*
X123260993Y-63065000D01*
X123279724Y-63195275D01*
X123279724Y-63195276D01*
X123279725Y-63195278D01*
X123279725Y-63195280D01*
X123334395Y-63314990D01*
X123334398Y-63314996D01*
X123394966Y-63384895D01*
X123420591Y-63414467D01*
X123531308Y-63485620D01*
X123610458Y-63508860D01*
X123657593Y-63522700D01*
X123657596Y-63522700D01*
X123789204Y-63522700D01*
X123789207Y-63522700D01*
X123905914Y-63488432D01*
X123957250Y-63491695D01*
X123994479Y-63527192D01*
X124002300Y-63560586D01*
X124002300Y-65572193D01*
X124023106Y-65649840D01*
X124023109Y-65649848D01*
X124063299Y-65719459D01*
X124374136Y-66030296D01*
X124374138Y-66030297D01*
X124374141Y-66030300D01*
X124443758Y-66070494D01*
X124464561Y-66076067D01*
X124464564Y-66076069D01*
X124464564Y-66076068D01*
X124521407Y-66091300D01*
X125887976Y-66091300D01*
X125936314Y-66108893D01*
X125944808Y-66117254D01*
X125960588Y-66135464D01*
X125960590Y-66135466D01*
X126071308Y-66206620D01*
X126161142Y-66232997D01*
X126197593Y-66243700D01*
X126197596Y-66243700D01*
X126329204Y-66243700D01*
X126329207Y-66243700D01*
X126455491Y-66206620D01*
X126566208Y-66135467D01*
X126566208Y-66135466D01*
X126566212Y-66135464D01*
X126652402Y-66035996D01*
X126707076Y-65916275D01*
X126725807Y-65786000D01*
X126707076Y-65655725D01*
X126707074Y-65655720D01*
X126707074Y-65655719D01*
X126652404Y-65536009D01*
X126652402Y-65536004D01*
X126566212Y-65436536D01*
X126566210Y-65436535D01*
X126566208Y-65436532D01*
X126455491Y-65365379D01*
X126329209Y-65328300D01*
X126329207Y-65328300D01*
X126197593Y-65328300D01*
X126197590Y-65328300D01*
X126071308Y-65365379D01*
X125960590Y-65436533D01*
X125960588Y-65436535D01*
X125944808Y-65454746D01*
X125899857Y-65479756D01*
X125887976Y-65480700D01*
X124719207Y-65480700D01*
X124670869Y-65463107D01*
X124666033Y-65458674D01*
X124634926Y-65427567D01*
X124613186Y-65380947D01*
X124612900Y-65374393D01*
X124612900Y-64775422D01*
X124630493Y-64727084D01*
X124675042Y-64701364D01*
X124725700Y-64710297D01*
X124750627Y-64733643D01*
X124756127Y-64741874D01*
X124806535Y-64775557D01*
X124806537Y-64775558D01*
X124850987Y-64784400D01*
X125989800Y-64784400D01*
X125989800Y-63739600D01*
X126142200Y-63739600D01*
X126142200Y-64784400D01*
X127281013Y-64784400D01*
X127325462Y-64775558D01*
X127325464Y-64775557D01*
X127375873Y-64741873D01*
X127409557Y-64691464D01*
X127409558Y-64691462D01*
X127418400Y-64647012D01*
X127418400Y-64373143D01*
X127435993Y-64324805D01*
X127480542Y-64299085D01*
X127531200Y-64308018D01*
X127564265Y-64347423D01*
X127568033Y-64362435D01*
X127572324Y-64392275D01*
X127572324Y-64392276D01*
X127572325Y-64392278D01*
X127572325Y-64392280D01*
X127607649Y-64469628D01*
X127626998Y-64511996D01*
X127649007Y-64537396D01*
X127713191Y-64611467D01*
X127823908Y-64682620D01*
X127910414Y-64708020D01*
X127950193Y-64719700D01*
X127950196Y-64719700D01*
X128081804Y-64719700D01*
X128081807Y-64719700D01*
X128208091Y-64682620D01*
X128255637Y-64652064D01*
X128318808Y-64611467D01*
X128318808Y-64611466D01*
X128318812Y-64611464D01*
X128405002Y-64511996D01*
X128418696Y-64482008D01*
X128454779Y-64445349D01*
X128505986Y-64440459D01*
X128548356Y-64469628D01*
X128562300Y-64513249D01*
X128562300Y-64652064D01*
X128573129Y-64706505D01*
X128574119Y-64711479D01*
X128574120Y-64711483D01*
X128619139Y-64778860D01*
X128686516Y-64823879D01*
X128686517Y-64823879D01*
X128686520Y-64823881D01*
X128745936Y-64835700D01*
X131186064Y-64835700D01*
X131245480Y-64823881D01*
X131312860Y-64778860D01*
X131341125Y-64736556D01*
X131382608Y-64706140D01*
X131424842Y-64708907D01*
X131425548Y-64706505D01*
X131517974Y-64733643D01*
X131556993Y-64745100D01*
X131556996Y-64745100D01*
X131688604Y-64745100D01*
X131688607Y-64745100D01*
X131814891Y-64708020D01*
X131878855Y-64666913D01*
X131925608Y-64636867D01*
X131925608Y-64636866D01*
X131925612Y-64636864D01*
X132011802Y-64537396D01*
X132066476Y-64417675D01*
X132085207Y-64287400D01*
X132066476Y-64157125D01*
X132066474Y-64157120D01*
X132066474Y-64157119D01*
X132011804Y-64037409D01*
X132011802Y-64037404D01*
X131925612Y-63937936D01*
X131925610Y-63937935D01*
X131925608Y-63937932D01*
X131814891Y-63866779D01*
X131688609Y-63829700D01*
X131688607Y-63829700D01*
X131556993Y-63829700D01*
X131556991Y-63829700D01*
X131556987Y-63829701D01*
X131450627Y-63860930D01*
X131399291Y-63857667D01*
X131362063Y-63822169D01*
X131359966Y-63817553D01*
X131357881Y-63812519D01*
X131312860Y-63745139D01*
X131245483Y-63700120D01*
X131238639Y-63697286D01*
X131239506Y-63695190D01*
X131204700Y-63674069D01*
X131188166Y-63625359D01*
X131206810Y-63577417D01*
X131239416Y-63558591D01*
X131238639Y-63556714D01*
X131245476Y-63553881D01*
X131245480Y-63553881D01*
X131312860Y-63508860D01*
X131357881Y-63441480D01*
X131369700Y-63382064D01*
X131369700Y-62601936D01*
X131361295Y-62559682D01*
X131369120Y-62508841D01*
X131407794Y-62474924D01*
X131456235Y-62472857D01*
X131582393Y-62509900D01*
X131582396Y-62509900D01*
X131714004Y-62509900D01*
X131714007Y-62509900D01*
X131840291Y-62472820D01*
X131906734Y-62430120D01*
X131951008Y-62401667D01*
X131951008Y-62401666D01*
X131951012Y-62401664D01*
X132037202Y-62302196D01*
X132091876Y-62182475D01*
X132110607Y-62052200D01*
X132091876Y-61921925D01*
X132091874Y-61921920D01*
X132091874Y-61921919D01*
X132037204Y-61802209D01*
X132037202Y-61802204D01*
X131951012Y-61702736D01*
X131951010Y-61702735D01*
X131951008Y-61702732D01*
X131840291Y-61631579D01*
X131708847Y-61592985D01*
X131709258Y-61591583D01*
X131673061Y-61573458D01*
X131536651Y-61437048D01*
X131455451Y-61390167D01*
X131455444Y-61390165D01*
X131422275Y-61381277D01*
X131380138Y-61351772D01*
X131367984Y-61323311D01*
X131357881Y-61272521D01*
X131357879Y-61272516D01*
X131312860Y-61205139D01*
X131245483Y-61160120D01*
X131245480Y-61160119D01*
X131186064Y-61148300D01*
X128745936Y-61148300D01*
X128686520Y-61160119D01*
X128686516Y-61160120D01*
X128619139Y-61205139D01*
X128574120Y-61272516D01*
X128574119Y-61272520D01*
X128562300Y-61331936D01*
X128562300Y-62112064D01*
X128572712Y-62164409D01*
X128574119Y-62171479D01*
X128574120Y-62171483D01*
X128619139Y-62238860D01*
X128686516Y-62283879D01*
X128686518Y-62283880D01*
X128686520Y-62283881D01*
X128686521Y-62283881D01*
X128693361Y-62286714D01*
X128692493Y-62288809D01*
X128727301Y-62309934D01*
X128743833Y-62358644D01*
X128725187Y-62406586D01*
X128692583Y-62425409D01*
X128693361Y-62427286D01*
X128686516Y-62430120D01*
X128619139Y-62475139D01*
X128574120Y-62542516D01*
X128574119Y-62542520D01*
X128562300Y-62601935D01*
X128562300Y-62611500D01*
X128544707Y-62659838D01*
X128500158Y-62685558D01*
X128487100Y-62686700D01*
X128483807Y-62686700D01*
X128434581Y-62699889D01*
X128406161Y-62707505D01*
X128406159Y-62707506D01*
X128392249Y-62715537D01*
X128392248Y-62715536D01*
X128336542Y-62747699D01*
X128336536Y-62747703D01*
X127771701Y-63312538D01*
X127770419Y-63314760D01*
X127770283Y-63314996D01*
X127731506Y-63382157D01*
X127731506Y-63382159D01*
X127710700Y-63459807D01*
X127710700Y-63459809D01*
X127710700Y-63887358D01*
X127693107Y-63935696D01*
X127692333Y-63936603D01*
X127627000Y-64012001D01*
X127626995Y-64012009D01*
X127572325Y-64131719D01*
X127572324Y-64131721D01*
X127568035Y-64161558D01*
X127543741Y-64206900D01*
X127495986Y-64226018D01*
X127447114Y-64209967D01*
X127419994Y-64166257D01*
X127418400Y-64150856D01*
X127418400Y-63876987D01*
X127409558Y-63832537D01*
X127409557Y-63832535D01*
X127375873Y-63782126D01*
X127325464Y-63748442D01*
X127325462Y-63748441D01*
X127281013Y-63739600D01*
X126142200Y-63739600D01*
X125989800Y-63739600D01*
X124850987Y-63739600D01*
X124806537Y-63748441D01*
X124806535Y-63748442D01*
X124756125Y-63782126D01*
X124750625Y-63790358D01*
X124709141Y-63820773D01*
X124657812Y-63817408D01*
X124620654Y-63781835D01*
X124612900Y-63748577D01*
X124612900Y-63578562D01*
X124630493Y-63530224D01*
X124675042Y-63504504D01*
X124725700Y-63513437D01*
X124729878Y-63516035D01*
X124786516Y-63553879D01*
X124786517Y-63553879D01*
X124786520Y-63553881D01*
X124845936Y-63565700D01*
X127286064Y-63565700D01*
X127345480Y-63553881D01*
X127412860Y-63508860D01*
X127457881Y-63441480D01*
X127469700Y-63382064D01*
X127469700Y-62601936D01*
X127457881Y-62542520D01*
X127457879Y-62542517D01*
X127457879Y-62542516D01*
X127412860Y-62475139D01*
X127345483Y-62430120D01*
X127338639Y-62427286D01*
X127339506Y-62425190D01*
X127304700Y-62404069D01*
X127288166Y-62355359D01*
X127306810Y-62307417D01*
X127339416Y-62288591D01*
X127338639Y-62286714D01*
X127345476Y-62283881D01*
X127345480Y-62283881D01*
X127412860Y-62238860D01*
X127457881Y-62171480D01*
X127469700Y-62112064D01*
X127469700Y-61331936D01*
X127457881Y-61272520D01*
X127457879Y-61272517D01*
X127457879Y-61272516D01*
X127412860Y-61205139D01*
X127345483Y-61160120D01*
X127345480Y-61160119D01*
X127286064Y-61148300D01*
X124845936Y-61148300D01*
X124786520Y-61160119D01*
X124786516Y-61160120D01*
X124719139Y-61205139D01*
X124674120Y-61272516D01*
X124674119Y-61272520D01*
X124662300Y-61331935D01*
X124662300Y-61341500D01*
X124644707Y-61389838D01*
X124600158Y-61415558D01*
X124587100Y-61416700D01*
X124165807Y-61416700D01*
X124088159Y-61437506D01*
X124088157Y-61437506D01*
X124058735Y-61454494D01*
X124047963Y-61460712D01*
X124018539Y-61477700D01*
X123479105Y-62017134D01*
X123479100Y-62017141D01*
X123473235Y-62027300D01*
X123438906Y-62086757D01*
X123438906Y-62086759D01*
X123418100Y-62164407D01*
X123418100Y-62164409D01*
X123418100Y-62690358D01*
X123400507Y-62738696D01*
X123399733Y-62739603D01*
X123334400Y-62815001D01*
X123334395Y-62815009D01*
X123279725Y-62934719D01*
X123279725Y-62934721D01*
X123279724Y-62934723D01*
X123279724Y-62934725D01*
X123260993Y-63065000D01*
X120396000Y-63065000D01*
X120396000Y-59892200D01*
X120413593Y-59843862D01*
X120458142Y-59818142D01*
X120471200Y-59817000D01*
X135560800Y-59817000D01*
X135609138Y-59834593D01*
G37*
%TD.AperFunction*%
%TD*%
M02*
