%TF.GenerationSoftware,KiCad,Pcbnew,8.0.2*%
%TF.CreationDate,2024-08-08T09:06:46-05:00*%
%TF.ProjectId,sensors,73656e73-6f72-4732-9e6b-696361645f70,rev?*%
%TF.SameCoordinates,Original*%
%TF.FileFunction,Legend,Top*%
%TF.FilePolarity,Positive*%
%FSLAX46Y46*%
G04 Gerber Fmt 4.6, Leading zero omitted, Abs format (unit mm)*
G04 Created by KiCad (PCBNEW 8.0.2) date 2024-08-08 09:06:46*
%MOMM*%
%LPD*%
G01*
G04 APERTURE LIST*
%ADD10C,0.150000*%
%ADD11C,0.120000*%
%ADD12C,0.152400*%
G04 APERTURE END LIST*
D10*
X130396963Y-64367833D02*
X130094582Y-64579500D01*
X130396963Y-64730690D02*
X129761963Y-64730690D01*
X129761963Y-64730690D02*
X129761963Y-64488785D01*
X129761963Y-64488785D02*
X129792201Y-64428309D01*
X129792201Y-64428309D02*
X129822439Y-64398071D01*
X129822439Y-64398071D02*
X129882915Y-64367833D01*
X129882915Y-64367833D02*
X129973629Y-64367833D01*
X129973629Y-64367833D02*
X130034105Y-64398071D01*
X130034105Y-64398071D02*
X130064344Y-64428309D01*
X130064344Y-64428309D02*
X130094582Y-64488785D01*
X130094582Y-64488785D02*
X130094582Y-64730690D01*
X129973629Y-63823547D02*
X130396963Y-63823547D01*
X129731725Y-63974738D02*
X130185296Y-64125928D01*
X130185296Y-64125928D02*
X130185296Y-63732833D01*
X121451309Y-68091964D02*
X121451309Y-67456964D01*
X121451309Y-67456964D02*
X121602499Y-67456964D01*
X121602499Y-67456964D02*
X121693214Y-67487202D01*
X121693214Y-67487202D02*
X121753690Y-67547678D01*
X121753690Y-67547678D02*
X121783928Y-67608154D01*
X121783928Y-67608154D02*
X121814166Y-67729106D01*
X121814166Y-67729106D02*
X121814166Y-67819821D01*
X121814166Y-67819821D02*
X121783928Y-67940773D01*
X121783928Y-67940773D02*
X121753690Y-68001249D01*
X121753690Y-68001249D02*
X121693214Y-68061726D01*
X121693214Y-68061726D02*
X121602499Y-68091964D01*
X121602499Y-68091964D02*
X121451309Y-68091964D01*
X122418928Y-68091964D02*
X122056071Y-68091964D01*
X122237499Y-68091964D02*
X122237499Y-67456964D01*
X122237499Y-67456964D02*
X122177023Y-67547678D01*
X122177023Y-67547678D02*
X122116547Y-67608154D01*
X122116547Y-67608154D02*
X122056071Y-67638392D01*
X129434166Y-68611963D02*
X129222499Y-68309582D01*
X129071309Y-68611963D02*
X129071309Y-67976963D01*
X129071309Y-67976963D02*
X129313214Y-67976963D01*
X129313214Y-67976963D02*
X129373690Y-68007201D01*
X129373690Y-68007201D02*
X129403928Y-68037439D01*
X129403928Y-68037439D02*
X129434166Y-68097915D01*
X129434166Y-68097915D02*
X129434166Y-68188629D01*
X129434166Y-68188629D02*
X129403928Y-68249105D01*
X129403928Y-68249105D02*
X129373690Y-68279344D01*
X129373690Y-68279344D02*
X129313214Y-68309582D01*
X129313214Y-68309582D02*
X129071309Y-68309582D01*
X129676071Y-68037439D02*
X129706309Y-68007201D01*
X129706309Y-68007201D02*
X129766785Y-67976963D01*
X129766785Y-67976963D02*
X129917976Y-67976963D01*
X129917976Y-67976963D02*
X129978452Y-68007201D01*
X129978452Y-68007201D02*
X130008690Y-68037439D01*
X130008690Y-68037439D02*
X130038928Y-68097915D01*
X130038928Y-68097915D02*
X130038928Y-68158391D01*
X130038928Y-68158391D02*
X130008690Y-68249105D01*
X130008690Y-68249105D02*
X129645833Y-68611963D01*
X129645833Y-68611963D02*
X130038928Y-68611963D01*
X133752166Y-61439486D02*
X133721928Y-61469725D01*
X133721928Y-61469725D02*
X133631214Y-61499963D01*
X133631214Y-61499963D02*
X133570738Y-61499963D01*
X133570738Y-61499963D02*
X133480023Y-61469725D01*
X133480023Y-61469725D02*
X133419547Y-61409248D01*
X133419547Y-61409248D02*
X133389309Y-61348772D01*
X133389309Y-61348772D02*
X133359071Y-61227820D01*
X133359071Y-61227820D02*
X133359071Y-61137105D01*
X133359071Y-61137105D02*
X133389309Y-61016153D01*
X133389309Y-61016153D02*
X133419547Y-60955677D01*
X133419547Y-60955677D02*
X133480023Y-60895201D01*
X133480023Y-60895201D02*
X133570738Y-60864963D01*
X133570738Y-60864963D02*
X133631214Y-60864963D01*
X133631214Y-60864963D02*
X133721928Y-60895201D01*
X133721928Y-60895201D02*
X133752166Y-60925439D01*
X133963833Y-60864963D02*
X134356928Y-60864963D01*
X134356928Y-60864963D02*
X134145261Y-61106867D01*
X134145261Y-61106867D02*
X134235976Y-61106867D01*
X134235976Y-61106867D02*
X134296452Y-61137105D01*
X134296452Y-61137105D02*
X134326690Y-61167344D01*
X134326690Y-61167344D02*
X134356928Y-61227820D01*
X134356928Y-61227820D02*
X134356928Y-61379010D01*
X134356928Y-61379010D02*
X134326690Y-61439486D01*
X134326690Y-61439486D02*
X134296452Y-61469725D01*
X134296452Y-61469725D02*
X134235976Y-61499963D01*
X134235976Y-61499963D02*
X134054547Y-61499963D01*
X134054547Y-61499963D02*
X133994071Y-61469725D01*
X133994071Y-61469725D02*
X133963833Y-61439486D01*
X121217266Y-62975485D02*
X121187028Y-63005724D01*
X121187028Y-63005724D02*
X121096314Y-63035962D01*
X121096314Y-63035962D02*
X121035838Y-63035962D01*
X121035838Y-63035962D02*
X120945123Y-63005724D01*
X120945123Y-63005724D02*
X120884647Y-62945247D01*
X120884647Y-62945247D02*
X120854409Y-62884771D01*
X120854409Y-62884771D02*
X120824171Y-62763819D01*
X120824171Y-62763819D02*
X120824171Y-62673104D01*
X120824171Y-62673104D02*
X120854409Y-62552152D01*
X120854409Y-62552152D02*
X120884647Y-62491676D01*
X120884647Y-62491676D02*
X120945123Y-62431200D01*
X120945123Y-62431200D02*
X121035838Y-62400962D01*
X121035838Y-62400962D02*
X121096314Y-62400962D01*
X121096314Y-62400962D02*
X121187028Y-62431200D01*
X121187028Y-62431200D02*
X121217266Y-62461438D01*
X121822028Y-63035962D02*
X121459171Y-63035962D01*
X121640599Y-63035962D02*
X121640599Y-62400962D01*
X121640599Y-62400962D02*
X121580123Y-62491676D01*
X121580123Y-62491676D02*
X121519647Y-62552152D01*
X121519647Y-62552152D02*
X121459171Y-62582390D01*
X129851363Y-60938833D02*
X129548982Y-61150500D01*
X129851363Y-61301690D02*
X129216363Y-61301690D01*
X129216363Y-61301690D02*
X129216363Y-61059785D01*
X129216363Y-61059785D02*
X129246601Y-60999309D01*
X129246601Y-60999309D02*
X129276839Y-60969071D01*
X129276839Y-60969071D02*
X129337315Y-60938833D01*
X129337315Y-60938833D02*
X129428029Y-60938833D01*
X129428029Y-60938833D02*
X129488505Y-60969071D01*
X129488505Y-60969071D02*
X129518744Y-60999309D01*
X129518744Y-60999309D02*
X129548982Y-61059785D01*
X129548982Y-61059785D02*
X129548982Y-61301690D01*
X129851363Y-60334071D02*
X129851363Y-60696928D01*
X129851363Y-60515500D02*
X129216363Y-60515500D01*
X129216363Y-60515500D02*
X129307077Y-60575976D01*
X129307077Y-60575976D02*
X129367553Y-60636452D01*
X129367553Y-60636452D02*
X129397791Y-60696928D01*
X129825963Y-67161833D02*
X129523582Y-67373500D01*
X129825963Y-67524690D02*
X129190963Y-67524690D01*
X129190963Y-67524690D02*
X129190963Y-67282785D01*
X129190963Y-67282785D02*
X129221201Y-67222309D01*
X129221201Y-67222309D02*
X129251439Y-67192071D01*
X129251439Y-67192071D02*
X129311915Y-67161833D01*
X129311915Y-67161833D02*
X129402629Y-67161833D01*
X129402629Y-67161833D02*
X129463105Y-67192071D01*
X129463105Y-67192071D02*
X129493344Y-67222309D01*
X129493344Y-67222309D02*
X129523582Y-67282785D01*
X129523582Y-67282785D02*
X129523582Y-67524690D01*
X129190963Y-66587309D02*
X129190963Y-66889690D01*
X129190963Y-66889690D02*
X129493344Y-66919928D01*
X129493344Y-66919928D02*
X129463105Y-66889690D01*
X129463105Y-66889690D02*
X129432867Y-66829214D01*
X129432867Y-66829214D02*
X129432867Y-66678023D01*
X129432867Y-66678023D02*
X129463105Y-66617547D01*
X129463105Y-66617547D02*
X129493344Y-66587309D01*
X129493344Y-66587309D02*
X129553820Y-66557071D01*
X129553820Y-66557071D02*
X129705010Y-66557071D01*
X129705010Y-66557071D02*
X129765486Y-66587309D01*
X129765486Y-66587309D02*
X129795725Y-66617547D01*
X129795725Y-66617547D02*
X129825963Y-66678023D01*
X129825963Y-66678023D02*
X129825963Y-66829214D01*
X129825963Y-66829214D02*
X129795725Y-66889690D01*
X129795725Y-66889690D02*
X129765486Y-66919928D01*
X133374190Y-64166963D02*
X133374190Y-64681010D01*
X133374190Y-64681010D02*
X133404428Y-64741486D01*
X133404428Y-64741486D02*
X133434666Y-64771725D01*
X133434666Y-64771725D02*
X133495142Y-64801963D01*
X133495142Y-64801963D02*
X133616095Y-64801963D01*
X133616095Y-64801963D02*
X133676571Y-64771725D01*
X133676571Y-64771725D02*
X133706809Y-64741486D01*
X133706809Y-64741486D02*
X133737047Y-64681010D01*
X133737047Y-64681010D02*
X133737047Y-64166963D01*
X134009190Y-64227439D02*
X134039428Y-64197201D01*
X134039428Y-64197201D02*
X134099904Y-64166963D01*
X134099904Y-64166963D02*
X134251095Y-64166963D01*
X134251095Y-64166963D02*
X134311571Y-64197201D01*
X134311571Y-64197201D02*
X134341809Y-64227439D01*
X134341809Y-64227439D02*
X134372047Y-64287915D01*
X134372047Y-64287915D02*
X134372047Y-64348391D01*
X134372047Y-64348391D02*
X134341809Y-64439105D01*
X134341809Y-64439105D02*
X133978952Y-64801963D01*
X133978952Y-64801963D02*
X134372047Y-64801963D01*
X134260166Y-63531963D02*
X134048499Y-63229582D01*
X133897309Y-63531963D02*
X133897309Y-62896963D01*
X133897309Y-62896963D02*
X134139214Y-62896963D01*
X134139214Y-62896963D02*
X134199690Y-62927201D01*
X134199690Y-62927201D02*
X134229928Y-62957439D01*
X134229928Y-62957439D02*
X134260166Y-63017915D01*
X134260166Y-63017915D02*
X134260166Y-63108629D01*
X134260166Y-63108629D02*
X134229928Y-63169105D01*
X134229928Y-63169105D02*
X134199690Y-63199344D01*
X134199690Y-63199344D02*
X134139214Y-63229582D01*
X134139214Y-63229582D02*
X133897309Y-63229582D01*
X134804452Y-62896963D02*
X134683499Y-62896963D01*
X134683499Y-62896963D02*
X134623023Y-62927201D01*
X134623023Y-62927201D02*
X134592785Y-62957439D01*
X134592785Y-62957439D02*
X134532309Y-63048153D01*
X134532309Y-63048153D02*
X134502071Y-63169105D01*
X134502071Y-63169105D02*
X134502071Y-63411010D01*
X134502071Y-63411010D02*
X134532309Y-63471486D01*
X134532309Y-63471486D02*
X134562547Y-63501725D01*
X134562547Y-63501725D02*
X134623023Y-63531963D01*
X134623023Y-63531963D02*
X134743976Y-63531963D01*
X134743976Y-63531963D02*
X134804452Y-63501725D01*
X134804452Y-63501725D02*
X134834690Y-63471486D01*
X134834690Y-63471486D02*
X134864928Y-63411010D01*
X134864928Y-63411010D02*
X134864928Y-63259820D01*
X134864928Y-63259820D02*
X134834690Y-63199344D01*
X134834690Y-63199344D02*
X134804452Y-63169105D01*
X134804452Y-63169105D02*
X134743976Y-63138867D01*
X134743976Y-63138867D02*
X134623023Y-63138867D01*
X134623023Y-63138867D02*
X134562547Y-63169105D01*
X134562547Y-63169105D02*
X134532309Y-63199344D01*
X134532309Y-63199344D02*
X134502071Y-63259820D01*
X122350590Y-62795363D02*
X122350590Y-63309410D01*
X122350590Y-63309410D02*
X122380828Y-63369886D01*
X122380828Y-63369886D02*
X122411066Y-63400125D01*
X122411066Y-63400125D02*
X122471542Y-63430363D01*
X122471542Y-63430363D02*
X122592495Y-63430363D01*
X122592495Y-63430363D02*
X122652971Y-63400125D01*
X122652971Y-63400125D02*
X122683209Y-63369886D01*
X122683209Y-63369886D02*
X122713447Y-63309410D01*
X122713447Y-63309410D02*
X122713447Y-62795363D01*
X123348447Y-63430363D02*
X122985590Y-63430363D01*
X123167018Y-63430363D02*
X123167018Y-62795363D01*
X123167018Y-62795363D02*
X123106542Y-62886077D01*
X123106542Y-62886077D02*
X123046066Y-62946553D01*
X123046066Y-62946553D02*
X122985590Y-62976791D01*
X135353486Y-64875833D02*
X135383725Y-64906071D01*
X135383725Y-64906071D02*
X135413963Y-64996785D01*
X135413963Y-64996785D02*
X135413963Y-65057261D01*
X135413963Y-65057261D02*
X135383725Y-65147976D01*
X135383725Y-65147976D02*
X135323248Y-65208452D01*
X135323248Y-65208452D02*
X135262772Y-65238690D01*
X135262772Y-65238690D02*
X135141820Y-65268928D01*
X135141820Y-65268928D02*
X135051105Y-65268928D01*
X135051105Y-65268928D02*
X134930153Y-65238690D01*
X134930153Y-65238690D02*
X134869677Y-65208452D01*
X134869677Y-65208452D02*
X134809201Y-65147976D01*
X134809201Y-65147976D02*
X134778963Y-65057261D01*
X134778963Y-65057261D02*
X134778963Y-64996785D01*
X134778963Y-64996785D02*
X134809201Y-64906071D01*
X134809201Y-64906071D02*
X134839439Y-64875833D01*
X134839439Y-64633928D02*
X134809201Y-64603690D01*
X134809201Y-64603690D02*
X134778963Y-64543214D01*
X134778963Y-64543214D02*
X134778963Y-64392023D01*
X134778963Y-64392023D02*
X134809201Y-64331547D01*
X134809201Y-64331547D02*
X134839439Y-64301309D01*
X134839439Y-64301309D02*
X134899915Y-64271071D01*
X134899915Y-64271071D02*
X134960391Y-64271071D01*
X134960391Y-64271071D02*
X135051105Y-64301309D01*
X135051105Y-64301309D02*
X135413963Y-64664166D01*
X135413963Y-64664166D02*
X135413963Y-64271071D01*
X120943309Y-61753963D02*
X120943309Y-61118963D01*
X120943309Y-61118963D02*
X121094499Y-61118963D01*
X121094499Y-61118963D02*
X121185214Y-61149201D01*
X121185214Y-61149201D02*
X121245690Y-61209677D01*
X121245690Y-61209677D02*
X121275928Y-61270153D01*
X121275928Y-61270153D02*
X121306166Y-61391105D01*
X121306166Y-61391105D02*
X121306166Y-61481820D01*
X121306166Y-61481820D02*
X121275928Y-61602772D01*
X121275928Y-61602772D02*
X121245690Y-61663248D01*
X121245690Y-61663248D02*
X121185214Y-61723725D01*
X121185214Y-61723725D02*
X121094499Y-61753963D01*
X121094499Y-61753963D02*
X120943309Y-61753963D01*
X121548071Y-61179439D02*
X121578309Y-61149201D01*
X121578309Y-61149201D02*
X121638785Y-61118963D01*
X121638785Y-61118963D02*
X121789976Y-61118963D01*
X121789976Y-61118963D02*
X121850452Y-61149201D01*
X121850452Y-61149201D02*
X121880690Y-61179439D01*
X121880690Y-61179439D02*
X121910928Y-61239915D01*
X121910928Y-61239915D02*
X121910928Y-61300391D01*
X121910928Y-61300391D02*
X121880690Y-61391105D01*
X121880690Y-61391105D02*
X121517833Y-61753963D01*
X121517833Y-61753963D02*
X121910928Y-61753963D01*
X129825963Y-62843833D02*
X129523582Y-63055500D01*
X129825963Y-63206690D02*
X129190963Y-63206690D01*
X129190963Y-63206690D02*
X129190963Y-62964785D01*
X129190963Y-62964785D02*
X129221201Y-62904309D01*
X129221201Y-62904309D02*
X129251439Y-62874071D01*
X129251439Y-62874071D02*
X129311915Y-62843833D01*
X129311915Y-62843833D02*
X129402629Y-62843833D01*
X129402629Y-62843833D02*
X129463105Y-62874071D01*
X129463105Y-62874071D02*
X129493344Y-62904309D01*
X129493344Y-62904309D02*
X129523582Y-62964785D01*
X129523582Y-62964785D02*
X129523582Y-63206690D01*
X129190963Y-62632166D02*
X129190963Y-62239071D01*
X129190963Y-62239071D02*
X129432867Y-62450738D01*
X129432867Y-62450738D02*
X129432867Y-62360023D01*
X129432867Y-62360023D02*
X129463105Y-62299547D01*
X129463105Y-62299547D02*
X129493344Y-62269309D01*
X129493344Y-62269309D02*
X129553820Y-62239071D01*
X129553820Y-62239071D02*
X129705010Y-62239071D01*
X129705010Y-62239071D02*
X129765486Y-62269309D01*
X129765486Y-62269309D02*
X129795725Y-62299547D01*
X129795725Y-62299547D02*
X129825963Y-62360023D01*
X129825963Y-62360023D02*
X129825963Y-62541452D01*
X129825963Y-62541452D02*
X129795725Y-62601928D01*
X129795725Y-62601928D02*
X129765486Y-62632166D01*
D11*
%TO.C,R4*%
X128316258Y-63739500D02*
X127841742Y-63739500D01*
X128316258Y-64784500D02*
X127841742Y-64784500D01*
%TO.C,D1*%
X122721000Y-67083000D02*
X122721000Y-68553000D01*
X122721000Y-68553000D02*
X125006000Y-68553000D01*
X125006000Y-67083000D02*
X122721000Y-67083000D01*
%TO.C,R2*%
X127491258Y-67283501D02*
X127016742Y-67283501D01*
X127491258Y-68328501D02*
X127016742Y-68328501D01*
%TO.C,C3*%
X131444420Y-60704000D02*
X131725580Y-60704000D01*
X131444420Y-61724000D02*
X131725580Y-61724000D01*
%TO.C,C1*%
X120902000Y-64895419D02*
X120902000Y-65176579D01*
X121922000Y-64895419D02*
X121922000Y-65176579D01*
%TO.C,R1*%
X127770658Y-60310500D02*
X127296142Y-60310500D01*
X127770658Y-61355500D02*
X127296142Y-61355500D01*
%TO.C,R5*%
X128316258Y-65263500D02*
X127841742Y-65263500D01*
X128316258Y-66308500D02*
X127841742Y-66308500D01*
D12*
%TO.C,U2*%
X130200400Y-65976500D02*
X130200400Y-67627500D01*
X130200400Y-67627500D02*
X131226560Y-67627500D01*
X132176561Y-65976500D02*
X131475439Y-65976500D01*
X132425440Y-67627500D02*
X133451600Y-67627500D01*
X133451600Y-67627500D02*
X133451600Y-65976500D01*
X133853000Y-65462000D02*
G75*
G02*
X133599000Y-65462000I-127000J0D01*
G01*
X133599000Y-65462000D02*
G75*
G02*
X133853000Y-65462000I127000J0D01*
G01*
D11*
%TO.C,R6*%
X132317258Y-62723500D02*
X131842742Y-62723500D01*
X132317258Y-63768500D02*
X131842742Y-63768500D01*
D12*
%TO.C,U1*%
X123431300Y-66255900D02*
X124980700Y-66255900D01*
X124980700Y-63792100D02*
X123431300Y-63792100D01*
X122448700Y-64274000D02*
G75*
G02*
X122245500Y-64274000I-101600J0D01*
G01*
X122245500Y-64274000D02*
G75*
G02*
X122448700Y-64274000I101600J0D01*
G01*
D11*
%TO.C,C2*%
X134110000Y-66915420D02*
X134110000Y-67196580D01*
X135130000Y-66915420D02*
X135130000Y-67196580D01*
%TO.C,D2*%
X122467000Y-60733000D02*
X122467000Y-62203000D01*
X122467000Y-62203000D02*
X124752000Y-62203000D01*
X124752000Y-60733000D02*
X122467000Y-60733000D01*
%TO.C,R3*%
X127745258Y-62215500D02*
X127270742Y-62215500D01*
X127745258Y-63260500D02*
X127270742Y-63260500D01*
%TD*%
M02*
