%TF.GenerationSoftware,KiCad,Pcbnew,8.0.2*%
%TF.CreationDate,2024-08-08T09:06:46-05:00*%
%TF.ProjectId,sensors,73656e73-6f72-4732-9e6b-696361645f70,rev?*%
%TF.SameCoordinates,Original*%
%TF.FileFunction,Copper,L1,Top*%
%TF.FilePolarity,Positive*%
%FSLAX46Y46*%
G04 Gerber Fmt 4.6, Leading zero omitted, Abs format (unit mm)*
G04 Created by KiCad (PCBNEW 8.0.2) date 2024-08-08 09:06:46*
%MOMM*%
%LPD*%
G01*
G04 APERTURE LIST*
G04 Aperture macros list*
%AMRoundRect*
0 Rectangle with rounded corners*
0 $1 Rounding radius*
0 $2 $3 $4 $5 $6 $7 $8 $9 X,Y pos of 4 corners*
0 Add a 4 corners polygon primitive as box body*
4,1,4,$2,$3,$4,$5,$6,$7,$8,$9,$2,$3,0*
0 Add four circle primitives for the rounded corners*
1,1,$1+$1,$2,$3*
1,1,$1+$1,$4,$5*
1,1,$1+$1,$6,$7*
1,1,$1+$1,$8,$9*
0 Add four rect primitives between the rounded corners*
20,1,$1+$1,$2,$3,$4,$5,0*
20,1,$1+$1,$4,$5,$6,$7,0*
20,1,$1+$1,$6,$7,$8,$9,0*
20,1,$1+$1,$8,$9,$2,$3,0*%
G04 Aperture macros list end*
%TA.AperFunction,SMDPad,CuDef*%
%ADD10RoundRect,0.200000X0.200000X0.275000X-0.200000X0.275000X-0.200000X-0.275000X0.200000X-0.275000X0*%
%TD*%
%TA.AperFunction,SMDPad,CuDef*%
%ADD11RoundRect,0.218750X-0.218750X-0.256250X0.218750X-0.256250X0.218750X0.256250X-0.218750X0.256250X0*%
%TD*%
%TA.AperFunction,SMDPad,CuDef*%
%ADD12RoundRect,0.225000X-0.225000X-0.250000X0.225000X-0.250000X0.225000X0.250000X-0.225000X0.250000X0*%
%TD*%
%TA.AperFunction,SMDPad,CuDef*%
%ADD13RoundRect,0.225000X-0.250000X0.225000X-0.250000X-0.225000X0.250000X-0.225000X0.250000X0.225000X0*%
%TD*%
%TA.AperFunction,SMDPad,CuDef*%
%ADD14R,0.533400X1.320800*%
%TD*%
%TA.AperFunction,SMDPad,CuDef*%
%ADD15R,0.762000X0.228600*%
%TD*%
%TA.AperFunction,ViaPad*%
%ADD16C,0.508000*%
%TD*%
%TA.AperFunction,Conductor*%
%ADD17C,0.304800*%
%TD*%
%TA.AperFunction,Conductor*%
%ADD18C,0.203200*%
%TD*%
G04 APERTURE END LIST*
D10*
%TO.P,R4,1*%
%TO.N,+3V3*%
X128904000Y-64262000D03*
%TO.P,R4,2*%
%TO.N,/OPT_INT*%
X127254000Y-64262000D03*
%TD*%
D11*
%TO.P,D1,1,K*%
%TO.N,GND*%
X123418500Y-67818000D03*
%TO.P,D1,2,A*%
%TO.N,Net-(D1-A)*%
X124993500Y-67818000D03*
%TD*%
D10*
%TO.P,R2,1*%
%TO.N,+3V3*%
X128079000Y-67806001D03*
%TO.P,R2,2*%
%TO.N,Net-(D1-A)*%
X126429000Y-67806001D03*
%TD*%
D12*
%TO.P,C3,1*%
%TO.N,+3V3*%
X130810000Y-61214000D03*
%TO.P,C3,2*%
%TO.N,GND*%
X132360000Y-61214000D03*
%TD*%
D13*
%TO.P,C1,1*%
%TO.N,+3V3*%
X121412000Y-64260999D03*
%TO.P,C1,2*%
%TO.N,GND*%
X121412000Y-65810999D03*
%TD*%
D10*
%TO.P,R1,1*%
%TO.N,+3V3*%
X128358400Y-60833000D03*
%TO.P,R1,2*%
%TO.N,Net-(D2-A)*%
X126708400Y-60833000D03*
%TD*%
%TO.P,R5,1*%
%TO.N,+3V3*%
X128904000Y-65786000D03*
%TO.P,R5,2*%
%TO.N,/SCL*%
X127254000Y-65786000D03*
%TD*%
D14*
%TO.P,U2,1,VSUP*%
%TO.N,+3V3*%
X132776001Y-65862200D03*
%TO.P,U2,2,OUT*%
%TO.N,/HAL_OUT*%
X130875999Y-65862200D03*
%TO.P,U2,3,GND*%
%TO.N,GND*%
X131826000Y-67741800D03*
%TD*%
D10*
%TO.P,R6,1*%
%TO.N,+3V3*%
X132905000Y-63246000D03*
%TO.P,R6,2*%
%TO.N,/HAL_OUT*%
X131255000Y-63246000D03*
%TD*%
D15*
%TO.P,U1,1,VDD*%
%TO.N,+3V3*%
X123278900Y-64273999D03*
%TO.P,U1,2,ADDR*%
%TO.N,GND*%
X123278900Y-64774000D03*
%TO.P,U1,3,NC*%
%TO.N,unconnected-(U1-NC-Pad3)*%
X123278900Y-65274000D03*
%TO.P,U1,4,GND*%
%TO.N,GND*%
X123278900Y-65774001D03*
%TO.P,U1,5,SCL*%
%TO.N,/SCL*%
X125133100Y-65774001D03*
%TO.P,U1,6,NC*%
%TO.N,unconnected-(U1-NC-Pad6)*%
X125133100Y-65274000D03*
%TO.P,U1,7,INT*%
%TO.N,/OPT_INT*%
X125133100Y-64774000D03*
%TO.P,U1,8,SDA*%
%TO.N,/SDA*%
X125133100Y-64273999D03*
%TD*%
D13*
%TO.P,C2,1*%
%TO.N,+3V3*%
X134620000Y-66281000D03*
%TO.P,C2,2*%
%TO.N,GND*%
X134620000Y-67831000D03*
%TD*%
D11*
%TO.P,D2,1,K*%
%TO.N,GND*%
X123164500Y-61468000D03*
%TO.P,D2,2,A*%
%TO.N,Net-(D2-A)*%
X124739500Y-61468000D03*
%TD*%
D10*
%TO.P,R3,1*%
%TO.N,+3V3*%
X128333000Y-62738000D03*
%TO.P,R3,2*%
%TO.N,/SDA*%
X126683000Y-62738000D03*
%TD*%
D16*
%TO.N,+3V3*%
X131648200Y-62052200D03*
%TO.N,GND*%
X129921000Y-65532000D03*
X133350000Y-68199000D03*
X125984000Y-66675000D03*
X124079000Y-66675000D03*
X121031000Y-60579000D03*
X134874000Y-60579000D03*
X120904000Y-68326000D03*
%TO.N,/SCL*%
X126263400Y-65786000D03*
%TO.N,/OPT_INT*%
X128016000Y-64262000D03*
%TO.N,/SDA*%
X123723400Y-63065000D03*
%TO.N,/HAL_OUT*%
X131622800Y-64287400D03*
%TD*%
D17*
%TO.N,+3V3*%
X129870200Y-61214000D02*
X129489200Y-60833000D01*
X128358400Y-60833000D02*
X128358400Y-61722000D01*
X133375400Y-65862200D02*
X132776001Y-65862200D01*
X128358400Y-62712600D02*
X128333000Y-62738000D01*
X130987800Y-62052200D02*
X130810000Y-61874400D01*
X133477000Y-64541400D02*
X134137400Y-64541400D01*
X132905000Y-63246000D02*
X132905000Y-63969400D01*
X132537200Y-62052200D02*
X132905000Y-62420000D01*
X128079000Y-67806001D02*
X128662999Y-67806001D01*
X128904000Y-63399400D02*
X129082800Y-63220600D01*
D18*
X121425000Y-64273999D02*
X121412000Y-64260999D01*
D17*
X134620000Y-66281000D02*
X133794200Y-66281000D01*
X128879600Y-62738000D02*
X128333000Y-62738000D01*
X134620000Y-65024000D02*
X134620000Y-66281000D01*
X122275600Y-62458600D02*
X121412000Y-63322200D01*
X128904000Y-65786000D02*
X128904000Y-64262000D01*
X129489200Y-60833000D02*
X128358400Y-60833000D01*
X132905000Y-63969400D02*
X133477000Y-64541400D01*
X134137400Y-64541400D02*
X134620000Y-65024000D01*
X128358400Y-61722000D02*
X126060200Y-61722000D01*
X132905000Y-62420000D02*
X132905000Y-63246000D01*
X128904000Y-64262000D02*
X128904000Y-63399400D01*
X129082800Y-63220600D02*
X129082800Y-62941200D01*
X128358400Y-61722000D02*
X128358400Y-62712600D01*
X128904000Y-67565000D02*
X128904000Y-65786000D01*
X131648200Y-62052200D02*
X132537200Y-62052200D01*
X121412000Y-63322200D02*
X121412000Y-64260999D01*
X130810000Y-61874400D02*
X130810000Y-61214000D01*
X128662999Y-67806001D02*
X128904000Y-67565000D01*
X129082800Y-62941200D02*
X128879600Y-62738000D01*
X125323600Y-62458600D02*
X122275600Y-62458600D01*
X131648200Y-62052200D02*
X130987800Y-62052200D01*
X126060200Y-61722000D02*
X125323600Y-62458600D01*
X130810000Y-61214000D02*
X129870200Y-61214000D01*
D18*
X123278900Y-64273999D02*
X121425000Y-64273999D01*
D17*
X133794200Y-66281000D02*
X133375400Y-65862200D01*
D18*
%TO.N,Net-(D1-A)*%
X126417001Y-67818000D02*
X126429000Y-67806001D01*
X124993500Y-67818000D02*
X126417001Y-67818000D01*
%TO.N,Net-(D2-A)*%
X125425200Y-61468000D02*
X126060200Y-60833000D01*
X126060200Y-60833000D02*
X126708400Y-60833000D01*
X124739500Y-61468000D02*
X125425200Y-61468000D01*
%TO.N,/SCL*%
X126263400Y-65786000D02*
X127254000Y-65786000D01*
X125133100Y-65774001D02*
X126251401Y-65774001D01*
X126251401Y-65774001D02*
X126263400Y-65786000D01*
%TO.N,/OPT_INT*%
X126415800Y-64262000D02*
X127254000Y-64262000D01*
X127254000Y-64262000D02*
X128016000Y-64262000D01*
X125903800Y-64774000D02*
X126415800Y-64262000D01*
X125133100Y-64774000D02*
X125903800Y-64774000D01*
%TO.N,/SDA*%
X125882400Y-64135000D02*
X125882400Y-63017400D01*
X125882400Y-63017400D02*
X126161800Y-62738000D01*
X125743401Y-64273999D02*
X125882400Y-64135000D01*
X123771000Y-63017400D02*
X125882400Y-63017400D01*
X125133100Y-64273999D02*
X125743401Y-64273999D01*
X126161800Y-62738000D02*
X126683000Y-62738000D01*
X123723400Y-63065000D02*
X123771000Y-63017400D01*
%TO.N,/HAL_OUT*%
X130875999Y-65034201D02*
X131622800Y-64287400D01*
X130875999Y-65862200D02*
X130875999Y-65034201D01*
X131622800Y-64262000D02*
X131255000Y-63894200D01*
X131255000Y-63894200D02*
X131255000Y-63246000D01*
X131622800Y-64287400D02*
X131622800Y-64262000D01*
%TD*%
%TA.AperFunction,Conductor*%
%TO.N,GND*%
G36*
X135609138Y-59834593D02*
G01*
X135634858Y-59879142D01*
X135636000Y-59892200D01*
X135636000Y-68758800D01*
X135618407Y-68807138D01*
X135573858Y-68832858D01*
X135560800Y-68834000D01*
X120471200Y-68834000D01*
X120422862Y-68816407D01*
X120397142Y-68771858D01*
X120396000Y-68758800D01*
X120396000Y-68109482D01*
X122828600Y-68109482D01*
X122839111Y-68181617D01*
X122839111Y-68181619D01*
X122893512Y-68292899D01*
X122981100Y-68380487D01*
X123092381Y-68434888D01*
X123164517Y-68445399D01*
X123164528Y-68445400D01*
X123342300Y-68445400D01*
X123494700Y-68445400D01*
X123672472Y-68445400D01*
X123672482Y-68445399D01*
X123744617Y-68434888D01*
X123744619Y-68434888D01*
X123855899Y-68380487D01*
X123943487Y-68292899D01*
X123997888Y-68181619D01*
X123997888Y-68181617D01*
X124008399Y-68109482D01*
X124008400Y-68109472D01*
X124008400Y-67894200D01*
X123494700Y-67894200D01*
X123494700Y-68445400D01*
X123342300Y-68445400D01*
X123342300Y-67894200D01*
X122828600Y-67894200D01*
X122828600Y-68109482D01*
X120396000Y-68109482D01*
X120396000Y-67526517D01*
X122828600Y-67526517D01*
X122828600Y-67741800D01*
X123342300Y-67741800D01*
X123494700Y-67741800D01*
X124008400Y-67741800D01*
X124008400Y-67528499D01*
X124352300Y-67528499D01*
X124352300Y-68107500D01*
X124367968Y-68206423D01*
X124404608Y-68278332D01*
X124428720Y-68325655D01*
X124523345Y-68420280D01*
X124642576Y-68481031D01*
X124642578Y-68481032D01*
X124741502Y-68496700D01*
X124741506Y-68496700D01*
X125245494Y-68496700D01*
X125245498Y-68496700D01*
X125344422Y-68481032D01*
X125463655Y-68420280D01*
X125558280Y-68325655D01*
X125619032Y-68206422D01*
X125622150Y-68186734D01*
X125647089Y-68141745D01*
X125695112Y-68123311D01*
X125696424Y-68123300D01*
X125762741Y-68123300D01*
X125811079Y-68140893D01*
X125836799Y-68185442D01*
X125837015Y-68186735D01*
X125840273Y-68207307D01*
X125898329Y-68321248D01*
X125988753Y-68411672D01*
X126102693Y-68469727D01*
X126102695Y-68469728D01*
X126197230Y-68484701D01*
X126197234Y-68484701D01*
X126660766Y-68484701D01*
X126660770Y-68484701D01*
X126755305Y-68469728D01*
X126869247Y-68411672D01*
X126959671Y-68321248D01*
X127017727Y-68207306D01*
X127032700Y-68112771D01*
X127032700Y-67499231D01*
X127017727Y-67404696D01*
X126959671Y-67290754D01*
X126869247Y-67200330D01*
X126755305Y-67142274D01*
X126755307Y-67142274D01*
X126660772Y-67127301D01*
X126660770Y-67127301D01*
X126197230Y-67127301D01*
X126197227Y-67127301D01*
X126102693Y-67142274D01*
X125988752Y-67200330D01*
X125898329Y-67290753D01*
X125840273Y-67404694D01*
X125833214Y-67449264D01*
X125808275Y-67494255D01*
X125760252Y-67512689D01*
X125758940Y-67512700D01*
X125696424Y-67512700D01*
X125648086Y-67495107D01*
X125622366Y-67450558D01*
X125622150Y-67449265D01*
X125622150Y-67449264D01*
X125619032Y-67429578D01*
X125558280Y-67310345D01*
X125463655Y-67215720D01*
X125344422Y-67154968D01*
X125344424Y-67154968D01*
X125245500Y-67139300D01*
X125245498Y-67139300D01*
X124741502Y-67139300D01*
X124741499Y-67139300D01*
X124642576Y-67154968D01*
X124523344Y-67215720D01*
X124428720Y-67310344D01*
X124367968Y-67429576D01*
X124352300Y-67528499D01*
X124008400Y-67528499D01*
X124008400Y-67526527D01*
X124008399Y-67526517D01*
X123997888Y-67454382D01*
X123997888Y-67454380D01*
X123943487Y-67343100D01*
X123855899Y-67255512D01*
X123744618Y-67201111D01*
X123672482Y-67190600D01*
X123494700Y-67190600D01*
X123494700Y-67741800D01*
X123342300Y-67741800D01*
X123342300Y-67190600D01*
X123164517Y-67190600D01*
X123092382Y-67201111D01*
X123092380Y-67201111D01*
X122981100Y-67255512D01*
X122893512Y-67343100D01*
X122839111Y-67454380D01*
X122839111Y-67454382D01*
X122828600Y-67526517D01*
X120396000Y-67526517D01*
X120396000Y-66071814D01*
X120784601Y-66071814D01*
X120795287Y-66145172D01*
X120795288Y-66145174D01*
X120850608Y-66258331D01*
X120939667Y-66347390D01*
X121052825Y-66402711D01*
X121126180Y-66413398D01*
X121335800Y-66413398D01*
X121488200Y-66413398D01*
X121697811Y-66413398D01*
X121697815Y-66413397D01*
X121771173Y-66402711D01*
X121771175Y-66402710D01*
X121884332Y-66347390D01*
X121973391Y-66258331D01*
X122028712Y-66145173D01*
X122039399Y-66071824D01*
X122039400Y-66071812D01*
X122039400Y-65903313D01*
X122745500Y-65903313D01*
X122754341Y-65947763D01*
X122754342Y-65947765D01*
X122788026Y-65998174D01*
X122838435Y-66031858D01*
X122838437Y-66031859D01*
X122882887Y-66040701D01*
X123202700Y-66040701D01*
X123355100Y-66040701D01*
X123674913Y-66040701D01*
X123719362Y-66031859D01*
X123719364Y-66031858D01*
X123769773Y-65998174D01*
X123803457Y-65947765D01*
X123803458Y-65947763D01*
X123812300Y-65903313D01*
X123812300Y-65850201D01*
X123355100Y-65850201D01*
X123355100Y-66040701D01*
X123202700Y-66040701D01*
X123202700Y-65850201D01*
X122745500Y-65850201D01*
X122745500Y-65903313D01*
X122039400Y-65903313D01*
X122039400Y-65887199D01*
X121488200Y-65887199D01*
X121488200Y-66413398D01*
X121335800Y-66413398D01*
X121335800Y-65887199D01*
X120784601Y-65887199D01*
X120784601Y-66071814D01*
X120396000Y-66071814D01*
X120396000Y-65550173D01*
X120784600Y-65550173D01*
X120784600Y-65734799D01*
X121335800Y-65734799D01*
X121488200Y-65734799D01*
X122039399Y-65734799D01*
X122039399Y-65550188D01*
X122039398Y-65550183D01*
X122028712Y-65476825D01*
X122028711Y-65476823D01*
X121973391Y-65363666D01*
X121884332Y-65274607D01*
X121771174Y-65219286D01*
X121697825Y-65208599D01*
X121488200Y-65208599D01*
X121488200Y-65734799D01*
X121335800Y-65734799D01*
X121335800Y-65208599D01*
X121126189Y-65208599D01*
X121126184Y-65208600D01*
X121052826Y-65219286D01*
X121052824Y-65219287D01*
X120939667Y-65274607D01*
X120850608Y-65363666D01*
X120795287Y-65476824D01*
X120784600Y-65550173D01*
X120396000Y-65550173D01*
X120396000Y-65139635D01*
X122694200Y-65139635D01*
X122694200Y-65408364D01*
X122706019Y-65467779D01*
X122706020Y-65467783D01*
X122747387Y-65529694D01*
X122759613Y-65579660D01*
X122754346Y-65600214D01*
X122745500Y-65644688D01*
X122745500Y-65697801D01*
X123812300Y-65697801D01*
X123812300Y-65644688D01*
X123802013Y-65592973D01*
X123803135Y-65592749D01*
X123801220Y-65548858D01*
X123810412Y-65529694D01*
X123851781Y-65467780D01*
X123863600Y-65408364D01*
X123863600Y-65139636D01*
X123851781Y-65080220D01*
X123810411Y-65018304D01*
X123798186Y-64968341D01*
X123803451Y-64947793D01*
X123812300Y-64903312D01*
X123812300Y-64850200D01*
X122745500Y-64850200D01*
X122745500Y-64903312D01*
X122755787Y-64955028D01*
X122754664Y-64955251D01*
X122756579Y-64999142D01*
X122747387Y-65018305D01*
X122706020Y-65080216D01*
X122706019Y-65080220D01*
X122694200Y-65139635D01*
X120396000Y-65139635D01*
X120396000Y-63984354D01*
X120733300Y-63984354D01*
X120733300Y-64537643D01*
X120736015Y-64566592D01*
X120736016Y-64566599D01*
X120743969Y-64589326D01*
X120778697Y-64688576D01*
X120778698Y-64688577D01*
X120778699Y-64688580D01*
X120855440Y-64792559D01*
X120959419Y-64869300D01*
X120959422Y-64869301D01*
X120959421Y-64869301D01*
X120988701Y-64879546D01*
X121081400Y-64911983D01*
X121110355Y-64914698D01*
X121110358Y-64914699D01*
X121110364Y-64914699D01*
X121713642Y-64914699D01*
X121713643Y-64914698D01*
X121742600Y-64911983D01*
X121864581Y-64869300D01*
X121968560Y-64792559D01*
X122045301Y-64688580D01*
X122046585Y-64684912D01*
X122065917Y-64629663D01*
X122098488Y-64589848D01*
X122136897Y-64579299D01*
X122670300Y-64579299D01*
X122718638Y-64596892D01*
X122744358Y-64641441D01*
X122745500Y-64654499D01*
X122745500Y-64697800D01*
X123812300Y-64697800D01*
X123812300Y-64644687D01*
X123802013Y-64592972D01*
X123803135Y-64592748D01*
X123801220Y-64548857D01*
X123810409Y-64529696D01*
X123851781Y-64467779D01*
X123863600Y-64408363D01*
X123863600Y-64139635D01*
X123851781Y-64080219D01*
X123851779Y-64080216D01*
X123851779Y-64080215D01*
X123806760Y-64012838D01*
X123739383Y-63967819D01*
X123739380Y-63967818D01*
X123679964Y-63955999D01*
X122877836Y-63955999D01*
X122877834Y-63955999D01*
X122821254Y-63967254D01*
X122806583Y-63968699D01*
X122145995Y-63968699D01*
X122097657Y-63951106D01*
X122075015Y-63918336D01*
X122045302Y-63833421D01*
X122045301Y-63833418D01*
X121968560Y-63729439D01*
X121864581Y-63652698D01*
X121864578Y-63652697D01*
X121864577Y-63652696D01*
X121818462Y-63636559D01*
X121778648Y-63603987D01*
X121768100Y-63565579D01*
X121768100Y-63500850D01*
X121785693Y-63452512D01*
X121790126Y-63447676D01*
X122401076Y-62836726D01*
X122447696Y-62814986D01*
X122454250Y-62814700D01*
X123217524Y-62814700D01*
X123265862Y-62832293D01*
X123291582Y-62876842D01*
X123285928Y-62921140D01*
X123279724Y-62934722D01*
X123264983Y-63037249D01*
X123260993Y-63065000D01*
X123279724Y-63195275D01*
X123279724Y-63195276D01*
X123279725Y-63195278D01*
X123279725Y-63195280D01*
X123334395Y-63314990D01*
X123334398Y-63314996D01*
X123420587Y-63414463D01*
X123420591Y-63414467D01*
X123531308Y-63485620D01*
X123583178Y-63500850D01*
X123657593Y-63522700D01*
X123657596Y-63522700D01*
X123789204Y-63522700D01*
X123789207Y-63522700D01*
X123915491Y-63485620D01*
X124026212Y-63414464D01*
X124083237Y-63348654D01*
X124128188Y-63323645D01*
X124140069Y-63322700D01*
X125501900Y-63322700D01*
X125550238Y-63340293D01*
X125575958Y-63384842D01*
X125577100Y-63397900D01*
X125577100Y-63880799D01*
X125559507Y-63929137D01*
X125514958Y-63954857D01*
X125501900Y-63955999D01*
X124732036Y-63955999D01*
X124672620Y-63967818D01*
X124672616Y-63967819D01*
X124605239Y-64012838D01*
X124560220Y-64080215D01*
X124560219Y-64080219D01*
X124548400Y-64139634D01*
X124548400Y-64408363D01*
X124560219Y-64467778D01*
X124560220Y-64467782D01*
X124569868Y-64482221D01*
X124582094Y-64532187D01*
X124569869Y-64565775D01*
X124560221Y-64580214D01*
X124560219Y-64580220D01*
X124548400Y-64639636D01*
X124548400Y-64908364D01*
X124558000Y-64956627D01*
X124560219Y-64967779D01*
X124560220Y-64967783D01*
X124569868Y-64982222D01*
X124582094Y-65032188D01*
X124569868Y-65065778D01*
X124560220Y-65080216D01*
X124560219Y-65080220D01*
X124548400Y-65139635D01*
X124548400Y-65408364D01*
X124560219Y-65467779D01*
X124560220Y-65467783D01*
X124569868Y-65482222D01*
X124582094Y-65532188D01*
X124569869Y-65565776D01*
X124560221Y-65580215D01*
X124560219Y-65580221D01*
X124549538Y-65633918D01*
X124548400Y-65639637D01*
X124548400Y-65908365D01*
X124556237Y-65947765D01*
X124560219Y-65967780D01*
X124560220Y-65967784D01*
X124605239Y-66035161D01*
X124672616Y-66080180D01*
X124672617Y-66080180D01*
X124672620Y-66080182D01*
X124732036Y-66092001D01*
X125534166Y-66092001D01*
X125590746Y-66080746D01*
X125605417Y-66079301D01*
X125877580Y-66079301D01*
X125925918Y-66096894D01*
X125934408Y-66105251D01*
X125958579Y-66133145D01*
X125960591Y-66135467D01*
X126071308Y-66206620D01*
X126161142Y-66232997D01*
X126197593Y-66243700D01*
X126197596Y-66243700D01*
X126329204Y-66243700D01*
X126329207Y-66243700D01*
X126455491Y-66206620D01*
X126552187Y-66144478D01*
X126602363Y-66133145D01*
X126648084Y-66156716D01*
X126664364Y-66184507D01*
X126665273Y-66187305D01*
X126723329Y-66301247D01*
X126813753Y-66391671D01*
X126927693Y-66449726D01*
X126927695Y-66449727D01*
X127022230Y-66464700D01*
X127022234Y-66464700D01*
X127485766Y-66464700D01*
X127485770Y-66464700D01*
X127580305Y-66449727D01*
X127694247Y-66391671D01*
X127784671Y-66301247D01*
X127842727Y-66187305D01*
X127857700Y-66092770D01*
X127857700Y-65479230D01*
X127842727Y-65384695D01*
X127784671Y-65270753D01*
X127694247Y-65180329D01*
X127580305Y-65122273D01*
X127580307Y-65122273D01*
X127485772Y-65107300D01*
X127485770Y-65107300D01*
X127022230Y-65107300D01*
X127022227Y-65107300D01*
X126927693Y-65122273D01*
X126813752Y-65180329D01*
X126723329Y-65270752D01*
X126665271Y-65384697D01*
X126664363Y-65387494D01*
X126662877Y-65389395D01*
X126662586Y-65389968D01*
X126662474Y-65389911D01*
X126632696Y-65428031D01*
X126582380Y-65438728D01*
X126552187Y-65427522D01*
X126499248Y-65393501D01*
X126455491Y-65365380D01*
X126449654Y-65363666D01*
X126329209Y-65328300D01*
X126329207Y-65328300D01*
X126197593Y-65328300D01*
X126197590Y-65328300D01*
X126071308Y-65365379D01*
X125960590Y-65436534D01*
X125960586Y-65436538D01*
X125955208Y-65442745D01*
X125910258Y-65467756D01*
X125898375Y-65468701D01*
X125793000Y-65468701D01*
X125744662Y-65451108D01*
X125718942Y-65406559D01*
X125717800Y-65393501D01*
X125717800Y-65154500D01*
X125735393Y-65106162D01*
X125779942Y-65080442D01*
X125793000Y-65079300D01*
X125943990Y-65079300D01*
X125943993Y-65079300D01*
X126021641Y-65058494D01*
X126027797Y-65054940D01*
X126091259Y-65018300D01*
X126520233Y-64589326D01*
X126566853Y-64567586D01*
X126573407Y-64567300D01*
X126585841Y-64567300D01*
X126634179Y-64584893D01*
X126659899Y-64629442D01*
X126660115Y-64630736D01*
X126665273Y-64663306D01*
X126702538Y-64736443D01*
X126723329Y-64777247D01*
X126813753Y-64867671D01*
X126927693Y-64925726D01*
X126927695Y-64925727D01*
X127022230Y-64940700D01*
X127022234Y-64940700D01*
X127485766Y-64940700D01*
X127485770Y-64940700D01*
X127580305Y-64925727D01*
X127694247Y-64867671D01*
X127784671Y-64777247D01*
X127803392Y-64740502D01*
X127841010Y-64705422D01*
X127891578Y-64702489D01*
X127950193Y-64719700D01*
X127950196Y-64719700D01*
X128081804Y-64719700D01*
X128081807Y-64719700D01*
X128200285Y-64684912D01*
X128208088Y-64682621D01*
X128208088Y-64682620D01*
X128208091Y-64682620D01*
X128226322Y-64670903D01*
X128276495Y-64659570D01*
X128322217Y-64683139D01*
X128333981Y-64700024D01*
X128373327Y-64777244D01*
X128373329Y-64777247D01*
X128463753Y-64867671D01*
X128506840Y-64889624D01*
X128541921Y-64927242D01*
X128547900Y-64956627D01*
X128547900Y-65091371D01*
X128530307Y-65139709D01*
X128506840Y-65158374D01*
X128463754Y-65180327D01*
X128373328Y-65270754D01*
X128315273Y-65384693D01*
X128300300Y-65479227D01*
X128300300Y-66092772D01*
X128315273Y-66187306D01*
X128351462Y-66258331D01*
X128373329Y-66301247D01*
X128463753Y-66391671D01*
X128506840Y-66413624D01*
X128541921Y-66451242D01*
X128547900Y-66480627D01*
X128547900Y-67092214D01*
X128530307Y-67140552D01*
X128485758Y-67166272D01*
X128438560Y-67159218D01*
X128405305Y-67142274D01*
X128405307Y-67142274D01*
X128310772Y-67127301D01*
X128310770Y-67127301D01*
X127847230Y-67127301D01*
X127847227Y-67127301D01*
X127752693Y-67142274D01*
X127638752Y-67200330D01*
X127548329Y-67290753D01*
X127490273Y-67404694D01*
X127475300Y-67499228D01*
X127475300Y-68112773D01*
X127490273Y-68207307D01*
X127548329Y-68321248D01*
X127638753Y-68411672D01*
X127752693Y-68469727D01*
X127752695Y-68469728D01*
X127847230Y-68484701D01*
X127847234Y-68484701D01*
X128310766Y-68484701D01*
X128310770Y-68484701D01*
X128405305Y-68469728D01*
X128508374Y-68417212D01*
X131406900Y-68417212D01*
X131415741Y-68461662D01*
X131415742Y-68461664D01*
X131449426Y-68512073D01*
X131499835Y-68545757D01*
X131499837Y-68545758D01*
X131544287Y-68554600D01*
X131749800Y-68554600D01*
X131902200Y-68554600D01*
X132107713Y-68554600D01*
X132152162Y-68545758D01*
X132152164Y-68545757D01*
X132202573Y-68512073D01*
X132236257Y-68461664D01*
X132236258Y-68461662D01*
X132245100Y-68417212D01*
X132245100Y-68091815D01*
X133992601Y-68091815D01*
X134003287Y-68165173D01*
X134003288Y-68165175D01*
X134058608Y-68278332D01*
X134147667Y-68367391D01*
X134260825Y-68422712D01*
X134334180Y-68433399D01*
X134543800Y-68433399D01*
X134696200Y-68433399D01*
X134905811Y-68433399D01*
X134905815Y-68433398D01*
X134979173Y-68422712D01*
X134979175Y-68422711D01*
X135092332Y-68367391D01*
X135181391Y-68278332D01*
X135236712Y-68165174D01*
X135247399Y-68091825D01*
X135247400Y-68091813D01*
X135247400Y-67907200D01*
X134696200Y-67907200D01*
X134696200Y-68433399D01*
X134543800Y-68433399D01*
X134543800Y-67907200D01*
X133992601Y-67907200D01*
X133992601Y-68091815D01*
X132245100Y-68091815D01*
X132245100Y-67818000D01*
X131902200Y-67818000D01*
X131902200Y-68554600D01*
X131749800Y-68554600D01*
X131749800Y-67818000D01*
X131406900Y-67818000D01*
X131406900Y-68417212D01*
X128508374Y-68417212D01*
X128519247Y-68411672D01*
X128609671Y-68321248D01*
X128656815Y-68228721D01*
X128670414Y-68202033D01*
X128671992Y-68202837D01*
X128698836Y-68168465D01*
X128719229Y-68159596D01*
X128800449Y-68137834D01*
X128849556Y-68109482D01*
X128881650Y-68090952D01*
X129188950Y-67783652D01*
X129203113Y-67759121D01*
X129203114Y-67759120D01*
X129235832Y-67702451D01*
X129235833Y-67702450D01*
X129260100Y-67611881D01*
X129260100Y-67066387D01*
X131406900Y-67066387D01*
X131406900Y-67665600D01*
X131749800Y-67665600D01*
X131902200Y-67665600D01*
X132245100Y-67665600D01*
X132245100Y-67570174D01*
X133992600Y-67570174D01*
X133992600Y-67754800D01*
X134543800Y-67754800D01*
X134696200Y-67754800D01*
X135247399Y-67754800D01*
X135247399Y-67570189D01*
X135247398Y-67570184D01*
X135236712Y-67496826D01*
X135236711Y-67496824D01*
X135181391Y-67383667D01*
X135092332Y-67294608D01*
X134979174Y-67239287D01*
X134905825Y-67228600D01*
X134696200Y-67228600D01*
X134696200Y-67754800D01*
X134543800Y-67754800D01*
X134543800Y-67228600D01*
X134334189Y-67228600D01*
X134334184Y-67228601D01*
X134260826Y-67239287D01*
X134260824Y-67239288D01*
X134147667Y-67294608D01*
X134058608Y-67383667D01*
X134003287Y-67496825D01*
X133992600Y-67570174D01*
X132245100Y-67570174D01*
X132245100Y-67066387D01*
X132236258Y-67021937D01*
X132236257Y-67021935D01*
X132202573Y-66971526D01*
X132152164Y-66937842D01*
X132152162Y-66937841D01*
X132107713Y-66929000D01*
X131902200Y-66929000D01*
X131902200Y-67665600D01*
X131749800Y-67665600D01*
X131749800Y-66929000D01*
X131544287Y-66929000D01*
X131499837Y-66937841D01*
X131499835Y-66937842D01*
X131449426Y-66971526D01*
X131415742Y-67021935D01*
X131415741Y-67021937D01*
X131406900Y-67066387D01*
X129260100Y-67066387D01*
X129260100Y-66480627D01*
X129277693Y-66432289D01*
X129301157Y-66413625D01*
X129344247Y-66391671D01*
X129434671Y-66301247D01*
X129492727Y-66187305D01*
X129507700Y-66092770D01*
X129507700Y-65479230D01*
X129492727Y-65384695D01*
X129434671Y-65270753D01*
X129344247Y-65180329D01*
X129344246Y-65180328D01*
X129344245Y-65180327D01*
X129301160Y-65158374D01*
X129266078Y-65120754D01*
X129260100Y-65091371D01*
X129260100Y-64956627D01*
X129277693Y-64908289D01*
X129301157Y-64889625D01*
X129344247Y-64867671D01*
X129434671Y-64777247D01*
X129492727Y-64663305D01*
X129507700Y-64568770D01*
X129507700Y-63955230D01*
X129492727Y-63860695D01*
X129434671Y-63746753D01*
X129344247Y-63656329D01*
X129308232Y-63637978D01*
X129273151Y-63600358D01*
X129270459Y-63548988D01*
X129289199Y-63517801D01*
X129290873Y-63516127D01*
X129301449Y-63505551D01*
X129301451Y-63505551D01*
X129367751Y-63439251D01*
X129414633Y-63358050D01*
X129438900Y-63267481D01*
X129438900Y-62894319D01*
X129414633Y-62803750D01*
X129414631Y-62803746D01*
X129414629Y-62803742D01*
X129367752Y-62722550D01*
X129357302Y-62712100D01*
X129301451Y-62656249D01*
X129301449Y-62656247D01*
X129098251Y-62453049D01*
X129098250Y-62453048D01*
X129098249Y-62453047D01*
X129017050Y-62406167D01*
X128976164Y-62395212D01*
X128934027Y-62365707D01*
X128924459Y-62342024D01*
X128923554Y-62342319D01*
X128921727Y-62336699D01*
X128921727Y-62336695D01*
X128863671Y-62222753D01*
X128773247Y-62132329D01*
X128773244Y-62132327D01*
X128755559Y-62123316D01*
X128720478Y-62085695D01*
X128714500Y-62056313D01*
X128714500Y-61527627D01*
X128732093Y-61479289D01*
X128755557Y-61460625D01*
X128798647Y-61438671D01*
X128889071Y-61348247D01*
X128947127Y-61234305D01*
X128947127Y-61234304D01*
X128949239Y-61230160D01*
X128986860Y-61195078D01*
X129016243Y-61189100D01*
X129310549Y-61189100D01*
X129358887Y-61206693D01*
X129363723Y-61211125D01*
X129582617Y-61430018D01*
X129582638Y-61430041D01*
X129651548Y-61498951D01*
X129651547Y-61498951D01*
X129732742Y-61545829D01*
X129732746Y-61545831D01*
X129732750Y-61545833D01*
X129823319Y-61570100D01*
X130114582Y-61570100D01*
X130162920Y-61587693D01*
X130185562Y-61620464D01*
X130201696Y-61666576D01*
X130201697Y-61666577D01*
X130201698Y-61666578D01*
X130201699Y-61666581D01*
X130278440Y-61770560D01*
X130382419Y-61847301D01*
X130403536Y-61854690D01*
X130443350Y-61887260D01*
X130451418Y-61916634D01*
X130453256Y-61916392D01*
X130453899Y-61921276D01*
X130478166Y-62011848D01*
X130478168Y-62011853D01*
X130525050Y-62093052D01*
X130698559Y-62266561D01*
X130698562Y-62266565D01*
X130769148Y-62337151D01*
X130769147Y-62337151D01*
X130850342Y-62384029D01*
X130850346Y-62384031D01*
X130850350Y-62384033D01*
X130940919Y-62408300D01*
X131333634Y-62408300D01*
X131374290Y-62420238D01*
X131383089Y-62425893D01*
X131387673Y-62428839D01*
X131418824Y-62469774D01*
X131416375Y-62521155D01*
X131381472Y-62558941D01*
X131347015Y-62567300D01*
X131023227Y-62567300D01*
X130928693Y-62582273D01*
X130814752Y-62640329D01*
X130724329Y-62730752D01*
X130666273Y-62844693D01*
X130651300Y-62939227D01*
X130651300Y-63552772D01*
X130666273Y-63647306D01*
X130708122Y-63729439D01*
X130724329Y-63761247D01*
X130814753Y-63851671D01*
X130915536Y-63903022D01*
X130950617Y-63940642D01*
X130954032Y-63950560D01*
X130955328Y-63955396D01*
X130966364Y-63996586D01*
X130970504Y-64012036D01*
X130970508Y-64012046D01*
X131010697Y-64081656D01*
X131010699Y-64081658D01*
X131010700Y-64081659D01*
X131140820Y-64211779D01*
X131162560Y-64258399D01*
X131162081Y-64275650D01*
X131159628Y-64292719D01*
X131158342Y-64292534D01*
X131142800Y-64335237D01*
X131138367Y-64340073D01*
X130631698Y-64846741D01*
X130594032Y-64911983D01*
X130594031Y-64911984D01*
X130591504Y-64916359D01*
X130580599Y-64957057D01*
X130551094Y-64999194D01*
X130536074Y-65005660D01*
X130536664Y-65007084D01*
X130529818Y-65009919D01*
X130462438Y-65054939D01*
X130417419Y-65122316D01*
X130417418Y-65122320D01*
X130413974Y-65139636D01*
X130405599Y-65181736D01*
X130405599Y-66542664D01*
X130410231Y-66565952D01*
X130417418Y-66602079D01*
X130417419Y-66602083D01*
X130462438Y-66669460D01*
X130529815Y-66714479D01*
X130529816Y-66714479D01*
X130529819Y-66714481D01*
X130589235Y-66726300D01*
X131162763Y-66726300D01*
X131222179Y-66714481D01*
X131289559Y-66669460D01*
X131334580Y-66602080D01*
X131346399Y-66542664D01*
X131346399Y-65181736D01*
X131334580Y-65122320D01*
X131333534Y-65120754D01*
X131322828Y-65104731D01*
X131310601Y-65054765D01*
X131332178Y-65009779D01*
X131574834Y-64767125D01*
X131621454Y-64745386D01*
X131628008Y-64745100D01*
X131688604Y-64745100D01*
X131688607Y-64745100D01*
X131814891Y-64708020D01*
X131845140Y-64688580D01*
X131925608Y-64636867D01*
X131925608Y-64636866D01*
X131925612Y-64636864D01*
X132011802Y-64537396D01*
X132066476Y-64417675D01*
X132085207Y-64287400D01*
X132066476Y-64157125D01*
X132066474Y-64157120D01*
X132066474Y-64157119D01*
X132011804Y-64037409D01*
X132011802Y-64037404D01*
X131925612Y-63937936D01*
X131814891Y-63866780D01*
X131814888Y-63866779D01*
X131810366Y-63863873D01*
X131811821Y-63861608D01*
X131782304Y-63832558D01*
X131777413Y-63781351D01*
X131783200Y-63766095D01*
X131785669Y-63761248D01*
X131785671Y-63761247D01*
X131839129Y-63656329D01*
X131843726Y-63647308D01*
X131843726Y-63647307D01*
X131843726Y-63647306D01*
X131843727Y-63647305D01*
X131858700Y-63552770D01*
X131858700Y-62939230D01*
X131843727Y-62844695D01*
X131785671Y-62730753D01*
X131695247Y-62640329D01*
X131691062Y-62636144D01*
X131692266Y-62634939D01*
X131667767Y-62598613D01*
X131673148Y-62547456D01*
X131710153Y-62511725D01*
X131719539Y-62508275D01*
X131840291Y-62472820D01*
X131922111Y-62420237D01*
X131962766Y-62408300D01*
X132358550Y-62408300D01*
X132406888Y-62425893D01*
X132411724Y-62430326D01*
X132495553Y-62514155D01*
X132517293Y-62560775D01*
X132503979Y-62610462D01*
X132476523Y-62634331D01*
X132464753Y-62640328D01*
X132374328Y-62730754D01*
X132316273Y-62844693D01*
X132301300Y-62939227D01*
X132301300Y-63552772D01*
X132316273Y-63647306D01*
X132358122Y-63729439D01*
X132374329Y-63761247D01*
X132464753Y-63851671D01*
X132507840Y-63873624D01*
X132542921Y-63911242D01*
X132548900Y-63940627D01*
X132548900Y-64016281D01*
X132554559Y-64037401D01*
X132573166Y-64106848D01*
X132573168Y-64106853D01*
X132602190Y-64157119D01*
X132620049Y-64188051D01*
X133189422Y-64757423D01*
X133189443Y-64757446D01*
X133258348Y-64826351D01*
X133293665Y-64846741D01*
X133332738Y-64869300D01*
X133339546Y-64873231D01*
X133339550Y-64873233D01*
X133430119Y-64897500D01*
X133523881Y-64897500D01*
X133958749Y-64897500D01*
X134007087Y-64915093D01*
X134011923Y-64919525D01*
X134241874Y-65149475D01*
X134263614Y-65196096D01*
X134263900Y-65202650D01*
X134263900Y-65585580D01*
X134246307Y-65633918D01*
X134213538Y-65656560D01*
X134167422Y-65672697D01*
X134167419Y-65672698D01*
X134167419Y-65672699D01*
X134063440Y-65749440D01*
X134063439Y-65749441D01*
X134063438Y-65749442D01*
X133989127Y-65850128D01*
X133946268Y-65878572D01*
X133895151Y-65872813D01*
X133875450Y-65858648D01*
X133594051Y-65577249D01*
X133594050Y-65577248D01*
X133594049Y-65577247D01*
X133512857Y-65530370D01*
X133512848Y-65530366D01*
X133455428Y-65514981D01*
X133422281Y-65506100D01*
X133422280Y-65506100D01*
X133321601Y-65506100D01*
X133273263Y-65488507D01*
X133247543Y-65443958D01*
X133246401Y-65430900D01*
X133246401Y-65181735D01*
X133240983Y-65154500D01*
X133234582Y-65122320D01*
X133234580Y-65122317D01*
X133234580Y-65122316D01*
X133189561Y-65054939D01*
X133122184Y-65009920D01*
X133122181Y-65009919D01*
X133062765Y-64998100D01*
X132489237Y-64998100D01*
X132429821Y-65009919D01*
X132429817Y-65009920D01*
X132362440Y-65054939D01*
X132317421Y-65122316D01*
X132317420Y-65122320D01*
X132313976Y-65139636D01*
X132305601Y-65181736D01*
X132305601Y-66542664D01*
X132310233Y-66565952D01*
X132317420Y-66602079D01*
X132317421Y-66602083D01*
X132362440Y-66669460D01*
X132429817Y-66714479D01*
X132429818Y-66714479D01*
X132429821Y-66714481D01*
X132489237Y-66726300D01*
X133062765Y-66726300D01*
X133122181Y-66714481D01*
X133189561Y-66669460D01*
X133234582Y-66602080D01*
X133246401Y-66542664D01*
X133246401Y-66418351D01*
X133263994Y-66370013D01*
X133308543Y-66344293D01*
X133359201Y-66353226D01*
X133374775Y-66365177D01*
X133509249Y-66499651D01*
X133552262Y-66542664D01*
X133575550Y-66565952D01*
X133656743Y-66612829D01*
X133656750Y-66612833D01*
X133675887Y-66617960D01*
X133675888Y-66617961D01*
X133699699Y-66624341D01*
X133747319Y-66637101D01*
X133747321Y-66637101D01*
X133845684Y-66637101D01*
X133845700Y-66637100D01*
X133908329Y-66637100D01*
X133956667Y-66654693D01*
X133979309Y-66687462D01*
X133986699Y-66708581D01*
X134063440Y-66812560D01*
X134167419Y-66889301D01*
X134167422Y-66889302D01*
X134167421Y-66889302D01*
X134196701Y-66899547D01*
X134289400Y-66931984D01*
X134318355Y-66934699D01*
X134318358Y-66934700D01*
X134318364Y-66934700D01*
X134921642Y-66934700D01*
X134921643Y-66934699D01*
X134950600Y-66931984D01*
X135072581Y-66889301D01*
X135176560Y-66812560D01*
X135253301Y-66708581D01*
X135295984Y-66586600D01*
X135298699Y-66557643D01*
X135298700Y-66557642D01*
X135298700Y-66004358D01*
X135298699Y-66004355D01*
X135295984Y-65975400D01*
X135253301Y-65853419D01*
X135176560Y-65749440D01*
X135072581Y-65672699D01*
X135072578Y-65672698D01*
X135072577Y-65672697D01*
X135026462Y-65656560D01*
X134986648Y-65623988D01*
X134976100Y-65585580D01*
X134976100Y-64977118D01*
X134970441Y-64956000D01*
X134970440Y-64955998D01*
X134970180Y-64955028D01*
X134951833Y-64886550D01*
X134944144Y-64873233D01*
X134944143Y-64873232D01*
X134944143Y-64873231D01*
X134904951Y-64805348D01*
X134836046Y-64736443D01*
X134836023Y-64736422D01*
X134356051Y-64256449D01*
X134324784Y-64238397D01*
X134274853Y-64209568D01*
X134274848Y-64209566D01*
X134217428Y-64194181D01*
X134184281Y-64185300D01*
X134184280Y-64185300D01*
X133655650Y-64185300D01*
X133607312Y-64167707D01*
X133602475Y-64163274D01*
X133371233Y-63932031D01*
X133349494Y-63885411D01*
X133362808Y-63835724D01*
X133371223Y-63825694D01*
X133435671Y-63761247D01*
X133493727Y-63647305D01*
X133508700Y-63552770D01*
X133508700Y-62939230D01*
X133493727Y-62844695D01*
X133435671Y-62730753D01*
X133345247Y-62640329D01*
X133345246Y-62640328D01*
X133345245Y-62640327D01*
X133302160Y-62618374D01*
X133267078Y-62580754D01*
X133261100Y-62551371D01*
X133261100Y-62472949D01*
X133261101Y-62472936D01*
X133261101Y-62373121D01*
X133261101Y-62373119D01*
X133236833Y-62282551D01*
X133236833Y-62282550D01*
X133189952Y-62201350D01*
X133162251Y-62173649D01*
X133123651Y-62135049D01*
X132838837Y-61850235D01*
X132817097Y-61803615D01*
X132830411Y-61753928D01*
X132838837Y-61743887D01*
X132896391Y-61686332D01*
X132951712Y-61573174D01*
X132962399Y-61499825D01*
X132962400Y-61499813D01*
X132962400Y-61290200D01*
X131757601Y-61290200D01*
X131757601Y-61499821D01*
X131758860Y-61508457D01*
X131748420Y-61558827D01*
X131708046Y-61590701D01*
X131684446Y-61594500D01*
X131582391Y-61594500D01*
X131559144Y-61601326D01*
X131507808Y-61598061D01*
X131470580Y-61562563D01*
X131463089Y-61522144D01*
X131463700Y-61515636D01*
X131463700Y-60928174D01*
X131757600Y-60928174D01*
X131757600Y-61137800D01*
X132283800Y-61137800D01*
X132436200Y-61137800D01*
X132962399Y-61137800D01*
X132962399Y-60928189D01*
X132962398Y-60928184D01*
X132951712Y-60854826D01*
X132951711Y-60854824D01*
X132896391Y-60741667D01*
X132807332Y-60652608D01*
X132694174Y-60597287D01*
X132620825Y-60586600D01*
X132436200Y-60586600D01*
X132436200Y-61137800D01*
X132283800Y-61137800D01*
X132283800Y-60586600D01*
X132099189Y-60586600D01*
X132099184Y-60586601D01*
X132025826Y-60597287D01*
X132025824Y-60597288D01*
X131912667Y-60652608D01*
X131823608Y-60741667D01*
X131768287Y-60854825D01*
X131757600Y-60928174D01*
X131463700Y-60928174D01*
X131463700Y-60912364D01*
X131463700Y-60912358D01*
X131463699Y-60912355D01*
X131463057Y-60905512D01*
X131460984Y-60883400D01*
X131418301Y-60761419D01*
X131341560Y-60657440D01*
X131237581Y-60580699D01*
X131237578Y-60580698D01*
X131237577Y-60580697D01*
X131237578Y-60580697D01*
X131144270Y-60548048D01*
X131115600Y-60538016D01*
X131115595Y-60538015D01*
X131115593Y-60538015D01*
X131086644Y-60535300D01*
X131086636Y-60535300D01*
X130533364Y-60535300D01*
X130533355Y-60535300D01*
X130504406Y-60538015D01*
X130504402Y-60538015D01*
X130504400Y-60538016D01*
X130504397Y-60538016D01*
X130504397Y-60538017D01*
X130382422Y-60580697D01*
X130382419Y-60580698D01*
X130382419Y-60580699D01*
X130359942Y-60597288D01*
X130278440Y-60657440D01*
X130201697Y-60761422D01*
X130201696Y-60761423D01*
X130185562Y-60807536D01*
X130152992Y-60847351D01*
X130114582Y-60857900D01*
X130048850Y-60857900D01*
X130000512Y-60840307D01*
X129995675Y-60835874D01*
X129707852Y-60548050D01*
X129707851Y-60548049D01*
X129670055Y-60526227D01*
X129626653Y-60501168D01*
X129626648Y-60501166D01*
X129569228Y-60485781D01*
X129536081Y-60476900D01*
X129536080Y-60476900D01*
X129016243Y-60476900D01*
X128967905Y-60459307D01*
X128949239Y-60435840D01*
X128889070Y-60317752D01*
X128798647Y-60227329D01*
X128684705Y-60169273D01*
X128684707Y-60169273D01*
X128590172Y-60154300D01*
X128590170Y-60154300D01*
X128126630Y-60154300D01*
X128126627Y-60154300D01*
X128032093Y-60169273D01*
X127918152Y-60227329D01*
X127827729Y-60317752D01*
X127769673Y-60431693D01*
X127754700Y-60526227D01*
X127754700Y-61139772D01*
X127769673Y-61234306D01*
X127781012Y-61256560D01*
X127787281Y-61307617D01*
X127759264Y-61350758D01*
X127714008Y-61365900D01*
X127352792Y-61365900D01*
X127304454Y-61348307D01*
X127278734Y-61303758D01*
X127285788Y-61256560D01*
X127297126Y-61234306D01*
X127297127Y-61234305D01*
X127312100Y-61139770D01*
X127312100Y-60526230D01*
X127297127Y-60431695D01*
X127239071Y-60317753D01*
X127148647Y-60227329D01*
X127034705Y-60169273D01*
X127034707Y-60169273D01*
X126940172Y-60154300D01*
X126940170Y-60154300D01*
X126476630Y-60154300D01*
X126476627Y-60154300D01*
X126382093Y-60169273D01*
X126268152Y-60227329D01*
X126177729Y-60317752D01*
X126119673Y-60431693D01*
X126114515Y-60464264D01*
X126089577Y-60509254D01*
X126041554Y-60527689D01*
X126040241Y-60527700D01*
X126020007Y-60527700D01*
X125969379Y-60541266D01*
X125944064Y-60548049D01*
X125944063Y-60548048D01*
X125942365Y-60548503D01*
X125942359Y-60548506D01*
X125872739Y-60588700D01*
X125872736Y-60588702D01*
X125443901Y-61017538D01*
X125397281Y-61039278D01*
X125347594Y-61025964D01*
X125323723Y-60998504D01*
X125304279Y-60960344D01*
X125209655Y-60865720D01*
X125090422Y-60804968D01*
X125090424Y-60804968D01*
X124991500Y-60789300D01*
X124991498Y-60789300D01*
X124487502Y-60789300D01*
X124487499Y-60789300D01*
X124388576Y-60804968D01*
X124269344Y-60865720D01*
X124174720Y-60960344D01*
X124113968Y-61079576D01*
X124098300Y-61178499D01*
X124098300Y-61757500D01*
X124113968Y-61856423D01*
X124174720Y-61975655D01*
X124178197Y-61980440D01*
X124176657Y-61981558D01*
X124194931Y-62020746D01*
X124181617Y-62070433D01*
X124139480Y-62099938D01*
X124120017Y-62102500D01*
X123711435Y-62102500D01*
X123663097Y-62084907D01*
X123637377Y-62040358D01*
X123646310Y-61989700D01*
X123658261Y-61974126D01*
X123689485Y-61942901D01*
X123689487Y-61942899D01*
X123743888Y-61831619D01*
X123743888Y-61831617D01*
X123754399Y-61759482D01*
X123754400Y-61759472D01*
X123754400Y-61544200D01*
X122574600Y-61544200D01*
X122574600Y-61759482D01*
X122585111Y-61831617D01*
X122585111Y-61831619D01*
X122639512Y-61942899D01*
X122670739Y-61974126D01*
X122692479Y-62020746D01*
X122679165Y-62070433D01*
X122637028Y-62099938D01*
X122617565Y-62102500D01*
X122327100Y-62102500D01*
X122327084Y-62102499D01*
X122322481Y-62102499D01*
X122228719Y-62102499D01*
X122157289Y-62121638D01*
X122157287Y-62121638D01*
X122138149Y-62126767D01*
X122081713Y-62159350D01*
X122081714Y-62159351D01*
X122056947Y-62173650D01*
X122056944Y-62173652D01*
X121398305Y-62832293D01*
X121193349Y-63037249D01*
X121165598Y-63065000D01*
X121127047Y-63103550D01*
X121080170Y-63184742D01*
X121080166Y-63184751D01*
X121055900Y-63275320D01*
X121055900Y-63565579D01*
X121038307Y-63613917D01*
X121005538Y-63636559D01*
X120959422Y-63652696D01*
X120959419Y-63652697D01*
X120959419Y-63652698D01*
X120855440Y-63729439D01*
X120787489Y-63821509D01*
X120778697Y-63833421D01*
X120736017Y-63955396D01*
X120736015Y-63955405D01*
X120733300Y-63984354D01*
X120396000Y-63984354D01*
X120396000Y-61176517D01*
X122574600Y-61176517D01*
X122574600Y-61391800D01*
X123088300Y-61391800D01*
X123240700Y-61391800D01*
X123754400Y-61391800D01*
X123754400Y-61176527D01*
X123754399Y-61176517D01*
X123743888Y-61104382D01*
X123743888Y-61104380D01*
X123689487Y-60993100D01*
X123601899Y-60905512D01*
X123490618Y-60851111D01*
X123418482Y-60840600D01*
X123240700Y-60840600D01*
X123240700Y-61391800D01*
X123088300Y-61391800D01*
X123088300Y-60840600D01*
X122910517Y-60840600D01*
X122838382Y-60851111D01*
X122838380Y-60851111D01*
X122727100Y-60905512D01*
X122639512Y-60993100D01*
X122585111Y-61104380D01*
X122585111Y-61104382D01*
X122574600Y-61176517D01*
X120396000Y-61176517D01*
X120396000Y-59892200D01*
X120413593Y-59843862D01*
X120458142Y-59818142D01*
X120471200Y-59817000D01*
X135560800Y-59817000D01*
X135609138Y-59834593D01*
G37*
%TD.AperFunction*%
%TD*%
M02*
