%TF.GenerationSoftware,KiCad,Pcbnew,8.0.5*%
%TF.CreationDate,2025-01-24T10:40:51+05:30*%
%TF.ProjectId,racer_panelizatio_version2_,72616365-725f-4706-916e-656c697a6174,rev?*%
%TF.SameCoordinates,Original*%
%TF.FileFunction,Paste,Top*%
%TF.FilePolarity,Positive*%
%FSLAX46Y46*%
G04 Gerber Fmt 4.6, Leading zero omitted, Abs format (unit mm)*
G04 Created by KiCad (PCBNEW 8.0.5) date 2025-01-24 10:40:51*
%MOMM*%
%LPD*%
G01*
G04 APERTURE LIST*
G04 Aperture macros list*
%AMRoundRect*
0 Rectangle with rounded corners*
0 $1 Rounding radius*
0 $2 $3 $4 $5 $6 $7 $8 $9 X,Y pos of 4 corners*
0 Add a 4 corners polygon primitive as box body*
4,1,4,$2,$3,$4,$5,$6,$7,$8,$9,$2,$3,0*
0 Add four circle primitives for the rounded corners*
1,1,$1+$1,$2,$3*
1,1,$1+$1,$4,$5*
1,1,$1+$1,$6,$7*
1,1,$1+$1,$8,$9*
0 Add four rect primitives between the rounded corners*
20,1,$1+$1,$2,$3,$4,$5,0*
20,1,$1+$1,$4,$5,$6,$7,0*
20,1,$1+$1,$6,$7,$8,$9,0*
20,1,$1+$1,$8,$9,$2,$3,0*%
G04 Aperture macros list end*
%ADD10C,0.010000*%
%ADD11RoundRect,0.200000X-0.275000X0.200000X-0.275000X-0.200000X0.275000X-0.200000X0.275000X0.200000X0*%
%ADD12RoundRect,0.200000X0.275000X-0.200000X0.275000X0.200000X-0.275000X0.200000X-0.275000X-0.200000X0*%
%ADD13RoundRect,0.075000X-0.340000X-0.075000X0.340000X-0.075000X0.340000X0.075000X-0.340000X0.075000X0*%
%ADD14RoundRect,0.225000X-0.225000X-0.425000X0.225000X-0.425000X0.225000X0.425000X-0.225000X0.425000X0*%
%ADD15RoundRect,0.200000X0.200000X0.275000X-0.200000X0.275000X-0.200000X-0.275000X0.200000X-0.275000X0*%
%ADD16RoundRect,0.075400X-0.054600X-0.344600X0.054600X-0.344600X0.054600X0.344600X-0.054600X0.344600X0*%
%ADD17RoundRect,0.175000X0.175000X0.325000X-0.175000X0.325000X-0.175000X-0.325000X0.175000X-0.325000X0*%
%ADD18RoundRect,0.225000X-0.225000X-0.250000X0.225000X-0.250000X0.225000X0.250000X-0.225000X0.250000X0*%
%ADD19R,0.600000X1.150000*%
%ADD20R,0.300000X1.150000*%
%ADD21R,0.400000X0.800000*%
%ADD22R,0.800000X0.400000*%
%ADD23R,1.450000X1.450000*%
%ADD24R,0.700000X0.700000*%
%ADD25RoundRect,0.200000X-0.200000X-0.275000X0.200000X-0.275000X0.200000X0.275000X-0.200000X0.275000X0*%
%ADD26RoundRect,0.225000X0.225000X0.250000X-0.225000X0.250000X-0.225000X-0.250000X0.225000X-0.250000X0*%
%ADD27RoundRect,0.225000X-0.250000X0.225000X-0.250000X-0.225000X0.250000X-0.225000X0.250000X0.225000X0*%
%ADD28RoundRect,0.225000X0.250000X-0.225000X0.250000X0.225000X-0.250000X0.225000X-0.250000X-0.225000X0*%
%ADD29RoundRect,0.218750X0.256250X-0.218750X0.256250X0.218750X-0.256250X0.218750X-0.256250X-0.218750X0*%
%ADD30R,1.050000X0.650000*%
%ADD31RoundRect,0.218750X-0.218750X-0.256250X0.218750X-0.256250X0.218750X0.256250X-0.218750X0.256250X0*%
%ADD32R,0.762000X0.228600*%
%ADD33RoundRect,0.075000X0.340000X0.075000X-0.340000X0.075000X-0.340000X-0.075000X0.340000X-0.075000X0*%
%ADD34RoundRect,0.225000X0.225000X0.425000X-0.225000X0.425000X-0.225000X-0.425000X0.225000X-0.425000X0*%
%ADD35RoundRect,0.150000X-0.200000X0.150000X-0.200000X-0.150000X0.200000X-0.150000X0.200000X0.150000X0*%
%ADD36R,2.500000X1.200000*%
%ADD37R,1.200000X2.500000*%
%ADD38R,0.700000X2.000000*%
%ADD39R,0.800000X2.000000*%
%ADD40R,0.900000X2.000000*%
%ADD41R,0.650000X1.050000*%
%ADD42RoundRect,0.218750X-0.256250X0.218750X-0.256250X-0.218750X0.256250X-0.218750X0.256250X0.218750X0*%
%ADD43RoundRect,0.150000X0.200000X-0.150000X0.200000X0.150000X-0.200000X0.150000X-0.200000X-0.150000X0*%
%ADD44R,0.533400X1.320800*%
%ADD45R,1.320800X0.533400*%
%ADD46R,0.228600X0.762000*%
%ADD47RoundRect,0.175000X-0.175000X-0.325000X0.175000X-0.325000X0.175000X0.325000X-0.175000X0.325000X0*%
G04 APERTURE END LIST*
D10*
%TO.C,U14*%
X129839202Y-120887858D02*
X128337914Y-120887858D01*
X128337914Y-119887000D01*
X129839202Y-119887000D01*
X129839202Y-120887858D01*
G36*
X129839202Y-120887858D02*
G01*
X128337914Y-120887858D01*
X128337914Y-119887000D01*
X129839202Y-119887000D01*
X129839202Y-120887858D01*
G37*
%TO.C,U12*%
X114298200Y-64157000D02*
X113448200Y-64157000D01*
X112848200Y-63557000D01*
X112848200Y-62707000D01*
X114298200Y-62707000D01*
X114298200Y-64157000D01*
G36*
X114298200Y-64157000D02*
G01*
X113448200Y-64157000D01*
X112848200Y-63557000D01*
X112848200Y-62707000D01*
X114298200Y-62707000D01*
X114298200Y-64157000D01*
G37*
%TO.C,U14*%
X91158488Y-68294458D02*
X89657200Y-68294458D01*
X89657200Y-67293600D01*
X91158488Y-67293600D01*
X91158488Y-68294458D01*
G36*
X91158488Y-68294458D02*
G01*
X89657200Y-68294458D01*
X89657200Y-67293600D01*
X91158488Y-67293600D01*
X91158488Y-68294458D01*
G37*
X91648402Y-120887858D02*
X90147114Y-120887858D01*
X90147114Y-119887000D01*
X91648402Y-119887000D01*
X91648402Y-120887858D01*
G36*
X91648402Y-120887858D02*
G01*
X90147114Y-120887858D01*
X90147114Y-119887000D01*
X91648402Y-119887000D01*
X91648402Y-120887858D01*
G37*
%TO.C,U12*%
X114788114Y-116902000D02*
X113938114Y-116902000D01*
X113338114Y-116302000D01*
X113338114Y-115452000D01*
X114788114Y-115452000D01*
X114788114Y-116902000D01*
G36*
X114788114Y-116902000D02*
G01*
X113938114Y-116902000D01*
X113338114Y-116302000D01*
X113338114Y-115452000D01*
X114788114Y-115452000D01*
X114788114Y-116902000D01*
G37*
%TO.C,U5*%
X153097500Y-79461500D02*
X152247500Y-79461500D01*
X151647500Y-78861500D01*
X151647500Y-78011500D01*
X153097500Y-78011500D01*
X153097500Y-79461500D01*
G36*
X153097500Y-79461500D02*
G01*
X152247500Y-79461500D01*
X151647500Y-78861500D01*
X151647500Y-78011500D01*
X153097500Y-78011500D01*
X153097500Y-79461500D01*
G37*
%TO.C,U12*%
X76597314Y-116902000D02*
X75747314Y-116902000D01*
X75147314Y-116302000D01*
X75147314Y-115452000D01*
X76597314Y-115452000D01*
X76597314Y-116902000D01*
G36*
X76597314Y-116902000D02*
G01*
X75747314Y-116902000D01*
X75147314Y-116302000D01*
X75147314Y-115452000D01*
X76597314Y-115452000D01*
X76597314Y-116902000D01*
G37*
%TO.C,U5*%
X184375000Y-79461500D02*
X183525000Y-79461500D01*
X182925000Y-78861500D01*
X182925000Y-78011500D01*
X184375000Y-78011500D01*
X184375000Y-79461500D01*
G36*
X184375000Y-79461500D02*
G01*
X183525000Y-79461500D01*
X182925000Y-78861500D01*
X182925000Y-78011500D01*
X184375000Y-78011500D01*
X184375000Y-79461500D01*
G37*
%TO.C,U14*%
X52807688Y-68306458D02*
X51306400Y-68306458D01*
X51306400Y-67305600D01*
X52807688Y-67305600D01*
X52807688Y-68306458D01*
G36*
X52807688Y-68306458D02*
G01*
X51306400Y-68306458D01*
X51306400Y-67305600D01*
X52807688Y-67305600D01*
X52807688Y-68306458D01*
G37*
%TO.C,U12*%
X76107400Y-64308600D02*
X75257400Y-64308600D01*
X74657400Y-63708600D01*
X74657400Y-62858600D01*
X76107400Y-62858600D01*
X76107400Y-64308600D01*
G36*
X76107400Y-64308600D02*
G01*
X75257400Y-64308600D01*
X74657400Y-63708600D01*
X74657400Y-62858600D01*
X76107400Y-62858600D01*
X76107400Y-64308600D01*
G37*
X37726000Y-116796600D02*
X36876000Y-116796600D01*
X36276000Y-116196600D01*
X36276000Y-115346600D01*
X37726000Y-115346600D01*
X37726000Y-116796600D01*
G36*
X37726000Y-116796600D02*
G01*
X36876000Y-116796600D01*
X36276000Y-116196600D01*
X36276000Y-115346600D01*
X37726000Y-115346600D01*
X37726000Y-116796600D01*
G37*
%TO.C,U14*%
X129349288Y-68142858D02*
X127848000Y-68142858D01*
X127848000Y-67142000D01*
X129349288Y-67142000D01*
X129349288Y-68142858D01*
G36*
X129349288Y-68142858D02*
G01*
X127848000Y-68142858D01*
X127848000Y-67142000D01*
X129349288Y-67142000D01*
X129349288Y-68142858D01*
G37*
%TO.C,U7*%
X169073788Y-51339858D02*
X167572500Y-51339858D01*
X167572500Y-50339000D01*
X169073788Y-50339000D01*
X169073788Y-51339858D01*
G36*
X169073788Y-51339858D02*
G01*
X167572500Y-51339858D01*
X167572500Y-50339000D01*
X169073788Y-50339000D01*
X169073788Y-51339858D01*
G37*
%TO.C,U12*%
X37756600Y-64320600D02*
X36906600Y-64320600D01*
X36306600Y-63720600D01*
X36306600Y-62870600D01*
X37756600Y-62870600D01*
X37756600Y-64320600D01*
G36*
X37756600Y-64320600D02*
G01*
X36906600Y-64320600D01*
X36306600Y-63720600D01*
X36306600Y-62870600D01*
X37756600Y-62870600D01*
X37756600Y-64320600D01*
G37*
%TO.C,U14*%
X52777088Y-120782458D02*
X51275800Y-120782458D01*
X51275800Y-119781600D01*
X52777088Y-119781600D01*
X52777088Y-120782458D01*
G36*
X52777088Y-120782458D02*
G01*
X51275800Y-120782458D01*
X51275800Y-119781600D01*
X52777088Y-119781600D01*
X52777088Y-120782458D01*
G37*
%TO.C,U7*%
X200351288Y-51339858D02*
X198850000Y-51339858D01*
X198850000Y-50339000D01*
X200351288Y-50339000D01*
X200351288Y-51339858D01*
G36*
X200351288Y-51339858D02*
G01*
X198850000Y-51339858D01*
X198850000Y-50339000D01*
X200351288Y-50339000D01*
X200351288Y-51339858D01*
G37*
%TD*%
D11*
%TO.C,R1*%
X175065000Y-121885100D03*
X175065000Y-123535100D03*
%TD*%
D12*
%TO.C,R48*%
X137579514Y-128501400D03*
X137579514Y-126851400D03*
%TD*%
D11*
%TO.C,R18*%
X179210400Y-49618600D03*
X179210400Y-51268600D03*
%TD*%
D13*
%TO.C,U9*%
X51861200Y-42938600D03*
X51861200Y-43438600D03*
X51861200Y-43938600D03*
X51861200Y-44438600D03*
X53991200Y-44438600D03*
X53991200Y-43938600D03*
X53991200Y-43438600D03*
X53991200Y-42938600D03*
D14*
X52936200Y-43688600D03*
%TD*%
D15*
%TO.C,R4*%
X196464800Y-136529000D03*
X194814800Y-136529000D03*
%TD*%
D16*
%TO.C,U14*%
X128087914Y-121822000D03*
X128587914Y-121822000D03*
X129087914Y-121822000D03*
X129587914Y-121822000D03*
X130087914Y-121822000D03*
X130087914Y-118952000D03*
X129587914Y-118952000D03*
X129087914Y-118952000D03*
X128587914Y-118952000D03*
X128087914Y-118952000D03*
%TD*%
D12*
%TO.C,R49*%
X56382400Y-75932200D03*
X56382400Y-74282200D03*
%TD*%
D17*
%TO.C,U6*%
X184500000Y-56274000D03*
X183550000Y-56274000D03*
X182600000Y-56274000D03*
X182600000Y-58874000D03*
X184500000Y-58874000D03*
%TD*%
D18*
%TO.C,C32*%
X134968400Y-50547400D03*
X136518400Y-50547400D03*
%TD*%
D19*
%TO.C,P1*%
X183477500Y-45866500D03*
X182677500Y-45866500D03*
D20*
X181527500Y-45866500D03*
X180527500Y-45866500D03*
X180027500Y-45866500D03*
X179027500Y-45866500D03*
D19*
X177877500Y-45866500D03*
X177077500Y-45866500D03*
D20*
X178527500Y-45866500D03*
X179527500Y-45866500D03*
X181027500Y-45866500D03*
X182027500Y-45866500D03*
%TD*%
D12*
%TO.C,TH2*%
X52086000Y-113550200D03*
X52086000Y-111900200D03*
%TD*%
D11*
%TO.C,R25*%
X156289500Y-42913000D03*
X156289500Y-44563000D03*
%TD*%
%TO.C,R32*%
X56611000Y-44145600D03*
X56611000Y-45795600D03*
%TD*%
D21*
%TO.C,U12*%
X111548200Y-67357000D03*
X112348200Y-67357000D03*
X113148200Y-67357000D03*
X113948200Y-67357000D03*
X114748200Y-67357000D03*
X115548200Y-67357000D03*
X116348200Y-67357000D03*
X117148200Y-67357000D03*
X117948200Y-67357000D03*
X118748200Y-67357000D03*
X119548200Y-67357000D03*
D22*
X120448200Y-66257000D03*
X120448200Y-65457000D03*
X120448200Y-64657000D03*
X120448200Y-63857000D03*
X120448200Y-63057000D03*
X120448200Y-62257000D03*
X120448200Y-61457000D03*
X120448200Y-60657000D03*
X120448200Y-59857000D03*
X120448200Y-59057000D03*
X120448200Y-58257000D03*
X120448200Y-57457000D03*
X120448200Y-56657000D03*
D21*
X119548200Y-55557000D03*
X118748200Y-55557000D03*
X117948200Y-55557000D03*
X117148200Y-55557000D03*
X116348200Y-55557000D03*
X115548200Y-55557000D03*
X114748200Y-55557000D03*
X113948200Y-55557000D03*
X113148200Y-55557000D03*
X112348200Y-55557000D03*
X111548200Y-55557000D03*
D22*
X110648200Y-56657000D03*
X110648200Y-57457000D03*
X110648200Y-58257000D03*
X110648200Y-59057000D03*
X110648200Y-59857000D03*
X110648200Y-60657000D03*
X110648200Y-61457000D03*
X110648200Y-62257000D03*
X110648200Y-63057000D03*
X110648200Y-63857000D03*
X110648200Y-64657000D03*
X110648200Y-65457000D03*
X110648200Y-66257000D03*
D23*
X115548200Y-63432000D03*
X117523200Y-63432000D03*
X113573200Y-61457000D03*
X115548200Y-61457000D03*
X117523200Y-61457000D03*
X113573200Y-59482000D03*
X115548200Y-59482000D03*
X117523200Y-59482000D03*
D24*
X110598200Y-55507000D03*
X120498200Y-55507000D03*
X120498200Y-67407000D03*
X110598200Y-67407000D03*
%TD*%
D25*
%TO.C,R35*%
X73671714Y-133810200D03*
X75321714Y-133810200D03*
%TD*%
D26*
%TO.C,C29*%
X74687514Y-125720600D03*
X73137514Y-125720600D03*
%TD*%
D11*
%TO.C,R25*%
X187567000Y-42913000D03*
X187567000Y-44563000D03*
%TD*%
D18*
%TO.C,C2*%
X199428800Y-74319600D03*
X200978800Y-74319600D03*
%TD*%
D26*
%TO.C,D10*%
X99210914Y-139817600D03*
X97660914Y-139817600D03*
%TD*%
D15*
%TO.C,R2*%
X195539800Y-122773001D03*
X193889800Y-122773001D03*
%TD*%
D12*
%TO.C,R47*%
X82947600Y-72656800D03*
X82947600Y-71006800D03*
%TD*%
D27*
%TO.C,C20*%
X118158400Y-42842200D03*
X118158400Y-44392200D03*
%TD*%
D11*
%TO.C,R56*%
X130968200Y-78272000D03*
X130968200Y-79922000D03*
%TD*%
D28*
%TO.C,C34*%
X126853400Y-64162600D03*
X126853400Y-62612600D03*
%TD*%
D29*
%TO.C,D1*%
X182050000Y-126825000D03*
X182050000Y-125250000D03*
%TD*%
D18*
%TO.C,C2*%
X168151300Y-74319600D03*
X169701300Y-74319600D03*
%TD*%
%TO.C,C31*%
X135550514Y-109667800D03*
X137100514Y-109667800D03*
%TD*%
D16*
%TO.C,U14*%
X89407200Y-69228600D03*
X89907200Y-69228600D03*
X90407200Y-69228600D03*
X90907200Y-69228600D03*
X91407200Y-69228600D03*
X91407200Y-66358600D03*
X90907200Y-66358600D03*
X90407200Y-66358600D03*
X89907200Y-66358600D03*
X89407200Y-66358600D03*
%TD*%
D12*
%TO.C,R46*%
X46420400Y-125144800D03*
X46420400Y-123494800D03*
%TD*%
D25*
%TO.C,R9*%
X164735500Y-85140000D03*
X166385500Y-85140000D03*
%TD*%
D12*
%TO.C,R19*%
X111359400Y-42863400D03*
X111359400Y-41213400D03*
%TD*%
D11*
%TO.C,R56*%
X131458114Y-131017000D03*
X131458114Y-132667000D03*
%TD*%
D25*
%TO.C,R24*%
X159497500Y-49274000D03*
X161147500Y-49274000D03*
%TD*%
D18*
%TO.C,C3*%
X198370800Y-133481000D03*
X199920800Y-133481000D03*
%TD*%
D17*
%TO.C,U6*%
X153222500Y-56274000D03*
X152272500Y-56274000D03*
X151322500Y-56274000D03*
X151322500Y-58874000D03*
X153222500Y-58874000D03*
%TD*%
D30*
%TO.C,S9*%
X72135000Y-76827400D03*
X76285000Y-76827400D03*
X72135000Y-78977400D03*
X76285000Y-78977400D03*
%TD*%
D11*
%TO.C,R56*%
X54396000Y-130911600D03*
X54396000Y-132561600D03*
%TD*%
D15*
%TO.C,R38*%
X77887114Y-127397000D03*
X76237114Y-127397000D03*
%TD*%
D30*
%TO.C,S9*%
X33784200Y-76839400D03*
X37934200Y-76839400D03*
X33784200Y-78989400D03*
X37934200Y-78989400D03*
%TD*%
D12*
%TO.C,TH2*%
X90467400Y-61062200D03*
X90467400Y-59412200D03*
%TD*%
D18*
%TO.C,C3*%
X168125900Y-71220800D03*
X169675900Y-71220800D03*
%TD*%
D25*
%TO.C,R35*%
X73181800Y-81216800D03*
X74831800Y-81216800D03*
%TD*%
D18*
%TO.C,C33*%
X128110400Y-71248400D03*
X129660400Y-71248400D03*
%TD*%
D25*
%TO.C,R58*%
X128822400Y-47931200D03*
X130472400Y-47931200D03*
%TD*%
D27*
%TO.C,C18*%
X120426314Y-95587200D03*
X120426314Y-97137200D03*
%TD*%
D12*
%TO.C,R19*%
X73658514Y-95608400D03*
X73658514Y-93958400D03*
%TD*%
D25*
%TO.C,R41*%
X110356600Y-87072600D03*
X112006600Y-87072600D03*
%TD*%
D31*
%TO.C,D2*%
X159454300Y-133735000D03*
X161029300Y-133735000D03*
%TD*%
D25*
%TO.C,R41*%
X110846514Y-139817600D03*
X112496514Y-139817600D03*
%TD*%
D15*
%TO.C,R39*%
X130962314Y-102276400D03*
X129312314Y-102276400D03*
%TD*%
D26*
%TO.C,C29*%
X74197600Y-73127200D03*
X72647600Y-73127200D03*
%TD*%
D11*
%TO.C,R32*%
X56580400Y-96621600D03*
X56580400Y-98271600D03*
%TD*%
D25*
%TO.C,R31*%
X112972800Y-41276400D03*
X114622800Y-41276400D03*
%TD*%
D11*
%TO.C,R32*%
X94961800Y-44133600D03*
X94961800Y-45783600D03*
%TD*%
D27*
%TO.C,C30*%
X84751000Y-63995600D03*
X84751000Y-65545600D03*
%TD*%
D12*
%TO.C,R48*%
X99388714Y-128501400D03*
X99388714Y-126851400D03*
%TD*%
D32*
%TO.C,U1*%
X190739700Y-119240999D03*
X190739700Y-119741000D03*
X190739700Y-120241000D03*
X190739700Y-120741001D03*
X192593900Y-120741001D03*
X192593900Y-120241000D03*
X192593900Y-119741000D03*
X192593900Y-119240999D03*
%TD*%
D11*
%TO.C,R51*%
X90466000Y-62714200D03*
X90466000Y-64364200D03*
%TD*%
D15*
%TO.C,R3*%
X164493500Y-117470000D03*
X162843500Y-117470000D03*
%TD*%
D27*
%TO.C,D16*%
X56351800Y-123722600D03*
X56351800Y-125272600D03*
%TD*%
D18*
%TO.C,C1*%
X199428800Y-75869000D03*
X200978800Y-75869000D03*
%TD*%
D11*
%TO.C,R4*%
X178494000Y-121339500D03*
X178494000Y-122989500D03*
%TD*%
D12*
%TO.C,R37*%
X97661514Y-137264400D03*
X97661514Y-135614400D03*
%TD*%
D31*
%TO.C,D1*%
X190979300Y-140085000D03*
X192554300Y-140085000D03*
%TD*%
D15*
%TO.C,R6*%
X197930000Y-69671400D03*
X196280000Y-69671400D03*
%TD*%
D11*
%TO.C,R52*%
X130460200Y-59260600D03*
X130460200Y-60910600D03*
%TD*%
D26*
%TO.C,D10*%
X98721000Y-87224200D03*
X97171000Y-87224200D03*
%TD*%
D12*
%TO.C,R19*%
X34787200Y-95503000D03*
X34787200Y-93853000D03*
%TD*%
D15*
%TO.C,R2*%
X164239500Y-122538001D03*
X162589500Y-122538001D03*
%TD*%
D25*
%TO.C,R41*%
X72165800Y-87224200D03*
X73815800Y-87224200D03*
%TD*%
D26*
%TO.C,C28*%
X35821400Y-69735600D03*
X34271400Y-69735600D03*
%TD*%
D33*
%TO.C,U8*%
X115423400Y-44367200D03*
X115423400Y-43867200D03*
X115423400Y-43367200D03*
X115423400Y-42867200D03*
X113293400Y-42867200D03*
X113293400Y-43367200D03*
X113293400Y-43867200D03*
X113293400Y-44367200D03*
D34*
X114348400Y-43617200D03*
%TD*%
D30*
%TO.C,S9*%
X33753600Y-129315400D03*
X37903600Y-129315400D03*
X33753600Y-131465400D03*
X37903600Y-131465400D03*
%TD*%
D18*
%TO.C,D7*%
X30639200Y-87245600D03*
X32189200Y-87245600D03*
%TD*%
D11*
%TO.C,R50*%
X93234600Y-66295600D03*
X93234600Y-67945600D03*
%TD*%
%TO.C,R52*%
X53888000Y-111900200D03*
X53888000Y-113550200D03*
%TD*%
D35*
%TO.C,D13*%
X48198400Y-125019800D03*
X48198400Y-123619800D03*
%TD*%
D26*
%TO.C,C29*%
X112388400Y-72975600D03*
X110838400Y-72975600D03*
%TD*%
D27*
%TO.C,C30*%
X123431714Y-116589000D03*
X123431714Y-118139000D03*
%TD*%
D11*
%TO.C,R17*%
X146281900Y-49618600D03*
X146281900Y-51268600D03*
%TD*%
D27*
%TO.C,D15*%
X99388714Y-123828000D03*
X99388714Y-125378000D03*
%TD*%
D12*
%TO.C,R48*%
X137089600Y-75756400D03*
X137089600Y-74106400D03*
%TD*%
%TO.C,R34*%
X33288600Y-135254000D03*
X33288600Y-133604000D03*
%TD*%
D25*
%TO.C,R14*%
X199328000Y-66572600D03*
X200978000Y-66572600D03*
%TD*%
D16*
%TO.C,U14*%
X89897114Y-121822000D03*
X90397114Y-121822000D03*
X90897114Y-121822000D03*
X91397114Y-121822000D03*
X91897114Y-121822000D03*
X91897114Y-118952000D03*
X91397114Y-118952000D03*
X90897114Y-118952000D03*
X90397114Y-118952000D03*
X89897114Y-118952000D03*
%TD*%
D12*
%TO.C,R46*%
X123482514Y-125250200D03*
X123482514Y-123600200D03*
%TD*%
D15*
%TO.C,R42*%
X57087600Y-139712200D03*
X55437600Y-139712200D03*
%TD*%
D36*
%TO.C,S7*%
X135591514Y-119279800D03*
X135591514Y-116779800D03*
X135591514Y-114279800D03*
%TD*%
D11*
%TO.C,R5*%
X180018000Y-121339500D03*
X180018000Y-122989500D03*
%TD*%
D15*
%TO.C,R2*%
X195639800Y-140073001D03*
X193989800Y-140073001D03*
%TD*%
D18*
%TO.C,D12*%
X106997314Y-92243400D03*
X108547314Y-92243400D03*
%TD*%
D37*
%TO.C,S1*%
X166322500Y-43024000D03*
X163822500Y-43024000D03*
X161322500Y-43024000D03*
%TD*%
D38*
%TO.C,P2*%
X83336600Y-75564200D03*
D39*
X82316600Y-75564200D03*
D40*
X81086600Y-75564200D03*
D38*
X84336600Y-75564200D03*
D39*
X85356600Y-75564200D03*
D40*
X86586600Y-75564200D03*
%TD*%
D30*
%TO.C,S4*%
X192402800Y-67808200D03*
X188252800Y-67808200D03*
X192402800Y-65658200D03*
X188252800Y-65658200D03*
%TD*%
D11*
%TO.C,R32*%
X95451714Y-96727000D03*
X95451714Y-98377000D03*
%TD*%
%TO.C,R51*%
X129146714Y-115307600D03*
X129146714Y-116957600D03*
%TD*%
D27*
%TO.C,D15*%
X98898800Y-71234600D03*
X98898800Y-72784600D03*
%TD*%
D18*
%TO.C,C31*%
X58519000Y-57086400D03*
X60069000Y-57086400D03*
%TD*%
D27*
%TO.C,C22*%
X81608714Y-135321200D03*
X81608714Y-136871200D03*
%TD*%
D25*
%TO.C,R41*%
X72655714Y-139817600D03*
X74305714Y-139817600D03*
%TD*%
D26*
%TO.C,C28*%
X74172200Y-69723600D03*
X72622200Y-69723600D03*
%TD*%
D25*
%TO.C,R3*%
X199382600Y-77429600D03*
X201032600Y-77429600D03*
%TD*%
%TO.C,R21*%
X190653600Y-53669400D03*
X192303600Y-53669400D03*
%TD*%
%TO.C,R44*%
X109759400Y-39498400D03*
X111409400Y-39498400D03*
%TD*%
D13*
%TO.C,U11*%
X91455314Y-135371200D03*
X91455314Y-135871200D03*
X91455314Y-136371200D03*
X91455314Y-136871200D03*
X93585314Y-136871200D03*
X93585314Y-136371200D03*
X93585314Y-135871200D03*
X93585314Y-135371200D03*
D14*
X92530314Y-136121200D03*
%TD*%
D18*
%TO.C,C33*%
X51538200Y-123888000D03*
X53088200Y-123888000D03*
%TD*%
D41*
%TO.C,S8*%
X84590400Y-59682800D03*
X84590400Y-55532800D03*
X86740400Y-59682800D03*
X86740400Y-55532800D03*
%TD*%
D12*
%TO.C,TH2*%
X52116600Y-61074200D03*
X52116600Y-59424200D03*
%TD*%
D11*
%TO.C,R53*%
X138629600Y-53559800D03*
X138629600Y-55209800D03*
%TD*%
D15*
%TO.C,TH1*%
X192425000Y-47774000D03*
X190775000Y-47774000D03*
%TD*%
D11*
%TO.C,R1*%
X143538800Y-121851600D03*
X143538800Y-123501600D03*
%TD*%
D41*
%TO.C,S8*%
X46239600Y-59694800D03*
X46239600Y-55544800D03*
X48389600Y-59694800D03*
X48389600Y-55544800D03*
%TD*%
D27*
%TO.C,D16*%
X132924000Y-71083000D03*
X132924000Y-72633000D03*
%TD*%
D35*
%TO.C,D13*%
X125260514Y-125125200D03*
X125260514Y-123725200D03*
%TD*%
D25*
%TO.C,R7*%
X199365600Y-69671400D03*
X201015600Y-69671400D03*
%TD*%
D42*
%TO.C,D6*%
X187592400Y-39673900D03*
X187592400Y-41248900D03*
%TD*%
D11*
%TO.C,R52*%
X53918600Y-59424200D03*
X53918600Y-61074200D03*
%TD*%
D26*
%TO.C,C28*%
X35790800Y-122211600D03*
X34240800Y-122211600D03*
%TD*%
D15*
%TO.C,R4*%
X165064500Y-118994000D03*
X163414500Y-118994000D03*
%TD*%
D18*
%TO.C,D12*%
X29965800Y-39662000D03*
X31515800Y-39662000D03*
%TD*%
D42*
%TO.C,D14*%
X62057400Y-101916900D03*
X62057400Y-103491900D03*
%TD*%
D25*
%TO.C,R44*%
X33187200Y-92138000D03*
X34837200Y-92138000D03*
%TD*%
%TO.C,R10*%
X166513500Y-64312000D03*
X168163500Y-64312000D03*
%TD*%
D15*
%TO.C,R43*%
X96167800Y-39650000D03*
X94517800Y-39650000D03*
%TD*%
D26*
%TO.C,C29*%
X112878314Y-125720600D03*
X111328314Y-125720600D03*
%TD*%
D18*
%TO.C,C32*%
X97267514Y-103292400D03*
X98817514Y-103292400D03*
%TD*%
D25*
%TO.C,R10*%
X197791000Y-64312000D03*
X199441000Y-64312000D03*
%TD*%
D27*
%TO.C,D16*%
X133413914Y-123828000D03*
X133413914Y-125378000D03*
%TD*%
D42*
%TO.C,D14*%
X100928714Y-102022300D03*
X100928714Y-103597300D03*
%TD*%
D26*
%TO.C,D11*%
X137610600Y-39523800D03*
X136060600Y-39523800D03*
%TD*%
D25*
%TO.C,R14*%
X168050500Y-66572600D03*
X169700500Y-66572600D03*
%TD*%
D18*
%TO.C,D7*%
X69479914Y-139827000D03*
X71029914Y-139827000D03*
%TD*%
D26*
%TO.C,C29*%
X35846800Y-73139200D03*
X34296800Y-73139200D03*
%TD*%
D15*
%TO.C,R33*%
X93871914Y-98302000D03*
X92221914Y-98302000D03*
%TD*%
D12*
%TO.C,R48*%
X98898800Y-75908000D03*
X98898800Y-74258000D03*
%TD*%
D28*
%TO.C,C17*%
X168430700Y-46976800D03*
X168430700Y-45426800D03*
%TD*%
D27*
%TO.C,C24*%
X40990000Y-82739800D03*
X40990000Y-84289800D03*
%TD*%
D15*
%TO.C,R1*%
X164648200Y-133100000D03*
X162998200Y-133100000D03*
%TD*%
D12*
%TO.C,R54*%
X73328314Y-100332800D03*
X73328314Y-98682800D03*
%TD*%
D28*
%TO.C,C25*%
X49888000Y-136778800D03*
X49888000Y-135228800D03*
%TD*%
D43*
%TO.C,D5*%
X175603600Y-49681600D03*
X175603600Y-51081600D03*
%TD*%
D12*
%TO.C,R55*%
X113114714Y-100319600D03*
X113114714Y-98669600D03*
%TD*%
D11*
%TO.C,R16*%
X155146500Y-47459600D03*
X155146500Y-49109600D03*
%TD*%
D25*
%TO.C,R23*%
X193775000Y-47774000D03*
X195425000Y-47774000D03*
%TD*%
%TO.C,R7*%
X168088100Y-69671400D03*
X169738100Y-69671400D03*
%TD*%
D26*
%TO.C,D11*%
X61038400Y-92163400D03*
X59488400Y-92163400D03*
%TD*%
D15*
%TO.C,R12*%
X169941500Y-84378000D03*
X168291500Y-84378000D03*
%TD*%
%TO.C,R6*%
X166652500Y-69671400D03*
X165002500Y-69671400D03*
%TD*%
D25*
%TO.C,R31*%
X113462714Y-94021400D03*
X115112714Y-94021400D03*
%TD*%
D12*
%TO.C,R45*%
X119748714Y-125250200D03*
X119748714Y-123600200D03*
%TD*%
D15*
%TO.C,R43*%
X134358600Y-39498400D03*
X132708600Y-39498400D03*
%TD*%
D36*
%TO.C,S7*%
X58560000Y-66698400D03*
X58560000Y-64198400D03*
X58560000Y-61698400D03*
%TD*%
D27*
%TO.C,D15*%
X60548000Y-71246600D03*
X60548000Y-72796600D03*
%TD*%
D15*
%TO.C,R1*%
X169941500Y-80822000D03*
X168291500Y-80822000D03*
%TD*%
D12*
%TO.C,R22*%
X201410000Y-47026800D03*
X201410000Y-45376800D03*
%TD*%
%TO.C,R48*%
X60548000Y-75920000D03*
X60548000Y-74270000D03*
%TD*%
%TO.C,R54*%
X34487600Y-47751400D03*
X34487600Y-46101400D03*
%TD*%
D44*
%TO.C,U2*%
X169065801Y-138129200D03*
X167165799Y-138129200D03*
X168115800Y-140008800D03*
%TD*%
D27*
%TO.C,C20*%
X80457514Y-95587200D03*
X80457514Y-97137200D03*
%TD*%
D11*
%TO.C,R16*%
X186424000Y-47459600D03*
X186424000Y-49109600D03*
%TD*%
D12*
%TO.C,R55*%
X36052600Y-100214200D03*
X36052600Y-98564200D03*
%TD*%
D44*
%TO.C,U2*%
X200336801Y-138129200D03*
X198436799Y-138129200D03*
X199386800Y-140008800D03*
%TD*%
D18*
%TO.C,C1*%
X146966799Y-128798000D03*
X148516799Y-128798000D03*
%TD*%
D15*
%TO.C,R13*%
X201219000Y-82600000D03*
X199569000Y-82600000D03*
%TD*%
D25*
%TO.C,R58*%
X91121514Y-100676200D03*
X92771514Y-100676200D03*
%TD*%
%TO.C,R23*%
X162497500Y-47774000D03*
X164147500Y-47774000D03*
%TD*%
D28*
%TO.C,C3*%
X143919800Y-119400000D03*
X143919800Y-117850000D03*
%TD*%
D25*
%TO.C,R11*%
X192507800Y-73252800D03*
X194157800Y-73252800D03*
%TD*%
D28*
%TO.C,C19*%
X124633714Y-97045000D03*
X124633714Y-95495000D03*
%TD*%
D27*
%TO.C,C18*%
X82235514Y-95587200D03*
X82235514Y-97137200D03*
%TD*%
D25*
%TO.C,R40*%
X84510200Y-61849600D03*
X86160200Y-61849600D03*
%TD*%
D27*
%TO.C,C24*%
X79340800Y-82727800D03*
X79340800Y-84277800D03*
%TD*%
D33*
%TO.C,U8*%
X38881800Y-44530800D03*
X38881800Y-44030800D03*
X38881800Y-43530800D03*
X38881800Y-43030800D03*
X36751800Y-43030800D03*
X36751800Y-43530800D03*
X36751800Y-44030800D03*
X36751800Y-44530800D03*
D34*
X37806800Y-43780800D03*
%TD*%
D18*
%TO.C,C31*%
X96869800Y-57074400D03*
X98419800Y-57074400D03*
%TD*%
D27*
%TO.C,C22*%
X119799514Y-135321200D03*
X119799514Y-136871200D03*
%TD*%
%TO.C,C30*%
X46369600Y-116483600D03*
X46369600Y-118033600D03*
%TD*%
D12*
%TO.C,R37*%
X135362400Y-84519400D03*
X135362400Y-82869400D03*
%TD*%
D21*
%TO.C,U12*%
X112038114Y-120102000D03*
X112838114Y-120102000D03*
X113638114Y-120102000D03*
X114438114Y-120102000D03*
X115238114Y-120102000D03*
X116038114Y-120102000D03*
X116838114Y-120102000D03*
X117638114Y-120102000D03*
X118438114Y-120102000D03*
X119238114Y-120102000D03*
X120038114Y-120102000D03*
D22*
X120938114Y-119002000D03*
X120938114Y-118202000D03*
X120938114Y-117402000D03*
X120938114Y-116602000D03*
X120938114Y-115802000D03*
X120938114Y-115002000D03*
X120938114Y-114202000D03*
X120938114Y-113402000D03*
X120938114Y-112602000D03*
X120938114Y-111802000D03*
X120938114Y-111002000D03*
X120938114Y-110202000D03*
X120938114Y-109402000D03*
D21*
X120038114Y-108302000D03*
X119238114Y-108302000D03*
X118438114Y-108302000D03*
X117638114Y-108302000D03*
X116838114Y-108302000D03*
X116038114Y-108302000D03*
X115238114Y-108302000D03*
X114438114Y-108302000D03*
X113638114Y-108302000D03*
X112838114Y-108302000D03*
X112038114Y-108302000D03*
D22*
X111138114Y-109402000D03*
X111138114Y-110202000D03*
X111138114Y-111002000D03*
X111138114Y-111802000D03*
X111138114Y-112602000D03*
X111138114Y-113402000D03*
X111138114Y-114202000D03*
X111138114Y-115002000D03*
X111138114Y-115802000D03*
X111138114Y-116602000D03*
X111138114Y-117402000D03*
X111138114Y-118202000D03*
X111138114Y-119002000D03*
D23*
X116038114Y-116177000D03*
X118013114Y-116177000D03*
X114063114Y-114202000D03*
X116038114Y-114202000D03*
X118013114Y-114202000D03*
X114063114Y-112227000D03*
X116038114Y-112227000D03*
X118013114Y-112227000D03*
D24*
X111088114Y-108252000D03*
X120988114Y-108252000D03*
X120988114Y-120152000D03*
X111088114Y-120152000D03*
%TD*%
D26*
%TO.C,D8*%
X164201900Y-55803000D03*
X162651900Y-55803000D03*
%TD*%
D15*
%TO.C,R33*%
X93382000Y-45708600D03*
X91732000Y-45708600D03*
%TD*%
D35*
%TO.C,D13*%
X86579800Y-72531800D03*
X86579800Y-71131800D03*
%TD*%
D13*
%TO.C,U9*%
X128402800Y-42775000D03*
X128402800Y-43275000D03*
X128402800Y-43775000D03*
X128402800Y-44275000D03*
X130532800Y-44275000D03*
X130532800Y-43775000D03*
X130532800Y-43275000D03*
X130532800Y-42775000D03*
D14*
X129477800Y-43525000D03*
%TD*%
D12*
%TO.C,R47*%
X83437514Y-125250200D03*
X83437514Y-123600200D03*
%TD*%
D15*
%TO.C,R39*%
X53900200Y-102171000D03*
X52250200Y-102171000D03*
%TD*%
D25*
%TO.C,R40*%
X123190914Y-114443000D03*
X124840914Y-114443000D03*
%TD*%
D33*
%TO.C,U10*%
X77134714Y-136834200D03*
X77134714Y-136334200D03*
X77134714Y-135834200D03*
X77134714Y-135334200D03*
X75004714Y-135334200D03*
X75004714Y-135834200D03*
X75004714Y-136334200D03*
X75004714Y-136834200D03*
D34*
X76059714Y-136084200D03*
%TD*%
D28*
%TO.C,C25*%
X126460200Y-84139200D03*
X126460200Y-82589200D03*
%TD*%
D12*
%TO.C,R45*%
X81557914Y-125250200D03*
X81557914Y-123600200D03*
%TD*%
D26*
%TO.C,D11*%
X99419800Y-39675400D03*
X97869800Y-39675400D03*
%TD*%
D12*
%TO.C,R47*%
X44566200Y-125144800D03*
X44566200Y-123494800D03*
%TD*%
D30*
%TO.C,S9*%
X72624914Y-129420800D03*
X76774914Y-129420800D03*
X72624914Y-131570800D03*
X76774914Y-131570800D03*
%TD*%
D18*
%TO.C,C4*%
X199403400Y-68122000D03*
X200953400Y-68122000D03*
%TD*%
D15*
%TO.C,R3*%
X195893800Y-135005000D03*
X194243800Y-135005000D03*
%TD*%
D25*
%TO.C,R9*%
X196013000Y-85140000D03*
X197663000Y-85140000D03*
%TD*%
D28*
%TO.C,C25*%
X126950114Y-136884200D03*
X126950114Y-135334200D03*
%TD*%
D15*
%TO.C,R39*%
X130472400Y-49531400D03*
X128822400Y-49531400D03*
%TD*%
D27*
%TO.C,C18*%
X43394800Y-43005800D03*
X43394800Y-44555800D03*
%TD*%
D36*
%TO.C,S7*%
X96910800Y-66686400D03*
X96910800Y-64186400D03*
X96910800Y-61686400D03*
%TD*%
D12*
%TO.C,R55*%
X74434000Y-47726200D03*
X74434000Y-46076200D03*
%TD*%
D36*
%TO.C,S7*%
X135101600Y-66534800D03*
X135101600Y-64034800D03*
X135101600Y-61534800D03*
%TD*%
D27*
%TO.C,C20*%
X41586200Y-95481800D03*
X41586200Y-97031800D03*
%TD*%
D18*
%TO.C,C4*%
X168125900Y-68122000D03*
X169675900Y-68122000D03*
%TD*%
D25*
%TO.C,R24*%
X190775000Y-49274000D03*
X192425000Y-49274000D03*
%TD*%
D26*
%TO.C,C26*%
X35816200Y-123888000D03*
X34266200Y-123888000D03*
%TD*%
D29*
%TO.C,D2*%
X144173800Y-127045500D03*
X144173800Y-125470500D03*
%TD*%
D11*
%TO.C,R57*%
X91641714Y-131042400D03*
X91641714Y-132692400D03*
%TD*%
D12*
%TO.C,R37*%
X135852314Y-137264400D03*
X135852314Y-135614400D03*
%TD*%
D18*
%TO.C,D7*%
X107670714Y-139827000D03*
X109220714Y-139827000D03*
%TD*%
D11*
%TO.C,R57*%
X129342600Y-78297400D03*
X129342600Y-79947400D03*
%TD*%
D41*
%TO.C,S8*%
X122781200Y-59531200D03*
X122781200Y-55381200D03*
X124931200Y-59531200D03*
X124931200Y-55381200D03*
%TD*%
D26*
%TO.C,C26*%
X112388400Y-71248400D03*
X110838400Y-71248400D03*
%TD*%
D31*
%TO.C,D2*%
X190625300Y-116435000D03*
X192200300Y-116435000D03*
%TD*%
D11*
%TO.C,R6*%
X177478000Y-117338500D03*
X177478000Y-118988500D03*
%TD*%
D13*
%TO.C,U9*%
X128892714Y-95520000D03*
X128892714Y-96020000D03*
X128892714Y-96520000D03*
X128892714Y-97020000D03*
X131022714Y-97020000D03*
X131022714Y-96520000D03*
X131022714Y-96020000D03*
X131022714Y-95520000D03*
D14*
X129967714Y-96270000D03*
%TD*%
D45*
%TO.C,U2*%
X148568000Y-117433999D03*
X148568000Y-119334001D03*
X150447600Y-118384000D03*
%TD*%
D25*
%TO.C,R44*%
X71568600Y-39650000D03*
X73218600Y-39650000D03*
%TD*%
D12*
%TO.C,R47*%
X121628314Y-125250200D03*
X121628314Y-123600200D03*
%TD*%
D28*
%TO.C,C34*%
X127343314Y-116907600D03*
X127343314Y-115357600D03*
%TD*%
D18*
%TO.C,C33*%
X89919600Y-71400000D03*
X91469600Y-71400000D03*
%TD*%
D27*
%TO.C,C18*%
X119936400Y-42842200D03*
X119936400Y-44392200D03*
%TD*%
D28*
%TO.C,C25*%
X49918600Y-84302800D03*
X49918600Y-82752800D03*
%TD*%
D25*
%TO.C,R41*%
X33784400Y-139712200D03*
X35434400Y-139712200D03*
%TD*%
%TO.C,R58*%
X129312314Y-100676200D03*
X130962314Y-100676200D03*
%TD*%
D19*
%TO.C,P1*%
X152200000Y-45866500D03*
X151400000Y-45866500D03*
D20*
X150250000Y-45866500D03*
X149250000Y-45866500D03*
X148750000Y-45866500D03*
X147750000Y-45866500D03*
D19*
X146600000Y-45866500D03*
X145800000Y-45866500D03*
D20*
X147250000Y-45866500D03*
X148250000Y-45866500D03*
X149750000Y-45866500D03*
X150750000Y-45866500D03*
%TD*%
D12*
%TO.C,R49*%
X56351800Y-128408200D03*
X56351800Y-126758200D03*
%TD*%
D15*
%TO.C,R4*%
X165193800Y-136529000D03*
X163543800Y-136529000D03*
%TD*%
%TO.C,TH1*%
X161147500Y-47774000D03*
X159497500Y-47774000D03*
%TD*%
D25*
%TO.C,R3*%
X168105100Y-77429600D03*
X169755100Y-77429600D03*
%TD*%
D15*
%TO.C,R5*%
X165064500Y-120518000D03*
X163414500Y-120518000D03*
%TD*%
D25*
%TO.C,R20*%
X190629400Y-55803000D03*
X192279400Y-55803000D03*
%TD*%
D12*
%TO.C,TH2*%
X128658200Y-60910600D03*
X128658200Y-59260600D03*
%TD*%
D18*
%TO.C,C32*%
X58426800Y-50711000D03*
X59976800Y-50711000D03*
%TD*%
D27*
%TO.C,C22*%
X81118800Y-82727800D03*
X81118800Y-84277800D03*
%TD*%
D28*
%TO.C,C34*%
X88662600Y-64314200D03*
X88662600Y-62764200D03*
%TD*%
%TO.C,C34*%
X89152514Y-116907600D03*
X89152514Y-115357600D03*
%TD*%
D11*
%TO.C,R2*%
X182038001Y-122164500D03*
X182038001Y-123814500D03*
%TD*%
D25*
%TO.C,R11*%
X161230300Y-73252800D03*
X162880300Y-73252800D03*
%TD*%
D26*
%TO.C,C9*%
X183922400Y-86791000D03*
X182372400Y-86791000D03*
%TD*%
D45*
%TO.C,U2*%
X180094200Y-117467499D03*
X180094200Y-119367501D03*
X181973800Y-118417500D03*
%TD*%
D15*
%TO.C,R13*%
X169941500Y-82600000D03*
X168291500Y-82600000D03*
%TD*%
D11*
%TO.C,R36*%
X96035914Y-135614400D03*
X96035914Y-137264400D03*
%TD*%
D15*
%TO.C,R42*%
X95958914Y-139817600D03*
X94308914Y-139817600D03*
%TD*%
D26*
%TO.C,C28*%
X112852914Y-122317000D03*
X111302914Y-122317000D03*
%TD*%
D11*
%TO.C,R5*%
X148491800Y-121306000D03*
X148491800Y-122956000D03*
%TD*%
D15*
%TO.C,R33*%
X131572800Y-45557000D03*
X129922800Y-45557000D03*
%TD*%
D35*
%TO.C,D13*%
X124770600Y-72380200D03*
X124770600Y-70980200D03*
%TD*%
D12*
%TO.C,TH2*%
X129148114Y-113655600D03*
X129148114Y-112005600D03*
%TD*%
%TO.C,R34*%
X72159914Y-135359400D03*
X72159914Y-133709400D03*
%TD*%
D13*
%TO.C,U9*%
X90701914Y-95520000D03*
X90701914Y-96020000D03*
X90701914Y-96520000D03*
X90701914Y-97020000D03*
X92831914Y-97020000D03*
X92831914Y-96520000D03*
X92831914Y-96020000D03*
X92831914Y-95520000D03*
D14*
X91776914Y-96270000D03*
%TD*%
D31*
%TO.C,D2*%
X190725300Y-133735000D03*
X192300300Y-133735000D03*
%TD*%
D42*
%TO.C,D6*%
X156314900Y-39673900D03*
X156314900Y-41248900D03*
%TD*%
D18*
%TO.C,C3*%
X199403400Y-71220800D03*
X200953400Y-71220800D03*
%TD*%
D46*
%TO.C,U1*%
X178505999Y-126964600D03*
X179006000Y-126964600D03*
X179506000Y-126964600D03*
X180006001Y-126964600D03*
X180006001Y-125110400D03*
X179506000Y-125110400D03*
X179006000Y-125110400D03*
X178505999Y-125110400D03*
%TD*%
D15*
%TO.C,R38*%
X115588000Y-74652000D03*
X113938000Y-74652000D03*
%TD*%
D26*
%TO.C,D9*%
X195477200Y-53655400D03*
X193927200Y-53655400D03*
%TD*%
D47*
%TO.C,U13*%
X96744800Y-55072400D03*
X97694800Y-55072400D03*
X98644800Y-55072400D03*
X98644800Y-52472400D03*
X96744800Y-52472400D03*
%TD*%
D38*
%TO.C,P2*%
X44955200Y-128052200D03*
D39*
X43935200Y-128052200D03*
D40*
X42705200Y-128052200D03*
D38*
X45955200Y-128052200D03*
D39*
X46975200Y-128052200D03*
D40*
X48205200Y-128052200D03*
%TD*%
D33*
%TO.C,U10*%
X38294000Y-84252800D03*
X38294000Y-83752800D03*
X38294000Y-83252800D03*
X38294000Y-82752800D03*
X36164000Y-82752800D03*
X36164000Y-83252800D03*
X36164000Y-83752800D03*
X36164000Y-84252800D03*
D34*
X37219000Y-83502800D03*
%TD*%
D33*
%TO.C,U10*%
X114835600Y-84089200D03*
X114835600Y-83589200D03*
X114835600Y-83089200D03*
X114835600Y-82589200D03*
X112705600Y-82589200D03*
X112705600Y-83089200D03*
X112705600Y-83589200D03*
X112705600Y-84089200D03*
D34*
X113760600Y-83339200D03*
%TD*%
D36*
%TO.C,S7*%
X58529400Y-119174400D03*
X58529400Y-116674400D03*
X58529400Y-114174400D03*
%TD*%
D15*
%TO.C,R43*%
X96657714Y-92243400D03*
X95007714Y-92243400D03*
%TD*%
D32*
%TO.C,U1*%
X190839700Y-136540999D03*
X190839700Y-137041000D03*
X190839700Y-137541000D03*
X190839700Y-138041001D03*
X192693900Y-138041001D03*
X192693900Y-137541000D03*
X192693900Y-137041000D03*
X192693900Y-136540999D03*
%TD*%
D25*
%TO.C,R31*%
X36400600Y-93916000D03*
X38050600Y-93916000D03*
%TD*%
D11*
%TO.C,R18*%
X147932900Y-49618600D03*
X147932900Y-51268600D03*
%TD*%
D32*
%TO.C,U1*%
X159568700Y-136540999D03*
X159568700Y-137041000D03*
X159568700Y-137541000D03*
X159568700Y-138041001D03*
X161422900Y-138041001D03*
X161422900Y-137541000D03*
X161422900Y-137041000D03*
X161422900Y-136540999D03*
%TD*%
D15*
%TO.C,R4*%
X196364800Y-119229000D03*
X194714800Y-119229000D03*
%TD*%
D28*
%TO.C,C17*%
X199708200Y-46976800D03*
X199708200Y-45426800D03*
%TD*%
D12*
%TO.C,R19*%
X34817800Y-43027000D03*
X34817800Y-41377000D03*
%TD*%
%TO.C,R49*%
X133413914Y-128513600D03*
X133413914Y-126863600D03*
%TD*%
D18*
%TO.C,D7*%
X68990000Y-87233600D03*
X70540000Y-87233600D03*
%TD*%
D41*
%TO.C,S8*%
X46209000Y-112170800D03*
X46209000Y-108020800D03*
X48359000Y-112170800D03*
X48359000Y-108020800D03*
%TD*%
D26*
%TO.C,C26*%
X74197600Y-71400000D03*
X72647600Y-71400000D03*
%TD*%
D11*
%TO.C,R53*%
X100928714Y-106304800D03*
X100928714Y-107954800D03*
%TD*%
D28*
%TO.C,C21*%
X49380200Y-44463600D03*
X49380200Y-42913600D03*
%TD*%
D18*
%TO.C,C10*%
X199365000Y-86918000D03*
X200915000Y-86918000D03*
%TD*%
%TO.C,C32*%
X58396200Y-103187000D03*
X59946200Y-103187000D03*
%TD*%
%TO.C,C1*%
X168151300Y-75869000D03*
X169701300Y-75869000D03*
%TD*%
D27*
%TO.C,C13*%
X161902900Y-79183400D03*
X161902900Y-80733400D03*
%TD*%
D15*
%TO.C,R2*%
X197904600Y-75869000D03*
X196254600Y-75869000D03*
%TD*%
D25*
%TO.C,R40*%
X85000114Y-114443000D03*
X86650114Y-114443000D03*
%TD*%
%TO.C,R35*%
X111862514Y-133810200D03*
X113512514Y-133810200D03*
%TD*%
D18*
%TO.C,C2*%
X180513000Y-115623500D03*
X182063000Y-115623500D03*
%TD*%
D15*
%TO.C,R6*%
X200465800Y-135513000D03*
X198815800Y-135513000D03*
%TD*%
D18*
%TO.C,D12*%
X29935200Y-92138000D03*
X31485200Y-92138000D03*
%TD*%
D11*
%TO.C,R3*%
X145443800Y-121877000D03*
X145443800Y-123527000D03*
%TD*%
D12*
%TO.C,R37*%
X58790200Y-137159000D03*
X58790200Y-135509000D03*
%TD*%
D18*
%TO.C,C31*%
X97359714Y-109667800D03*
X98909714Y-109667800D03*
%TD*%
D15*
%TO.C,R38*%
X77397200Y-74803600D03*
X75747200Y-74803600D03*
%TD*%
D25*
%TO.C,R35*%
X111372600Y-81065200D03*
X113022600Y-81065200D03*
%TD*%
D11*
%TO.C,R50*%
X93724514Y-118889000D03*
X93724514Y-120539000D03*
%TD*%
D12*
%TO.C,R49*%
X94733200Y-75920200D03*
X94733200Y-74270200D03*
%TD*%
D26*
%TO.C,D10*%
X136911800Y-87072600D03*
X135361800Y-87072600D03*
%TD*%
D18*
%TO.C,C31*%
X135060600Y-56922800D03*
X136610600Y-56922800D03*
%TD*%
D15*
%TO.C,R43*%
X57786400Y-92138000D03*
X56136400Y-92138000D03*
%TD*%
%TO.C,R42*%
X133659800Y-87072600D03*
X132009800Y-87072600D03*
%TD*%
D11*
%TO.C,R36*%
X95546000Y-83021000D03*
X95546000Y-84671000D03*
%TD*%
D26*
%TO.C,C27*%
X74210000Y-74803600D03*
X72660000Y-74803600D03*
%TD*%
D12*
%TO.C,R46*%
X122992600Y-72505200D03*
X122992600Y-70855200D03*
%TD*%
D46*
%TO.C,U1*%
X146979799Y-126931100D03*
X147479800Y-126931100D03*
X147979800Y-126931100D03*
X148479801Y-126931100D03*
X148479801Y-125076900D03*
X147979800Y-125076900D03*
X147479800Y-125076900D03*
X146979799Y-125076900D03*
%TD*%
D27*
%TO.C,D15*%
X137579514Y-123828000D03*
X137579514Y-125378000D03*
%TD*%
D25*
%TO.C,R41*%
X33815000Y-87236200D03*
X35465000Y-87236200D03*
%TD*%
D15*
%TO.C,R1*%
X195819200Y-115800000D03*
X194169200Y-115800000D03*
%TD*%
D26*
%TO.C,C26*%
X74687514Y-123993400D03*
X73137514Y-123993400D03*
%TD*%
D27*
%TO.C,C30*%
X122941800Y-63844000D03*
X122941800Y-65394000D03*
%TD*%
D25*
%TO.C,R31*%
X74782000Y-41428000D03*
X76432000Y-41428000D03*
%TD*%
%TO.C,R31*%
X75271914Y-94021400D03*
X76921914Y-94021400D03*
%TD*%
D26*
%TO.C,C14*%
X184625000Y-54274000D03*
X183075000Y-54274000D03*
%TD*%
D35*
%TO.C,D13*%
X48229000Y-72543800D03*
X48229000Y-71143800D03*
%TD*%
D11*
%TO.C,R32*%
X133642514Y-96727000D03*
X133642514Y-98377000D03*
%TD*%
D15*
%TO.C,R39*%
X92281600Y-49683000D03*
X90631600Y-49683000D03*
%TD*%
D18*
%TO.C,C2*%
X148986800Y-115590000D03*
X150536800Y-115590000D03*
%TD*%
%TO.C,C16*%
X198825000Y-54274000D03*
X200375000Y-54274000D03*
%TD*%
D15*
%TO.C,R5*%
X196464800Y-138053000D03*
X194814800Y-138053000D03*
%TD*%
D27*
%TO.C,D15*%
X137089600Y-71083000D03*
X137089600Y-72633000D03*
%TD*%
D26*
%TO.C,C14*%
X153347500Y-54274000D03*
X151797500Y-54274000D03*
%TD*%
D15*
%TO.C,R1*%
X195919200Y-133100000D03*
X194269200Y-133100000D03*
%TD*%
D18*
%TO.C,D7*%
X107180800Y-87082000D03*
X108730800Y-87082000D03*
%TD*%
D25*
%TO.C,R35*%
X34831000Y-81228800D03*
X36481000Y-81228800D03*
%TD*%
D15*
%TO.C,R39*%
X53930800Y-49695000D03*
X52280800Y-49695000D03*
%TD*%
D29*
%TO.C,D1*%
X150523800Y-126791500D03*
X150523800Y-125216500D03*
%TD*%
D31*
%TO.C,D2*%
X159325000Y-116200000D03*
X160900000Y-116200000D03*
%TD*%
D25*
%TO.C,R5*%
X168075900Y-72770200D03*
X169725900Y-72770200D03*
%TD*%
D26*
%TO.C,C27*%
X112890714Y-127397000D03*
X111340714Y-127397000D03*
%TD*%
D31*
%TO.C,D1*%
X159579000Y-122550000D03*
X161154000Y-122550000D03*
%TD*%
D25*
%TO.C,R35*%
X34800400Y-133704800D03*
X36450400Y-133704800D03*
%TD*%
D33*
%TO.C,U8*%
X38851200Y-97006800D03*
X38851200Y-96506800D03*
X38851200Y-96006800D03*
X38851200Y-95506800D03*
X36721200Y-95506800D03*
X36721200Y-96006800D03*
X36721200Y-96506800D03*
X36721200Y-97006800D03*
D34*
X37776200Y-96256800D03*
%TD*%
D28*
%TO.C,C23*%
X86981314Y-136869200D03*
X86981314Y-135319200D03*
%TD*%
D15*
%TO.C,R12*%
X201219000Y-84378000D03*
X199569000Y-84378000D03*
%TD*%
D27*
%TO.C,C1*%
X157701800Y-136527999D03*
X157701800Y-138077999D03*
%TD*%
D21*
%TO.C,U5*%
X150347500Y-82661500D03*
X151147500Y-82661500D03*
X151947500Y-82661500D03*
X152747500Y-82661500D03*
X153547500Y-82661500D03*
X154347500Y-82661500D03*
X155147500Y-82661500D03*
X155947500Y-82661500D03*
X156747500Y-82661500D03*
X157547500Y-82661500D03*
X158347500Y-82661500D03*
D22*
X159247500Y-81561500D03*
X159247500Y-80761500D03*
X159247500Y-79961500D03*
X159247500Y-79161500D03*
X159247500Y-78361500D03*
X159247500Y-77561500D03*
X159247500Y-76761500D03*
X159247500Y-75961500D03*
X159247500Y-75161500D03*
X159247500Y-74361500D03*
X159247500Y-73561500D03*
X159247500Y-72761500D03*
X159247500Y-71961500D03*
D21*
X158347500Y-70861500D03*
X157547500Y-70861500D03*
X156747500Y-70861500D03*
X155947500Y-70861500D03*
X155147500Y-70861500D03*
X154347500Y-70861500D03*
X153547500Y-70861500D03*
X152747500Y-70861500D03*
X151947500Y-70861500D03*
X151147500Y-70861500D03*
X150347500Y-70861500D03*
D22*
X149447500Y-71961500D03*
X149447500Y-72761500D03*
X149447500Y-73561500D03*
X149447500Y-74361500D03*
X149447500Y-75161500D03*
X149447500Y-75961500D03*
X149447500Y-76761500D03*
X149447500Y-77561500D03*
X149447500Y-78361500D03*
X149447500Y-79161500D03*
X149447500Y-79961500D03*
X149447500Y-80761500D03*
X149447500Y-81561500D03*
D23*
X154347500Y-78736500D03*
X156322500Y-78736500D03*
X152372500Y-76761500D03*
X154347500Y-76761500D03*
X156322500Y-76761500D03*
X152372500Y-74786500D03*
X154347500Y-74786500D03*
X156322500Y-74786500D03*
D24*
X149397500Y-70811500D03*
X159297500Y-70811500D03*
X159297500Y-82711500D03*
X149397500Y-82711500D03*
%TD*%
D47*
%TO.C,U13*%
X135425514Y-107665800D03*
X136375514Y-107665800D03*
X137325514Y-107665800D03*
X137325514Y-105065800D03*
X135425514Y-105065800D03*
%TD*%
D18*
%TO.C,C1*%
X178492999Y-128831500D03*
X180042999Y-128831500D03*
%TD*%
D26*
%TO.C,C26*%
X35846800Y-71412000D03*
X34296800Y-71412000D03*
%TD*%
D11*
%TO.C,R56*%
X93267314Y-131017000D03*
X93267314Y-132667000D03*
%TD*%
%TO.C,R32*%
X133152600Y-43982000D03*
X133152600Y-45632000D03*
%TD*%
D15*
%TO.C,R38*%
X39046400Y-74815600D03*
X37396400Y-74815600D03*
%TD*%
D27*
%TO.C,C24*%
X118021514Y-135321200D03*
X118021514Y-136871200D03*
%TD*%
D12*
%TO.C,R22*%
X170132500Y-47026800D03*
X170132500Y-45376800D03*
%TD*%
D21*
%TO.C,U12*%
X73847314Y-120102000D03*
X74647314Y-120102000D03*
X75447314Y-120102000D03*
X76247314Y-120102000D03*
X77047314Y-120102000D03*
X77847314Y-120102000D03*
X78647314Y-120102000D03*
X79447314Y-120102000D03*
X80247314Y-120102000D03*
X81047314Y-120102000D03*
X81847314Y-120102000D03*
D22*
X82747314Y-119002000D03*
X82747314Y-118202000D03*
X82747314Y-117402000D03*
X82747314Y-116602000D03*
X82747314Y-115802000D03*
X82747314Y-115002000D03*
X82747314Y-114202000D03*
X82747314Y-113402000D03*
X82747314Y-112602000D03*
X82747314Y-111802000D03*
X82747314Y-111002000D03*
X82747314Y-110202000D03*
X82747314Y-109402000D03*
D21*
X81847314Y-108302000D03*
X81047314Y-108302000D03*
X80247314Y-108302000D03*
X79447314Y-108302000D03*
X78647314Y-108302000D03*
X77847314Y-108302000D03*
X77047314Y-108302000D03*
X76247314Y-108302000D03*
X75447314Y-108302000D03*
X74647314Y-108302000D03*
X73847314Y-108302000D03*
D22*
X72947314Y-109402000D03*
X72947314Y-110202000D03*
X72947314Y-111002000D03*
X72947314Y-111802000D03*
X72947314Y-112602000D03*
X72947314Y-113402000D03*
X72947314Y-114202000D03*
X72947314Y-115002000D03*
X72947314Y-115802000D03*
X72947314Y-116602000D03*
X72947314Y-117402000D03*
X72947314Y-118202000D03*
X72947314Y-119002000D03*
D23*
X77847314Y-116177000D03*
X79822314Y-116177000D03*
X75872314Y-114202000D03*
X77847314Y-114202000D03*
X79822314Y-114202000D03*
X75872314Y-112227000D03*
X77847314Y-112227000D03*
X79822314Y-112227000D03*
D24*
X72897314Y-108252000D03*
X82797314Y-108252000D03*
X82797314Y-120152000D03*
X72897314Y-120152000D03*
%TD*%
D11*
%TO.C,R52*%
X92759314Y-112005600D03*
X92759314Y-113655600D03*
%TD*%
D13*
%TO.C,U11*%
X52614600Y-82789800D03*
X52614600Y-83289800D03*
X52614600Y-83789800D03*
X52614600Y-84289800D03*
X54744600Y-84289800D03*
X54744600Y-83789800D03*
X54744600Y-83289800D03*
X54744600Y-82789800D03*
D14*
X53689600Y-83539800D03*
%TD*%
D28*
%TO.C,C23*%
X48140600Y-84287800D03*
X48140600Y-82737800D03*
%TD*%
%TO.C,C34*%
X50311800Y-64326200D03*
X50311800Y-62776200D03*
%TD*%
D15*
%TO.C,R8*%
X166613900Y-66572600D03*
X164963900Y-66572600D03*
%TD*%
D25*
%TO.C,R40*%
X122701000Y-61698000D03*
X124351000Y-61698000D03*
%TD*%
D18*
%TO.C,C32*%
X135458314Y-103292400D03*
X137008314Y-103292400D03*
%TD*%
D27*
%TO.C,C18*%
X81745600Y-42993800D03*
X81745600Y-44543800D03*
%TD*%
D15*
%TO.C,R39*%
X92771514Y-102276400D03*
X91121514Y-102276400D03*
%TD*%
D28*
%TO.C,C19*%
X86442914Y-97045000D03*
X86442914Y-95495000D03*
%TD*%
D11*
%TO.C,R51*%
X52084600Y-115202200D03*
X52084600Y-116852200D03*
%TD*%
D12*
%TO.C,R34*%
X33319200Y-82778000D03*
X33319200Y-81128000D03*
%TD*%
D27*
%TO.C,D16*%
X94733200Y-71234600D03*
X94733200Y-72784600D03*
%TD*%
D15*
%TO.C,R42*%
X57118200Y-87236200D03*
X55468200Y-87236200D03*
%TD*%
D28*
%TO.C,C19*%
X124143800Y-44300000D03*
X124143800Y-42750000D03*
%TD*%
D26*
%TO.C,D9*%
X164199700Y-53655400D03*
X162649700Y-53655400D03*
%TD*%
D28*
%TO.C,C21*%
X88220914Y-97045000D03*
X88220914Y-95495000D03*
%TD*%
D15*
%TO.C,R5*%
X165193800Y-138053000D03*
X163543800Y-138053000D03*
%TD*%
D13*
%TO.C,U11*%
X129646114Y-135371200D03*
X129646114Y-135871200D03*
X129646114Y-136371200D03*
X129646114Y-136871200D03*
X131776114Y-136871200D03*
X131776114Y-136371200D03*
X131776114Y-135871200D03*
X131776114Y-135371200D03*
D14*
X130721114Y-136121200D03*
%TD*%
D15*
%TO.C,R4*%
X197891600Y-72770200D03*
X196241600Y-72770200D03*
%TD*%
%TO.C,R6*%
X169065500Y-117978000D03*
X167415500Y-117978000D03*
%TD*%
D27*
%TO.C,C13*%
X193180400Y-79183400D03*
X193180400Y-80733400D03*
%TD*%
D18*
%TO.C,C33*%
X90409514Y-123993400D03*
X91959514Y-123993400D03*
%TD*%
D26*
%TO.C,C12*%
X166301500Y-86876000D03*
X164751500Y-86876000D03*
%TD*%
D11*
%TO.C,R36*%
X133736800Y-82869400D03*
X133736800Y-84519400D03*
%TD*%
D38*
%TO.C,P2*%
X122017314Y-128157600D03*
D39*
X120997314Y-128157600D03*
D40*
X119767314Y-128157600D03*
D38*
X123017314Y-128157600D03*
D39*
X124037314Y-128157600D03*
D40*
X125267314Y-128157600D03*
%TD*%
D25*
%TO.C,R58*%
X52280800Y-48094800D03*
X53930800Y-48094800D03*
%TD*%
D11*
%TO.C,R53*%
X62088000Y-53723400D03*
X62088000Y-55373400D03*
%TD*%
D12*
%TO.C,R46*%
X84801800Y-72656800D03*
X84801800Y-71006800D03*
%TD*%
D26*
%TO.C,D8*%
X195479400Y-55803000D03*
X193929400Y-55803000D03*
%TD*%
D28*
%TO.C,C25*%
X88759314Y-136884200D03*
X88759314Y-135334200D03*
%TD*%
D27*
%TO.C,C1*%
X188872800Y-119227999D03*
X188872800Y-120777999D03*
%TD*%
D11*
%TO.C,R6*%
X145951800Y-117305000D03*
X145951800Y-118955000D03*
%TD*%
D15*
%TO.C,R42*%
X134149714Y-139817600D03*
X132499714Y-139817600D03*
%TD*%
D12*
%TO.C,R49*%
X95223114Y-128513600D03*
X95223114Y-126863600D03*
%TD*%
D26*
%TO.C,C27*%
X74699914Y-127397000D03*
X73149914Y-127397000D03*
%TD*%
D28*
%TO.C,C21*%
X87731000Y-44451600D03*
X87731000Y-42901600D03*
%TD*%
%TO.C,C21*%
X49349600Y-96939600D03*
X49349600Y-95389600D03*
%TD*%
D42*
%TO.C,D14*%
X100438800Y-49428900D03*
X100438800Y-51003900D03*
%TD*%
D15*
%TO.C,R3*%
X195793800Y-117705000D03*
X194143800Y-117705000D03*
%TD*%
D26*
%TO.C,C27*%
X35828600Y-127291600D03*
X34278600Y-127291600D03*
%TD*%
%TO.C,D10*%
X60339600Y-139712200D03*
X58789600Y-139712200D03*
%TD*%
D15*
%TO.C,R42*%
X95469000Y-87224200D03*
X93819000Y-87224200D03*
%TD*%
D12*
%TO.C,TH2*%
X90957314Y-113655600D03*
X90957314Y-112005600D03*
%TD*%
D26*
%TO.C,C27*%
X35859200Y-74815600D03*
X34309200Y-74815600D03*
%TD*%
%TO.C,C28*%
X74662114Y-122317000D03*
X73112114Y-122317000D03*
%TD*%
D15*
%TO.C,R3*%
X164622800Y-135005000D03*
X162972800Y-135005000D03*
%TD*%
D25*
%TO.C,R21*%
X159376100Y-53669400D03*
X161026100Y-53669400D03*
%TD*%
D30*
%TO.C,S9*%
X110325800Y-76675800D03*
X114475800Y-76675800D03*
X110325800Y-78825800D03*
X114475800Y-78825800D03*
%TD*%
D26*
%TO.C,C27*%
X112400800Y-74652000D03*
X110850800Y-74652000D03*
%TD*%
D27*
%TO.C,C18*%
X43364200Y-95481800D03*
X43364200Y-97031800D03*
%TD*%
D15*
%TO.C,R2*%
X166627100Y-75869000D03*
X164977100Y-75869000D03*
%TD*%
D18*
%TO.C,D12*%
X68316600Y-39650000D03*
X69866600Y-39650000D03*
%TD*%
D27*
%TO.C,C20*%
X118648314Y-95587200D03*
X118648314Y-97137200D03*
%TD*%
D12*
%TO.C,R45*%
X119258800Y-72505200D03*
X119258800Y-70855200D03*
%TD*%
D21*
%TO.C,U5*%
X181625000Y-82661500D03*
X182425000Y-82661500D03*
X183225000Y-82661500D03*
X184025000Y-82661500D03*
X184825000Y-82661500D03*
X185625000Y-82661500D03*
X186425000Y-82661500D03*
X187225000Y-82661500D03*
X188025000Y-82661500D03*
X188825000Y-82661500D03*
X189625000Y-82661500D03*
D22*
X190525000Y-81561500D03*
X190525000Y-80761500D03*
X190525000Y-79961500D03*
X190525000Y-79161500D03*
X190525000Y-78361500D03*
X190525000Y-77561500D03*
X190525000Y-76761500D03*
X190525000Y-75961500D03*
X190525000Y-75161500D03*
X190525000Y-74361500D03*
X190525000Y-73561500D03*
X190525000Y-72761500D03*
X190525000Y-71961500D03*
D21*
X189625000Y-70861500D03*
X188825000Y-70861500D03*
X188025000Y-70861500D03*
X187225000Y-70861500D03*
X186425000Y-70861500D03*
X185625000Y-70861500D03*
X184825000Y-70861500D03*
X184025000Y-70861500D03*
X183225000Y-70861500D03*
X182425000Y-70861500D03*
X181625000Y-70861500D03*
D22*
X180725000Y-71961500D03*
X180725000Y-72761500D03*
X180725000Y-73561500D03*
X180725000Y-74361500D03*
X180725000Y-75161500D03*
X180725000Y-75961500D03*
X180725000Y-76761500D03*
X180725000Y-77561500D03*
X180725000Y-78361500D03*
X180725000Y-79161500D03*
X180725000Y-79961500D03*
X180725000Y-80761500D03*
X180725000Y-81561500D03*
D23*
X185625000Y-78736500D03*
X187600000Y-78736500D03*
X183650000Y-76761500D03*
X185625000Y-76761500D03*
X187600000Y-76761500D03*
X183650000Y-74786500D03*
X185625000Y-74786500D03*
X187600000Y-74786500D03*
D24*
X180675000Y-70811500D03*
X190575000Y-70811500D03*
X190575000Y-82711500D03*
X180675000Y-82711500D03*
%TD*%
D15*
%TO.C,R8*%
X197891400Y-66572600D03*
X196241400Y-66572600D03*
%TD*%
D12*
%TO.C,R55*%
X36083200Y-47738200D03*
X36083200Y-46088200D03*
%TD*%
D15*
%TO.C,R38*%
X39015800Y-127291600D03*
X37365800Y-127291600D03*
%TD*%
D25*
%TO.C,R58*%
X52250200Y-100570800D03*
X53900200Y-100570800D03*
%TD*%
D12*
%TO.C,R54*%
X34457000Y-100227400D03*
X34457000Y-98577400D03*
%TD*%
D35*
%TO.C,D13*%
X87069714Y-125125200D03*
X87069714Y-123725200D03*
%TD*%
D11*
%TO.C,R56*%
X92777400Y-78423600D03*
X92777400Y-80073600D03*
%TD*%
D33*
%TO.C,U8*%
X115913314Y-97112200D03*
X115913314Y-96612200D03*
X115913314Y-96112200D03*
X115913314Y-95612200D03*
X113783314Y-95612200D03*
X113783314Y-96112200D03*
X113783314Y-96612200D03*
X113783314Y-97112200D03*
D34*
X114838314Y-96362200D03*
%TD*%
D11*
%TO.C,R53*%
X139119514Y-106304800D03*
X139119514Y-107954800D03*
%TD*%
D37*
%TO.C,S1*%
X197600000Y-43024000D03*
X195100000Y-43024000D03*
X192600000Y-43024000D03*
%TD*%
D18*
%TO.C,C32*%
X96777600Y-50699000D03*
X98327600Y-50699000D03*
%TD*%
D42*
%TO.C,D14*%
X138629600Y-49277300D03*
X138629600Y-50852300D03*
%TD*%
D33*
%TO.C,U10*%
X38263400Y-136728800D03*
X38263400Y-136228800D03*
X38263400Y-135728800D03*
X38263400Y-135228800D03*
X36133400Y-135228800D03*
X36133400Y-135728800D03*
X36133400Y-136228800D03*
X36133400Y-136728800D03*
D34*
X37188400Y-135978800D03*
%TD*%
D25*
%TO.C,R44*%
X110249314Y-92243400D03*
X111899314Y-92243400D03*
%TD*%
D12*
%TO.C,R46*%
X85291714Y-125250200D03*
X85291714Y-123600200D03*
%TD*%
D27*
%TO.C,C24*%
X79830714Y-135321200D03*
X79830714Y-136871200D03*
%TD*%
D11*
%TO.C,R51*%
X52115200Y-62726200D03*
X52115200Y-64376200D03*
%TD*%
%TO.C,R57*%
X91151800Y-78449000D03*
X91151800Y-80099000D03*
%TD*%
D47*
%TO.C,U13*%
X58363400Y-107560400D03*
X59313400Y-107560400D03*
X60263400Y-107560400D03*
X60263400Y-104960400D03*
X58363400Y-104960400D03*
%TD*%
D28*
%TO.C,C34*%
X50281200Y-116802200D03*
X50281200Y-115252200D03*
%TD*%
D11*
%TO.C,R2*%
X150511801Y-122131000D03*
X150511801Y-123781000D03*
%TD*%
D27*
%TO.C,D16*%
X95223114Y-123828000D03*
X95223114Y-125378000D03*
%TD*%
%TO.C,C2*%
X170909800Y-138548000D03*
X170909800Y-140098000D03*
%TD*%
D15*
%TO.C,R43*%
X134848514Y-92243400D03*
X133198514Y-92243400D03*
%TD*%
D11*
%TO.C,R52*%
X92269400Y-59412200D03*
X92269400Y-61062200D03*
%TD*%
D12*
%TO.C,R47*%
X121138400Y-72505200D03*
X121138400Y-70855200D03*
%TD*%
D15*
%TO.C,R4*%
X166614100Y-72770200D03*
X164964100Y-72770200D03*
%TD*%
D12*
%TO.C,R34*%
X109860800Y-82614400D03*
X109860800Y-80964400D03*
%TD*%
D11*
%TO.C,R51*%
X128656800Y-62562600D03*
X128656800Y-64212600D03*
%TD*%
D33*
%TO.C,U10*%
X76644800Y-84240800D03*
X76644800Y-83740800D03*
X76644800Y-83240800D03*
X76644800Y-82740800D03*
X74514800Y-82740800D03*
X74514800Y-83240800D03*
X74514800Y-83740800D03*
X74514800Y-84240800D03*
D34*
X75569800Y-83490800D03*
%TD*%
D25*
%TO.C,R31*%
X36431200Y-41440000D03*
X38081200Y-41440000D03*
%TD*%
D18*
%TO.C,C3*%
X167099800Y-133481000D03*
X168649800Y-133481000D03*
%TD*%
D13*
%TO.C,U11*%
X52584000Y-135265800D03*
X52584000Y-135765800D03*
X52584000Y-136265800D03*
X52584000Y-136765800D03*
X54714000Y-136765800D03*
X54714000Y-136265800D03*
X54714000Y-135765800D03*
X54714000Y-135265800D03*
D14*
X53659000Y-136015800D03*
%TD*%
D26*
%TO.C,D11*%
X61069000Y-39687400D03*
X59519000Y-39687400D03*
%TD*%
D41*
%TO.C,S8*%
X123271114Y-112276200D03*
X123271114Y-108126200D03*
X125421114Y-112276200D03*
X125421114Y-108126200D03*
%TD*%
D12*
%TO.C,R45*%
X42686600Y-125144800D03*
X42686600Y-123494800D03*
%TD*%
D25*
%TO.C,R44*%
X33217800Y-39662000D03*
X34867800Y-39662000D03*
%TD*%
D15*
%TO.C,R6*%
X200365800Y-118213000D03*
X198715800Y-118213000D03*
%TD*%
D26*
%TO.C,C26*%
X112878314Y-123993400D03*
X111328314Y-123993400D03*
%TD*%
D18*
%TO.C,D12*%
X106507400Y-39498400D03*
X108057400Y-39498400D03*
%TD*%
D15*
%TO.C,R2*%
X164368800Y-140073001D03*
X162718800Y-140073001D03*
%TD*%
D42*
%TO.C,D14*%
X139119514Y-102022300D03*
X139119514Y-103597300D03*
%TD*%
D30*
%TO.C,S4*%
X161125300Y-67808200D03*
X156975300Y-67808200D03*
X161125300Y-65658200D03*
X156975300Y-65658200D03*
%TD*%
D18*
%TO.C,C33*%
X51568800Y-71412000D03*
X53118800Y-71412000D03*
%TD*%
D25*
%TO.C,R5*%
X199353400Y-72770200D03*
X201003400Y-72770200D03*
%TD*%
D18*
%TO.C,D12*%
X68806514Y-92243400D03*
X70356514Y-92243400D03*
%TD*%
%TO.C,D7*%
X30608600Y-139721600D03*
X32158600Y-139721600D03*
%TD*%
D25*
%TO.C,R44*%
X72058514Y-92243400D03*
X73708514Y-92243400D03*
%TD*%
D27*
%TO.C,C2*%
X202080800Y-121248000D03*
X202080800Y-122798000D03*
%TD*%
%TO.C,C30*%
X46400200Y-64007600D03*
X46400200Y-65557600D03*
%TD*%
D15*
%TO.C,R43*%
X57817000Y-39662000D03*
X56167000Y-39662000D03*
%TD*%
%TO.C,R1*%
X201219000Y-80822000D03*
X199569000Y-80822000D03*
%TD*%
D26*
%TO.C,C15*%
X184375000Y-60774000D03*
X182825000Y-60774000D03*
%TD*%
%TO.C,C11*%
X152644900Y-85140000D03*
X151094900Y-85140000D03*
%TD*%
D33*
%TO.C,U8*%
X77232600Y-44518800D03*
X77232600Y-44018800D03*
X77232600Y-43518800D03*
X77232600Y-43018800D03*
X75102600Y-43018800D03*
X75102600Y-43518800D03*
X75102600Y-44018800D03*
X75102600Y-44518800D03*
D34*
X76157600Y-43768800D03*
%TD*%
D36*
%TO.C,S7*%
X97400714Y-119279800D03*
X97400714Y-116779800D03*
X97400714Y-114279800D03*
%TD*%
D15*
%TO.C,R33*%
X55031200Y-45720600D03*
X53381200Y-45720600D03*
%TD*%
D42*
%TO.C,D14*%
X62088000Y-49440900D03*
X62088000Y-51015900D03*
%TD*%
D27*
%TO.C,C1*%
X157572500Y-118992999D03*
X157572500Y-120542999D03*
%TD*%
D11*
%TO.C,R56*%
X54426600Y-78435600D03*
X54426600Y-80085600D03*
%TD*%
%TO.C,R36*%
X57164600Y-135509000D03*
X57164600Y-137159000D03*
%TD*%
%TO.C,R57*%
X52770400Y-130937000D03*
X52770400Y-132587000D03*
%TD*%
D27*
%TO.C,C2*%
X170780500Y-121013000D03*
X170780500Y-122563000D03*
%TD*%
D12*
%TO.C,R34*%
X110350714Y-135359400D03*
X110350714Y-133709400D03*
%TD*%
D27*
%TO.C,C24*%
X40959400Y-135215800D03*
X40959400Y-136765800D03*
%TD*%
D11*
%TO.C,R50*%
X54853200Y-118783600D03*
X54853200Y-120433600D03*
%TD*%
D26*
%TO.C,D11*%
X138100514Y-92268800D03*
X136550514Y-92268800D03*
%TD*%
D43*
%TO.C,D5*%
X144326100Y-49681600D03*
X144326100Y-51081600D03*
%TD*%
D16*
%TO.C,U14*%
X51056400Y-69240600D03*
X51556400Y-69240600D03*
X52056400Y-69240600D03*
X52556400Y-69240600D03*
X53056400Y-69240600D03*
X53056400Y-66370600D03*
X52556400Y-66370600D03*
X52056400Y-66370600D03*
X51556400Y-66370600D03*
X51056400Y-66370600D03*
%TD*%
D15*
%TO.C,R33*%
X55000600Y-98196600D03*
X53350600Y-98196600D03*
%TD*%
D27*
%TO.C,D15*%
X60517400Y-123722600D03*
X60517400Y-125272600D03*
%TD*%
D26*
%TO.C,D10*%
X60370200Y-87236200D03*
X58820200Y-87236200D03*
%TD*%
D47*
%TO.C,U13*%
X97234714Y-107665800D03*
X98184714Y-107665800D03*
X99134714Y-107665800D03*
X99134714Y-105065800D03*
X97234714Y-105065800D03*
%TD*%
D27*
%TO.C,C20*%
X41616800Y-43005800D03*
X41616800Y-44555800D03*
%TD*%
D28*
%TO.C,C25*%
X88269400Y-84290800D03*
X88269400Y-82740800D03*
%TD*%
D21*
%TO.C,U12*%
X73357400Y-67508600D03*
X74157400Y-67508600D03*
X74957400Y-67508600D03*
X75757400Y-67508600D03*
X76557400Y-67508600D03*
X77357400Y-67508600D03*
X78157400Y-67508600D03*
X78957400Y-67508600D03*
X79757400Y-67508600D03*
X80557400Y-67508600D03*
X81357400Y-67508600D03*
D22*
X82257400Y-66408600D03*
X82257400Y-65608600D03*
X82257400Y-64808600D03*
X82257400Y-64008600D03*
X82257400Y-63208600D03*
X82257400Y-62408600D03*
X82257400Y-61608600D03*
X82257400Y-60808600D03*
X82257400Y-60008600D03*
X82257400Y-59208600D03*
X82257400Y-58408600D03*
X82257400Y-57608600D03*
X82257400Y-56808600D03*
D21*
X81357400Y-55708600D03*
X80557400Y-55708600D03*
X79757400Y-55708600D03*
X78957400Y-55708600D03*
X78157400Y-55708600D03*
X77357400Y-55708600D03*
X76557400Y-55708600D03*
X75757400Y-55708600D03*
X74957400Y-55708600D03*
X74157400Y-55708600D03*
X73357400Y-55708600D03*
D22*
X72457400Y-56808600D03*
X72457400Y-57608600D03*
X72457400Y-58408600D03*
X72457400Y-59208600D03*
X72457400Y-60008600D03*
X72457400Y-60808600D03*
X72457400Y-61608600D03*
X72457400Y-62408600D03*
X72457400Y-63208600D03*
X72457400Y-64008600D03*
X72457400Y-64808600D03*
X72457400Y-65608600D03*
X72457400Y-66408600D03*
D23*
X77357400Y-63583600D03*
X79332400Y-63583600D03*
X75382400Y-61608600D03*
X77357400Y-61608600D03*
X79332400Y-61608600D03*
X75382400Y-59633600D03*
X77357400Y-59633600D03*
X79332400Y-59633600D03*
D24*
X72407400Y-55658600D03*
X82307400Y-55658600D03*
X82307400Y-67558600D03*
X72407400Y-67558600D03*
%TD*%
D28*
%TO.C,C3*%
X175446000Y-119433500D03*
X175446000Y-117883500D03*
%TD*%
D11*
%TO.C,R4*%
X146967800Y-121306000D03*
X146967800Y-122956000D03*
%TD*%
D15*
%TO.C,R38*%
X116077914Y-127397000D03*
X114427914Y-127397000D03*
%TD*%
D26*
%TO.C,C12*%
X197579000Y-86876000D03*
X196029000Y-86876000D03*
%TD*%
D27*
%TO.C,C30*%
X85240914Y-116589000D03*
X85240914Y-118139000D03*
%TD*%
D29*
%TO.C,D2*%
X175700000Y-127079000D03*
X175700000Y-125504000D03*
%TD*%
D44*
%TO.C,U2*%
X168936501Y-120594200D03*
X167036499Y-120594200D03*
X167986500Y-122473800D03*
%TD*%
D33*
%TO.C,U8*%
X77722514Y-97112200D03*
X77722514Y-96612200D03*
X77722514Y-96112200D03*
X77722514Y-95612200D03*
X75592514Y-95612200D03*
X75592514Y-96112200D03*
X75592514Y-96612200D03*
X75592514Y-97112200D03*
D34*
X76647514Y-96362200D03*
%TD*%
D31*
%TO.C,D1*%
X190879300Y-122785000D03*
X192454300Y-122785000D03*
%TD*%
D27*
%TO.C,C22*%
X119309600Y-82576200D03*
X119309600Y-84126200D03*
%TD*%
D15*
%TO.C,R6*%
X169194800Y-135513000D03*
X167544800Y-135513000D03*
%TD*%
D11*
%TO.C,R57*%
X129832514Y-131042400D03*
X129832514Y-132692400D03*
%TD*%
D27*
%TO.C,C1*%
X188972800Y-136527999D03*
X188972800Y-138077999D03*
%TD*%
D47*
%TO.C,U13*%
X134935600Y-54920800D03*
X135885600Y-54920800D03*
X136835600Y-54920800D03*
X136835600Y-52320800D03*
X134935600Y-52320800D03*
%TD*%
D18*
%TO.C,C31*%
X58488400Y-109562400D03*
X60038400Y-109562400D03*
%TD*%
D11*
%TO.C,R3*%
X176970000Y-121910500D03*
X176970000Y-123560500D03*
%TD*%
D12*
%TO.C,R47*%
X44596800Y-72668800D03*
X44596800Y-71018800D03*
%TD*%
D18*
%TO.C,C3*%
X198270800Y-116181000D03*
X199820800Y-116181000D03*
%TD*%
D41*
%TO.C,S8*%
X85080314Y-112276200D03*
X85080314Y-108126200D03*
X87230314Y-112276200D03*
X87230314Y-108126200D03*
%TD*%
D11*
%TO.C,R53*%
X62057400Y-106199400D03*
X62057400Y-107849400D03*
%TD*%
D12*
%TO.C,R45*%
X81068000Y-72656800D03*
X81068000Y-71006800D03*
%TD*%
D25*
%TO.C,R40*%
X46159400Y-61861600D03*
X47809400Y-61861600D03*
%TD*%
D11*
%TO.C,R57*%
X52801000Y-78461000D03*
X52801000Y-80111000D03*
%TD*%
D26*
%TO.C,D11*%
X99909714Y-92268800D03*
X98359714Y-92268800D03*
%TD*%
D28*
%TO.C,C19*%
X85953000Y-44451600D03*
X85953000Y-42901600D03*
%TD*%
D11*
%TO.C,R17*%
X177559400Y-49618600D03*
X177559400Y-51268600D03*
%TD*%
D28*
%TO.C,C21*%
X125921800Y-44300000D03*
X125921800Y-42750000D03*
%TD*%
D15*
%TO.C,R5*%
X196364800Y-120753000D03*
X194714800Y-120753000D03*
%TD*%
D11*
%TO.C,R50*%
X54883800Y-66307600D03*
X54883800Y-67957600D03*
%TD*%
D18*
%TO.C,C3*%
X166970500Y-115946000D03*
X168520500Y-115946000D03*
%TD*%
D27*
%TO.C,D16*%
X56382400Y-71246600D03*
X56382400Y-72796600D03*
%TD*%
D28*
%TO.C,C21*%
X126411714Y-97045000D03*
X126411714Y-95495000D03*
%TD*%
%TO.C,C23*%
X125172114Y-136869200D03*
X125172114Y-135319200D03*
%TD*%
D12*
%TO.C,R45*%
X42717200Y-72668800D03*
X42717200Y-71018800D03*
%TD*%
%TO.C,R49*%
X132924000Y-75768600D03*
X132924000Y-74118600D03*
%TD*%
D11*
%TO.C,R36*%
X134226714Y-135614400D03*
X134226714Y-137264400D03*
%TD*%
D18*
%TO.C,C33*%
X128600314Y-123993400D03*
X130150314Y-123993400D03*
%TD*%
D33*
%TO.C,U10*%
X115325514Y-136834200D03*
X115325514Y-136334200D03*
X115325514Y-135834200D03*
X115325514Y-135334200D03*
X113195514Y-135334200D03*
X113195514Y-135834200D03*
X113195514Y-136334200D03*
X113195514Y-136834200D03*
D34*
X114250514Y-136084200D03*
%TD*%
D12*
%TO.C,R54*%
X72838400Y-47739400D03*
X72838400Y-46089400D03*
%TD*%
D28*
%TO.C,C19*%
X47602200Y-44463600D03*
X47602200Y-42913600D03*
%TD*%
D11*
%TO.C,R50*%
X131425400Y-66144000D03*
X131425400Y-67794000D03*
%TD*%
D21*
%TO.C,U12*%
X34976000Y-119996600D03*
X35776000Y-119996600D03*
X36576000Y-119996600D03*
X37376000Y-119996600D03*
X38176000Y-119996600D03*
X38976000Y-119996600D03*
X39776000Y-119996600D03*
X40576000Y-119996600D03*
X41376000Y-119996600D03*
X42176000Y-119996600D03*
X42976000Y-119996600D03*
D22*
X43876000Y-118896600D03*
X43876000Y-118096600D03*
X43876000Y-117296600D03*
X43876000Y-116496600D03*
X43876000Y-115696600D03*
X43876000Y-114896600D03*
X43876000Y-114096600D03*
X43876000Y-113296600D03*
X43876000Y-112496600D03*
X43876000Y-111696600D03*
X43876000Y-110896600D03*
X43876000Y-110096600D03*
X43876000Y-109296600D03*
D21*
X42976000Y-108196600D03*
X42176000Y-108196600D03*
X41376000Y-108196600D03*
X40576000Y-108196600D03*
X39776000Y-108196600D03*
X38976000Y-108196600D03*
X38176000Y-108196600D03*
X37376000Y-108196600D03*
X36576000Y-108196600D03*
X35776000Y-108196600D03*
X34976000Y-108196600D03*
D22*
X34076000Y-109296600D03*
X34076000Y-110096600D03*
X34076000Y-110896600D03*
X34076000Y-111696600D03*
X34076000Y-112496600D03*
X34076000Y-113296600D03*
X34076000Y-114096600D03*
X34076000Y-114896600D03*
X34076000Y-115696600D03*
X34076000Y-116496600D03*
X34076000Y-117296600D03*
X34076000Y-118096600D03*
X34076000Y-118896600D03*
D23*
X38976000Y-116071600D03*
X40951000Y-116071600D03*
X37001000Y-114096600D03*
X38976000Y-114096600D03*
X40951000Y-114096600D03*
X37001000Y-112121600D03*
X38976000Y-112121600D03*
X40951000Y-112121600D03*
D24*
X34026000Y-108146600D03*
X43926000Y-108146600D03*
X43926000Y-120046600D03*
X34026000Y-120046600D03*
%TD*%
D12*
%TO.C,R48*%
X60517400Y-128396000D03*
X60517400Y-126746000D03*
%TD*%
D28*
%TO.C,C23*%
X86491400Y-84275800D03*
X86491400Y-82725800D03*
%TD*%
D26*
%TO.C,C9*%
X152644900Y-86791000D03*
X151094900Y-86791000D03*
%TD*%
D38*
%TO.C,P2*%
X44985800Y-75576200D03*
D39*
X43965800Y-75576200D03*
D40*
X42735800Y-75576200D03*
D38*
X45985800Y-75576200D03*
D39*
X47005800Y-75576200D03*
D40*
X48235800Y-75576200D03*
%TD*%
D28*
%TO.C,C23*%
X48110000Y-136763800D03*
X48110000Y-135213800D03*
%TD*%
D25*
%TO.C,R40*%
X46128800Y-114337600D03*
X47778800Y-114337600D03*
%TD*%
D12*
%TO.C,R54*%
X111519114Y-100332800D03*
X111519114Y-98682800D03*
%TD*%
D11*
%TO.C,R52*%
X130950114Y-112005600D03*
X130950114Y-113655600D03*
%TD*%
D27*
%TO.C,C22*%
X42737400Y-135215800D03*
X42737400Y-136765800D03*
%TD*%
D11*
%TO.C,R36*%
X57195200Y-83033000D03*
X57195200Y-84683000D03*
%TD*%
D13*
%TO.C,U9*%
X90212000Y-42926600D03*
X90212000Y-43426600D03*
X90212000Y-43926600D03*
X90212000Y-44426600D03*
X92342000Y-44426600D03*
X92342000Y-43926600D03*
X92342000Y-43426600D03*
X92342000Y-42926600D03*
D14*
X91287000Y-43676600D03*
%TD*%
D13*
%TO.C,U9*%
X51830600Y-95414600D03*
X51830600Y-95914600D03*
X51830600Y-96414600D03*
X51830600Y-96914600D03*
X53960600Y-96914600D03*
X53960600Y-96414600D03*
X53960600Y-95914600D03*
X53960600Y-95414600D03*
D14*
X52905600Y-96164600D03*
%TD*%
D18*
%TO.C,C16*%
X167547500Y-54274000D03*
X169097500Y-54274000D03*
%TD*%
D27*
%TO.C,C24*%
X117531600Y-82576200D03*
X117531600Y-84126200D03*
%TD*%
D12*
%TO.C,R55*%
X112624800Y-47574600D03*
X112624800Y-45924600D03*
%TD*%
D11*
%TO.C,R51*%
X90955914Y-115307600D03*
X90955914Y-116957600D03*
%TD*%
D31*
%TO.C,D1*%
X159708300Y-140085000D03*
X161283300Y-140085000D03*
%TD*%
D44*
%TO.C,U2*%
X200236801Y-120829200D03*
X198336799Y-120829200D03*
X199286800Y-122708800D03*
%TD*%
D26*
%TO.C,C15*%
X153097500Y-60774000D03*
X151547500Y-60774000D03*
%TD*%
D12*
%TO.C,R34*%
X71670000Y-82766000D03*
X71670000Y-81116000D03*
%TD*%
D38*
%TO.C,P2*%
X121527400Y-75412600D03*
D39*
X120507400Y-75412600D03*
D40*
X119277400Y-75412600D03*
D38*
X122527400Y-75412600D03*
D39*
X123547400Y-75412600D03*
D40*
X124777400Y-75412600D03*
%TD*%
D16*
%TO.C,U14*%
X127598000Y-69077000D03*
X128098000Y-69077000D03*
X128598000Y-69077000D03*
X129098000Y-69077000D03*
X129598000Y-69077000D03*
X129598000Y-66207000D03*
X129098000Y-66207000D03*
X128598000Y-66207000D03*
X128098000Y-66207000D03*
X127598000Y-66207000D03*
%TD*%
D26*
%TO.C,D10*%
X137401714Y-139817600D03*
X135851714Y-139817600D03*
%TD*%
D12*
%TO.C,R19*%
X111849314Y-95608400D03*
X111849314Y-93958400D03*
%TD*%
D26*
%TO.C,C28*%
X112363000Y-69572000D03*
X110813000Y-69572000D03*
%TD*%
D13*
%TO.C,U11*%
X90965400Y-82777800D03*
X90965400Y-83277800D03*
X90965400Y-83777800D03*
X90965400Y-84277800D03*
X93095400Y-84277800D03*
X93095400Y-83777800D03*
X93095400Y-83277800D03*
X93095400Y-82777800D03*
D14*
X92040400Y-83527800D03*
%TD*%
D47*
%TO.C,U13*%
X58394000Y-55084400D03*
X59344000Y-55084400D03*
X60294000Y-55084400D03*
X60294000Y-52484400D03*
X58394000Y-52484400D03*
%TD*%
D27*
%TO.C,C22*%
X42768000Y-82739800D03*
X42768000Y-84289800D03*
%TD*%
D26*
%TO.C,C29*%
X35816200Y-125615200D03*
X34266200Y-125615200D03*
%TD*%
D11*
%TO.C,R50*%
X131915314Y-118889000D03*
X131915314Y-120539000D03*
%TD*%
D30*
%TO.C,S9*%
X110815714Y-129420800D03*
X114965714Y-129420800D03*
X110815714Y-131570800D03*
X114965714Y-131570800D03*
%TD*%
D16*
%TO.C,U7*%
X167322500Y-52274000D03*
X167822500Y-52274000D03*
X168322500Y-52274000D03*
X168822500Y-52274000D03*
X169322500Y-52274000D03*
X169322500Y-49404000D03*
X168822500Y-49404000D03*
X168322500Y-49404000D03*
X167822500Y-49404000D03*
X167322500Y-49404000D03*
%TD*%
D25*
%TO.C,R58*%
X90631600Y-48082800D03*
X92281600Y-48082800D03*
%TD*%
D12*
%TO.C,R46*%
X46451000Y-72668800D03*
X46451000Y-71018800D03*
%TD*%
D27*
%TO.C,C2*%
X202180800Y-138548000D03*
X202180800Y-140098000D03*
%TD*%
D15*
%TO.C,R33*%
X132062714Y-98302000D03*
X130412714Y-98302000D03*
%TD*%
D21*
%TO.C,U12*%
X35006600Y-67520600D03*
X35806600Y-67520600D03*
X36606600Y-67520600D03*
X37406600Y-67520600D03*
X38206600Y-67520600D03*
X39006600Y-67520600D03*
X39806600Y-67520600D03*
X40606600Y-67520600D03*
X41406600Y-67520600D03*
X42206600Y-67520600D03*
X43006600Y-67520600D03*
D22*
X43906600Y-66420600D03*
X43906600Y-65620600D03*
X43906600Y-64820600D03*
X43906600Y-64020600D03*
X43906600Y-63220600D03*
X43906600Y-62420600D03*
X43906600Y-61620600D03*
X43906600Y-60820600D03*
X43906600Y-60020600D03*
X43906600Y-59220600D03*
X43906600Y-58420600D03*
X43906600Y-57620600D03*
X43906600Y-56820600D03*
D21*
X43006600Y-55720600D03*
X42206600Y-55720600D03*
X41406600Y-55720600D03*
X40606600Y-55720600D03*
X39806600Y-55720600D03*
X39006600Y-55720600D03*
X38206600Y-55720600D03*
X37406600Y-55720600D03*
X36606600Y-55720600D03*
X35806600Y-55720600D03*
X35006600Y-55720600D03*
D22*
X34106600Y-56820600D03*
X34106600Y-57620600D03*
X34106600Y-58420600D03*
X34106600Y-59220600D03*
X34106600Y-60020600D03*
X34106600Y-60820600D03*
X34106600Y-61620600D03*
X34106600Y-62420600D03*
X34106600Y-63220600D03*
X34106600Y-64020600D03*
X34106600Y-64820600D03*
X34106600Y-65620600D03*
X34106600Y-66420600D03*
D23*
X39006600Y-63595600D03*
X40981600Y-63595600D03*
X37031600Y-61620600D03*
X39006600Y-61620600D03*
X40981600Y-61620600D03*
X37031600Y-59645600D03*
X39006600Y-59645600D03*
X40981600Y-59645600D03*
D24*
X34056600Y-55670600D03*
X43956600Y-55670600D03*
X43956600Y-67570600D03*
X34056600Y-67570600D03*
%TD*%
D12*
%TO.C,R37*%
X58820800Y-84683000D03*
X58820800Y-83033000D03*
%TD*%
%TO.C,R54*%
X111029200Y-47587800D03*
X111029200Y-45937800D03*
%TD*%
D11*
%TO.C,R53*%
X100438800Y-53711400D03*
X100438800Y-55361400D03*
%TD*%
D25*
%TO.C,R20*%
X159351900Y-55803000D03*
X161001900Y-55803000D03*
%TD*%
D13*
%TO.C,U11*%
X129156200Y-82626200D03*
X129156200Y-83126200D03*
X129156200Y-83626200D03*
X129156200Y-84126200D03*
X131286200Y-84126200D03*
X131286200Y-83626200D03*
X131286200Y-83126200D03*
X131286200Y-82626200D03*
D14*
X130231200Y-83376200D03*
%TD*%
D26*
%TO.C,C11*%
X183922400Y-85140000D03*
X182372400Y-85140000D03*
%TD*%
D32*
%TO.C,U1*%
X159439400Y-119005999D03*
X159439400Y-119506000D03*
X159439400Y-120006000D03*
X159439400Y-120506001D03*
X161293600Y-120506001D03*
X161293600Y-120006000D03*
X161293600Y-119506000D03*
X161293600Y-119005999D03*
%TD*%
D16*
%TO.C,U14*%
X51025800Y-121716600D03*
X51525800Y-121716600D03*
X52025800Y-121716600D03*
X52525800Y-121716600D03*
X53025800Y-121716600D03*
X53025800Y-118846600D03*
X52525800Y-118846600D03*
X52025800Y-118846600D03*
X51525800Y-118846600D03*
X51025800Y-118846600D03*
%TD*%
D18*
%TO.C,C10*%
X168087500Y-86918000D03*
X169637500Y-86918000D03*
%TD*%
D12*
%TO.C,R37*%
X97171600Y-84671000D03*
X97171600Y-83021000D03*
%TD*%
D16*
%TO.C,U7*%
X198600000Y-52274000D03*
X199100000Y-52274000D03*
X199600000Y-52274000D03*
X200100000Y-52274000D03*
X200600000Y-52274000D03*
X200600000Y-49404000D03*
X200100000Y-49404000D03*
X199600000Y-49404000D03*
X199100000Y-49404000D03*
X198600000Y-49404000D03*
%TD*%
D15*
%TO.C,R1*%
X164518900Y-115565000D03*
X162868900Y-115565000D03*
%TD*%
D12*
%TO.C,R19*%
X73168600Y-43015000D03*
X73168600Y-41365000D03*
%TD*%
D28*
%TO.C,C23*%
X124682200Y-84124200D03*
X124682200Y-82574200D03*
%TD*%
D12*
%TO.C,R55*%
X74923914Y-100319600D03*
X74923914Y-98669600D03*
%TD*%
D27*
%TO.C,C20*%
X79967600Y-42993800D03*
X79967600Y-44543800D03*
%TD*%
D28*
%TO.C,C19*%
X47571600Y-96939600D03*
X47571600Y-95389600D03*
%TD*%
D38*
%TO.C,P2*%
X83826514Y-128157600D03*
D39*
X82806514Y-128157600D03*
D40*
X81576514Y-128157600D03*
D38*
X84826514Y-128157600D03*
D39*
X85846514Y-128157600D03*
D40*
X87076514Y-128157600D03*
%TD*%
M02*
