M48
; DRILL file {KiCad 8.0.5} date 2025-01-25T11:08:50+0530
; FORMAT={-:-/ absolute / inch / decimal}
; #@! TF.CreationDate,2025-01-25T11:08:50+05:30
; #@! TF.GenerationSoftware,Kicad,Pcbnew,8.0.5
; #@! TF.FileFunction,Plated,1,4,PTH
FMAT,2
INCH
; #@! TA.AperFunction,Plated,PTH,ViaDrill
T1C0.0100
; #@! TA.AperFunction,Plated,PTH,ComponentDrill
T2C0.0100
; #@! TA.AperFunction,Plated,PTH,ComponentDrill
T3C0.0197
; #@! TA.AperFunction,Plated,PTH,ComponentDrill
T4C0.0295
; #@! TA.AperFunction,Plated,PTH,ComponentDrill
T5C0.0394
%
G90
G05
T1
X6.64Y-5.284
X6.774Y-3.521
X6.79Y-4.611
X6.79Y-4.886
X6.872Y-5.231
X6.874Y-5.202
X6.889Y-3.639
X6.901Y-3.466
X6.912Y-5.26
X6.935Y-5.34
X6.936Y-3.682
X6.944Y-4.716
X6.955Y-3.497
X6.979Y-5.064
X6.983Y-4.496
X6.993Y-4.607
X7.0Y-3.795
X7.003Y-3.436
X7.013Y-4.799
X7.054Y-3.812
X7.118Y-4.14
X7.12Y-4.521
X7.143Y-4.967
X7.151Y-4.139
X7.151Y-4.521
X7.177Y-4.266
X7.183Y-4.236
X7.197Y-5.276
X7.251Y-3.668
X7.251Y-5.16
X7.261Y-4.299
X7.261Y-4.33
X7.265Y-4.079
X7.265Y-4.141
X7.268Y-4.038
X7.269Y-4.529
X7.27Y-4.495
X7.308Y-4.606
X7.33Y-5.127
X7.36Y-4.424
X7.369Y-3.911
X7.388Y-4.963
X7.39Y-4.424
X7.429Y-4.437
X7.447Y-4.254
X7.501Y-4.204
X7.504Y-3.861
X7.506Y-5.136
X7.516Y-4.991
X7.604Y-4.774
X7.619Y-5.249
X7.628Y-4.631
X7.63Y-3.552
X7.635Y-5.339
X7.639Y-4.179
X7.645Y-5.137
X7.65Y-3.595
X7.658Y-3.468
X7.665Y-4.221
X7.67Y-3.615
X7.681Y-5.183
X7.7Y-4.473
X7.706Y-4.982
X7.717Y-4.333
X7.729Y-5.021
X7.789Y-3.863
X7.825Y-4.111
X7.861Y-5.174
X7.877Y-3.822
X7.902Y-5.281
X7.905Y-4.187
X7.925Y-3.539
T2
X6.9472Y-4.2916
X6.9472Y-4.3694
X6.986Y-4.2528
X6.986Y-4.3305
X6.986Y-4.4083
X7.0249Y-4.2916
X7.0249Y-4.3694
X7.0638Y-4.2528
X7.0638Y-4.3305
X7.0638Y-4.4083
X7.1027Y-4.2916
X7.1027Y-4.3694
T4
X7.5833Y-4.0086
X7.5833Y-4.0874
T5
X6.849Y-3.97
X6.949Y-3.97
X7.049Y-3.97
X7.149Y-3.97
T3
G00X7.1119Y-4.8977
M15
G01X7.1119Y-4.9252
M16
G05
G00X7.4481Y-4.8977
M15
G01X7.4481Y-4.9252
M16
G05
M30
