M48
; DRILL file {KiCad 8.0.5} date 2025-01-24T10:41:27+0530
; FORMAT={-:-/ absolute / inch / decimal}
; #@! TF.CreationDate,2025-01-24T10:41:27+05:30
; #@! TF.GenerationSoftware,Kicad,Pcbnew,8.0.5
; #@! TF.FileFunction,Plated,1,4,PTH
FMAT,2
INCH
; #@! TA.AperFunction,Plated,PTH,ViaDrill
T1C0.0100
; #@! TA.AperFunction,Plated,PTH,ComponentDrill
T2C0.0100
; #@! TA.AperFunction,Plated,PTH,ComponentDrill
T3C0.0197
; #@! TA.AperFunction,Plated,PTH,ComponentDrill
T4C0.0236
; #@! TA.AperFunction,Plated,PTH,ComponentDrill
T5C0.0295
; #@! TA.AperFunction,Plated,PTH,ComponentDrill
T6C0.0394
; #@! TA.AperFunction,Plated,PTH,ComponentDrill
T7C0.0433
; #@! TA.AperFunction,Plated,PTH,ComponentDrill
T8C0.0512
; #@! TA.AperFunction,Plated,PTH,ComponentDrill
T9C0.0630
%
G90
G05
T1
X1.1496Y-5.4455
X1.1508Y-3.3795
X1.2836Y-3.6825
X1.2848Y-1.6165
X1.2996Y-4.7725
X1.2996Y-5.0475
X1.3008Y-2.7065
X1.3008Y-2.9815
X1.3816Y-5.3925
X1.3828Y-3.3265
X1.3836Y-5.3635
X1.3848Y-3.2975
X1.3986Y-3.8005
X1.3998Y-1.7345
X1.4106Y-3.6275
X1.4118Y-1.5615
X1.4216Y-5.4215
X1.4228Y-3.3555
X1.4446Y-5.5015
X1.4456Y-3.8435
X1.4458Y-3.4355
X1.4468Y-1.7775
X1.4536Y-4.8775
X1.4548Y-2.8115
X1.4646Y-3.6585
X1.4658Y-1.5925
X1.4886Y-5.2255
X1.4898Y-3.1595
X1.4926Y-4.6575
X1.4938Y-2.5915
X1.5026Y-4.7685
X1.5038Y-2.7025
X1.5096Y-3.9565
X1.5108Y-1.8905
X1.5126Y-3.5975
X1.5138Y-1.5315
X1.5226Y-4.9605
X1.5238Y-2.8945
X1.5636Y-3.9735
X1.5648Y-1.9075
X1.6276Y-4.3015
X1.6288Y-2.2355
X1.6296Y-4.6825
X1.6308Y-2.6165
X1.6526Y-5.1285
X1.6538Y-3.0625
X1.6606Y-4.3005
X1.6606Y-4.6825
X1.6618Y-2.2345
X1.6618Y-2.6165
X1.6866Y-4.4275
X1.6878Y-2.3615
X1.6926Y-4.3975
X1.6938Y-2.3315
X1.7066Y-5.4375
X1.7078Y-3.3715
X1.7606Y-3.8295
X1.7606Y-5.3215
X1.7618Y-1.7635
X1.7618Y-3.2555
X1.7706Y-4.4605
X1.7706Y-4.4915
X1.7718Y-2.3945
X1.7718Y-2.4255
X1.7746Y-4.2405
X1.7746Y-4.3025
X1.7758Y-2.1745
X1.7758Y-2.2365
X1.7776Y-4.1995
X1.7786Y-4.6905
X1.7788Y-2.1335
X1.7796Y-4.6565
X1.7798Y-2.6245
X1.7808Y-2.5905
X1.8176Y-4.7675
X1.8188Y-2.7015
X1.8396Y-5.2885
X1.8408Y-3.2225
X1.8696Y-4.5855
X1.8708Y-2.5195
X1.8786Y-4.0725
X1.8798Y-2.0065
X1.8976Y-5.1245
X1.8988Y-3.0585
X1.8996Y-4.5855
X1.9008Y-2.5195
X1.9386Y-4.5985
X1.9398Y-2.5325
X1.9566Y-4.4155
X1.9578Y-2.3495
X2.0106Y-4.3655
X2.0118Y-2.2995
X2.0136Y-4.0225
X2.0148Y-1.9565
X2.0156Y-5.2975
X2.0168Y-3.2315
X2.0256Y-5.1525
X2.0268Y-3.0865
X2.1136Y-4.9355
X2.1148Y-2.8695
X2.1286Y-5.4105
X2.1298Y-3.3445
X2.1376Y-4.7925
X2.1388Y-2.7265
X2.1396Y-3.7135
X2.1408Y-1.6475
X2.1446Y-5.5005
X2.1458Y-3.4345
X2.1486Y-4.3405
X2.1498Y-2.2745
X2.1546Y-5.2985
X2.1558Y-3.2325
X2.1596Y-3.7565
X2.1608Y-1.6905
X2.1676Y-3.6295
X2.1688Y-1.5635
X2.1746Y-4.3825
X2.1758Y-2.3165
X2.1796Y-3.7765
X2.1808Y-1.7105
X2.1906Y-5.3445
X2.1918Y-3.2785
X2.2096Y-4.6345
X2.2108Y-2.5685
X2.2156Y-5.1435
X2.2168Y-3.0775
X2.2266Y-4.4945
X2.2278Y-2.4285
X2.2386Y-5.1825
X2.2398Y-3.1165
X2.2986Y-4.0245
X2.2998Y-1.9585
X2.3346Y-4.2725
X2.3358Y-2.2065
X2.3706Y-5.3355
X2.3718Y-3.2695
X2.3866Y-3.9835
X2.3878Y-1.9175
X2.4116Y-5.4425
X2.4128Y-3.3765
X2.4146Y-4.3485
X2.4158Y-2.2825
X2.4346Y-3.7005
X2.4358Y-1.6345
X2.6607Y-3.379
X2.6799Y-5.4496
X2.7947Y-1.616
X2.8107Y-2.706
X2.8107Y-2.981
X2.8139Y-3.6866
X2.8299Y-4.7766
X2.8299Y-5.0516
X2.8927Y-3.326
X2.8947Y-3.297
X2.9097Y-1.734
X2.9119Y-5.3966
X2.9139Y-5.3676
X2.9217Y-1.561
X2.9289Y-3.8046
X2.9327Y-3.355
X2.9409Y-3.6316
X2.9519Y-5.4256
X2.9557Y-3.435
X2.9567Y-1.777
X2.9647Y-2.811
X2.9749Y-5.5056
X2.9757Y-1.592
X2.9759Y-3.8476
X2.9839Y-4.8816
X2.9949Y-3.6626
X2.9997Y-3.159
X3.0037Y-2.591
X3.0137Y-2.702
X3.0189Y-5.2296
X3.0207Y-1.89
X3.0229Y-4.6616
X3.0237Y-1.531
X3.0329Y-4.7726
X3.0337Y-2.894
X3.0399Y-3.9606
X3.0429Y-3.6016
X3.0529Y-4.9646
X3.0747Y-1.907
X3.0939Y-3.9776
X3.1387Y-2.235
X3.1407Y-2.616
X3.1579Y-4.3056
X3.1599Y-4.6866
X3.1637Y-3.062
X3.1717Y-2.234
X3.1717Y-2.616
X3.1829Y-5.1326
X3.1909Y-4.3046
X3.1909Y-4.6866
X3.1977Y-2.361
X3.2037Y-2.331
X3.2169Y-4.4316
X3.2177Y-3.371
X3.2229Y-4.4016
X3.2369Y-5.4416
X3.2717Y-1.763
X3.2717Y-3.255
X3.2817Y-2.394
X3.2817Y-2.425
X3.2857Y-2.174
X3.2857Y-2.236
X3.2887Y-2.133
X3.2897Y-2.624
X3.2907Y-2.59
X3.2909Y-3.8336
X3.2909Y-5.3256
X3.3009Y-4.4646
X3.3009Y-4.4956
X3.3049Y-4.2446
X3.3049Y-4.3066
X3.3079Y-4.2036
X3.3089Y-4.6946
X3.3099Y-4.6606
X3.3287Y-2.701
X3.3479Y-4.7716
X3.3507Y-3.222
X3.3699Y-5.2926
X3.3807Y-2.519
X3.3897Y-2.006
X3.3999Y-4.5896
X3.4087Y-3.058
X3.4089Y-4.0766
X3.4107Y-2.519
X3.4279Y-5.1286
X3.4299Y-4.5896
X3.4497Y-2.532
X3.4677Y-2.349
X3.4689Y-4.6026
X3.4869Y-4.4196
X3.5217Y-2.299
X3.5247Y-1.956
X3.5267Y-3.231
X3.5367Y-3.086
X3.5409Y-4.3696
X3.5439Y-4.0266
X3.5459Y-5.3016
X3.5559Y-5.1566
X3.6247Y-2.869
X3.6397Y-3.344
X3.6439Y-4.9396
X3.6487Y-2.726
X3.6507Y-1.647
X3.6557Y-3.434
X3.6589Y-5.4146
X3.6597Y-2.274
X3.6657Y-3.232
X3.6679Y-4.7966
X3.6699Y-3.7176
X3.6707Y-1.69
X3.6749Y-5.5046
X3.6787Y-1.563
X3.6789Y-4.3446
X3.6849Y-5.3026
X3.6857Y-2.316
X3.6899Y-3.7606
X3.6907Y-1.71
X3.6979Y-3.6336
X3.7017Y-3.278
X3.7049Y-4.3866
X3.7099Y-3.7806
X3.7207Y-2.568
X3.7209Y-5.3486
X3.7267Y-3.077
X3.7377Y-2.428
X3.7399Y-4.6386
X3.7459Y-5.1476
X3.7497Y-3.116
X3.7569Y-4.4986
X3.7689Y-5.1866
X3.8097Y-1.958
X3.8289Y-4.0286
X3.8457Y-2.206
X3.8649Y-4.2766
X3.8817Y-3.269
X3.8977Y-1.917
X3.9009Y-5.3396
X3.9169Y-3.9876
X3.9227Y-3.376
X3.9257Y-2.282
X3.9419Y-5.4466
X3.9449Y-4.3526
X3.9457Y-1.634
X3.9649Y-3.7046
X4.1642Y-3.3731
X4.1835Y-5.4496
X4.2982Y-1.6101
X4.3142Y-2.7001
X4.3142Y-2.9751
X4.3175Y-3.6866
X4.3335Y-4.7766
X4.3335Y-5.0516
X4.3962Y-3.3201
X4.3982Y-3.2911
X4.4132Y-1.7281
X4.4155Y-5.3966
X4.4175Y-5.3676
X4.4252Y-1.5551
X4.4325Y-3.8046
X4.4362Y-3.3491
X4.4445Y-3.6316
X4.4555Y-5.4256
X4.4592Y-3.4291
X4.4602Y-1.7711
X4.4682Y-2.8051
X4.4785Y-5.5056
X4.4792Y-1.5861
X4.4795Y-3.8476
X4.4875Y-4.8816
X4.4985Y-3.6626
X4.5032Y-3.1531
X4.5072Y-2.5851
X4.5172Y-2.6961
X4.5225Y-5.2296
X4.5242Y-1.8841
X4.5265Y-4.6616
X4.5272Y-1.5251
X4.5365Y-4.7726
X4.5372Y-2.8881
X4.5435Y-3.9606
X4.5465Y-3.6016
X4.5565Y-4.9646
X4.5782Y-1.9011
X4.5975Y-3.9776
X4.6422Y-2.2291
X4.6442Y-2.6101
X4.6615Y-4.3056
X4.6635Y-4.6866
X4.6672Y-3.0561
X4.6752Y-2.2281
X4.6752Y-2.6101
X4.6865Y-5.1326
X4.6945Y-4.3046
X4.6945Y-4.6866
X4.7012Y-2.3551
X4.7072Y-2.3251
X4.7205Y-4.4316
X4.7212Y-3.3651
X4.7265Y-4.4016
X4.7405Y-5.4416
X4.7752Y-1.7571
X4.7752Y-3.2491
X4.7852Y-2.3881
X4.7852Y-2.4191
X4.7892Y-2.1681
X4.7892Y-2.2301
X4.7922Y-2.1271
X4.7932Y-2.6181
X4.7942Y-2.5841
X4.7945Y-3.8336
X4.7945Y-5.3256
X4.8045Y-4.4646
X4.8045Y-4.4956
X4.8085Y-4.2446
X4.8085Y-4.3066
X4.8115Y-4.2036
X4.8125Y-4.6946
X4.8135Y-4.6606
X4.8322Y-2.6951
X4.8515Y-4.7716
X4.8542Y-3.2161
X4.8735Y-5.2926
X4.8842Y-2.5131
X4.8932Y-2.0001
X4.9035Y-4.5896
X4.9122Y-3.0521
X4.9125Y-4.0766
X4.9142Y-2.5131
X4.9315Y-5.1286
X4.9335Y-4.5896
X4.9532Y-2.5261
X4.9712Y-2.3431
X4.9725Y-4.6026
X4.9905Y-4.4196
X5.0252Y-2.2931
X5.0282Y-1.9501
X5.0302Y-3.2251
X5.0402Y-3.0801
X5.0445Y-4.3696
X5.0475Y-4.0266
X5.0495Y-5.3016
X5.0595Y-5.1566
X5.1282Y-2.8631
X5.1432Y-3.3381
X5.1475Y-4.9396
X5.1522Y-2.7201
X5.1542Y-1.6411
X5.1592Y-3.4281
X5.1625Y-5.4146
X5.1632Y-2.2681
X5.1692Y-3.2261
X5.1715Y-4.7966
X5.1735Y-3.7176
X5.1742Y-1.6841
X5.1785Y-5.5046
X5.1822Y-1.5571
X5.1825Y-4.3446
X5.1885Y-5.3026
X5.1892Y-2.3101
X5.1935Y-3.7606
X5.1942Y-1.7041
X5.2015Y-3.6336
X5.2052Y-3.2721
X5.2085Y-4.3866
X5.2135Y-3.7806
X5.2242Y-2.5621
X5.2245Y-5.3486
X5.2302Y-3.0711
X5.2412Y-2.4221
X5.2435Y-4.6386
X5.2495Y-5.1476
X5.2532Y-3.1101
X5.2605Y-4.4986
X5.2725Y-5.1866
X5.3132Y-1.9521
X5.3325Y-4.0286
X5.3492Y-2.2001
X5.3685Y-4.2766
X5.3852Y-3.2631
X5.4012Y-1.9111
X5.4045Y-5.3396
X5.4205Y-3.9876
X5.4262Y-3.3701
X5.4292Y-2.2761
X5.4455Y-5.4466
X5.4485Y-4.3526
X5.4492Y-1.6281
X5.4685Y-3.7046
X5.6411Y-4.5408
X5.6411Y-5.0858
X5.6481Y-2.087
X5.6991Y-4.6678
X5.7151Y-1.853
X5.739Y-4.9798
X5.7861Y-4.8108
X5.7871Y-4.6688
X5.8361Y-4.7358
X5.8461Y-4.8798
X5.8811Y-4.8908
X5.8811Y-4.9658
X5.8981Y-2.396
X5.9361Y-2.855
X5.9411Y-4.6008
X5.9461Y-5.0908
X5.9481Y-2.087
X5.9521Y-3.305
X6.0321Y-1.882
X6.0751Y-3.305
X6.0861Y-2.393
X6.0921Y-1.667
X6.1081Y-3.182
X6.1111Y-3.602
X6.1381Y-2.266
X6.1421Y-2.024
X6.1431Y-1.8856
X6.1631Y-2.159
X6.1711Y-2.011
X6.1711Y-2.072
X6.1711Y-2.879
X6.1711Y-3.21
X6.1836Y-4.8448
X6.1886Y-4.5398
X6.1887Y-5.5352
X6.1937Y-5.2302
X6.2041Y-2.866
X6.2041Y-3.299
X6.2161Y-3.037
X6.2281Y-2.972
X6.2316Y-3.2125
X6.2342Y-2.8349
X6.2491Y-2.432
X6.2821Y-2.715
X6.2946Y-4.6377
X6.2997Y-5.328
X6.3086Y-4.7798
X6.3137Y-5.4702
X6.3181Y-2.928
X6.3201Y-2.832
X6.3311Y-3.235
X6.3371Y-2.953
X6.3571Y-3.392
X6.3631Y-1.819
X6.3836Y-4.7798
X6.3887Y-5.4702
X6.3946Y-4.7448
X6.3997Y-5.4352
X6.4011Y-3.079
X6.4281Y-3.042
X6.4301Y-2.972
X6.4331Y-2.296
X6.4341Y-1.969
X6.4441Y-3.306
X6.4591Y-3.495
X6.4636Y-4.6848
X6.4687Y-5.3752
X6.505Y-1.8809
X6.5081Y-2.152
X6.5101Y-2.198
X6.5111Y-1.786
X6.5121Y-2.047
X6.5386Y-4.7348
X6.5437Y-5.4252
X6.5491Y-3.306
X6.5561Y-2.122
X6.5581Y-2.797
X6.5591Y-2.669
X6.5601Y-3.071
X6.5751Y-2.927
X6.6056Y-4.6858
X6.6066Y-4.5978
X6.6107Y-5.3762
X6.6117Y-5.2882
X6.6262Y-2.1051
X6.6311Y-1.731
X6.6471Y-1.897
X6.6501Y-2.095
X6.6681Y-2.532
X6.6736Y-4.8398
X6.6787Y-5.5302
X6.7181Y-2.562
X6.7211Y-1.99
X6.728Y-3.0831
X6.7281Y-3.252
X6.7281Y-3.322
X6.7336Y-4.5398
X6.7387Y-5.2302
X6.8795Y-2.087
X6.8823Y-4.5421
X6.8823Y-5.0871
X6.9403Y-4.6691
X6.9465Y-1.853
X6.9802Y-4.9811
X7.0273Y-4.8121
X7.0283Y-4.6701
X7.0773Y-4.7371
X7.0873Y-4.8811
X7.1223Y-4.8921
X7.1223Y-4.9671
X7.1295Y-2.396
X7.1675Y-2.855
X7.1795Y-2.087
X7.1823Y-4.6021
X7.1835Y-3.305
X7.1873Y-5.0921
X7.2635Y-1.882
X7.3065Y-3.305
X7.3175Y-2.393
X7.3235Y-1.667
X7.3395Y-3.182
X7.3425Y-3.602
X7.3695Y-2.266
X7.3735Y-2.024
X7.3745Y-1.8856
X7.3945Y-2.159
X7.4025Y-2.011
X7.4025Y-2.072
X7.4025Y-2.879
X7.4025Y-3.21
X7.4159Y-4.8541
X7.4199Y-5.5352
X7.4209Y-4.5491
X7.4249Y-5.2302
X7.4355Y-2.866
X7.4355Y-3.299
X7.4475Y-3.037
X7.4595Y-2.972
X7.463Y-3.2125
X7.4656Y-2.8349
X7.4805Y-2.432
X7.5135Y-2.715
X7.5269Y-4.6469
X7.5309Y-5.328
X7.5409Y-4.7891
X7.5449Y-5.4702
X7.5495Y-2.928
X7.5515Y-2.832
X7.5625Y-3.235
X7.5685Y-2.953
X7.5885Y-3.392
X7.5945Y-1.819
X7.6159Y-4.7891
X7.6199Y-5.4702
X7.6269Y-4.7541
X7.6309Y-5.4352
X7.6325Y-3.079
X7.6595Y-3.042
X7.6615Y-2.972
X7.6645Y-2.296
X7.6655Y-1.969
X7.6755Y-3.306
X7.6905Y-3.495
X7.6959Y-4.6941
X7.6999Y-5.3752
X7.7364Y-1.8809
X7.7395Y-2.152
X7.7415Y-2.198
X7.7425Y-1.786
X7.7435Y-2.047
X7.7709Y-4.7441
X7.7749Y-5.4252
X7.7805Y-3.306
X7.7875Y-2.122
X7.7895Y-2.797
X7.7905Y-2.669
X7.7915Y-3.071
X7.8065Y-2.927
X7.8379Y-4.6951
X7.8389Y-4.6071
X7.8419Y-5.3762
X7.8429Y-5.2882
X7.8576Y-2.1051
X7.8625Y-1.731
X7.8785Y-1.897
X7.8815Y-2.095
X7.8995Y-2.532
X7.9059Y-4.8491
X7.9099Y-5.5302
X7.9495Y-2.562
X7.9525Y-1.99
X7.9594Y-3.0831
X7.9595Y-3.252
X7.9595Y-3.322
X7.9659Y-4.5491
X7.9699Y-5.2302
T2
X1.4567Y-4.4531
X1.4567Y-4.5309
X1.4579Y-2.3871
X1.4579Y-2.4649
X1.4956Y-4.4142
X1.4956Y-4.492
X1.4956Y-4.5697
X1.4968Y-2.3483
X1.4968Y-2.426
X1.4968Y-2.5038
X1.5345Y-4.4531
X1.5345Y-4.5309
X1.5357Y-2.3871
X1.5357Y-2.4649
X1.5734Y-4.4142
X1.5734Y-4.492
X1.5734Y-4.5697
X1.5746Y-2.3483
X1.5746Y-2.426
X1.5746Y-2.5038
X1.6122Y-4.4531
X1.6122Y-4.5309
X1.6134Y-2.3871
X1.6134Y-2.4649
X2.9678Y-2.3867
X2.9678Y-2.4644
X2.9871Y-4.4573
X2.9871Y-4.535
X3.0067Y-2.3478
X3.0067Y-2.4255
X3.0067Y-2.5033
X3.026Y-4.4184
X3.026Y-4.4961
X3.026Y-4.5739
X3.0456Y-2.3867
X3.0456Y-2.4644
X3.0649Y-4.4573
X3.0649Y-4.535
X3.0844Y-2.3478
X3.0844Y-2.4255
X3.0844Y-2.5033
X3.1037Y-4.4184
X3.1037Y-4.4961
X3.1037Y-4.5739
X3.1233Y-2.3867
X3.1233Y-2.4644
X3.1426Y-4.4573
X3.1426Y-4.535
X4.4714Y-2.3807
X4.4714Y-2.4584
X4.4907Y-4.4573
X4.4907Y-4.535
X4.5103Y-2.3418
X4.5103Y-2.4196
X4.5103Y-2.4973
X4.5296Y-4.4184
X4.5296Y-4.4961
X4.5296Y-4.5739
X4.5491Y-2.3807
X4.5491Y-2.4584
X4.5684Y-4.4573
X4.5684Y-4.535
X4.588Y-2.3418
X4.588Y-2.4196
X4.588Y-2.4973
X4.6073Y-4.4184
X4.6073Y-4.4961
X4.6073Y-4.5739
X4.6269Y-2.3807
X4.6269Y-2.4584
X4.6462Y-4.4573
X4.6462Y-4.535
X5.9989Y-2.9832
X5.9989Y-3.061
X6.0378Y-2.9444
X6.0378Y-3.0221
X6.0378Y-3.0999
X6.0767Y-2.9832
X6.0767Y-3.061
X6.1156Y-2.9444
X6.1156Y-3.0221
X6.1156Y-3.0999
X6.1544Y-2.9832
X6.1544Y-3.061
X7.2303Y-2.9832
X7.2303Y-3.061
X7.2692Y-2.9444
X7.2692Y-3.0221
X7.2692Y-3.0999
X7.3081Y-2.9832
X7.3081Y-3.061
X7.3469Y-2.9444
X7.3469Y-3.0221
X7.3469Y-3.0999
X7.3858Y-2.9832
X7.3858Y-3.061
T5
X2.0929Y-4.1701
X2.0929Y-4.2489
X2.0941Y-2.1041
X2.0941Y-2.1829
X3.604Y-2.1037
X3.604Y-2.1824
X3.6233Y-4.1743
X3.6233Y-4.253
X5.1076Y-2.0977
X5.1076Y-2.1764
X5.1269Y-4.1743
X5.1269Y-4.253
X6.5481Y-2.3533
X6.6269Y-2.3533
X7.7795Y-2.3533
X7.8583Y-2.3533
T6
X1.3586Y-4.1315
X1.3598Y-2.0655
X1.4586Y-4.1315
X1.4598Y-2.0655
X1.5586Y-4.1315
X1.5598Y-2.0655
X1.6586Y-4.1315
X1.6598Y-2.0655
X2.8697Y-2.065
X2.8889Y-4.1356
X2.9697Y-2.065
X2.9889Y-4.1356
X3.0697Y-2.065
X3.0889Y-4.1356
X3.1697Y-2.065
X3.1889Y-4.1356
X4.3732Y-2.0591
X4.3925Y-4.1356
X4.4732Y-2.0591
X4.4925Y-4.1356
X4.5732Y-2.0591
X4.5925Y-4.1356
X4.6732Y-2.0591
X4.6925Y-4.1356
X5.7531Y-2.612
X5.8531Y-2.612
X5.9531Y-2.612
X6.0531Y-2.612
X6.5329Y-3.607
X6.6329Y-3.607
X6.9844Y-2.612
X7.0844Y-2.612
X7.1844Y-2.612
X7.2844Y-2.612
X7.7643Y-3.607
X7.8643Y-3.607
T7
X6.1544Y-4.3506
X6.4981Y-4.0069
X7.3858Y-4.3506
X7.7295Y-4.0069
T8
X6.0265Y-3.6033
X6.0265Y-3.7805
X6.2824Y-3.6033
X6.2824Y-3.7805
X7.2579Y-3.6033
X7.2579Y-3.7805
X7.5138Y-3.6033
X7.5138Y-3.7805
T9
X5.9054Y-3.81
X6.4034Y-4.2037
X7.1368Y-3.81
X7.6348Y-4.2037
T3
G00X1.6215Y-5.0591
M15
G01X1.6215Y-5.0867
M16
G05
G00X1.6227Y-2.9932
M15
G01X1.6227Y-3.0207
M16
G05
G00X1.9577Y-5.0591
M15
G01X1.9577Y-5.0867
M16
G05
G00X1.9589Y-2.9932
M15
G01X1.9589Y-3.0207
M16
G05
G00X3.1325Y-2.9927
M15
G01X3.1325Y-3.0202
M16
G05
G00X3.1518Y-5.0633
M15
G01X3.1518Y-5.0909
M16
G05
G00X3.4688Y-2.9927
M15
G01X3.4688Y-3.0202
M16
G05
G00X3.4881Y-5.0633
M15
G01X3.4881Y-5.0909
M16
G05
G00X4.6361Y-2.9867
M15
G01X4.6361Y-3.0143
M16
G05
G00X4.6554Y-5.0633
M15
G01X4.6554Y-5.0909
M16
G05
G00X4.9723Y-2.9867
M15
G01X4.9723Y-3.0143
M16
G05
G00X4.9916Y-5.0633
M15
G01X4.9916Y-5.0909
M16
G05
T4
G00X5.6961Y-1.6343
M15
G01X5.6961Y-1.6028
M16
G05
G00X5.6961Y-1.8048
M15
G01X5.6961Y-1.7615
M16
G05
G00X6.0362Y-1.6343
M15
G01X6.0362Y-1.6028
M16
G05
G00X6.0362Y-1.8048
M15
G01X6.0362Y-1.7615
M16
G05
G00X6.9275Y-1.6343
M15
G01X6.9275Y-1.6028
M16
G05
G00X6.9275Y-1.8048
M15
G01X6.9275Y-1.7615
M16
G05
G00X7.2676Y-1.6343
M15
G01X7.2676Y-1.6028
M16
G05
G00X7.2676Y-1.8048
M15
G01X7.2676Y-1.7615
M16
G05
T7
G00X6.0521Y-4.3506
M15
G01X6.0757Y-4.3506
M16
G05
G00X6.2332Y-4.3506
M15
G01X6.2568Y-4.3506
M16
G05
G00X6.4981Y-3.9045
M15
G01X6.4981Y-3.9281
M16
G05
G00X6.4981Y-4.0856
M15
G01X6.4981Y-4.1092
M16
G05
G00X7.2835Y-4.3506
M15
G01X7.3071Y-4.3506
M16
G05
G00X7.4646Y-4.3506
M15
G01X7.4882Y-4.3506
M16
G05
G00X7.7295Y-3.9045
M15
G01X7.7295Y-3.9281
M16
G05
G00X7.7295Y-4.0856
M15
G01X7.7295Y-4.1092
M16
G05
M30
