%TF.GenerationSoftware,KiCad,Pcbnew,8.0.5*%
%TF.CreationDate,2025-01-25T11:08:43+05:30*%
%TF.ProjectId,racer,72616365-722e-46b6-9963-61645f706362,rev?*%
%TF.SameCoordinates,Original*%
%TF.FileFunction,Soldermask,Top*%
%TF.FilePolarity,Negative*%
%FSLAX46Y46*%
G04 Gerber Fmt 4.6, Leading zero omitted, Abs format (unit mm)*
G04 Created by KiCad (PCBNEW 8.0.5) date 2025-01-25 11:08:43*
%MOMM*%
%LPD*%
G01*
G04 APERTURE LIST*
G04 Aperture macros list*
%AMRoundRect*
0 Rectangle with rounded corners*
0 $1 Rounding radius*
0 $2 $3 $4 $5 $6 $7 $8 $9 X,Y pos of 4 corners*
0 Add a 4 corners polygon primitive as box body*
4,1,4,$2,$3,$4,$5,$6,$7,$8,$9,$2,$3,0*
0 Add four circle primitives for the rounded corners*
1,1,$1+$1,$2,$3*
1,1,$1+$1,$4,$5*
1,1,$1+$1,$6,$7*
1,1,$1+$1,$8,$9*
0 Add four rect primitives between the rounded corners*
20,1,$1+$1,$2,$3,$4,$5,0*
20,1,$1+$1,$4,$5,$6,$7,0*
20,1,$1+$1,$6,$7,$8,$9,0*
20,1,$1+$1,$8,$9,$2,$3,0*%
G04 Aperture macros list end*
%ADD10C,0.010000*%
%ADD11C,0.000000*%
%ADD12RoundRect,0.225000X-0.225000X-0.250000X0.225000X-0.250000X0.225000X0.250000X-0.225000X0.250000X0*%
%ADD13RoundRect,0.225000X0.250000X-0.225000X0.250000X0.225000X-0.250000X0.225000X-0.250000X-0.225000X0*%
%ADD14RoundRect,0.225000X-0.250000X0.225000X-0.250000X-0.225000X0.250000X-0.225000X0.250000X0.225000X0*%
%ADD15RoundRect,0.225000X0.225000X0.250000X-0.225000X0.250000X-0.225000X-0.250000X0.225000X-0.250000X0*%
%ADD16RoundRect,0.200000X-0.200000X-0.275000X0.200000X-0.275000X0.200000X0.275000X-0.200000X0.275000X0*%
%ADD17RoundRect,0.200000X0.200000X0.275000X-0.200000X0.275000X-0.200000X-0.275000X0.200000X-0.275000X0*%
%ADD18RoundRect,0.200000X-0.275000X0.200000X-0.275000X-0.200000X0.275000X-0.200000X0.275000X0.200000X0*%
%ADD19R,2.000000X2.000000*%
%ADD20C,2.700000*%
%ADD21RoundRect,0.200000X0.275000X-0.200000X0.275000X0.200000X-0.275000X0.200000X-0.275000X-0.200000X0*%
%ADD22RoundRect,0.175000X-0.175000X-0.325000X0.175000X-0.325000X0.175000X0.325000X-0.175000X0.325000X0*%
%ADD23RoundRect,0.075000X-0.340000X-0.075000X0.340000X-0.075000X0.340000X0.075000X-0.340000X0.075000X0*%
%ADD24RoundRect,0.225000X-0.225000X-0.425000X0.225000X-0.425000X0.225000X0.425000X-0.225000X0.425000X0*%
%ADD25RoundRect,0.102000X0.325000X-0.525000X0.325000X0.525000X-0.325000X0.525000X-0.325000X-0.525000X0*%
%ADD26RoundRect,0.250000X0.625000X-0.350000X0.625000X0.350000X-0.625000X0.350000X-0.625000X-0.350000X0*%
%ADD27O,1.750000X1.200000*%
%ADD28RoundRect,0.102000X-0.350000X-1.000000X0.350000X-1.000000X0.350000X1.000000X-0.350000X1.000000X0*%
%ADD29RoundRect,0.102000X-0.400000X-1.000000X0.400000X-1.000000X0.400000X1.000000X-0.400000X1.000000X0*%
%ADD30RoundRect,0.102000X-0.450000X-1.000000X0.450000X-1.000000X0.450000X1.000000X-0.450000X1.000000X0*%
%ADD31O,1.204000X1.904000*%
%ADD32RoundRect,0.075000X0.340000X0.075000X-0.340000X0.075000X-0.340000X-0.075000X0.340000X-0.075000X0*%
%ADD33RoundRect,0.225000X0.225000X0.425000X-0.225000X0.425000X-0.225000X-0.425000X0.225000X-0.425000X0*%
%ADD34RoundRect,0.218750X-0.256250X0.218750X-0.256250X-0.218750X0.256250X-0.218750X0.256250X0.218750X0*%
%ADD35R,1.700000X1.700000*%
%ADD36O,1.700000X1.700000*%
%ADD37RoundRect,0.102000X0.200000X-0.400000X0.200000X0.400000X-0.200000X0.400000X-0.200000X-0.400000X0*%
%ADD38RoundRect,0.102000X0.400000X-0.200000X0.400000X0.200000X-0.400000X0.200000X-0.400000X-0.200000X0*%
%ADD39RoundRect,0.102000X0.725000X-0.725000X0.725000X0.725000X-0.725000X0.725000X-0.725000X-0.725000X0*%
%ADD40RoundRect,0.102000X0.350000X-0.350000X0.350000X0.350000X-0.350000X0.350000X-0.350000X-0.350000X0*%
%ADD41RoundRect,0.102000X-0.525000X-0.325000X0.525000X-0.325000X0.525000X0.325000X-0.525000X0.325000X0*%
%ADD42RoundRect,0.150000X-0.200000X0.150000X-0.200000X-0.150000X0.200000X-0.150000X0.200000X0.150000X0*%
%ADD43C,1.000000*%
%ADD44RoundRect,0.102000X1.250000X-0.600000X1.250000X0.600000X-1.250000X0.600000X-1.250000X-0.600000X0*%
%ADD45RoundRect,0.134560X-0.097440X-0.387440X0.097440X-0.387440X0.097440X0.387440X-0.097440X0.387440X0*%
%ADD46RoundRect,0.102000X-1.175000X-0.790000X1.175000X-0.790000X1.175000X0.790000X-1.175000X0.790000X0*%
G04 APERTURE END LIST*
D10*
%TO.C,U5*%
X177282800Y-112795000D02*
X176282800Y-112795000D01*
X175632800Y-112145000D01*
X175632800Y-111145000D01*
X177282800Y-111145000D01*
X177282800Y-112795000D01*
G36*
X177282800Y-112795000D02*
G01*
X176282800Y-112795000D01*
X175632800Y-112145000D01*
X175632800Y-111145000D01*
X177282800Y-111145000D01*
X177282800Y-112795000D01*
G37*
D11*
%TO.C,G\u002A\u002A\u002A*%
G36*
X198634466Y-92734875D02*
G01*
X198598834Y-92734170D01*
X198571577Y-92732175D01*
X198538259Y-92727756D01*
X198514443Y-92723502D01*
X198422958Y-92697434D01*
X198338584Y-92658417D01*
X198262213Y-92607154D01*
X198194732Y-92544346D01*
X198137032Y-92470696D01*
X198091051Y-92389141D01*
X198065293Y-92326978D01*
X198048407Y-92266456D01*
X198038696Y-92200876D01*
X198036611Y-92174470D01*
X198037922Y-92081039D01*
X198053503Y-91990346D01*
X198082683Y-91903782D01*
X198124790Y-91822736D01*
X198179153Y-91748598D01*
X198245099Y-91682759D01*
X198291715Y-91646571D01*
X198353554Y-91609214D01*
X198421466Y-91578766D01*
X198491263Y-91556666D01*
X198558753Y-91544357D01*
X198595084Y-91542271D01*
X198634466Y-91542140D01*
X198634466Y-92734875D01*
G37*
G36*
X201951994Y-91542193D02*
G01*
X201988040Y-91545072D01*
X202032230Y-91552774D01*
X202079002Y-91564012D01*
X202122796Y-91577503D01*
X202148908Y-91587689D01*
X202188389Y-91607703D01*
X202232647Y-91634261D01*
X202275824Y-91663575D01*
X202312060Y-91691856D01*
X202317791Y-91696903D01*
X202376902Y-91760090D01*
X202426289Y-91832979D01*
X202465069Y-91913148D01*
X202492356Y-91998178D01*
X202507268Y-92085648D01*
X202508921Y-92173136D01*
X202505299Y-92210423D01*
X202485614Y-92303326D01*
X202452922Y-92390074D01*
X202408217Y-92469592D01*
X202352494Y-92540807D01*
X202286746Y-92602646D01*
X202211968Y-92654035D01*
X202129153Y-92693900D01*
X202039297Y-92721169D01*
X202030604Y-92723029D01*
X201998201Y-92728895D01*
X201967160Y-92733132D01*
X201943915Y-92734869D01*
X201942934Y-92734875D01*
X201912612Y-92734875D01*
X201912612Y-91542140D01*
X201951994Y-91542193D01*
G37*
G36*
X200273539Y-91651385D02*
G01*
X200316813Y-91651790D01*
X200348883Y-91652955D01*
X200373547Y-91655389D01*
X200394604Y-91659600D01*
X200415850Y-91666096D01*
X200434663Y-91672950D01*
X200511755Y-91709491D01*
X200581264Y-91757443D01*
X200641711Y-91815250D01*
X200691611Y-91881353D01*
X200729483Y-91954195D01*
X200745594Y-91999730D01*
X200759401Y-92069078D01*
X200762764Y-92144104D01*
X200755995Y-92220027D01*
X200739406Y-92292065D01*
X200723793Y-92333891D01*
X200683180Y-92407957D01*
X200631766Y-92472709D01*
X200571093Y-92527363D01*
X200502702Y-92571134D01*
X200428136Y-92603239D01*
X200348934Y-92622893D01*
X200266639Y-92629314D01*
X200182791Y-92621717D01*
X200164768Y-92618189D01*
X200091679Y-92595139D01*
X200021738Y-92559027D01*
X199957048Y-92511761D01*
X199899712Y-92455246D01*
X199851835Y-92391388D01*
X199815519Y-92322092D01*
X199804065Y-92291356D01*
X199796336Y-92265674D01*
X199791143Y-92241802D01*
X199788019Y-92215651D01*
X199786495Y-92183128D01*
X199786100Y-92140143D01*
X199786105Y-92134757D01*
X199786470Y-92091680D01*
X199787745Y-92059629D01*
X199790442Y-92034634D01*
X199795071Y-92012722D01*
X199802143Y-91989922D01*
X199806203Y-91978467D01*
X199835401Y-91910792D01*
X199871590Y-91852312D01*
X199918176Y-91797654D01*
X199925377Y-91790345D01*
X199979616Y-91742354D01*
X200036971Y-91705051D01*
X200102798Y-91675040D01*
X200113498Y-91671043D01*
X200137162Y-91662881D01*
X200157996Y-91657298D01*
X200179784Y-91653829D01*
X200206311Y-91652009D01*
X200241361Y-91651372D01*
X200273539Y-91651385D01*
G37*
G36*
X200305181Y-90110387D02*
G01*
X200385861Y-90113793D01*
X200461736Y-90120401D01*
X200528166Y-90130098D01*
X200536091Y-90131624D01*
X200676529Y-90167031D01*
X200811336Y-90215854D01*
X200939644Y-90277435D01*
X201060583Y-90351115D01*
X201173283Y-90436235D01*
X201276876Y-90532137D01*
X201370493Y-90638162D01*
X201453264Y-90753652D01*
X201524320Y-90877947D01*
X201526355Y-90881992D01*
X201575324Y-90989385D01*
X201613028Y-91094455D01*
X201631056Y-91158576D01*
X201638221Y-91186875D01*
X201644549Y-91212510D01*
X201650097Y-91236565D01*
X201654921Y-91260125D01*
X201659078Y-91284274D01*
X201662625Y-91310096D01*
X201665619Y-91338676D01*
X201668117Y-91371098D01*
X201670175Y-91408447D01*
X201671850Y-91451806D01*
X201673199Y-91502260D01*
X201674279Y-91560894D01*
X201675146Y-91628791D01*
X201675858Y-91707036D01*
X201676470Y-91796714D01*
X201677041Y-91898909D01*
X201677626Y-92014704D01*
X201677808Y-92051314D01*
X201678438Y-92188821D01*
X201678842Y-92312332D01*
X201678959Y-92422853D01*
X201678726Y-92521392D01*
X201678083Y-92608954D01*
X201676966Y-92686546D01*
X201675314Y-92755174D01*
X201673066Y-92815844D01*
X201670160Y-92869563D01*
X201666534Y-92917338D01*
X201662125Y-92960173D01*
X201656873Y-92999077D01*
X201650716Y-93035055D01*
X201643591Y-93069114D01*
X201635438Y-93102259D01*
X201626193Y-93135498D01*
X201615796Y-93169836D01*
X201607530Y-93195904D01*
X201559057Y-93323125D01*
X201497169Y-93446279D01*
X201423106Y-93563787D01*
X201338112Y-93674070D01*
X201243429Y-93775548D01*
X201140301Y-93866641D01*
X201029969Y-93945769D01*
X201005753Y-93960869D01*
X200960645Y-93988270D01*
X200990591Y-94027329D01*
X201018421Y-94068814D01*
X201046519Y-94119701D01*
X201072316Y-94174660D01*
X201093244Y-94228358D01*
X201103381Y-94261426D01*
X201114135Y-94318178D01*
X201119707Y-94383316D01*
X201120025Y-94451116D01*
X201115016Y-94515857D01*
X201107154Y-94561485D01*
X201088346Y-94627301D01*
X201062132Y-94696547D01*
X201031465Y-94761797D01*
X201017436Y-94787130D01*
X200995747Y-94822831D01*
X200972387Y-94858433D01*
X200946204Y-94895385D01*
X200916051Y-94935138D01*
X200880777Y-94979143D01*
X200839232Y-95028850D01*
X200790266Y-95085709D01*
X200732731Y-95151171D01*
X200696802Y-95191609D01*
X200627971Y-95269819D01*
X200568853Y-95339275D01*
X200518287Y-95401559D01*
X200475114Y-95458257D01*
X200438175Y-95510953D01*
X200406311Y-95561233D01*
X200378364Y-95610679D01*
X200353173Y-95660878D01*
X200352528Y-95662242D01*
X200316467Y-95738620D01*
X200293102Y-95701777D01*
X200269402Y-95661304D01*
X200253157Y-95624592D01*
X200243113Y-95586976D01*
X200238016Y-95543790D01*
X200236612Y-95491668D01*
X200238009Y-95439294D01*
X200243090Y-95394986D01*
X200253107Y-95354435D01*
X200269309Y-95313335D01*
X200292947Y-95267375D01*
X200310663Y-95236618D01*
X200344150Y-95174405D01*
X200366528Y-95118784D01*
X200378464Y-95067053D01*
X200380627Y-95016510D01*
X200375577Y-94974066D01*
X200356015Y-94907312D01*
X200323680Y-94845752D01*
X200280274Y-94791659D01*
X200227498Y-94747305D01*
X200188847Y-94724711D01*
X200159957Y-94710997D01*
X200137502Y-94702632D01*
X200115679Y-94698305D01*
X200088686Y-94696707D01*
X200063887Y-94696511D01*
X200027660Y-94697235D01*
X200001409Y-94699976D01*
X199980152Y-94705590D01*
X199960127Y-94714322D01*
X199915812Y-94742045D01*
X199875304Y-94777947D01*
X199842929Y-94817853D01*
X199830307Y-94839685D01*
X199813520Y-94889208D01*
X199806766Y-94945770D01*
X199809873Y-95005416D01*
X199822666Y-95064189D01*
X199842286Y-95113003D01*
X199849818Y-95130833D01*
X199851247Y-95141460D01*
X199849519Y-95142849D01*
X199837477Y-95138315D01*
X199816664Y-95126000D01*
X199789742Y-95107834D01*
X199759377Y-95085748D01*
X199728232Y-95061671D01*
X199698973Y-95037534D01*
X199676936Y-95017811D01*
X199604319Y-94939335D01*
X199543783Y-94852894D01*
X199495835Y-94759850D01*
X199460984Y-94661561D01*
X199439737Y-94559388D01*
X199432602Y-94454689D01*
X199436838Y-94375138D01*
X199452479Y-94274680D01*
X199477458Y-94184102D01*
X199512603Y-94100927D01*
X199551035Y-94034282D01*
X199565351Y-94011489D01*
X199575258Y-93994145D01*
X199578941Y-93985464D01*
X199578804Y-93985070D01*
X199571397Y-93980334D01*
X199554904Y-93970033D01*
X199534644Y-93957479D01*
X199416078Y-93875589D01*
X199307554Y-93782965D01*
X199209628Y-93680497D01*
X199122854Y-93569074D01*
X199047789Y-93449588D01*
X198984988Y-93322927D01*
X198935007Y-93189981D01*
X198898401Y-93051639D01*
X198875726Y-92908793D01*
X198874911Y-92900988D01*
X198873526Y-92879482D01*
X198872271Y-92844408D01*
X198871148Y-92797119D01*
X198870157Y-92738963D01*
X198869296Y-92671291D01*
X198868567Y-92595454D01*
X198867969Y-92512802D01*
X198867502Y-92424685D01*
X198867167Y-92332454D01*
X198866962Y-92237459D01*
X198866889Y-92141051D01*
X198866946Y-92044579D01*
X198867135Y-91949394D01*
X198867454Y-91856847D01*
X198867703Y-91807929D01*
X199475139Y-91807929D01*
X199475232Y-91901580D01*
X199475498Y-92007847D01*
X199475893Y-92127725D01*
X199476078Y-92179766D01*
X199478586Y-92881154D01*
X199499084Y-92956169D01*
X199535229Y-93061710D01*
X199583510Y-93159562D01*
X199643125Y-93248842D01*
X199713273Y-93328667D01*
X199793154Y-93398155D01*
X199881966Y-93456425D01*
X199978909Y-93502594D01*
X200003662Y-93511906D01*
X200107272Y-93541525D01*
X200212544Y-93557270D01*
X200317437Y-93558954D01*
X200405708Y-93549027D01*
X200510940Y-93523078D01*
X200611186Y-93483260D01*
X200705159Y-93430244D01*
X200791571Y-93364700D01*
X200832242Y-93326740D01*
X200905326Y-93243388D01*
X200965413Y-93152719D01*
X201012196Y-93055372D01*
X201045366Y-92951989D01*
X201064427Y-92844889D01*
X201065898Y-92823783D01*
X201067222Y-92789093D01*
X201068401Y-92742236D01*
X201069434Y-92684631D01*
X201070321Y-92617694D01*
X201071062Y-92542844D01*
X201071657Y-92461498D01*
X201072107Y-92375075D01*
X201072410Y-92284991D01*
X201072568Y-92192666D01*
X201072580Y-92099515D01*
X201072446Y-92006959D01*
X201072166Y-91916413D01*
X201071741Y-91829296D01*
X201071169Y-91747026D01*
X201070452Y-91671020D01*
X201069588Y-91602697D01*
X201068579Y-91543473D01*
X201067424Y-91494768D01*
X201066124Y-91457998D01*
X201064677Y-91434581D01*
X201064427Y-91432126D01*
X201045376Y-91325126D01*
X201013303Y-91223926D01*
X200969167Y-91129396D01*
X200913922Y-91042401D01*
X200848526Y-90963812D01*
X200773936Y-90894494D01*
X200691107Y-90835316D01*
X200600996Y-90787145D01*
X200504559Y-90750850D01*
X200402753Y-90727297D01*
X200296535Y-90717355D01*
X200276243Y-90717076D01*
X200165242Y-90723810D01*
X200060175Y-90744315D01*
X199960862Y-90778664D01*
X199867123Y-90826929D01*
X199778778Y-90889181D01*
X199724989Y-90936391D01*
X199653711Y-91012396D01*
X199595577Y-91093227D01*
X199548878Y-91181576D01*
X199516904Y-91264586D01*
X199509909Y-91286031D01*
X199503709Y-91306170D01*
X199498259Y-91325998D01*
X199493516Y-91346508D01*
X199489433Y-91368695D01*
X199485968Y-91393554D01*
X199483075Y-91422078D01*
X199480711Y-91455263D01*
X199478831Y-91494103D01*
X199477391Y-91539592D01*
X199476346Y-91592725D01*
X199475652Y-91654495D01*
X199475264Y-91725899D01*
X199475139Y-91807929D01*
X198867703Y-91807929D01*
X198867905Y-91768287D01*
X198868486Y-91685066D01*
X198869198Y-91608533D01*
X198870041Y-91540039D01*
X198871015Y-91480935D01*
X198872120Y-91432569D01*
X198873355Y-91396294D01*
X198874721Y-91373459D01*
X198874947Y-91371186D01*
X198897008Y-91229179D01*
X198931654Y-91094405D01*
X198979339Y-90965269D01*
X199008974Y-90900764D01*
X199079739Y-90773088D01*
X199161796Y-90654788D01*
X199254365Y-90546434D01*
X199356662Y-90448595D01*
X199467907Y-90361841D01*
X199587315Y-90286740D01*
X199714106Y-90223863D01*
X199847498Y-90173778D01*
X199986707Y-90137056D01*
X200080718Y-90120511D01*
X200147968Y-90113633D01*
X200224336Y-90110296D01*
X200305181Y-90110387D01*
G37*
%TD*%
D12*
%TO.C,D4*%
X169392000Y-88036400D03*
X170942000Y-88036400D03*
%TD*%
D13*
%TO.C,C2*%
X187028400Y-92838000D03*
X187028400Y-91288000D03*
%TD*%
D12*
%TO.C,C16*%
X190995000Y-119786400D03*
X192545000Y-119786400D03*
%TD*%
D14*
%TO.C,C7*%
X180416200Y-131114200D03*
X180416200Y-132664200D03*
%TD*%
D15*
%TO.C,C12*%
X175273000Y-121513600D03*
X173723000Y-121513600D03*
%TD*%
D16*
%TO.C,R6*%
X174257200Y-129603200D03*
X175907200Y-129603200D03*
%TD*%
D17*
%TO.C,R4*%
X194457400Y-94095000D03*
X192807400Y-94095000D03*
%TD*%
D18*
%TO.C,R23*%
X191541400Y-111100600D03*
X191541400Y-112750600D03*
%TD*%
D17*
%TO.C,R14*%
X197243200Y-88036400D03*
X195593200Y-88036400D03*
%TD*%
D19*
%TO.C,J5*%
X180949600Y-135255000D03*
%TD*%
%TO.C,J7*%
X188823600Y-128574800D03*
%TD*%
D12*
%TO.C,C14*%
X197945200Y-105460800D03*
X199495200Y-105460800D03*
%TD*%
D19*
%TO.C,J4*%
X181406800Y-88798400D03*
%TD*%
D14*
%TO.C,D9*%
X195808600Y-119621000D03*
X195808600Y-121171000D03*
%TD*%
D18*
%TO.C,R7*%
X196621400Y-131407400D03*
X196621400Y-133057400D03*
%TD*%
D20*
%TO.C,REF\u002A\u002A*%
X184886600Y-89382600D03*
%TD*%
D21*
%TO.C,R26*%
X173913800Y-96125800D03*
X173913800Y-94475800D03*
%TD*%
D18*
%TO.C,R25*%
X201514200Y-102097800D03*
X201514200Y-103747800D03*
%TD*%
%TO.C,R28*%
X193852800Y-126810000D03*
X193852800Y-128460000D03*
%TD*%
D22*
%TO.C,U6*%
X197820200Y-103458800D03*
X198770200Y-103458800D03*
X199720200Y-103458800D03*
X199720200Y-100858800D03*
X197820200Y-100858800D03*
%TD*%
D12*
%TO.C,C15*%
X197853000Y-99085400D03*
X199403000Y-99085400D03*
%TD*%
D21*
%TO.C,R17*%
X185877200Y-121043200D03*
X185877200Y-119393200D03*
%TD*%
%TO.C,R5*%
X172745400Y-131152400D03*
X172745400Y-129502400D03*
%TD*%
D18*
%TO.C,R29*%
X192227200Y-126835400D03*
X192227200Y-128485400D03*
%TD*%
D19*
%TO.C,J3*%
X181432200Y-95529400D03*
%TD*%
D16*
%TO.C,R12*%
X173241200Y-135610600D03*
X174891200Y-135610600D03*
%TD*%
D14*
%TO.C,C13*%
X185826400Y-112382000D03*
X185826400Y-113932000D03*
%TD*%
D19*
%TO.C,J6*%
X180822600Y-128549400D03*
%TD*%
D14*
%TO.C,D8*%
X199974200Y-119621000D03*
X199974200Y-121171000D03*
%TD*%
D17*
%TO.C,R10*%
X193357000Y-98069400D03*
X191707000Y-98069400D03*
%TD*%
%TO.C,R9*%
X178472600Y-123190000D03*
X176822600Y-123190000D03*
%TD*%
D16*
%TO.C,R30*%
X191707000Y-96469200D03*
X193357000Y-96469200D03*
%TD*%
D23*
%TO.C,U4*%
X192040800Y-131164200D03*
X192040800Y-131664200D03*
X192040800Y-132164200D03*
X192040800Y-132664200D03*
X194170800Y-132664200D03*
X194170800Y-132164200D03*
X194170800Y-131664200D03*
X194170800Y-131164200D03*
D24*
X193115800Y-131914200D03*
%TD*%
D25*
%TO.C,S2*%
X185665800Y-108069200D03*
X185665800Y-103919200D03*
X187815800Y-108069200D03*
X187815800Y-103919200D03*
%TD*%
D18*
%TO.C,R22*%
X194310000Y-114682000D03*
X194310000Y-116332000D03*
%TD*%
%TO.C,R3*%
X196037200Y-92520000D03*
X196037200Y-94170000D03*
%TD*%
D14*
%TO.C,C3*%
X181043000Y-91380200D03*
X181043000Y-92930200D03*
%TD*%
D26*
%TO.C,J12*%
X192617000Y-103819200D03*
D27*
X192617000Y-101819200D03*
%TD*%
D13*
%TO.C,C8*%
X189344800Y-132677200D03*
X189344800Y-131127200D03*
%TD*%
D28*
%TO.C,P1*%
X184412000Y-123950600D03*
D29*
X183392000Y-123950600D03*
D30*
X182162000Y-123950600D03*
D28*
X185412000Y-123950600D03*
D29*
X186432000Y-123950600D03*
D30*
X187662000Y-123950600D03*
D31*
X180642000Y-124750600D03*
X189182000Y-124750600D03*
%TD*%
D17*
%TO.C,R13*%
X196544400Y-135610600D03*
X194894400Y-135610600D03*
%TD*%
D32*
%TO.C,U1*%
X178308000Y-92905200D03*
X178308000Y-92405200D03*
X178308000Y-91905200D03*
X178308000Y-91405200D03*
X176178000Y-91405200D03*
X176178000Y-91905200D03*
X176178000Y-92405200D03*
X176178000Y-92905200D03*
D33*
X177233000Y-92155200D03*
%TD*%
D21*
%TO.C,TH1*%
X191542800Y-109448600D03*
X191542800Y-107798600D03*
%TD*%
D23*
%TO.C,U2*%
X191287400Y-91313000D03*
X191287400Y-91813000D03*
X191287400Y-92313000D03*
X191287400Y-92813000D03*
X193417400Y-92813000D03*
X193417400Y-92313000D03*
X193417400Y-91813000D03*
X193417400Y-91313000D03*
D24*
X192362400Y-92063000D03*
%TD*%
D16*
%TO.C,R15*%
X172644000Y-88036400D03*
X174294000Y-88036400D03*
%TD*%
D34*
%TO.C,D6*%
X201514200Y-97815300D03*
X201514200Y-99390300D03*
%TD*%
D35*
%TO.C,J11*%
X181584600Y-100838000D03*
D36*
X179044600Y-100838000D03*
X176504600Y-100838000D03*
X173964600Y-100838000D03*
%TD*%
D37*
%TO.C,U5*%
X174432800Y-115895000D03*
X175232800Y-115895000D03*
X176032800Y-115895000D03*
X176832800Y-115895000D03*
X177632800Y-115895000D03*
X178432800Y-115895000D03*
X179232800Y-115895000D03*
X180032800Y-115895000D03*
X180832800Y-115895000D03*
X181632800Y-115895000D03*
X182432800Y-115895000D03*
D38*
X183332800Y-114795000D03*
X183332800Y-113995000D03*
X183332800Y-113195000D03*
X183332800Y-112395000D03*
X183332800Y-111595000D03*
X183332800Y-110795000D03*
X183332800Y-109995000D03*
X183332800Y-109195000D03*
X183332800Y-108395000D03*
X183332800Y-107595000D03*
X183332800Y-106795000D03*
X183332800Y-105995000D03*
X183332800Y-105195000D03*
D37*
X182432800Y-104095000D03*
X181632800Y-104095000D03*
X180832800Y-104095000D03*
X180032800Y-104095000D03*
X179232800Y-104095000D03*
X178432800Y-104095000D03*
X177632800Y-104095000D03*
X176832800Y-104095000D03*
X176032800Y-104095000D03*
X175232800Y-104095000D03*
X174432800Y-104095000D03*
D38*
X173532800Y-105195000D03*
X173532800Y-105995000D03*
X173532800Y-106795000D03*
X173532800Y-107595000D03*
X173532800Y-108395000D03*
X173532800Y-109195000D03*
X173532800Y-109995000D03*
X173532800Y-110795000D03*
X173532800Y-111595000D03*
X173532800Y-112395000D03*
X173532800Y-113195000D03*
X173532800Y-113995000D03*
X173532800Y-114795000D03*
D39*
X178432800Y-111970000D03*
X180407800Y-111970000D03*
X176457800Y-109995000D03*
X178432800Y-109995000D03*
X180407800Y-109995000D03*
X176457800Y-108020000D03*
X178432800Y-108020000D03*
X180407800Y-108020000D03*
D40*
X173482800Y-104045000D03*
X183382800Y-104045000D03*
X183382800Y-115945000D03*
X173482800Y-115945000D03*
%TD*%
D13*
%TO.C,C4*%
X188806400Y-92838000D03*
X188806400Y-91288000D03*
%TD*%
D14*
%TO.C,C5*%
X182194200Y-131114200D03*
X182194200Y-132664200D03*
%TD*%
D16*
%TO.C,R11*%
X185585600Y-110236000D03*
X187235600Y-110236000D03*
%TD*%
D15*
%TO.C,D2*%
X199796400Y-135610600D03*
X198246400Y-135610600D03*
%TD*%
D32*
%TO.C,U3*%
X177720200Y-132627200D03*
X177720200Y-132127200D03*
X177720200Y-131627200D03*
X177720200Y-131127200D03*
X175590200Y-131127200D03*
X175590200Y-131627200D03*
X175590200Y-132127200D03*
X175590200Y-132627200D03*
D33*
X176645200Y-131877200D03*
%TD*%
D21*
%TO.C,R1*%
X174244000Y-91401400D03*
X174244000Y-89751400D03*
%TD*%
D12*
%TO.C,D1*%
X170065400Y-135620000D03*
X171615400Y-135620000D03*
%TD*%
D21*
%TO.C,R18*%
X184023000Y-121043200D03*
X184023000Y-119393200D03*
%TD*%
%TO.C,R27*%
X175509400Y-96112600D03*
X175509400Y-94462600D03*
%TD*%
D41*
%TO.C,S3*%
X173210400Y-125213800D03*
X177360400Y-125213800D03*
X173210400Y-127363800D03*
X177360400Y-127363800D03*
%TD*%
D19*
%TO.C,J2*%
X188518800Y-95529400D03*
%TD*%
D13*
%TO.C,C6*%
X187566800Y-132662200D03*
X187566800Y-131112200D03*
%TD*%
D15*
%TO.C,C11*%
X175247600Y-118110000D03*
X173697600Y-118110000D03*
%TD*%
%TO.C,C10*%
X175285400Y-123190000D03*
X173735400Y-123190000D03*
%TD*%
D20*
%TO.C,REF\u002A\u002A*%
X184886600Y-133985000D03*
%TD*%
D14*
%TO.C,C1*%
X182821000Y-91380200D03*
X182821000Y-92930200D03*
%TD*%
D21*
%TO.C,R21*%
X195808600Y-124306600D03*
X195808600Y-122656600D03*
%TD*%
D15*
%TO.C,D3*%
X200495200Y-88061800D03*
X198945200Y-88061800D03*
%TD*%
D19*
%TO.C,J1*%
X188493400Y-88798400D03*
%TD*%
D42*
%TO.C,D5*%
X187655200Y-120918200D03*
X187655200Y-119518200D03*
%TD*%
D19*
%TO.C,J8*%
X188772800Y-135229600D03*
%TD*%
D43*
%TO.C,S1*%
X200736200Y-115972800D03*
X200736200Y-109172800D03*
D44*
X197986200Y-115072800D03*
X197986200Y-112572800D03*
X197986200Y-110072800D03*
%TD*%
D18*
%TO.C,R24*%
X193344800Y-107798600D03*
X193344800Y-109448600D03*
%TD*%
D21*
%TO.C,R20*%
X199974200Y-124294400D03*
X199974200Y-122644400D03*
%TD*%
D16*
%TO.C,R2*%
X175857400Y-89814400D03*
X177507400Y-89814400D03*
%TD*%
D45*
%TO.C,U7*%
X190482600Y-117615000D03*
X190982600Y-117615000D03*
X191482600Y-117615000D03*
X191982600Y-117615000D03*
X192482600Y-117615000D03*
X192482600Y-114745000D03*
X191982600Y-114745000D03*
X191482600Y-114745000D03*
X190982600Y-114745000D03*
X190482600Y-114745000D03*
D46*
X191482600Y-116180000D03*
%TD*%
D13*
%TO.C,C17*%
X189738000Y-112700600D03*
X189738000Y-111150600D03*
%TD*%
D21*
%TO.C,R16*%
X182143400Y-121043200D03*
X182143400Y-119393200D03*
%TD*%
D15*
%TO.C,C9*%
X175273000Y-119786400D03*
X173723000Y-119786400D03*
%TD*%
D21*
%TO.C,R8*%
X198247000Y-133057400D03*
X198247000Y-131407400D03*
%TD*%
M02*
