%TF.GenerationSoftware,KiCad,Pcbnew,8.0.5*%
%TF.CreationDate,2025-01-24T10:40:51+05:30*%
%TF.ProjectId,racer_panelizatio_version2_,72616365-725f-4706-916e-656c697a6174,rev?*%
%TF.SameCoordinates,Original*%
%TF.FileFunction,Paste,Bot*%
%TF.FilePolarity,Positive*%
%FSLAX46Y46*%
G04 Gerber Fmt 4.6, Leading zero omitted, Abs format (unit mm)*
G04 Created by KiCad (PCBNEW 8.0.5) date 2025-01-24 10:40:51*
%MOMM*%
%LPD*%
G01*
G04 APERTURE LIST*
G04 Aperture macros list*
%AMRoundRect*
0 Rectangle with rounded corners*
0 $1 Rounding radius*
0 $2 $3 $4 $5 $6 $7 $8 $9 X,Y pos of 4 corners*
0 Add a 4 corners polygon primitive as box body*
4,1,4,$2,$3,$4,$5,$6,$7,$8,$9,$2,$3,0*
0 Add four circle primitives for the rounded corners*
1,1,$1+$1,$2,$3*
1,1,$1+$1,$4,$5*
1,1,$1+$1,$6,$7*
1,1,$1+$1,$8,$9*
0 Add four rect primitives between the rounded corners*
20,1,$1+$1,$2,$3,$4,$5,0*
20,1,$1+$1,$4,$5,$6,$7,0*
20,1,$1+$1,$6,$7,$8,$9,0*
20,1,$1+$1,$8,$9,$2,$3,0*%
G04 Aperture macros list end*
%ADD10R,0.650000X1.050000*%
%ADD11R,2.400000X0.740000*%
%ADD12RoundRect,0.225000X-0.225000X-0.250000X0.225000X-0.250000X0.225000X0.250000X-0.225000X0.250000X0*%
%ADD13R,1.050000X0.650000*%
%ADD14R,0.740000X2.400000*%
G04 APERTURE END LIST*
D10*
%TO.C,S6*%
X192621600Y-51729200D03*
X192621600Y-55879200D03*
X194771600Y-51729200D03*
X194771600Y-55879200D03*
%TD*%
D11*
%TO.C,J1*%
X162226500Y-118994000D03*
X166126500Y-118994000D03*
X162226500Y-117724000D03*
X166126500Y-117724000D03*
X162226500Y-116454000D03*
X166126500Y-116454000D03*
%TD*%
D12*
%TO.C,D3*%
X198095000Y-72694000D03*
X199645000Y-72694000D03*
%TD*%
D11*
%TO.C,J1*%
X193626800Y-136529000D03*
X197526800Y-136529000D03*
X193626800Y-135259000D03*
X197526800Y-135259000D03*
X193626800Y-133989000D03*
X197526800Y-133989000D03*
%TD*%
%TO.C,J20*%
X86219914Y-99431600D03*
X82319914Y-99431600D03*
X86219914Y-100701600D03*
X82319914Y-100701600D03*
X86219914Y-101971600D03*
X82319914Y-101971600D03*
%TD*%
%TO.C,J20*%
X47379200Y-46850200D03*
X43479200Y-46850200D03*
X47379200Y-48120200D03*
X43479200Y-48120200D03*
X47379200Y-49390200D03*
X43479200Y-49390200D03*
%TD*%
D13*
%TO.C,S2*%
X186033200Y-59748200D03*
X190183200Y-59748200D03*
X186033200Y-57598200D03*
X190183200Y-57598200D03*
%TD*%
D14*
%TO.C,J1*%
X146967800Y-124144000D03*
X146967800Y-120244000D03*
X145697800Y-124144000D03*
X145697800Y-120244000D03*
X144427800Y-124144000D03*
X144427800Y-120244000D03*
%TD*%
D12*
%TO.C,D2*%
X166817500Y-76504000D03*
X168367500Y-76504000D03*
%TD*%
D11*
%TO.C,J20*%
X85730000Y-46838200D03*
X81830000Y-46838200D03*
X85730000Y-48108200D03*
X81830000Y-48108200D03*
X85730000Y-49378200D03*
X81830000Y-49378200D03*
%TD*%
D12*
%TO.C,D1*%
X166817500Y-80314000D03*
X168367500Y-80314000D03*
%TD*%
D13*
%TO.C,S3*%
X154747900Y-50045400D03*
X158897900Y-50045400D03*
X154747900Y-47895400D03*
X158897900Y-47895400D03*
%TD*%
D11*
%TO.C,J20*%
X124410714Y-99431600D03*
X120510714Y-99431600D03*
X124410714Y-100701600D03*
X120510714Y-100701600D03*
X124410714Y-101971600D03*
X120510714Y-101971600D03*
%TD*%
%TO.C,J20*%
X47348600Y-99326200D03*
X43448600Y-99326200D03*
X47348600Y-100596200D03*
X43448600Y-100596200D03*
X47348600Y-101866200D03*
X43448600Y-101866200D03*
%TD*%
D14*
%TO.C,J1*%
X178494000Y-124177500D03*
X178494000Y-120277500D03*
X177224000Y-124177500D03*
X177224000Y-120277500D03*
X175954000Y-124177500D03*
X175954000Y-120277500D03*
%TD*%
D10*
%TO.C,S6*%
X161344100Y-51729200D03*
X161344100Y-55879200D03*
X163494100Y-51729200D03*
X163494100Y-55879200D03*
%TD*%
%TO.C,S5*%
X152335300Y-55887500D03*
X152335300Y-51737500D03*
X150185300Y-55887500D03*
X150185300Y-51737500D03*
%TD*%
D12*
%TO.C,D2*%
X198095000Y-76504000D03*
X199645000Y-76504000D03*
%TD*%
D10*
%TO.C,S5*%
X183612800Y-55887500D03*
X183612800Y-51737500D03*
X181462800Y-55887500D03*
X181462800Y-51737500D03*
%TD*%
D12*
%TO.C,D3*%
X166817500Y-72694000D03*
X168367500Y-72694000D03*
%TD*%
D11*
%TO.C,J20*%
X123920800Y-46686600D03*
X120020800Y-46686600D03*
X123920800Y-47956600D03*
X120020800Y-47956600D03*
X123920800Y-49226600D03*
X120020800Y-49226600D03*
%TD*%
%TO.C,J1*%
X193526800Y-119229000D03*
X197426800Y-119229000D03*
X193526800Y-117959000D03*
X197426800Y-117959000D03*
X193526800Y-116689000D03*
X197426800Y-116689000D03*
%TD*%
D13*
%TO.C,S2*%
X154755700Y-59748200D03*
X158905700Y-59748200D03*
X154755700Y-57598200D03*
X158905700Y-57598200D03*
%TD*%
%TO.C,S3*%
X186025400Y-50045400D03*
X190175400Y-50045400D03*
X186025400Y-47895400D03*
X190175400Y-47895400D03*
%TD*%
D11*
%TO.C,J1*%
X162355800Y-136529000D03*
X166255800Y-136529000D03*
X162355800Y-135259000D03*
X166255800Y-135259000D03*
X162355800Y-133989000D03*
X166255800Y-133989000D03*
%TD*%
D12*
%TO.C,D1*%
X198095000Y-80314000D03*
X199645000Y-80314000D03*
%TD*%
M02*
