%TF.GenerationSoftware,KiCad,Pcbnew,8.0.5*%
%TF.CreationDate,2025-01-25T11:08:43+05:30*%
%TF.ProjectId,racer,72616365-722e-46b6-9963-61645f706362,rev?*%
%TF.SameCoordinates,Original*%
%TF.FileFunction,Legend,Bot*%
%TF.FilePolarity,Positive*%
%FSLAX46Y46*%
G04 Gerber Fmt 4.6, Leading zero omitted, Abs format (unit mm)*
G04 Created by KiCad (PCBNEW 8.0.5) date 2025-01-25 11:08:43*
%MOMM*%
%LPD*%
G01*
G04 APERTURE LIST*
%ADD10C,0.150000*%
%ADD11C,0.000000*%
%ADD12C,0.120000*%
G04 APERTURE END LIST*
D10*
X182911963Y-106742290D02*
X182911963Y-107105147D01*
X183546963Y-106923718D02*
X182911963Y-106923718D01*
X183546963Y-107316814D02*
X182911963Y-107316814D01*
X182911963Y-107316814D02*
X182911963Y-107558719D01*
X182911963Y-107558719D02*
X182942201Y-107619195D01*
X182942201Y-107619195D02*
X182972439Y-107649433D01*
X182972439Y-107649433D02*
X183032915Y-107679671D01*
X183032915Y-107679671D02*
X183123629Y-107679671D01*
X183123629Y-107679671D02*
X183184105Y-107649433D01*
X183184105Y-107649433D02*
X183214344Y-107619195D01*
X183214344Y-107619195D02*
X183244582Y-107558719D01*
X183244582Y-107558719D02*
X183244582Y-107316814D01*
X182911963Y-108223957D02*
X182911963Y-108103004D01*
X182911963Y-108103004D02*
X182942201Y-108042528D01*
X182942201Y-108042528D02*
X182972439Y-108012290D01*
X182972439Y-108012290D02*
X183063153Y-107951814D01*
X183063153Y-107951814D02*
X183184105Y-107921576D01*
X183184105Y-107921576D02*
X183426010Y-107921576D01*
X183426010Y-107921576D02*
X183486486Y-107951814D01*
X183486486Y-107951814D02*
X183516725Y-107982052D01*
X183516725Y-107982052D02*
X183546963Y-108042528D01*
X183546963Y-108042528D02*
X183546963Y-108163481D01*
X183546963Y-108163481D02*
X183516725Y-108223957D01*
X183516725Y-108223957D02*
X183486486Y-108254195D01*
X183486486Y-108254195D02*
X183426010Y-108284433D01*
X183426010Y-108284433D02*
X183274820Y-108284433D01*
X183274820Y-108284433D02*
X183214344Y-108254195D01*
X183214344Y-108254195D02*
X183184105Y-108223957D01*
X183184105Y-108223957D02*
X183153867Y-108163481D01*
X183153867Y-108163481D02*
X183153867Y-108042528D01*
X183153867Y-108042528D02*
X183184105Y-107982052D01*
X183184105Y-107982052D02*
X183214344Y-107951814D01*
X183214344Y-107951814D02*
X183274820Y-107921576D01*
X185067066Y-93180563D02*
X185067066Y-93634134D01*
X185067066Y-93634134D02*
X185097305Y-93724848D01*
X185097305Y-93724848D02*
X185157781Y-93785325D01*
X185157781Y-93785325D02*
X185248495Y-93815563D01*
X185248495Y-93815563D02*
X185308971Y-93815563D01*
X184734447Y-93815563D02*
X184613495Y-93815563D01*
X184613495Y-93815563D02*
X184553018Y-93785325D01*
X184553018Y-93785325D02*
X184522780Y-93755086D01*
X184522780Y-93755086D02*
X184462304Y-93664372D01*
X184462304Y-93664372D02*
X184432066Y-93543420D01*
X184432066Y-93543420D02*
X184432066Y-93301515D01*
X184432066Y-93301515D02*
X184462304Y-93241039D01*
X184462304Y-93241039D02*
X184492542Y-93210801D01*
X184492542Y-93210801D02*
X184553018Y-93180563D01*
X184553018Y-93180563D02*
X184673971Y-93180563D01*
X184673971Y-93180563D02*
X184734447Y-93210801D01*
X184734447Y-93210801D02*
X184764685Y-93241039D01*
X184764685Y-93241039D02*
X184794923Y-93301515D01*
X184794923Y-93301515D02*
X184794923Y-93452705D01*
X184794923Y-93452705D02*
X184764685Y-93513182D01*
X184764685Y-93513182D02*
X184734447Y-93543420D01*
X184734447Y-93543420D02*
X184673971Y-93573658D01*
X184673971Y-93573658D02*
X184553018Y-93573658D01*
X184553018Y-93573658D02*
X184492542Y-93543420D01*
X184492542Y-93543420D02*
X184462304Y-93513182D01*
X184462304Y-93513182D02*
X184432066Y-93452705D01*
X179236309Y-113163363D02*
X178873452Y-113163363D01*
X179054881Y-113798363D02*
X179054881Y-113163363D01*
X178661785Y-113798363D02*
X178661785Y-113163363D01*
X178661785Y-113163363D02*
X178419880Y-113163363D01*
X178419880Y-113163363D02*
X178359404Y-113193601D01*
X178359404Y-113193601D02*
X178329166Y-113223839D01*
X178329166Y-113223839D02*
X178298928Y-113284315D01*
X178298928Y-113284315D02*
X178298928Y-113375029D01*
X178298928Y-113375029D02*
X178329166Y-113435505D01*
X178329166Y-113435505D02*
X178359404Y-113465744D01*
X178359404Y-113465744D02*
X178419880Y-113495982D01*
X178419880Y-113495982D02*
X178661785Y-113495982D01*
X177694166Y-113798363D02*
X178057023Y-113798363D01*
X177875595Y-113798363D02*
X177875595Y-113163363D01*
X177875595Y-113163363D02*
X177936071Y-113254077D01*
X177936071Y-113254077D02*
X177996547Y-113314553D01*
X177996547Y-113314553D02*
X178057023Y-113344791D01*
D11*
%TO.C,G\u002A\u002A\u002A*%
G36*
X184317803Y-123179598D02*
G01*
X184320704Y-123317105D01*
X184200826Y-123317105D01*
X184185375Y-123317009D01*
X184130670Y-123314734D01*
X184094206Y-123309870D01*
X184080948Y-123303002D01*
X184081296Y-123301785D01*
X184098448Y-123295076D01*
X184137549Y-123290555D01*
X184193225Y-123288899D01*
X184305502Y-123288899D01*
X184310203Y-123165495D01*
X184314903Y-123042091D01*
X184317803Y-123179598D01*
G37*
G36*
X183812986Y-123318394D02*
G01*
X183717789Y-123314224D01*
X183622591Y-123310053D01*
X183622591Y-123211331D01*
X183622591Y-123133763D01*
X183643746Y-123133763D01*
X183643746Y-123211331D01*
X183643746Y-123288899D01*
X183714263Y-123288899D01*
X183784779Y-123288899D01*
X183784779Y-123211331D01*
X183784779Y-123133763D01*
X183714263Y-123133763D01*
X183643746Y-123133763D01*
X183622591Y-123133763D01*
X183622591Y-123112608D01*
X183703685Y-123108378D01*
X183744363Y-123105603D01*
X183771301Y-123100137D01*
X183782531Y-123089206D01*
X183784779Y-123069594D01*
X183788203Y-123047087D01*
X183798882Y-123035040D01*
X183802176Y-123038118D01*
X183807913Y-123063444D01*
X183811651Y-123110991D01*
X183812986Y-123176717D01*
X183812986Y-123211331D01*
X183812986Y-123318394D01*
G37*
G36*
X185398650Y-123044334D02*
G01*
X185403595Y-123075003D01*
X185406103Y-123119835D01*
X185406188Y-123171282D01*
X185403866Y-123221796D01*
X185399150Y-123263826D01*
X185392056Y-123289826D01*
X185371134Y-123309698D01*
X185328592Y-123317105D01*
X185298385Y-123314408D01*
X185281229Y-123305220D01*
X185290125Y-123294187D01*
X185325562Y-123286266D01*
X185349605Y-123282903D01*
X185365137Y-123273499D01*
X185372219Y-123250977D01*
X185375661Y-123207805D01*
X185379923Y-123133763D01*
X185329825Y-123133763D01*
X185322711Y-123133620D01*
X185292137Y-123128926D01*
X185279726Y-123119659D01*
X185280153Y-123117808D01*
X185296461Y-123109098D01*
X185329088Y-123105556D01*
X185358165Y-123103903D01*
X185374761Y-123094141D01*
X185378449Y-123070298D01*
X185381951Y-123047109D01*
X185392553Y-123035040D01*
X185398650Y-123044334D01*
G37*
G36*
X185879535Y-123115478D02*
G01*
X185883644Y-123150467D01*
X185883259Y-123207805D01*
X185879116Y-123310053D01*
X185790070Y-123314276D01*
X185756802Y-123316253D01*
X185722483Y-123320918D01*
X185707280Y-123329037D01*
X185705577Y-123342482D01*
X185710368Y-123353016D01*
X185732489Y-123364846D01*
X185776994Y-123370765D01*
X185799013Y-123372969D01*
X185831201Y-123380107D01*
X185843857Y-123389131D01*
X185839177Y-123394042D01*
X185812997Y-123398982D01*
X185769815Y-123398936D01*
X185695773Y-123394673D01*
X185694415Y-123246589D01*
X185694094Y-123197006D01*
X185694383Y-123157583D01*
X185695604Y-123144135D01*
X185697913Y-123155416D01*
X185701467Y-123190176D01*
X185709876Y-123281847D01*
X185783919Y-123286110D01*
X185857961Y-123290373D01*
X185857961Y-123197964D01*
X185859431Y-123154622D01*
X185864604Y-123118722D01*
X185872682Y-123105556D01*
X185879535Y-123115478D01*
G37*
G36*
X186985156Y-123252052D02*
G01*
X186981752Y-123289636D01*
X186976821Y-123307703D01*
X186961883Y-123312117D01*
X186925973Y-123315722D01*
X186878098Y-123317105D01*
X186788777Y-123317105D01*
X186790890Y-123172547D01*
X186791615Y-123140814D01*
X186809932Y-123140814D01*
X186809932Y-123211331D01*
X186809932Y-123281847D01*
X186883974Y-123286110D01*
X186958016Y-123290373D01*
X186958016Y-123211331D01*
X186958016Y-123132288D01*
X186883974Y-123136551D01*
X186809932Y-123140814D01*
X186791615Y-123140814D01*
X186791959Y-123125761D01*
X186793916Y-123084485D01*
X186796322Y-123063504D01*
X186798878Y-123066772D01*
X186801558Y-123081072D01*
X186810632Y-123097468D01*
X186831830Y-123104232D01*
X186873180Y-123105556D01*
X186913725Y-123106130D01*
X186954024Y-123111576D01*
X186975726Y-123127244D01*
X186984552Y-123158445D01*
X186986223Y-123210489D01*
X186986201Y-123211331D01*
X186985156Y-123252052D01*
G37*
G36*
X187691387Y-123317105D02*
G01*
X187600211Y-123317105D01*
X187579140Y-123316846D01*
X187527954Y-123311217D01*
X187497782Y-123294778D01*
X187483463Y-123262994D01*
X187479837Y-123211331D01*
X187483447Y-123161094D01*
X187492618Y-123140814D01*
X187515096Y-123140814D01*
X187515096Y-123211331D01*
X187515096Y-123281847D01*
X187589138Y-123286110D01*
X187663180Y-123290373D01*
X187663180Y-123211331D01*
X187663180Y-123132288D01*
X187589138Y-123136551D01*
X187515096Y-123140814D01*
X187492618Y-123140814D01*
X187498935Y-123126845D01*
X187531450Y-123110029D01*
X187586108Y-123105556D01*
X187624133Y-123104997D01*
X187650441Y-123101050D01*
X187661149Y-123090540D01*
X187663180Y-123070298D01*
X187666682Y-123047109D01*
X187677283Y-123035040D01*
X187680538Y-123038033D01*
X187686294Y-123063188D01*
X187690046Y-123110555D01*
X187691387Y-123176072D01*
X187691387Y-123211331D01*
X187691387Y-123317105D01*
G37*
G36*
X187224944Y-123233056D02*
G01*
X187219717Y-123274836D01*
X187209055Y-123300181D01*
X187193080Y-123307616D01*
X187154335Y-123314496D01*
X187103280Y-123317105D01*
X187014429Y-123317105D01*
X187014429Y-123176072D01*
X187014729Y-123143524D01*
X187015155Y-123133763D01*
X187042636Y-123133763D01*
X187042636Y-123211331D01*
X187042636Y-123288899D01*
X187120204Y-123288899D01*
X187197772Y-123288899D01*
X187197772Y-123211331D01*
X187197772Y-123133763D01*
X187120204Y-123133763D01*
X187042636Y-123133763D01*
X187015155Y-123133763D01*
X187017244Y-123085964D01*
X187021981Y-123048448D01*
X187028533Y-123035040D01*
X187037808Y-123043793D01*
X187042636Y-123070298D01*
X187043645Y-123086637D01*
X187051737Y-123099356D01*
X187073975Y-123104558D01*
X187117383Y-123105556D01*
X187145771Y-123106724D01*
X187186074Y-123112855D01*
X187209055Y-123122480D01*
X187219094Y-123145164D01*
X187224737Y-123186084D01*
X187224848Y-123211331D01*
X187224944Y-123233056D01*
G37*
G36*
X188297827Y-123183124D02*
G01*
X188297827Y-123317105D01*
X188185001Y-123317105D01*
X188174908Y-123317058D01*
X188121395Y-123314894D01*
X188085370Y-123309986D01*
X188072175Y-123303002D01*
X188072274Y-123302340D01*
X188087504Y-123295386D01*
X188124652Y-123290649D01*
X188177950Y-123288899D01*
X188283724Y-123288899D01*
X188283724Y-123246589D01*
X188283724Y-123204279D01*
X188199105Y-123204279D01*
X188160889Y-123202781D01*
X188127331Y-123197688D01*
X188114485Y-123190176D01*
X188123473Y-123183806D01*
X188154031Y-123178213D01*
X188199105Y-123176072D01*
X188283724Y-123176072D01*
X188283724Y-123126711D01*
X188283724Y-123077349D01*
X188177950Y-123077349D01*
X188172989Y-123077336D01*
X188120828Y-123075306D01*
X188085300Y-123070352D01*
X188072175Y-123063246D01*
X188072551Y-123061984D01*
X188089863Y-123055295D01*
X188129127Y-123050792D01*
X188185001Y-123049143D01*
X188297827Y-123049143D01*
X188297827Y-123183124D01*
G37*
G36*
X185011764Y-123211331D02*
G01*
X185011751Y-123216291D01*
X185009720Y-123268452D01*
X185004767Y-123303980D01*
X184997661Y-123317105D01*
X184990829Y-123306135D01*
X184985550Y-123273338D01*
X184983558Y-123225434D01*
X184983558Y-123133763D01*
X184927144Y-123133763D01*
X184870731Y-123133763D01*
X184870731Y-123225434D01*
X184869044Y-123269841D01*
X184863998Y-123304153D01*
X184856628Y-123317105D01*
X184849796Y-123306135D01*
X184844518Y-123273338D01*
X184842525Y-123225434D01*
X184842525Y-123133763D01*
X184786112Y-123133763D01*
X184729699Y-123133763D01*
X184729699Y-123225434D01*
X184728011Y-123269841D01*
X184722965Y-123304153D01*
X184715595Y-123317105D01*
X184714511Y-123316933D01*
X184706792Y-123301799D01*
X184702587Y-123268270D01*
X184701772Y-123224961D01*
X184704222Y-123180483D01*
X184709811Y-123143452D01*
X184718416Y-123122480D01*
X184719518Y-123121512D01*
X184746175Y-123112819D01*
X184798304Y-123107414D01*
X184873552Y-123105556D01*
X185011764Y-123105556D01*
X185011764Y-123211331D01*
G37*
G36*
X186516210Y-123257182D02*
G01*
X186506215Y-123289826D01*
X186500392Y-123298611D01*
X186483190Y-123310124D01*
X186452273Y-123315669D01*
X186400441Y-123317105D01*
X186309266Y-123317105D01*
X186309266Y-123176072D01*
X186309565Y-123143524D01*
X186310056Y-123132288D01*
X186337472Y-123132288D01*
X186337472Y-123210594D01*
X186337472Y-123288899D01*
X186408431Y-123288899D01*
X186408917Y-123288898D01*
X186456055Y-123286001D01*
X186481823Y-123273393D01*
X186491414Y-123245109D01*
X186490022Y-123195185D01*
X186485556Y-123140814D01*
X186411514Y-123136551D01*
X186337472Y-123132288D01*
X186310056Y-123132288D01*
X186312080Y-123085964D01*
X186316817Y-123048448D01*
X186323369Y-123035040D01*
X186332644Y-123043793D01*
X186337472Y-123070298D01*
X186338695Y-123087693D01*
X186347322Y-123099728D01*
X186370297Y-123104627D01*
X186414544Y-123105556D01*
X186465016Y-123109149D01*
X186499426Y-123124565D01*
X186516320Y-123156928D01*
X186520815Y-123211331D01*
X186520785Y-123214677D01*
X186517509Y-123245109D01*
X186516210Y-123257182D01*
G37*
G36*
X188029865Y-123211331D02*
G01*
X188029852Y-123216291D01*
X188027821Y-123268452D01*
X188022868Y-123303980D01*
X188015762Y-123317105D01*
X188008878Y-123305886D01*
X188003635Y-123272822D01*
X188001659Y-123224582D01*
X188001659Y-123132060D01*
X187948771Y-123136437D01*
X187895884Y-123140814D01*
X187891685Y-123228960D01*
X187891419Y-123234173D01*
X187885892Y-123287086D01*
X187877964Y-123312432D01*
X187869721Y-123310447D01*
X187863247Y-123281369D01*
X187860626Y-123225434D01*
X187860626Y-123133763D01*
X187804213Y-123133763D01*
X187747800Y-123133763D01*
X187747800Y-123225434D01*
X187746112Y-123269841D01*
X187741066Y-123304153D01*
X187733696Y-123317105D01*
X187732612Y-123316933D01*
X187724893Y-123301799D01*
X187720688Y-123268270D01*
X187719873Y-123224961D01*
X187722323Y-123180483D01*
X187727912Y-123143452D01*
X187736517Y-123122480D01*
X187737619Y-123121512D01*
X187764276Y-123112819D01*
X187816405Y-123107414D01*
X187891653Y-123105556D01*
X188029865Y-123105556D01*
X188029865Y-123211331D01*
G37*
G36*
X188241414Y-121949087D02*
G01*
X188241414Y-122442702D01*
X188121536Y-122442702D01*
X188001659Y-122442702D01*
X188001659Y-122068965D01*
X188001659Y-121695228D01*
X187818316Y-121695228D01*
X187634973Y-121695228D01*
X187634973Y-122068965D01*
X187634973Y-122442702D01*
X187515096Y-122442702D01*
X187395218Y-122442702D01*
X187395218Y-122068965D01*
X187395218Y-121695228D01*
X187211875Y-121695228D01*
X187028533Y-121695228D01*
X187028533Y-122068965D01*
X187028533Y-122442702D01*
X186915105Y-122442702D01*
X186801677Y-122442702D01*
X186805804Y-122027661D01*
X186806927Y-121921440D01*
X186808257Y-121823953D01*
X186809871Y-121748490D01*
X186812010Y-121691754D01*
X186814914Y-121650453D01*
X186818825Y-121621291D01*
X186823985Y-121600975D01*
X186830632Y-121586210D01*
X186839010Y-121573702D01*
X186853427Y-121555662D01*
X186917497Y-121500121D01*
X186994366Y-121468976D01*
X187003266Y-121467648D01*
X187041263Y-121464968D01*
X187102638Y-121462508D01*
X187184116Y-121460332D01*
X187282422Y-121458508D01*
X187394280Y-121457102D01*
X187516415Y-121456181D01*
X187645551Y-121455809D01*
X188241414Y-121455473D01*
X188241414Y-121949087D01*
G37*
G36*
X185248756Y-123195648D02*
G01*
X185249871Y-123232360D01*
X185248986Y-123274029D01*
X185245673Y-123297897D01*
X185235746Y-123307257D01*
X185203343Y-123314742D01*
X185146188Y-123317105D01*
X185140105Y-123317082D01*
X185086460Y-123314047D01*
X185059585Y-123307358D01*
X185059744Y-123299084D01*
X185087200Y-123291291D01*
X185142219Y-123286046D01*
X185181500Y-123283601D01*
X185212834Y-123278574D01*
X185227029Y-123269357D01*
X185230365Y-123253640D01*
X185228467Y-123240731D01*
X185217227Y-123230327D01*
X185190293Y-123224581D01*
X185141409Y-123221214D01*
X185052454Y-123216994D01*
X185056790Y-123164801D01*
X185057086Y-123161232D01*
X185082281Y-123161232D01*
X185083277Y-123172420D01*
X185092129Y-123183927D01*
X185115767Y-123189024D01*
X185160883Y-123190176D01*
X185185284Y-123189943D01*
X185219102Y-123187187D01*
X185233604Y-123179705D01*
X185234793Y-123165495D01*
X185226608Y-123151113D01*
X185202358Y-123141519D01*
X185156191Y-123136551D01*
X185129107Y-123135280D01*
X185098492Y-123136585D01*
X185085183Y-123144468D01*
X185082281Y-123161232D01*
X185057086Y-123161232D01*
X185061126Y-123112608D01*
X185152797Y-123112608D01*
X185244468Y-123112608D01*
X185247199Y-123165495D01*
X185248756Y-123195648D01*
G37*
G36*
X187448867Y-123195648D02*
G01*
X187449982Y-123232360D01*
X187449097Y-123274029D01*
X187445784Y-123297897D01*
X187435857Y-123307257D01*
X187403454Y-123314742D01*
X187346299Y-123317105D01*
X187340216Y-123317082D01*
X187286571Y-123314047D01*
X187259696Y-123307358D01*
X187259855Y-123299084D01*
X187287312Y-123291291D01*
X187342330Y-123286046D01*
X187381611Y-123283601D01*
X187412945Y-123278574D01*
X187427140Y-123269357D01*
X187430476Y-123253640D01*
X187428578Y-123240731D01*
X187417338Y-123230327D01*
X187390404Y-123224581D01*
X187341521Y-123221214D01*
X187252565Y-123216994D01*
X187256901Y-123164801D01*
X187257197Y-123161232D01*
X187282392Y-123161232D01*
X187283388Y-123172420D01*
X187292240Y-123183927D01*
X187315878Y-123189024D01*
X187360994Y-123190176D01*
X187385395Y-123189943D01*
X187419213Y-123187187D01*
X187433715Y-123179705D01*
X187434904Y-123165495D01*
X187426719Y-123151113D01*
X187402469Y-123141519D01*
X187356302Y-123136551D01*
X187329218Y-123135280D01*
X187298603Y-123136585D01*
X187285294Y-123144468D01*
X187282392Y-123161232D01*
X187257197Y-123161232D01*
X187261237Y-123112608D01*
X187352908Y-123112608D01*
X187444579Y-123112608D01*
X187447310Y-123165495D01*
X187448867Y-123195648D01*
G37*
G36*
X184052492Y-123255030D02*
G01*
X184046598Y-123290132D01*
X184035112Y-123307765D01*
X184020513Y-123310800D01*
X183983371Y-123314215D01*
X183935771Y-123315992D01*
X183854060Y-123317105D01*
X183856632Y-123253640D01*
X183869399Y-123253640D01*
X183870670Y-123271249D01*
X183879410Y-123283146D01*
X183902542Y-123287983D01*
X183946967Y-123288899D01*
X183985706Y-123288321D01*
X184011879Y-123284348D01*
X184022521Y-123273833D01*
X184024535Y-123253640D01*
X184023264Y-123236032D01*
X184014523Y-123224135D01*
X183991392Y-123219297D01*
X183946967Y-123218382D01*
X183908228Y-123218960D01*
X183882055Y-123222933D01*
X183871412Y-123233447D01*
X183869399Y-123253640D01*
X183856632Y-123253640D01*
X183858203Y-123214856D01*
X183862347Y-123112608D01*
X183957544Y-123108437D01*
X184003538Y-123107908D01*
X184039585Y-123111262D01*
X184052741Y-123118342D01*
X184042181Y-123125510D01*
X184010372Y-123132384D01*
X183964738Y-123136615D01*
X183944971Y-123137716D01*
X183902649Y-123142543D01*
X183880367Y-123151170D01*
X183872032Y-123165495D01*
X183872137Y-123177129D01*
X183882751Y-123185442D01*
X183910152Y-123189258D01*
X183960036Y-123190176D01*
X184052741Y-123190176D01*
X184052741Y-123245413D01*
X184052528Y-123253640D01*
X184052492Y-123255030D01*
G37*
G36*
X186161181Y-123126711D02*
G01*
X186161181Y-123197227D01*
X186055407Y-123204279D01*
X186022555Y-123206587D01*
X185981774Y-123210911D01*
X185959972Y-123217441D01*
X185951231Y-123228545D01*
X185949632Y-123246589D01*
X185949648Y-123249696D01*
X185952216Y-123267692D01*
X185963675Y-123277859D01*
X185990461Y-123283040D01*
X186039009Y-123286078D01*
X186074682Y-123286673D01*
X186121806Y-123282853D01*
X186148309Y-123273773D01*
X186163881Y-123264840D01*
X186168233Y-123277770D01*
X186167463Y-123286441D01*
X186158289Y-123308244D01*
X186157094Y-123309058D01*
X186135304Y-123313025D01*
X186094340Y-123314843D01*
X186041937Y-123314120D01*
X185935529Y-123310053D01*
X185935529Y-123246589D01*
X185935529Y-123183124D01*
X186041303Y-123176072D01*
X186147078Y-123169021D01*
X186147078Y-123126711D01*
X186147027Y-123117509D01*
X186144356Y-123098310D01*
X186132884Y-123087930D01*
X186106152Y-123083004D01*
X186057701Y-123080170D01*
X186030924Y-123079448D01*
X185977101Y-123082977D01*
X185946774Y-123093825D01*
X185941927Y-123097735D01*
X185929545Y-123102811D01*
X185930569Y-123083952D01*
X185931866Y-123078531D01*
X185939539Y-123066662D01*
X185957584Y-123059915D01*
X185991941Y-123056892D01*
X186048548Y-123056195D01*
X186161181Y-123056195D01*
X186161181Y-123126711D01*
G37*
G36*
X186743703Y-123195648D02*
G01*
X186744819Y-123232360D01*
X186743933Y-123274029D01*
X186740620Y-123297897D01*
X186738534Y-123300767D01*
X186716800Y-123309534D01*
X186679550Y-123315251D01*
X186635466Y-123317688D01*
X186593229Y-123316613D01*
X186561520Y-123311795D01*
X186549021Y-123303002D01*
X186558010Y-123296633D01*
X186588568Y-123291040D01*
X186633641Y-123288899D01*
X186636607Y-123288898D01*
X186682265Y-123288050D01*
X186706678Y-123283731D01*
X186716469Y-123273181D01*
X186718261Y-123253640D01*
X186718256Y-123251802D01*
X186716121Y-123233102D01*
X186705559Y-123223112D01*
X186679979Y-123219111D01*
X186632790Y-123218382D01*
X186547319Y-123218382D01*
X186551061Y-123173171D01*
X186565031Y-123173171D01*
X186571759Y-123183954D01*
X186594634Y-123188954D01*
X186639658Y-123190176D01*
X186670042Y-123189809D01*
X186701290Y-123186549D01*
X186715133Y-123177845D01*
X186718261Y-123161232D01*
X186717519Y-123150669D01*
X186709676Y-123139132D01*
X186687587Y-123135194D01*
X186644350Y-123136551D01*
X186601885Y-123140821D01*
X186575629Y-123149824D01*
X186565748Y-123165495D01*
X186565031Y-123173171D01*
X186551061Y-123173171D01*
X186551696Y-123165495D01*
X186556073Y-123112608D01*
X186647744Y-123112608D01*
X186739415Y-123112608D01*
X186741926Y-123161232D01*
X186743703Y-123195648D01*
G37*
G36*
X184600284Y-123110787D02*
G01*
X184641021Y-123121260D01*
X184664702Y-123137288D01*
X184674207Y-123161599D01*
X184664668Y-123188526D01*
X184629485Y-123206764D01*
X184569577Y-123215560D01*
X184528948Y-123218376D01*
X184502740Y-123223954D01*
X184492008Y-123235339D01*
X184489943Y-123255987D01*
X184490010Y-123263864D01*
X184492885Y-123279880D01*
X184504740Y-123287551D01*
X184531960Y-123289010D01*
X184580934Y-123286391D01*
X184610592Y-123284764D01*
X184645985Y-123284755D01*
X184659957Y-123289216D01*
X184656775Y-123298851D01*
X184656443Y-123299236D01*
X184632296Y-123310277D01*
X184591592Y-123315973D01*
X184545184Y-123316243D01*
X184503923Y-123311006D01*
X184478660Y-123300181D01*
X184469374Y-123286005D01*
X184461736Y-123253640D01*
X184462991Y-123238078D01*
X184477889Y-123210063D01*
X184512469Y-123194797D01*
X184570332Y-123190176D01*
X184596796Y-123189884D01*
X184628203Y-123186703D01*
X184642006Y-123177765D01*
X184645079Y-123160326D01*
X184645064Y-123158107D01*
X184642335Y-123143081D01*
X184630478Y-123135548D01*
X184603170Y-123133835D01*
X184554088Y-123136270D01*
X184520511Y-123138079D01*
X184487265Y-123137850D01*
X184474829Y-123133138D01*
X184478775Y-123123174D01*
X184481223Y-123120709D01*
X184509837Y-123109710D01*
X184553040Y-123106670D01*
X184600284Y-123110787D01*
G37*
G36*
X185573410Y-123110787D02*
G01*
X185614147Y-123121260D01*
X185637828Y-123137288D01*
X185647333Y-123161599D01*
X185637794Y-123188526D01*
X185602611Y-123206764D01*
X185542703Y-123215560D01*
X185502074Y-123218376D01*
X185475866Y-123223954D01*
X185465134Y-123235339D01*
X185463069Y-123255987D01*
X185463136Y-123263864D01*
X185466011Y-123279880D01*
X185477866Y-123287551D01*
X185505086Y-123289010D01*
X185554060Y-123286391D01*
X185583718Y-123284764D01*
X185619111Y-123284755D01*
X185633083Y-123289216D01*
X185629901Y-123298851D01*
X185629569Y-123299236D01*
X185605422Y-123310277D01*
X185564718Y-123315973D01*
X185518310Y-123316243D01*
X185477049Y-123311006D01*
X185451786Y-123300181D01*
X185442500Y-123286005D01*
X185434862Y-123253640D01*
X185436117Y-123238078D01*
X185451015Y-123210063D01*
X185485595Y-123194797D01*
X185543458Y-123190176D01*
X185569922Y-123189884D01*
X185601329Y-123186703D01*
X185615132Y-123177765D01*
X185618205Y-123160326D01*
X185618190Y-123158107D01*
X185615461Y-123143081D01*
X185603604Y-123135548D01*
X185576296Y-123133835D01*
X185527214Y-123136270D01*
X185493637Y-123138079D01*
X185460391Y-123137850D01*
X185447955Y-123133138D01*
X185451901Y-123123174D01*
X185454349Y-123120709D01*
X185482963Y-123109710D01*
X185526166Y-123106670D01*
X185573410Y-123110787D01*
G37*
G36*
X184645079Y-121829209D02*
G01*
X184645079Y-122202946D01*
X184913041Y-122202946D01*
X185181003Y-122202946D01*
X185181003Y-121829209D01*
X185181003Y-121455473D01*
X185293830Y-121455473D01*
X185406656Y-121455473D01*
X185406656Y-121869434D01*
X185406655Y-121894790D01*
X185406560Y-122008646D01*
X185406145Y-122098316D01*
X185405178Y-122167164D01*
X185403428Y-122218551D01*
X185400663Y-122255843D01*
X185396650Y-122282402D01*
X185391158Y-122301592D01*
X185383955Y-122316775D01*
X185374810Y-122331316D01*
X185364419Y-122344805D01*
X185325347Y-122381421D01*
X185280150Y-122410970D01*
X185274045Y-122414016D01*
X185251439Y-122424071D01*
X185227510Y-122431462D01*
X185197778Y-122436595D01*
X185157763Y-122439878D01*
X185102983Y-122441718D01*
X185028958Y-122442524D01*
X184931208Y-122442702D01*
X184645079Y-122442702D01*
X184645079Y-122499115D01*
X184645079Y-122555528D01*
X184948299Y-122555528D01*
X185251520Y-122555528D01*
X185251520Y-122675406D01*
X185251520Y-122795284D01*
X184929363Y-122795284D01*
X184834491Y-122795190D01*
X184752491Y-122794657D01*
X184690904Y-122793338D01*
X184645635Y-122790886D01*
X184612586Y-122786954D01*
X184587661Y-122781194D01*
X184566762Y-122773261D01*
X184545792Y-122762808D01*
X184498235Y-122729779D01*
X184451903Y-122668918D01*
X184451640Y-122668421D01*
X184443654Y-122652804D01*
X184437110Y-122637193D01*
X184431865Y-122618768D01*
X184427776Y-122594708D01*
X184424698Y-122562190D01*
X184422489Y-122518394D01*
X184421003Y-122460498D01*
X184420098Y-122385680D01*
X184419629Y-122291121D01*
X184419453Y-122173997D01*
X184419427Y-122031489D01*
X184419427Y-121455473D01*
X184532253Y-121455473D01*
X184645079Y-121455473D01*
X184645079Y-121829209D01*
G37*
G36*
X186150717Y-121232153D02*
G01*
X186226233Y-121233127D01*
X186323254Y-121234620D01*
X186397983Y-121236355D01*
X186454024Y-121238644D01*
X186494980Y-121241799D01*
X186524455Y-121246131D01*
X186546055Y-121251953D01*
X186563383Y-121259577D01*
X186580043Y-121269315D01*
X186597516Y-121280872D01*
X186641641Y-121320701D01*
X186671559Y-121370419D01*
X186690057Y-121435927D01*
X186699924Y-121523127D01*
X186703390Y-121603960D01*
X186700047Y-121705316D01*
X186685477Y-121785495D01*
X186658593Y-121847747D01*
X186618312Y-121895318D01*
X186563548Y-121931458D01*
X186549746Y-121938212D01*
X186530312Y-121946181D01*
X186508241Y-121952247D01*
X186479880Y-121956670D01*
X186441577Y-121959708D01*
X186389678Y-121961620D01*
X186320532Y-121962665D01*
X186230484Y-121963102D01*
X186115883Y-121963191D01*
X185731031Y-121963191D01*
X185731031Y-122083068D01*
X185731031Y-122202946D01*
X186097716Y-122202946D01*
X186464402Y-122202946D01*
X186464402Y-122153585D01*
X186464402Y-122104223D01*
X186576395Y-122104223D01*
X186584068Y-122104254D01*
X186639519Y-122106524D01*
X186679542Y-122111836D01*
X186697765Y-122119394D01*
X186698037Y-122119850D01*
X186703165Y-122148521D01*
X186699845Y-122193667D01*
X186689886Y-122245761D01*
X186675096Y-122295277D01*
X186657282Y-122332690D01*
X186646977Y-122346001D01*
X186608438Y-122381798D01*
X186563548Y-122410970D01*
X186545587Y-122419621D01*
X186526311Y-122427002D01*
X186503635Y-122432616D01*
X186474014Y-122436704D01*
X186433905Y-122439507D01*
X186379765Y-122441267D01*
X186308049Y-122442225D01*
X186215214Y-122442623D01*
X186097716Y-122442702D01*
X185987703Y-122442636D01*
X185893235Y-122442269D01*
X185820137Y-122441358D01*
X185764866Y-122439663D01*
X185723878Y-122436942D01*
X185693630Y-122432954D01*
X185670577Y-122427456D01*
X185651177Y-122420209D01*
X185631885Y-122410970D01*
X185614310Y-122401007D01*
X185570282Y-122367876D01*
X185538294Y-122332902D01*
X185517788Y-122288859D01*
X185501036Y-122218113D01*
X185492558Y-122134862D01*
X185492317Y-122046952D01*
X185500276Y-121962227D01*
X185516397Y-121888535D01*
X185540645Y-121833719D01*
X185552894Y-121815575D01*
X185571847Y-121790951D01*
X185592618Y-121771575D01*
X185618505Y-121756771D01*
X185652806Y-121745865D01*
X185698821Y-121738181D01*
X185759847Y-121733043D01*
X185839184Y-121729777D01*
X185940130Y-121727706D01*
X186065984Y-121726155D01*
X186464402Y-121721824D01*
X186464402Y-121595700D01*
X186464402Y-121469576D01*
X186097716Y-121469576D01*
X185731031Y-121469576D01*
X185731031Y-121518937D01*
X185731031Y-121568299D01*
X185609528Y-121568299D01*
X185488025Y-121568299D01*
X185497956Y-121487205D01*
X185506025Y-121436872D01*
X185530245Y-121360673D01*
X185568849Y-121305372D01*
X185624860Y-121267337D01*
X185701307Y-121242932D01*
X185702111Y-121242762D01*
X185743958Y-121237649D01*
X185811829Y-121233982D01*
X185903638Y-121231810D01*
X186017296Y-121231184D01*
X186150717Y-121232153D01*
G37*
G36*
X183875144Y-121456668D02*
G01*
X183959254Y-121457935D01*
X184033765Y-121460408D01*
X184092485Y-121464089D01*
X184129218Y-121468976D01*
X184165788Y-121480077D01*
X184233391Y-121519746D01*
X184290067Y-121583699D01*
X184303780Y-121605708D01*
X184313665Y-121630316D01*
X184318663Y-121661592D01*
X184319844Y-121706697D01*
X184318274Y-121772796D01*
X184316971Y-121807485D01*
X184313166Y-121865028D01*
X184306825Y-121904838D01*
X184296517Y-121934070D01*
X184280808Y-121959878D01*
X184258837Y-121988486D01*
X184235666Y-122011208D01*
X184207896Y-122028254D01*
X184171592Y-122040582D01*
X184122820Y-122049153D01*
X184057645Y-122054926D01*
X183972132Y-122058859D01*
X183862347Y-122061914D01*
X183566178Y-122068965D01*
X183561880Y-122135956D01*
X183557581Y-122202946D01*
X183826316Y-122202946D01*
X183856228Y-122202940D01*
X183941927Y-122202713D01*
X184004227Y-122201870D01*
X184046851Y-122200021D01*
X184073523Y-122196774D01*
X184087965Y-122191738D01*
X184093900Y-122184524D01*
X184095051Y-122174740D01*
X184095466Y-122167303D01*
X184101131Y-122156088D01*
X184117972Y-122149834D01*
X184151663Y-122147122D01*
X184207877Y-122146533D01*
X184320704Y-122146533D01*
X184320472Y-122206472D01*
X184319761Y-122223324D01*
X184300496Y-122297898D01*
X184257700Y-122362100D01*
X184195082Y-122409912D01*
X184180089Y-122417563D01*
X184158969Y-122426507D01*
X184135171Y-122433035D01*
X184104440Y-122437526D01*
X184062521Y-122440359D01*
X184005159Y-122441914D01*
X183928100Y-122442568D01*
X183827089Y-122442702D01*
X183755627Y-122442649D01*
X183671358Y-122442203D01*
X183608149Y-122440978D01*
X183561746Y-122438596D01*
X183527893Y-122434677D01*
X183502337Y-122428843D01*
X183480823Y-122420714D01*
X183459096Y-122409912D01*
X183417404Y-122383934D01*
X183377478Y-122343695D01*
X183351749Y-122291528D01*
X183337924Y-122222328D01*
X183333706Y-122130990D01*
X183333803Y-122097683D01*
X183335576Y-122041886D01*
X183340545Y-122003447D01*
X183349993Y-121974941D01*
X183365207Y-121948944D01*
X183389360Y-121916169D01*
X183419157Y-121885253D01*
X183453925Y-121861907D01*
X183497529Y-121845095D01*
X183553839Y-121833783D01*
X183626720Y-121826936D01*
X183720040Y-121823518D01*
X183837666Y-121822494D01*
X184095051Y-121822158D01*
X184095051Y-121758693D01*
X184095051Y-121695228D01*
X183827089Y-121695228D01*
X183798334Y-121695234D01*
X183712502Y-121695457D01*
X183650103Y-121696295D01*
X183607409Y-121698139D01*
X183580693Y-121701383D01*
X183566226Y-121706419D01*
X183560280Y-121713639D01*
X183559127Y-121723435D01*
X183558712Y-121730872D01*
X183553047Y-121742086D01*
X183536206Y-121748340D01*
X183502515Y-121751053D01*
X183446301Y-121751641D01*
X183333474Y-121751641D01*
X183333474Y-121690262D01*
X183333856Y-121678148D01*
X183351403Y-121607942D01*
X183391982Y-121546350D01*
X183451274Y-121498364D01*
X183524960Y-121468976D01*
X183527436Y-121468439D01*
X183566618Y-121463671D01*
X183627175Y-121460110D01*
X183702911Y-121457756D01*
X183787632Y-121456608D01*
X183875144Y-121456668D01*
G37*
G36*
X189407841Y-119954972D02*
G01*
X189457599Y-119987556D01*
X189503658Y-120028689D01*
X189507812Y-120424757D01*
X189511966Y-120820825D01*
X189659422Y-120820825D01*
X189806878Y-120820825D01*
X189806878Y-120572933D01*
X189806878Y-120325041D01*
X189848103Y-120283816D01*
X189882223Y-120257776D01*
X189938433Y-120240624D01*
X189995655Y-120249304D01*
X190047719Y-120283816D01*
X190088943Y-120325041D01*
X190088943Y-120585690D01*
X190088943Y-120846339D01*
X190164317Y-120888878D01*
X190203885Y-120913683D01*
X190283531Y-120984617D01*
X190339684Y-121069923D01*
X190361336Y-121115329D01*
X190626796Y-121119687D01*
X190892257Y-121124046D01*
X190931328Y-121163150D01*
X190958391Y-121201280D01*
X190972733Y-121258361D01*
X190963713Y-121316396D01*
X190931329Y-121367007D01*
X190892260Y-121406111D01*
X190638686Y-121410527D01*
X190385112Y-121414943D01*
X190385112Y-121562138D01*
X190385112Y-121709332D01*
X190778922Y-121709332D01*
X191172732Y-121709332D01*
X191215644Y-121745440D01*
X191246792Y-121781551D01*
X191266526Y-121834510D01*
X191265119Y-121889152D01*
X191243046Y-121938194D01*
X191200780Y-121974353D01*
X191190304Y-121977903D01*
X191155630Y-121983219D01*
X191098765Y-121987515D01*
X191018206Y-121990862D01*
X190912453Y-121993336D01*
X190780004Y-121995009D01*
X190392164Y-121998449D01*
X190388145Y-122143007D01*
X190384126Y-122287566D01*
X190613797Y-122287588D01*
X190663487Y-122287712D01*
X190741218Y-122288801D01*
X190798129Y-122291370D01*
X190839090Y-122295851D01*
X190868968Y-122302673D01*
X190892634Y-122312269D01*
X190921612Y-122330093D01*
X190961584Y-122374792D01*
X190976774Y-122427319D01*
X190966355Y-122482656D01*
X190929499Y-122535784D01*
X190881548Y-122583735D01*
X190620938Y-122583735D01*
X190360328Y-122583735D01*
X190341511Y-122629570D01*
X190335420Y-122642655D01*
X190300153Y-122695799D01*
X190250963Y-122750741D01*
X190196517Y-122798598D01*
X190145484Y-122830485D01*
X190088943Y-122855981D01*
X190088943Y-123119163D01*
X190088943Y-123382344D01*
X190050159Y-123419235D01*
X190002429Y-123453993D01*
X189948497Y-123467061D01*
X189893873Y-123452314D01*
X189884772Y-123447524D01*
X189857367Y-123430669D01*
X189837260Y-123411080D01*
X189823327Y-123384514D01*
X189814446Y-123346724D01*
X189809493Y-123293467D01*
X189807344Y-123220498D01*
X189806878Y-123123573D01*
X189806878Y-122879904D01*
X189658794Y-122879904D01*
X189510709Y-122879904D01*
X189510709Y-123252722D01*
X189510301Y-123345520D01*
X189508997Y-123440039D01*
X189506927Y-123522926D01*
X189504226Y-123590038D01*
X189501029Y-123637232D01*
X189497470Y-123660363D01*
X189480623Y-123690990D01*
X189452501Y-123724746D01*
X189425254Y-123741862D01*
X189374056Y-123753579D01*
X189320193Y-123749503D01*
X189276130Y-123729312D01*
X189260084Y-123715294D01*
X189245788Y-123698369D01*
X189234837Y-123676813D01*
X189226787Y-123647257D01*
X189221196Y-123606334D01*
X189217619Y-123550677D01*
X189215613Y-123476917D01*
X189214735Y-123381687D01*
X189214540Y-123261619D01*
X189214540Y-122879904D01*
X189066456Y-122879904D01*
X188918372Y-122879904D01*
X188918372Y-123123573D01*
X188918346Y-123153269D01*
X188917523Y-123243084D01*
X188914705Y-123310126D01*
X188908769Y-123358641D01*
X188898592Y-123392872D01*
X188883049Y-123417066D01*
X188861019Y-123435465D01*
X188831377Y-123452314D01*
X188783154Y-123466763D01*
X188729189Y-123456993D01*
X188675090Y-123419235D01*
X188636306Y-123382344D01*
X188636306Y-123119163D01*
X188636306Y-122855981D01*
X188581390Y-122831217D01*
X188532885Y-122803936D01*
X188460648Y-122740722D01*
X188401932Y-122660503D01*
X188361098Y-122569778D01*
X188342503Y-122475046D01*
X188341942Y-122466085D01*
X188340420Y-122420043D01*
X188345122Y-122390141D01*
X188359364Y-122365975D01*
X188386459Y-122337146D01*
X188396577Y-122327522D01*
X188448438Y-122294298D01*
X188499925Y-122289043D01*
X188552074Y-122311599D01*
X188585478Y-122337916D01*
X188613216Y-122375175D01*
X188621754Y-122418722D01*
X188629620Y-122464167D01*
X188656518Y-122519970D01*
X188695777Y-122561724D01*
X188715564Y-122567164D01*
X188760883Y-122572303D01*
X188827588Y-122576657D01*
X188912138Y-122580224D01*
X189010991Y-122583006D01*
X189120604Y-122585001D01*
X189237438Y-122586211D01*
X189357949Y-122586634D01*
X189478598Y-122586271D01*
X189595841Y-122585123D01*
X189706138Y-122583188D01*
X189805947Y-122580467D01*
X189891726Y-122576960D01*
X189959935Y-122572667D01*
X190007031Y-122567589D01*
X190029473Y-122561724D01*
X190041525Y-122553086D01*
X190056675Y-122540353D01*
X190069108Y-122525204D01*
X190079093Y-122505060D01*
X190086898Y-122477341D01*
X190092792Y-122439469D01*
X190097041Y-122388864D01*
X190099915Y-122322948D01*
X190101683Y-122239142D01*
X190102611Y-122134866D01*
X190102969Y-122007542D01*
X190103025Y-121854591D01*
X190103022Y-121830024D01*
X190102902Y-121686335D01*
X190102531Y-121567760D01*
X190101806Y-121471620D01*
X190100627Y-121395237D01*
X190098893Y-121335931D01*
X190096502Y-121291025D01*
X190093353Y-121257838D01*
X190089344Y-121233693D01*
X190084375Y-121215910D01*
X190078344Y-121201810D01*
X190075323Y-121196125D01*
X190048293Y-121159416D01*
X190018427Y-121135027D01*
X190005864Y-121132195D01*
X189966352Y-121128523D01*
X189904706Y-121125311D01*
X189824499Y-121122570D01*
X189729304Y-121120313D01*
X189622693Y-121118551D01*
X189508240Y-121117295D01*
X189389518Y-121116559D01*
X189270100Y-121116353D01*
X189153558Y-121116689D01*
X189043465Y-121117579D01*
X188943395Y-121119034D01*
X188856921Y-121121067D01*
X188787614Y-121123688D01*
X188739049Y-121126911D01*
X188714799Y-121130746D01*
X188710937Y-121132401D01*
X188678786Y-121156104D01*
X188650469Y-121190685D01*
X188647979Y-121194860D01*
X188638129Y-121214968D01*
X188631147Y-121239147D01*
X188626551Y-121272224D01*
X188623858Y-121319024D01*
X188622587Y-121384375D01*
X188622256Y-121473102D01*
X188622203Y-121709332D01*
X189164097Y-121709332D01*
X189705991Y-121709332D01*
X189748346Y-121744971D01*
X189753186Y-121749258D01*
X189782827Y-121785169D01*
X189799765Y-121821878D01*
X189801730Y-121837921D01*
X189793974Y-121889272D01*
X189770654Y-121938806D01*
X189737134Y-121973539D01*
X189736309Y-121974006D01*
X189720022Y-121978298D01*
X189687901Y-121981905D01*
X189638179Y-121984875D01*
X189569089Y-121987256D01*
X189478862Y-121989097D01*
X189365734Y-121990445D01*
X189227935Y-121991348D01*
X189063698Y-121991855D01*
X188417705Y-121993033D01*
X188377909Y-121948550D01*
X188338114Y-121904068D01*
X188342651Y-121528160D01*
X188342975Y-121501724D01*
X188344492Y-121393284D01*
X188346213Y-121308509D01*
X188348434Y-121243653D01*
X188351448Y-121194971D01*
X188355550Y-121158716D01*
X188361036Y-121131143D01*
X188368198Y-121108507D01*
X188377332Y-121087061D01*
X188386001Y-121069449D01*
X188437860Y-120990849D01*
X188502756Y-120924570D01*
X188573255Y-120878525D01*
X188636306Y-120848887D01*
X188636306Y-120586964D01*
X188636306Y-120325041D01*
X188677531Y-120283816D01*
X188711651Y-120257776D01*
X188767861Y-120240624D01*
X188825083Y-120249304D01*
X188877147Y-120283816D01*
X188918372Y-120325041D01*
X188918372Y-120572933D01*
X188918372Y-120820825D01*
X189065828Y-120820825D01*
X189213284Y-120820825D01*
X189217438Y-120424757D01*
X189221592Y-120028689D01*
X189267650Y-119987556D01*
X189311378Y-119957584D01*
X189362625Y-119946422D01*
X189407841Y-119954972D01*
G37*
D12*
%TO.C,TP6*%
X185485000Y-107543600D02*
G75*
G02*
X184085000Y-107543600I-700000J0D01*
G01*
X184085000Y-107543600D02*
G75*
G02*
X185485000Y-107543600I700000J0D01*
G01*
%TO.C,J9*%
X183090400Y-94529600D02*
X186620400Y-94529600D01*
X183090400Y-94594600D02*
X183090400Y-94529600D01*
X183090400Y-98459600D02*
X183090400Y-98394600D01*
X183090400Y-98459600D02*
X186620400Y-98459600D01*
X186620400Y-94594600D02*
X186620400Y-94529600D01*
X186620400Y-94594600D02*
X187945400Y-94594600D01*
X186620400Y-98459600D02*
X186620400Y-98394600D01*
%TO.C,TP1*%
X179135000Y-114960400D02*
G75*
G02*
X177735000Y-114960400I-700000J0D01*
G01*
X177735000Y-114960400D02*
G75*
G02*
X179135000Y-114960400I700000J0D01*
G01*
D11*
%TO.C,G\u002A\u002A\u002A*%
G36*
X177225325Y-129554180D02*
G01*
X177243268Y-129571976D01*
X177245568Y-129591333D01*
X177226773Y-129604255D01*
X177202513Y-129601848D01*
X177190705Y-129584189D01*
X177191315Y-129576446D01*
X177201230Y-129552338D01*
X177205200Y-129549785D01*
X177225325Y-129554180D01*
G37*
G36*
X183382796Y-128943214D02*
G01*
X183405290Y-128961769D01*
X183411153Y-128990264D01*
X183395776Y-129014305D01*
X183369233Y-129021789D01*
X183343231Y-129008297D01*
X183335924Y-128975678D01*
X183343880Y-128954983D01*
X183372539Y-128941725D01*
X183382796Y-128943214D01*
G37*
G36*
X183622720Y-127343717D02*
G01*
X183645214Y-127362273D01*
X183651077Y-127390768D01*
X183635701Y-127414808D01*
X183609158Y-127422293D01*
X183583156Y-127408801D01*
X183575848Y-127376182D01*
X183583805Y-127355487D01*
X183612464Y-127342229D01*
X183622720Y-127343717D01*
G37*
G36*
X185302191Y-128943214D02*
G01*
X185324685Y-128961769D01*
X185330548Y-128990264D01*
X185315172Y-129014305D01*
X185288629Y-129021789D01*
X185262627Y-129008297D01*
X185255319Y-128975678D01*
X185263276Y-128954983D01*
X185291935Y-128941725D01*
X185302191Y-128943214D01*
G37*
G36*
X176948372Y-129042168D02*
G01*
X176961122Y-129072983D01*
X176966531Y-129113671D01*
X176962510Y-129143858D01*
X176951506Y-129157657D01*
X176945012Y-129153605D01*
X176933072Y-129128338D01*
X176924062Y-129091119D01*
X176920709Y-129055096D01*
X176925738Y-129033414D01*
X176932784Y-129030084D01*
X176948372Y-129042168D01*
G37*
G36*
X178270561Y-128828925D02*
G01*
X178276456Y-128857562D01*
X178278173Y-128896522D01*
X178275368Y-128933216D01*
X178267700Y-128955054D01*
X178252381Y-128965283D01*
X178236218Y-128956145D01*
X178230378Y-128919041D01*
X178233576Y-128875645D01*
X178245555Y-128836431D01*
X178264079Y-128821763D01*
X178270561Y-128828925D01*
G37*
G36*
X179326435Y-129049485D02*
G01*
X179327676Y-129071171D01*
X179319896Y-129094109D01*
X179308236Y-129135151D01*
X179305456Y-129144578D01*
X179290793Y-129169322D01*
X179276522Y-129170387D01*
X179270269Y-129145661D01*
X179275784Y-129098111D01*
X179291454Y-129060211D01*
X179313615Y-129045692D01*
X179326435Y-129049485D01*
G37*
G36*
X179642385Y-129094329D02*
G01*
X179652575Y-129112898D01*
X179650857Y-129150715D01*
X179637340Y-129199208D01*
X179621576Y-129226881D01*
X179605668Y-129227759D01*
X179600584Y-129214638D01*
X179601657Y-129180650D01*
X179610437Y-129140746D01*
X179623816Y-129107548D01*
X179638686Y-129093677D01*
X179642385Y-129094329D01*
G37*
G36*
X178706714Y-128940837D02*
G01*
X178706420Y-128966787D01*
X178685824Y-129014497D01*
X178678369Y-129027474D01*
X178656417Y-129053986D01*
X178637988Y-129063333D01*
X178630252Y-129050827D01*
X178630253Y-129050528D01*
X178637139Y-129017547D01*
X178653371Y-128979033D01*
X178672843Y-128947067D01*
X178689448Y-128933728D01*
X178706714Y-128940837D01*
G37*
G36*
X178200077Y-128826708D02*
G01*
X178214383Y-128845755D01*
X178212578Y-128856793D01*
X178198388Y-128869748D01*
X178197836Y-128869777D01*
X178186911Y-128884802D01*
X178182393Y-128919066D01*
X178177631Y-128953472D01*
X178162399Y-128961640D01*
X178148988Y-128946615D01*
X178141674Y-128912924D01*
X178138449Y-128882783D01*
X178129678Y-128859686D01*
X178118894Y-128843489D01*
X178128440Y-128827467D01*
X178166398Y-128821763D01*
X178200077Y-128826708D01*
G37*
G36*
X179228890Y-129034695D02*
G01*
X179247084Y-129063479D01*
X179254056Y-129118978D01*
X179253565Y-129126651D01*
X179240815Y-129152231D01*
X179219330Y-129157244D01*
X179200624Y-129137663D01*
X179191683Y-129127030D01*
X179176168Y-129141199D01*
X179174740Y-129143211D01*
X179156958Y-129158844D01*
X179148052Y-129150155D01*
X179149545Y-129123561D01*
X179162958Y-129085479D01*
X179175165Y-129063276D01*
X179203556Y-129034127D01*
X179228890Y-129034695D01*
G37*
G36*
X188883820Y-128660150D02*
G01*
X188931008Y-128707337D01*
X188931008Y-129131012D01*
X188931008Y-129554687D01*
X188881796Y-129596097D01*
X188832583Y-129637506D01*
X188040830Y-129637506D01*
X187249076Y-129637506D01*
X187202321Y-129590751D01*
X187155567Y-129543997D01*
X187155567Y-129127789D01*
X187155567Y-128711582D01*
X187194160Y-128666704D01*
X187232754Y-128621826D01*
X188034693Y-128617394D01*
X188836633Y-128612963D01*
X188883820Y-128660150D01*
G37*
G36*
X193067090Y-128666704D02*
G01*
X193105693Y-128711582D01*
X193105693Y-129127789D01*
X193105693Y-129543997D01*
X193058938Y-129590751D01*
X193012184Y-129637506D01*
X192217972Y-129637506D01*
X191423761Y-129637506D01*
X191377007Y-129590751D01*
X191330252Y-129543997D01*
X191330252Y-129127789D01*
X191330252Y-128711582D01*
X191368855Y-128666704D01*
X191407457Y-128621826D01*
X192217972Y-128621826D01*
X193028488Y-128621826D01*
X193067090Y-128666704D01*
G37*
G36*
X177944157Y-128826708D02*
G01*
X177958464Y-128845755D01*
X177956983Y-128856753D01*
X177945239Y-128869748D01*
X177944458Y-128869838D01*
X177937944Y-128885453D01*
X177939356Y-128919770D01*
X177941064Y-128933409D01*
X177939188Y-128959665D01*
X177924589Y-128962523D01*
X177908591Y-128946785D01*
X177897420Y-128912500D01*
X177890023Y-128883549D01*
X177877426Y-128869748D01*
X177870567Y-128867049D01*
X177862494Y-128845755D01*
X177872383Y-128828916D01*
X177910479Y-128821763D01*
X177944157Y-128826708D01*
G37*
G36*
X176887511Y-129038134D02*
G01*
X176888233Y-129038609D01*
X176902238Y-129062463D01*
X176909625Y-129100563D01*
X176909003Y-129138121D01*
X176898985Y-129160351D01*
X176890066Y-129165183D01*
X176860675Y-129173407D01*
X176848524Y-129168538D01*
X176835082Y-129143476D01*
X176832561Y-129109180D01*
X176843484Y-129079443D01*
X176854245Y-129063614D01*
X176843920Y-129066875D01*
X176835198Y-129070282D01*
X176816109Y-129063767D01*
X176817309Y-129055056D01*
X176836627Y-129042549D01*
X176864664Y-129035244D01*
X176887511Y-129038134D01*
G37*
G36*
X178378063Y-128842443D02*
G01*
X178398395Y-128853866D01*
X178399883Y-128863721D01*
X178383344Y-128879569D01*
X178368318Y-128892529D01*
X178358338Y-128924776D01*
X178356315Y-128947994D01*
X178348109Y-128970614D01*
X178346105Y-128972487D01*
X178328590Y-128975752D01*
X178318992Y-128954961D01*
X178320874Y-128917112D01*
X178323360Y-128883500D01*
X178312352Y-128869748D01*
X178306780Y-128868958D01*
X178294358Y-128853753D01*
X178294891Y-128851069D01*
X178312480Y-128841029D01*
X178344814Y-128838159D01*
X178378063Y-128842443D01*
G37*
G36*
X177516937Y-128929997D02*
G01*
X177546594Y-128972085D01*
X177550880Y-128981513D01*
X177562925Y-129016875D01*
X177562885Y-129036065D01*
X177558981Y-129039460D01*
X177537333Y-129044744D01*
X177526600Y-129029697D01*
X177520601Y-129020401D01*
X177494610Y-129013702D01*
X177474226Y-129011071D01*
X177464000Y-128995579D01*
X177482613Y-128966570D01*
X177483397Y-128965724D01*
X177494606Y-128951521D01*
X177482613Y-128956317D01*
X177473250Y-128960284D01*
X177449908Y-128959791D01*
X177438474Y-128947954D01*
X177448916Y-128931973D01*
X177481944Y-128918961D01*
X177516937Y-128929997D01*
G37*
G36*
X178078427Y-128827428D02*
G01*
X178095706Y-128852133D01*
X178099013Y-128891550D01*
X178086865Y-128932902D01*
X178066782Y-128957828D01*
X178035871Y-128962173D01*
X177999645Y-128935047D01*
X177989797Y-128921243D01*
X177978151Y-128882850D01*
X177982479Y-128846687D01*
X178002450Y-128825682D01*
X178017034Y-128832649D01*
X178022443Y-128868415D01*
X178022453Y-128870116D01*
X178027326Y-128903804D01*
X178038438Y-128917733D01*
X178038990Y-128917703D01*
X178049916Y-128902678D01*
X178054433Y-128868415D01*
X178059205Y-128834013D01*
X178074427Y-128825682D01*
X178078427Y-128827428D01*
G37*
G36*
X176798435Y-129069816D02*
G01*
X176814410Y-129121668D01*
X176817180Y-129146872D01*
X176810788Y-129171468D01*
X176796292Y-129172990D01*
X176779636Y-129147093D01*
X176776060Y-129138551D01*
X176767490Y-129132423D01*
X176756661Y-129155090D01*
X176749807Y-129171061D01*
X176733349Y-129187664D01*
X176716973Y-129172583D01*
X176700388Y-129125667D01*
X176692184Y-129090217D01*
X176692552Y-129067597D01*
X176705081Y-129061687D01*
X176714126Y-129063420D01*
X176726851Y-129080739D01*
X176732836Y-129085436D01*
X176749767Y-129068743D01*
X176755937Y-129061168D01*
X176778984Y-129049681D01*
X176798435Y-129069816D01*
G37*
G36*
X178457142Y-128859442D02*
G01*
X178483585Y-128877996D01*
X178498940Y-128904718D01*
X178493004Y-128924434D01*
X178466950Y-128945907D01*
X178456548Y-128951109D01*
X178443391Y-128961241D01*
X178458306Y-128964635D01*
X178473047Y-128967619D01*
X178486297Y-128981712D01*
X178482752Y-128990935D01*
X178461273Y-128997454D01*
X178431153Y-128990717D01*
X178405071Y-128972207D01*
X178396623Y-128960297D01*
X178396754Y-128941361D01*
X178421495Y-128918353D01*
X178429796Y-128911858D01*
X178446428Y-128892711D01*
X178436701Y-128882064D01*
X178427428Y-128876463D01*
X178427083Y-128860507D01*
X178432358Y-128856901D01*
X178457142Y-128859442D01*
G37*
G36*
X179055192Y-129018220D02*
G01*
X179055141Y-129040797D01*
X179050629Y-129053986D01*
X179054518Y-129057583D01*
X179076415Y-129039230D01*
X179088793Y-129029035D01*
X179115899Y-129018805D01*
X179129461Y-129037431D01*
X179129245Y-129084709D01*
X179128968Y-129086978D01*
X179118039Y-129126873D01*
X179100353Y-129141662D01*
X179090874Y-129139820D01*
X179078111Y-129122468D01*
X179074766Y-129111340D01*
X179058917Y-129122468D01*
X179052147Y-129128872D01*
X179029885Y-129140227D01*
X179017784Y-129123735D01*
X179014131Y-129077682D01*
X179014901Y-129053181D01*
X179022353Y-129022503D01*
X179039835Y-129013702D01*
X179055192Y-129018220D01*
G37*
G36*
X177685929Y-128982871D02*
G01*
X177684527Y-128985308D01*
X177654356Y-129008435D01*
X177613757Y-129012042D01*
X177577783Y-128994508D01*
X177576072Y-128992720D01*
X177559778Y-128955656D01*
X177561762Y-128940781D01*
X177606574Y-128940781D01*
X177607781Y-128950593D01*
X177621464Y-128973032D01*
X177636997Y-128974091D01*
X177649691Y-128957449D01*
X177646562Y-128933728D01*
X177636664Y-128922723D01*
X177616376Y-128920063D01*
X177606574Y-128940781D01*
X177561762Y-128940781D01*
X177565199Y-128915016D01*
X177590579Y-128885743D01*
X177605785Y-128879620D01*
X177646464Y-128881177D01*
X177678479Y-128904099D01*
X177694184Y-128940594D01*
X177690893Y-128957449D01*
X177685929Y-128982871D01*
G37*
G36*
X179518998Y-129081898D02*
G01*
X179518995Y-129104777D01*
X179514066Y-129118756D01*
X179517312Y-129122731D01*
X179538576Y-129104742D01*
X179540895Y-129102686D01*
X179569917Y-129086806D01*
X179586229Y-129097098D01*
X179588147Y-129129906D01*
X179573985Y-129181571D01*
X179566062Y-129197435D01*
X179547533Y-129213117D01*
X179534305Y-129205978D01*
X179535972Y-129177139D01*
X179539527Y-129165138D01*
X179538185Y-129158887D01*
X179521514Y-129177651D01*
X179495485Y-129199551D01*
X179472094Y-129205138D01*
X179461990Y-129191646D01*
X179462899Y-129173071D01*
X179472031Y-129127241D01*
X179487667Y-129091863D01*
X179505688Y-129077682D01*
X179518998Y-129081898D01*
G37*
G36*
X177797329Y-128841210D02*
G01*
X177830903Y-128856171D01*
X177849364Y-128893740D01*
X177856300Y-128932918D01*
X177854921Y-128961719D01*
X177854866Y-128961863D01*
X177837784Y-128974477D01*
X177807781Y-128981343D01*
X177779235Y-128980873D01*
X177766524Y-128971480D01*
X177772151Y-128961072D01*
X177794515Y-128939998D01*
X177806741Y-128930442D01*
X177813164Y-128920382D01*
X177792557Y-128918241D01*
X177787735Y-128918098D01*
X177771771Y-128912490D01*
X177782823Y-128893374D01*
X177786688Y-128888636D01*
X177794052Y-128874989D01*
X177776784Y-128879090D01*
X177759408Y-128881314D01*
X177750529Y-128862399D01*
X177750542Y-128861264D01*
X177760588Y-128842594D01*
X177793459Y-128840694D01*
X177797329Y-128841210D01*
G37*
G36*
X178566272Y-128909871D02*
G01*
X178566462Y-128915430D01*
X178573740Y-128925764D01*
X178597535Y-128914475D01*
X178608143Y-128908428D01*
X178633992Y-128903692D01*
X178641469Y-128925079D01*
X178630606Y-128972643D01*
X178627213Y-128981973D01*
X178608132Y-129015954D01*
X178588461Y-129029697D01*
X178581926Y-129029331D01*
X178573239Y-129020500D01*
X178584032Y-128993709D01*
X178594715Y-128972506D01*
X178593247Y-128967343D01*
X178571339Y-128985711D01*
X178539466Y-129007253D01*
X178513044Y-129013096D01*
X178502292Y-129000094D01*
X178502315Y-128999331D01*
X178507752Y-128974592D01*
X178519852Y-128936114D01*
X178527814Y-128916704D01*
X178545552Y-128890785D01*
X178560185Y-128887482D01*
X178566272Y-128909871D01*
G37*
G36*
X179453382Y-129113671D02*
G01*
X179452849Y-129116137D01*
X179443150Y-129154902D01*
X179435173Y-129177651D01*
X179434870Y-129178146D01*
X179411897Y-129189287D01*
X179378498Y-129184474D01*
X179350198Y-129165862D01*
X179340060Y-129143294D01*
X179340534Y-129102908D01*
X179385298Y-129102908D01*
X179385418Y-129127878D01*
X179392415Y-129139925D01*
X179404681Y-129127814D01*
X179410116Y-129110118D01*
X179403729Y-129094282D01*
X179388347Y-129098009D01*
X179385298Y-129102908D01*
X179340534Y-129102908D01*
X179340546Y-129101882D01*
X179347550Y-129082091D01*
X179367362Y-129065684D01*
X179407583Y-129061687D01*
X179417954Y-129061714D01*
X179449661Y-129064743D01*
X179458863Y-129079103D01*
X179453945Y-129110118D01*
X179453382Y-129113671D01*
G37*
G36*
X183383133Y-129109699D02*
G01*
X183395108Y-129112108D01*
X183403330Y-129121925D01*
X183408503Y-129144067D01*
X183411328Y-129183450D01*
X183412508Y-129244989D01*
X183412746Y-129333602D01*
X183412742Y-129350246D01*
X183412398Y-129434067D01*
X183410995Y-129491624D01*
X183407832Y-129527832D01*
X183402206Y-129547609D01*
X183393415Y-129555870D01*
X183380756Y-129557531D01*
X183378378Y-129557505D01*
X183366404Y-129555096D01*
X183358181Y-129545278D01*
X183353009Y-129523136D01*
X183350183Y-129483754D01*
X183349003Y-129422214D01*
X183348766Y-129333602D01*
X183348770Y-129316958D01*
X183349114Y-129233137D01*
X183350516Y-129175580D01*
X183353679Y-129139371D01*
X183359306Y-129119594D01*
X183368097Y-129111333D01*
X183380756Y-129109672D01*
X183383133Y-129109699D01*
G37*
G36*
X183623058Y-127510202D02*
G01*
X183635032Y-127512611D01*
X183643255Y-127522429D01*
X183648427Y-127544571D01*
X183651253Y-127583954D01*
X183652433Y-127645493D01*
X183652670Y-127734105D01*
X183652666Y-127750749D01*
X183652322Y-127834570D01*
X183650920Y-127892127D01*
X183647757Y-127928336D01*
X183642130Y-127948113D01*
X183633339Y-127956374D01*
X183620680Y-127958035D01*
X183618303Y-127958008D01*
X183606328Y-127955599D01*
X183598106Y-127945782D01*
X183592933Y-127923640D01*
X183590108Y-127884257D01*
X183588928Y-127822718D01*
X183588690Y-127734105D01*
X183588694Y-127717461D01*
X183589038Y-127633640D01*
X183590441Y-127576084D01*
X183593604Y-127539875D01*
X183599230Y-127520098D01*
X183608021Y-127511837D01*
X183620680Y-127510176D01*
X183623058Y-127510202D01*
G37*
G36*
X185302529Y-129109699D02*
G01*
X185314503Y-129112108D01*
X185322726Y-129121925D01*
X185327898Y-129144067D01*
X185330724Y-129183450D01*
X185331904Y-129244989D01*
X185332141Y-129333602D01*
X185332137Y-129350246D01*
X185331793Y-129434067D01*
X185330391Y-129491624D01*
X185327228Y-129527832D01*
X185321602Y-129547609D01*
X185312810Y-129555870D01*
X185300151Y-129557531D01*
X185297774Y-129557505D01*
X185285799Y-129555096D01*
X185277577Y-129545278D01*
X185272404Y-129523136D01*
X185269579Y-129483754D01*
X185268399Y-129422214D01*
X185268161Y-129333602D01*
X185268165Y-129316958D01*
X185268509Y-129233137D01*
X185269912Y-129175580D01*
X185273075Y-129139371D01*
X185278701Y-129119594D01*
X185287492Y-129111333D01*
X185300151Y-129109672D01*
X185302529Y-129109699D01*
G37*
G36*
X186327262Y-127350289D02*
G01*
X186337509Y-127352694D01*
X186344958Y-127361718D01*
X186350055Y-127381591D01*
X186353244Y-127416541D01*
X186354971Y-127470795D01*
X186355681Y-127548582D01*
X186355819Y-127654131D01*
X186355812Y-127686742D01*
X186355559Y-127784088D01*
X186354609Y-127854856D01*
X186352517Y-127903276D01*
X186348838Y-127933575D01*
X186343127Y-127949983D01*
X186334939Y-127956727D01*
X186323829Y-127958035D01*
X186320396Y-127957972D01*
X186310149Y-127955567D01*
X186302700Y-127946543D01*
X186297603Y-127926670D01*
X186294414Y-127891721D01*
X186292686Y-127837467D01*
X186291977Y-127759679D01*
X186291839Y-127654131D01*
X186291846Y-127621519D01*
X186292099Y-127524173D01*
X186293049Y-127453405D01*
X186295140Y-127404985D01*
X186298819Y-127374686D01*
X186304530Y-127358278D01*
X186312718Y-127351535D01*
X186323829Y-127350226D01*
X186327262Y-127350289D01*
G37*
G36*
X183512714Y-129101947D02*
G01*
X183550445Y-129118136D01*
X183592689Y-129143491D01*
X183599198Y-129148090D01*
X183625480Y-129165026D01*
X183635242Y-129163127D01*
X183636675Y-129142141D01*
X183642005Y-129120908D01*
X183668665Y-129109672D01*
X183671043Y-129109699D01*
X183683017Y-129112108D01*
X183691240Y-129121925D01*
X183696412Y-129144067D01*
X183699238Y-129183450D01*
X183700418Y-129244989D01*
X183700655Y-129333602D01*
X183700651Y-129350246D01*
X183700307Y-129434067D01*
X183698905Y-129491624D01*
X183695741Y-129527832D01*
X183690115Y-129547609D01*
X183681324Y-129555870D01*
X183668665Y-129557531D01*
X183668103Y-129557530D01*
X183651253Y-129554176D01*
X183641724Y-129539696D01*
X183637432Y-129507142D01*
X183636294Y-129449565D01*
X183633041Y-129361454D01*
X183620140Y-129276161D01*
X183596560Y-129217820D01*
X183561375Y-129184346D01*
X183513656Y-129173652D01*
X183507793Y-129173513D01*
X183483180Y-129163816D01*
X183476726Y-129132587D01*
X183477284Y-129117295D01*
X183486190Y-129099029D01*
X183512714Y-129101947D01*
G37*
G36*
X184472412Y-126702702D02*
G01*
X184510142Y-126718891D01*
X184552387Y-126744246D01*
X184558896Y-126748845D01*
X184585178Y-126765782D01*
X184594940Y-126763883D01*
X184596373Y-126742897D01*
X184601702Y-126721664D01*
X184628363Y-126710428D01*
X184630741Y-126710454D01*
X184642715Y-126712863D01*
X184650937Y-126722681D01*
X184656110Y-126744823D01*
X184658935Y-126784205D01*
X184660115Y-126845745D01*
X184660353Y-126934357D01*
X184660349Y-126951001D01*
X184660005Y-127034822D01*
X184658602Y-127092379D01*
X184655439Y-127128588D01*
X184649813Y-127148365D01*
X184641022Y-127156626D01*
X184628363Y-127158287D01*
X184627801Y-127158285D01*
X184610951Y-127154931D01*
X184601422Y-127140452D01*
X184597130Y-127107898D01*
X184595991Y-127050321D01*
X184592739Y-126962210D01*
X184579838Y-126876917D01*
X184556258Y-126818576D01*
X184521072Y-126785102D01*
X184473354Y-126774408D01*
X184467491Y-126774269D01*
X184442877Y-126764572D01*
X184436423Y-126733342D01*
X184436981Y-126718051D01*
X184445887Y-126699784D01*
X184472412Y-126702702D01*
G37*
G36*
X184744326Y-127502450D02*
G01*
X184782057Y-127518639D01*
X184824301Y-127543994D01*
X184830810Y-127548594D01*
X184857092Y-127565530D01*
X184866854Y-127563631D01*
X184868287Y-127542645D01*
X184873617Y-127521412D01*
X184900277Y-127510176D01*
X184902655Y-127510202D01*
X184914629Y-127512611D01*
X184922852Y-127522429D01*
X184928024Y-127544571D01*
X184930850Y-127583954D01*
X184932030Y-127645493D01*
X184932267Y-127734105D01*
X184932263Y-127750749D01*
X184931919Y-127834570D01*
X184930517Y-127892127D01*
X184927354Y-127928336D01*
X184921727Y-127948113D01*
X184912936Y-127956374D01*
X184900277Y-127958035D01*
X184899716Y-127958033D01*
X184882865Y-127954679D01*
X184873336Y-127940200D01*
X184869044Y-127907646D01*
X184867906Y-127850069D01*
X184864653Y-127761958D01*
X184851752Y-127676665D01*
X184828172Y-127618324D01*
X184792987Y-127584850D01*
X184745268Y-127574156D01*
X184739405Y-127574017D01*
X184714792Y-127564320D01*
X184708338Y-127533091D01*
X184708896Y-127517799D01*
X184717802Y-127499532D01*
X184744326Y-127502450D01*
G37*
G36*
X186739698Y-127158287D02*
G01*
X186608791Y-127158287D01*
X186569442Y-127157593D01*
X186473087Y-127147029D01*
X186400326Y-127122085D01*
X186346508Y-127080640D01*
X186306983Y-127020571D01*
X186295142Y-126991139D01*
X186279150Y-126914370D01*
X186278426Y-126870377D01*
X186339824Y-126870377D01*
X186340051Y-126882730D01*
X186353656Y-126963007D01*
X186385968Y-127027474D01*
X186433739Y-127069252D01*
X186452814Y-127077003D01*
X186510557Y-127089567D01*
X186578954Y-127094307D01*
X186675718Y-127094307D01*
X186675718Y-126870377D01*
X186675718Y-126646448D01*
X186578954Y-126646448D01*
X186516395Y-126650367D01*
X186437613Y-126672981D01*
X186382605Y-126716550D01*
X186350349Y-126782030D01*
X186339824Y-126870377D01*
X186278426Y-126870377D01*
X186277805Y-126832646D01*
X186290735Y-126757282D01*
X186317567Y-126699592D01*
X186349214Y-126660748D01*
X186389947Y-126625203D01*
X186438023Y-126603018D01*
X186501612Y-126590743D01*
X186588880Y-126584923D01*
X186739698Y-126579380D01*
X186739698Y-126868833D01*
X186739698Y-126870377D01*
X186739698Y-127158287D01*
G37*
G36*
X176663255Y-129089676D02*
G01*
X176684444Y-129120906D01*
X176688576Y-129155340D01*
X176669772Y-129184429D01*
X176647958Y-129196302D01*
X176607831Y-129205887D01*
X176587104Y-129208210D01*
X176551671Y-129220826D01*
X176544205Y-129224989D01*
X176519206Y-129228949D01*
X176511147Y-129216357D01*
X176527548Y-129195203D01*
X176541493Y-129184577D01*
X176545598Y-129175295D01*
X176520016Y-129173652D01*
X176508359Y-129173387D01*
X176492786Y-129167544D01*
X176503226Y-129149293D01*
X176507091Y-129144555D01*
X176514455Y-129130908D01*
X176497187Y-129135010D01*
X176481030Y-129137574D01*
X176470932Y-129121246D01*
X176480341Y-129103968D01*
X176509973Y-129089943D01*
X176523124Y-129088205D01*
X176548958Y-129096257D01*
X176568202Y-129128806D01*
X176587691Y-129159995D01*
X176613135Y-129170174D01*
X176623522Y-129166838D01*
X176638146Y-129148272D01*
X176630549Y-129126135D01*
X176602891Y-129112558D01*
X176575706Y-129103992D01*
X176568902Y-129087999D01*
X176592053Y-129071453D01*
X176593230Y-129071015D01*
X176630891Y-129070196D01*
X176663255Y-129089676D01*
G37*
G36*
X186739698Y-127670126D02*
G01*
X186739698Y-127958035D01*
X186587746Y-127958035D01*
X186565707Y-127957982D01*
X186500826Y-127956603D01*
X186461122Y-127952717D01*
X186441232Y-127945479D01*
X186435794Y-127934042D01*
X186438542Y-127924832D01*
X186455336Y-127915849D01*
X186492479Y-127911307D01*
X186555756Y-127910050D01*
X186675718Y-127910050D01*
X186675718Y-127806814D01*
X186675718Y-127703577D01*
X186567917Y-127698848D01*
X186532480Y-127696894D01*
X186487257Y-127691378D01*
X186463613Y-127681775D01*
X186454780Y-127666127D01*
X186454737Y-127665901D01*
X186455772Y-127651303D01*
X186469897Y-127642899D01*
X186503402Y-127639054D01*
X186562580Y-127638136D01*
X186675718Y-127638136D01*
X186675718Y-127534168D01*
X186675718Y-127430201D01*
X186555756Y-127430201D01*
X186509705Y-127429651D01*
X186464786Y-127426293D01*
X186442078Y-127418864D01*
X186435794Y-127406209D01*
X186436128Y-127402729D01*
X186444865Y-127392485D01*
X186469472Y-127386215D01*
X186515312Y-127383075D01*
X186587746Y-127382216D01*
X186739698Y-127382216D01*
X186739698Y-127670126D01*
G37*
G36*
X186739698Y-129269622D02*
G01*
X186739698Y-129557531D01*
X186587746Y-129557531D01*
X186565707Y-129557478D01*
X186500826Y-129556099D01*
X186461122Y-129552213D01*
X186441232Y-129544976D01*
X186435794Y-129533539D01*
X186438542Y-129524329D01*
X186455336Y-129515345D01*
X186492479Y-129510803D01*
X186555756Y-129509546D01*
X186675718Y-129509546D01*
X186675718Y-129406310D01*
X186675718Y-129303073D01*
X186567917Y-129298344D01*
X186532480Y-129296390D01*
X186487257Y-129290874D01*
X186463613Y-129281271D01*
X186454780Y-129265623D01*
X186454737Y-129265397D01*
X186455772Y-129250800D01*
X186469897Y-129242395D01*
X186503402Y-129238550D01*
X186562580Y-129237632D01*
X186675718Y-129237632D01*
X186675718Y-129133665D01*
X186675718Y-129029697D01*
X186555756Y-129029697D01*
X186509705Y-129029148D01*
X186464786Y-129025789D01*
X186442078Y-129018360D01*
X186435794Y-129005705D01*
X186436128Y-129002225D01*
X186444865Y-128991981D01*
X186469472Y-128985712D01*
X186515312Y-128982571D01*
X186587746Y-128981712D01*
X186739698Y-128981712D01*
X186739698Y-129269622D01*
G37*
G36*
X177051840Y-129049328D02*
G01*
X177057330Y-129054573D01*
X177090717Y-129076654D01*
X177116432Y-129078962D01*
X177126726Y-129060354D01*
X177126447Y-129057310D01*
X177114729Y-129049691D01*
X177111468Y-129050179D01*
X177098734Y-129037695D01*
X177098273Y-129032991D01*
X177110731Y-129023299D01*
X177118479Y-129024074D01*
X177150718Y-129027298D01*
X177163499Y-129033693D01*
X177173743Y-129056667D01*
X177171122Y-129081943D01*
X177154717Y-129094164D01*
X177148484Y-129098148D01*
X177163051Y-129111142D01*
X177178006Y-129123834D01*
X177182100Y-129142645D01*
X177163327Y-129155145D01*
X177129165Y-129154941D01*
X177097935Y-129138463D01*
X177081312Y-129127505D01*
X177059547Y-129138463D01*
X177053208Y-129143965D01*
X177022607Y-129156495D01*
X176994863Y-129152794D01*
X176982771Y-129133665D01*
X176985558Y-129122476D01*
X177006763Y-129109672D01*
X177017952Y-129106885D01*
X177030756Y-129085680D01*
X177024527Y-129071380D01*
X176997433Y-129061687D01*
X176978326Y-129057785D01*
X176970441Y-129042693D01*
X176984984Y-129022117D01*
X177013957Y-129021882D01*
X177051840Y-129049328D01*
G37*
G36*
X181207915Y-126540576D02*
G01*
X181216067Y-126542293D01*
X181265808Y-126560305D01*
X181297363Y-126592725D01*
X181319864Y-126648345D01*
X181321953Y-126655053D01*
X181342354Y-126697067D01*
X181367922Y-126710428D01*
X181381849Y-126712925D01*
X181396218Y-126730130D01*
X181390554Y-126753240D01*
X181365391Y-126769773D01*
X181357672Y-126772279D01*
X181346540Y-126780906D01*
X181339445Y-126799243D01*
X181335488Y-126832861D01*
X181333773Y-126887328D01*
X181333401Y-126968213D01*
X181333401Y-127158287D01*
X181293413Y-127158287D01*
X181253426Y-127158287D01*
X181253426Y-126966347D01*
X181253426Y-126774408D01*
X181205441Y-126774408D01*
X181193054Y-126774078D01*
X181164997Y-126765833D01*
X181157456Y-126742418D01*
X181157951Y-126734160D01*
X181170317Y-126715455D01*
X181205441Y-126710428D01*
X181223636Y-126709711D01*
X181247526Y-126700108D01*
X181253426Y-126673639D01*
X181250277Y-126649079D01*
X181226994Y-126612277D01*
X181186247Y-126598463D01*
X181168118Y-126592918D01*
X181157456Y-126564474D01*
X181159372Y-126546344D01*
X181173038Y-126536428D01*
X181207915Y-126540576D01*
G37*
G36*
X188116294Y-127638180D02*
G01*
X188306109Y-127638720D01*
X188465383Y-127639890D01*
X188595157Y-127641713D01*
X188696473Y-127644213D01*
X188770372Y-127647413D01*
X188817897Y-127651335D01*
X188840088Y-127656003D01*
X188864778Y-127669522D01*
X188888051Y-127687067D01*
X188905049Y-127710088D01*
X188916756Y-127743006D01*
X188924153Y-127790238D01*
X188928220Y-127856202D01*
X188929941Y-127945318D01*
X188930296Y-128062002D01*
X188930093Y-128158773D01*
X188928759Y-128252163D01*
X188925327Y-128321676D01*
X188918836Y-128371782D01*
X188908323Y-128406952D01*
X188892826Y-128431656D01*
X188871385Y-128450365D01*
X188843035Y-128467549D01*
X188832536Y-128470575D01*
X188797241Y-128474532D01*
X188737620Y-128477659D01*
X188652397Y-128479979D01*
X188540297Y-128481514D01*
X188400043Y-128482286D01*
X188230359Y-128482317D01*
X188029969Y-128481629D01*
X187248893Y-128477871D01*
X187202230Y-128425635D01*
X187155567Y-128373399D01*
X187155567Y-128060150D01*
X187155567Y-127746901D01*
X187209950Y-127692519D01*
X187264333Y-127638136D01*
X188034742Y-127638136D01*
X188116294Y-127638180D01*
G37*
G36*
X181856356Y-126955543D02*
G01*
X181840688Y-127028816D01*
X181799328Y-127096668D01*
X181732138Y-127146266D01*
X181704607Y-127159329D01*
X181660132Y-127171985D01*
X181615495Y-127168246D01*
X181556949Y-127148271D01*
X181512005Y-127122441D01*
X181464753Y-127068685D01*
X181437342Y-127001174D01*
X181432293Y-126948945D01*
X181495466Y-126948945D01*
X181506750Y-127010395D01*
X181535928Y-127061793D01*
X181583130Y-127094994D01*
X181631598Y-127106474D01*
X181695712Y-127098557D01*
X181747624Y-127064015D01*
X181781548Y-127005460D01*
X181793373Y-126935214D01*
X181782793Y-126868985D01*
X181752860Y-126814906D01*
X181707705Y-126777904D01*
X181651460Y-126762908D01*
X181588255Y-126774849D01*
X181567669Y-126785716D01*
X181526056Y-126828462D01*
X181501944Y-126885586D01*
X181495466Y-126948945D01*
X181432293Y-126948945D01*
X181430158Y-126926860D01*
X181443588Y-126852695D01*
X181478018Y-126785632D01*
X181533835Y-126732624D01*
X181570112Y-126715960D01*
X181637119Y-126705470D01*
X181705842Y-126712537D01*
X181761878Y-126736890D01*
X181815069Y-126791083D01*
X181849689Y-126867271D01*
X181854821Y-126935214D01*
X181856356Y-126955543D01*
G37*
G36*
X184655474Y-127755291D02*
G01*
X184639806Y-127828564D01*
X184598446Y-127896416D01*
X184531256Y-127946014D01*
X184503725Y-127959077D01*
X184459250Y-127971733D01*
X184414613Y-127967994D01*
X184356067Y-127948019D01*
X184311124Y-127922189D01*
X184263872Y-127868433D01*
X184236460Y-127800922D01*
X184231411Y-127748693D01*
X184294584Y-127748693D01*
X184305869Y-127810143D01*
X184335047Y-127861541D01*
X184382248Y-127894742D01*
X184430716Y-127906222D01*
X184494830Y-127898305D01*
X184546743Y-127863763D01*
X184580667Y-127805208D01*
X184592491Y-127734962D01*
X184581912Y-127668734D01*
X184551979Y-127614654D01*
X184506824Y-127577652D01*
X184450578Y-127562657D01*
X184387374Y-127574597D01*
X184366787Y-127585464D01*
X184325174Y-127628210D01*
X184301063Y-127685334D01*
X184294584Y-127748693D01*
X184231411Y-127748693D01*
X184229276Y-127726608D01*
X184242706Y-127652443D01*
X184277136Y-127585380D01*
X184332953Y-127532372D01*
X184369230Y-127515708D01*
X184436238Y-127505218D01*
X184504960Y-127512285D01*
X184560997Y-127536638D01*
X184614187Y-127590832D01*
X184648807Y-127667019D01*
X184653939Y-127734962D01*
X184655474Y-127755291D01*
G37*
G36*
X183378276Y-127528915D02*
G01*
X183434934Y-127574929D01*
X183462977Y-127616693D01*
X183487880Y-127692205D01*
X183488362Y-127770692D01*
X183465907Y-127844883D01*
X183421998Y-127907508D01*
X183358120Y-127951294D01*
X183307927Y-127968770D01*
X183257384Y-127970400D01*
X183198986Y-127951976D01*
X183164747Y-127932736D01*
X183121765Y-127896038D01*
X183089542Y-127855270D01*
X183076851Y-127819921D01*
X183084097Y-127801697D01*
X183106019Y-127799239D01*
X183134087Y-127814636D01*
X183159525Y-127845203D01*
X183180652Y-127871401D01*
X183231150Y-127900314D01*
X183290697Y-127908094D01*
X183347841Y-127891903D01*
X183380363Y-127864300D01*
X183411019Y-127808685D01*
X183423623Y-127741155D01*
X183415116Y-127671730D01*
X183397434Y-127631981D01*
X183355852Y-127587395D01*
X183303445Y-127563949D01*
X183247674Y-127562788D01*
X183195999Y-127585058D01*
X183155881Y-127631905D01*
X183153359Y-127636338D01*
X183128731Y-127662709D01*
X183103260Y-127671322D01*
X183085902Y-127661893D01*
X183085609Y-127634137D01*
X183086949Y-127629913D01*
X183121820Y-127569718D01*
X183175728Y-127528276D01*
X183241333Y-127506832D01*
X183311295Y-127506630D01*
X183378276Y-127528915D01*
G37*
G36*
X185601575Y-127528915D02*
G01*
X185658234Y-127574929D01*
X185686277Y-127616693D01*
X185711180Y-127692205D01*
X185711662Y-127770692D01*
X185689206Y-127844883D01*
X185645298Y-127907508D01*
X185581420Y-127951294D01*
X185531226Y-127968770D01*
X185480684Y-127970400D01*
X185422285Y-127951976D01*
X185388047Y-127932736D01*
X185345065Y-127896038D01*
X185312842Y-127855270D01*
X185300151Y-127819921D01*
X185307396Y-127801697D01*
X185329319Y-127799239D01*
X185357387Y-127814636D01*
X185382825Y-127845203D01*
X185403952Y-127871401D01*
X185454450Y-127900314D01*
X185513997Y-127908094D01*
X185571140Y-127891903D01*
X185603663Y-127864300D01*
X185634318Y-127808685D01*
X185646923Y-127741155D01*
X185638416Y-127671730D01*
X185620734Y-127631981D01*
X185579152Y-127587395D01*
X185526745Y-127563949D01*
X185470974Y-127562788D01*
X185419299Y-127585058D01*
X185379181Y-127631905D01*
X185376659Y-127636338D01*
X185352030Y-127662709D01*
X185326560Y-127671322D01*
X185309202Y-127661893D01*
X185308909Y-127634137D01*
X185310249Y-127629913D01*
X185345120Y-127569718D01*
X185399027Y-127528276D01*
X185464632Y-127506832D01*
X185534595Y-127506630D01*
X185601575Y-127528915D01*
G37*
G36*
X180518045Y-126454756D02*
G01*
X180520985Y-126474688D01*
X180523624Y-126526400D01*
X180525960Y-126609707D01*
X180527989Y-126724426D01*
X180529712Y-126870370D01*
X180531126Y-127047354D01*
X180532228Y-127255195D01*
X180533018Y-127493706D01*
X180533494Y-127762704D01*
X180533653Y-128062002D01*
X180533650Y-128100895D01*
X180533452Y-128396432D01*
X180532937Y-128661645D01*
X180532108Y-128896350D01*
X180530967Y-129100361D01*
X180529515Y-129273492D01*
X180527754Y-129415560D01*
X180525685Y-129526380D01*
X180523312Y-129605765D01*
X180520636Y-129653532D01*
X180517658Y-129669496D01*
X180517271Y-129669248D01*
X180514330Y-129649317D01*
X180511691Y-129597605D01*
X180509356Y-129514297D01*
X180507326Y-129399579D01*
X180505603Y-129253635D01*
X180504189Y-129076650D01*
X180503087Y-128868809D01*
X180502297Y-128630298D01*
X180501821Y-128361300D01*
X180501663Y-128062002D01*
X180501665Y-128023110D01*
X180501863Y-127727572D01*
X180502378Y-127462359D01*
X180503207Y-127227654D01*
X180504348Y-127023644D01*
X180505801Y-126850512D01*
X180507562Y-126708444D01*
X180509630Y-126597625D01*
X180512003Y-126518239D01*
X180514679Y-126470472D01*
X180517658Y-126454508D01*
X180518045Y-126454756D01*
G37*
G36*
X188884253Y-126533253D02*
G01*
X188931008Y-126580007D01*
X188931008Y-126990161D01*
X188930915Y-127041159D01*
X188929796Y-127165224D01*
X188927495Y-127269211D01*
X188924124Y-127350146D01*
X188919792Y-127405052D01*
X188914611Y-127430953D01*
X188891704Y-127458189D01*
X188854629Y-127485243D01*
X188843037Y-127489979D01*
X188821785Y-127494795D01*
X188789959Y-127498763D01*
X188744882Y-127501963D01*
X188683876Y-127504475D01*
X188604265Y-127506380D01*
X188503373Y-127507758D01*
X188378521Y-127508689D01*
X188227034Y-127509255D01*
X188046234Y-127509536D01*
X187965736Y-127509559D01*
X187776914Y-127509180D01*
X187618583Y-127508144D01*
X187489663Y-127506429D01*
X187389073Y-127504011D01*
X187315734Y-127500868D01*
X187268565Y-127496975D01*
X187246486Y-127492309D01*
X187244346Y-127491213D01*
X187218488Y-127476991D01*
X187198259Y-127461428D01*
X187182966Y-127440692D01*
X187171913Y-127410951D01*
X187164404Y-127368376D01*
X187159746Y-127309136D01*
X187157243Y-127229398D01*
X187156200Y-127125332D01*
X187155923Y-126993108D01*
X187155567Y-126580007D01*
X187202321Y-126533253D01*
X187249076Y-126486498D01*
X188043287Y-126486498D01*
X188837499Y-126486498D01*
X188884253Y-126533253D01*
G37*
G36*
X193058938Y-126533253D02*
G01*
X193105693Y-126580007D01*
X193105337Y-126993108D01*
X193105330Y-127001002D01*
X193105036Y-127131197D01*
X193103965Y-127233468D01*
X193101437Y-127311674D01*
X193096775Y-127369674D01*
X193089301Y-127411325D01*
X193078337Y-127440486D01*
X193063204Y-127461015D01*
X193043225Y-127476770D01*
X193017721Y-127491611D01*
X193015506Y-127492554D01*
X192987906Y-127497086D01*
X192932973Y-127500894D01*
X192849931Y-127503996D01*
X192738006Y-127506409D01*
X192596422Y-127508150D01*
X192424404Y-127509238D01*
X192221177Y-127509690D01*
X192171844Y-127509718D01*
X191995064Y-127509708D01*
X191846902Y-127509314D01*
X191724664Y-127508296D01*
X191625659Y-127506412D01*
X191547191Y-127503419D01*
X191486567Y-127499075D01*
X191441094Y-127493138D01*
X191408079Y-127485367D01*
X191384827Y-127475518D01*
X191368646Y-127463350D01*
X191356842Y-127448620D01*
X191346721Y-127431087D01*
X191344791Y-127425449D01*
X191339843Y-127388862D01*
X191335808Y-127324170D01*
X191332793Y-127234243D01*
X191330905Y-127121950D01*
X191330252Y-126990161D01*
X191330252Y-126580007D01*
X191377007Y-126533253D01*
X191423761Y-126486498D01*
X192217972Y-126486498D01*
X193012184Y-126486498D01*
X193058938Y-126533253D01*
G37*
G36*
X182275550Y-126600293D02*
G01*
X182289520Y-126615861D01*
X182293098Y-126654445D01*
X182294144Y-126679718D01*
X182303040Y-126704166D01*
X182325088Y-126710428D01*
X182345768Y-126715685D01*
X182357078Y-126742418D01*
X182351821Y-126763098D01*
X182325088Y-126774408D01*
X182322555Y-126774438D01*
X182308939Y-126777455D01*
X182300315Y-126789487D01*
X182295553Y-126816275D01*
X182293524Y-126863564D01*
X182293098Y-126937097D01*
X182293090Y-126945682D01*
X182291735Y-127022672D01*
X182287456Y-127074664D01*
X182279378Y-127108003D01*
X182266627Y-127129036D01*
X182236352Y-127148751D01*
X182178655Y-127158287D01*
X182146642Y-127156852D01*
X182123149Y-127147971D01*
X182117154Y-127127310D01*
X182117592Y-127120485D01*
X182131213Y-127100325D01*
X182169137Y-127091322D01*
X182221121Y-127086309D01*
X182225699Y-126930359D01*
X182230277Y-126774408D01*
X182173715Y-126774408D01*
X182147561Y-126773307D01*
X182123340Y-126764377D01*
X182117154Y-126742418D01*
X182118984Y-126727976D01*
X182134552Y-126714006D01*
X182173136Y-126710428D01*
X182177397Y-126710421D01*
X182212673Y-126707354D01*
X182226642Y-126691967D01*
X182229119Y-126654445D01*
X182230164Y-126629173D01*
X182239060Y-126604725D01*
X182261108Y-126598463D01*
X182275550Y-126600293D01*
G37*
G36*
X184322905Y-126600293D02*
G01*
X184336875Y-126615861D01*
X184340454Y-126654445D01*
X184341499Y-126679718D01*
X184350395Y-126704166D01*
X184372443Y-126710428D01*
X184393123Y-126715685D01*
X184404433Y-126742418D01*
X184399176Y-126763098D01*
X184372443Y-126774408D01*
X184369911Y-126774438D01*
X184356295Y-126777455D01*
X184347670Y-126789487D01*
X184342908Y-126816275D01*
X184340879Y-126863564D01*
X184340454Y-126937097D01*
X184340445Y-126945682D01*
X184339090Y-127022672D01*
X184334811Y-127074664D01*
X184326733Y-127108003D01*
X184313982Y-127129036D01*
X184283707Y-127148751D01*
X184226010Y-127158287D01*
X184193998Y-127156852D01*
X184170504Y-127147971D01*
X184164509Y-127127310D01*
X184164947Y-127120485D01*
X184178568Y-127100325D01*
X184216493Y-127091322D01*
X184268476Y-127086309D01*
X184273054Y-126930359D01*
X184277632Y-126774408D01*
X184221071Y-126774408D01*
X184194917Y-126773307D01*
X184170696Y-126764377D01*
X184164509Y-126742418D01*
X184166339Y-126727976D01*
X184181907Y-126714006D01*
X184220491Y-126710428D01*
X184224752Y-126710421D01*
X184260028Y-126707354D01*
X184273998Y-126691967D01*
X184276474Y-126654445D01*
X184277519Y-126629173D01*
X184286415Y-126604725D01*
X184308464Y-126598463D01*
X184322905Y-126600293D01*
G37*
G36*
X185170638Y-127400041D02*
G01*
X185184608Y-127415609D01*
X185188187Y-127454194D01*
X185189232Y-127479466D01*
X185198128Y-127503914D01*
X185220176Y-127510176D01*
X185240856Y-127515433D01*
X185252166Y-127542166D01*
X185246909Y-127562846D01*
X185220176Y-127574156D01*
X185217644Y-127574186D01*
X185204028Y-127577203D01*
X185195403Y-127589235D01*
X185190641Y-127616023D01*
X185188612Y-127663312D01*
X185188187Y-127736845D01*
X185188178Y-127745430D01*
X185186823Y-127822420D01*
X185182544Y-127874412D01*
X185174466Y-127907751D01*
X185161715Y-127928784D01*
X185131440Y-127948499D01*
X185073743Y-127958035D01*
X185041731Y-127956600D01*
X185018237Y-127947719D01*
X185012242Y-127927058D01*
X185012680Y-127920233D01*
X185026301Y-127900073D01*
X185064226Y-127891070D01*
X185116209Y-127886058D01*
X185120787Y-127730107D01*
X185125365Y-127574156D01*
X185068804Y-127574156D01*
X185042650Y-127573055D01*
X185018429Y-127564126D01*
X185012242Y-127542166D01*
X185014072Y-127527724D01*
X185029640Y-127513754D01*
X185068224Y-127510176D01*
X185072485Y-127510169D01*
X185107761Y-127507102D01*
X185121731Y-127491715D01*
X185124207Y-127454194D01*
X185125252Y-127428921D01*
X185134148Y-127404473D01*
X185156197Y-127398211D01*
X185170638Y-127400041D01*
G37*
G36*
X185442553Y-128199789D02*
G01*
X185456522Y-128215357D01*
X185460101Y-128253942D01*
X185461147Y-128279215D01*
X185470043Y-128303662D01*
X185492091Y-128309924D01*
X185512771Y-128315181D01*
X185524081Y-128341914D01*
X185518823Y-128362594D01*
X185492091Y-128373904D01*
X185489558Y-128373934D01*
X185475942Y-128376951D01*
X185467318Y-128388983D01*
X185462555Y-128415772D01*
X185460526Y-128463061D01*
X185460101Y-128536593D01*
X185460092Y-128545179D01*
X185458737Y-128622168D01*
X185454458Y-128674160D01*
X185446381Y-128707500D01*
X185433629Y-128728532D01*
X185403355Y-128748247D01*
X185345657Y-128757783D01*
X185313645Y-128756348D01*
X185290152Y-128747468D01*
X185284156Y-128726806D01*
X185284595Y-128719981D01*
X185298216Y-128699821D01*
X185336140Y-128690818D01*
X185388124Y-128685806D01*
X185392701Y-128529855D01*
X185397279Y-128373904D01*
X185340718Y-128373904D01*
X185314564Y-128372803D01*
X185290343Y-128363874D01*
X185284156Y-128341914D01*
X185285986Y-128327472D01*
X185301554Y-128313503D01*
X185340139Y-128309924D01*
X185344400Y-128309917D01*
X185379675Y-128306851D01*
X185393645Y-128291463D01*
X185396121Y-128253942D01*
X185397167Y-128228669D01*
X185406063Y-128204222D01*
X185428111Y-128197959D01*
X185442553Y-128199789D01*
G37*
G36*
X185960290Y-128310245D02*
G01*
X185972971Y-128312615D01*
X185984227Y-128315885D01*
X186001456Y-128330034D01*
X186019677Y-128359508D01*
X186041760Y-128409369D01*
X186070578Y-128484680D01*
X186092346Y-128543039D01*
X186114280Y-128600500D01*
X186130146Y-128640505D01*
X186137496Y-128656757D01*
X186137501Y-128656762D01*
X186145027Y-128644885D01*
X186161543Y-128608737D01*
X186184617Y-128553911D01*
X186211813Y-128485999D01*
X186223297Y-128456997D01*
X186252942Y-128386596D01*
X186275821Y-128341309D01*
X186294194Y-128317097D01*
X186310318Y-128309924D01*
X186326553Y-128312732D01*
X186339824Y-128326830D01*
X186339653Y-128328347D01*
X186331976Y-128353073D01*
X186314568Y-128400155D01*
X186289752Y-128463490D01*
X186259849Y-128536976D01*
X186254943Y-128548872D01*
X186225611Y-128621846D01*
X186201762Y-128684278D01*
X186185736Y-128729868D01*
X186179874Y-128752315D01*
X186184260Y-128773329D01*
X186198169Y-128816140D01*
X186218295Y-128868967D01*
X186235500Y-128915411D01*
X186246497Y-128954535D01*
X186247066Y-128973169D01*
X186236467Y-128980774D01*
X186220140Y-128979867D01*
X186201476Y-128962202D01*
X186178911Y-128925063D01*
X186150880Y-128865735D01*
X186115819Y-128781503D01*
X186072162Y-128669652D01*
X186060987Y-128640489D01*
X186019849Y-128533227D01*
X185988774Y-128451681D01*
X185966811Y-128392419D01*
X185953006Y-128352008D01*
X185946404Y-128327017D01*
X185946053Y-128314014D01*
X185951000Y-128309568D01*
X185960290Y-128310245D01*
G37*
G36*
X182687672Y-126724210D02*
G01*
X182732910Y-126763196D01*
X182748572Y-126784361D01*
X182755880Y-126783985D01*
X182756952Y-126753974D01*
X182757009Y-126749338D01*
X182764636Y-126718911D01*
X182788942Y-126710428D01*
X182791320Y-126710454D01*
X182803294Y-126712863D01*
X182811517Y-126722681D01*
X182816689Y-126744823D01*
X182819515Y-126784205D01*
X182820695Y-126845745D01*
X182820932Y-126934357D01*
X182820652Y-127021961D01*
X182819369Y-127084060D01*
X182816436Y-127123859D01*
X182811206Y-127146241D01*
X182803032Y-127156089D01*
X182791268Y-127158287D01*
X182778936Y-127155837D01*
X182769110Y-127143872D01*
X182762327Y-127116756D01*
X182757261Y-127068880D01*
X182752586Y-126994636D01*
X182752259Y-126988729D01*
X182747548Y-126915652D01*
X182741943Y-126866890D01*
X182733606Y-126835263D01*
X182720699Y-126813592D01*
X182701384Y-126794699D01*
X182669515Y-126773482D01*
X182609143Y-126759081D01*
X182549649Y-126774070D01*
X182527759Y-126792686D01*
X182503743Y-126842091D01*
X182489644Y-126918887D01*
X182485038Y-127024716D01*
X182484860Y-127066703D01*
X182483110Y-127116232D01*
X182478231Y-127143800D01*
X182468714Y-127155716D01*
X182453048Y-127158287D01*
X182439525Y-127156582D01*
X182429521Y-127146956D01*
X182424024Y-127123380D01*
X182421748Y-127079843D01*
X182421409Y-127010333D01*
X182423132Y-126944034D01*
X182434080Y-126850919D01*
X182456246Y-126783240D01*
X182490934Y-126737686D01*
X182539451Y-126710946D01*
X182558577Y-126705843D01*
X182625831Y-126704085D01*
X182687672Y-126724210D01*
G37*
G36*
X183119536Y-129123455D02*
G01*
X183164774Y-129162440D01*
X183180436Y-129183605D01*
X183187744Y-129183229D01*
X183188816Y-129153219D01*
X183188873Y-129148582D01*
X183196500Y-129118156D01*
X183220806Y-129109672D01*
X183223184Y-129109699D01*
X183235158Y-129112108D01*
X183243381Y-129121925D01*
X183248553Y-129144067D01*
X183251379Y-129183450D01*
X183252559Y-129244989D01*
X183252796Y-129333602D01*
X183252516Y-129421205D01*
X183251233Y-129483304D01*
X183248300Y-129523103D01*
X183243070Y-129545485D01*
X183234896Y-129555334D01*
X183223132Y-129557531D01*
X183210800Y-129555081D01*
X183200974Y-129543116D01*
X183194191Y-129516000D01*
X183189125Y-129468124D01*
X183184450Y-129393880D01*
X183184123Y-129387973D01*
X183179412Y-129314896D01*
X183173807Y-129266134D01*
X183165470Y-129234507D01*
X183152563Y-129212837D01*
X183133248Y-129193943D01*
X183101379Y-129172727D01*
X183041007Y-129158325D01*
X182981513Y-129173314D01*
X182959623Y-129191931D01*
X182935607Y-129241335D01*
X182921508Y-129318131D01*
X182916902Y-129423961D01*
X182916724Y-129465947D01*
X182914974Y-129515476D01*
X182910095Y-129543045D01*
X182900578Y-129554961D01*
X182884912Y-129557531D01*
X182871389Y-129555826D01*
X182861385Y-129546200D01*
X182855888Y-129522624D01*
X182853612Y-129479087D01*
X182853273Y-129409578D01*
X182854996Y-129343278D01*
X182865944Y-129250163D01*
X182888110Y-129182485D01*
X182922798Y-129136931D01*
X182971315Y-129110190D01*
X182990441Y-129105087D01*
X183057695Y-129103330D01*
X183119536Y-129123455D01*
G37*
G36*
X184015254Y-127523958D02*
G01*
X184060492Y-127562944D01*
X184076154Y-127584109D01*
X184083462Y-127583733D01*
X184084534Y-127553722D01*
X184084591Y-127549086D01*
X184092217Y-127518659D01*
X184116524Y-127510176D01*
X184118902Y-127510202D01*
X184130876Y-127512611D01*
X184139099Y-127522429D01*
X184144271Y-127544571D01*
X184147097Y-127583954D01*
X184148277Y-127645493D01*
X184148514Y-127734105D01*
X184148234Y-127821709D01*
X184146951Y-127883808D01*
X184144018Y-127923607D01*
X184138788Y-127945989D01*
X184130614Y-127955837D01*
X184118850Y-127958035D01*
X184106518Y-127955585D01*
X184096692Y-127943620D01*
X184089909Y-127916504D01*
X184084843Y-127868628D01*
X184080168Y-127794384D01*
X184079841Y-127788477D01*
X184075129Y-127715400D01*
X184069525Y-127666638D01*
X184061188Y-127635011D01*
X184048281Y-127613340D01*
X184028966Y-127594447D01*
X183997097Y-127573230D01*
X183936725Y-127558829D01*
X183877230Y-127573818D01*
X183855341Y-127592434D01*
X183831325Y-127641839D01*
X183817225Y-127718635D01*
X183812620Y-127824465D01*
X183812442Y-127866451D01*
X183810691Y-127915980D01*
X183805813Y-127943549D01*
X183796296Y-127955465D01*
X183780630Y-127958035D01*
X183767106Y-127956330D01*
X183757102Y-127946704D01*
X183751605Y-127923128D01*
X183749330Y-127879591D01*
X183748991Y-127810081D01*
X183750714Y-127743782D01*
X183761662Y-127650667D01*
X183783828Y-127582988D01*
X183818516Y-127537434D01*
X183867033Y-127510694D01*
X183886159Y-127505591D01*
X183953413Y-127503833D01*
X184015254Y-127523958D01*
G37*
G36*
X185038932Y-129123455D02*
G01*
X185084170Y-129162440D01*
X185099831Y-129183605D01*
X185107140Y-129183229D01*
X185108212Y-129153219D01*
X185108268Y-129148582D01*
X185115895Y-129118156D01*
X185140202Y-129109672D01*
X185142579Y-129109699D01*
X185154554Y-129112108D01*
X185162776Y-129121925D01*
X185167949Y-129144067D01*
X185170774Y-129183450D01*
X185171954Y-129244989D01*
X185172192Y-129333602D01*
X185171911Y-129421205D01*
X185170628Y-129483304D01*
X185167695Y-129523103D01*
X185162465Y-129545485D01*
X185154292Y-129555334D01*
X185142528Y-129557531D01*
X185130196Y-129555081D01*
X185120370Y-129543116D01*
X185113586Y-129516000D01*
X185108520Y-129468124D01*
X185103846Y-129393880D01*
X185103519Y-129387973D01*
X185098807Y-129314896D01*
X185093202Y-129266134D01*
X185084866Y-129234507D01*
X185071959Y-129212837D01*
X185052643Y-129193943D01*
X185020775Y-129172727D01*
X184960403Y-129158325D01*
X184900908Y-129173314D01*
X184879019Y-129191931D01*
X184855002Y-129241335D01*
X184840903Y-129318131D01*
X184836297Y-129423961D01*
X184836120Y-129465947D01*
X184834369Y-129515476D01*
X184829490Y-129543045D01*
X184819973Y-129554961D01*
X184804307Y-129557531D01*
X184790784Y-129555826D01*
X184780780Y-129546200D01*
X184775283Y-129522624D01*
X184773008Y-129479087D01*
X184772669Y-129409578D01*
X184774392Y-129343278D01*
X184785340Y-129250163D01*
X184807505Y-129182485D01*
X184842194Y-129136931D01*
X184890710Y-129110190D01*
X184909837Y-129105087D01*
X184977091Y-129103330D01*
X185038932Y-129123455D01*
G37*
G36*
X186222559Y-129123455D02*
G01*
X186267797Y-129162440D01*
X186283459Y-129183605D01*
X186290767Y-129183229D01*
X186291839Y-129153219D01*
X186291895Y-129148582D01*
X186299522Y-129118156D01*
X186323829Y-129109672D01*
X186326207Y-129109699D01*
X186338181Y-129112108D01*
X186346403Y-129121925D01*
X186351576Y-129144067D01*
X186354401Y-129183450D01*
X186355581Y-129244989D01*
X186355819Y-129333602D01*
X186355539Y-129421205D01*
X186354255Y-129483304D01*
X186351322Y-129523103D01*
X186346092Y-129545485D01*
X186337919Y-129555334D01*
X186326155Y-129557531D01*
X186313823Y-129555081D01*
X186303997Y-129543116D01*
X186297214Y-129516000D01*
X186292147Y-129468124D01*
X186287473Y-129393880D01*
X186287146Y-129387973D01*
X186282434Y-129314896D01*
X186276829Y-129266134D01*
X186268493Y-129234507D01*
X186255586Y-129212837D01*
X186236270Y-129193943D01*
X186204402Y-129172727D01*
X186144030Y-129158325D01*
X186084535Y-129173314D01*
X186062646Y-129191931D01*
X186038629Y-129241335D01*
X186024530Y-129318131D01*
X186019925Y-129423961D01*
X186019747Y-129465947D01*
X186017996Y-129515476D01*
X186013118Y-129543045D01*
X186003601Y-129554961D01*
X185987935Y-129557531D01*
X185974411Y-129555826D01*
X185964407Y-129546200D01*
X185958910Y-129522624D01*
X185956635Y-129479087D01*
X185956296Y-129409578D01*
X185958019Y-129343278D01*
X185968967Y-129250163D01*
X185991132Y-129182485D01*
X186025821Y-129136931D01*
X186074338Y-129110190D01*
X186093464Y-129105087D01*
X186160718Y-129103330D01*
X186222559Y-129123455D01*
G37*
G36*
X185199396Y-126968876D02*
G01*
X185182441Y-127041169D01*
X185146185Y-127103182D01*
X185090359Y-127147674D01*
X185026471Y-127166647D01*
X184951223Y-127160581D01*
X184880812Y-127126261D01*
X184836297Y-127093349D01*
X184836297Y-127125818D01*
X184830968Y-127147051D01*
X184804307Y-127158287D01*
X184801930Y-127158260D01*
X184789955Y-127155851D01*
X184781733Y-127146034D01*
X184776560Y-127123892D01*
X184773735Y-127084509D01*
X184772555Y-127022970D01*
X184772335Y-126941007D01*
X184835995Y-126941007D01*
X184846888Y-127004739D01*
X184872286Y-127053968D01*
X184921824Y-127091121D01*
X184980763Y-127104816D01*
X185039551Y-127095301D01*
X185089648Y-127063996D01*
X185122510Y-127012323D01*
X185136821Y-126959544D01*
X185136130Y-126904981D01*
X185114746Y-126845561D01*
X185077362Y-126797799D01*
X185024055Y-126770601D01*
X184964237Y-126766202D01*
X184906555Y-126785190D01*
X184859653Y-126828156D01*
X184840397Y-126876875D01*
X184835995Y-126941007D01*
X184772335Y-126941007D01*
X184772317Y-126934357D01*
X184772321Y-126917713D01*
X184772665Y-126833892D01*
X184774068Y-126776335D01*
X184777231Y-126740127D01*
X184782857Y-126720350D01*
X184791649Y-126712089D01*
X184804307Y-126710428D01*
X184807713Y-126710505D01*
X184830065Y-126720887D01*
X184836297Y-126753974D01*
X184836297Y-126797521D01*
X184860875Y-126762431D01*
X184883800Y-126738661D01*
X184939222Y-126711896D01*
X185006109Y-126704853D01*
X185074380Y-126719555D01*
X185079615Y-126721751D01*
X185137160Y-126762741D01*
X185176485Y-126822421D01*
X185197320Y-126893546D01*
X185199139Y-126959544D01*
X185199396Y-126968876D01*
G37*
G36*
X186674990Y-128194456D02*
G01*
X186721664Y-128235720D01*
X186748009Y-128291065D01*
X186748292Y-128355194D01*
X186735276Y-128392670D01*
X186707118Y-128428020D01*
X186659324Y-128459210D01*
X186585978Y-128491197D01*
X186522946Y-128520996D01*
X186475751Y-128560674D01*
X186458754Y-128605848D01*
X186471059Y-128657814D01*
X186492246Y-128686308D01*
X186535321Y-128708076D01*
X186585145Y-128707969D01*
X186632546Y-128686603D01*
X186668355Y-128644592D01*
X186668852Y-128643640D01*
X186693661Y-128612555D01*
X186719708Y-128600855D01*
X186738678Y-128609238D01*
X186742253Y-128638401D01*
X186733161Y-128665587D01*
X186695213Y-128713723D01*
X186635731Y-128752107D01*
X186598174Y-128764734D01*
X186532974Y-128766562D01*
X186474681Y-128745849D01*
X186428304Y-128707440D01*
X186398850Y-128656179D01*
X186391326Y-128596908D01*
X186410740Y-128534473D01*
X186435730Y-128507798D01*
X186484780Y-128473762D01*
X186550129Y-128438504D01*
X186581048Y-128423437D01*
X186628118Y-128398247D01*
X186654981Y-128377772D01*
X186667818Y-128356489D01*
X186672811Y-128328873D01*
X186673294Y-128323082D01*
X186667115Y-128270205D01*
X186638445Y-128239729D01*
X186585787Y-128229949D01*
X186561674Y-128232765D01*
X186516727Y-128250662D01*
X186481823Y-128278827D01*
X186467783Y-128309924D01*
X186461785Y-128319221D01*
X186435794Y-128325919D01*
X186418486Y-128323208D01*
X186405112Y-128306671D01*
X186411382Y-128279682D01*
X186433241Y-128247562D01*
X186466632Y-128215636D01*
X186507502Y-128189226D01*
X186551794Y-128173655D01*
X186613726Y-128172575D01*
X186674990Y-128194456D01*
G37*
G36*
X183310602Y-126979785D02*
G01*
X183288385Y-127049403D01*
X183245697Y-127108811D01*
X183182175Y-127151546D01*
X183131982Y-127169022D01*
X183081439Y-127170652D01*
X183023041Y-127152228D01*
X182986553Y-127132403D01*
X182947575Y-127099887D01*
X182919261Y-127064317D01*
X182905070Y-127031599D01*
X182908462Y-127007637D01*
X182932897Y-126998337D01*
X182951497Y-127001475D01*
X182964887Y-127015059D01*
X182965039Y-127016687D01*
X182977596Y-127040060D01*
X183004147Y-127071042D01*
X183006670Y-127073500D01*
X183058762Y-127103772D01*
X183116933Y-127108391D01*
X183172984Y-127089957D01*
X183218717Y-127051073D01*
X183245930Y-126994338D01*
X183256264Y-126950352D01*
X183078585Y-126950352D01*
X182900907Y-126950352D01*
X182900907Y-126896735D01*
X182900908Y-126896139D01*
X182904228Y-126880147D01*
X182964887Y-126880147D01*
X182964894Y-126882880D01*
X182966748Y-126899932D01*
X182976127Y-126910402D01*
X182999147Y-126915894D01*
X183041925Y-126918013D01*
X183110575Y-126918362D01*
X183256264Y-126918362D01*
X183245930Y-126874376D01*
X183245677Y-126873336D01*
X183225806Y-126831603D01*
X183193322Y-126792683D01*
X183171470Y-126775438D01*
X183135410Y-126761742D01*
X183086121Y-126763684D01*
X183080926Y-126764450D01*
X183019823Y-126786408D01*
X182979462Y-126826590D01*
X182964887Y-126880147D01*
X182904228Y-126880147D01*
X182915608Y-126825327D01*
X182954972Y-126766744D01*
X183012634Y-126725011D01*
X183082226Y-126704749D01*
X183157383Y-126710578D01*
X183202035Y-126728451D01*
X183258066Y-126774290D01*
X183295079Y-126835766D01*
X183312713Y-126906419D01*
X183312369Y-126918362D01*
X183310602Y-126979785D01*
G37*
G36*
X183856103Y-128310371D02*
G01*
X183905057Y-128337719D01*
X183936218Y-128384262D01*
X183941399Y-128401184D01*
X183944627Y-128452264D01*
X183923125Y-128493858D01*
X183874473Y-128529018D01*
X183796252Y-128560794D01*
X183748133Y-128577870D01*
X183721287Y-128593336D01*
X183710583Y-128613601D01*
X183708653Y-128645818D01*
X183708922Y-128665464D01*
X183714474Y-128690944D01*
X183734141Y-128702044D01*
X183776841Y-128706729D01*
X183785415Y-128707310D01*
X183826741Y-128706599D01*
X183851529Y-128693763D01*
X183872811Y-128662844D01*
X183875537Y-128658270D01*
X183902395Y-128626846D01*
X183928583Y-128613929D01*
X183940694Y-128614294D01*
X183953985Y-128620432D01*
X183950827Y-128639847D01*
X183931547Y-128679810D01*
X183899167Y-128720257D01*
X183855571Y-128750367D01*
X183802988Y-128768608D01*
X183753622Y-128769881D01*
X183701799Y-128750377D01*
X183667397Y-128727314D01*
X183643422Y-128688920D01*
X183636675Y-128630994D01*
X183638152Y-128612804D01*
X183657706Y-128571233D01*
X183702577Y-128537832D01*
X183776054Y-128509738D01*
X183829370Y-128491142D01*
X183872004Y-128465557D01*
X183887698Y-128435347D01*
X183879294Y-128397423D01*
X183876805Y-128392255D01*
X183852220Y-128365352D01*
X183810223Y-128357909D01*
X183798341Y-128358513D01*
X183750918Y-128372372D01*
X183714932Y-128399315D01*
X183700655Y-128432365D01*
X183694614Y-128444909D01*
X183668665Y-128453879D01*
X183657769Y-128452958D01*
X183638975Y-128438016D01*
X183645235Y-128406635D01*
X183676349Y-128361198D01*
X183685833Y-128350898D01*
X183738155Y-128316220D01*
X183797691Y-128302958D01*
X183856103Y-128310371D01*
G37*
G36*
X184206320Y-129379029D02*
G01*
X184184102Y-129448647D01*
X184141415Y-129508055D01*
X184077893Y-129550791D01*
X184027700Y-129568266D01*
X183977157Y-129569896D01*
X183918759Y-129551472D01*
X183882271Y-129531647D01*
X183843293Y-129499132D01*
X183814978Y-129463562D01*
X183800788Y-129430843D01*
X183804180Y-129406881D01*
X183828615Y-129397581D01*
X183847215Y-129400720D01*
X183860605Y-129414303D01*
X183860757Y-129415931D01*
X183873314Y-129439304D01*
X183899865Y-129470286D01*
X183902388Y-129472744D01*
X183954480Y-129503016D01*
X184012651Y-129507635D01*
X184068702Y-129489201D01*
X184114434Y-129450317D01*
X184141648Y-129393583D01*
X184151982Y-129349597D01*
X183974303Y-129349597D01*
X183796625Y-129349597D01*
X183796625Y-129295980D01*
X183796626Y-129295383D01*
X183799946Y-129279391D01*
X183860605Y-129279391D01*
X183860612Y-129282124D01*
X183862466Y-129299176D01*
X183871845Y-129309646D01*
X183894865Y-129315138D01*
X183937642Y-129317257D01*
X184006293Y-129317607D01*
X184151982Y-129317607D01*
X184141648Y-129273621D01*
X184141395Y-129272581D01*
X184121524Y-129230847D01*
X184089040Y-129191927D01*
X184067187Y-129174683D01*
X184031128Y-129160987D01*
X183981839Y-129162928D01*
X183976644Y-129163695D01*
X183915541Y-129185653D01*
X183875180Y-129225834D01*
X183860605Y-129279391D01*
X183799946Y-129279391D01*
X183811326Y-129224572D01*
X183850690Y-129165989D01*
X183908352Y-129124256D01*
X183977944Y-129103993D01*
X184053101Y-129109822D01*
X184097753Y-129127696D01*
X184153784Y-129173534D01*
X184190797Y-129235011D01*
X184208431Y-129305663D01*
X184208087Y-129317607D01*
X184206320Y-129379029D01*
G37*
G36*
X184686169Y-129379029D02*
G01*
X184663951Y-129448647D01*
X184621264Y-129508055D01*
X184557742Y-129550791D01*
X184507549Y-129568266D01*
X184457006Y-129569896D01*
X184398608Y-129551472D01*
X184362120Y-129531647D01*
X184323141Y-129499132D01*
X184294827Y-129463562D01*
X184280637Y-129430843D01*
X184284029Y-129406881D01*
X184308464Y-129397581D01*
X184327064Y-129400720D01*
X184340454Y-129414303D01*
X184340606Y-129415931D01*
X184353163Y-129439304D01*
X184379714Y-129470286D01*
X184382237Y-129472744D01*
X184434329Y-129503016D01*
X184492500Y-129507635D01*
X184548551Y-129489201D01*
X184594283Y-129450317D01*
X184621497Y-129393583D01*
X184631831Y-129349597D01*
X184454152Y-129349597D01*
X184276474Y-129349597D01*
X184276474Y-129295980D01*
X184276475Y-129295383D01*
X184279795Y-129279391D01*
X184340454Y-129279391D01*
X184340461Y-129282124D01*
X184342315Y-129299176D01*
X184351694Y-129309646D01*
X184374714Y-129315138D01*
X184417491Y-129317257D01*
X184486142Y-129317607D01*
X184631831Y-129317607D01*
X184621497Y-129273621D01*
X184621244Y-129272581D01*
X184601373Y-129230847D01*
X184568889Y-129191927D01*
X184547036Y-129174683D01*
X184510977Y-129160987D01*
X184461688Y-129162928D01*
X184456493Y-129163695D01*
X184395390Y-129185653D01*
X184355029Y-129225834D01*
X184340454Y-129279391D01*
X184279795Y-129279391D01*
X184291175Y-129224572D01*
X184330539Y-129165989D01*
X184388200Y-129124256D01*
X184457793Y-129103993D01*
X184532950Y-129109822D01*
X184577602Y-129127696D01*
X184633633Y-129173534D01*
X184670646Y-129235011D01*
X184688279Y-129305663D01*
X184687935Y-129317607D01*
X184686169Y-129379029D01*
G37*
G36*
X185214003Y-128579281D02*
G01*
X185191785Y-128648899D01*
X185149097Y-128708307D01*
X185085576Y-128751043D01*
X185035383Y-128768518D01*
X184984840Y-128770148D01*
X184926441Y-128751724D01*
X184889954Y-128731899D01*
X184850975Y-128699384D01*
X184822661Y-128663814D01*
X184808470Y-128631095D01*
X184811863Y-128607133D01*
X184836297Y-128597833D01*
X184854898Y-128600972D01*
X184868287Y-128614555D01*
X184868440Y-128616183D01*
X184880997Y-128639556D01*
X184907548Y-128670538D01*
X184910071Y-128672996D01*
X184962162Y-128703268D01*
X185020334Y-128707887D01*
X185076385Y-128689453D01*
X185122117Y-128650569D01*
X185149331Y-128593835D01*
X185159665Y-128549848D01*
X184981986Y-128549848D01*
X184804307Y-128549848D01*
X184804307Y-128496232D01*
X184804308Y-128495635D01*
X184807628Y-128479643D01*
X184868287Y-128479643D01*
X184868295Y-128482376D01*
X184870148Y-128499428D01*
X184879527Y-128509898D01*
X184902548Y-128515390D01*
X184945325Y-128517509D01*
X185013976Y-128517859D01*
X185159665Y-128517859D01*
X185149331Y-128473872D01*
X185149078Y-128472833D01*
X185129206Y-128431099D01*
X185096722Y-128392179D01*
X185074870Y-128374935D01*
X185038811Y-128361239D01*
X184989522Y-128363180D01*
X184984327Y-128363946D01*
X184923224Y-128385905D01*
X184882862Y-128426086D01*
X184868287Y-128479643D01*
X184807628Y-128479643D01*
X184819008Y-128424823D01*
X184858373Y-128366241D01*
X184916034Y-128324507D01*
X184985627Y-128304245D01*
X185060784Y-128310074D01*
X185105436Y-128327948D01*
X185161466Y-128373786D01*
X185198480Y-128435263D01*
X185216113Y-128505915D01*
X185215769Y-128517859D01*
X185214003Y-128579281D01*
G37*
G36*
X185791494Y-128310371D02*
G01*
X185840448Y-128337719D01*
X185871608Y-128384262D01*
X185876789Y-128401184D01*
X185880017Y-128452264D01*
X185858515Y-128493858D01*
X185809863Y-128529018D01*
X185731642Y-128560794D01*
X185683524Y-128577870D01*
X185656677Y-128593336D01*
X185645973Y-128613601D01*
X185644043Y-128645818D01*
X185644313Y-128665464D01*
X185649864Y-128690944D01*
X185669531Y-128702044D01*
X185712232Y-128706729D01*
X185720806Y-128707310D01*
X185762131Y-128706599D01*
X185786919Y-128693763D01*
X185808202Y-128662844D01*
X185810927Y-128658270D01*
X185837785Y-128626846D01*
X185863974Y-128613929D01*
X185876085Y-128614294D01*
X185889376Y-128620432D01*
X185886217Y-128639847D01*
X185866937Y-128679810D01*
X185834557Y-128720257D01*
X185790961Y-128750367D01*
X185738378Y-128768608D01*
X185689012Y-128769881D01*
X185637189Y-128750377D01*
X185602788Y-128727314D01*
X185578813Y-128688920D01*
X185572066Y-128630994D01*
X185573543Y-128612804D01*
X185593097Y-128571233D01*
X185637967Y-128537832D01*
X185711444Y-128509738D01*
X185764761Y-128491142D01*
X185807394Y-128465557D01*
X185823088Y-128435347D01*
X185814685Y-128397423D01*
X185812195Y-128392255D01*
X185787610Y-128365352D01*
X185745614Y-128357909D01*
X185733731Y-128358513D01*
X185686308Y-128372372D01*
X185650323Y-128399315D01*
X185636045Y-128432365D01*
X185630004Y-128444909D01*
X185604056Y-128453879D01*
X185593160Y-128452958D01*
X185574366Y-128438016D01*
X185580625Y-128406635D01*
X185611740Y-128361198D01*
X185621224Y-128350898D01*
X185673546Y-128316220D01*
X185733081Y-128302958D01*
X185791494Y-128310371D01*
G37*
G36*
X186189695Y-126979785D02*
G01*
X186167478Y-127049403D01*
X186124790Y-127108811D01*
X186061269Y-127151546D01*
X186011075Y-127169022D01*
X185960533Y-127170652D01*
X185902134Y-127152228D01*
X185865646Y-127132403D01*
X185826668Y-127099887D01*
X185798354Y-127064317D01*
X185784163Y-127031599D01*
X185787556Y-127007637D01*
X185811990Y-126998337D01*
X185830590Y-127001475D01*
X185843980Y-127015059D01*
X185844132Y-127016687D01*
X185856689Y-127040060D01*
X185883240Y-127071042D01*
X185885763Y-127073500D01*
X185937855Y-127103772D01*
X185996026Y-127108391D01*
X186052078Y-127089957D01*
X186097810Y-127051073D01*
X186125024Y-126994338D01*
X186135357Y-126950352D01*
X185957679Y-126950352D01*
X185780000Y-126950352D01*
X185780000Y-126896735D01*
X185780001Y-126896139D01*
X185783321Y-126880147D01*
X185843980Y-126880147D01*
X185843987Y-126882880D01*
X185845841Y-126899932D01*
X185855220Y-126910402D01*
X185878240Y-126915894D01*
X185921018Y-126918013D01*
X185989669Y-126918362D01*
X186135357Y-126918362D01*
X186125024Y-126874376D01*
X186124770Y-126873336D01*
X186104899Y-126831603D01*
X186072415Y-126792683D01*
X186050563Y-126775438D01*
X186014504Y-126761742D01*
X185965215Y-126763684D01*
X185960019Y-126764450D01*
X185898917Y-126786408D01*
X185858555Y-126826590D01*
X185843980Y-126880147D01*
X185783321Y-126880147D01*
X185794701Y-126825327D01*
X185834065Y-126766744D01*
X185891727Y-126725011D01*
X185961320Y-126704749D01*
X186036476Y-126710578D01*
X186081129Y-126728451D01*
X186137159Y-126774290D01*
X186174173Y-126835766D01*
X186191806Y-126906419D01*
X186191462Y-126918362D01*
X186189695Y-126979785D01*
G37*
G36*
X186189695Y-127779533D02*
G01*
X186167478Y-127849151D01*
X186124790Y-127908559D01*
X186061269Y-127951294D01*
X186011075Y-127968770D01*
X185960533Y-127970400D01*
X185902134Y-127951976D01*
X185865646Y-127932151D01*
X185826668Y-127899636D01*
X185798354Y-127864066D01*
X185784163Y-127831347D01*
X185787556Y-127807385D01*
X185811990Y-127798085D01*
X185830590Y-127801224D01*
X185843980Y-127814807D01*
X185844132Y-127816435D01*
X185856689Y-127839808D01*
X185883240Y-127870790D01*
X185885763Y-127873248D01*
X185937855Y-127903520D01*
X185996026Y-127908139D01*
X186052078Y-127889705D01*
X186097810Y-127850821D01*
X186125024Y-127794087D01*
X186135357Y-127750100D01*
X185957679Y-127750100D01*
X185780000Y-127750100D01*
X185780000Y-127696483D01*
X185780001Y-127695887D01*
X185783321Y-127679895D01*
X185843980Y-127679895D01*
X185843987Y-127682628D01*
X185845841Y-127699680D01*
X185855220Y-127710150D01*
X185878240Y-127715642D01*
X185921018Y-127717761D01*
X185989669Y-127718110D01*
X186135357Y-127718110D01*
X186125024Y-127674124D01*
X186124770Y-127673084D01*
X186104899Y-127631351D01*
X186072415Y-127592431D01*
X186050563Y-127575186D01*
X186014504Y-127561491D01*
X185965215Y-127563432D01*
X185960019Y-127564198D01*
X185898917Y-127586156D01*
X185858555Y-127626338D01*
X185843980Y-127679895D01*
X185783321Y-127679895D01*
X185794701Y-127625075D01*
X185834065Y-127566493D01*
X185891727Y-127524759D01*
X185961320Y-127504497D01*
X186036476Y-127510326D01*
X186081129Y-127528200D01*
X186137159Y-127574038D01*
X186174173Y-127635514D01*
X186191806Y-127706167D01*
X186191462Y-127718110D01*
X186189695Y-127779533D01*
G37*
G36*
X185700025Y-127035659D02*
G01*
X185700000Y-127058141D01*
X185699286Y-127155050D01*
X185697708Y-127239804D01*
X185695423Y-127307445D01*
X185692589Y-127353014D01*
X185689362Y-127371553D01*
X185684575Y-127375111D01*
X185657372Y-127382216D01*
X185656926Y-127382207D01*
X185646908Y-127373927D01*
X185640481Y-127347134D01*
X185637056Y-127297354D01*
X185636045Y-127220110D01*
X185636045Y-127058003D01*
X185604598Y-127097982D01*
X185553452Y-127144444D01*
X185486602Y-127167628D01*
X185412146Y-127160185D01*
X185408330Y-127159002D01*
X185343388Y-127123693D01*
X185297154Y-127069689D01*
X185269622Y-127003369D01*
X185262630Y-126946164D01*
X185329536Y-126946164D01*
X185343291Y-127009320D01*
X185378896Y-127063547D01*
X185400419Y-127082451D01*
X185456780Y-127108487D01*
X185514918Y-127102611D01*
X185574479Y-127064820D01*
X185605205Y-127032986D01*
X185621478Y-126997333D01*
X185625382Y-126946119D01*
X185623364Y-126912961D01*
X185602678Y-126843285D01*
X185562824Y-126793147D01*
X185507780Y-126766419D01*
X185441522Y-126766978D01*
X185402465Y-126783213D01*
X185360814Y-126825102D01*
X185335941Y-126882089D01*
X185329536Y-126946164D01*
X185262630Y-126946164D01*
X185260790Y-126931114D01*
X185270654Y-126859304D01*
X185299211Y-126794321D01*
X185346457Y-126742544D01*
X185412389Y-126710354D01*
X185419866Y-126708504D01*
X185492580Y-126706152D01*
X185559127Y-126729804D01*
X185609963Y-126776277D01*
X185636045Y-126813516D01*
X185636045Y-126761972D01*
X185636676Y-126743677D01*
X185645264Y-126717341D01*
X185668035Y-126710428D01*
X185674331Y-126710711D01*
X185683561Y-126714313D01*
X185690267Y-126725374D01*
X185694853Y-126747982D01*
X185697719Y-126786226D01*
X185699268Y-126844195D01*
X185699903Y-126925976D01*
X185699925Y-126946119D01*
X185700025Y-127035659D01*
G37*
G36*
X182767253Y-129371621D02*
G01*
X182742635Y-129454777D01*
X182710682Y-129504636D01*
X182653914Y-129548683D01*
X182586369Y-129567666D01*
X182514978Y-129559965D01*
X182446673Y-129523960D01*
X182405063Y-129491229D01*
X182405063Y-129565095D01*
X182411222Y-129616380D01*
X182438631Y-129673240D01*
X182482574Y-129708490D01*
X182537092Y-129719820D01*
X182596227Y-129704926D01*
X182654021Y-129661498D01*
X182669842Y-129645327D01*
X182708901Y-129613229D01*
X182732831Y-129608062D01*
X182740957Y-129630071D01*
X182739926Y-129640810D01*
X182720524Y-129685266D01*
X182683444Y-129728430D01*
X182637751Y-129758975D01*
X182636059Y-129759705D01*
X182558655Y-129778308D01*
X182483027Y-129770955D01*
X182416994Y-129739742D01*
X182368372Y-129686763D01*
X182361255Y-129672791D01*
X182352772Y-129645842D01*
X182346972Y-129607829D01*
X182343395Y-129553524D01*
X182341585Y-129477697D01*
X182341083Y-129375120D01*
X182341124Y-129340251D01*
X182404761Y-129340251D01*
X182415654Y-129403983D01*
X182441052Y-129453212D01*
X182490589Y-129490366D01*
X182549528Y-129504061D01*
X182608317Y-129494545D01*
X182658414Y-129463240D01*
X182691276Y-129411568D01*
X182705587Y-129358789D01*
X182704896Y-129304225D01*
X182683512Y-129244806D01*
X182646128Y-129197043D01*
X182592821Y-129169846D01*
X182533003Y-129165446D01*
X182475320Y-129184434D01*
X182428418Y-129227400D01*
X182409163Y-129276119D01*
X182404761Y-129340251D01*
X182341124Y-129340251D01*
X182341174Y-129297580D01*
X182341847Y-129221326D01*
X182343651Y-129169075D01*
X182347131Y-129136305D01*
X182352831Y-129118495D01*
X182361297Y-129111124D01*
X182373073Y-129109672D01*
X182376479Y-129109749D01*
X182398831Y-129120131D01*
X182405063Y-129153219D01*
X182405063Y-129196765D01*
X182429641Y-129161675D01*
X182434014Y-129156241D01*
X182469717Y-129129397D01*
X182516499Y-129109815D01*
X182585681Y-129103000D01*
X182652331Y-129121413D01*
X182706899Y-129162188D01*
X182746299Y-129220619D01*
X182767445Y-129291999D01*
X182767284Y-129358789D01*
X182767253Y-129371621D01*
G37*
G36*
X185870275Y-129371621D02*
G01*
X185845658Y-129454777D01*
X185813705Y-129504636D01*
X185756936Y-129548683D01*
X185689391Y-129567666D01*
X185618001Y-129559965D01*
X185549696Y-129523960D01*
X185508086Y-129491229D01*
X185508086Y-129565095D01*
X185514245Y-129616380D01*
X185541654Y-129673240D01*
X185585597Y-129708490D01*
X185640115Y-129719820D01*
X185699250Y-129704926D01*
X185757044Y-129661498D01*
X185772865Y-129645327D01*
X185811923Y-129613229D01*
X185835853Y-129608062D01*
X185843980Y-129630071D01*
X185842949Y-129640810D01*
X185823547Y-129685266D01*
X185786466Y-129728430D01*
X185740774Y-129758975D01*
X185739082Y-129759705D01*
X185661677Y-129778308D01*
X185586050Y-129770955D01*
X185520017Y-129739742D01*
X185471394Y-129686763D01*
X185464278Y-129672791D01*
X185455795Y-129645842D01*
X185449994Y-129607829D01*
X185446418Y-129553524D01*
X185444608Y-129477697D01*
X185444106Y-129375120D01*
X185444146Y-129340251D01*
X185507784Y-129340251D01*
X185518676Y-129403983D01*
X185544074Y-129453212D01*
X185593612Y-129490366D01*
X185652551Y-129504061D01*
X185711340Y-129494545D01*
X185761436Y-129463240D01*
X185794299Y-129411568D01*
X185808609Y-129358789D01*
X185807919Y-129304225D01*
X185786535Y-129244806D01*
X185749150Y-129197043D01*
X185695843Y-129169846D01*
X185636026Y-129165446D01*
X185578343Y-129184434D01*
X185531441Y-129227400D01*
X185512186Y-129276119D01*
X185507784Y-129340251D01*
X185444146Y-129340251D01*
X185444196Y-129297580D01*
X185444869Y-129221326D01*
X185446673Y-129169075D01*
X185450153Y-129136305D01*
X185455854Y-129118495D01*
X185464320Y-129111124D01*
X185476096Y-129109672D01*
X185479502Y-129109749D01*
X185501854Y-129120131D01*
X185508086Y-129153219D01*
X185508086Y-129196765D01*
X185532664Y-129161675D01*
X185537037Y-129156241D01*
X185572740Y-129129397D01*
X185619522Y-129109815D01*
X185688703Y-129103000D01*
X185755354Y-129121413D01*
X185809922Y-129162188D01*
X185849322Y-129220619D01*
X185870468Y-129291999D01*
X185870306Y-129358789D01*
X185870275Y-129371621D01*
G37*
G36*
X192491655Y-127638215D02*
G01*
X192627413Y-127638633D01*
X192738423Y-127639640D01*
X192827481Y-127641491D01*
X192897383Y-127644443D01*
X192950924Y-127648751D01*
X192990902Y-127654670D01*
X193020111Y-127662456D01*
X193041349Y-127672364D01*
X193057410Y-127684650D01*
X193071092Y-127699569D01*
X193085190Y-127717376D01*
X193086859Y-127720355D01*
X193093370Y-127751218D01*
X193098551Y-127806526D01*
X193102370Y-127880155D01*
X193104797Y-127965981D01*
X193105804Y-128057881D01*
X193105360Y-128149732D01*
X193103436Y-128235410D01*
X193100002Y-128308793D01*
X193095027Y-128363756D01*
X193088482Y-128394177D01*
X193065390Y-128426884D01*
X193028501Y-128458483D01*
X193021162Y-128462452D01*
X193005669Y-128467969D01*
X192983160Y-128472524D01*
X192950860Y-128476211D01*
X192905995Y-128479122D01*
X192845789Y-128481348D01*
X192767468Y-128482982D01*
X192668257Y-128484117D01*
X192545380Y-128484843D01*
X192396064Y-128485255D01*
X192217533Y-128485443D01*
X192107430Y-128485508D01*
X191944143Y-128485516D01*
X191808403Y-128485174D01*
X191697413Y-128484230D01*
X191608376Y-128482428D01*
X191538494Y-128479515D01*
X191484973Y-128475235D01*
X191445013Y-128469335D01*
X191415818Y-128461560D01*
X191394592Y-128451657D01*
X191378538Y-128439370D01*
X191364857Y-128424445D01*
X191350754Y-128406628D01*
X191347172Y-128398345D01*
X191340765Y-128360307D01*
X191335861Y-128299323D01*
X191332461Y-128221491D01*
X191330565Y-128132913D01*
X191330171Y-128039689D01*
X191331281Y-127947918D01*
X191333894Y-127863702D01*
X191338011Y-127793139D01*
X191343631Y-127742330D01*
X191350754Y-127717376D01*
X191359280Y-127706508D01*
X191372794Y-127690435D01*
X191387542Y-127677100D01*
X191406319Y-127666248D01*
X191431920Y-127657623D01*
X191467144Y-127650969D01*
X191514784Y-127646031D01*
X191577638Y-127642554D01*
X191658502Y-127640282D01*
X191760171Y-127638960D01*
X191885442Y-127638332D01*
X192037110Y-127638142D01*
X192217972Y-127638136D01*
X192328352Y-127638132D01*
X192491655Y-127638215D01*
G37*
G36*
X183595999Y-126706486D02*
G01*
X183652620Y-126729065D01*
X183692608Y-126763196D01*
X183716650Y-126797521D01*
X183740005Y-126764176D01*
X183743816Y-126759091D01*
X183788788Y-126722638D01*
X183846395Y-126701421D01*
X183901659Y-126701269D01*
X183942097Y-126719792D01*
X183981944Y-126750339D01*
X184020554Y-126788949D01*
X184020554Y-126749688D01*
X184027295Y-126719993D01*
X184052544Y-126710428D01*
X184054922Y-126710454D01*
X184066896Y-126712863D01*
X184075119Y-126722681D01*
X184080291Y-126744823D01*
X184083117Y-126784205D01*
X184084297Y-126845745D01*
X184084534Y-126934357D01*
X184084254Y-127021961D01*
X184082971Y-127084060D01*
X184080038Y-127123859D01*
X184074808Y-127146241D01*
X184066634Y-127156089D01*
X184054870Y-127158287D01*
X184042538Y-127155837D01*
X184032712Y-127143872D01*
X184025929Y-127116756D01*
X184020863Y-127068880D01*
X184016188Y-126994636D01*
X184015861Y-126988729D01*
X184011150Y-126915652D01*
X184005545Y-126866890D01*
X183997208Y-126835263D01*
X183984301Y-126813592D01*
X183964986Y-126794699D01*
X183919518Y-126766687D01*
X183864456Y-126761886D01*
X183810393Y-126788962D01*
X183808352Y-126790630D01*
X183791971Y-126807028D01*
X183781130Y-126828268D01*
X183774362Y-126861134D01*
X183770200Y-126912416D01*
X183767178Y-126988899D01*
X183764234Y-127064031D01*
X183760417Y-127113557D01*
X183754631Y-127142091D01*
X183745749Y-127155159D01*
X183732645Y-127158287D01*
X183719649Y-127155230D01*
X183710730Y-127142289D01*
X183704919Y-127113938D01*
X183701089Y-127064650D01*
X183698112Y-126988899D01*
X183697814Y-126979743D01*
X183694742Y-126906143D01*
X183690382Y-126857051D01*
X183683265Y-126825682D01*
X183671926Y-126805248D01*
X183654897Y-126788962D01*
X183606690Y-126763724D01*
X183549935Y-126763441D01*
X183497750Y-126793191D01*
X183496734Y-126794150D01*
X183480278Y-126812450D01*
X183469760Y-126834419D01*
X183463870Y-126867137D01*
X183461297Y-126917680D01*
X183460731Y-126993128D01*
X183460721Y-127009861D01*
X183460090Y-127078499D01*
X183457680Y-127121958D01*
X183452389Y-127145942D01*
X183443110Y-127156151D01*
X183428741Y-127158287D01*
X183423006Y-127158095D01*
X183410845Y-127153872D01*
X183403155Y-127139856D01*
X183398920Y-127110500D01*
X183397124Y-127060254D01*
X183396751Y-126983569D01*
X183396776Y-126959677D01*
X183397664Y-126889063D01*
X183400793Y-126841200D01*
X183407468Y-126808814D01*
X183418999Y-126784633D01*
X183436691Y-126761386D01*
X183441383Y-126756050D01*
X183480159Y-126722680D01*
X183518276Y-126703467D01*
X183537433Y-126700491D01*
X183595999Y-126706486D01*
G37*
G36*
X184235798Y-128305982D02*
G01*
X184292418Y-128328561D01*
X184332406Y-128362692D01*
X184356448Y-128397017D01*
X184379804Y-128363672D01*
X184383615Y-128358587D01*
X184428586Y-128322134D01*
X184486194Y-128300917D01*
X184541458Y-128300765D01*
X184581895Y-128319288D01*
X184621743Y-128349835D01*
X184660353Y-128388445D01*
X184660353Y-128349184D01*
X184667094Y-128319489D01*
X184692343Y-128309924D01*
X184694720Y-128309950D01*
X184706695Y-128312359D01*
X184714917Y-128322177D01*
X184720090Y-128344319D01*
X184722915Y-128383702D01*
X184724095Y-128445241D01*
X184724333Y-128533854D01*
X184724052Y-128621457D01*
X184722769Y-128683556D01*
X184719836Y-128723355D01*
X184714606Y-128745737D01*
X184706433Y-128755585D01*
X184694669Y-128757783D01*
X184682337Y-128755333D01*
X184672511Y-128743368D01*
X184665727Y-128716252D01*
X184660661Y-128668376D01*
X184655987Y-128594132D01*
X184655660Y-128588225D01*
X184650948Y-128515148D01*
X184645343Y-128466386D01*
X184637007Y-128434759D01*
X184624100Y-128413089D01*
X184604784Y-128394195D01*
X184559316Y-128366183D01*
X184504255Y-128361382D01*
X184450191Y-128388458D01*
X184448151Y-128390126D01*
X184431769Y-128406525D01*
X184420928Y-128427764D01*
X184414160Y-128460631D01*
X184409998Y-128511912D01*
X184406976Y-128588395D01*
X184404032Y-128663527D01*
X184400216Y-128713053D01*
X184394430Y-128741587D01*
X184385548Y-128754655D01*
X184372443Y-128757783D01*
X184359447Y-128754726D01*
X184350529Y-128741786D01*
X184344718Y-128713434D01*
X184340887Y-128664146D01*
X184337911Y-128588395D01*
X184337612Y-128579240D01*
X184334541Y-128505639D01*
X184330180Y-128456548D01*
X184323064Y-128425178D01*
X184311725Y-128404744D01*
X184294695Y-128388458D01*
X184246489Y-128363220D01*
X184189734Y-128362937D01*
X184137549Y-128392687D01*
X184136532Y-128393646D01*
X184120076Y-128411946D01*
X184109558Y-128433915D01*
X184103668Y-128466633D01*
X184101095Y-128517176D01*
X184100529Y-128592624D01*
X184100519Y-128609358D01*
X184099888Y-128677995D01*
X184097479Y-128721455D01*
X184092187Y-128745438D01*
X184082909Y-128755647D01*
X184068539Y-128757783D01*
X184062804Y-128757591D01*
X184050643Y-128753368D01*
X184042953Y-128739352D01*
X184038718Y-128709996D01*
X184036922Y-128659750D01*
X184036549Y-128583066D01*
X184036575Y-128559173D01*
X184037463Y-128488560D01*
X184040591Y-128440696D01*
X184047267Y-128408310D01*
X184058797Y-128384130D01*
X184076489Y-128360882D01*
X184081182Y-128355547D01*
X184119957Y-128322177D01*
X184158075Y-128302963D01*
X184177232Y-128299987D01*
X184235798Y-128305982D01*
G37*
G36*
X194885351Y-126488521D02*
G01*
X194981026Y-126490018D01*
X195056619Y-126493328D01*
X195115286Y-126498908D01*
X195160183Y-126507214D01*
X195194467Y-126518700D01*
X195221294Y-126533825D01*
X195243822Y-126553042D01*
X195265207Y-126576809D01*
X195288604Y-126605581D01*
X195336990Y-126665315D01*
X195341968Y-126968706D01*
X195342691Y-127013523D01*
X195343924Y-127108247D01*
X195343878Y-127178230D01*
X195342071Y-127228679D01*
X195338018Y-127264805D01*
X195331236Y-127291815D01*
X195321240Y-127314919D01*
X195307547Y-127339325D01*
X195307303Y-127339742D01*
X195259568Y-127399129D01*
X195198603Y-127446368D01*
X195188022Y-127452365D01*
X195168467Y-127462389D01*
X195147433Y-127470309D01*
X195121107Y-127476450D01*
X195085675Y-127481139D01*
X195037324Y-127484700D01*
X194972240Y-127487459D01*
X194886611Y-127489742D01*
X194776622Y-127491874D01*
X194638460Y-127494181D01*
X194147865Y-127502178D01*
X194105108Y-127542166D01*
X194087383Y-127559151D01*
X194065011Y-127583930D01*
X194047995Y-127610783D01*
X194035602Y-127643985D01*
X194027101Y-127687809D01*
X194021763Y-127746528D01*
X194018855Y-127824416D01*
X194017646Y-127925746D01*
X194017406Y-128054792D01*
X194017422Y-128083633D01*
X194018189Y-128214366D01*
X194020554Y-128317610D01*
X194025145Y-128397126D01*
X194032590Y-128456673D01*
X194043517Y-128500013D01*
X194058553Y-128530907D01*
X194078326Y-128553114D01*
X194103464Y-128570395D01*
X194124739Y-128576391D01*
X194171381Y-128582051D01*
X194244063Y-128586949D01*
X194344270Y-128591160D01*
X194473491Y-128594763D01*
X194633212Y-128597833D01*
X194663685Y-128598329D01*
X194810171Y-128601003D01*
X194928841Y-128604226D01*
X195023214Y-128608747D01*
X195096809Y-128615317D01*
X195153147Y-128624686D01*
X195195747Y-128637604D01*
X195228129Y-128654821D01*
X195253812Y-128677087D01*
X195276316Y-128705153D01*
X195299160Y-128739768D01*
X195344988Y-128812031D01*
X195344988Y-129127757D01*
X195344389Y-129218709D01*
X195342178Y-129317267D01*
X195338554Y-129398300D01*
X195333744Y-129456987D01*
X195327975Y-129488511D01*
X195327906Y-129488693D01*
X195292004Y-129550210D01*
X195237608Y-129607228D01*
X195177040Y-129646825D01*
X195170736Y-129648892D01*
X195131305Y-129654824D01*
X195065683Y-129659825D01*
X194978266Y-129663893D01*
X194873451Y-129667029D01*
X194755635Y-129669232D01*
X194629215Y-129670501D01*
X194498587Y-129670835D01*
X194368149Y-129670235D01*
X194242296Y-129668700D01*
X194125426Y-129666229D01*
X194021935Y-129662822D01*
X193936220Y-129658478D01*
X193872678Y-129653197D01*
X193835706Y-129646979D01*
X193759641Y-129617483D01*
X193649761Y-129549393D01*
X193555461Y-129459260D01*
X193482041Y-129352534D01*
X193434800Y-129234666D01*
X193430559Y-129217264D01*
X193425886Y-129192422D01*
X193421941Y-129162159D01*
X193418678Y-129124059D01*
X193416054Y-129075709D01*
X193414024Y-129014691D01*
X193412545Y-128938591D01*
X193411572Y-128844994D01*
X193411060Y-128731484D01*
X193410967Y-128595646D01*
X193411247Y-128435065D01*
X193411856Y-128247325D01*
X193412751Y-128030012D01*
X193417595Y-126926360D01*
X193460148Y-126835586D01*
X193530740Y-126719719D01*
X193626489Y-126621331D01*
X193743151Y-126546478D01*
X193848700Y-126494496D01*
X194488878Y-126490062D01*
X194621125Y-126489145D01*
X194766436Y-126488382D01*
X194885351Y-126488521D01*
G37*
G36*
X190962531Y-126522487D02*
G01*
X190966816Y-126525474D01*
X191011966Y-126563303D01*
X191048869Y-126603619D01*
X191054681Y-126611844D01*
X191061427Y-126624017D01*
X191067014Y-126639976D01*
X191071575Y-126662543D01*
X191075240Y-126694536D01*
X191078142Y-126738778D01*
X191080412Y-126798087D01*
X191082180Y-126875285D01*
X191083579Y-126973191D01*
X191084740Y-127094626D01*
X191085794Y-127242409D01*
X191086873Y-127419362D01*
X191087814Y-127583891D01*
X191088479Y-127747661D01*
X191088374Y-127884504D01*
X191087177Y-127997143D01*
X191084564Y-128088299D01*
X191080212Y-128160694D01*
X191073797Y-128217050D01*
X191064998Y-128260088D01*
X191053490Y-128292530D01*
X191038950Y-128317098D01*
X191021056Y-128336513D01*
X190999484Y-128353498D01*
X190973910Y-128370773D01*
X190908786Y-128413891D01*
X190335766Y-128418644D01*
X189762746Y-128423396D01*
X189762746Y-128478625D01*
X189762746Y-128533854D01*
X190319180Y-128533854D01*
X190466722Y-128533908D01*
X190586672Y-128534209D01*
X190681704Y-128534958D01*
X190755362Y-128536360D01*
X190811192Y-128538616D01*
X190852737Y-128541932D01*
X190883544Y-128546509D01*
X190907157Y-128552551D01*
X190927122Y-128560261D01*
X190946982Y-128569842D01*
X190953798Y-128573365D01*
X191012605Y-128616119D01*
X191054339Y-128677199D01*
X191055540Y-128679589D01*
X191067707Y-128706032D01*
X191076656Y-128733121D01*
X191082877Y-128766079D01*
X191086857Y-128810129D01*
X191089085Y-128870497D01*
X191090049Y-128952405D01*
X191090238Y-129061078D01*
X191090237Y-129063587D01*
X191089318Y-129164601D01*
X191086892Y-129258324D01*
X191083240Y-129338582D01*
X191078640Y-129399202D01*
X191073371Y-129434007D01*
X191067139Y-129452715D01*
X191027617Y-129523253D01*
X190968854Y-129588564D01*
X190899982Y-129637911D01*
X190886060Y-129644710D01*
X190868958Y-129650832D01*
X190846833Y-129655764D01*
X190816687Y-129659612D01*
X190775526Y-129662481D01*
X190720352Y-129664476D01*
X190648171Y-129665704D01*
X190555985Y-129666270D01*
X190440798Y-129666280D01*
X190299615Y-129665838D01*
X190129439Y-129665050D01*
X189416472Y-129661498D01*
X189360238Y-129622953D01*
X189353972Y-129618486D01*
X189305817Y-129575795D01*
X189265460Y-129528170D01*
X189226914Y-129471931D01*
X189222510Y-128608827D01*
X189221781Y-128470522D01*
X189220919Y-128298117D01*
X189220503Y-128153289D01*
X189220794Y-128033440D01*
X189222051Y-127935974D01*
X189224534Y-127858293D01*
X189228504Y-127797799D01*
X189234221Y-127751896D01*
X189241943Y-127717987D01*
X189251933Y-127693473D01*
X189264448Y-127675758D01*
X189279751Y-127662244D01*
X189298099Y-127650334D01*
X189319755Y-127637432D01*
X189328080Y-127632612D01*
X189344396Y-127625203D01*
X189365256Y-127619324D01*
X189394091Y-127614800D01*
X189434332Y-127611453D01*
X189489409Y-127609107D01*
X189562753Y-127607586D01*
X189657795Y-127606713D01*
X189777965Y-127606312D01*
X189926694Y-127606206D01*
X190482519Y-127606146D01*
X190482519Y-127550163D01*
X190482519Y-127494181D01*
X189985761Y-127494181D01*
X189925632Y-127494149D01*
X189774598Y-127493512D01*
X189651048Y-127491547D01*
X189551652Y-127487592D01*
X189473075Y-127480986D01*
X189411987Y-127471069D01*
X189365053Y-127457180D01*
X189328943Y-127438658D01*
X189300322Y-127414841D01*
X189275860Y-127385068D01*
X189252223Y-127348679D01*
X189251211Y-127347011D01*
X189240075Y-127326186D01*
X189231841Y-127302704D01*
X189226075Y-127271677D01*
X189222346Y-127228217D01*
X189220218Y-127167433D01*
X189219260Y-127084439D01*
X189219037Y-126974345D01*
X189219396Y-126874899D01*
X189221484Y-126774837D01*
X189226463Y-126698667D01*
X189235474Y-126641880D01*
X189249663Y-126599969D01*
X189270173Y-126568424D01*
X189298149Y-126542738D01*
X189334734Y-126518402D01*
X189340666Y-126514898D01*
X189354415Y-126508124D01*
X189371502Y-126502526D01*
X189394793Y-126497992D01*
X189427152Y-126494409D01*
X189471445Y-126491666D01*
X189530536Y-126489651D01*
X189607292Y-126488250D01*
X189704577Y-126487353D01*
X189825256Y-126486847D01*
X189972195Y-126486619D01*
X190148258Y-126486558D01*
X190909652Y-126486498D01*
X190962531Y-126522487D01*
G37*
G36*
X177426631Y-129678184D02*
G01*
X177425486Y-129678527D01*
X177387000Y-129699179D01*
X177372528Y-129725346D01*
X177382822Y-129749104D01*
X177418634Y-129762529D01*
X177448802Y-129768831D01*
X177462620Y-129777923D01*
X177462290Y-129779458D01*
X177447848Y-129797727D01*
X177418634Y-129824271D01*
X177383197Y-129849738D01*
X177349196Y-129860047D01*
X177311976Y-129851727D01*
X177289827Y-129836837D01*
X177292309Y-129820708D01*
X177321864Y-129813451D01*
X177345050Y-129809453D01*
X177339469Y-129795867D01*
X177321585Y-129785576D01*
X177291085Y-129787054D01*
X177267443Y-129803999D01*
X177263092Y-129830735D01*
X177265843Y-129848829D01*
X177252816Y-129859059D01*
X177215213Y-129861435D01*
X177212100Y-129861432D01*
X177176740Y-129859466D01*
X177166533Y-129850316D01*
X177175073Y-129828768D01*
X177176553Y-129825752D01*
X177186319Y-129785639D01*
X177187632Y-129736797D01*
X177187321Y-129733123D01*
X177183531Y-129709483D01*
X177254685Y-129709483D01*
X177254892Y-129718268D01*
X177261843Y-129745314D01*
X177276783Y-129742341D01*
X177297167Y-129709358D01*
X177305210Y-129690427D01*
X177305409Y-129673222D01*
X177285170Y-129669496D01*
X177262474Y-129677819D01*
X177254685Y-129709483D01*
X177183531Y-129709483D01*
X177181394Y-129696158D01*
X177167029Y-129681695D01*
X177136051Y-129680870D01*
X177100714Y-129688663D01*
X177076985Y-129704326D01*
X177074412Y-129730992D01*
X177094267Y-129755150D01*
X177128684Y-129765466D01*
X177139752Y-129766437D01*
X177156663Y-129779794D01*
X177148855Y-129804482D01*
X177117243Y-129834932D01*
X177084157Y-129850891D01*
X177043837Y-129855317D01*
X177011814Y-129845531D01*
X176998766Y-129822641D01*
X177005126Y-129809345D01*
X177034755Y-129808949D01*
X177054073Y-129813194D01*
X177060597Y-129810822D01*
X177040016Y-129793670D01*
X177010941Y-129779433D01*
X176963547Y-129783742D01*
X176956245Y-129788805D01*
X176914464Y-129817777D01*
X176911707Y-129820460D01*
X176876530Y-129840677D01*
X176828660Y-129840191D01*
X176821788Y-129839164D01*
X176790223Y-129838266D01*
X176783419Y-129846388D01*
X176783534Y-129846580D01*
X176776335Y-129857078D01*
X176746769Y-129861435D01*
X176700818Y-129861435D01*
X176707760Y-129765466D01*
X176709878Y-129730527D01*
X176775884Y-129730527D01*
X176777738Y-129753583D01*
X176790621Y-129781237D01*
X176826820Y-129794519D01*
X176848627Y-129795706D01*
X176868319Y-129788805D01*
X176859250Y-129771461D01*
X176821623Y-129745586D01*
X176812076Y-129740168D01*
X176784791Y-129726518D01*
X176775884Y-129730527D01*
X176709878Y-129730527D01*
X176710064Y-129727462D01*
X176709370Y-129690511D01*
X176706831Y-129684547D01*
X176838816Y-129684547D01*
X176839426Y-129689034D01*
X176854811Y-129709483D01*
X176863052Y-129710988D01*
X176870806Y-129694432D01*
X176868849Y-129682515D01*
X176854811Y-129669496D01*
X176851016Y-129669927D01*
X176838816Y-129684547D01*
X176706831Y-129684547D01*
X176702154Y-129673563D01*
X176686864Y-129669496D01*
X176675952Y-129671030D01*
X176666073Y-129682635D01*
X176663262Y-129711740D01*
X176665969Y-129765466D01*
X176666864Y-129777953D01*
X176669264Y-129825732D01*
X176665896Y-129850570D01*
X176654016Y-129859970D01*
X176630882Y-129861435D01*
X176625414Y-129861418D01*
X176604664Y-129859006D01*
X176594640Y-129847212D01*
X176592598Y-129818533D01*
X176595795Y-129765466D01*
X176602737Y-129669496D01*
X176497791Y-129669496D01*
X176445387Y-129671686D01*
X176402565Y-129677899D01*
X176382196Y-129686727D01*
X176380792Y-129692222D01*
X176397332Y-129697581D01*
X176442659Y-129693294D01*
X176474949Y-129689584D01*
X176513854Y-129692586D01*
X176540337Y-129709195D01*
X176546484Y-129716040D01*
X176563615Y-129757553D01*
X176561245Y-129772130D01*
X176556768Y-129799668D01*
X176529890Y-129832320D01*
X176486927Y-129845440D01*
X176453727Y-129835997D01*
X176420584Y-129804860D01*
X176409692Y-129771716D01*
X176489440Y-129771716D01*
X176493258Y-129793124D01*
X176498718Y-129792876D01*
X176501659Y-129772130D01*
X176499098Y-129756408D01*
X176491996Y-129762467D01*
X176489440Y-129771716D01*
X176409692Y-129771716D01*
X176406952Y-129763379D01*
X176404169Y-129746032D01*
X176393114Y-129740140D01*
X176388634Y-129745556D01*
X176383594Y-129774299D01*
X176387102Y-129812361D01*
X176398390Y-129844527D01*
X176398974Y-129845579D01*
X176391268Y-129857243D01*
X176355913Y-129861457D01*
X176302985Y-129861479D01*
X176308495Y-129772946D01*
X176309403Y-129751167D01*
X176306062Y-129693971D01*
X176294021Y-129660334D01*
X176291961Y-129657612D01*
X176290409Y-129649534D01*
X176301026Y-129643854D01*
X176327773Y-129640221D01*
X176374614Y-129638283D01*
X176445512Y-129637686D01*
X176544431Y-129638080D01*
X176611429Y-129638209D01*
X176696235Y-129637377D01*
X176766804Y-129635530D01*
X176817219Y-129632839D01*
X176841565Y-129629476D01*
X176851792Y-129626823D01*
X176888871Y-129631816D01*
X176921050Y-129652100D01*
X176934786Y-129680292D01*
X176930961Y-129694432D01*
X176929868Y-129698474D01*
X176907219Y-129726114D01*
X176893351Y-129739090D01*
X176902496Y-129744935D01*
X176939209Y-129746272D01*
X176949632Y-129746070D01*
X176984636Y-129741624D01*
X176998766Y-129733184D01*
X176999876Y-129724230D01*
X177008475Y-129694796D01*
X177008854Y-129676171D01*
X176984482Y-129669496D01*
X176964249Y-129666271D01*
X176950781Y-129653501D01*
X176952237Y-129651446D01*
X176977025Y-129645566D01*
X177030637Y-129641186D01*
X177110665Y-129638450D01*
X177214698Y-129637506D01*
X177278938Y-129637889D01*
X177358389Y-129639565D01*
X177421667Y-129642344D01*
X177463499Y-129645971D01*
X177478615Y-129650193D01*
X177478378Y-129651473D01*
X177461656Y-129664541D01*
X177439370Y-129673222D01*
X177426631Y-129678184D01*
G37*
G36*
X178589953Y-129633507D02*
G01*
X178593262Y-129656958D01*
X178581423Y-129669496D01*
X178572831Y-129675766D01*
X178567492Y-129706477D01*
X178569369Y-129765466D01*
X178570265Y-129777953D01*
X178572665Y-129825732D01*
X178569296Y-129850570D01*
X178557417Y-129859970D01*
X178534282Y-129861435D01*
X178528815Y-129861418D01*
X178508065Y-129859006D01*
X178498041Y-129847212D01*
X178495999Y-129818533D01*
X178499195Y-129765466D01*
X178506137Y-129669496D01*
X178452671Y-129669496D01*
X178445624Y-129669500D01*
X178414970Y-129670761D01*
X178413459Y-129674828D01*
X178412464Y-129677506D01*
X178434753Y-129694395D01*
X178446103Y-129703728D01*
X178468249Y-129743390D01*
X178466501Y-129757468D01*
X178462919Y-129786313D01*
X178430438Y-129822838D01*
X178396297Y-129838271D01*
X178366459Y-129839704D01*
X178354077Y-129837165D01*
X178342343Y-129845942D01*
X178330281Y-129856581D01*
X178298357Y-129861465D01*
X178291879Y-129861451D01*
X178270438Y-129859055D01*
X178259957Y-129847275D01*
X178257414Y-129818593D01*
X178259790Y-129765495D01*
X178260116Y-129757468D01*
X178334345Y-129757468D01*
X178339304Y-129776298D01*
X178362336Y-129794411D01*
X178365233Y-129794895D01*
X178384801Y-129788489D01*
X178390328Y-129757468D01*
X178390279Y-129753096D01*
X178383552Y-129724799D01*
X178362336Y-129720526D01*
X178346478Y-129729169D01*
X178334345Y-129757468D01*
X178260116Y-129757468D01*
X178261917Y-129713197D01*
X178259227Y-129683955D01*
X178255685Y-129679639D01*
X178329177Y-129679639D01*
X178342343Y-129685491D01*
X178350810Y-129684336D01*
X178353006Y-129674828D01*
X178350662Y-129672913D01*
X178331679Y-129674828D01*
X178329177Y-129679639D01*
X178255685Y-129679639D01*
X178249309Y-129671869D01*
X178229840Y-129669496D01*
X178220774Y-129669668D01*
X178204237Y-129675240D01*
X178207276Y-129680736D01*
X178214214Y-129693285D01*
X178214264Y-129693345D01*
X178227348Y-129726690D01*
X178223374Y-129733476D01*
X178210931Y-129754723D01*
X178167479Y-129773226D01*
X178138619Y-129782209D01*
X178120048Y-129797452D01*
X178130782Y-129809665D01*
X178170397Y-129813055D01*
X178212384Y-129811497D01*
X178237995Y-129814436D01*
X178237593Y-129824963D01*
X178214383Y-129845440D01*
X178173863Y-129866299D01*
X178118413Y-129875950D01*
X178105901Y-129875592D01*
X178082258Y-129871809D01*
X178089692Y-129864310D01*
X178100892Y-129859138D01*
X178103738Y-129849630D01*
X178079014Y-129835571D01*
X178067223Y-129830260D01*
X178048592Y-129826060D01*
X178049465Y-129839570D01*
X178050588Y-129844306D01*
X178042351Y-129854637D01*
X178012611Y-129859951D01*
X177956176Y-129861465D01*
X177854496Y-129861494D01*
X177859916Y-129765495D01*
X177860874Y-129748527D01*
X177926474Y-129748527D01*
X177926793Y-129766676D01*
X177932870Y-129816373D01*
X177945749Y-129839837D01*
X177964230Y-129834342D01*
X177967537Y-129826865D01*
X177972504Y-129794079D01*
X177974349Y-129749471D01*
X178038438Y-129749471D01*
X178039219Y-129765132D01*
X178046997Y-129780646D01*
X178062431Y-129765466D01*
X178077492Y-129755368D01*
X178111360Y-129749471D01*
X178136744Y-129745604D01*
X178150403Y-129733476D01*
X178149920Y-129731377D01*
X178131423Y-129721498D01*
X178094421Y-129717481D01*
X178069148Y-129718526D01*
X178044701Y-129727423D01*
X178039195Y-129746805D01*
X178038438Y-129749471D01*
X177974349Y-129749471D01*
X177974459Y-129746805D01*
X177973109Y-129708699D01*
X177966298Y-129680452D01*
X178047721Y-129680452D01*
X178070428Y-129682965D01*
X178092431Y-129680736D01*
X178090422Y-129674898D01*
X178083182Y-129672785D01*
X178050435Y-129674898D01*
X178047721Y-129680452D01*
X177966298Y-129680452D01*
X177965783Y-129678318D01*
X177950466Y-129669496D01*
X177938177Y-129674338D01*
X177929100Y-129698565D01*
X177926474Y-129748527D01*
X177860874Y-129748527D01*
X177865335Y-129669496D01*
X177759947Y-129669496D01*
X177710345Y-129671169D01*
X177669508Y-129677037D01*
X177654559Y-129686216D01*
X177654606Y-129687050D01*
X177670245Y-129695783D01*
X177710612Y-129692420D01*
X177738751Y-129689502D01*
X177789422Y-129697926D01*
X177825434Y-129721320D01*
X177842701Y-129753964D01*
X177842162Y-129757468D01*
X177837141Y-129790140D01*
X177804668Y-129824126D01*
X177780712Y-129838256D01*
X177753899Y-129842460D01*
X177720695Y-129827532D01*
X177693495Y-129805164D01*
X177679822Y-129768503D01*
X177678144Y-129754011D01*
X177752868Y-129754011D01*
X177756032Y-129785764D01*
X177756670Y-129787190D01*
X177761677Y-129784785D01*
X177763406Y-129757468D01*
X177763300Y-129752501D01*
X177760531Y-129731256D01*
X177755440Y-129737779D01*
X177752868Y-129754011D01*
X177678144Y-129754011D01*
X177677327Y-129746949D01*
X177665720Y-129733476D01*
X177662563Y-129734898D01*
X177656845Y-129756686D01*
X177658929Y-129797456D01*
X177661051Y-129813981D01*
X177662141Y-129846354D01*
X177651353Y-129859168D01*
X177623730Y-129861435D01*
X177599289Y-129860034D01*
X177586708Y-129850527D01*
X177583763Y-129824997D01*
X177587074Y-129775525D01*
X177588590Y-129750114D01*
X177586436Y-129701722D01*
X177576394Y-129678612D01*
X177572256Y-129675950D01*
X177559775Y-129663949D01*
X177563998Y-129654618D01*
X177587472Y-129647656D01*
X177632742Y-129642765D01*
X177702353Y-129639643D01*
X177798851Y-129637990D01*
X177924782Y-129637506D01*
X178290975Y-129637506D01*
X178303818Y-129625509D01*
X178383054Y-129625509D01*
X178398086Y-129634953D01*
X178438814Y-129637506D01*
X178452035Y-129637276D01*
X178490343Y-129630809D01*
X178502292Y-129614457D01*
X178500958Y-129604683D01*
X178485388Y-129580962D01*
X178480116Y-129578407D01*
X178445003Y-129577079D01*
X178407465Y-129590567D01*
X178384596Y-129613375D01*
X178383054Y-129625509D01*
X178303818Y-129625509D01*
X178342343Y-129589521D01*
X178394173Y-129555238D01*
X178455098Y-129541188D01*
X178513044Y-129550439D01*
X178560499Y-129581657D01*
X178579131Y-129614457D01*
X178589953Y-129633507D01*
G37*
G36*
X179153189Y-129611200D02*
G01*
X179151767Y-129616496D01*
X179154914Y-129624608D01*
X179169289Y-129630334D01*
X179199043Y-129634081D01*
X179248329Y-129636255D01*
X179321299Y-129637261D01*
X179422105Y-129637506D01*
X179701115Y-129637506D01*
X179691518Y-129685491D01*
X179688927Y-129719691D01*
X179699915Y-129733476D01*
X179699977Y-129733475D01*
X179712644Y-129719492D01*
X179717909Y-129686054D01*
X179719018Y-129670977D01*
X179723327Y-129661498D01*
X179781889Y-129661498D01*
X179789887Y-129669496D01*
X179797884Y-129661498D01*
X179789887Y-129653501D01*
X179781889Y-129661498D01*
X179723327Y-129661498D01*
X179737086Y-129631228D01*
X179771301Y-129612995D01*
X179813879Y-129621511D01*
X179827850Y-129631537D01*
X179844159Y-129661498D01*
X179844610Y-129662326D01*
X179839187Y-129693615D01*
X179811847Y-129713378D01*
X179777825Y-129722275D01*
X179815057Y-129750359D01*
X179830731Y-129763116D01*
X179841706Y-129781461D01*
X179842399Y-129782620D01*
X179831126Y-129803945D01*
X179828896Y-129806502D01*
X179791369Y-129827206D01*
X179748314Y-129822520D01*
X179711307Y-129793457D01*
X179708160Y-129789187D01*
X179695103Y-129773142D01*
X179785307Y-129773142D01*
X179787221Y-129792124D01*
X179792032Y-129794626D01*
X179797884Y-129781461D01*
X179796730Y-129772993D01*
X179787221Y-129770797D01*
X179785307Y-129773142D01*
X179695103Y-129773142D01*
X179692016Y-129769348D01*
X179687505Y-129775063D01*
X179690591Y-129809452D01*
X179692282Y-129840720D01*
X179682921Y-129857874D01*
X179654755Y-129861435D01*
X179632030Y-129859696D01*
X179619209Y-129849205D01*
X179614222Y-129822220D01*
X179613539Y-129770997D01*
X179612836Y-129736589D01*
X179606156Y-129691512D01*
X179591880Y-129673005D01*
X179586456Y-129671932D01*
X179577175Y-129680141D01*
X179574302Y-129708771D01*
X179576905Y-129763443D01*
X179578046Y-129779380D01*
X179580314Y-129826420D01*
X179576823Y-129850825D01*
X179564922Y-129860021D01*
X179541965Y-129861435D01*
X179536497Y-129861418D01*
X179515748Y-129859006D01*
X179505723Y-129847212D01*
X179503681Y-129818533D01*
X179506878Y-129765466D01*
X179507288Y-129759771D01*
X179510021Y-129709068D01*
X179507311Y-129682133D01*
X179496744Y-129671509D01*
X179475909Y-129669741D01*
X179449185Y-129672569D01*
X179416430Y-129683654D01*
X179408321Y-129690533D01*
X179399716Y-129718476D01*
X179412392Y-129746777D01*
X179442160Y-129762579D01*
X179449378Y-129763868D01*
X179474076Y-129778369D01*
X179469911Y-129802854D01*
X179437082Y-129834503D01*
X179417571Y-129846206D01*
X179374865Y-129857701D01*
X179339450Y-129850976D01*
X179321266Y-129826701D01*
X179320725Y-129823470D01*
X179325865Y-129807063D01*
X179353093Y-129808892D01*
X179390013Y-129817821D01*
X179354024Y-129783023D01*
X179330674Y-129756226D01*
X179319432Y-129720887D01*
X179337229Y-129688690D01*
X179341444Y-129682740D01*
X179334268Y-129675064D01*
X179303607Y-129671526D01*
X179245258Y-129671335D01*
X179235520Y-129671502D01*
X179184849Y-129672877D01*
X179163219Y-129675133D01*
X179168052Y-129679010D01*
X179196767Y-129685250D01*
X179196935Y-129685283D01*
X179255891Y-129707318D01*
X179291589Y-129743072D01*
X179301132Y-129787425D01*
X179281625Y-129835256D01*
X179260039Y-129854756D01*
X179234358Y-129854334D01*
X179216023Y-129829377D01*
X179210717Y-129783997D01*
X179211059Y-129752275D01*
X179203253Y-129730730D01*
X179182078Y-129725478D01*
X179161817Y-129730249D01*
X179154347Y-129746805D01*
X179152844Y-129750135D01*
X179151469Y-129793457D01*
X179152849Y-129861435D01*
X179054478Y-129861435D01*
X178956107Y-129861435D01*
X178963140Y-129764209D01*
X178964274Y-129748527D01*
X179030126Y-129748527D01*
X179030445Y-129766676D01*
X179036522Y-129816373D01*
X179049401Y-129839837D01*
X179067882Y-129834342D01*
X179071189Y-129826865D01*
X179076156Y-129794079D01*
X179078111Y-129746805D01*
X179076761Y-129708699D01*
X179069435Y-129678318D01*
X179054119Y-129669496D01*
X179041829Y-129674338D01*
X179032752Y-129698565D01*
X179030126Y-129748527D01*
X178964274Y-129748527D01*
X178970173Y-129666982D01*
X178925407Y-129672238D01*
X178894768Y-129680794D01*
X178875375Y-129696287D01*
X178875704Y-129710960D01*
X178899889Y-129717481D01*
X178927122Y-129722151D01*
X178944062Y-129744104D01*
X178935506Y-129775882D01*
X178933850Y-129782032D01*
X178909312Y-129811375D01*
X178861502Y-129832299D01*
X178807814Y-129826894D01*
X178790914Y-129820901D01*
X178778872Y-129820644D01*
X178789779Y-129836933D01*
X178798994Y-129851181D01*
X178790843Y-129859534D01*
X178756171Y-129861465D01*
X178702229Y-129861494D01*
X178707649Y-129765495D01*
X178708835Y-129729131D01*
X178706917Y-129702966D01*
X178778698Y-129702966D01*
X178781362Y-129740736D01*
X178795549Y-129777462D01*
X178800408Y-129784526D01*
X178818719Y-129795303D01*
X178850183Y-129786862D01*
X178866788Y-129775882D01*
X178863260Y-129757268D01*
X178828620Y-129735671D01*
X178801947Y-129717790D01*
X178796447Y-129692286D01*
X178799189Y-129679950D01*
X178789630Y-129677847D01*
X178788420Y-129678692D01*
X178778698Y-129702966D01*
X178706917Y-129702966D01*
X178705584Y-129684786D01*
X178695653Y-129669496D01*
X178690592Y-129668803D01*
X178678237Y-129653501D01*
X178679074Y-129651533D01*
X178700658Y-129644191D01*
X178747185Y-129639290D01*
X178812964Y-129637506D01*
X178864908Y-129637184D01*
X178913672Y-129634554D01*
X178945829Y-129627281D01*
X178952359Y-129623469D01*
X179030126Y-129623469D01*
X179032818Y-129629910D01*
X179054119Y-129637506D01*
X179068560Y-129631136D01*
X179078111Y-129603558D01*
X179077979Y-129595797D01*
X179072503Y-129579219D01*
X179054119Y-129589521D01*
X179041069Y-129602624D01*
X179030126Y-129623469D01*
X178952359Y-129623469D01*
X178970217Y-129613044D01*
X178995675Y-129589521D01*
X179006753Y-129579157D01*
X179044075Y-129552301D01*
X179073823Y-129541536D01*
X179085387Y-129542339D01*
X179123882Y-129556571D01*
X179149621Y-129582280D01*
X179152246Y-129603558D01*
X179153189Y-129611200D01*
G37*
G36*
X178794461Y-126480871D02*
G01*
X178863196Y-126531522D01*
X178875747Y-126542296D01*
X178904879Y-126567302D01*
X178964243Y-126616106D01*
X179022803Y-126662443D01*
X179023874Y-126663301D01*
X179069407Y-126699769D01*
X179128869Y-126751606D01*
X179177389Y-126798753D01*
X179210082Y-126836378D01*
X179222066Y-126859645D01*
X179222080Y-126859947D01*
X179227195Y-126868326D01*
X179233439Y-126878554D01*
X179261903Y-126911855D01*
X179301506Y-126952849D01*
X179308887Y-126960219D01*
X179368082Y-127031806D01*
X179398961Y-127098665D01*
X179403352Y-127114399D01*
X179406575Y-127124280D01*
X179418303Y-127160241D01*
X179431231Y-127190277D01*
X179436881Y-127199691D01*
X179458455Y-127235163D01*
X179485496Y-127279259D01*
X179504548Y-127314704D01*
X179537991Y-127411062D01*
X179538080Y-127411559D01*
X179554796Y-127505341D01*
X179559826Y-127533564D01*
X179570240Y-127683503D01*
X179570007Y-127734105D01*
X179569692Y-127802602D01*
X179569418Y-127862170D01*
X179567039Y-127931491D01*
X179563475Y-128008777D01*
X179559948Y-128049907D01*
X179558429Y-128067629D01*
X179550474Y-128116014D01*
X179538182Y-128161900D01*
X179520125Y-128213253D01*
X179502100Y-128259500D01*
X179494874Y-128278039D01*
X179451838Y-128380504D01*
X179381784Y-128521392D01*
X179378930Y-128525885D01*
X179310783Y-128633186D01*
X179243741Y-128709798D01*
X179239677Y-128714442D01*
X179213041Y-128740342D01*
X179184972Y-128771657D01*
X179174081Y-128789861D01*
X179171705Y-128797079D01*
X179153918Y-128824708D01*
X179124439Y-128861194D01*
X179074797Y-128917733D01*
X179142380Y-128917733D01*
X179204325Y-128920950D01*
X179292358Y-128930592D01*
X179385823Y-128944028D01*
X179394741Y-128945310D01*
X179502867Y-128963742D01*
X179608128Y-128984524D01*
X179701914Y-129006296D01*
X179800175Y-129031573D01*
X179875315Y-129051360D01*
X179927541Y-129065996D01*
X179960979Y-129076819D01*
X179979755Y-129085171D01*
X179987994Y-129092392D01*
X179989590Y-129098870D01*
X179989824Y-129099821D01*
X179989822Y-129099938D01*
X179975319Y-129113229D01*
X179937877Y-129130464D01*
X179885514Y-129147942D01*
X179832151Y-129164572D01*
X179791869Y-129179668D01*
X179773765Y-129189852D01*
X179773869Y-129205415D01*
X179782448Y-129243636D01*
X179798100Y-129294242D01*
X179812396Y-129337154D01*
X179825015Y-129378409D01*
X179829874Y-129399224D01*
X179819178Y-129401386D01*
X179785901Y-129394645D01*
X179737903Y-129379770D01*
X179537022Y-129322307D01*
X179311342Y-129281671D01*
X179071554Y-129260210D01*
X178824067Y-129258773D01*
X178775261Y-129260639D01*
X178668316Y-129266296D01*
X178579278Y-129274277D01*
X178498022Y-129285921D01*
X178414421Y-129302563D01*
X178318350Y-129325541D01*
X178304471Y-129328886D01*
X178288590Y-129330328D01*
X178289541Y-129321438D01*
X178309183Y-129298052D01*
X178349376Y-129256002D01*
X178353421Y-129251805D01*
X178390267Y-129211618D01*
X178390842Y-129210907D01*
X178598262Y-129210907D01*
X178598581Y-129211235D01*
X178617009Y-129211235D01*
X178658172Y-129207690D01*
X178714226Y-129201252D01*
X178724060Y-129200083D01*
X178833220Y-129193629D01*
X178963827Y-129195151D01*
X179107479Y-129203818D01*
X179255773Y-129218797D01*
X179400306Y-129239258D01*
X179532674Y-129264369D01*
X179644475Y-129293298D01*
X179680386Y-129304274D01*
X179720456Y-129314014D01*
X179737879Y-129310052D01*
X179737645Y-129289718D01*
X179724747Y-129250340D01*
X179710417Y-129202128D01*
X179711141Y-129165613D01*
X179734002Y-129142118D01*
X179782707Y-129123532D01*
X179803374Y-129117224D01*
X179830813Y-129106782D01*
X179832376Y-129098870D01*
X179811544Y-129089359D01*
X179771391Y-129077018D01*
X179702046Y-129060219D01*
X179614733Y-129041876D01*
X179516788Y-129023366D01*
X179415549Y-129006067D01*
X179318354Y-128991358D01*
X179232540Y-128980615D01*
X179049884Y-128961100D01*
X178931882Y-129034647D01*
X178926210Y-129038162D01*
X178853037Y-129080999D01*
X178774292Y-129123546D01*
X178706071Y-129157078D01*
X178697423Y-129161015D01*
X178647140Y-129184608D01*
X178611683Y-129202439D01*
X178598262Y-129210907D01*
X178390842Y-129210907D01*
X178414607Y-129181502D01*
X178421353Y-129167700D01*
X178417324Y-129165338D01*
X178386673Y-129157171D01*
X178334592Y-129148360D01*
X178269003Y-129139856D01*
X178197831Y-129132606D01*
X178128998Y-129127560D01*
X178070428Y-129125667D01*
X178052881Y-129125881D01*
X177990131Y-129128909D01*
X177919692Y-129134776D01*
X177849489Y-129142534D01*
X177787445Y-129151233D01*
X177741487Y-129159927D01*
X177719537Y-129167666D01*
X177724642Y-129179408D01*
X177747274Y-129207708D01*
X177750247Y-129210907D01*
X177782519Y-129245629D01*
X177784997Y-129248161D01*
X177825885Y-129293702D01*
X177841201Y-129320512D01*
X177831010Y-129328970D01*
X177795379Y-129319455D01*
X177774102Y-129313340D01*
X177724155Y-129302377D01*
X177657403Y-129289773D01*
X177582345Y-129277212D01*
X177456021Y-129262234D01*
X177256451Y-129253981D01*
X177046246Y-129260956D01*
X176835318Y-129282384D01*
X176633578Y-129317492D01*
X176450938Y-129365507D01*
X176417190Y-129375848D01*
X176362627Y-129390386D01*
X176325004Y-129397409D01*
X176310982Y-129395491D01*
X176314267Y-129379669D01*
X176325851Y-129340774D01*
X176342909Y-129289952D01*
X176355968Y-129247948D01*
X176364339Y-129207730D01*
X176362902Y-129187835D01*
X176343022Y-129177983D01*
X176301294Y-129162536D01*
X176247003Y-129144995D01*
X176246071Y-129144712D01*
X176194133Y-129127017D01*
X176157136Y-129110839D01*
X176143035Y-129099647D01*
X176143076Y-129099384D01*
X176289672Y-129099384D01*
X176351925Y-129120936D01*
X176356176Y-129122411D01*
X176401866Y-129140071D01*
X176426985Y-129158448D01*
X176433528Y-129184715D01*
X176423494Y-129226047D01*
X176398880Y-129289615D01*
X176398705Y-129290048D01*
X176395488Y-129309010D01*
X176408888Y-129315631D01*
X176443251Y-129310024D01*
X176502922Y-129292300D01*
X176525282Y-129285448D01*
X176636032Y-129258385D01*
X176766943Y-129234937D01*
X176909520Y-129215944D01*
X177055272Y-129202241D01*
X177195703Y-129194667D01*
X177322321Y-129194058D01*
X177426631Y-129201252D01*
X177435246Y-129202323D01*
X177489654Y-129208388D01*
X177528052Y-129211467D01*
X177542595Y-129210907D01*
X177542249Y-129210354D01*
X177524944Y-129200200D01*
X177486720Y-129181241D01*
X177434786Y-129157078D01*
X177430378Y-129155063D01*
X177360590Y-129120450D01*
X177281654Y-129077552D01*
X177209820Y-129035174D01*
X177092663Y-128962153D01*
X176969738Y-128973284D01*
X176883945Y-128982740D01*
X176777033Y-128997536D01*
X176664167Y-129015556D01*
X176554793Y-129035194D01*
X176458355Y-129054842D01*
X176384301Y-129072893D01*
X176289672Y-129099384D01*
X176143076Y-129099384D01*
X176143248Y-129098290D01*
X176161636Y-129084188D01*
X176206333Y-129066502D01*
X176272571Y-129046290D01*
X176355581Y-129024610D01*
X176450594Y-129002521D01*
X176552841Y-128981081D01*
X176657552Y-128961351D01*
X176759959Y-128944387D01*
X176767281Y-128943378D01*
X177167723Y-128943378D01*
X177243649Y-128995617D01*
X177273580Y-129015001D01*
X177341721Y-129054118D01*
X177407272Y-129086639D01*
X177494969Y-129125423D01*
X177634745Y-129082511D01*
X177676625Y-129070019D01*
X177723110Y-129058001D01*
X177768407Y-129049634D01*
X177819153Y-129044263D01*
X177881982Y-129041236D01*
X177963529Y-129039899D01*
X178070428Y-129039599D01*
X178157750Y-129039774D01*
X178243912Y-129040843D01*
X178310009Y-129043469D01*
X178362681Y-129048305D01*
X178408566Y-129056008D01*
X178454303Y-129067232D01*
X178506533Y-129082633D01*
X178539169Y-129092598D01*
X178595172Y-129109408D01*
X178634609Y-129120850D01*
X178650487Y-129124870D01*
X178667157Y-129118222D01*
X178706041Y-129099204D01*
X178757389Y-129072424D01*
X178812796Y-129042372D01*
X178863856Y-129013539D01*
X178902166Y-128990413D01*
X178974144Y-128944028D01*
X178904422Y-128913520D01*
X178733481Y-128850786D01*
X178652782Y-128831063D01*
X178878450Y-128831063D01*
X178891188Y-128844623D01*
X178928898Y-128863092D01*
X178943378Y-128869732D01*
X178980517Y-128886891D01*
X179000255Y-128896212D01*
X179005931Y-128897143D01*
X179031845Y-128884693D01*
X179065500Y-128854972D01*
X179099604Y-128815117D01*
X179126867Y-128772266D01*
X179158736Y-128709798D01*
X179106427Y-128710149D01*
X179075697Y-128713242D01*
X179009023Y-128732742D01*
X178944447Y-128764569D01*
X178896908Y-128802161D01*
X178886432Y-128814313D01*
X178878450Y-128831063D01*
X178652782Y-128831063D01*
X178524932Y-128799816D01*
X178484347Y-128794184D01*
X178773420Y-128794184D01*
X178777909Y-128808395D01*
X178791759Y-128816383D01*
X178809530Y-128818786D01*
X178830286Y-128805205D01*
X178863185Y-128771699D01*
X178871903Y-128762973D01*
X178922185Y-128723141D01*
X178976403Y-128691745D01*
X178978286Y-128690888D01*
X179029711Y-128658469D01*
X179042608Y-128637286D01*
X179097317Y-128637286D01*
X179099493Y-128655551D01*
X179101044Y-128656039D01*
X179123256Y-128660240D01*
X179162647Y-128666632D01*
X179187046Y-128669755D01*
X179216288Y-128667045D01*
X179240379Y-128649255D01*
X179270613Y-128610514D01*
X179286798Y-128587015D01*
X179309232Y-128549125D01*
X179318035Y-128525885D01*
X179315520Y-128519471D01*
X179292514Y-128499157D01*
X179253280Y-128477521D01*
X179226629Y-128465763D01*
X179197158Y-128456607D01*
X179177484Y-128461649D01*
X179155477Y-128481368D01*
X179152851Y-128484310D01*
X179136127Y-128513402D01*
X179119032Y-128555641D01*
X179112049Y-128577886D01*
X179104963Y-128600459D01*
X179097317Y-128637286D01*
X179042608Y-128637286D01*
X179053158Y-128619959D01*
X179055758Y-128608980D01*
X179057735Y-128577886D01*
X179040979Y-128567688D01*
X178999846Y-128573465D01*
X178988141Y-128576695D01*
X178949297Y-128601428D01*
X178914440Y-128650964D01*
X178905348Y-128665889D01*
X178863825Y-128717001D01*
X178817608Y-128756656D01*
X178795720Y-128771776D01*
X178773420Y-128794184D01*
X178484347Y-128794184D01*
X178299559Y-128768541D01*
X178062431Y-128757898D01*
X177868081Y-128765526D01*
X177647162Y-128793772D01*
X177641320Y-128794519D01*
X177533496Y-128819701D01*
X177428981Y-128844110D01*
X177236940Y-128913195D01*
X177167723Y-128943378D01*
X176767281Y-128943378D01*
X176855293Y-128931249D01*
X176938785Y-128922996D01*
X176967483Y-128920645D01*
X177024476Y-128913974D01*
X177063970Y-128906466D01*
X177078741Y-128899343D01*
X177078512Y-128896946D01*
X177064118Y-128885743D01*
X177053109Y-128878050D01*
X177029435Y-128849360D01*
X177000875Y-128806725D01*
X176978825Y-128773749D01*
X176946434Y-128733495D01*
X176937129Y-128725263D01*
X177018457Y-128725263D01*
X177029888Y-128756464D01*
X177055791Y-128797974D01*
X177091685Y-128841757D01*
X177091956Y-128842047D01*
X177120808Y-128870181D01*
X177145574Y-128881311D01*
X177177351Y-128876752D01*
X177227235Y-128857820D01*
X177262639Y-128840354D01*
X177278952Y-128819701D01*
X177266215Y-128795280D01*
X177224289Y-128762586D01*
X177189197Y-128744370D01*
X177139231Y-128726823D01*
X177087571Y-128714359D01*
X177044606Y-128709433D01*
X177020723Y-128714499D01*
X177018457Y-128725263D01*
X176937129Y-128725263D01*
X176920957Y-128710957D01*
X176913338Y-128705904D01*
X176883455Y-128675647D01*
X176854000Y-128634024D01*
X176849550Y-128626557D01*
X176815102Y-128570513D01*
X176790187Y-128531610D01*
X176858006Y-128531610D01*
X176868028Y-128567937D01*
X176903961Y-128618181D01*
X176920903Y-128637840D01*
X176948372Y-128665505D01*
X176963942Y-128675248D01*
X176964719Y-128675076D01*
X176988577Y-128671328D01*
X177028043Y-128666142D01*
X177033165Y-128665464D01*
X177067516Y-128655239D01*
X177072915Y-128637712D01*
X177071108Y-128632690D01*
X177060416Y-128598408D01*
X177050056Y-128561693D01*
X177094953Y-128561693D01*
X177112676Y-128612535D01*
X177114811Y-128618249D01*
X177128244Y-128637712D01*
X177144399Y-128661120D01*
X177198511Y-128695392D01*
X177214896Y-128703664D01*
X177265357Y-128735012D01*
X177303429Y-128766588D01*
X177328123Y-128787061D01*
X177361139Y-128803113D01*
X177387713Y-128806291D01*
X177398024Y-128793772D01*
X177397256Y-128791411D01*
X177379779Y-128773471D01*
X177346637Y-128749786D01*
X177326116Y-128734588D01*
X177282257Y-128691203D01*
X177243245Y-128640989D01*
X177219648Y-128596690D01*
X177217946Y-128593954D01*
X177194664Y-128581415D01*
X177154700Y-128571389D01*
X177094953Y-128561693D01*
X177050056Y-128561693D01*
X177047522Y-128552712D01*
X177030026Y-128501517D01*
X177004694Y-128468333D01*
X176969243Y-128461519D01*
X176918424Y-128478037D01*
X176918016Y-128478221D01*
X176874475Y-128503578D01*
X176858006Y-128531610D01*
X176790187Y-128531610D01*
X176781380Y-128517859D01*
X176781074Y-128517392D01*
X176760752Y-128480236D01*
X176732981Y-128421266D01*
X176701377Y-128348495D01*
X176669553Y-128269937D01*
X176662088Y-128250799D01*
X176714373Y-128250799D01*
X176761556Y-128355961D01*
X176764200Y-128361848D01*
X176787246Y-128412594D01*
X176804362Y-128449310D01*
X176812014Y-128464398D01*
X176826487Y-128459162D01*
X176861447Y-128442215D01*
X176909295Y-128417231D01*
X176909779Y-128416947D01*
X177036339Y-128416947D01*
X177038450Y-128434741D01*
X177055779Y-128457526D01*
X177078018Y-128484481D01*
X177089299Y-128499264D01*
X177090438Y-128500254D01*
X177111436Y-128507843D01*
X177149579Y-128517602D01*
X177159040Y-128519708D01*
X177191666Y-128524449D01*
X177203892Y-128515527D01*
X177204569Y-128488212D01*
X177204569Y-128488145D01*
X177248098Y-128488145D01*
X177254552Y-128525264D01*
X177271465Y-128579222D01*
X177318034Y-128660819D01*
X177381876Y-128721740D01*
X177420488Y-128746301D01*
X177445011Y-128754686D01*
X177454496Y-128741214D01*
X177454461Y-128704580D01*
X177454441Y-128704401D01*
X177497178Y-128704401D01*
X177500584Y-128718291D01*
X177505620Y-128732326D01*
X177507981Y-128741214D01*
X177510605Y-128751094D01*
X177524551Y-128755997D01*
X177561741Y-128752941D01*
X177614572Y-128742491D01*
X177661986Y-128731120D01*
X178507629Y-128731120D01*
X178509670Y-128733650D01*
X178532809Y-128742128D01*
X178573930Y-128752791D01*
X178607737Y-128759869D01*
X178642706Y-128762308D01*
X178658530Y-128751481D01*
X178662242Y-128725192D01*
X178662007Y-128719603D01*
X178656134Y-128708754D01*
X178715939Y-128708754D01*
X178716998Y-128725192D01*
X178718190Y-128743696D01*
X178725241Y-128757783D01*
X178747989Y-128750661D01*
X178787417Y-128723788D01*
X178830061Y-128684303D01*
X178867617Y-128640117D01*
X178891780Y-128599140D01*
X178901024Y-128574378D01*
X178915470Y-128519690D01*
X178915711Y-128483170D01*
X178902863Y-128471257D01*
X178964189Y-128471257D01*
X178967166Y-128483170D01*
X178973111Y-128506962D01*
X178988666Y-128520571D01*
X179020129Y-128518175D01*
X179023754Y-128517403D01*
X179066068Y-128496350D01*
X179104732Y-128459720D01*
X179143349Y-128409579D01*
X179080437Y-128359751D01*
X179057817Y-128342313D01*
X179025007Y-128319042D01*
X179008045Y-128309924D01*
X179006509Y-128310441D01*
X178993343Y-128328064D01*
X178976400Y-128362974D01*
X178964614Y-128405421D01*
X178964189Y-128471257D01*
X178902863Y-128471257D01*
X178901372Y-128469874D01*
X178856912Y-128481698D01*
X178807220Y-128517911D01*
X178763112Y-128571066D01*
X178730759Y-128633563D01*
X178716331Y-128697802D01*
X178715939Y-128708754D01*
X178656134Y-128708754D01*
X178655162Y-128706958D01*
X178632968Y-128704850D01*
X178587580Y-128711882D01*
X178563448Y-128716616D01*
X178525095Y-128725328D01*
X178508042Y-128730983D01*
X178507629Y-128731120D01*
X177661986Y-128731120D01*
X177662557Y-128730983D01*
X177614572Y-128719387D01*
X177572903Y-128709459D01*
X177527700Y-128699931D01*
X177504337Y-128698263D01*
X177497178Y-128704401D01*
X177454441Y-128704401D01*
X177452600Y-128688292D01*
X177433538Y-128626506D01*
X177399973Y-128565560D01*
X177358451Y-128515700D01*
X177315521Y-128487169D01*
X177281354Y-128475956D01*
X177255019Y-128472966D01*
X177248098Y-128488145D01*
X177204569Y-128488145D01*
X177204353Y-128456943D01*
X177207730Y-128429886D01*
X177208072Y-128421380D01*
X177198812Y-128390929D01*
X177181062Y-128354065D01*
X177161161Y-128322994D01*
X177145447Y-128309924D01*
X177138392Y-128313001D01*
X177112964Y-128333036D01*
X177079081Y-128365555D01*
X177051973Y-128394179D01*
X177036339Y-128416947D01*
X176909779Y-128416947D01*
X176927334Y-128406648D01*
X176977410Y-128371470D01*
X177034656Y-128325497D01*
X177093652Y-128273780D01*
X177103633Y-128264324D01*
X177206700Y-128264324D01*
X177207471Y-128273392D01*
X177221971Y-128316948D01*
X177249153Y-128366597D01*
X177281540Y-128410151D01*
X177294921Y-128421380D01*
X177311656Y-128435424D01*
X177340524Y-128448024D01*
X177356635Y-128453879D01*
X177356904Y-128453777D01*
X177357548Y-128437937D01*
X177354421Y-128409893D01*
X177398796Y-128409893D01*
X177401842Y-128436039D01*
X177420770Y-128493874D01*
X177451685Y-128554091D01*
X177488364Y-128605467D01*
X177524587Y-128636780D01*
X177561287Y-128652898D01*
X177596296Y-128661550D01*
X177614969Y-128657983D01*
X177610854Y-128641820D01*
X177591086Y-128607497D01*
X177577231Y-128567869D01*
X177626163Y-128567869D01*
X177645042Y-128610624D01*
X177655807Y-128630032D01*
X177678418Y-128657983D01*
X177698800Y-128683179D01*
X177750833Y-128708698D01*
X177817835Y-128710001D01*
X177820315Y-128709686D01*
X177872765Y-128701487D01*
X177898014Y-128691340D01*
X177900126Y-128678081D01*
X177961998Y-128678081D01*
X177974766Y-128687288D01*
X178011354Y-128692293D01*
X178075785Y-128693803D01*
X178081861Y-128693814D01*
X178143959Y-128695071D01*
X178195220Y-128698016D01*
X178225071Y-128702064D01*
X178231246Y-128702917D01*
X178221854Y-128695146D01*
X178190391Y-128678112D01*
X178186094Y-128676029D01*
X178154912Y-128665741D01*
X178282042Y-128665741D01*
X178294358Y-128682807D01*
X178302354Y-128689572D01*
X178332001Y-128702917D01*
X178350855Y-128711404D01*
X178405893Y-128715390D01*
X178452197Y-128699879D01*
X178454362Y-128698272D01*
X178478594Y-128672445D01*
X178496511Y-128646895D01*
X178560337Y-128646895D01*
X178563612Y-128659479D01*
X178581856Y-128661813D01*
X178617451Y-128649935D01*
X178661037Y-128619531D01*
X178702671Y-128578802D01*
X178732537Y-128535947D01*
X178741830Y-128515059D01*
X178756734Y-128467174D01*
X178764389Y-128421548D01*
X178763609Y-128387465D01*
X178753207Y-128374208D01*
X178739111Y-128378390D01*
X178703244Y-128395907D01*
X178657986Y-128422382D01*
X178639137Y-128434481D01*
X178604030Y-128461137D01*
X178589907Y-128483184D01*
X178591171Y-128507779D01*
X178592228Y-128513435D01*
X178590797Y-128539969D01*
X178589943Y-128555796D01*
X178576250Y-128603559D01*
X178571226Y-128615688D01*
X178560337Y-128646895D01*
X178496511Y-128646895D01*
X178505358Y-128634279D01*
X178529143Y-128593197D01*
X178544437Y-128558619D01*
X178545730Y-128539969D01*
X178537990Y-128536596D01*
X178504835Y-128538462D01*
X178457054Y-128550331D01*
X178404125Y-128569061D01*
X178355525Y-128591510D01*
X178320729Y-128614540D01*
X178315230Y-128619523D01*
X178311030Y-128623825D01*
X178287887Y-128647527D01*
X178282042Y-128665741D01*
X178154912Y-128665741D01*
X178135863Y-128659456D01*
X178079021Y-128650770D01*
X178024923Y-128650150D01*
X177982926Y-128657771D01*
X177962387Y-128673809D01*
X177962269Y-128675105D01*
X177961998Y-128678081D01*
X177900126Y-128678081D01*
X177900600Y-128675105D01*
X177885061Y-128648638D01*
X177871331Y-128632638D01*
X177830354Y-128602424D01*
X177910479Y-128602424D01*
X177910744Y-128602977D01*
X177928962Y-128606528D01*
X177970177Y-128608511D01*
X178026442Y-128608508D01*
X178090657Y-128609309D01*
X178152945Y-128613658D01*
X178197074Y-128620625D01*
X178198170Y-128620911D01*
X178233121Y-128628459D01*
X178244503Y-128623825D01*
X178239146Y-128604368D01*
X178238060Y-128601518D01*
X178228288Y-128564545D01*
X178215382Y-128501630D01*
X178200149Y-128417843D01*
X178183395Y-128318256D01*
X178165925Y-128207938D01*
X178148547Y-128091961D01*
X178132067Y-127975395D01*
X178117290Y-127863311D01*
X178105022Y-127760778D01*
X178098770Y-127706081D01*
X178086207Y-127604540D01*
X178075402Y-127529113D01*
X178066586Y-127480948D01*
X178059993Y-127461193D01*
X178055857Y-127470997D01*
X178054410Y-127511509D01*
X178052608Y-127551126D01*
X178046715Y-127620545D01*
X178037415Y-127710636D01*
X178025424Y-127815592D01*
X178011454Y-127929606D01*
X177996221Y-128046869D01*
X177980438Y-128161575D01*
X177964818Y-128267916D01*
X177950077Y-128360085D01*
X177943486Y-128399164D01*
X177930452Y-128477197D01*
X177919981Y-128540910D01*
X177913011Y-128584565D01*
X177910479Y-128602424D01*
X177830354Y-128602424D01*
X177820395Y-128595081D01*
X177753660Y-128563968D01*
X177682550Y-128545137D01*
X177654808Y-128541892D01*
X177628532Y-128546506D01*
X177626163Y-128567869D01*
X177577231Y-128567869D01*
X177576458Y-128565659D01*
X177570621Y-128528807D01*
X177576582Y-128508627D01*
X177580452Y-128491747D01*
X177561457Y-128465057D01*
X177524645Y-128434072D01*
X177475253Y-128404192D01*
X177433787Y-128383761D01*
X177409589Y-128376381D01*
X177400256Y-128384918D01*
X177398796Y-128409893D01*
X177354421Y-128409893D01*
X177353684Y-128403288D01*
X177353315Y-128364914D01*
X177372032Y-128333851D01*
X177374899Y-128331706D01*
X177387210Y-128316942D01*
X177382557Y-128297182D01*
X177359173Y-128262645D01*
X177353281Y-128254872D01*
X177319342Y-128215695D01*
X177289282Y-128188388D01*
X177272443Y-128178206D01*
X177253308Y-128179553D01*
X177232361Y-128205656D01*
X177214901Y-128237547D01*
X177206700Y-128264324D01*
X177103633Y-128264324D01*
X177148974Y-128221366D01*
X177195202Y-128173306D01*
X177226915Y-128134649D01*
X177238690Y-128110444D01*
X177235641Y-128094383D01*
X177224531Y-128061914D01*
X177208979Y-128024466D01*
X177192924Y-127990763D01*
X177180305Y-127969530D01*
X177175062Y-127969495D01*
X177169398Y-127982459D01*
X177152820Y-127999880D01*
X177140954Y-128012350D01*
X177093877Y-128050245D01*
X177081721Y-128058752D01*
X177034144Y-128092046D01*
X176967734Y-128133658D01*
X176900626Y-128170984D01*
X176838797Y-128199927D01*
X176714373Y-128250799D01*
X176662088Y-128250799D01*
X176594686Y-128077997D01*
X176594567Y-128028781D01*
X176649141Y-128028781D01*
X176654919Y-128071592D01*
X176658008Y-128088585D01*
X176669555Y-128137044D01*
X176681287Y-128169968D01*
X176689083Y-128183544D01*
X176702915Y-128194392D01*
X176726251Y-128190895D01*
X176768823Y-128173438D01*
X176786276Y-128165535D01*
X176807442Y-128150554D01*
X176811048Y-128128199D01*
X176801507Y-128086771D01*
X176788980Y-128049451D01*
X176840629Y-128049451D01*
X176846563Y-128084851D01*
X176853331Y-128111727D01*
X176864488Y-128128199D01*
X176864991Y-128128941D01*
X176886768Y-128124793D01*
X176926789Y-128100910D01*
X176931828Y-128097703D01*
X176966545Y-128076724D01*
X176987685Y-128065785D01*
X176993037Y-128058752D01*
X176990003Y-128033786D01*
X176980613Y-128019204D01*
X176957494Y-128012235D01*
X176913112Y-128016323D01*
X176896993Y-128018901D01*
X176859077Y-128026029D01*
X176841293Y-128031094D01*
X176841098Y-128031297D01*
X176840629Y-128049451D01*
X176788980Y-128049451D01*
X176787865Y-128046128D01*
X176770115Y-128026614D01*
X176740850Y-128022015D01*
X176707107Y-128019633D01*
X176672884Y-128012160D01*
X177036191Y-128012160D01*
X177044863Y-128022015D01*
X177049554Y-128021418D01*
X177070743Y-128006020D01*
X177073306Y-127999880D01*
X177064634Y-127990025D01*
X177059942Y-127990622D01*
X177038753Y-128006020D01*
X177036191Y-128012160D01*
X176672884Y-128012160D01*
X176670365Y-128011610D01*
X176665145Y-128009769D01*
X176651967Y-128010435D01*
X176649141Y-128028781D01*
X176594567Y-128028781D01*
X176594046Y-127814080D01*
X176594065Y-127800815D01*
X176646877Y-127800815D01*
X176646877Y-127879425D01*
X176646877Y-127958035D01*
X176818823Y-127956675D01*
X176858293Y-127955817D01*
X176941050Y-127950970D01*
X177020238Y-127942795D01*
X177088755Y-127932285D01*
X177139495Y-127920433D01*
X177165356Y-127908232D01*
X177166170Y-127894383D01*
X177162624Y-127856830D01*
X177155136Y-127804988D01*
X177139243Y-127707923D01*
X177017021Y-127743028D01*
X176943994Y-127761072D01*
X176852814Y-127778493D01*
X176770838Y-127789474D01*
X176646877Y-127800815D01*
X176594065Y-127800815D01*
X176594107Y-127770785D01*
X176594997Y-127734105D01*
X176642237Y-127734105D01*
X176728530Y-127732250D01*
X176761169Y-127731183D01*
X176812798Y-127728042D01*
X176846814Y-127724095D01*
X176897409Y-127714070D01*
X176973016Y-127698668D01*
X177023873Y-127687514D01*
X177054396Y-127679611D01*
X177069004Y-127673963D01*
X177066272Y-127667395D01*
X177040438Y-127654200D01*
X176996241Y-127638520D01*
X176993095Y-127637532D01*
X176956989Y-127624267D01*
X177184157Y-127624267D01*
X177191317Y-127646511D01*
X177196994Y-127655937D01*
X177200638Y-127673963D01*
X177203974Y-127690469D01*
X177206700Y-127739394D01*
X177206717Y-127743122D01*
X177215770Y-127837673D01*
X177228734Y-127894383D01*
X177239153Y-127939957D01*
X177273485Y-128040047D01*
X177307016Y-128110444D01*
X177315385Y-128128014D01*
X177361472Y-128193930D01*
X177373960Y-128208320D01*
X177408331Y-128254713D01*
X177431171Y-128295236D01*
X177444972Y-128316942D01*
X177453007Y-128329579D01*
X177481393Y-128350793D01*
X177505698Y-128363928D01*
X177546359Y-128393226D01*
X177592171Y-128431300D01*
X177634094Y-128465216D01*
X177674814Y-128491715D01*
X177701770Y-128501864D01*
X177718900Y-128502955D01*
X177755574Y-128510941D01*
X177768809Y-128509406D01*
X177784375Y-128490023D01*
X177801305Y-128449377D01*
X177820471Y-128384878D01*
X177842744Y-128293938D01*
X177868996Y-128173967D01*
X177880283Y-128119208D01*
X177908003Y-127968538D01*
X177928736Y-127823914D01*
X177944118Y-127672679D01*
X177955784Y-127502178D01*
X177967460Y-127294244D01*
X177914977Y-127244370D01*
X177876941Y-127197787D01*
X177862494Y-127152399D01*
X177864047Y-127130055D01*
X177874100Y-127116600D01*
X177900486Y-127111256D01*
X177951029Y-127110302D01*
X177997678Y-127109701D01*
X178023873Y-127105897D01*
X178029860Y-127095998D01*
X178021803Y-127077115D01*
X178013594Y-127051398D01*
X178012192Y-127008691D01*
X178019450Y-126962715D01*
X178032968Y-126920486D01*
X178050343Y-126889021D01*
X178069174Y-126875337D01*
X178087059Y-126886450D01*
X178095086Y-126900393D01*
X178116382Y-126958369D01*
X178125225Y-127019452D01*
X178119006Y-127068756D01*
X178103210Y-127110302D01*
X178190786Y-127110302D01*
X178233524Y-127110926D01*
X178263660Y-127115349D01*
X178275993Y-127127115D01*
X178278363Y-127149756D01*
X178277781Y-127156806D01*
X178260980Y-127197548D01*
X178226031Y-127241727D01*
X178173699Y-127294244D01*
X178185638Y-127518173D01*
X178202485Y-127739214D01*
X178236717Y-127997131D01*
X178288484Y-128261939D01*
X178307997Y-128346180D01*
X178330856Y-128434415D01*
X178349743Y-128492984D01*
X178365045Y-128523033D01*
X178377146Y-128525709D01*
X178381846Y-128522615D01*
X178411288Y-128511531D01*
X178455200Y-128499882D01*
X178456363Y-128499617D01*
X178513061Y-128477587D01*
X178553927Y-128444874D01*
X178560417Y-128437362D01*
X178599948Y-128403180D01*
X178647429Y-128373301D01*
X178659184Y-128366701D01*
X178703997Y-128331590D01*
X178725611Y-128304379D01*
X178780384Y-128304379D01*
X178783199Y-128322481D01*
X178797887Y-128341569D01*
X178813622Y-128365920D01*
X178815785Y-128413247D01*
X178814027Y-128421548D01*
X178810042Y-128440371D01*
X178809891Y-128452865D01*
X178852059Y-128435406D01*
X178898276Y-128395699D01*
X178931557Y-128343890D01*
X178948628Y-128287649D01*
X178946213Y-128234650D01*
X178921036Y-128192564D01*
X178918091Y-128189922D01*
X178897996Y-128176614D01*
X178879742Y-128182393D01*
X178852258Y-128210078D01*
X178821298Y-128244717D01*
X178792173Y-128280660D01*
X178780384Y-128304379D01*
X178725611Y-128304379D01*
X178734795Y-128292817D01*
X178743072Y-128278264D01*
X178775105Y-128231513D01*
X178812799Y-128185008D01*
X178819278Y-128177485D01*
X178869370Y-128098157D01*
X178872974Y-128089071D01*
X178929334Y-128089071D01*
X178930463Y-128110776D01*
X178946593Y-128137891D01*
X178980737Y-128179763D01*
X179007277Y-128210375D01*
X179055176Y-128262662D01*
X179079791Y-128287649D01*
X179096684Y-128304798D01*
X179133618Y-128335360D01*
X179190281Y-128375209D01*
X179246295Y-128409579D01*
X179250219Y-128411987D01*
X179350349Y-128468320D01*
X179399067Y-128371811D01*
X179422672Y-128321524D01*
X179438439Y-128280853D01*
X179442516Y-128259500D01*
X179442395Y-128259186D01*
X179424970Y-128245453D01*
X179385999Y-128225080D01*
X179333656Y-128202355D01*
X179300229Y-128188047D01*
X179219446Y-128147108D01*
X179212808Y-128143124D01*
X179361350Y-128143124D01*
X179374034Y-128159941D01*
X179407297Y-128175536D01*
X179414856Y-128178666D01*
X179450003Y-128192387D01*
X179467909Y-128197959D01*
X179471699Y-128195777D01*
X179483718Y-128172702D01*
X179496205Y-128133306D01*
X179506007Y-128088677D01*
X179509975Y-128049907D01*
X179509632Y-128036452D01*
X179502927Y-128012519D01*
X179484674Y-128012306D01*
X179482753Y-128012824D01*
X179464819Y-128017660D01*
X179423999Y-128022015D01*
X179405886Y-128024995D01*
X179395551Y-128035219D01*
X179386557Y-128044116D01*
X179371128Y-128087564D01*
X179364458Y-128113445D01*
X179361350Y-128143124D01*
X179212808Y-128143124D01*
X179140077Y-128099470D01*
X179071639Y-128051099D01*
X179057906Y-128038756D01*
X179177752Y-128038756D01*
X179177987Y-128043421D01*
X179193086Y-128065098D01*
X179223122Y-128090068D01*
X179258476Y-128112091D01*
X179289527Y-128124931D01*
X179306656Y-128122349D01*
X179314093Y-128102503D01*
X179324126Y-128066001D01*
X179324771Y-128063280D01*
X179328278Y-128035219D01*
X179315407Y-128023301D01*
X179278353Y-128019615D01*
X179274183Y-128019436D01*
X179230957Y-128017354D01*
X179202291Y-128015617D01*
X179192296Y-128017860D01*
X179177752Y-128038756D01*
X179057906Y-128038756D01*
X179023648Y-128007965D01*
X179021759Y-128006203D01*
X179102217Y-128006203D01*
X179105350Y-128010398D01*
X179127040Y-128022015D01*
X179136010Y-128021170D01*
X179139782Y-128012824D01*
X179117268Y-127999917D01*
X179104791Y-127997114D01*
X179102217Y-128006203D01*
X179021759Y-128006203D01*
X178996943Y-127983058D01*
X178974385Y-127975518D01*
X178966048Y-127994024D01*
X178966047Y-127994141D01*
X178958918Y-128021720D01*
X178942071Y-128059801D01*
X178940190Y-128063425D01*
X178929334Y-128089071D01*
X178872974Y-128089071D01*
X178910723Y-127993903D01*
X178932587Y-127907196D01*
X178998925Y-127907196D01*
X179050514Y-127926750D01*
X179059046Y-127929393D01*
X179100989Y-127937026D01*
X179161633Y-127943871D01*
X179233758Y-127949582D01*
X179310148Y-127953812D01*
X179383582Y-127956214D01*
X179446844Y-127956443D01*
X179492714Y-127954152D01*
X179513974Y-127948994D01*
X179516700Y-127944443D01*
X179523321Y-127914276D01*
X179525970Y-127869655D01*
X179525970Y-127802602D01*
X179370019Y-127784859D01*
X179340374Y-127781148D01*
X179257375Y-127767893D01*
X179178839Y-127751805D01*
X179118477Y-127735570D01*
X179072679Y-127720912D01*
X179035722Y-127710071D01*
X179020747Y-127707069D01*
X179018607Y-127719935D01*
X179014221Y-127756764D01*
X179008767Y-127808654D01*
X178998925Y-127907196D01*
X178932587Y-127907196D01*
X178941884Y-127870324D01*
X178961401Y-127733015D01*
X178964319Y-127666914D01*
X179070762Y-127666914D01*
X179135873Y-127684446D01*
X179158605Y-127690272D01*
X179221872Y-127704900D01*
X179285686Y-127718042D01*
X179311641Y-127722397D01*
X179384081Y-127730777D01*
X179450021Y-127734105D01*
X179529656Y-127734105D01*
X179518865Y-127642134D01*
X179513834Y-127599073D01*
X179505757Y-127544631D01*
X179494613Y-127515848D01*
X179475427Y-127508886D01*
X179443221Y-127519909D01*
X179393019Y-127545078D01*
X179338152Y-127570840D01*
X179257579Y-127604191D01*
X179182402Y-127631173D01*
X179070762Y-127666914D01*
X178964319Y-127666914D01*
X178967821Y-127587575D01*
X178967807Y-127584265D01*
X178966780Y-127507307D01*
X178965967Y-127493839D01*
X179014577Y-127493839D01*
X179015955Y-127554073D01*
X179022132Y-127587575D01*
X179023840Y-127596840D01*
X179030473Y-127611665D01*
X179041922Y-127619079D01*
X179065473Y-127614963D01*
X179110101Y-127599604D01*
X179121621Y-127595167D01*
X179157501Y-127571898D01*
X179171027Y-127538056D01*
X179168023Y-127502074D01*
X179148902Y-127446029D01*
X179118161Y-127389601D01*
X179081659Y-127345420D01*
X179078204Y-127342306D01*
X179057619Y-127327213D01*
X179045233Y-127334349D01*
X179031972Y-127367800D01*
X179029390Y-127375963D01*
X179019218Y-127429886D01*
X179014577Y-127493839D01*
X178965967Y-127493839D01*
X178963569Y-127454091D01*
X178956751Y-127416662D01*
X178944901Y-127387064D01*
X178926595Y-127357345D01*
X178920098Y-127347311D01*
X178889461Y-127289355D01*
X178867411Y-127231960D01*
X178863646Y-127219743D01*
X178843392Y-127170401D01*
X178822628Y-127136395D01*
X178902224Y-127136395D01*
X178907694Y-127186186D01*
X178918499Y-127237841D01*
X178933726Y-127282248D01*
X178953425Y-127321390D01*
X178974194Y-127345686D01*
X178992601Y-127341052D01*
X179011965Y-127308606D01*
X179018395Y-127295714D01*
X179021545Y-127292604D01*
X179158683Y-127292604D01*
X179158693Y-127346547D01*
X179184943Y-127417673D01*
X179197678Y-127445536D01*
X179215194Y-127492882D01*
X179222066Y-127525639D01*
X179222073Y-127527430D01*
X179223995Y-127538056D01*
X179226357Y-127551112D01*
X179243440Y-127554518D01*
X179280498Y-127539330D01*
X179283291Y-127537967D01*
X179303351Y-127524465D01*
X179305757Y-127505341D01*
X179292494Y-127468949D01*
X179291884Y-127467471D01*
X179276443Y-127416691D01*
X179270050Y-127369523D01*
X179268977Y-127363041D01*
X179323912Y-127363041D01*
X179328216Y-127413015D01*
X179332833Y-127433433D01*
X179345600Y-127471226D01*
X179358023Y-127488242D01*
X179362886Y-127488471D01*
X179392099Y-127480258D01*
X179432412Y-127461874D01*
X179447084Y-127453996D01*
X179475828Y-127434066D01*
X179484012Y-127411559D01*
X179477993Y-127374253D01*
X179468007Y-127344142D01*
X179444725Y-127297479D01*
X179415881Y-127252877D01*
X179387554Y-127219440D01*
X179365823Y-127206272D01*
X179349919Y-127220503D01*
X179336446Y-127257539D01*
X179327216Y-127308133D01*
X179323912Y-127363041D01*
X179268977Y-127363041D01*
X179266312Y-127346948D01*
X179248681Y-127310208D01*
X179222921Y-127278698D01*
X179196135Y-127260393D01*
X179175421Y-127263266D01*
X179161564Y-127287554D01*
X179158683Y-127292604D01*
X179021545Y-127292604D01*
X179039072Y-127275301D01*
X179071906Y-127277270D01*
X179112883Y-127287554D01*
X179076680Y-127223140D01*
X179061770Y-127200602D01*
X179025284Y-127158445D01*
X178982690Y-127118968D01*
X178942519Y-127089737D01*
X178913303Y-127078312D01*
X178910937Y-127078848D01*
X178903001Y-127097579D01*
X178902224Y-127136395D01*
X178822628Y-127136395D01*
X178821345Y-127134294D01*
X178795118Y-127097903D01*
X178769127Y-127053139D01*
X178760664Y-127039196D01*
X178724639Y-126997905D01*
X178679672Y-126961198D01*
X178661848Y-126948611D01*
X178618429Y-126911864D01*
X178588813Y-126878405D01*
X178562285Y-126850854D01*
X178531929Y-126838388D01*
X178506135Y-126835200D01*
X178449015Y-126816118D01*
X178389417Y-126785273D01*
X178340874Y-126748998D01*
X178299418Y-126709290D01*
X178183228Y-126751202D01*
X178067039Y-126793114D01*
X177971290Y-126751589D01*
X177875542Y-126710064D01*
X177827099Y-126750826D01*
X177798918Y-126771966D01*
X177742402Y-126805020D01*
X177686022Y-126829084D01*
X177641977Y-126838388D01*
X177615473Y-126850250D01*
X177570321Y-126885046D01*
X177508573Y-126941122D01*
X177432176Y-127016821D01*
X177379281Y-127075831D01*
X177344807Y-127127744D01*
X177333076Y-127145410D01*
X177310267Y-127210778D01*
X177304382Y-127233137D01*
X177282366Y-127288048D01*
X177252992Y-127342323D01*
X177250522Y-127346256D01*
X177216918Y-127416462D01*
X177206700Y-127485698D01*
X177206637Y-127488781D01*
X177206401Y-127500299D01*
X177201114Y-127554545D01*
X177191317Y-127596541D01*
X177184157Y-127624267D01*
X176956989Y-127624267D01*
X176933395Y-127615599D01*
X176861499Y-127584985D01*
X176802459Y-127556850D01*
X177001474Y-127556850D01*
X177013454Y-127581346D01*
X177039848Y-127593140D01*
X177080001Y-127606507D01*
X177106701Y-127612658D01*
X177128882Y-127607244D01*
X177143460Y-127580208D01*
X177147676Y-127568019D01*
X177157715Y-127488781D01*
X177142039Y-127394790D01*
X177126365Y-127349362D01*
X177108149Y-127329223D01*
X177085277Y-127339806D01*
X177053984Y-127380502D01*
X177039578Y-127404919D01*
X177016350Y-127459646D01*
X177003044Y-127513286D01*
X177001474Y-127556850D01*
X176802459Y-127556850D01*
X176792271Y-127551995D01*
X176773947Y-127542785D01*
X176722328Y-127518372D01*
X176697337Y-127508083D01*
X176865212Y-127508083D01*
X176867379Y-127528144D01*
X176881755Y-127536722D01*
X176914792Y-127549443D01*
X176924590Y-127552107D01*
X176945866Y-127549766D01*
X176951132Y-127523250D01*
X176952504Y-127510094D01*
X176964038Y-127465940D01*
X176983402Y-127415833D01*
X177004871Y-127351573D01*
X177005039Y-127290677D01*
X177000539Y-127266690D01*
X177065180Y-127266690D01*
X177073652Y-127276811D01*
X177102722Y-127274168D01*
X177121757Y-127272240D01*
X177144937Y-127282844D01*
X177149276Y-127290677D01*
X177164129Y-127317494D01*
X177185559Y-127368461D01*
X177211809Y-127328397D01*
X177212707Y-127327009D01*
X177233163Y-127285079D01*
X177250364Y-127232442D01*
X177262832Y-127177272D01*
X177269089Y-127127744D01*
X177267654Y-127092032D01*
X177257051Y-127078312D01*
X177249537Y-127079509D01*
X177215596Y-127096596D01*
X177173040Y-127128162D01*
X177131126Y-127166779D01*
X177099115Y-127205019D01*
X177077073Y-127239350D01*
X177065180Y-127266690D01*
X177000539Y-127266690D01*
X176994757Y-127235871D01*
X176940409Y-127288547D01*
X176923772Y-127306139D01*
X176899923Y-127339638D01*
X176894503Y-127360914D01*
X176894150Y-127362301D01*
X176895447Y-127369940D01*
X176891585Y-127404859D01*
X176879096Y-127450548D01*
X176873100Y-127469688D01*
X176865212Y-127508083D01*
X176697337Y-127508083D01*
X176684750Y-127502901D01*
X176668325Y-127499391D01*
X176668008Y-127499809D01*
X176663191Y-127520313D01*
X176657387Y-127563347D01*
X176651782Y-127620247D01*
X176642237Y-127734105D01*
X176594997Y-127734105D01*
X176597530Y-127629702D01*
X176606733Y-127514358D01*
X176622711Y-127420085D01*
X176625474Y-127411024D01*
X176682718Y-127411024D01*
X176695771Y-127434638D01*
X176731191Y-127459930D01*
X176774697Y-127483788D01*
X176807448Y-127490736D01*
X176826960Y-127474467D01*
X176836316Y-127432140D01*
X176838598Y-127360914D01*
X176837692Y-127321046D01*
X176831170Y-127257264D01*
X176818950Y-127219517D01*
X176801729Y-127210637D01*
X176792060Y-127215732D01*
X176761746Y-127244642D01*
X176728958Y-127288059D01*
X176701132Y-127335385D01*
X176685704Y-127376022D01*
X176685500Y-127377045D01*
X176682718Y-127411024D01*
X176625474Y-127411024D01*
X176646457Y-127342219D01*
X176678965Y-127276093D01*
X176721230Y-127217041D01*
X176724909Y-127212468D01*
X176748992Y-127173397D01*
X176758841Y-127140427D01*
X176762580Y-127120101D01*
X176813909Y-127120101D01*
X176818888Y-127140296D01*
X176820850Y-127141796D01*
X176839269Y-127165057D01*
X176860988Y-127202273D01*
X176865162Y-127210308D01*
X176882799Y-127241587D01*
X176892421Y-127254257D01*
X176892816Y-127254174D01*
X176907206Y-127242236D01*
X176932952Y-127216221D01*
X176942145Y-127204294D01*
X176947682Y-127191537D01*
X177020187Y-127191537D01*
X177025777Y-127204765D01*
X177036621Y-127197937D01*
X177063874Y-127172524D01*
X177098734Y-127135038D01*
X177112402Y-127118882D01*
X177147684Y-127064457D01*
X177158715Y-127016583D01*
X177156714Y-126988379D01*
X177145187Y-126969535D01*
X177120738Y-126976934D01*
X177080345Y-127010333D01*
X177075346Y-127015164D01*
X177070141Y-127022524D01*
X177040441Y-127064522D01*
X177023130Y-127130296D01*
X177020387Y-127156145D01*
X177020187Y-127191537D01*
X176947682Y-127191537D01*
X176964274Y-127153308D01*
X176977849Y-127088373D01*
X176980853Y-127022524D01*
X176971267Y-126968794D01*
X176956924Y-126931253D01*
X176907778Y-126972607D01*
X176881728Y-126998432D01*
X176849730Y-127040865D01*
X176825657Y-127084189D01*
X176813909Y-127120101D01*
X176762580Y-127120101D01*
X176765365Y-127104959D01*
X176790945Y-127047719D01*
X176830113Y-126988641D01*
X176876646Y-126938397D01*
X176889138Y-126926821D01*
X176929003Y-126882734D01*
X176936384Y-126871927D01*
X176997749Y-126871927D01*
X176998855Y-126892859D01*
X177008327Y-126909615D01*
X177014761Y-126945554D01*
X177016276Y-126967045D01*
X177025827Y-126978569D01*
X177049059Y-126970325D01*
X177073049Y-126954351D01*
X177219604Y-126954351D01*
X177221287Y-126966078D01*
X177222695Y-126998337D01*
X177228834Y-127016583D01*
X177230781Y-127022371D01*
X177261570Y-127030327D01*
X177291335Y-127037485D01*
X177305556Y-127066316D01*
X177306742Y-127073987D01*
X177312175Y-127088244D01*
X177323334Y-127079877D01*
X177345313Y-127046322D01*
X177348651Y-127040740D01*
X177374479Y-126985495D01*
X177391080Y-126930359D01*
X177396205Y-126893290D01*
X177391155Y-126874760D01*
X177372429Y-126870641D01*
X177371696Y-126870656D01*
X177341350Y-126878202D01*
X177301035Y-126895786D01*
X177260684Y-126917966D01*
X177230229Y-126939301D01*
X177219604Y-126954351D01*
X177073049Y-126954351D01*
X177091504Y-126942062D01*
X177102013Y-126934695D01*
X177137719Y-126911318D01*
X177159913Y-126899302D01*
X177166666Y-126892768D01*
X177180612Y-126863368D01*
X177194579Y-126820463D01*
X177205688Y-126774892D01*
X177211058Y-126737495D01*
X177207807Y-126719109D01*
X177205960Y-126718139D01*
X177178533Y-126719809D01*
X177139436Y-126738349D01*
X177095238Y-126768294D01*
X177052511Y-126804181D01*
X177017824Y-126840546D01*
X176997749Y-126871927D01*
X176936384Y-126871927D01*
X176957181Y-126841476D01*
X176958763Y-126838520D01*
X176990577Y-126794844D01*
X177030969Y-126755947D01*
X177097985Y-126703358D01*
X177149183Y-126661511D01*
X177235862Y-126661511D01*
X177245659Y-126677496D01*
X177253649Y-126688851D01*
X177260711Y-126721757D01*
X177258931Y-126737495D01*
X177254757Y-126774408D01*
X177250819Y-126796504D01*
X177245139Y-126833010D01*
X177244077Y-126848276D01*
X177245441Y-126847640D01*
X177260463Y-126832035D01*
X177264736Y-126826967D01*
X177326435Y-126826967D01*
X177334912Y-126830277D01*
X177368650Y-126821819D01*
X177373515Y-126820487D01*
X177411170Y-126814542D01*
X177432843Y-126818549D01*
X177433442Y-126819228D01*
X177442758Y-126843620D01*
X177449483Y-126883469D01*
X177450434Y-126893290D01*
X177454622Y-126936548D01*
X177504687Y-126883469D01*
X177545404Y-126835502D01*
X177578572Y-126783279D01*
X177590579Y-126743469D01*
X177586519Y-126734197D01*
X177561036Y-126726920D01*
X177518785Y-126730479D01*
X177467515Y-126742793D01*
X177414975Y-126761784D01*
X177368913Y-126785373D01*
X177337078Y-126811482D01*
X177326435Y-126826967D01*
X177264736Y-126826967D01*
X177285929Y-126801831D01*
X177287889Y-126799455D01*
X177329828Y-126757745D01*
X177375373Y-126723875D01*
X177383783Y-126718446D01*
X177421513Y-126683673D01*
X177430818Y-126670440D01*
X177556290Y-126670440D01*
X177601426Y-126678995D01*
X177625491Y-126685388D01*
X177641557Y-126702396D01*
X177642502Y-126738976D01*
X177642241Y-126742692D01*
X177642269Y-126743469D01*
X177643455Y-126776510D01*
X177650749Y-126790403D01*
X177653403Y-126790056D01*
X177681194Y-126778512D01*
X177729093Y-126752737D01*
X177791647Y-126715626D01*
X177803997Y-126707986D01*
X177813766Y-126698564D01*
X177807433Y-126688724D01*
X177780758Y-126673976D01*
X177729502Y-126649834D01*
X177689054Y-126631663D01*
X177658276Y-126622746D01*
X177634048Y-126626489D01*
X177604391Y-126642155D01*
X177556290Y-126670440D01*
X177430818Y-126670440D01*
X177450826Y-126641985D01*
X177462620Y-126605708D01*
X177461482Y-126602815D01*
X177440759Y-126597843D01*
X177400803Y-126600674D01*
X177350556Y-126610230D01*
X177298958Y-126625433D01*
X177276132Y-126633850D01*
X177244324Y-126648619D01*
X177235862Y-126661511D01*
X177149183Y-126661511D01*
X177176731Y-126638995D01*
X177248853Y-126577566D01*
X177287710Y-126542481D01*
X177358653Y-126542481D01*
X177438627Y-126550478D01*
X177463262Y-126553190D01*
X177498919Y-126560387D01*
X177513568Y-126572686D01*
X177514792Y-126594464D01*
X177515016Y-126605708D01*
X177515242Y-126617044D01*
X177523731Y-126630453D01*
X177539544Y-126625381D01*
X177565062Y-126609364D01*
X177585955Y-126590959D01*
X177590554Y-126579130D01*
X177535442Y-126538088D01*
X177492303Y-126507795D01*
X177463246Y-126492385D01*
X177442035Y-126489761D01*
X177422432Y-126497828D01*
X177398200Y-126514490D01*
X177358653Y-126542481D01*
X177287710Y-126542481D01*
X177304773Y-126527075D01*
X177354303Y-126488582D01*
X177417656Y-126450944D01*
X177520856Y-126450944D01*
X177524905Y-126460693D01*
X177548975Y-126484067D01*
X177588159Y-126513641D01*
X177598737Y-126520617D01*
X177641907Y-126546154D01*
X177696515Y-126575697D01*
X177703244Y-126579130D01*
X177755970Y-126606031D01*
X177813683Y-126633939D01*
X177863066Y-126656206D01*
X177897527Y-126669615D01*
X177910479Y-126670951D01*
X177910001Y-126668943D01*
X177899657Y-126647042D01*
X177880048Y-126611374D01*
X177866170Y-126584162D01*
X177841915Y-126527308D01*
X177820067Y-126466620D01*
X177808403Y-126433446D01*
X177789334Y-126395947D01*
X177857587Y-126395947D01*
X177863574Y-126427070D01*
X177883945Y-126486327D01*
X177913973Y-126554192D01*
X177948884Y-126620170D01*
X177982069Y-126670951D01*
X177983907Y-126673764D01*
X177993846Y-126685904D01*
X178010596Y-126698564D01*
X178038916Y-126719969D01*
X178085622Y-126722417D01*
X178127656Y-126697026D01*
X178367412Y-126697026D01*
X178377244Y-126718540D01*
X178415604Y-126744592D01*
X178458000Y-126765976D01*
X178496716Y-126781304D01*
X178516574Y-126785098D01*
X178527805Y-126774652D01*
X178528706Y-126740078D01*
X178528690Y-126734420D01*
X178566039Y-126734420D01*
X178599894Y-126802555D01*
X178609136Y-126819451D01*
X178644079Y-126868420D01*
X178680690Y-126904114D01*
X178727630Y-126937538D01*
X178717142Y-126895753D01*
X178715193Y-126886747D01*
X178716726Y-126866882D01*
X178760726Y-126866882D01*
X178778296Y-126936608D01*
X178782217Y-126951020D01*
X178801188Y-127005753D01*
X178821736Y-127049147D01*
X178823082Y-127051373D01*
X178840940Y-127078404D01*
X178851353Y-127079772D01*
X178862890Y-127057144D01*
X178879692Y-127034291D01*
X178915341Y-127027533D01*
X178931556Y-127028870D01*
X178947250Y-127020132D01*
X178947266Y-127013911D01*
X178998136Y-127013911D01*
X179002515Y-127041832D01*
X179024739Y-127082556D01*
X179069691Y-127133030D01*
X179084523Y-127147578D01*
X179123918Y-127181244D01*
X179145850Y-127189069D01*
X179151545Y-127170947D01*
X179142228Y-127126774D01*
X179141386Y-127123795D01*
X179132468Y-127083839D01*
X179130695Y-127058089D01*
X179126491Y-127047692D01*
X179103711Y-127023879D01*
X179070213Y-126997150D01*
X179054758Y-126987255D01*
X179187743Y-126987255D01*
X179187997Y-127040448D01*
X179192475Y-127098182D01*
X179200583Y-127150076D01*
X179207103Y-127170947D01*
X179211728Y-127185752D01*
X179235523Y-127224251D01*
X179259517Y-127252152D01*
X179274241Y-127260226D01*
X179287707Y-127250148D01*
X179302169Y-127213879D01*
X179305350Y-127204902D01*
X179323930Y-127167347D01*
X179342378Y-127147942D01*
X179345838Y-127146256D01*
X179355332Y-127124280D01*
X179344099Y-127087205D01*
X179314699Y-127040587D01*
X179269687Y-126989985D01*
X179242910Y-126965447D01*
X179212887Y-126942675D01*
X179197541Y-126937555D01*
X179192305Y-126948980D01*
X179187743Y-126987255D01*
X179054758Y-126987255D01*
X179036172Y-126975356D01*
X179011766Y-126966347D01*
X179011702Y-126966348D01*
X179002119Y-126980392D01*
X179001081Y-126989128D01*
X178998136Y-127013911D01*
X178947266Y-127013911D01*
X178947331Y-126989128D01*
X178946515Y-126983834D01*
X178922930Y-126937509D01*
X178875484Y-126899830D01*
X178811452Y-126876812D01*
X178760726Y-126866882D01*
X178716726Y-126866882D01*
X178718596Y-126842637D01*
X178746251Y-126818321D01*
X178795595Y-126816393D01*
X178846184Y-126825031D01*
X178806292Y-126792708D01*
X178773952Y-126771997D01*
X178714189Y-126746891D01*
X178651511Y-126731055D01*
X178600496Y-126729001D01*
X178566039Y-126734420D01*
X178528690Y-126734420D01*
X178528644Y-126718620D01*
X178538098Y-126691647D01*
X178566272Y-126678494D01*
X178606260Y-126668390D01*
X178559975Y-126643771D01*
X178540967Y-126634401D01*
X178514295Y-126627883D01*
X178483326Y-126633499D01*
X178435773Y-126652072D01*
X178386980Y-126676054D01*
X178367412Y-126697026D01*
X178127656Y-126697026D01*
X178133508Y-126693491D01*
X178155198Y-126666692D01*
X178228370Y-126666692D01*
X178234150Y-126677479D01*
X178247188Y-126675332D01*
X178289460Y-126661082D01*
X178346458Y-126636416D01*
X178411908Y-126604686D01*
X178453252Y-126583018D01*
X178566778Y-126583018D01*
X178566963Y-126584013D01*
X178581831Y-126598446D01*
X178613317Y-126619356D01*
X178660363Y-126647146D01*
X178657906Y-126611531D01*
X178710227Y-126611531D01*
X178712411Y-126628321D01*
X178726842Y-126665469D01*
X178728831Y-126668390D01*
X178748361Y-126697071D01*
X178769373Y-126710428D01*
X178788295Y-126719206D01*
X178822605Y-126745859D01*
X178863042Y-126784147D01*
X178894291Y-126815631D01*
X178905063Y-126825031D01*
X178917015Y-126835461D01*
X178924005Y-126834692D01*
X178918428Y-126815096D01*
X178910691Y-126790444D01*
X178903006Y-126738499D01*
X178904055Y-126724458D01*
X178953408Y-126724458D01*
X178956275Y-126757143D01*
X178965545Y-126803890D01*
X178971640Y-126827401D01*
X178988274Y-126868461D01*
X179015500Y-126899153D01*
X179062469Y-126931525D01*
X179140394Y-126979966D01*
X179158186Y-126926057D01*
X179164137Y-126905941D01*
X179166647Y-126868326D01*
X179150766Y-126833670D01*
X179134725Y-126815799D01*
X179098980Y-126787077D01*
X179054717Y-126757650D01*
X179010381Y-126732602D01*
X178974416Y-126717016D01*
X178955266Y-126715976D01*
X178953408Y-126724458D01*
X178904055Y-126724458D01*
X178906309Y-126694291D01*
X178920445Y-126669029D01*
X178925471Y-126663301D01*
X178916354Y-126647918D01*
X178885240Y-126630893D01*
X178838557Y-126615261D01*
X178782734Y-126604053D01*
X178769063Y-126602359D01*
X178725109Y-126601489D01*
X178710227Y-126611531D01*
X178657906Y-126611531D01*
X178657304Y-126602811D01*
X178656808Y-126583456D01*
X178663778Y-126565692D01*
X178686966Y-126556452D01*
X178734219Y-126550386D01*
X178814194Y-126542296D01*
X178763111Y-126514452D01*
X178734392Y-126500014D01*
X178710325Y-126495883D01*
X178682679Y-126505546D01*
X178639655Y-126530539D01*
X178611822Y-126548070D01*
X178579557Y-126570646D01*
X178566778Y-126583018D01*
X178453252Y-126583018D01*
X178479533Y-126569244D01*
X178543055Y-126533442D01*
X178596200Y-126500632D01*
X178632689Y-126474166D01*
X178646247Y-126457396D01*
X178645394Y-126455166D01*
X178625145Y-126442085D01*
X178584400Y-126425163D01*
X178531775Y-126407173D01*
X178475888Y-126390889D01*
X178425357Y-126379085D01*
X178388799Y-126374534D01*
X178372327Y-126375920D01*
X178353226Y-126386823D01*
X178349118Y-126394098D01*
X178337517Y-126414646D01*
X178319868Y-126466505D01*
X178306742Y-126504494D01*
X178279794Y-126568077D01*
X178252740Y-126618457D01*
X178242681Y-126634795D01*
X178228370Y-126666692D01*
X178155198Y-126666692D01*
X178182117Y-126633431D01*
X178230994Y-126542481D01*
X178246471Y-126508120D01*
X178273823Y-126440181D01*
X178285855Y-126394098D01*
X178283323Y-126365860D01*
X178266981Y-126351456D01*
X178244381Y-126345508D01*
X178189256Y-126338024D01*
X178119395Y-126333171D01*
X178045307Y-126331352D01*
X177977497Y-126332967D01*
X177926474Y-126338420D01*
X177907783Y-126342173D01*
X177872854Y-126352760D01*
X177858803Y-126368446D01*
X177857587Y-126395947D01*
X177789334Y-126395947D01*
X177785881Y-126389157D01*
X177764210Y-126374649D01*
X177763140Y-126374662D01*
X177732297Y-126379679D01*
X177684974Y-126391746D01*
X177630670Y-126407883D01*
X177578883Y-126425114D01*
X177539112Y-126440460D01*
X177520856Y-126450944D01*
X177417656Y-126450944D01*
X177431410Y-126442773D01*
X177522065Y-126398715D01*
X177616881Y-126360922D01*
X177706471Y-126333908D01*
X177753921Y-126322354D01*
X177816730Y-126306633D01*
X177864350Y-126294233D01*
X177892591Y-126288591D01*
X177960086Y-126281943D01*
X178042095Y-126279170D01*
X178127710Y-126280276D01*
X178206026Y-126285262D01*
X178266137Y-126294133D01*
X178303740Y-126302330D01*
X178369692Y-126315840D01*
X178436750Y-126328825D01*
X178509197Y-126347542D01*
X178606469Y-126383657D01*
X178705221Y-126429841D01*
X178753409Y-126457396D01*
X178794461Y-126480871D01*
G37*
%TD*%
M02*
