%TF.GenerationSoftware,KiCad,Pcbnew,8.0.5*%
%TF.CreationDate,2025-01-25T11:08:43+05:30*%
%TF.ProjectId,racer,72616365-722e-46b6-9963-61645f706362,rev?*%
%TF.SameCoordinates,Original*%
%TF.FileFunction,Copper,L4,Bot*%
%TF.FilePolarity,Positive*%
%FSLAX46Y46*%
G04 Gerber Fmt 4.6, Leading zero omitted, Abs format (unit mm)*
G04 Created by KiCad (PCBNEW 8.0.5) date 2025-01-25 11:08:43*
%MOMM*%
%LPD*%
G01*
G04 APERTURE LIST*
G04 Aperture macros list*
%AMRoundRect*
0 Rectangle with rounded corners*
0 $1 Rounding radius*
0 $2 $3 $4 $5 $6 $7 $8 $9 X,Y pos of 4 corners*
0 Add a 4 corners polygon primitive as box body*
4,1,4,$2,$3,$4,$5,$6,$7,$8,$9,$2,$3,0*
0 Add four circle primitives for the rounded corners*
1,1,$1+$1,$2,$3*
1,1,$1+$1,$4,$5*
1,1,$1+$1,$6,$7*
1,1,$1+$1,$8,$9*
0 Add four rect primitives between the rounded corners*
20,1,$1+$1,$2,$3,$4,$5,0*
20,1,$1+$1,$4,$5,$6,$7,0*
20,1,$1+$1,$6,$7,$8,$9,0*
20,1,$1+$1,$8,$9,$2,$3,0*%
G04 Aperture macros list end*
%TA.AperFunction,ComponentPad*%
%ADD10RoundRect,0.250000X0.625000X-0.350000X0.625000X0.350000X-0.625000X0.350000X-0.625000X-0.350000X0*%
%TD*%
%TA.AperFunction,ComponentPad*%
%ADD11O,1.750000X1.200000*%
%TD*%
%TA.AperFunction,ComponentPad*%
%ADD12O,1.000000X1.700000*%
%TD*%
%TA.AperFunction,ComponentPad*%
%ADD13R,1.700000X1.700000*%
%TD*%
%TA.AperFunction,ComponentPad*%
%ADD14O,1.700000X1.700000*%
%TD*%
%TA.AperFunction,ComponentPad*%
%ADD15C,0.508000*%
%TD*%
%TA.AperFunction,SMDPad,CuDef*%
%ADD16C,1.000000*%
%TD*%
%TA.AperFunction,SMDPad,CuDef*%
%ADD17R,2.400000X0.740000*%
%TD*%
%TA.AperFunction,ViaPad*%
%ADD18C,0.508000*%
%TD*%
%TA.AperFunction,Conductor*%
%ADD19C,0.203200*%
%TD*%
%TA.AperFunction,Conductor*%
%ADD20C,0.304800*%
%TD*%
G04 APERTURE END LIST*
D10*
%TO.P,J12,1,Pin_1*%
%TO.N,GND*%
X192617000Y-103819200D03*
D11*
%TO.P,J12,2,Pin_2*%
%TO.N,LIPO+*%
X192617000Y-101819200D03*
%TD*%
D12*
%TO.P,P1,S1,SHIELD*%
%TO.N,Net-(P1-SHIELD)*%
X180642000Y-124750600D03*
%TO.P,P1,S2*%
%TO.N,N/C*%
X189182000Y-124750600D03*
%TD*%
D13*
%TO.P,J11,1,Pin_1*%
%TO.N,/U0RXD*%
X181584600Y-100838000D03*
D14*
%TO.P,J11,2,Pin_2*%
%TO.N,/U0TXD*%
X179044600Y-100838000D03*
%TO.P,J11,3,Pin_3*%
%TO.N,GND*%
X176504600Y-100838000D03*
%TO.P,J11,4,Pin_4*%
%TO.N,+3V3*%
X173964600Y-100838000D03*
%TD*%
D15*
%TO.P,U5,49,EPAD*%
%TO.N,GND*%
X177445300Y-111970000D03*
X179420300Y-111970000D03*
X176457800Y-110982500D03*
X178432800Y-110982500D03*
X180407800Y-110982500D03*
X177445300Y-109995000D03*
X179420300Y-109995000D03*
X176457800Y-109007500D03*
X178432800Y-109007500D03*
X180407800Y-109007500D03*
X177445300Y-108020000D03*
X179420300Y-108020000D03*
%TD*%
D16*
%TO.P,TP6,1,1*%
%TO.N,Net-(U5-IO11)*%
X184785000Y-107543600D03*
%TD*%
D17*
%TO.P,J9,1,Pin_1*%
%TO.N,/SDA*%
X186805400Y-95224600D03*
%TO.P,J9,2,Pin_2*%
%TO.N,+3V3*%
X182905400Y-95224600D03*
%TO.P,J9,3,Pin_3*%
%TO.N,/SCL*%
X186805400Y-96494600D03*
%TO.P,J9,4,Pin_4*%
%TO.N,/OPT_INT*%
X182905400Y-96494600D03*
%TO.P,J9,5,Pin_5*%
%TO.N,GND*%
X186805400Y-97764600D03*
%TO.P,J9,6,Pin_6*%
%TO.N,/HAL_OUT*%
X182905400Y-97764600D03*
%TD*%
D16*
%TO.P,TP1,1,1*%
%TO.N,Net-(U5-IO3)*%
X178435000Y-114960400D03*
%TD*%
D18*
%TO.N,GND*%
X172059600Y-89433400D03*
X181432200Y-126161800D03*
X194691000Y-107213400D03*
X172466000Y-117119400D03*
X172466000Y-124104400D03*
X201295000Y-89890600D03*
X193751200Y-117627400D03*
X185623200Y-116992400D03*
X199669400Y-131419600D03*
X184175400Y-93167200D03*
X193522600Y-133324600D03*
X193141600Y-121259600D03*
X186182000Y-130225800D03*
X190652400Y-130454400D03*
X187172600Y-99339400D03*
X177800000Y-96393000D03*
X200787000Y-106349800D03*
X184531000Y-103606600D03*
X187706000Y-112369600D03*
X168656000Y-134213600D03*
X198755000Y-104419400D03*
X200075800Y-97078800D03*
X200710800Y-134137400D03*
X177876200Y-87274400D03*
X190525400Y-106781600D03*
X176657000Y-88823800D03*
X189153800Y-108051600D03*
X177266600Y-128625600D03*
X187655200Y-126060200D03*
X175564800Y-133604000D03*
X193802000Y-90220800D03*
X182803800Y-134010400D03*
X190906400Y-126771400D03*
X195732400Y-126542800D03*
%TO.N,+3V3*%
X178130200Y-121894600D03*
X186944000Y-112369600D03*
X197840600Y-98120200D03*
X179171600Y-96824800D03*
X176377600Y-119786400D03*
%TO.N,/ADC_BATT*%
X190601600Y-98069400D03*
X177622200Y-117017800D03*
%TO.N,Net-(U5-IO27)*%
X176149000Y-135636000D03*
X180797200Y-105156000D03*
%TO.N,Net-(U5-IO26)*%
X193929000Y-135610600D03*
X181635400Y-105130600D03*
%TO.N,Net-(U5-IO25)*%
X184607200Y-102565200D03*
X194513200Y-88087200D03*
%TO.N,Net-(U5-IO22)*%
X175285400Y-88036400D03*
X184531000Y-105181400D03*
%TO.N,MOTOR_0_IN1*%
X174980600Y-92430600D03*
X174599600Y-132130800D03*
X184632600Y-115036600D03*
%TO.N,MOTOR_0_IN2*%
X184658000Y-114173000D03*
X174548800Y-132867400D03*
X176174400Y-93522800D03*
%TO.N,MOTOR_1_IN1*%
X194818000Y-91821000D03*
X195097400Y-131648200D03*
X184429400Y-109982000D03*
%TO.N,MOTOR_1_IN2*%
X194183000Y-130479800D03*
X184429400Y-109194600D03*
X194310000Y-91313000D03*
%TO.N,/SCL*%
X180848000Y-114833400D03*
%TO.N,Net-(U5-IO11)*%
X182448200Y-107594400D03*
%TO.N,Net-(U5-IO3)*%
X177368200Y-114198400D03*
%TO.N,/SDA*%
X181635400Y-114833400D03*
%TO.N,/HAL_OUT*%
X182295800Y-108356400D03*
%TO.N,/CHRGR+*%
X188696600Y-112699800D03*
X195580000Y-113614200D03*
%TO.N,RAW*%
X196011800Y-110058200D03*
X184175400Y-131064000D03*
X194030600Y-106146600D03*
X196316600Y-127533400D03*
%TD*%
D19*
%TO.N,+3V3*%
X179171600Y-96037400D02*
X179171600Y-96824800D01*
X179984400Y-95224600D02*
X179171600Y-96037400D01*
X182905400Y-95224600D02*
X179984400Y-95224600D01*
%TO.N,/SCL*%
X188671200Y-96824800D02*
X188671200Y-101092000D01*
X180848000Y-114274600D02*
X180848000Y-114833400D01*
X188671200Y-101092000D02*
X186791600Y-102971600D01*
X184429400Y-113233200D02*
X181889400Y-113233200D01*
X188341000Y-96494600D02*
X188671200Y-96824800D01*
X181889400Y-113233200D02*
X180848000Y-114274600D01*
X186791600Y-102971600D02*
X186791600Y-110871000D01*
X186805400Y-96494600D02*
X188341000Y-96494600D01*
X186791600Y-110871000D02*
X184429400Y-113233200D01*
%TO.N,Net-(U5-IO11)*%
X182803800Y-107594400D02*
X182854600Y-107543600D01*
X182448200Y-107594400D02*
X182803800Y-107594400D01*
X182854600Y-107543600D02*
X184785000Y-107543600D01*
%TO.N,Net-(U5-IO3)*%
X177368200Y-114198400D02*
X177673000Y-114198400D01*
X177673000Y-114198400D02*
X178435000Y-114960400D01*
%TO.N,/SDA*%
X181635400Y-113990094D02*
X182036694Y-113588800D01*
X188620400Y-95224600D02*
X186805400Y-95224600D01*
X181635400Y-114833400D02*
X181635400Y-113990094D01*
X187147200Y-103118894D02*
X189026800Y-101239294D01*
X187147200Y-111018294D02*
X187147200Y-103118894D01*
X184576694Y-113588800D02*
X187147200Y-111018294D01*
X182036694Y-113588800D02*
X184576694Y-113588800D01*
X189026800Y-95631000D02*
X188620400Y-95224600D01*
X189026800Y-101239294D02*
X189026800Y-95631000D01*
%TO.N,/HAL_OUT*%
X182905400Y-98602800D02*
X182905400Y-97764600D01*
X183642000Y-105410000D02*
X183642000Y-99339400D01*
X181940200Y-107111800D02*
X183642000Y-105410000D01*
X182295800Y-108356400D02*
X181940200Y-108000800D01*
X183642000Y-99339400D02*
X182905400Y-98602800D01*
X181940200Y-108000800D02*
X181940200Y-107111800D01*
D20*
%TO.N,/CHRGR+*%
X194665600Y-112699800D02*
X188696600Y-112699800D01*
X195580000Y-113614200D02*
X194665600Y-112699800D01*
%TO.N,RAW*%
X195046600Y-110058200D02*
X194030600Y-109042200D01*
X194030600Y-109042200D02*
X194030600Y-106146600D01*
X184175400Y-128371600D02*
X184175400Y-131064000D01*
X185013600Y-127533400D02*
X184175400Y-128371600D01*
X196011800Y-110058200D02*
X195046600Y-110058200D01*
X196316600Y-127533400D02*
X185013600Y-127533400D01*
%TD*%
%TA.AperFunction,Conductor*%
%TO.N,GND*%
G36*
X200881696Y-86783016D02*
G01*
X200885142Y-86783077D01*
X201017378Y-86785435D01*
X201029879Y-86786442D01*
X201299352Y-86825186D01*
X201313378Y-86828237D01*
X201573717Y-86904679D01*
X201587162Y-86909694D01*
X201833982Y-87022413D01*
X201846569Y-87029286D01*
X202074832Y-87175982D01*
X202086319Y-87184581D01*
X202291389Y-87362274D01*
X202301525Y-87372410D01*
X202479216Y-87577477D01*
X202487817Y-87588967D01*
X202634510Y-87817225D01*
X202641389Y-87829823D01*
X202754104Y-88076635D01*
X202759120Y-88090084D01*
X202835562Y-88350422D01*
X202838613Y-88364447D01*
X202877356Y-88633908D01*
X202878364Y-88646431D01*
X202880784Y-88782102D01*
X202880800Y-88783896D01*
X202880800Y-134984103D01*
X202880784Y-134985897D01*
X202878364Y-135121568D01*
X202877356Y-135134091D01*
X202838613Y-135403552D01*
X202835562Y-135417577D01*
X202759120Y-135677915D01*
X202754104Y-135691364D01*
X202641389Y-135938176D01*
X202634510Y-135950774D01*
X202487817Y-136179032D01*
X202479216Y-136190522D01*
X202301532Y-136395582D01*
X202291382Y-136405732D01*
X202086322Y-136583416D01*
X202074832Y-136592017D01*
X201846574Y-136738710D01*
X201833976Y-136745589D01*
X201587164Y-136858304D01*
X201573715Y-136863320D01*
X201313377Y-136939762D01*
X201299352Y-136942813D01*
X201029891Y-136981556D01*
X201017368Y-136982564D01*
X200881697Y-136984984D01*
X200879903Y-136985000D01*
X168881695Y-136985000D01*
X168879901Y-136984984D01*
X168744230Y-136982564D01*
X168731707Y-136981556D01*
X168462246Y-136942813D01*
X168448221Y-136939762D01*
X168187883Y-136863320D01*
X168174434Y-136858304D01*
X167927622Y-136745589D01*
X167915024Y-136738710D01*
X167686767Y-136592017D01*
X167675277Y-136583416D01*
X167470210Y-136405725D01*
X167460074Y-136395589D01*
X167282381Y-136190519D01*
X167273782Y-136179032D01*
X167127086Y-135950770D01*
X167120213Y-135938183D01*
X167007494Y-135691363D01*
X167002479Y-135677916D01*
X166990170Y-135635997D01*
X175737028Y-135635997D01*
X175737028Y-135636002D01*
X175757190Y-135763303D01*
X175757191Y-135763306D01*
X175815708Y-135878151D01*
X175906849Y-135969292D01*
X176021694Y-136027809D01*
X176072616Y-136035874D01*
X176148997Y-136047972D01*
X176149000Y-136047972D01*
X176149003Y-136047972D01*
X176212653Y-136037890D01*
X176276306Y-136027809D01*
X176391151Y-135969292D01*
X176482292Y-135878151D01*
X176540809Y-135763306D01*
X176560972Y-135636000D01*
X176556949Y-135610602D01*
X176556948Y-135610597D01*
X193517028Y-135610597D01*
X193517028Y-135610602D01*
X193537190Y-135737903D01*
X193537191Y-135737906D01*
X193550131Y-135763303D01*
X193595708Y-135852751D01*
X193686849Y-135943892D01*
X193801694Y-136002409D01*
X193852616Y-136010474D01*
X193928997Y-136022572D01*
X193929000Y-136022572D01*
X193929003Y-136022572D01*
X193992653Y-136012490D01*
X194056306Y-136002409D01*
X194171151Y-135943892D01*
X194262292Y-135852751D01*
X194320809Y-135737906D01*
X194340972Y-135610600D01*
X194320809Y-135483294D01*
X194262292Y-135368449D01*
X194171151Y-135277308D01*
X194171150Y-135277307D01*
X194056306Y-135218791D01*
X194056303Y-135218790D01*
X193929003Y-135198628D01*
X193928997Y-135198628D01*
X193801696Y-135218790D01*
X193801693Y-135218791D01*
X193686849Y-135277307D01*
X193595707Y-135368449D01*
X193537191Y-135483293D01*
X193537190Y-135483296D01*
X193517028Y-135610597D01*
X176556948Y-135610597D01*
X176540809Y-135508696D01*
X176540809Y-135508694D01*
X176482292Y-135393849D01*
X176391151Y-135302708D01*
X176391150Y-135302707D01*
X176276306Y-135244191D01*
X176276303Y-135244190D01*
X176149003Y-135224028D01*
X176148997Y-135224028D01*
X176021696Y-135244190D01*
X176021693Y-135244191D01*
X175906849Y-135302707D01*
X175815707Y-135393849D01*
X175757191Y-135508693D01*
X175757190Y-135508696D01*
X175737028Y-135635997D01*
X166990170Y-135635997D01*
X166946685Y-135487899D01*
X166926037Y-135417578D01*
X166922986Y-135403553D01*
X166917939Y-135368449D01*
X166884242Y-135134080D01*
X166883235Y-135121579D01*
X166880816Y-134985897D01*
X166880800Y-134984105D01*
X166880800Y-133866714D01*
X183383700Y-133866714D01*
X183383700Y-134103285D01*
X183420706Y-134336925D01*
X183420709Y-134336939D01*
X183493807Y-134561913D01*
X183601200Y-134772682D01*
X183601205Y-134772691D01*
X183670728Y-134868382D01*
X183740250Y-134964071D01*
X183740252Y-134964073D01*
X183907527Y-135131348D01*
X184098909Y-135270395D01*
X184126340Y-135284372D01*
X184309686Y-135377792D01*
X184534660Y-135450890D01*
X184534662Y-135450890D01*
X184534670Y-135450893D01*
X184768314Y-135487899D01*
X184768316Y-135487900D01*
X184768319Y-135487900D01*
X185004884Y-135487900D01*
X185004884Y-135487899D01*
X185238530Y-135450893D01*
X185463513Y-135377792D01*
X185674291Y-135270395D01*
X185865673Y-135131348D01*
X186032948Y-134964073D01*
X186171995Y-134772691D01*
X186279392Y-134561913D01*
X186352493Y-134336930D01*
X186389500Y-134103281D01*
X186389500Y-133866719D01*
X186389500Y-133866715D01*
X186389499Y-133866714D01*
X186352493Y-133633070D01*
X186279392Y-133408087D01*
X186279392Y-133408086D01*
X186171999Y-133197317D01*
X186171995Y-133197309D01*
X186032948Y-133005927D01*
X185865673Y-132838652D01*
X185865671Y-132838650D01*
X185730018Y-132740093D01*
X185674291Y-132699605D01*
X185674285Y-132699602D01*
X185674282Y-132699600D01*
X185463513Y-132592207D01*
X185238539Y-132519109D01*
X185238525Y-132519106D01*
X185004885Y-132482100D01*
X185004881Y-132482100D01*
X184768319Y-132482100D01*
X184768315Y-132482100D01*
X184534674Y-132519106D01*
X184534660Y-132519109D01*
X184309686Y-132592207D01*
X184098917Y-132699600D01*
X184098906Y-132699607D01*
X183907528Y-132838650D01*
X183740250Y-133005928D01*
X183601207Y-133197306D01*
X183601200Y-133197317D01*
X183493807Y-133408086D01*
X183420709Y-133633060D01*
X183420706Y-133633074D01*
X183383700Y-133866714D01*
X166880800Y-133866714D01*
X166880800Y-132867397D01*
X174136828Y-132867397D01*
X174136828Y-132867402D01*
X174156990Y-132994703D01*
X174156991Y-132994706D01*
X174215508Y-133109551D01*
X174306649Y-133200692D01*
X174421494Y-133259209D01*
X174472416Y-133267274D01*
X174548797Y-133279372D01*
X174548800Y-133279372D01*
X174548803Y-133279372D01*
X174612453Y-133269290D01*
X174676106Y-133259209D01*
X174790951Y-133200692D01*
X174882092Y-133109551D01*
X174940609Y-132994706D01*
X174960772Y-132867400D01*
X174940609Y-132740094D01*
X174882092Y-132625249D01*
X174852476Y-132595633D01*
X174824251Y-132540239D01*
X174833976Y-132478830D01*
X174852474Y-132453368D01*
X174932892Y-132372951D01*
X174991409Y-132258106D01*
X175011572Y-132130800D01*
X174991409Y-132003494D01*
X174932892Y-131888649D01*
X174841751Y-131797508D01*
X174841750Y-131797507D01*
X174726906Y-131738991D01*
X174726903Y-131738990D01*
X174599603Y-131718828D01*
X174599597Y-131718828D01*
X174472296Y-131738990D01*
X174472293Y-131738991D01*
X174357449Y-131797507D01*
X174266307Y-131888649D01*
X174207791Y-132003493D01*
X174207790Y-132003496D01*
X174187628Y-132130797D01*
X174187628Y-132130802D01*
X174207790Y-132258103D01*
X174207791Y-132258106D01*
X174266307Y-132372950D01*
X174295922Y-132402565D01*
X174324148Y-132457963D01*
X174314422Y-132519371D01*
X174295922Y-132544835D01*
X174215507Y-132625249D01*
X174156991Y-132740093D01*
X174156990Y-132740096D01*
X174136828Y-132867397D01*
X166880800Y-132867397D01*
X166880800Y-131648197D01*
X194685428Y-131648197D01*
X194685428Y-131648202D01*
X194705590Y-131775503D01*
X194705591Y-131775506D01*
X194763240Y-131888649D01*
X194764108Y-131890351D01*
X194855249Y-131981492D01*
X194970094Y-132040009D01*
X195021016Y-132048074D01*
X195097397Y-132060172D01*
X195097400Y-132060172D01*
X195097403Y-132060172D01*
X195161053Y-132050090D01*
X195224706Y-132040009D01*
X195339551Y-131981492D01*
X195430692Y-131890351D01*
X195489209Y-131775506D01*
X195509372Y-131648200D01*
X195489209Y-131520894D01*
X195430692Y-131406049D01*
X195339551Y-131314908D01*
X195339550Y-131314907D01*
X195224706Y-131256391D01*
X195224703Y-131256390D01*
X195097403Y-131236228D01*
X195097397Y-131236228D01*
X194970096Y-131256390D01*
X194970093Y-131256391D01*
X194855249Y-131314907D01*
X194764107Y-131406049D01*
X194705591Y-131520893D01*
X194705590Y-131520896D01*
X194685428Y-131648197D01*
X166880800Y-131648197D01*
X166880800Y-131063997D01*
X183763428Y-131063997D01*
X183763428Y-131064002D01*
X183783590Y-131191303D01*
X183783591Y-131191306D01*
X183816753Y-131256391D01*
X183842108Y-131306151D01*
X183933249Y-131397292D01*
X184048094Y-131455809D01*
X184099016Y-131463874D01*
X184175397Y-131475972D01*
X184175400Y-131475972D01*
X184175403Y-131475972D01*
X184239053Y-131465890D01*
X184302706Y-131455809D01*
X184417551Y-131397292D01*
X184508692Y-131306151D01*
X184567209Y-131191306D01*
X184587372Y-131064000D01*
X184567209Y-130936694D01*
X184508692Y-130821849D01*
X184508691Y-130821847D01*
X184504039Y-130815444D01*
X184505580Y-130814324D01*
X184481939Y-130767924D01*
X184480700Y-130752187D01*
X184480700Y-130479797D01*
X193771028Y-130479797D01*
X193771028Y-130479802D01*
X193791190Y-130607103D01*
X193791191Y-130607106D01*
X193849708Y-130721951D01*
X193940849Y-130813092D01*
X194055694Y-130871609D01*
X194106616Y-130879674D01*
X194182997Y-130891772D01*
X194183000Y-130891772D01*
X194183003Y-130891772D01*
X194246653Y-130881690D01*
X194310306Y-130871609D01*
X194425151Y-130813092D01*
X194516292Y-130721951D01*
X194574809Y-130607106D01*
X194594972Y-130479800D01*
X194574809Y-130352494D01*
X194516292Y-130237649D01*
X194425151Y-130146508D01*
X194425150Y-130146507D01*
X194310306Y-130087991D01*
X194310303Y-130087990D01*
X194183003Y-130067828D01*
X194182997Y-130067828D01*
X194055696Y-130087990D01*
X194055693Y-130087991D01*
X193940849Y-130146507D01*
X193849707Y-130237649D01*
X193791191Y-130352493D01*
X193791190Y-130352496D01*
X193771028Y-130479797D01*
X184480700Y-130479797D01*
X184480700Y-128539729D01*
X184499913Y-128480598D01*
X184510165Y-128468594D01*
X185110595Y-127868165D01*
X185165993Y-127839939D01*
X185181730Y-127838700D01*
X196004787Y-127838700D01*
X196063918Y-127857913D01*
X196072767Y-127865471D01*
X196074447Y-127866691D01*
X196074449Y-127866692D01*
X196189294Y-127925209D01*
X196240216Y-127933274D01*
X196316597Y-127945372D01*
X196316600Y-127945372D01*
X196316603Y-127945372D01*
X196380253Y-127935290D01*
X196443906Y-127925209D01*
X196558751Y-127866692D01*
X196649892Y-127775551D01*
X196708409Y-127660706D01*
X196728572Y-127533400D01*
X196708409Y-127406094D01*
X196649892Y-127291249D01*
X196558751Y-127200108D01*
X196558750Y-127200107D01*
X196443906Y-127141591D01*
X196443903Y-127141590D01*
X196316603Y-127121428D01*
X196316597Y-127121428D01*
X196189296Y-127141590D01*
X196189293Y-127141591D01*
X196074447Y-127200108D01*
X196068044Y-127204761D01*
X196066924Y-127203219D01*
X196020524Y-127226861D01*
X196004787Y-127228100D01*
X184973402Y-127228100D01*
X184895765Y-127248903D01*
X184895756Y-127248907D01*
X184826143Y-127289096D01*
X184826142Y-127289097D01*
X183931100Y-128184141D01*
X183931098Y-128184143D01*
X183895963Y-128245000D01*
X183895962Y-128245001D01*
X183890907Y-128253754D01*
X183870100Y-128331404D01*
X183870100Y-130752187D01*
X183850887Y-130811318D01*
X183843328Y-130820167D01*
X183842108Y-130821847D01*
X183783591Y-130936693D01*
X183783590Y-130936696D01*
X183763428Y-131063997D01*
X166880800Y-131063997D01*
X166880800Y-128345600D01*
X166900013Y-128286469D01*
X166950313Y-128249924D01*
X166981400Y-128245000D01*
X171902800Y-128245000D01*
X171902800Y-124336295D01*
X179989100Y-124336295D01*
X179989100Y-125164905D01*
X180014191Y-125291044D01*
X180063408Y-125409864D01*
X180099375Y-125463692D01*
X180134858Y-125516797D01*
X180134860Y-125516799D01*
X180225801Y-125607740D01*
X180332736Y-125679192D01*
X180451556Y-125728409D01*
X180577695Y-125753500D01*
X180577696Y-125753500D01*
X180706304Y-125753500D01*
X180706305Y-125753500D01*
X180832444Y-125728409D01*
X180951264Y-125679192D01*
X181058199Y-125607740D01*
X181149140Y-125516799D01*
X181220592Y-125409864D01*
X181269809Y-125291044D01*
X181294900Y-125164905D01*
X181294900Y-124336295D01*
X188529100Y-124336295D01*
X188529100Y-125164905D01*
X188554191Y-125291044D01*
X188603408Y-125409864D01*
X188639375Y-125463692D01*
X188674858Y-125516797D01*
X188674860Y-125516799D01*
X188765801Y-125607740D01*
X188872736Y-125679192D01*
X188991556Y-125728409D01*
X189117695Y-125753500D01*
X189117696Y-125753500D01*
X189246304Y-125753500D01*
X189246305Y-125753500D01*
X189372444Y-125728409D01*
X189491264Y-125679192D01*
X189598199Y-125607740D01*
X189689140Y-125516799D01*
X189760592Y-125409864D01*
X189809809Y-125291044D01*
X189834900Y-125164905D01*
X189834900Y-124336295D01*
X189809809Y-124210156D01*
X189760592Y-124091336D01*
X189689140Y-123984401D01*
X189598199Y-123893460D01*
X189598197Y-123893458D01*
X189545092Y-123857975D01*
X189491264Y-123822008D01*
X189491261Y-123822006D01*
X189491260Y-123822006D01*
X189372445Y-123772791D01*
X189309374Y-123760245D01*
X189246305Y-123747700D01*
X189117695Y-123747700D01*
X189075648Y-123756063D01*
X188991554Y-123772791D01*
X188872739Y-123822006D01*
X188765802Y-123893458D01*
X188765801Y-123893460D01*
X188674860Y-123984401D01*
X188674858Y-123984402D01*
X188603406Y-124091339D01*
X188554191Y-124210154D01*
X188554191Y-124210156D01*
X188529100Y-124336295D01*
X181294900Y-124336295D01*
X181269809Y-124210156D01*
X181220592Y-124091336D01*
X181149140Y-123984401D01*
X181058199Y-123893460D01*
X181058197Y-123893458D01*
X181005092Y-123857975D01*
X180951264Y-123822008D01*
X180951261Y-123822006D01*
X180951260Y-123822006D01*
X180832445Y-123772791D01*
X180769374Y-123760245D01*
X180706305Y-123747700D01*
X180577695Y-123747700D01*
X180535648Y-123756063D01*
X180451554Y-123772791D01*
X180332739Y-123822006D01*
X180225802Y-123893458D01*
X180225801Y-123893460D01*
X180134860Y-123984401D01*
X180134858Y-123984402D01*
X180063406Y-124091339D01*
X180014191Y-124210154D01*
X180014191Y-124210156D01*
X179989100Y-124336295D01*
X171902800Y-124336295D01*
X171902800Y-121894597D01*
X177718228Y-121894597D01*
X177718228Y-121894602D01*
X177738390Y-122021903D01*
X177738391Y-122021906D01*
X177796908Y-122136751D01*
X177888049Y-122227892D01*
X178002894Y-122286409D01*
X178053816Y-122294474D01*
X178130197Y-122306572D01*
X178130200Y-122306572D01*
X178130203Y-122306572D01*
X178193853Y-122296490D01*
X178257506Y-122286409D01*
X178372351Y-122227892D01*
X178463492Y-122136751D01*
X178522009Y-122021906D01*
X178542172Y-121894600D01*
X178522009Y-121767294D01*
X178463492Y-121652449D01*
X178372351Y-121561308D01*
X178372350Y-121561307D01*
X178257506Y-121502791D01*
X178257503Y-121502790D01*
X178130203Y-121482628D01*
X178130197Y-121482628D01*
X178002896Y-121502790D01*
X178002893Y-121502791D01*
X177888049Y-121561307D01*
X177796907Y-121652449D01*
X177738391Y-121767293D01*
X177738390Y-121767296D01*
X177718228Y-121894597D01*
X171902800Y-121894597D01*
X171902800Y-119786397D01*
X175965628Y-119786397D01*
X175965628Y-119786402D01*
X175985790Y-119913703D01*
X175985791Y-119913706D01*
X176044308Y-120028551D01*
X176135449Y-120119692D01*
X176250294Y-120178209D01*
X176301216Y-120186274D01*
X176377597Y-120198372D01*
X176377600Y-120198372D01*
X176377603Y-120198372D01*
X176441253Y-120188290D01*
X176504906Y-120178209D01*
X176619751Y-120119692D01*
X176710892Y-120028551D01*
X176769409Y-119913706D01*
X176789572Y-119786400D01*
X176769409Y-119659094D01*
X176710892Y-119544249D01*
X176619751Y-119453108D01*
X176619750Y-119453107D01*
X176504906Y-119394591D01*
X176504903Y-119394590D01*
X176377603Y-119374428D01*
X176377597Y-119374428D01*
X176250296Y-119394590D01*
X176250293Y-119394591D01*
X176135449Y-119453107D01*
X176044307Y-119544249D01*
X175985791Y-119659093D01*
X175985790Y-119659096D01*
X175965628Y-119786397D01*
X171902800Y-119786397D01*
X171902800Y-117017797D01*
X177210228Y-117017797D01*
X177210228Y-117017802D01*
X177230390Y-117145103D01*
X177230391Y-117145106D01*
X177288908Y-117259951D01*
X177380049Y-117351092D01*
X177494894Y-117409609D01*
X177545816Y-117417674D01*
X177622197Y-117429772D01*
X177622200Y-117429772D01*
X177622203Y-117429772D01*
X177685853Y-117419690D01*
X177749506Y-117409609D01*
X177864351Y-117351092D01*
X177955492Y-117259951D01*
X178014009Y-117145106D01*
X178034172Y-117017800D01*
X178014009Y-116890494D01*
X177955492Y-116775649D01*
X177864351Y-116684508D01*
X177864350Y-116684507D01*
X177749506Y-116625991D01*
X177749503Y-116625990D01*
X177622203Y-116605828D01*
X177622197Y-116605828D01*
X177494896Y-116625990D01*
X177494893Y-116625991D01*
X177380049Y-116684507D01*
X177288907Y-116775649D01*
X177230391Y-116890493D01*
X177230390Y-116890496D01*
X177210228Y-117017797D01*
X171902800Y-117017797D01*
X171902800Y-115908495D01*
X200083300Y-115908495D01*
X200083300Y-116037105D01*
X200108391Y-116163244D01*
X200157608Y-116282064D01*
X200193575Y-116335892D01*
X200229058Y-116388997D01*
X200229060Y-116388999D01*
X200320001Y-116479940D01*
X200426936Y-116551392D01*
X200545756Y-116600609D01*
X200671895Y-116625700D01*
X200671896Y-116625700D01*
X200800504Y-116625700D01*
X200800505Y-116625700D01*
X200926644Y-116600609D01*
X201045464Y-116551392D01*
X201152399Y-116479940D01*
X201243340Y-116388999D01*
X201314792Y-116282064D01*
X201364009Y-116163244D01*
X201389100Y-116037105D01*
X201389100Y-115908495D01*
X201364009Y-115782356D01*
X201314792Y-115663536D01*
X201243340Y-115556601D01*
X201152399Y-115465660D01*
X201152397Y-115465658D01*
X201096648Y-115428408D01*
X201045464Y-115394208D01*
X201045461Y-115394206D01*
X201045460Y-115394206D01*
X200926645Y-115344991D01*
X200863574Y-115332445D01*
X200800505Y-115319900D01*
X200671895Y-115319900D01*
X200629848Y-115328263D01*
X200545754Y-115344991D01*
X200426939Y-115394206D01*
X200320002Y-115465658D01*
X200320001Y-115465660D01*
X200229060Y-115556601D01*
X200229058Y-115556602D01*
X200157606Y-115663539D01*
X200108391Y-115782354D01*
X200108391Y-115782356D01*
X200083300Y-115908495D01*
X171902800Y-115908495D01*
X171902800Y-114198397D01*
X176956228Y-114198397D01*
X176956228Y-114198402D01*
X176976390Y-114325703D01*
X176976391Y-114325706D01*
X177004064Y-114380018D01*
X177034908Y-114440551D01*
X177126049Y-114531692D01*
X177240894Y-114590209D01*
X177291816Y-114598274D01*
X177368197Y-114610372D01*
X177368200Y-114610372D01*
X177368203Y-114610372D01*
X177431853Y-114600290D01*
X177495506Y-114590209D01*
X177569092Y-114552714D01*
X177630498Y-114542988D01*
X177685896Y-114571214D01*
X177783768Y-114669086D01*
X177811994Y-114724484D01*
X177806697Y-114775892D01*
X177796416Y-114803001D01*
X177792725Y-114833400D01*
X177777305Y-114960400D01*
X177796416Y-115117797D01*
X177852640Y-115266046D01*
X177942708Y-115396532D01*
X178061387Y-115501672D01*
X178201778Y-115575356D01*
X178355724Y-115613300D01*
X178355728Y-115613300D01*
X178514272Y-115613300D01*
X178514276Y-115613300D01*
X178668222Y-115575356D01*
X178808613Y-115501672D01*
X178927292Y-115396532D01*
X179017360Y-115266046D01*
X179073584Y-115117797D01*
X179092695Y-114960400D01*
X179077274Y-114833397D01*
X180436028Y-114833397D01*
X180436028Y-114833402D01*
X180456190Y-114960703D01*
X180456191Y-114960706D01*
X180505791Y-115058052D01*
X180514708Y-115075551D01*
X180605849Y-115166692D01*
X180720694Y-115225209D01*
X180771616Y-115233274D01*
X180847997Y-115245372D01*
X180848000Y-115245372D01*
X180848003Y-115245372D01*
X180911653Y-115235290D01*
X180975306Y-115225209D01*
X181090151Y-115166692D01*
X181170565Y-115086278D01*
X181225963Y-115058052D01*
X181287371Y-115067778D01*
X181312835Y-115086278D01*
X181393249Y-115166692D01*
X181508094Y-115225209D01*
X181559016Y-115233274D01*
X181635397Y-115245372D01*
X181635400Y-115245372D01*
X181635403Y-115245372D01*
X181699053Y-115235290D01*
X181762706Y-115225209D01*
X181877551Y-115166692D01*
X181968692Y-115075551D01*
X182027209Y-114960706D01*
X182047372Y-114833400D01*
X182042557Y-114803001D01*
X182035274Y-114757016D01*
X182027209Y-114706094D01*
X181968692Y-114591249D01*
X181919365Y-114541922D01*
X181891139Y-114486524D01*
X181889900Y-114470787D01*
X181889900Y-114137181D01*
X181909113Y-114078050D01*
X181919365Y-114066046D01*
X182112646Y-113872765D01*
X182168044Y-113844539D01*
X182183781Y-113843300D01*
X184205152Y-113843300D01*
X184264283Y-113862513D01*
X184300828Y-113912813D01*
X184300828Y-113974987D01*
X184294787Y-113989572D01*
X184266190Y-114045693D01*
X184266190Y-114045696D01*
X184246028Y-114172997D01*
X184246028Y-114173002D01*
X184266190Y-114300303D01*
X184266191Y-114300306D01*
X184306806Y-114380018D01*
X184324708Y-114415151D01*
X184415849Y-114506292D01*
X184420558Y-114508691D01*
X184464523Y-114552653D01*
X184474252Y-114614061D01*
X184446028Y-114669460D01*
X184420564Y-114687962D01*
X184390449Y-114703307D01*
X184299307Y-114794449D01*
X184240791Y-114909293D01*
X184240790Y-114909296D01*
X184220628Y-115036597D01*
X184220628Y-115036602D01*
X184240790Y-115163903D01*
X184240791Y-115163906D01*
X184272026Y-115225209D01*
X184299308Y-115278751D01*
X184390449Y-115369892D01*
X184505294Y-115428409D01*
X184556216Y-115436474D01*
X184632597Y-115448572D01*
X184632600Y-115448572D01*
X184632603Y-115448572D01*
X184696253Y-115438490D01*
X184759906Y-115428409D01*
X184874751Y-115369892D01*
X184965892Y-115278751D01*
X185024409Y-115163906D01*
X185039634Y-115067778D01*
X185044572Y-115036602D01*
X185044572Y-115036597D01*
X185024409Y-114909296D01*
X185024409Y-114909294D01*
X184965892Y-114794449D01*
X184874751Y-114703308D01*
X184870037Y-114700906D01*
X184826074Y-114656943D01*
X184816347Y-114595534D01*
X184844574Y-114540137D01*
X184870038Y-114521636D01*
X184900149Y-114506293D01*
X184900148Y-114506293D01*
X184900151Y-114506292D01*
X184991292Y-114415151D01*
X185049809Y-114300306D01*
X185069972Y-114173000D01*
X185049809Y-114045694D01*
X184991292Y-113930849D01*
X184900151Y-113839708D01*
X184881458Y-113830183D01*
X184837496Y-113786221D01*
X184827769Y-113724812D01*
X184855996Y-113669415D01*
X184855996Y-113669414D01*
X186385399Y-112140010D01*
X186440797Y-112111785D01*
X186502205Y-112121511D01*
X186546169Y-112165475D01*
X186555895Y-112226883D01*
X186552212Y-112242228D01*
X186552190Y-112242294D01*
X186532028Y-112369597D01*
X186532028Y-112369602D01*
X186552190Y-112496903D01*
X186552191Y-112496906D01*
X186610708Y-112611751D01*
X186701849Y-112702892D01*
X186816694Y-112761409D01*
X186867616Y-112769474D01*
X186943997Y-112781572D01*
X186944000Y-112781572D01*
X186944003Y-112781572D01*
X187007653Y-112771490D01*
X187071306Y-112761409D01*
X187186151Y-112702892D01*
X187189246Y-112699797D01*
X188284628Y-112699797D01*
X188284628Y-112699802D01*
X188304790Y-112827103D01*
X188304791Y-112827106D01*
X188363308Y-112941951D01*
X188454449Y-113033092D01*
X188569294Y-113091609D01*
X188620216Y-113099674D01*
X188696597Y-113111772D01*
X188696600Y-113111772D01*
X188696603Y-113111772D01*
X188760253Y-113101690D01*
X188823906Y-113091609D01*
X188938751Y-113033092D01*
X188938752Y-113033091D01*
X188945156Y-113028439D01*
X188946275Y-113029980D01*
X188992676Y-113006339D01*
X189008413Y-113005100D01*
X194497471Y-113005100D01*
X194556602Y-113024313D01*
X194568606Y-113034565D01*
X195148638Y-113614598D01*
X195176864Y-113669995D01*
X195188190Y-113741505D01*
X195238228Y-113839708D01*
X195246708Y-113856351D01*
X195337849Y-113947492D01*
X195452694Y-114006009D01*
X195503616Y-114014074D01*
X195579997Y-114026172D01*
X195580000Y-114026172D01*
X195580003Y-114026172D01*
X195643653Y-114016090D01*
X195707306Y-114006009D01*
X195822151Y-113947492D01*
X195913292Y-113856351D01*
X195971809Y-113741506D01*
X195991972Y-113614200D01*
X195971809Y-113486894D01*
X195913292Y-113372049D01*
X195822151Y-113280908D01*
X195822150Y-113280907D01*
X195707305Y-113222390D01*
X195635795Y-113211064D01*
X195580398Y-113182838D01*
X195402660Y-113005100D01*
X194853059Y-112455500D01*
X194818250Y-112435403D01*
X194783442Y-112415306D01*
X194705795Y-112394500D01*
X194705793Y-112394500D01*
X189008413Y-112394500D01*
X188949282Y-112375287D01*
X188940432Y-112367728D01*
X188938752Y-112366508D01*
X188823906Y-112307991D01*
X188823903Y-112307990D01*
X188696603Y-112287828D01*
X188696597Y-112287828D01*
X188569296Y-112307990D01*
X188569293Y-112307991D01*
X188454449Y-112366507D01*
X188363307Y-112457649D01*
X188304791Y-112572493D01*
X188304790Y-112572496D01*
X188284628Y-112699797D01*
X187189246Y-112699797D01*
X187277292Y-112611751D01*
X187335809Y-112496906D01*
X187352028Y-112394500D01*
X187355972Y-112369602D01*
X187355972Y-112369597D01*
X187335809Y-112242296D01*
X187335809Y-112242294D01*
X187277292Y-112127449D01*
X187186151Y-112036308D01*
X187186150Y-112036307D01*
X187071306Y-111977791D01*
X187071303Y-111977790D01*
X186944003Y-111957628D01*
X186943997Y-111957628D01*
X186816690Y-111977790D01*
X186816623Y-111977813D01*
X186816551Y-111977812D01*
X186808874Y-111979029D01*
X186808681Y-111977812D01*
X186754449Y-111977807D01*
X186704152Y-111941258D01*
X186684945Y-111882125D01*
X186704163Y-111822995D01*
X186714402Y-111811007D01*
X187277212Y-111248197D01*
X187277215Y-111248196D01*
X187291362Y-111234049D01*
X187291363Y-111234049D01*
X187362955Y-111162457D01*
X187390351Y-111096314D01*
X187401700Y-111068918D01*
X187401700Y-110967671D01*
X187401700Y-106146597D01*
X193618628Y-106146597D01*
X193618628Y-106146602D01*
X193638790Y-106273903D01*
X193638791Y-106273906D01*
X193697308Y-106388752D01*
X193701961Y-106395156D01*
X193700419Y-106396275D01*
X193724061Y-106442676D01*
X193725300Y-106458413D01*
X193725300Y-109082395D01*
X193746106Y-109160042D01*
X193755516Y-109176340D01*
X193786300Y-109229659D01*
X193786302Y-109229661D01*
X194859140Y-110302499D01*
X194859139Y-110302499D01*
X194859141Y-110302500D01*
X194920802Y-110338100D01*
X194928759Y-110342694D01*
X195006407Y-110363500D01*
X195699987Y-110363500D01*
X195759118Y-110382713D01*
X195767967Y-110390271D01*
X195769647Y-110391491D01*
X195769649Y-110391492D01*
X195884494Y-110450009D01*
X195935416Y-110458074D01*
X196011797Y-110470172D01*
X196011800Y-110470172D01*
X196011803Y-110470172D01*
X196075453Y-110460090D01*
X196139106Y-110450009D01*
X196253951Y-110391492D01*
X196345092Y-110300351D01*
X196403609Y-110185506D01*
X196423772Y-110058200D01*
X196417763Y-110020262D01*
X196403609Y-109930896D01*
X196403609Y-109930894D01*
X196345092Y-109816049D01*
X196253951Y-109724908D01*
X196253950Y-109724907D01*
X196139106Y-109666391D01*
X196139103Y-109666390D01*
X196011803Y-109646228D01*
X196011797Y-109646228D01*
X195884496Y-109666390D01*
X195884493Y-109666391D01*
X195769647Y-109724908D01*
X195763244Y-109729561D01*
X195762124Y-109728019D01*
X195715724Y-109751661D01*
X195699987Y-109752900D01*
X195214729Y-109752900D01*
X195155598Y-109733687D01*
X195143594Y-109723435D01*
X194528654Y-109108495D01*
X200083300Y-109108495D01*
X200083300Y-109237105D01*
X200095845Y-109300174D01*
X200108391Y-109363245D01*
X200157606Y-109482060D01*
X200157608Y-109482064D01*
X200193575Y-109535892D01*
X200229058Y-109588997D01*
X200320002Y-109679941D01*
X200336251Y-109690798D01*
X200426936Y-109751392D01*
X200545756Y-109800609D01*
X200671895Y-109825700D01*
X200671896Y-109825700D01*
X200800504Y-109825700D01*
X200800505Y-109825700D01*
X200926644Y-109800609D01*
X201045464Y-109751392D01*
X201152399Y-109679940D01*
X201243340Y-109588999D01*
X201314792Y-109482064D01*
X201364009Y-109363244D01*
X201389100Y-109237105D01*
X201389100Y-109108495D01*
X201364009Y-108982356D01*
X201314792Y-108863536D01*
X201251205Y-108768372D01*
X201243341Y-108756602D01*
X201152397Y-108665658D01*
X201099292Y-108630175D01*
X201045464Y-108594208D01*
X201045461Y-108594206D01*
X201045460Y-108594206D01*
X200926645Y-108544991D01*
X200863574Y-108532445D01*
X200800505Y-108519900D01*
X200671895Y-108519900D01*
X200629848Y-108528263D01*
X200545754Y-108544991D01*
X200426939Y-108594206D01*
X200320002Y-108665658D01*
X200320001Y-108665660D01*
X200229060Y-108756601D01*
X200229058Y-108756602D01*
X200157606Y-108863539D01*
X200108391Y-108982354D01*
X200091495Y-109067296D01*
X200083300Y-109108495D01*
X194528654Y-109108495D01*
X194365365Y-108945206D01*
X194337139Y-108889808D01*
X194335900Y-108874071D01*
X194335900Y-106458413D01*
X194355113Y-106399282D01*
X194362671Y-106390432D01*
X194363891Y-106388752D01*
X194363892Y-106388751D01*
X194422409Y-106273906D01*
X194442572Y-106146600D01*
X194422409Y-106019294D01*
X194363892Y-105904449D01*
X194272751Y-105813308D01*
X194272750Y-105813307D01*
X194157906Y-105754791D01*
X194157903Y-105754790D01*
X194030603Y-105734628D01*
X194030597Y-105734628D01*
X193903296Y-105754790D01*
X193903293Y-105754791D01*
X193788449Y-105813307D01*
X193697307Y-105904449D01*
X193638791Y-106019293D01*
X193638790Y-106019296D01*
X193618628Y-106146597D01*
X187401700Y-106146597D01*
X187401700Y-103419222D01*
X191242000Y-103419222D01*
X191242000Y-103569200D01*
X192336670Y-103569200D01*
X192316925Y-103588945D01*
X192267556Y-103674455D01*
X192242000Y-103769830D01*
X192242000Y-103868570D01*
X192267556Y-103963945D01*
X192316925Y-104049455D01*
X192336670Y-104069200D01*
X191242001Y-104069200D01*
X191242001Y-104219176D01*
X191252493Y-104321893D01*
X191307641Y-104488321D01*
X191399684Y-104637544D01*
X191399685Y-104637546D01*
X191523653Y-104761514D01*
X191523655Y-104761515D01*
X191672878Y-104853558D01*
X191839306Y-104908706D01*
X191942022Y-104919199D01*
X192367000Y-104919199D01*
X192367000Y-104099530D01*
X192386745Y-104119275D01*
X192472255Y-104168644D01*
X192567630Y-104194200D01*
X192666370Y-104194200D01*
X192761745Y-104168644D01*
X192847255Y-104119275D01*
X192867000Y-104099530D01*
X192867000Y-104919199D01*
X193291976Y-104919199D01*
X193394693Y-104908706D01*
X193561121Y-104853558D01*
X193710344Y-104761515D01*
X193710346Y-104761514D01*
X193834314Y-104637546D01*
X193834315Y-104637544D01*
X193926358Y-104488321D01*
X193981506Y-104321893D01*
X193992000Y-104219177D01*
X193992000Y-104069200D01*
X192897330Y-104069200D01*
X192917075Y-104049455D01*
X192966444Y-103963945D01*
X192992000Y-103868570D01*
X192992000Y-103769830D01*
X192966444Y-103674455D01*
X192917075Y-103588945D01*
X192897330Y-103569200D01*
X193991999Y-103569200D01*
X193991999Y-103419223D01*
X193981506Y-103316506D01*
X193926358Y-103150078D01*
X193834315Y-103000855D01*
X193834314Y-103000853D01*
X193710346Y-102876885D01*
X193710344Y-102876884D01*
X193561121Y-102784841D01*
X193394693Y-102729693D01*
X193291977Y-102719200D01*
X193192380Y-102719200D01*
X193133249Y-102699987D01*
X193096704Y-102649687D01*
X193096704Y-102587513D01*
X193133249Y-102537213D01*
X193153879Y-102525659D01*
X193248632Y-102486411D01*
X193371946Y-102404016D01*
X193476816Y-102299146D01*
X193559211Y-102175832D01*
X193615967Y-102038813D01*
X193644900Y-101893354D01*
X193644900Y-101745046D01*
X193615967Y-101599587D01*
X193559211Y-101462568D01*
X193476816Y-101339254D01*
X193371946Y-101234384D01*
X193291383Y-101180554D01*
X193248636Y-101151991D01*
X193248628Y-101151987D01*
X193201614Y-101132513D01*
X193111613Y-101095233D01*
X193111609Y-101095232D01*
X193111612Y-101095232D01*
X192995086Y-101072054D01*
X192966154Y-101066300D01*
X192267846Y-101066300D01*
X192238914Y-101072054D01*
X192122388Y-101095232D01*
X191985371Y-101151987D01*
X191985363Y-101151991D01*
X191886515Y-101218039D01*
X191862054Y-101234384D01*
X191862053Y-101234385D01*
X191862052Y-101234385D01*
X191757185Y-101339252D01*
X191757185Y-101339253D01*
X191674791Y-101462563D01*
X191674787Y-101462571D01*
X191618032Y-101599588D01*
X191589100Y-101745046D01*
X191589100Y-101893353D01*
X191618032Y-102038811D01*
X191674787Y-102175828D01*
X191674791Y-102175836D01*
X191707926Y-102225426D01*
X191757184Y-102299146D01*
X191862054Y-102404016D01*
X191943520Y-102458449D01*
X191985363Y-102486408D01*
X191985365Y-102486409D01*
X191985368Y-102486411D01*
X192080120Y-102525659D01*
X192127396Y-102566036D01*
X192141911Y-102626493D01*
X192118118Y-102683934D01*
X192065106Y-102716420D01*
X192041622Y-102719200D01*
X191942023Y-102719200D01*
X191839306Y-102729693D01*
X191672878Y-102784841D01*
X191523655Y-102876884D01*
X191523653Y-102876885D01*
X191399685Y-103000853D01*
X191399684Y-103000855D01*
X191307641Y-103150078D01*
X191252493Y-103316506D01*
X191242000Y-103419222D01*
X187401700Y-103419222D01*
X187401700Y-103265982D01*
X187420913Y-103206851D01*
X187431165Y-103194847D01*
X188326866Y-102299146D01*
X189242555Y-101383457D01*
X189281301Y-101289917D01*
X189281301Y-101188671D01*
X189281301Y-101180568D01*
X189281300Y-101180554D01*
X189281300Y-98069397D01*
X190189628Y-98069397D01*
X190189628Y-98069402D01*
X190209790Y-98196703D01*
X190209791Y-98196706D01*
X190258561Y-98292423D01*
X190268308Y-98311551D01*
X190359449Y-98402692D01*
X190474294Y-98461209D01*
X190525216Y-98469274D01*
X190601597Y-98481372D01*
X190601600Y-98481372D01*
X190601603Y-98481372D01*
X190665253Y-98471290D01*
X190728906Y-98461209D01*
X190843751Y-98402692D01*
X190934892Y-98311551D01*
X190993409Y-98196706D01*
X191005527Y-98120197D01*
X197428628Y-98120197D01*
X197428628Y-98120202D01*
X197448790Y-98247503D01*
X197448791Y-98247506D01*
X197504587Y-98357012D01*
X197507308Y-98362351D01*
X197598449Y-98453492D01*
X197713294Y-98512009D01*
X197764216Y-98520074D01*
X197840597Y-98532172D01*
X197840600Y-98532172D01*
X197840603Y-98532172D01*
X197904253Y-98522090D01*
X197967906Y-98512009D01*
X198082751Y-98453492D01*
X198173892Y-98362351D01*
X198232409Y-98247506D01*
X198252572Y-98120200D01*
X198232409Y-97992894D01*
X198173892Y-97878049D01*
X198082751Y-97786908D01*
X198082750Y-97786907D01*
X197967906Y-97728391D01*
X197967903Y-97728390D01*
X197840603Y-97708228D01*
X197840597Y-97708228D01*
X197713296Y-97728390D01*
X197713293Y-97728391D01*
X197598449Y-97786907D01*
X197507307Y-97878049D01*
X197448791Y-97992893D01*
X197448790Y-97992896D01*
X197428628Y-98120197D01*
X191005527Y-98120197D01*
X191013572Y-98069400D01*
X190993409Y-97942094D01*
X190934892Y-97827249D01*
X190843751Y-97736108D01*
X190843750Y-97736107D01*
X190728906Y-97677591D01*
X190728903Y-97677590D01*
X190601603Y-97657428D01*
X190601597Y-97657428D01*
X190474296Y-97677590D01*
X190474293Y-97677591D01*
X190359449Y-97736107D01*
X190268307Y-97827249D01*
X190209791Y-97942093D01*
X190209790Y-97942096D01*
X190189628Y-98069397D01*
X189281300Y-98069397D01*
X189281300Y-95580377D01*
X189242555Y-95486837D01*
X189165232Y-95409514D01*
X189165225Y-95409508D01*
X188764562Y-95008844D01*
X188709767Y-94986148D01*
X188671023Y-94970100D01*
X188671022Y-94970100D01*
X188258899Y-94970100D01*
X188199768Y-94950887D01*
X188163223Y-94900587D01*
X188158299Y-94869500D01*
X188158299Y-94839544D01*
X188149428Y-94794942D01*
X188149426Y-94794938D01*
X188115635Y-94744367D01*
X188115633Y-94744365D01*
X188065057Y-94710571D01*
X188029328Y-94703464D01*
X188020457Y-94701700D01*
X188020456Y-94701700D01*
X185590344Y-94701700D01*
X185545742Y-94710571D01*
X185545738Y-94710573D01*
X185495167Y-94744364D01*
X185495165Y-94744366D01*
X185461371Y-94794942D01*
X185452500Y-94839543D01*
X185452500Y-95609655D01*
X185461371Y-95654257D01*
X185461373Y-95654261D01*
X185495164Y-95704832D01*
X185495165Y-95704833D01*
X185495166Y-95704834D01*
X185545742Y-95738628D01*
X185590343Y-95747500D01*
X188020456Y-95747499D01*
X188065058Y-95738628D01*
X188115634Y-95704834D01*
X188149428Y-95654258D01*
X188158300Y-95609657D01*
X188158300Y-95579700D01*
X188177513Y-95520569D01*
X188227813Y-95484024D01*
X188258900Y-95479100D01*
X188473312Y-95479100D01*
X188532443Y-95498313D01*
X188544447Y-95508565D01*
X188742835Y-95706952D01*
X188771061Y-95762349D01*
X188772300Y-95778087D01*
X188772300Y-96323112D01*
X188753087Y-96382243D01*
X188702787Y-96418788D01*
X188640613Y-96418788D01*
X188600565Y-96394247D01*
X188485162Y-96278844D01*
X188430367Y-96256148D01*
X188391623Y-96240100D01*
X188391622Y-96240100D01*
X188258899Y-96240100D01*
X188199768Y-96220887D01*
X188163223Y-96170587D01*
X188158299Y-96139500D01*
X188158299Y-96109544D01*
X188149428Y-96064942D01*
X188149426Y-96064938D01*
X188115635Y-96014367D01*
X188115633Y-96014365D01*
X188065057Y-95980571D01*
X188029328Y-95973464D01*
X188020457Y-95971700D01*
X188020456Y-95971700D01*
X185590344Y-95971700D01*
X185545742Y-95980571D01*
X185545738Y-95980573D01*
X185495167Y-96014364D01*
X185495165Y-96014366D01*
X185461371Y-96064942D01*
X185452500Y-96109543D01*
X185452500Y-96848132D01*
X185433287Y-96907263D01*
X185387059Y-96942388D01*
X185363312Y-96951245D01*
X185248211Y-97037411D01*
X185162045Y-97152512D01*
X185162044Y-97152514D01*
X185111803Y-97287219D01*
X185111802Y-97287224D01*
X185105400Y-97346772D01*
X185105400Y-97514600D01*
X186954800Y-97514600D01*
X187013931Y-97533813D01*
X187050476Y-97584113D01*
X187055400Y-97615200D01*
X187055400Y-98634600D01*
X188053228Y-98634600D01*
X188112775Y-98628197D01*
X188112780Y-98628196D01*
X188247484Y-98577955D01*
X188255810Y-98571723D01*
X188314661Y-98551666D01*
X188374061Y-98570031D01*
X188411322Y-98619803D01*
X188416700Y-98652256D01*
X188416700Y-100944912D01*
X188397487Y-101004043D01*
X188387235Y-101016047D01*
X186575845Y-102827436D01*
X186575844Y-102827437D01*
X186537100Y-102920977D01*
X186537100Y-110723912D01*
X186517887Y-110783043D01*
X186507635Y-110795047D01*
X184353447Y-112949235D01*
X184298049Y-112977461D01*
X184282312Y-112978700D01*
X181940023Y-112978700D01*
X181838777Y-112978700D01*
X181811380Y-112990047D01*
X181745237Y-113017444D01*
X180632244Y-114130437D01*
X180593500Y-114223977D01*
X180593500Y-114470787D01*
X180574287Y-114529918D01*
X180564035Y-114541922D01*
X180514707Y-114591249D01*
X180456191Y-114706093D01*
X180456190Y-114706096D01*
X180436028Y-114833397D01*
X179077274Y-114833397D01*
X179073584Y-114803003D01*
X179017360Y-114654754D01*
X178927292Y-114524268D01*
X178808613Y-114419128D01*
X178668222Y-114345444D01*
X178514278Y-114307500D01*
X178514276Y-114307500D01*
X178355724Y-114307500D01*
X178355720Y-114307500D01*
X178355719Y-114307501D01*
X178239364Y-114336179D01*
X178177353Y-114331675D01*
X178144155Y-114309637D01*
X177817162Y-113982644D01*
X177723621Y-113943899D01*
X177713905Y-113941967D01*
X177714570Y-113938622D01*
X177671682Y-113924687D01*
X177659678Y-113914435D01*
X177610350Y-113865107D01*
X177495506Y-113806591D01*
X177495503Y-113806590D01*
X177368203Y-113786428D01*
X177368197Y-113786428D01*
X177240896Y-113806590D01*
X177240893Y-113806591D01*
X177126049Y-113865107D01*
X177034907Y-113956249D01*
X176976391Y-114071093D01*
X176976390Y-114071096D01*
X176956228Y-114198397D01*
X171902800Y-114198397D01*
X171902800Y-112653298D01*
X177115554Y-112653298D01*
X177116075Y-112653625D01*
X177276460Y-112709747D01*
X177445296Y-112728771D01*
X177445304Y-112728771D01*
X177614140Y-112709747D01*
X177774519Y-112653628D01*
X177775043Y-112653298D01*
X179090554Y-112653298D01*
X179091075Y-112653625D01*
X179251460Y-112709747D01*
X179420296Y-112728771D01*
X179420304Y-112728771D01*
X179589140Y-112709747D01*
X179749519Y-112653628D01*
X179750043Y-112653298D01*
X179750044Y-112653297D01*
X179420300Y-112323553D01*
X179090554Y-112653298D01*
X177775043Y-112653298D01*
X177775044Y-112653297D01*
X177445300Y-112323553D01*
X177115554Y-112653298D01*
X171902800Y-112653298D01*
X171902800Y-111665798D01*
X176128054Y-111665798D01*
X176128575Y-111666125D01*
X176288960Y-111722247D01*
X176457796Y-111741271D01*
X176457804Y-111741271D01*
X176590217Y-111726351D01*
X176651128Y-111738822D01*
X176693075Y-111784714D01*
X176701448Y-111837581D01*
X176686529Y-111969994D01*
X176686529Y-111970004D01*
X176705552Y-112138843D01*
X176761670Y-112299216D01*
X176761676Y-112299227D01*
X176761999Y-112299743D01*
X176762001Y-112299743D01*
X177091745Y-111969999D01*
X177066484Y-111944738D01*
X177318300Y-111944738D01*
X177318300Y-111995262D01*
X177337635Y-112041940D01*
X177373360Y-112077665D01*
X177420038Y-112097000D01*
X177470562Y-112097000D01*
X177517240Y-112077665D01*
X177552965Y-112041940D01*
X177572300Y-111995262D01*
X177572300Y-111969999D01*
X177798853Y-111969999D01*
X178128597Y-112299744D01*
X178128598Y-112299743D01*
X178128928Y-112299219D01*
X178185047Y-112138840D01*
X178204071Y-111970004D01*
X178204071Y-111969996D01*
X178189151Y-111837582D01*
X178201622Y-111776671D01*
X178247514Y-111734724D01*
X178300382Y-111726351D01*
X178432796Y-111741271D01*
X178432804Y-111741271D01*
X178565217Y-111726351D01*
X178626128Y-111738822D01*
X178668075Y-111784714D01*
X178676448Y-111837581D01*
X178661529Y-111969994D01*
X178661529Y-111970004D01*
X178680552Y-112138843D01*
X178736670Y-112299216D01*
X178736676Y-112299227D01*
X178736999Y-112299743D01*
X178737001Y-112299743D01*
X179066745Y-111969999D01*
X179041484Y-111944738D01*
X179293300Y-111944738D01*
X179293300Y-111995262D01*
X179312635Y-112041940D01*
X179348360Y-112077665D01*
X179395038Y-112097000D01*
X179445562Y-112097000D01*
X179492240Y-112077665D01*
X179527965Y-112041940D01*
X179547300Y-111995262D01*
X179547300Y-111969999D01*
X179773853Y-111969999D01*
X180103597Y-112299744D01*
X180103598Y-112299743D01*
X180103928Y-112299219D01*
X180160047Y-112138840D01*
X180179071Y-111970004D01*
X180179071Y-111969996D01*
X180164151Y-111837582D01*
X180176622Y-111776671D01*
X180222514Y-111734724D01*
X180275382Y-111726351D01*
X180407796Y-111741271D01*
X180407804Y-111741271D01*
X180576640Y-111722247D01*
X180737019Y-111666128D01*
X180737543Y-111665798D01*
X180737544Y-111665797D01*
X180407800Y-111336053D01*
X180131180Y-111612671D01*
X180131175Y-111612678D01*
X179773853Y-111969999D01*
X179547300Y-111969999D01*
X179547300Y-111944738D01*
X179527965Y-111898060D01*
X179492240Y-111862335D01*
X179445562Y-111843000D01*
X179395038Y-111843000D01*
X179348360Y-111862335D01*
X179312635Y-111898060D01*
X179293300Y-111944738D01*
X179041484Y-111944738D01*
X178694109Y-111597363D01*
X178694107Y-111597360D01*
X178432800Y-111336053D01*
X178156180Y-111612671D01*
X178156175Y-111612678D01*
X177798853Y-111969999D01*
X177572300Y-111969999D01*
X177572300Y-111944738D01*
X177552965Y-111898060D01*
X177517240Y-111862335D01*
X177470562Y-111843000D01*
X177420038Y-111843000D01*
X177373360Y-111862335D01*
X177337635Y-111898060D01*
X177318300Y-111944738D01*
X177066484Y-111944738D01*
X176719109Y-111597363D01*
X176719107Y-111597360D01*
X176457800Y-111336053D01*
X176128054Y-111665798D01*
X171902800Y-111665798D01*
X171902800Y-110982495D01*
X175699029Y-110982495D01*
X175699029Y-110982504D01*
X175718052Y-111151343D01*
X175774170Y-111311716D01*
X175774176Y-111311727D01*
X175774499Y-111312243D01*
X175774501Y-111312243D01*
X176104245Y-110982499D01*
X176078984Y-110957238D01*
X176330800Y-110957238D01*
X176330800Y-111007762D01*
X176350135Y-111054440D01*
X176385860Y-111090165D01*
X176432538Y-111109500D01*
X176483062Y-111109500D01*
X176529740Y-111090165D01*
X176565465Y-111054440D01*
X176584800Y-111007762D01*
X176584800Y-110982499D01*
X176811353Y-110982499D01*
X177445300Y-111616446D01*
X178079246Y-110982500D01*
X178053984Y-110957238D01*
X178305800Y-110957238D01*
X178305800Y-111007762D01*
X178325135Y-111054440D01*
X178360860Y-111090165D01*
X178407538Y-111109500D01*
X178458062Y-111109500D01*
X178504740Y-111090165D01*
X178540465Y-111054440D01*
X178559800Y-111007762D01*
X178559800Y-110982499D01*
X178786353Y-110982499D01*
X179420300Y-111616446D01*
X180054246Y-110982500D01*
X180028984Y-110957238D01*
X180280800Y-110957238D01*
X180280800Y-111007762D01*
X180300135Y-111054440D01*
X180335860Y-111090165D01*
X180382538Y-111109500D01*
X180433062Y-111109500D01*
X180479740Y-111090165D01*
X180515465Y-111054440D01*
X180534800Y-111007762D01*
X180534800Y-110982499D01*
X180761353Y-110982499D01*
X181091097Y-111312244D01*
X181091098Y-111312243D01*
X181091428Y-111311719D01*
X181147547Y-111151340D01*
X181166571Y-110982504D01*
X181166571Y-110982495D01*
X181147547Y-110813660D01*
X181091425Y-110653275D01*
X181091098Y-110652754D01*
X180761353Y-110982499D01*
X180534800Y-110982499D01*
X180534800Y-110957238D01*
X180515465Y-110910560D01*
X180479740Y-110874835D01*
X180433062Y-110855500D01*
X180382538Y-110855500D01*
X180335860Y-110874835D01*
X180300135Y-110910560D01*
X180280800Y-110957238D01*
X180028984Y-110957238D01*
X179681609Y-110609863D01*
X179681607Y-110609860D01*
X179420300Y-110348553D01*
X179143680Y-110625171D01*
X179143675Y-110625178D01*
X178786353Y-110982499D01*
X178559800Y-110982499D01*
X178559800Y-110957238D01*
X178540465Y-110910560D01*
X178504740Y-110874835D01*
X178458062Y-110855500D01*
X178407538Y-110855500D01*
X178360860Y-110874835D01*
X178325135Y-110910560D01*
X178305800Y-110957238D01*
X178053984Y-110957238D01*
X177706609Y-110609863D01*
X177706607Y-110609860D01*
X177445300Y-110348553D01*
X177168680Y-110625171D01*
X177168675Y-110625178D01*
X176811353Y-110982499D01*
X176584800Y-110982499D01*
X176584800Y-110957238D01*
X176565465Y-110910560D01*
X176529740Y-110874835D01*
X176483062Y-110855500D01*
X176432538Y-110855500D01*
X176385860Y-110874835D01*
X176350135Y-110910560D01*
X176330800Y-110957238D01*
X176078984Y-110957238D01*
X175774501Y-110652755D01*
X175774171Y-110653281D01*
X175774169Y-110653284D01*
X175718052Y-110813659D01*
X175699029Y-110982495D01*
X171902800Y-110982495D01*
X171902800Y-109690798D01*
X176128054Y-109690798D01*
X176128575Y-109691125D01*
X176288960Y-109747247D01*
X176457796Y-109766271D01*
X176457804Y-109766271D01*
X176590217Y-109751351D01*
X176651128Y-109763822D01*
X176693075Y-109809714D01*
X176701448Y-109862581D01*
X176686529Y-109994994D01*
X176686529Y-109995005D01*
X176701448Y-110127418D01*
X176688977Y-110188328D01*
X176643085Y-110230275D01*
X176590218Y-110238648D01*
X176457805Y-110223729D01*
X176457796Y-110223729D01*
X176288959Y-110242752D01*
X176128584Y-110298869D01*
X176128581Y-110298871D01*
X176128055Y-110299201D01*
X176457800Y-110628946D01*
X177091746Y-109995000D01*
X177066484Y-109969738D01*
X177318300Y-109969738D01*
X177318300Y-110020262D01*
X177337635Y-110066940D01*
X177373360Y-110102665D01*
X177420038Y-110122000D01*
X177470562Y-110122000D01*
X177517240Y-110102665D01*
X177552965Y-110066940D01*
X177572300Y-110020262D01*
X177572300Y-109994999D01*
X177798853Y-109994999D01*
X178432800Y-110628946D01*
X179066746Y-109995000D01*
X179041484Y-109969738D01*
X179293300Y-109969738D01*
X179293300Y-110020262D01*
X179312635Y-110066940D01*
X179348360Y-110102665D01*
X179395038Y-110122000D01*
X179445562Y-110122000D01*
X179492240Y-110102665D01*
X179527965Y-110066940D01*
X179547300Y-110020262D01*
X179547300Y-109994999D01*
X179773853Y-109994999D01*
X180407799Y-110628945D01*
X180737543Y-110299201D01*
X180737543Y-110299199D01*
X180737027Y-110298876D01*
X180737016Y-110298870D01*
X180576643Y-110242752D01*
X180407804Y-110223729D01*
X180407795Y-110223729D01*
X180275381Y-110238648D01*
X180214471Y-110226177D01*
X180172524Y-110180285D01*
X180164151Y-110127417D01*
X180179071Y-109995003D01*
X180179071Y-109994996D01*
X180164151Y-109862582D01*
X180176622Y-109801671D01*
X180222514Y-109759724D01*
X180275382Y-109751351D01*
X180407796Y-109766271D01*
X180407804Y-109766271D01*
X180576640Y-109747247D01*
X180737019Y-109691128D01*
X180737543Y-109690798D01*
X180737544Y-109690797D01*
X180407800Y-109361053D01*
X180131180Y-109637671D01*
X180131175Y-109637678D01*
X179773853Y-109994999D01*
X179547300Y-109994999D01*
X179547300Y-109969738D01*
X179527965Y-109923060D01*
X179492240Y-109887335D01*
X179445562Y-109868000D01*
X179395038Y-109868000D01*
X179348360Y-109887335D01*
X179312635Y-109923060D01*
X179293300Y-109969738D01*
X179041484Y-109969738D01*
X178694109Y-109622363D01*
X178694107Y-109622360D01*
X178432800Y-109361053D01*
X178156180Y-109637671D01*
X178156175Y-109637678D01*
X177798853Y-109994999D01*
X177572300Y-109994999D01*
X177572300Y-109969738D01*
X177552965Y-109923060D01*
X177517240Y-109887335D01*
X177470562Y-109868000D01*
X177420038Y-109868000D01*
X177373360Y-109887335D01*
X177337635Y-109923060D01*
X177318300Y-109969738D01*
X177066484Y-109969738D01*
X176719109Y-109622363D01*
X176719107Y-109622360D01*
X176457800Y-109361053D01*
X176128054Y-109690798D01*
X171902800Y-109690798D01*
X171902800Y-109007495D01*
X175699029Y-109007495D01*
X175699029Y-109007504D01*
X175718052Y-109176343D01*
X175774170Y-109336716D01*
X175774176Y-109336727D01*
X175774499Y-109337243D01*
X175774501Y-109337243D01*
X176104245Y-109007499D01*
X176078984Y-108982238D01*
X176330800Y-108982238D01*
X176330800Y-109032762D01*
X176350135Y-109079440D01*
X176385860Y-109115165D01*
X176432538Y-109134500D01*
X176483062Y-109134500D01*
X176529740Y-109115165D01*
X176565465Y-109079440D01*
X176584800Y-109032762D01*
X176584800Y-109007499D01*
X176811353Y-109007499D01*
X177445300Y-109641446D01*
X178079246Y-109007500D01*
X178053984Y-108982238D01*
X178305800Y-108982238D01*
X178305800Y-109032762D01*
X178325135Y-109079440D01*
X178360860Y-109115165D01*
X178407538Y-109134500D01*
X178458062Y-109134500D01*
X178504740Y-109115165D01*
X178540465Y-109079440D01*
X178559800Y-109032762D01*
X178559800Y-109007499D01*
X178786353Y-109007499D01*
X179420300Y-109641446D01*
X180054246Y-109007500D01*
X180028984Y-108982238D01*
X180280800Y-108982238D01*
X180280800Y-109032762D01*
X180300135Y-109079440D01*
X180335860Y-109115165D01*
X180382538Y-109134500D01*
X180433062Y-109134500D01*
X180479740Y-109115165D01*
X180515465Y-109079440D01*
X180534800Y-109032762D01*
X180534800Y-109007499D01*
X180761353Y-109007499D01*
X181091097Y-109337244D01*
X181091098Y-109337243D01*
X181091428Y-109336719D01*
X181141159Y-109194597D01*
X184017428Y-109194597D01*
X184017428Y-109194602D01*
X184037590Y-109321903D01*
X184037591Y-109321906D01*
X184096107Y-109436750D01*
X184176522Y-109517165D01*
X184204748Y-109572563D01*
X184195022Y-109633971D01*
X184176522Y-109659435D01*
X184096107Y-109739849D01*
X184037591Y-109854693D01*
X184037590Y-109854696D01*
X184017428Y-109981997D01*
X184017428Y-109982002D01*
X184037590Y-110109303D01*
X184037591Y-110109306D01*
X184095892Y-110223729D01*
X184096108Y-110224151D01*
X184187249Y-110315292D01*
X184302094Y-110373809D01*
X184353016Y-110381874D01*
X184429397Y-110393972D01*
X184429400Y-110393972D01*
X184429403Y-110393972D01*
X184493053Y-110383890D01*
X184556706Y-110373809D01*
X184671551Y-110315292D01*
X184762692Y-110224151D01*
X184821209Y-110109306D01*
X184841372Y-109982000D01*
X184821209Y-109854694D01*
X184762692Y-109739849D01*
X184682278Y-109659435D01*
X184654052Y-109604037D01*
X184663778Y-109542629D01*
X184682278Y-109517165D01*
X184717383Y-109482060D01*
X184762692Y-109436751D01*
X184821209Y-109321906D01*
X184841372Y-109194600D01*
X184838480Y-109176343D01*
X184828791Y-109115165D01*
X184821209Y-109067294D01*
X184762692Y-108952449D01*
X184671551Y-108861308D01*
X184671550Y-108861307D01*
X184556706Y-108802791D01*
X184556703Y-108802790D01*
X184429403Y-108782628D01*
X184429397Y-108782628D01*
X184302096Y-108802790D01*
X184302093Y-108802791D01*
X184187249Y-108861307D01*
X184096107Y-108952449D01*
X184037591Y-109067293D01*
X184037590Y-109067296D01*
X184017428Y-109194597D01*
X181141159Y-109194597D01*
X181147547Y-109176340D01*
X181166571Y-109007504D01*
X181166571Y-109007495D01*
X181147547Y-108838660D01*
X181091425Y-108678275D01*
X181091098Y-108677754D01*
X180761353Y-109007499D01*
X180534800Y-109007499D01*
X180534800Y-108982238D01*
X180515465Y-108935560D01*
X180479740Y-108899835D01*
X180433062Y-108880500D01*
X180382538Y-108880500D01*
X180335860Y-108899835D01*
X180300135Y-108935560D01*
X180280800Y-108982238D01*
X180028984Y-108982238D01*
X179681609Y-108634863D01*
X179681607Y-108634860D01*
X179420300Y-108373553D01*
X179143680Y-108650171D01*
X179143675Y-108650178D01*
X178786353Y-109007499D01*
X178559800Y-109007499D01*
X178559800Y-108982238D01*
X178540465Y-108935560D01*
X178504740Y-108899835D01*
X178458062Y-108880500D01*
X178407538Y-108880500D01*
X178360860Y-108899835D01*
X178325135Y-108935560D01*
X178305800Y-108982238D01*
X178053984Y-108982238D01*
X177706609Y-108634863D01*
X177706607Y-108634860D01*
X177445300Y-108373553D01*
X177168680Y-108650171D01*
X177168675Y-108650178D01*
X176811353Y-109007499D01*
X176584800Y-109007499D01*
X176584800Y-108982238D01*
X176565465Y-108935560D01*
X176529740Y-108899835D01*
X176483062Y-108880500D01*
X176432538Y-108880500D01*
X176385860Y-108899835D01*
X176350135Y-108935560D01*
X176330800Y-108982238D01*
X176078984Y-108982238D01*
X175774501Y-108677755D01*
X175774171Y-108678281D01*
X175774169Y-108678284D01*
X175718052Y-108838659D01*
X175699029Y-109007495D01*
X171902800Y-109007495D01*
X171902800Y-108324201D01*
X176128055Y-108324201D01*
X176457800Y-108653946D01*
X177091746Y-108020000D01*
X177066484Y-107994738D01*
X177318300Y-107994738D01*
X177318300Y-108045262D01*
X177337635Y-108091940D01*
X177373360Y-108127665D01*
X177420038Y-108147000D01*
X177470562Y-108147000D01*
X177517240Y-108127665D01*
X177552965Y-108091940D01*
X177572300Y-108045262D01*
X177572300Y-108019999D01*
X177798853Y-108019999D01*
X178432800Y-108653946D01*
X179066746Y-108020000D01*
X179041484Y-107994738D01*
X179293300Y-107994738D01*
X179293300Y-108045262D01*
X179312635Y-108091940D01*
X179348360Y-108127665D01*
X179395038Y-108147000D01*
X179445562Y-108147000D01*
X179492240Y-108127665D01*
X179527965Y-108091940D01*
X179547300Y-108045262D01*
X179547300Y-108019999D01*
X179773853Y-108019999D01*
X180407799Y-108653945D01*
X180737543Y-108324201D01*
X180737543Y-108324199D01*
X180737027Y-108323876D01*
X180737016Y-108323870D01*
X180576643Y-108267752D01*
X180407804Y-108248729D01*
X180407795Y-108248729D01*
X180275381Y-108263648D01*
X180214471Y-108251177D01*
X180172524Y-108205285D01*
X180164151Y-108152417D01*
X180179071Y-108020003D01*
X180179071Y-108019995D01*
X180160047Y-107851160D01*
X180103925Y-107690775D01*
X180103598Y-107690254D01*
X179773853Y-108019999D01*
X179547300Y-108019999D01*
X179547300Y-107994738D01*
X179527965Y-107948060D01*
X179492240Y-107912335D01*
X179445562Y-107893000D01*
X179395038Y-107893000D01*
X179348360Y-107912335D01*
X179312635Y-107948060D01*
X179293300Y-107994738D01*
X179041484Y-107994738D01*
X178737001Y-107690255D01*
X178736671Y-107690781D01*
X178736669Y-107690784D01*
X178680552Y-107851159D01*
X178661529Y-108019995D01*
X178661529Y-108020005D01*
X178676448Y-108152418D01*
X178663977Y-108213328D01*
X178618085Y-108255275D01*
X178565218Y-108263648D01*
X178432805Y-108248729D01*
X178432795Y-108248729D01*
X178300381Y-108263648D01*
X178239471Y-108251177D01*
X178197524Y-108205285D01*
X178189151Y-108152417D01*
X178204071Y-108020003D01*
X178204071Y-108019995D01*
X178185047Y-107851160D01*
X178128925Y-107690775D01*
X178128598Y-107690254D01*
X177798853Y-108019999D01*
X177572300Y-108019999D01*
X177572300Y-107994738D01*
X177552965Y-107948060D01*
X177517240Y-107912335D01*
X177470562Y-107893000D01*
X177420038Y-107893000D01*
X177373360Y-107912335D01*
X177337635Y-107948060D01*
X177318300Y-107994738D01*
X177066484Y-107994738D01*
X176762001Y-107690255D01*
X176761671Y-107690781D01*
X176761669Y-107690784D01*
X176705552Y-107851159D01*
X176686529Y-108019995D01*
X176686529Y-108020005D01*
X176701448Y-108152418D01*
X176688977Y-108213328D01*
X176643085Y-108255275D01*
X176590218Y-108263648D01*
X176457805Y-108248729D01*
X176457796Y-108248729D01*
X176288959Y-108267752D01*
X176128584Y-108323869D01*
X176128581Y-108323871D01*
X176128055Y-108324201D01*
X171902800Y-108324201D01*
X171902800Y-107336701D01*
X177115555Y-107336701D01*
X177445299Y-107666445D01*
X177775043Y-107336701D01*
X179090555Y-107336701D01*
X179420299Y-107666445D01*
X179750043Y-107336701D01*
X179750043Y-107336699D01*
X179749527Y-107336376D01*
X179749516Y-107336370D01*
X179589143Y-107280252D01*
X179420304Y-107261229D01*
X179420296Y-107261229D01*
X179251459Y-107280252D01*
X179091084Y-107336369D01*
X179091081Y-107336371D01*
X179090555Y-107336701D01*
X177775043Y-107336701D01*
X177775043Y-107336699D01*
X177774527Y-107336376D01*
X177774516Y-107336370D01*
X177614143Y-107280252D01*
X177445304Y-107261229D01*
X177445296Y-107261229D01*
X177276459Y-107280252D01*
X177116084Y-107336369D01*
X177116081Y-107336371D01*
X177115555Y-107336701D01*
X171902800Y-107336701D01*
X171902800Y-105155997D01*
X180385228Y-105155997D01*
X180385228Y-105156002D01*
X180405390Y-105283303D01*
X180405391Y-105283306D01*
X180460087Y-105390653D01*
X180463908Y-105398151D01*
X180555049Y-105489292D01*
X180669894Y-105547809D01*
X180720816Y-105555874D01*
X180797197Y-105567972D01*
X180797200Y-105567972D01*
X180797203Y-105567972D01*
X180860853Y-105557890D01*
X180924506Y-105547809D01*
X181039351Y-105489292D01*
X181130492Y-105398151D01*
X181134312Y-105390652D01*
X181178276Y-105346689D01*
X181239685Y-105336962D01*
X181295082Y-105365189D01*
X181298222Y-105368865D01*
X181302107Y-105372750D01*
X181302108Y-105372751D01*
X181393249Y-105463892D01*
X181508094Y-105522409D01*
X181559016Y-105530474D01*
X181635397Y-105542572D01*
X181635400Y-105542572D01*
X181635403Y-105542572D01*
X181699053Y-105532490D01*
X181762706Y-105522409D01*
X181877551Y-105463892D01*
X181968692Y-105372751D01*
X182027209Y-105257906D01*
X182047372Y-105130600D01*
X182027209Y-105003294D01*
X181968692Y-104888449D01*
X181877551Y-104797308D01*
X181877550Y-104797307D01*
X181762706Y-104738791D01*
X181762703Y-104738790D01*
X181635403Y-104718628D01*
X181635397Y-104718628D01*
X181508096Y-104738790D01*
X181508093Y-104738791D01*
X181393249Y-104797307D01*
X181302106Y-104888450D01*
X181298283Y-104895953D01*
X181254316Y-104939914D01*
X181192906Y-104949635D01*
X181137511Y-104921405D01*
X181134370Y-104917727D01*
X181039350Y-104822707D01*
X180924506Y-104764191D01*
X180924503Y-104764190D01*
X180797203Y-104744028D01*
X180797197Y-104744028D01*
X180669896Y-104764190D01*
X180669893Y-104764191D01*
X180555049Y-104822707D01*
X180463907Y-104913849D01*
X180405391Y-105028693D01*
X180405390Y-105028696D01*
X180385228Y-105155997D01*
X171902800Y-105155997D01*
X171902800Y-100838000D01*
X172956847Y-100838000D01*
X172976211Y-101034606D01*
X173033556Y-101223646D01*
X173033557Y-101223649D01*
X173033558Y-101223650D01*
X173039296Y-101234385D01*
X173126684Y-101397878D01*
X173223280Y-101515581D01*
X173252011Y-101550589D01*
X173404722Y-101675916D01*
X173578950Y-101769042D01*
X173578952Y-101769042D01*
X173578953Y-101769043D01*
X173767993Y-101826388D01*
X173767994Y-101826388D01*
X173767997Y-101826389D01*
X173964600Y-101845753D01*
X174161203Y-101826389D01*
X174350250Y-101769042D01*
X174524478Y-101675916D01*
X174677189Y-101550589D01*
X174802516Y-101397878D01*
X174895642Y-101223650D01*
X174952989Y-101034603D01*
X174960094Y-100962455D01*
X174985011Y-100905494D01*
X175038650Y-100874055D01*
X175100525Y-100880149D01*
X175147001Y-100921449D01*
X175160427Y-100963550D01*
X175170030Y-101073318D01*
X175170032Y-101073329D01*
X175231170Y-101301494D01*
X175330997Y-101515573D01*
X175331002Y-101515581D01*
X175466492Y-101709080D01*
X175633519Y-101876107D01*
X175827018Y-102011597D01*
X175827026Y-102011602D01*
X176041105Y-102111429D01*
X176254599Y-102168634D01*
X176254600Y-102168634D01*
X176254600Y-101271012D01*
X176311607Y-101303925D01*
X176438774Y-101338000D01*
X176570426Y-101338000D01*
X176697593Y-101303925D01*
X176754600Y-101271012D01*
X176754600Y-102168634D01*
X176968094Y-102111429D01*
X177182173Y-102011602D01*
X177182181Y-102011597D01*
X177375680Y-101876107D01*
X177542707Y-101709080D01*
X177678197Y-101515581D01*
X177678202Y-101515573D01*
X177778029Y-101301494D01*
X177839167Y-101073329D01*
X177839169Y-101073317D01*
X177848772Y-100963551D01*
X177873065Y-100906319D01*
X177926359Y-100874296D01*
X177988296Y-100879715D01*
X178035220Y-100920505D01*
X178049104Y-100962456D01*
X178056210Y-101034602D01*
X178113556Y-101223646D01*
X178113557Y-101223649D01*
X178113558Y-101223650D01*
X178119296Y-101234385D01*
X178206684Y-101397878D01*
X178303280Y-101515581D01*
X178332011Y-101550589D01*
X178484722Y-101675916D01*
X178658950Y-101769042D01*
X178658952Y-101769042D01*
X178658953Y-101769043D01*
X178847993Y-101826388D01*
X178847994Y-101826388D01*
X178847997Y-101826389D01*
X179044600Y-101845753D01*
X179241203Y-101826389D01*
X179430250Y-101769042D01*
X179604478Y-101675916D01*
X179757189Y-101550589D01*
X179882516Y-101397878D01*
X179975642Y-101223650D01*
X180032989Y-101034603D01*
X180052353Y-100838000D01*
X180032989Y-100641397D01*
X179975642Y-100452350D01*
X179882516Y-100278122D01*
X179757189Y-100125411D01*
X179604478Y-100000084D01*
X179553700Y-99972943D01*
X180581700Y-99972943D01*
X180581700Y-101703055D01*
X180590571Y-101747657D01*
X180590573Y-101747661D01*
X180624364Y-101798232D01*
X180624365Y-101798233D01*
X180624366Y-101798234D01*
X180674942Y-101832028D01*
X180719543Y-101840900D01*
X182449656Y-101840899D01*
X182494258Y-101832028D01*
X182544834Y-101798234D01*
X182578628Y-101747658D01*
X182587500Y-101703057D01*
X182587499Y-99972944D01*
X182578628Y-99928342D01*
X182578626Y-99928338D01*
X182544835Y-99877767D01*
X182544833Y-99877765D01*
X182494257Y-99843971D01*
X182458528Y-99836864D01*
X182449657Y-99835100D01*
X182449656Y-99835100D01*
X180719544Y-99835100D01*
X180674942Y-99843971D01*
X180674938Y-99843973D01*
X180624367Y-99877764D01*
X180624365Y-99877766D01*
X180590571Y-99928342D01*
X180581700Y-99972943D01*
X179553700Y-99972943D01*
X179430250Y-99906958D01*
X179430249Y-99906957D01*
X179430246Y-99906956D01*
X179241206Y-99849611D01*
X179044600Y-99830247D01*
X178847993Y-99849611D01*
X178658953Y-99906956D01*
X178484721Y-100000084D01*
X178332011Y-100125410D01*
X178332010Y-100125411D01*
X178206684Y-100278121D01*
X178113556Y-100452353D01*
X178056210Y-100641397D01*
X178049104Y-100713543D01*
X178024188Y-100770506D01*
X177970547Y-100801944D01*
X177908673Y-100795849D01*
X177862197Y-100754549D01*
X177848772Y-100712449D01*
X177839168Y-100602681D01*
X177839167Y-100602670D01*
X177778029Y-100374505D01*
X177678202Y-100160427D01*
X177678197Y-100160419D01*
X177542707Y-99966919D01*
X177375680Y-99799892D01*
X177182181Y-99664402D01*
X177182173Y-99664397D01*
X176968094Y-99564570D01*
X176754600Y-99507364D01*
X176754600Y-100404988D01*
X176697593Y-100372075D01*
X176570426Y-100338000D01*
X176438774Y-100338000D01*
X176311607Y-100372075D01*
X176254600Y-100404988D01*
X176254600Y-99507364D01*
X176254599Y-99507364D01*
X176041105Y-99564570D01*
X175827027Y-99664397D01*
X175827019Y-99664402D01*
X175633519Y-99799892D01*
X175466492Y-99966919D01*
X175331002Y-100160419D01*
X175330997Y-100160427D01*
X175231170Y-100374505D01*
X175170032Y-100602670D01*
X175170030Y-100602681D01*
X175160427Y-100712449D01*
X175136133Y-100769681D01*
X175082840Y-100801703D01*
X175020902Y-100796284D01*
X174973979Y-100755493D01*
X174960094Y-100713543D01*
X174952989Y-100641397D01*
X174895642Y-100452350D01*
X174802516Y-100278122D01*
X174677189Y-100125411D01*
X174524478Y-100000084D01*
X174350250Y-99906958D01*
X174350249Y-99906957D01*
X174350246Y-99906956D01*
X174161206Y-99849611D01*
X173964600Y-99830247D01*
X173767993Y-99849611D01*
X173578953Y-99906956D01*
X173404721Y-100000084D01*
X173252011Y-100125410D01*
X173252010Y-100125411D01*
X173126684Y-100278121D01*
X173033556Y-100452353D01*
X172976211Y-100641393D01*
X172956847Y-100838000D01*
X171902800Y-100838000D01*
X171902800Y-97379543D01*
X181552500Y-97379543D01*
X181552500Y-98149655D01*
X181561371Y-98194257D01*
X181561373Y-98194261D01*
X181595164Y-98244832D01*
X181595165Y-98244833D01*
X181595166Y-98244834D01*
X181645742Y-98278628D01*
X181690343Y-98287500D01*
X182550300Y-98287499D01*
X182609431Y-98306712D01*
X182645976Y-98357012D01*
X182650900Y-98388099D01*
X182650900Y-98653422D01*
X182689644Y-98746962D01*
X183358035Y-99415353D01*
X183386261Y-99470751D01*
X183387500Y-99486488D01*
X183387500Y-105262912D01*
X183368287Y-105322043D01*
X183358035Y-105334047D01*
X181724445Y-106967636D01*
X181724444Y-106967637D01*
X181685700Y-107061177D01*
X181685700Y-108051422D01*
X181724444Y-108144962D01*
X181724445Y-108144963D01*
X181792810Y-108213328D01*
X181854700Y-108275217D01*
X181882926Y-108330614D01*
X181882928Y-108348483D01*
X181883828Y-108348483D01*
X181883828Y-108356402D01*
X181903990Y-108483703D01*
X181903991Y-108483706D01*
X181935217Y-108544991D01*
X181962508Y-108598551D01*
X182053649Y-108689692D01*
X182168494Y-108748209D01*
X182219416Y-108756274D01*
X182295797Y-108768372D01*
X182295800Y-108768372D01*
X182295803Y-108768372D01*
X182359453Y-108758290D01*
X182423106Y-108748209D01*
X182537951Y-108689692D01*
X182629092Y-108598551D01*
X182687609Y-108483706D01*
X182707772Y-108356400D01*
X182706518Y-108348483D01*
X182693082Y-108263648D01*
X182687609Y-108229094D01*
X182629092Y-108114249D01*
X182624092Y-108109249D01*
X182595866Y-108053851D01*
X182605592Y-107992443D01*
X182649555Y-107948479D01*
X182661237Y-107942526D01*
X182690351Y-107927692D01*
X182739678Y-107878365D01*
X182795076Y-107850139D01*
X182810813Y-107848900D01*
X182854422Y-107848900D01*
X182854423Y-107848900D01*
X182947963Y-107810155D01*
X182947962Y-107810155D01*
X182957118Y-107806363D01*
X182958475Y-107809640D01*
X182996522Y-107798100D01*
X184114982Y-107798100D01*
X184174113Y-107817313D01*
X184198060Y-107845011D01*
X184199183Y-107844237D01*
X184202639Y-107849244D01*
X184202640Y-107849246D01*
X184292708Y-107979732D01*
X184411387Y-108084872D01*
X184551778Y-108158556D01*
X184705724Y-108196500D01*
X184705728Y-108196500D01*
X184864272Y-108196500D01*
X184864276Y-108196500D01*
X185018222Y-108158556D01*
X185158613Y-108084872D01*
X185277292Y-107979732D01*
X185367360Y-107849246D01*
X185423584Y-107700997D01*
X185442695Y-107543600D01*
X185423584Y-107386203D01*
X185367360Y-107237954D01*
X185277292Y-107107468D01*
X185158613Y-107002328D01*
X185018222Y-106928644D01*
X184864278Y-106890700D01*
X184864276Y-106890700D01*
X184705724Y-106890700D01*
X184705721Y-106890700D01*
X184551777Y-106928644D01*
X184411390Y-107002326D01*
X184411388Y-107002327D01*
X184411387Y-107002328D01*
X184292708Y-107107468D01*
X184227050Y-107202591D01*
X184199183Y-107242963D01*
X184197410Y-107241739D01*
X184159572Y-107278678D01*
X184114982Y-107289100D01*
X182905223Y-107289100D01*
X182803977Y-107289100D01*
X182803975Y-107289100D01*
X182794261Y-107291033D01*
X182793930Y-107289373D01*
X182743527Y-107293331D01*
X182695893Y-107266650D01*
X182690350Y-107261107D01*
X182575506Y-107202591D01*
X182575504Y-107202590D01*
X182454401Y-107183409D01*
X182399004Y-107155183D01*
X182370778Y-107099785D01*
X182380504Y-107038376D01*
X182399001Y-107012916D01*
X183857755Y-105554163D01*
X183896501Y-105460623D01*
X183896501Y-105359377D01*
X183896501Y-105351274D01*
X183896500Y-105351260D01*
X183896500Y-105181397D01*
X184119028Y-105181397D01*
X184119028Y-105181402D01*
X184139190Y-105308703D01*
X184139191Y-105308706D01*
X184160873Y-105351260D01*
X184197708Y-105423551D01*
X184288849Y-105514692D01*
X184403694Y-105573209D01*
X184454616Y-105581274D01*
X184530997Y-105593372D01*
X184531000Y-105593372D01*
X184531003Y-105593372D01*
X184594653Y-105583290D01*
X184658306Y-105573209D01*
X184773151Y-105514692D01*
X184864292Y-105423551D01*
X184922809Y-105308706D01*
X184942972Y-105181400D01*
X184938949Y-105156002D01*
X184922809Y-105054096D01*
X184922809Y-105054094D01*
X184864292Y-104939249D01*
X184773151Y-104848108D01*
X184773150Y-104848107D01*
X184658306Y-104789591D01*
X184658303Y-104789590D01*
X184531003Y-104769428D01*
X184530997Y-104769428D01*
X184403696Y-104789590D01*
X184403693Y-104789591D01*
X184288849Y-104848107D01*
X184197707Y-104939249D01*
X184139191Y-105054093D01*
X184139190Y-105054096D01*
X184119028Y-105181397D01*
X183896500Y-105181397D01*
X183896500Y-102565197D01*
X184195228Y-102565197D01*
X184195228Y-102565202D01*
X184215390Y-102692503D01*
X184215391Y-102692506D01*
X184273908Y-102807351D01*
X184365049Y-102898492D01*
X184479894Y-102957009D01*
X184530816Y-102965074D01*
X184607197Y-102977172D01*
X184607200Y-102977172D01*
X184607203Y-102977172D01*
X184670853Y-102967090D01*
X184734506Y-102957009D01*
X184849351Y-102898492D01*
X184940492Y-102807351D01*
X184999009Y-102692506D01*
X185019172Y-102565200D01*
X185015682Y-102543167D01*
X184999009Y-102437896D01*
X184999009Y-102437894D01*
X184940492Y-102323049D01*
X184849351Y-102231908D01*
X184849350Y-102231907D01*
X184734506Y-102173391D01*
X184734503Y-102173390D01*
X184607203Y-102153228D01*
X184607197Y-102153228D01*
X184479896Y-102173390D01*
X184479893Y-102173391D01*
X184365049Y-102231907D01*
X184273907Y-102323049D01*
X184215391Y-102437893D01*
X184215390Y-102437896D01*
X184195228Y-102565197D01*
X183896500Y-102565197D01*
X183896500Y-99401740D01*
X183896501Y-99401731D01*
X183896501Y-99288777D01*
X183857755Y-99195237D01*
X183189365Y-98526847D01*
X183161139Y-98471449D01*
X183159900Y-98455712D01*
X183159900Y-98388099D01*
X183179113Y-98328968D01*
X183229413Y-98292423D01*
X183260500Y-98287499D01*
X184120456Y-98287499D01*
X184165058Y-98278628D01*
X184215634Y-98244834D01*
X184249428Y-98194258D01*
X184251781Y-98182427D01*
X185105400Y-98182427D01*
X185111802Y-98241975D01*
X185111803Y-98241980D01*
X185162044Y-98376685D01*
X185162045Y-98376687D01*
X185248211Y-98491788D01*
X185363312Y-98577954D01*
X185363314Y-98577955D01*
X185498019Y-98628196D01*
X185498024Y-98628197D01*
X185557572Y-98634600D01*
X186555400Y-98634600D01*
X186555400Y-98014600D01*
X185105400Y-98014600D01*
X185105400Y-98182427D01*
X184251781Y-98182427D01*
X184258300Y-98149657D01*
X184258299Y-97379544D01*
X184249428Y-97334942D01*
X184249426Y-97334938D01*
X184215635Y-97284367D01*
X184215633Y-97284365D01*
X184165057Y-97250571D01*
X184129328Y-97243464D01*
X184120457Y-97241700D01*
X184120456Y-97241700D01*
X181690344Y-97241700D01*
X181645742Y-97250571D01*
X181645738Y-97250573D01*
X181595167Y-97284364D01*
X181595165Y-97284366D01*
X181561371Y-97334942D01*
X181552500Y-97379543D01*
X171902800Y-97379543D01*
X171902800Y-96824797D01*
X178759628Y-96824797D01*
X178759628Y-96824802D01*
X178779790Y-96952103D01*
X178779791Y-96952106D01*
X178813110Y-97017499D01*
X178838308Y-97066951D01*
X178929449Y-97158092D01*
X179044294Y-97216609D01*
X179095216Y-97224674D01*
X179171597Y-97236772D01*
X179171600Y-97236772D01*
X179171603Y-97236772D01*
X179235253Y-97226690D01*
X179298906Y-97216609D01*
X179413751Y-97158092D01*
X179504892Y-97066951D01*
X179563409Y-96952106D01*
X179583572Y-96824800D01*
X179563409Y-96697494D01*
X179504892Y-96582649D01*
X179455565Y-96533322D01*
X179427339Y-96477924D01*
X179426100Y-96462187D01*
X179426100Y-96184488D01*
X179445313Y-96125357D01*
X179455565Y-96113353D01*
X179459375Y-96109543D01*
X181552500Y-96109543D01*
X181552500Y-96879655D01*
X181561371Y-96924257D01*
X181561373Y-96924261D01*
X181595164Y-96974832D01*
X181595165Y-96974833D01*
X181595166Y-96974834D01*
X181645742Y-97008628D01*
X181690343Y-97017500D01*
X184120456Y-97017499D01*
X184165058Y-97008628D01*
X184215634Y-96974834D01*
X184249428Y-96924258D01*
X184258300Y-96879657D01*
X184258299Y-96109544D01*
X184249428Y-96064942D01*
X184249426Y-96064938D01*
X184215635Y-96014367D01*
X184215633Y-96014365D01*
X184165057Y-95980571D01*
X184129328Y-95973464D01*
X184120457Y-95971700D01*
X184120456Y-95971700D01*
X181690344Y-95971700D01*
X181645742Y-95980571D01*
X181645738Y-95980573D01*
X181595167Y-96014364D01*
X181595165Y-96014366D01*
X181561371Y-96064942D01*
X181552500Y-96109543D01*
X179459375Y-96109543D01*
X180060353Y-95508565D01*
X180115751Y-95480339D01*
X180131488Y-95479100D01*
X181451901Y-95479100D01*
X181511032Y-95498313D01*
X181547577Y-95548613D01*
X181552501Y-95579700D01*
X181552501Y-95609655D01*
X181561371Y-95654257D01*
X181561373Y-95654261D01*
X181595164Y-95704832D01*
X181595165Y-95704833D01*
X181595166Y-95704834D01*
X181645742Y-95738628D01*
X181690343Y-95747500D01*
X184120456Y-95747499D01*
X184165058Y-95738628D01*
X184215634Y-95704834D01*
X184249428Y-95654258D01*
X184258300Y-95609657D01*
X184258299Y-94839544D01*
X184249428Y-94794942D01*
X184249426Y-94794938D01*
X184215635Y-94744367D01*
X184215633Y-94744365D01*
X184165057Y-94710571D01*
X184129328Y-94703464D01*
X184120457Y-94701700D01*
X184120456Y-94701700D01*
X181690344Y-94701700D01*
X181645742Y-94710571D01*
X181645738Y-94710573D01*
X181595167Y-94744364D01*
X181595165Y-94744366D01*
X181561371Y-94794942D01*
X181552500Y-94839543D01*
X181552500Y-94869500D01*
X181533287Y-94928631D01*
X181482987Y-94965176D01*
X181451900Y-94970100D01*
X180046740Y-94970100D01*
X180046732Y-94970099D01*
X180035023Y-94970099D01*
X179933777Y-94970099D01*
X179840237Y-95008845D01*
X179840235Y-95008846D01*
X178955844Y-95893237D01*
X178917100Y-95986777D01*
X178917100Y-96462187D01*
X178897887Y-96521318D01*
X178887635Y-96533322D01*
X178838307Y-96582649D01*
X178779791Y-96697493D01*
X178779790Y-96697496D01*
X178759628Y-96824797D01*
X171902800Y-96824797D01*
X171902800Y-93522797D01*
X175762428Y-93522797D01*
X175762428Y-93522802D01*
X175782590Y-93650103D01*
X175782591Y-93650106D01*
X175841108Y-93764951D01*
X175932249Y-93856092D01*
X176047094Y-93914609D01*
X176098016Y-93922674D01*
X176174397Y-93934772D01*
X176174400Y-93934772D01*
X176174403Y-93934772D01*
X176238053Y-93924690D01*
X176301706Y-93914609D01*
X176416551Y-93856092D01*
X176507692Y-93764951D01*
X176566209Y-93650106D01*
X176586372Y-93522800D01*
X176566209Y-93395494D01*
X176507692Y-93280649D01*
X176416551Y-93189508D01*
X176416550Y-93189507D01*
X176301706Y-93130991D01*
X176301703Y-93130990D01*
X176174403Y-93110828D01*
X176174397Y-93110828D01*
X176047096Y-93130990D01*
X176047093Y-93130991D01*
X175932249Y-93189507D01*
X175841107Y-93280649D01*
X175782591Y-93395493D01*
X175782590Y-93395496D01*
X175762428Y-93522797D01*
X171902800Y-93522797D01*
X171902800Y-92430597D01*
X174568628Y-92430597D01*
X174568628Y-92430602D01*
X174588790Y-92557903D01*
X174588791Y-92557906D01*
X174647308Y-92672751D01*
X174738449Y-92763892D01*
X174853294Y-92822409D01*
X174904216Y-92830474D01*
X174980597Y-92842572D01*
X174980600Y-92842572D01*
X174980603Y-92842572D01*
X175044253Y-92832490D01*
X175107906Y-92822409D01*
X175222751Y-92763892D01*
X175313892Y-92672751D01*
X175372409Y-92557906D01*
X175392572Y-92430600D01*
X175372409Y-92303294D01*
X175313892Y-92188449D01*
X175222751Y-92097308D01*
X175222750Y-92097307D01*
X175107906Y-92038791D01*
X175107903Y-92038790D01*
X174980603Y-92018628D01*
X174980597Y-92018628D01*
X174853296Y-92038790D01*
X174853293Y-92038791D01*
X174738449Y-92097307D01*
X174647307Y-92188449D01*
X174588791Y-92303293D01*
X174588790Y-92303296D01*
X174568628Y-92430597D01*
X171902800Y-92430597D01*
X171902800Y-91312997D01*
X193898028Y-91312997D01*
X193898028Y-91313002D01*
X193918190Y-91440303D01*
X193918191Y-91440306D01*
X193976708Y-91555151D01*
X194067849Y-91646292D01*
X194182694Y-91704809D01*
X194238411Y-91713633D01*
X194317820Y-91726211D01*
X194317400Y-91728862D01*
X194364559Y-91744185D01*
X194401104Y-91794485D01*
X194404082Y-91813291D01*
X194404789Y-91813180D01*
X194426190Y-91948303D01*
X194426191Y-91948306D01*
X194472295Y-92038791D01*
X194484708Y-92063151D01*
X194575849Y-92154292D01*
X194690694Y-92212809D01*
X194741616Y-92220874D01*
X194817997Y-92232972D01*
X194818000Y-92232972D01*
X194818003Y-92232972D01*
X194881653Y-92222890D01*
X194945306Y-92212809D01*
X195060151Y-92154292D01*
X195151292Y-92063151D01*
X195209809Y-91948306D01*
X195229972Y-91821000D01*
X195228733Y-91813180D01*
X195214763Y-91724972D01*
X195209809Y-91693694D01*
X195151292Y-91578849D01*
X195060151Y-91487708D01*
X195060150Y-91487707D01*
X194945306Y-91429191D01*
X194945303Y-91429190D01*
X194810180Y-91407789D01*
X194810599Y-91405137D01*
X194763441Y-91389815D01*
X194726896Y-91339515D01*
X194723917Y-91320708D01*
X194723211Y-91320820D01*
X194701809Y-91185696D01*
X194701809Y-91185694D01*
X194643292Y-91070849D01*
X194552151Y-90979708D01*
X194552150Y-90979707D01*
X194437306Y-90921191D01*
X194437303Y-90921190D01*
X194310003Y-90901028D01*
X194309997Y-90901028D01*
X194182696Y-90921190D01*
X194182693Y-90921191D01*
X194067849Y-90979707D01*
X193976707Y-91070849D01*
X193918191Y-91185693D01*
X193918190Y-91185696D01*
X193898028Y-91312997D01*
X171902800Y-91312997D01*
X171902800Y-90653000D01*
X166981400Y-90653000D01*
X166922269Y-90633787D01*
X166885724Y-90583487D01*
X166880800Y-90552400D01*
X166880800Y-89264314D01*
X183383700Y-89264314D01*
X183383700Y-89500885D01*
X183420706Y-89734525D01*
X183420709Y-89734539D01*
X183493807Y-89959513D01*
X183601200Y-90170282D01*
X183601205Y-90170291D01*
X183670728Y-90265982D01*
X183740250Y-90361671D01*
X183740252Y-90361673D01*
X183907527Y-90528948D01*
X184098909Y-90667995D01*
X184098917Y-90667999D01*
X184309686Y-90775392D01*
X184534660Y-90848490D01*
X184534662Y-90848490D01*
X184534670Y-90848493D01*
X184768314Y-90885499D01*
X184768316Y-90885500D01*
X184768319Y-90885500D01*
X185004884Y-90885500D01*
X185004884Y-90885499D01*
X185238530Y-90848493D01*
X185463513Y-90775392D01*
X185674291Y-90667995D01*
X185865673Y-90528948D01*
X186032948Y-90361673D01*
X186171995Y-90170291D01*
X186279392Y-89959513D01*
X186352493Y-89734530D01*
X186389500Y-89500881D01*
X186389500Y-89264319D01*
X186389500Y-89264315D01*
X186389499Y-89264314D01*
X186352493Y-89030670D01*
X186279392Y-88805687D01*
X186279392Y-88805686D01*
X186171999Y-88594917D01*
X186171995Y-88594909D01*
X186032948Y-88403527D01*
X185865673Y-88236252D01*
X185865671Y-88236250D01*
X185765818Y-88163703D01*
X185674291Y-88097205D01*
X185674285Y-88097202D01*
X185674282Y-88097200D01*
X185654650Y-88087197D01*
X194101228Y-88087197D01*
X194101228Y-88087202D01*
X194121390Y-88214503D01*
X194121391Y-88214506D01*
X194179908Y-88329351D01*
X194271049Y-88420492D01*
X194385894Y-88479009D01*
X194436816Y-88487074D01*
X194513197Y-88499172D01*
X194513200Y-88499172D01*
X194513203Y-88499172D01*
X194576853Y-88489090D01*
X194640506Y-88479009D01*
X194755351Y-88420492D01*
X194846492Y-88329351D01*
X194905009Y-88214506D01*
X194923587Y-88097207D01*
X194925172Y-88087202D01*
X194925172Y-88087197D01*
X194905009Y-87959896D01*
X194905009Y-87959894D01*
X194846492Y-87845049D01*
X194755351Y-87753908D01*
X194755350Y-87753907D01*
X194640506Y-87695391D01*
X194640503Y-87695390D01*
X194513203Y-87675228D01*
X194513197Y-87675228D01*
X194385896Y-87695390D01*
X194385893Y-87695391D01*
X194271049Y-87753907D01*
X194179907Y-87845049D01*
X194121391Y-87959893D01*
X194121390Y-87959896D01*
X194101228Y-88087197D01*
X185654650Y-88087197D01*
X185463513Y-87989807D01*
X185238539Y-87916709D01*
X185238525Y-87916706D01*
X185004885Y-87879700D01*
X185004881Y-87879700D01*
X184768319Y-87879700D01*
X184768315Y-87879700D01*
X184534674Y-87916706D01*
X184534660Y-87916709D01*
X184309686Y-87989807D01*
X184098917Y-88097200D01*
X184098906Y-88097207D01*
X183907528Y-88236250D01*
X183740250Y-88403528D01*
X183601207Y-88594906D01*
X183601200Y-88594917D01*
X183493807Y-88805686D01*
X183420709Y-89030660D01*
X183420706Y-89030674D01*
X183383700Y-89264314D01*
X166880800Y-89264314D01*
X166880800Y-88783895D01*
X166880816Y-88782102D01*
X166880820Y-88781828D01*
X166883235Y-88646418D01*
X166884241Y-88633920D01*
X166922986Y-88364444D01*
X166926037Y-88350422D01*
X166932224Y-88329350D01*
X167002481Y-88090076D01*
X167007495Y-88076635D01*
X167025871Y-88036397D01*
X174873428Y-88036397D01*
X174873428Y-88036402D01*
X174893590Y-88163703D01*
X174893591Y-88163706D01*
X174919473Y-88214503D01*
X174952108Y-88278551D01*
X175043249Y-88369692D01*
X175158094Y-88428209D01*
X175209016Y-88436274D01*
X175285397Y-88448372D01*
X175285400Y-88448372D01*
X175285403Y-88448372D01*
X175349053Y-88438290D01*
X175412706Y-88428209D01*
X175527551Y-88369692D01*
X175618692Y-88278551D01*
X175677209Y-88163706D01*
X175689327Y-88087197D01*
X175697372Y-88036402D01*
X175697372Y-88036397D01*
X175678415Y-87916709D01*
X175677209Y-87909094D01*
X175618692Y-87794249D01*
X175527551Y-87703108D01*
X175527550Y-87703107D01*
X175412706Y-87644591D01*
X175412703Y-87644590D01*
X175285403Y-87624428D01*
X175285397Y-87624428D01*
X175158096Y-87644590D01*
X175158093Y-87644591D01*
X175043249Y-87703107D01*
X174952107Y-87794249D01*
X174893591Y-87909093D01*
X174893590Y-87909096D01*
X174873428Y-88036397D01*
X167025871Y-88036397D01*
X167120216Y-87829810D01*
X167127083Y-87817234D01*
X167273788Y-87588958D01*
X167282375Y-87577486D01*
X167460080Y-87372403D01*
X167470203Y-87362280D01*
X167675286Y-87184575D01*
X167686758Y-87175988D01*
X167915034Y-87029283D01*
X167927610Y-87022416D01*
X168174440Y-86909692D01*
X168187876Y-86904681D01*
X168448224Y-86828236D01*
X168462244Y-86825186D01*
X168731720Y-86786441D01*
X168744218Y-86785435D01*
X168876534Y-86783076D01*
X168879903Y-86783016D01*
X168881696Y-86783000D01*
X200879903Y-86783000D01*
X200881696Y-86783016D01*
G37*
%TD.AperFunction*%
%TD*%
M02*
