M48
; DRILL file {KiCad 8.0.5} date 2025-01-24T10:41:27+0530
; FORMAT={-:-/ absolute / inch / decimal}
; #@! TF.CreationDate,2025-01-24T10:41:27+05:30
; #@! TF.GenerationSoftware,Kicad,Pcbnew,8.0.5
; #@! TF.FileFunction,NonPlated,1,4,NPTH
FMAT,2
INCH
; #@! TA.AperFunction,NonPlated,NPTH,ComponentDrill
T1C0.0256
; #@! TA.AperFunction,NonPlated,NPTH,ComponentDrill
T2C0.0394
; #@! TA.AperFunction,NonPlated,NPTH,ComponentDrill
T3C0.0866
; #@! TA.AperFunction,NonPlated,NPTH,ComponentDrill
T4C0.1063
; #@! TA.AperFunction,NonPlated,NPTH,ComponentDrill
T5C0.1181
%
G90
G05
T1
X5.7524Y-1.7634
X5.9799Y-1.7634
X6.9838Y-1.7634
X7.2113Y-1.7634
T2
X2.4126Y-4.4596
X2.4126Y-4.7273
X2.4138Y-2.3936
X2.4138Y-2.6614
X3.9237Y-2.3932
X3.9237Y-2.6609
X3.9429Y-4.4638
X3.9429Y-4.7315
X5.4272Y-2.3872
X5.4272Y-2.6549
X5.4465Y-4.4638
X5.4465Y-4.7315
X6.3158Y-1.5856
X6.5836Y-1.5856
X7.5472Y-1.5856
X7.815Y-1.5856
T3
X5.7731Y-2.327
X5.7881Y-3.587
X6.6431Y-4.302
X7.0045Y-2.327
X7.0195Y-3.587
X7.8745Y-4.302
T4
X1.7886Y-3.6805
X1.7886Y-5.4365
X1.7898Y-1.6145
X1.7898Y-3.3705
X3.2997Y-1.614
X3.2997Y-3.37
X3.3189Y-3.6846
X3.3189Y-5.4406
X4.8032Y-1.6081
X4.8032Y-3.3641
X4.8225Y-3.6846
X4.8225Y-5.4406
T5
G00X5.9103Y-4.1998
M15
G01X5.9103Y-4.2391
M16
G05
G00X6.4034Y-3.7903
M15
G01X6.4034Y-3.8297
M16
G05
G00X7.1417Y-4.1998
M15
G01X7.1417Y-4.2391
M16
G05
G00X7.6348Y-3.7903
M15
G01X7.6348Y-3.8297
M16
G05
M30
