%TF.GenerationSoftware,KiCad,Pcbnew,8.0.5*%
%TF.CreationDate,2025-01-24T10:40:51+05:30*%
%TF.ProjectId,racer_panelizatio_version2_,72616365-725f-4706-916e-656c697a6174,rev?*%
%TF.SameCoordinates,Original*%
%TF.FileFunction,Soldermask,Bot*%
%TF.FilePolarity,Negative*%
%FSLAX46Y46*%
G04 Gerber Fmt 4.6, Leading zero omitted, Abs format (unit mm)*
G04 Created by KiCad (PCBNEW 8.0.5) date 2025-01-24 10:40:51*
%MOMM*%
%LPD*%
G01*
G04 APERTURE LIST*
G04 Aperture macros list*
%AMRoundRect*
0 Rectangle with rounded corners*
0 $1 Rounding radius*
0 $2 $3 $4 $5 $6 $7 $8 $9 X,Y pos of 4 corners*
0 Add a 4 corners polygon primitive as box body*
4,1,4,$2,$3,$4,$5,$6,$7,$8,$9,$2,$3,0*
0 Add four circle primitives for the rounded corners*
1,1,$1+$1,$2,$3*
1,1,$1+$1,$4,$5*
1,1,$1+$1,$6,$7*
1,1,$1+$1,$8,$9*
0 Add four rect primitives between the rounded corners*
20,1,$1+$1,$2,$3,$4,$5,0*
20,1,$1+$1,$4,$5,$6,$7,0*
20,1,$1+$1,$6,$7,$8,$9,0*
20,1,$1+$1,$8,$9,$2,$3,0*%
G04 Aperture macros list end*
%ADD10C,0.000000*%
%ADD11C,0.650000*%
%ADD12O,1.204000X2.304000*%
%ADD13RoundRect,0.301000X0.301000X0.701000X-0.301000X0.701000X-0.301000X-0.701000X0.301000X-0.701000X0*%
%ADD14C,2.700000*%
%ADD15R,1.700000X1.700000*%
%ADD16O,1.700000X1.700000*%
%ADD17C,2.200000*%
%ADD18RoundRect,0.250000X-0.350000X-0.625000X0.350000X-0.625000X0.350000X0.625000X-0.350000X0.625000X0*%
%ADD19O,1.200000X1.750000*%
%ADD20C,1.000000*%
%ADD21O,1.204000X1.904000*%
%ADD22RoundRect,0.250000X0.625000X-0.350000X0.625000X0.350000X-0.625000X0.350000X-0.625000X-0.350000X0*%
%ADD23O,1.750000X1.200000*%
%ADD24RoundRect,0.102000X-0.325000X0.525000X-0.325000X-0.525000X0.325000X-0.525000X0.325000X0.525000X0*%
%ADD25R,1.000000X1.000000*%
%ADD26R,2.400000X0.740000*%
%ADD27RoundRect,0.225000X-0.225000X-0.250000X0.225000X-0.250000X0.225000X0.250000X-0.225000X0.250000X0*%
%ADD28RoundRect,0.102000X-0.525000X-0.325000X0.525000X-0.325000X0.525000X0.325000X-0.525000X0.325000X0*%
%ADD29R,0.740000X2.400000*%
%ADD30O,3.204000X3.204000*%
%ADD31C,2.154000*%
%ADD32C,2.604000*%
%ADD33RoundRect,0.102000X-0.825000X-1.100000X0.825000X-1.100000X0.825000X1.100000X-0.825000X1.100000X0*%
%ADD34C,1.854000*%
%ADD35O,1.854000X2.404000*%
%ADD36O,2.404000X1.854000*%
%ADD37RoundRect,0.102000X0.325000X-0.525000X0.325000X0.525000X-0.325000X0.525000X-0.325000X-0.525000X0*%
G04 APERTURE END LIST*
D10*
%TO.C,G\u002A\u002A\u002A*%
G36*
X149975487Y-49403482D02*
G01*
X149973401Y-49439813D01*
X149961092Y-49507303D01*
X149938992Y-49577100D01*
X149908544Y-49645012D01*
X149871187Y-49706851D01*
X149834999Y-49753467D01*
X149769160Y-49819413D01*
X149695022Y-49873776D01*
X149613976Y-49915883D01*
X149527412Y-49945063D01*
X149436719Y-49960644D01*
X149343288Y-49961955D01*
X149316882Y-49959870D01*
X149251302Y-49950159D01*
X149190780Y-49933273D01*
X149128617Y-49907515D01*
X149047062Y-49861534D01*
X148973412Y-49803834D01*
X148910604Y-49736353D01*
X148859341Y-49659982D01*
X148820324Y-49575608D01*
X148794256Y-49484123D01*
X148790002Y-49460307D01*
X148785583Y-49426989D01*
X148783588Y-49399732D01*
X148782883Y-49364100D01*
X149975618Y-49364100D01*
X149975487Y-49403482D01*
G37*
G36*
X149432110Y-45491298D02*
G01*
X149519580Y-45506210D01*
X149604610Y-45533497D01*
X149684779Y-45572277D01*
X149757668Y-45621664D01*
X149820855Y-45680775D01*
X149825902Y-45686506D01*
X149854183Y-45722742D01*
X149883497Y-45765919D01*
X149910055Y-45810177D01*
X149930069Y-45849658D01*
X149940255Y-45875770D01*
X149953746Y-45919564D01*
X149964984Y-45966336D01*
X149972686Y-46010526D01*
X149975565Y-46046572D01*
X149975618Y-46085954D01*
X148782883Y-46085954D01*
X148782883Y-46055632D01*
X148782889Y-46054651D01*
X148784626Y-46031406D01*
X148788863Y-46000365D01*
X148794729Y-45967962D01*
X148796589Y-45959269D01*
X148823858Y-45869413D01*
X148863723Y-45786598D01*
X148915112Y-45711820D01*
X148976951Y-45646072D01*
X149048166Y-45590349D01*
X149127684Y-45545644D01*
X149214432Y-45512952D01*
X149307335Y-45493267D01*
X149344622Y-45489645D01*
X149432110Y-45491298D01*
G37*
G36*
X149448680Y-47239165D02*
G01*
X149518028Y-47252972D01*
X149563563Y-47269083D01*
X149636405Y-47306955D01*
X149702508Y-47356855D01*
X149760315Y-47417302D01*
X149808267Y-47486811D01*
X149844808Y-47563903D01*
X149851662Y-47582716D01*
X149858158Y-47603962D01*
X149862369Y-47625019D01*
X149864803Y-47649683D01*
X149865968Y-47681753D01*
X149866373Y-47725027D01*
X149866386Y-47757205D01*
X149865749Y-47792255D01*
X149863929Y-47818782D01*
X149860460Y-47840570D01*
X149854877Y-47861404D01*
X149846715Y-47885068D01*
X149842718Y-47895768D01*
X149812707Y-47961595D01*
X149775404Y-48018950D01*
X149727413Y-48073189D01*
X149720104Y-48080390D01*
X149665446Y-48126976D01*
X149606966Y-48163165D01*
X149539291Y-48192363D01*
X149527836Y-48196423D01*
X149505036Y-48203495D01*
X149483124Y-48208124D01*
X149458129Y-48210821D01*
X149426078Y-48212096D01*
X149383001Y-48212461D01*
X149377615Y-48212466D01*
X149334630Y-48212071D01*
X149302107Y-48210547D01*
X149275956Y-48207423D01*
X149252084Y-48202230D01*
X149226402Y-48194501D01*
X149195666Y-48183047D01*
X149126370Y-48146731D01*
X149062512Y-48098854D01*
X149005997Y-48041518D01*
X148958731Y-47976828D01*
X148922619Y-47906887D01*
X148899569Y-47833798D01*
X148896041Y-47815775D01*
X148888444Y-47731927D01*
X148894865Y-47649632D01*
X148914519Y-47570430D01*
X148946624Y-47495864D01*
X148990395Y-47427473D01*
X149045049Y-47366800D01*
X149109801Y-47315386D01*
X149183867Y-47274773D01*
X149225693Y-47259160D01*
X149297731Y-47242571D01*
X149373654Y-47235802D01*
X149448680Y-47239165D01*
G37*
G36*
X149205426Y-46319724D02*
G01*
X149328937Y-46320128D01*
X149466444Y-46320758D01*
X149503054Y-46320940D01*
X149618849Y-46321525D01*
X149721044Y-46322096D01*
X149810722Y-46322708D01*
X149888967Y-46323420D01*
X149956864Y-46324287D01*
X150015498Y-46325367D01*
X150065952Y-46326716D01*
X150109311Y-46328391D01*
X150146660Y-46330449D01*
X150179082Y-46332947D01*
X150207662Y-46335941D01*
X150233484Y-46339488D01*
X150257633Y-46343645D01*
X150281193Y-46348469D01*
X150305248Y-46354017D01*
X150330883Y-46360345D01*
X150359182Y-46367510D01*
X150423303Y-46385538D01*
X150528373Y-46423242D01*
X150635766Y-46472211D01*
X150639811Y-46474246D01*
X150764106Y-46545302D01*
X150879596Y-46628073D01*
X150985621Y-46721690D01*
X151081523Y-46825283D01*
X151166643Y-46937983D01*
X151240323Y-47058922D01*
X151301904Y-47187230D01*
X151350727Y-47322037D01*
X151386134Y-47462475D01*
X151387660Y-47470400D01*
X151397357Y-47536830D01*
X151403965Y-47612705D01*
X151407371Y-47693385D01*
X151407462Y-47774230D01*
X151404125Y-47850598D01*
X151397247Y-47917848D01*
X151380702Y-48011859D01*
X151343980Y-48151068D01*
X151293895Y-48284460D01*
X151231018Y-48411251D01*
X151155917Y-48530659D01*
X151069163Y-48641904D01*
X150971324Y-48744201D01*
X150862970Y-48836770D01*
X150744670Y-48918827D01*
X150616994Y-48989592D01*
X150552489Y-49019227D01*
X150423353Y-49066912D01*
X150288579Y-49101558D01*
X150146572Y-49123619D01*
X150144299Y-49123845D01*
X150121464Y-49125211D01*
X150085189Y-49126446D01*
X150036823Y-49127551D01*
X149977719Y-49128525D01*
X149909225Y-49129368D01*
X149832692Y-49130080D01*
X149749471Y-49130661D01*
X149709829Y-49130863D01*
X149660911Y-49131112D01*
X149568364Y-49131431D01*
X149473179Y-49131620D01*
X149376707Y-49131677D01*
X149280299Y-49131604D01*
X149185304Y-49131399D01*
X149093073Y-49131064D01*
X149004956Y-49130597D01*
X148922304Y-49129999D01*
X148846467Y-49129270D01*
X148778795Y-49128409D01*
X148720639Y-49127418D01*
X148673350Y-49126295D01*
X148638276Y-49125040D01*
X148616770Y-49123655D01*
X148608965Y-49122840D01*
X148466119Y-49100165D01*
X148327777Y-49063559D01*
X148194831Y-49013578D01*
X148068170Y-48950777D01*
X147948684Y-48875712D01*
X147837261Y-48788938D01*
X147734793Y-48691012D01*
X147642169Y-48582488D01*
X147560279Y-48463922D01*
X147547725Y-48443662D01*
X147537424Y-48427169D01*
X147532688Y-48419762D01*
X147532294Y-48419625D01*
X147523613Y-48423308D01*
X147506269Y-48433215D01*
X147483476Y-48447531D01*
X147416831Y-48485963D01*
X147333656Y-48521108D01*
X147243078Y-48546087D01*
X147142620Y-48561728D01*
X147063069Y-48565964D01*
X146958370Y-48558829D01*
X146856197Y-48537582D01*
X146757908Y-48502731D01*
X146664864Y-48454783D01*
X146578423Y-48394247D01*
X146499947Y-48321630D01*
X146480224Y-48299593D01*
X146456087Y-48270334D01*
X146432010Y-48239189D01*
X146409924Y-48208824D01*
X146391758Y-48181902D01*
X146379443Y-48161089D01*
X146374909Y-48149047D01*
X146376298Y-48147319D01*
X146386925Y-48148748D01*
X146404755Y-48156280D01*
X146453569Y-48175900D01*
X146512342Y-48188693D01*
X146571988Y-48191800D01*
X146628550Y-48185046D01*
X146678073Y-48168259D01*
X146699905Y-48155637D01*
X146739811Y-48123262D01*
X146775713Y-48082754D01*
X146803436Y-48038439D01*
X146812168Y-48018414D01*
X146817782Y-47997157D01*
X146820523Y-47970906D01*
X146821247Y-47934679D01*
X146821051Y-47909880D01*
X146819453Y-47882887D01*
X146815126Y-47861064D01*
X146806761Y-47838609D01*
X146793047Y-47809719D01*
X146770453Y-47771068D01*
X146726099Y-47718292D01*
X146679786Y-47681129D01*
X147958804Y-47681129D01*
X147960488Y-47786022D01*
X147976233Y-47891294D01*
X148005852Y-47994904D01*
X148015164Y-48019657D01*
X148061333Y-48116600D01*
X148119603Y-48205412D01*
X148189091Y-48285293D01*
X148268916Y-48355441D01*
X148358196Y-48415056D01*
X148456048Y-48463337D01*
X148561589Y-48499482D01*
X148636604Y-48519980D01*
X149337992Y-48522488D01*
X149390033Y-48522673D01*
X149509911Y-48523068D01*
X149616178Y-48523334D01*
X149709829Y-48523427D01*
X149791859Y-48523302D01*
X149863263Y-48522914D01*
X149925033Y-48522220D01*
X149978166Y-48521175D01*
X150023655Y-48519735D01*
X150062495Y-48517855D01*
X150095680Y-48515491D01*
X150124204Y-48512598D01*
X150149063Y-48509133D01*
X150171250Y-48505050D01*
X150191760Y-48500307D01*
X150211588Y-48494857D01*
X150231727Y-48488657D01*
X150253172Y-48481662D01*
X150336182Y-48449688D01*
X150424531Y-48402989D01*
X150505362Y-48344855D01*
X150581367Y-48273577D01*
X150628577Y-48219788D01*
X150690829Y-48131443D01*
X150739094Y-48037704D01*
X150773443Y-47938391D01*
X150793948Y-47833324D01*
X150800682Y-47722323D01*
X150800403Y-47702031D01*
X150790461Y-47595813D01*
X150766908Y-47494007D01*
X150730613Y-47397570D01*
X150682442Y-47307459D01*
X150623264Y-47224630D01*
X150553946Y-47150040D01*
X150475357Y-47084644D01*
X150388362Y-47029399D01*
X150293832Y-46985263D01*
X150192632Y-46953190D01*
X150085632Y-46934139D01*
X150083177Y-46933889D01*
X150059760Y-46932442D01*
X150022990Y-46931142D01*
X149974285Y-46929987D01*
X149915061Y-46928978D01*
X149846738Y-46928114D01*
X149770732Y-46927397D01*
X149688462Y-46926825D01*
X149601345Y-46926400D01*
X149510799Y-46926120D01*
X149418243Y-46925986D01*
X149325092Y-46925998D01*
X149232767Y-46926156D01*
X149142683Y-46926459D01*
X149056260Y-46926909D01*
X148974914Y-46927504D01*
X148900064Y-46928245D01*
X148833127Y-46929132D01*
X148775522Y-46930165D01*
X148728665Y-46931344D01*
X148693975Y-46932668D01*
X148672869Y-46934139D01*
X148565769Y-46953200D01*
X148462386Y-46986370D01*
X148365039Y-47033153D01*
X148274370Y-47093240D01*
X148191018Y-47166324D01*
X148153058Y-47206995D01*
X148087514Y-47293407D01*
X148034498Y-47387380D01*
X147994680Y-47487626D01*
X147968731Y-47592858D01*
X147958804Y-47681129D01*
X146679786Y-47681129D01*
X146672006Y-47674886D01*
X146610446Y-47642551D01*
X146543692Y-47622989D01*
X146501248Y-47617939D01*
X146450705Y-47620102D01*
X146398974Y-47632038D01*
X146343353Y-47654416D01*
X146281140Y-47687903D01*
X146250383Y-47705619D01*
X146204423Y-47729257D01*
X146163323Y-47745459D01*
X146122772Y-47755476D01*
X146078464Y-47760557D01*
X146026090Y-47761954D01*
X145973968Y-47760550D01*
X145930782Y-47755453D01*
X145893166Y-47745409D01*
X145856454Y-47729164D01*
X145815981Y-47705464D01*
X145779138Y-47682099D01*
X145855516Y-47646038D01*
X145856880Y-47645393D01*
X145907079Y-47620202D01*
X145956525Y-47592255D01*
X146006805Y-47560391D01*
X146059501Y-47523452D01*
X146116199Y-47480279D01*
X146178483Y-47429713D01*
X146247939Y-47370595D01*
X146326149Y-47301764D01*
X146366587Y-47265835D01*
X146432049Y-47208300D01*
X146488908Y-47159334D01*
X146538615Y-47117789D01*
X146582620Y-47082515D01*
X146622373Y-47052362D01*
X146659325Y-47026179D01*
X146694927Y-47002819D01*
X146730628Y-46981130D01*
X146755961Y-46967101D01*
X146821211Y-46936434D01*
X146890457Y-46910220D01*
X146956273Y-46891412D01*
X147001901Y-46883550D01*
X147066642Y-46878541D01*
X147134442Y-46878859D01*
X147199580Y-46884431D01*
X147256332Y-46895185D01*
X147289400Y-46905322D01*
X147343098Y-46926250D01*
X147398057Y-46952047D01*
X147448944Y-46980145D01*
X147490429Y-47007975D01*
X147529488Y-47037921D01*
X147556889Y-46992813D01*
X147571989Y-46968597D01*
X147651117Y-46858265D01*
X147742210Y-46755137D01*
X147843688Y-46660454D01*
X147953971Y-46575460D01*
X148071479Y-46501397D01*
X148194633Y-46439509D01*
X148321854Y-46391036D01*
X148347922Y-46382770D01*
X148382260Y-46372373D01*
X148415499Y-46363128D01*
X148448644Y-46354975D01*
X148482703Y-46347850D01*
X148518681Y-46341693D01*
X148557585Y-46336441D01*
X148600420Y-46332032D01*
X148648195Y-46328406D01*
X148701914Y-46325500D01*
X148762584Y-46323252D01*
X148831212Y-46321600D01*
X148908804Y-46320483D01*
X148996366Y-46319840D01*
X149094905Y-46319607D01*
X149205426Y-46319724D01*
G37*
G36*
X181252987Y-49403482D02*
G01*
X181250901Y-49439813D01*
X181238592Y-49507303D01*
X181216492Y-49577100D01*
X181186044Y-49645012D01*
X181148687Y-49706851D01*
X181112499Y-49753467D01*
X181046660Y-49819413D01*
X180972522Y-49873776D01*
X180891476Y-49915883D01*
X180804912Y-49945063D01*
X180714219Y-49960644D01*
X180620788Y-49961955D01*
X180594382Y-49959870D01*
X180528802Y-49950159D01*
X180468280Y-49933273D01*
X180406117Y-49907515D01*
X180324562Y-49861534D01*
X180250912Y-49803834D01*
X180188104Y-49736353D01*
X180136841Y-49659982D01*
X180097824Y-49575608D01*
X180071756Y-49484123D01*
X180067502Y-49460307D01*
X180063083Y-49426989D01*
X180061088Y-49399732D01*
X180060383Y-49364100D01*
X181253118Y-49364100D01*
X181252987Y-49403482D01*
G37*
G36*
X180709610Y-45491298D02*
G01*
X180797080Y-45506210D01*
X180882110Y-45533497D01*
X180962279Y-45572277D01*
X181035168Y-45621664D01*
X181098355Y-45680775D01*
X181103402Y-45686506D01*
X181131683Y-45722742D01*
X181160997Y-45765919D01*
X181187555Y-45810177D01*
X181207569Y-45849658D01*
X181217755Y-45875770D01*
X181231246Y-45919564D01*
X181242484Y-45966336D01*
X181250186Y-46010526D01*
X181253065Y-46046572D01*
X181253118Y-46085954D01*
X180060383Y-46085954D01*
X180060383Y-46055632D01*
X180060389Y-46054651D01*
X180062126Y-46031406D01*
X180066363Y-46000365D01*
X180072229Y-45967962D01*
X180074089Y-45959269D01*
X180101358Y-45869413D01*
X180141223Y-45786598D01*
X180192612Y-45711820D01*
X180254451Y-45646072D01*
X180325666Y-45590349D01*
X180405184Y-45545644D01*
X180491932Y-45512952D01*
X180584835Y-45493267D01*
X180622122Y-45489645D01*
X180709610Y-45491298D01*
G37*
G36*
X180726180Y-47239165D02*
G01*
X180795528Y-47252972D01*
X180841063Y-47269083D01*
X180913905Y-47306955D01*
X180980008Y-47356855D01*
X181037815Y-47417302D01*
X181085767Y-47486811D01*
X181122308Y-47563903D01*
X181129162Y-47582716D01*
X181135658Y-47603962D01*
X181139869Y-47625019D01*
X181142303Y-47649683D01*
X181143468Y-47681753D01*
X181143873Y-47725027D01*
X181143886Y-47757205D01*
X181143249Y-47792255D01*
X181141429Y-47818782D01*
X181137960Y-47840570D01*
X181132377Y-47861404D01*
X181124215Y-47885068D01*
X181120218Y-47895768D01*
X181090207Y-47961595D01*
X181052904Y-48018950D01*
X181004913Y-48073189D01*
X180997604Y-48080390D01*
X180942946Y-48126976D01*
X180884466Y-48163165D01*
X180816791Y-48192363D01*
X180805336Y-48196423D01*
X180782536Y-48203495D01*
X180760624Y-48208124D01*
X180735629Y-48210821D01*
X180703578Y-48212096D01*
X180660501Y-48212461D01*
X180655115Y-48212466D01*
X180612130Y-48212071D01*
X180579607Y-48210547D01*
X180553456Y-48207423D01*
X180529584Y-48202230D01*
X180503902Y-48194501D01*
X180473166Y-48183047D01*
X180403870Y-48146731D01*
X180340012Y-48098854D01*
X180283497Y-48041518D01*
X180236231Y-47976828D01*
X180200119Y-47906887D01*
X180177069Y-47833798D01*
X180173541Y-47815775D01*
X180165944Y-47731927D01*
X180172365Y-47649632D01*
X180192019Y-47570430D01*
X180224124Y-47495864D01*
X180267895Y-47427473D01*
X180322549Y-47366800D01*
X180387301Y-47315386D01*
X180461367Y-47274773D01*
X180503193Y-47259160D01*
X180575231Y-47242571D01*
X180651154Y-47235802D01*
X180726180Y-47239165D01*
G37*
G36*
X180482926Y-46319724D02*
G01*
X180606437Y-46320128D01*
X180743944Y-46320758D01*
X180780554Y-46320940D01*
X180896349Y-46321525D01*
X180998544Y-46322096D01*
X181088222Y-46322708D01*
X181166467Y-46323420D01*
X181234364Y-46324287D01*
X181292998Y-46325367D01*
X181343452Y-46326716D01*
X181386811Y-46328391D01*
X181424160Y-46330449D01*
X181456582Y-46332947D01*
X181485162Y-46335941D01*
X181510984Y-46339488D01*
X181535133Y-46343645D01*
X181558693Y-46348469D01*
X181582748Y-46354017D01*
X181608383Y-46360345D01*
X181636682Y-46367510D01*
X181700803Y-46385538D01*
X181805873Y-46423242D01*
X181913266Y-46472211D01*
X181917311Y-46474246D01*
X182041606Y-46545302D01*
X182157096Y-46628073D01*
X182263121Y-46721690D01*
X182359023Y-46825283D01*
X182444143Y-46937983D01*
X182517823Y-47058922D01*
X182579404Y-47187230D01*
X182628227Y-47322037D01*
X182663634Y-47462475D01*
X182665160Y-47470400D01*
X182674857Y-47536830D01*
X182681465Y-47612705D01*
X182684871Y-47693385D01*
X182684962Y-47774230D01*
X182681625Y-47850598D01*
X182674747Y-47917848D01*
X182658202Y-48011859D01*
X182621480Y-48151068D01*
X182571395Y-48284460D01*
X182508518Y-48411251D01*
X182433417Y-48530659D01*
X182346663Y-48641904D01*
X182248824Y-48744201D01*
X182140470Y-48836770D01*
X182022170Y-48918827D01*
X181894494Y-48989592D01*
X181829989Y-49019227D01*
X181700853Y-49066912D01*
X181566079Y-49101558D01*
X181424072Y-49123619D01*
X181421799Y-49123845D01*
X181398964Y-49125211D01*
X181362689Y-49126446D01*
X181314323Y-49127551D01*
X181255219Y-49128525D01*
X181186725Y-49129368D01*
X181110192Y-49130080D01*
X181026971Y-49130661D01*
X180987329Y-49130863D01*
X180938411Y-49131112D01*
X180845864Y-49131431D01*
X180750679Y-49131620D01*
X180654207Y-49131677D01*
X180557799Y-49131604D01*
X180462804Y-49131399D01*
X180370573Y-49131064D01*
X180282456Y-49130597D01*
X180199804Y-49129999D01*
X180123967Y-49129270D01*
X180056295Y-49128409D01*
X179998139Y-49127418D01*
X179950850Y-49126295D01*
X179915776Y-49125040D01*
X179894270Y-49123655D01*
X179886465Y-49122840D01*
X179743619Y-49100165D01*
X179605277Y-49063559D01*
X179472331Y-49013578D01*
X179345670Y-48950777D01*
X179226184Y-48875712D01*
X179114761Y-48788938D01*
X179012293Y-48691012D01*
X178919669Y-48582488D01*
X178837779Y-48463922D01*
X178825225Y-48443662D01*
X178814924Y-48427169D01*
X178810188Y-48419762D01*
X178809794Y-48419625D01*
X178801113Y-48423308D01*
X178783769Y-48433215D01*
X178760976Y-48447531D01*
X178694331Y-48485963D01*
X178611156Y-48521108D01*
X178520578Y-48546087D01*
X178420120Y-48561728D01*
X178340569Y-48565964D01*
X178235870Y-48558829D01*
X178133697Y-48537582D01*
X178035408Y-48502731D01*
X177942364Y-48454783D01*
X177855923Y-48394247D01*
X177777447Y-48321630D01*
X177757724Y-48299593D01*
X177733587Y-48270334D01*
X177709510Y-48239189D01*
X177687424Y-48208824D01*
X177669258Y-48181902D01*
X177656943Y-48161089D01*
X177652409Y-48149047D01*
X177653798Y-48147319D01*
X177664425Y-48148748D01*
X177682255Y-48156280D01*
X177731069Y-48175900D01*
X177789842Y-48188693D01*
X177849488Y-48191800D01*
X177906050Y-48185046D01*
X177955573Y-48168259D01*
X177977405Y-48155637D01*
X178017311Y-48123262D01*
X178053213Y-48082754D01*
X178080936Y-48038439D01*
X178089668Y-48018414D01*
X178095282Y-47997157D01*
X178098023Y-47970906D01*
X178098747Y-47934679D01*
X178098551Y-47909880D01*
X178096953Y-47882887D01*
X178092626Y-47861064D01*
X178084261Y-47838609D01*
X178070547Y-47809719D01*
X178047953Y-47771068D01*
X178003599Y-47718292D01*
X177957286Y-47681129D01*
X179236304Y-47681129D01*
X179237988Y-47786022D01*
X179253733Y-47891294D01*
X179283352Y-47994904D01*
X179292664Y-48019657D01*
X179338833Y-48116600D01*
X179397103Y-48205412D01*
X179466591Y-48285293D01*
X179546416Y-48355441D01*
X179635696Y-48415056D01*
X179733548Y-48463337D01*
X179839089Y-48499482D01*
X179914104Y-48519980D01*
X180615492Y-48522488D01*
X180667533Y-48522673D01*
X180787411Y-48523068D01*
X180893678Y-48523334D01*
X180987329Y-48523427D01*
X181069359Y-48523302D01*
X181140763Y-48522914D01*
X181202533Y-48522220D01*
X181255666Y-48521175D01*
X181301155Y-48519735D01*
X181339995Y-48517855D01*
X181373180Y-48515491D01*
X181401704Y-48512598D01*
X181426563Y-48509133D01*
X181448750Y-48505050D01*
X181469260Y-48500307D01*
X181489088Y-48494857D01*
X181509227Y-48488657D01*
X181530672Y-48481662D01*
X181613682Y-48449688D01*
X181702031Y-48402989D01*
X181782862Y-48344855D01*
X181858867Y-48273577D01*
X181906077Y-48219788D01*
X181968329Y-48131443D01*
X182016594Y-48037704D01*
X182050943Y-47938391D01*
X182071448Y-47833324D01*
X182078182Y-47722323D01*
X182077903Y-47702031D01*
X182067961Y-47595813D01*
X182044408Y-47494007D01*
X182008113Y-47397570D01*
X181959942Y-47307459D01*
X181900764Y-47224630D01*
X181831446Y-47150040D01*
X181752857Y-47084644D01*
X181665862Y-47029399D01*
X181571332Y-46985263D01*
X181470132Y-46953190D01*
X181363132Y-46934139D01*
X181360677Y-46933889D01*
X181337260Y-46932442D01*
X181300490Y-46931142D01*
X181251785Y-46929987D01*
X181192561Y-46928978D01*
X181124238Y-46928114D01*
X181048232Y-46927397D01*
X180965962Y-46926825D01*
X180878845Y-46926400D01*
X180788299Y-46926120D01*
X180695743Y-46925986D01*
X180602592Y-46925998D01*
X180510267Y-46926156D01*
X180420183Y-46926459D01*
X180333760Y-46926909D01*
X180252414Y-46927504D01*
X180177564Y-46928245D01*
X180110627Y-46929132D01*
X180053022Y-46930165D01*
X180006165Y-46931344D01*
X179971475Y-46932668D01*
X179950369Y-46934139D01*
X179843269Y-46953200D01*
X179739886Y-46986370D01*
X179642539Y-47033153D01*
X179551870Y-47093240D01*
X179468518Y-47166324D01*
X179430558Y-47206995D01*
X179365014Y-47293407D01*
X179311998Y-47387380D01*
X179272180Y-47487626D01*
X179246231Y-47592858D01*
X179236304Y-47681129D01*
X177957286Y-47681129D01*
X177949506Y-47674886D01*
X177887946Y-47642551D01*
X177821192Y-47622989D01*
X177778748Y-47617939D01*
X177728205Y-47620102D01*
X177676474Y-47632038D01*
X177620853Y-47654416D01*
X177558640Y-47687903D01*
X177527883Y-47705619D01*
X177481923Y-47729257D01*
X177440823Y-47745459D01*
X177400272Y-47755476D01*
X177355964Y-47760557D01*
X177303590Y-47761954D01*
X177251468Y-47760550D01*
X177208282Y-47755453D01*
X177170666Y-47745409D01*
X177133954Y-47729164D01*
X177093481Y-47705464D01*
X177056638Y-47682099D01*
X177133016Y-47646038D01*
X177134380Y-47645393D01*
X177184579Y-47620202D01*
X177234025Y-47592255D01*
X177284305Y-47560391D01*
X177337001Y-47523452D01*
X177393699Y-47480279D01*
X177455983Y-47429713D01*
X177525439Y-47370595D01*
X177603649Y-47301764D01*
X177644087Y-47265835D01*
X177709549Y-47208300D01*
X177766408Y-47159334D01*
X177816115Y-47117789D01*
X177860120Y-47082515D01*
X177899873Y-47052362D01*
X177936825Y-47026179D01*
X177972427Y-47002819D01*
X178008128Y-46981130D01*
X178033461Y-46967101D01*
X178098711Y-46936434D01*
X178167957Y-46910220D01*
X178233773Y-46891412D01*
X178279401Y-46883550D01*
X178344142Y-46878541D01*
X178411942Y-46878859D01*
X178477080Y-46884431D01*
X178533832Y-46895185D01*
X178566900Y-46905322D01*
X178620598Y-46926250D01*
X178675557Y-46952047D01*
X178726444Y-46980145D01*
X178767929Y-47007975D01*
X178806988Y-47037921D01*
X178834389Y-46992813D01*
X178849489Y-46968597D01*
X178928617Y-46858265D01*
X179019710Y-46755137D01*
X179121188Y-46660454D01*
X179231471Y-46575460D01*
X179348979Y-46501397D01*
X179472133Y-46439509D01*
X179599354Y-46391036D01*
X179625422Y-46382770D01*
X179659760Y-46372373D01*
X179692999Y-46363128D01*
X179726144Y-46354975D01*
X179760203Y-46347850D01*
X179796181Y-46341693D01*
X179835085Y-46336441D01*
X179877920Y-46332032D01*
X179925695Y-46328406D01*
X179979414Y-46325500D01*
X180040084Y-46323252D01*
X180108712Y-46321600D01*
X180186304Y-46320483D01*
X180273866Y-46319840D01*
X180372405Y-46319607D01*
X180482926Y-46319724D01*
G37*
%TD*%
D11*
%TO.C,P1*%
X183167500Y-44791500D03*
X177387500Y-44791500D03*
D12*
X184597500Y-45291500D03*
X175957500Y-45291500D03*
D13*
X184597500Y-41111500D03*
X175957500Y-41111500D03*
%TD*%
D14*
%TO.C,REF\u002A\u002A2*%
X122491914Y-93589600D03*
%TD*%
D15*
%TO.C,J11*%
X153747500Y-66344000D03*
D16*
X151207500Y-66344000D03*
X148667500Y-66344000D03*
X146127500Y-66344000D03*
%TD*%
D15*
%TO.C,J9*%
X197214000Y-91617000D03*
D16*
X199754000Y-91617000D03*
%TD*%
D14*
%TO.C,REF\u002A\u002A1*%
X83811200Y-85598600D03*
%TD*%
D15*
%TO.C,J21*%
X80999114Y-105045000D03*
D16*
X78459114Y-105045000D03*
X75919114Y-105045000D03*
X73379114Y-105045000D03*
%TD*%
D17*
%TO.C,REF\u002A\u002A*%
X168735500Y-109270000D03*
%TD*%
D18*
%TO.C,J12*%
X197600000Y-59774000D03*
D19*
X199600000Y-59774000D03*
%TD*%
D17*
%TO.C,REF\u002A\u002A*%
X147018500Y-91109000D03*
%TD*%
D14*
%TO.C,REF\u002A\u002A2*%
X83811200Y-40996200D03*
%TD*%
%TO.C,REF\u002A\u002A1*%
X122491914Y-138192000D03*
%TD*%
D15*
%TO.C,J11*%
X185025000Y-66344000D03*
D16*
X182485000Y-66344000D03*
X179945000Y-66344000D03*
X177405000Y-66344000D03*
%TD*%
D20*
%TO.C,S7*%
X138341514Y-120179800D03*
X138341514Y-113379800D03*
%TD*%
%TO.C,S1*%
X167222500Y-40274000D03*
X160422500Y-40274000D03*
%TD*%
D21*
%TO.C,P2*%
X79566600Y-76364200D03*
X88106600Y-76364200D03*
%TD*%
D14*
%TO.C,REF\u002A\u002A1*%
X122002000Y-85447000D03*
%TD*%
D15*
%TO.C,J21*%
X118700000Y-52300000D03*
D16*
X116160000Y-52300000D03*
X113620000Y-52300000D03*
X111080000Y-52300000D03*
%TD*%
D14*
%TO.C,REF\u002A\u002A2*%
X45429800Y-93484200D03*
%TD*%
D20*
%TO.C,S7*%
X61310000Y-67598400D03*
X61310000Y-60798400D03*
%TD*%
D14*
%TO.C,REF\u002A\u002A2*%
X122002000Y-40844600D03*
%TD*%
D20*
%TO.C,S7*%
X99660800Y-67586400D03*
X99660800Y-60786400D03*
%TD*%
%TO.C,S7*%
X137851600Y-67434800D03*
X137851600Y-60634800D03*
%TD*%
D17*
%TO.C,REF\u002A\u002A*%
X200013000Y-109270000D03*
%TD*%
%TO.C,REF\u002A\u002A*%
X146637500Y-59105000D03*
%TD*%
D11*
%TO.C,P1*%
X151890000Y-44791500D03*
X146110000Y-44791500D03*
D12*
X153320000Y-45291500D03*
X144680000Y-45291500D03*
D13*
X153320000Y-41111500D03*
X144680000Y-41111500D03*
%TD*%
D15*
%TO.C,J21*%
X42127800Y-104939600D03*
D16*
X39587800Y-104939600D03*
X37047800Y-104939600D03*
X34507800Y-104939600D03*
%TD*%
D15*
%TO.C,J21*%
X80509200Y-52451600D03*
D16*
X77969200Y-52451600D03*
X75429200Y-52451600D03*
X72889200Y-52451600D03*
%TD*%
D21*
%TO.C,P2*%
X41185200Y-128852200D03*
X49725200Y-128852200D03*
%TD*%
D20*
%TO.C,S7*%
X61279400Y-120074400D03*
X61279400Y-113274400D03*
%TD*%
D22*
%TO.C,J22*%
X129732400Y-55281200D03*
D23*
X129732400Y-53281200D03*
%TD*%
D22*
%TO.C,J22*%
X92031514Y-108026200D03*
D23*
X92031514Y-106026200D03*
%TD*%
D22*
%TO.C,J22*%
X53160200Y-107920800D03*
D23*
X53160200Y-105920800D03*
%TD*%
D17*
%TO.C,REF\u002A\u002A*%
X178296000Y-91109000D03*
%TD*%
D14*
%TO.C,REF\u002A\u002A1*%
X45429800Y-138086600D03*
%TD*%
D17*
%TO.C,REF\u002A\u002A*%
X177915000Y-59105000D03*
%TD*%
D21*
%TO.C,P2*%
X118247314Y-128957600D03*
X126787314Y-128957600D03*
%TD*%
D14*
%TO.C,REF\u002A\u002A1*%
X84301114Y-138192000D03*
%TD*%
%TO.C,REF\u002A\u002A1*%
X45460400Y-85610600D03*
%TD*%
D20*
%TO.C,S1*%
X198500000Y-40274000D03*
X191700000Y-40274000D03*
%TD*%
D14*
%TO.C,REF\u002A\u002A2*%
X45460400Y-41008200D03*
%TD*%
D20*
%TO.C,S7*%
X100150714Y-120179800D03*
X100150714Y-113379800D03*
%TD*%
D14*
%TO.C,REF\u002A\u002A2*%
X84301114Y-93589600D03*
%TD*%
D22*
%TO.C,J22*%
X53190800Y-55444800D03*
D23*
X53190800Y-53444800D03*
%TD*%
D15*
%TO.C,J21*%
X119189914Y-105045000D03*
D16*
X116649914Y-105045000D03*
X114109914Y-105045000D03*
X111569914Y-105045000D03*
%TD*%
D22*
%TO.C,J22*%
X130222314Y-108026200D03*
D23*
X130222314Y-106026200D03*
%TD*%
D22*
%TO.C,J22*%
X91541600Y-55432800D03*
D23*
X91541600Y-53432800D03*
%TD*%
D15*
%TO.C,J9*%
X165936500Y-91617000D03*
D16*
X168476500Y-91617000D03*
%TD*%
D21*
%TO.C,P2*%
X41215800Y-76376200D03*
X49755800Y-76376200D03*
%TD*%
D18*
%TO.C,J12*%
X166322500Y-59774000D03*
D19*
X168322500Y-59774000D03*
%TD*%
D15*
%TO.C,J21*%
X42158400Y-52463600D03*
D16*
X39618400Y-52463600D03*
X37078400Y-52463600D03*
X34538400Y-52463600D03*
%TD*%
D21*
%TO.C,P2*%
X117757400Y-76212600D03*
X126297400Y-76212600D03*
%TD*%
%TO.C,P2*%
X80056514Y-128957600D03*
X88596514Y-128957600D03*
%TD*%
D24*
%TO.C,S6*%
X192621600Y-51729200D03*
X192621600Y-55879200D03*
X194771600Y-51729200D03*
X194771600Y-55879200D03*
%TD*%
D25*
%TO.C,TP2*%
X184011000Y-80847400D03*
%TD*%
D20*
%TO.C,TP7*%
X45358800Y-59169200D03*
%TD*%
D26*
%TO.C,J1*%
X162226500Y-118994000D03*
X166126500Y-118994000D03*
X162226500Y-117724000D03*
X166126500Y-117724000D03*
X162226500Y-116454000D03*
X166126500Y-116454000D03*
%TD*%
D25*
%TO.C,TP1*%
X158270700Y-79806000D03*
%TD*%
D27*
%TO.C,D3*%
X198095000Y-72694000D03*
X199645000Y-72694000D03*
%TD*%
D20*
%TO.C,TP7*%
X84199514Y-111750600D03*
%TD*%
D26*
%TO.C,J1*%
X193626800Y-136529000D03*
X197526800Y-136529000D03*
X193626800Y-135259000D03*
X197526800Y-135259000D03*
X193626800Y-133989000D03*
X197526800Y-133989000D03*
%TD*%
%TO.C,J20*%
X86219914Y-99431600D03*
X82319914Y-99431600D03*
X86219914Y-100701600D03*
X82319914Y-100701600D03*
X86219914Y-101971600D03*
X82319914Y-101971600D03*
%TD*%
%TO.C,J20*%
X47379200Y-46850200D03*
X43479200Y-46850200D03*
X47379200Y-48120200D03*
X43479200Y-48120200D03*
X47379200Y-49390200D03*
X43479200Y-49390200D03*
%TD*%
D20*
%TO.C,TP4*%
X77849514Y-119167400D03*
%TD*%
D28*
%TO.C,S2*%
X186033200Y-59748200D03*
X190183200Y-59748200D03*
X186033200Y-57598200D03*
X190183200Y-57598200D03*
%TD*%
D29*
%TO.C,J1*%
X146967800Y-124144000D03*
X146967800Y-120244000D03*
X145697800Y-124144000D03*
X145697800Y-120244000D03*
X144427800Y-124144000D03*
X144427800Y-120244000D03*
%TD*%
D20*
%TO.C,TP3*%
X155883100Y-84962200D03*
%TD*%
D27*
%TO.C,D2*%
X166817500Y-76504000D03*
X168367500Y-76504000D03*
%TD*%
D26*
%TO.C,J20*%
X85730000Y-46838200D03*
X81830000Y-46838200D03*
X85730000Y-48108200D03*
X81830000Y-48108200D03*
X85730000Y-49378200D03*
X81830000Y-49378200D03*
%TD*%
D27*
%TO.C,D1*%
X166817500Y-80314000D03*
X168367500Y-80314000D03*
%TD*%
D20*
%TO.C,TP4*%
X39008800Y-66586000D03*
%TD*%
D28*
%TO.C,S3*%
X154747900Y-50045400D03*
X158897900Y-50045400D03*
X154747900Y-47895400D03*
X158897900Y-47895400D03*
%TD*%
D26*
%TO.C,J20*%
X124410714Y-99431600D03*
X120510714Y-99431600D03*
X124410714Y-100701600D03*
X120510714Y-100701600D03*
X124410714Y-101971600D03*
X120510714Y-101971600D03*
%TD*%
%TO.C,J20*%
X47348600Y-99326200D03*
X43448600Y-99326200D03*
X47348600Y-100596200D03*
X43448600Y-100596200D03*
X47348600Y-101866200D03*
X43448600Y-101866200D03*
%TD*%
D29*
%TO.C,J1*%
X178494000Y-124177500D03*
X178494000Y-120277500D03*
X177224000Y-124177500D03*
X177224000Y-120277500D03*
X175954000Y-124177500D03*
X175954000Y-120277500D03*
%TD*%
D24*
%TO.C,S6*%
X161344100Y-51729200D03*
X161344100Y-55879200D03*
X163494100Y-51729200D03*
X163494100Y-55879200D03*
%TD*%
D20*
%TO.C,TP4*%
X77359600Y-66574000D03*
%TD*%
D30*
%TO.C,U1*%
X181400000Y-107174000D03*
X193925000Y-96774000D03*
D31*
X184350000Y-96024000D03*
X190850000Y-96024000D03*
X184350000Y-91524000D03*
X190850000Y-91524000D03*
D32*
X193925000Y-106774000D03*
X181275000Y-96774000D03*
D33*
X196330000Y-99474000D03*
D34*
X196330000Y-101774000D03*
D35*
X196330000Y-104074000D03*
D36*
X189900000Y-110504000D03*
D34*
X187600000Y-110504000D03*
D36*
X185300000Y-110504000D03*
%TD*%
D25*
%TO.C,TP1*%
X189548200Y-79806000D03*
%TD*%
D20*
%TO.C,TP4*%
X38978200Y-119062000D03*
%TD*%
D37*
%TO.C,S5*%
X152335300Y-55887500D03*
X152335300Y-51737500D03*
X150185300Y-55887500D03*
X150185300Y-51737500D03*
%TD*%
D27*
%TO.C,D2*%
X198095000Y-76504000D03*
X199645000Y-76504000D03*
%TD*%
D30*
%TO.C,U1*%
X150122500Y-107174000D03*
X162647500Y-96774000D03*
D31*
X153072500Y-96024000D03*
X159572500Y-96024000D03*
X153072500Y-91524000D03*
X159572500Y-91524000D03*
D32*
X162647500Y-106774000D03*
X149997500Y-96774000D03*
D33*
X165052500Y-99474000D03*
D34*
X165052500Y-101774000D03*
D35*
X165052500Y-104074000D03*
D36*
X158622500Y-110504000D03*
D34*
X156322500Y-110504000D03*
D36*
X154022500Y-110504000D03*
%TD*%
D37*
%TO.C,S5*%
X183612800Y-55887500D03*
X183612800Y-51737500D03*
X181462800Y-55887500D03*
X181462800Y-51737500D03*
%TD*%
D25*
%TO.C,TP2*%
X152733500Y-80847400D03*
%TD*%
D27*
%TO.C,D3*%
X166817500Y-72694000D03*
X168367500Y-72694000D03*
%TD*%
D26*
%TO.C,J20*%
X123920800Y-46686600D03*
X120020800Y-46686600D03*
X123920800Y-47956600D03*
X120020800Y-47956600D03*
X123920800Y-49226600D03*
X120020800Y-49226600D03*
%TD*%
%TO.C,J1*%
X193526800Y-119229000D03*
X197426800Y-119229000D03*
X193526800Y-117959000D03*
X197426800Y-117959000D03*
X193526800Y-116689000D03*
X197426800Y-116689000D03*
%TD*%
D20*
%TO.C,TP7*%
X83709600Y-59157200D03*
%TD*%
%TO.C,TP7*%
X122390314Y-111750600D03*
%TD*%
%TO.C,TP7*%
X121900400Y-59005600D03*
%TD*%
%TO.C,TP7*%
X45328200Y-111645200D03*
%TD*%
D28*
%TO.C,S2*%
X154755700Y-59748200D03*
X158905700Y-59748200D03*
X154755700Y-57598200D03*
X158905700Y-57598200D03*
%TD*%
D20*
%TO.C,TP4*%
X116040314Y-119167400D03*
%TD*%
%TO.C,TP3*%
X187160600Y-84962200D03*
%TD*%
D28*
%TO.C,S3*%
X186025400Y-50045400D03*
X190175400Y-50045400D03*
X186025400Y-47895400D03*
X190175400Y-47895400D03*
%TD*%
D26*
%TO.C,J1*%
X162355800Y-136529000D03*
X166255800Y-136529000D03*
X162355800Y-135259000D03*
X166255800Y-135259000D03*
X162355800Y-133989000D03*
X166255800Y-133989000D03*
%TD*%
D20*
%TO.C,TP4*%
X115550400Y-66422400D03*
%TD*%
D27*
%TO.C,D1*%
X198095000Y-80314000D03*
X199645000Y-80314000D03*
%TD*%
M02*
